G75*
%MOIN*%
%OFA0B0*%
%FSLAX25Y25*%
%IPPOS*%
%LPD*%
%AMOC8*
5,1,8,0,0,1.08239X$1,22.5*
%
%ADD10C,0.00600*%
%ADD11C,0.00500*%
%ADD12C,0.00800*%
%ADD13C,0.00000*%
%ADD14C,0.01100*%
%ADD15C,0.01200*%
%ADD16C,0.00200*%
D10*
X0021423Y0038877D02*
X0021423Y0053068D01*
X0021193Y0054223D01*
X0020546Y0055511D01*
X0019546Y0056843D01*
X0018260Y0058131D01*
X0016751Y0059287D01*
X0015086Y0060221D01*
X0013329Y0060847D01*
X0011546Y0061075D01*
X0005020Y0061075D01*
X0005020Y0093285D01*
X0015209Y0093363D01*
X0016100Y0093845D01*
X0016736Y0094600D01*
X0017115Y0095536D01*
X0017240Y0096561D01*
X0017110Y0097585D01*
X0016728Y0098513D01*
X0016094Y0099256D01*
X0015209Y0099720D01*
X0005020Y0099735D01*
X0005020Y0114803D02*
X0015209Y0114803D01*
X0017371Y0115090D01*
X0019206Y0115887D01*
X0020725Y0117096D01*
X0021940Y0118620D01*
X0022864Y0120362D01*
X0023509Y0122225D01*
X0023887Y0124111D01*
X0024010Y0125924D01*
X0024010Y0145461D01*
X0048922Y0128078D02*
X0049312Y0128199D01*
X0049731Y0128242D01*
X0082283Y0128242D01*
X0082702Y0128199D01*
X0083092Y0128078D01*
X0083446Y0127885D01*
X0083755Y0127630D01*
X0084009Y0127321D01*
X0084202Y0126968D01*
X0084324Y0126577D01*
X0084366Y0126159D01*
X0084366Y0105976D01*
X0084324Y0105558D01*
X0084202Y0105167D01*
X0084009Y0104813D01*
X0083755Y0104505D01*
X0083446Y0104250D01*
X0083092Y0104057D01*
X0082702Y0103935D01*
X0082283Y0103893D01*
X0049731Y0103893D01*
X0049312Y0103935D01*
X0048922Y0104057D01*
X0048568Y0104250D01*
X0048259Y0104505D01*
X0048005Y0104813D01*
X0047812Y0105167D01*
X0047690Y0105558D01*
X0047647Y0105976D01*
X0047647Y0126159D01*
X0047690Y0126577D01*
X0047812Y0126968D01*
X0048005Y0127321D01*
X0048259Y0127630D01*
X0048568Y0127885D01*
X0048922Y0128078D01*
X0045545Y0125055D02*
X0044823Y0125055D01*
X0045545Y0125055D02*
X0045545Y0122455D01*
X0045545Y0123611D02*
X0044823Y0123611D01*
X0044678Y0123611D02*
X0044100Y0122455D01*
X0042696Y0122455D02*
X0041252Y0122455D01*
X0041974Y0122455D02*
X0041974Y0125055D01*
X0042696Y0124477D01*
X0044823Y0125055D02*
X0044770Y0125053D01*
X0044718Y0125047D01*
X0044666Y0125038D01*
X0044615Y0125024D01*
X0044565Y0125007D01*
X0044517Y0124987D01*
X0044470Y0124963D01*
X0044425Y0124935D01*
X0044382Y0124904D01*
X0044341Y0124871D01*
X0044303Y0124834D01*
X0044268Y0124795D01*
X0044236Y0124753D01*
X0044207Y0124709D01*
X0044181Y0124663D01*
X0044159Y0124615D01*
X0044140Y0124566D01*
X0044124Y0124516D01*
X0044113Y0124464D01*
X0044105Y0124412D01*
X0044101Y0124359D01*
X0044101Y0124307D01*
X0044105Y0124254D01*
X0044113Y0124202D01*
X0044124Y0124150D01*
X0044140Y0124100D01*
X0044159Y0124051D01*
X0044181Y0124003D01*
X0044207Y0123957D01*
X0044236Y0123913D01*
X0044268Y0123871D01*
X0044303Y0123832D01*
X0044341Y0123795D01*
X0044382Y0123762D01*
X0044425Y0123731D01*
X0044470Y0123703D01*
X0044517Y0123679D01*
X0044565Y0123659D01*
X0044615Y0123642D01*
X0044666Y0123628D01*
X0044718Y0123619D01*
X0044770Y0123613D01*
X0044823Y0123611D01*
X0039816Y0123033D02*
X0038372Y0123033D01*
X0038805Y0123611D02*
X0038805Y0122455D01*
X0039816Y0123033D02*
X0039238Y0125055D01*
X0039199Y0118574D02*
X0040066Y0118574D01*
X0039199Y0118574D02*
X0039152Y0118572D01*
X0039106Y0118567D01*
X0039061Y0118557D01*
X0039016Y0118544D01*
X0038972Y0118528D01*
X0038930Y0118508D01*
X0038890Y0118485D01*
X0038852Y0118458D01*
X0038816Y0118429D01*
X0038782Y0118396D01*
X0038751Y0118362D01*
X0038723Y0118324D01*
X0038698Y0118285D01*
X0038677Y0118244D01*
X0038659Y0118201D01*
X0038644Y0118157D01*
X0038633Y0118112D01*
X0038625Y0118066D01*
X0038621Y0118019D01*
X0038621Y0117973D01*
X0038625Y0117926D01*
X0038633Y0117880D01*
X0038644Y0117835D01*
X0038659Y0117791D01*
X0038677Y0117748D01*
X0038698Y0117707D01*
X0038723Y0117668D01*
X0038751Y0117630D01*
X0038782Y0117596D01*
X0038816Y0117563D01*
X0038852Y0117534D01*
X0038890Y0117507D01*
X0038930Y0117484D01*
X0038972Y0117464D01*
X0039016Y0117448D01*
X0039061Y0117435D01*
X0039106Y0117425D01*
X0039152Y0117420D01*
X0039199Y0117418D01*
X0039777Y0117418D01*
X0039344Y0117418D02*
X0039291Y0117416D01*
X0039239Y0117410D01*
X0039187Y0117401D01*
X0039136Y0117387D01*
X0039086Y0117370D01*
X0039038Y0117350D01*
X0038991Y0117326D01*
X0038946Y0117298D01*
X0038903Y0117267D01*
X0038862Y0117234D01*
X0038824Y0117197D01*
X0038789Y0117158D01*
X0038757Y0117116D01*
X0038728Y0117072D01*
X0038702Y0117026D01*
X0038680Y0116978D01*
X0038661Y0116929D01*
X0038645Y0116879D01*
X0038634Y0116827D01*
X0038626Y0116775D01*
X0038622Y0116722D01*
X0038622Y0116670D01*
X0038626Y0116617D01*
X0038634Y0116565D01*
X0038645Y0116513D01*
X0038661Y0116463D01*
X0038680Y0116414D01*
X0038702Y0116366D01*
X0038728Y0116320D01*
X0038757Y0116276D01*
X0038789Y0116234D01*
X0038824Y0116195D01*
X0038862Y0116158D01*
X0038903Y0116125D01*
X0038946Y0116094D01*
X0038991Y0116066D01*
X0039038Y0116042D01*
X0039086Y0116022D01*
X0039136Y0116005D01*
X0039187Y0115991D01*
X0039239Y0115982D01*
X0039291Y0115976D01*
X0039344Y0115974D01*
X0040066Y0115974D01*
X0041502Y0115974D02*
X0042946Y0115974D01*
X0042224Y0115974D02*
X0042224Y0118574D01*
X0042946Y0117996D01*
X0045073Y0118574D02*
X0045020Y0118572D01*
X0044968Y0118566D01*
X0044916Y0118557D01*
X0044865Y0118543D01*
X0044815Y0118526D01*
X0044767Y0118506D01*
X0044720Y0118482D01*
X0044675Y0118454D01*
X0044632Y0118423D01*
X0044591Y0118390D01*
X0044553Y0118353D01*
X0044518Y0118314D01*
X0044486Y0118272D01*
X0044457Y0118228D01*
X0044431Y0118182D01*
X0044409Y0118134D01*
X0044390Y0118085D01*
X0044374Y0118035D01*
X0044363Y0117983D01*
X0044355Y0117931D01*
X0044351Y0117878D01*
X0044351Y0117826D01*
X0044355Y0117773D01*
X0044363Y0117721D01*
X0044374Y0117669D01*
X0044390Y0117619D01*
X0044409Y0117570D01*
X0044431Y0117522D01*
X0044457Y0117476D01*
X0044486Y0117432D01*
X0044518Y0117390D01*
X0044553Y0117351D01*
X0044591Y0117314D01*
X0044632Y0117281D01*
X0044675Y0117250D01*
X0044720Y0117222D01*
X0044767Y0117198D01*
X0044815Y0117178D01*
X0044865Y0117161D01*
X0044916Y0117147D01*
X0044968Y0117138D01*
X0045020Y0117132D01*
X0045073Y0117130D01*
X0045073Y0117129D02*
X0045795Y0117129D01*
X0044928Y0117129D02*
X0044350Y0115974D01*
X0045795Y0115974D02*
X0045795Y0118574D01*
X0045073Y0118574D01*
X0045065Y0110627D02*
X0045643Y0110627D01*
X0045691Y0110625D01*
X0045738Y0110619D01*
X0045785Y0110609D01*
X0045831Y0110596D01*
X0045875Y0110578D01*
X0045918Y0110557D01*
X0045959Y0110533D01*
X0045998Y0110505D01*
X0046034Y0110474D01*
X0046068Y0110440D01*
X0046099Y0110404D01*
X0046127Y0110365D01*
X0046151Y0110324D01*
X0046172Y0110281D01*
X0046190Y0110237D01*
X0046203Y0110191D01*
X0046213Y0110144D01*
X0046219Y0110097D01*
X0046221Y0110049D01*
X0046221Y0108605D01*
X0046219Y0108560D01*
X0046214Y0108515D01*
X0046205Y0108470D01*
X0046193Y0108426D01*
X0046177Y0108384D01*
X0046158Y0108343D01*
X0046136Y0108303D01*
X0046111Y0108265D01*
X0046083Y0108230D01*
X0046052Y0108196D01*
X0046018Y0108165D01*
X0045983Y0108137D01*
X0045945Y0108112D01*
X0045905Y0108090D01*
X0045864Y0108071D01*
X0045822Y0108055D01*
X0045778Y0108043D01*
X0045733Y0108034D01*
X0045688Y0108029D01*
X0045643Y0108027D01*
X0045065Y0108027D01*
X0043807Y0108027D02*
X0042940Y0108027D01*
X0042892Y0108029D01*
X0042845Y0108035D01*
X0042798Y0108045D01*
X0042752Y0108058D01*
X0042708Y0108076D01*
X0042665Y0108097D01*
X0042624Y0108121D01*
X0042585Y0108149D01*
X0042549Y0108180D01*
X0042515Y0108214D01*
X0042484Y0108250D01*
X0042456Y0108289D01*
X0042432Y0108330D01*
X0042411Y0108373D01*
X0042393Y0108417D01*
X0042380Y0108463D01*
X0042370Y0108510D01*
X0042364Y0108557D01*
X0042362Y0108605D01*
X0042363Y0108605D02*
X0042363Y0108894D01*
X0042362Y0108894D02*
X0042364Y0108939D01*
X0042369Y0108984D01*
X0042378Y0109029D01*
X0042390Y0109073D01*
X0042406Y0109115D01*
X0042425Y0109156D01*
X0042447Y0109196D01*
X0042472Y0109234D01*
X0042500Y0109269D01*
X0042531Y0109303D01*
X0042565Y0109334D01*
X0042600Y0109362D01*
X0042638Y0109387D01*
X0042678Y0109409D01*
X0042719Y0109428D01*
X0042761Y0109444D01*
X0042805Y0109456D01*
X0042850Y0109465D01*
X0042895Y0109470D01*
X0042940Y0109472D01*
X0042940Y0109471D02*
X0043807Y0109471D01*
X0043807Y0110627D01*
X0042363Y0110627D01*
X0063133Y0108769D02*
X0064867Y0108769D01*
X0064000Y0107903D02*
X0064000Y0109636D01*
X0085495Y0109758D02*
X0086073Y0110914D01*
X0086217Y0110914D02*
X0086939Y0110914D01*
X0086217Y0110914D02*
X0086164Y0110916D01*
X0086112Y0110922D01*
X0086060Y0110931D01*
X0086009Y0110945D01*
X0085959Y0110962D01*
X0085911Y0110982D01*
X0085864Y0111006D01*
X0085819Y0111034D01*
X0085776Y0111065D01*
X0085735Y0111098D01*
X0085697Y0111135D01*
X0085662Y0111174D01*
X0085630Y0111216D01*
X0085601Y0111260D01*
X0085575Y0111306D01*
X0085553Y0111354D01*
X0085534Y0111403D01*
X0085518Y0111453D01*
X0085507Y0111505D01*
X0085499Y0111557D01*
X0085495Y0111610D01*
X0085495Y0111662D01*
X0085499Y0111715D01*
X0085507Y0111767D01*
X0085518Y0111819D01*
X0085534Y0111869D01*
X0085553Y0111918D01*
X0085575Y0111966D01*
X0085601Y0112012D01*
X0085630Y0112056D01*
X0085662Y0112098D01*
X0085697Y0112137D01*
X0085735Y0112174D01*
X0085776Y0112207D01*
X0085819Y0112238D01*
X0085864Y0112266D01*
X0085911Y0112290D01*
X0085959Y0112310D01*
X0086009Y0112327D01*
X0086060Y0112341D01*
X0086112Y0112350D01*
X0086164Y0112356D01*
X0086217Y0112358D01*
X0086939Y0112358D01*
X0086939Y0109758D01*
X0088301Y0109758D02*
X0089457Y0109758D01*
X0089457Y0112358D01*
X0088301Y0112358D01*
X0088590Y0111203D02*
X0089457Y0111203D01*
X0090806Y0112358D02*
X0092250Y0112358D01*
X0091528Y0112358D02*
X0091528Y0109758D01*
X0093293Y0109758D02*
X0094449Y0109758D01*
X0094449Y0112358D01*
X0093293Y0112358D01*
X0093582Y0111203D02*
X0094449Y0111203D01*
X0096133Y0112358D02*
X0096133Y0109758D01*
X0097000Y0110914D02*
X0096133Y0112358D01*
X0097000Y0110914D02*
X0097867Y0112358D01*
X0097867Y0109758D01*
X0097867Y0114558D02*
X0096711Y0114558D01*
X0095619Y0114558D02*
X0095041Y0114558D01*
X0095330Y0114558D02*
X0095330Y0117158D01*
X0095619Y0117158D02*
X0095041Y0117158D01*
X0093652Y0116581D02*
X0093652Y0115136D01*
X0093653Y0115136D02*
X0093651Y0115091D01*
X0093646Y0115046D01*
X0093637Y0115001D01*
X0093625Y0114957D01*
X0093609Y0114915D01*
X0093590Y0114874D01*
X0093568Y0114834D01*
X0093543Y0114796D01*
X0093515Y0114761D01*
X0093484Y0114727D01*
X0093450Y0114696D01*
X0093415Y0114668D01*
X0093377Y0114643D01*
X0093337Y0114621D01*
X0093296Y0114602D01*
X0093254Y0114586D01*
X0093210Y0114574D01*
X0093165Y0114565D01*
X0093120Y0114560D01*
X0093075Y0114558D01*
X0092208Y0114558D01*
X0092208Y0116003D01*
X0092641Y0116003D01*
X0093653Y0116581D02*
X0093651Y0116629D01*
X0093645Y0116676D01*
X0093635Y0116723D01*
X0093622Y0116769D01*
X0093604Y0116813D01*
X0093583Y0116856D01*
X0093559Y0116897D01*
X0093531Y0116936D01*
X0093500Y0116972D01*
X0093466Y0117006D01*
X0093430Y0117037D01*
X0093391Y0117065D01*
X0093350Y0117089D01*
X0093307Y0117110D01*
X0093263Y0117128D01*
X0093217Y0117141D01*
X0093170Y0117151D01*
X0093123Y0117157D01*
X0093075Y0117159D01*
X0093075Y0117158D02*
X0092208Y0117158D01*
X0090580Y0117158D02*
X0090580Y0114558D01*
X0089136Y0114558D02*
X0089136Y0117158D01*
X0089136Y0116003D02*
X0090580Y0116003D01*
X0087796Y0117158D02*
X0086352Y0117158D01*
X0087074Y0117158D02*
X0087074Y0114558D01*
X0097867Y0114558D02*
X0097867Y0117158D01*
X0084824Y0126577D02*
X0084702Y0126968D01*
X0064482Y0141013D02*
X0127898Y0141164D01*
X0128159Y0148568D01*
X0287331Y0148568D01*
X0290523Y0145461D01*
X0357569Y0145461D01*
X0357592Y0134183D01*
X0357824Y0132969D01*
X0358388Y0131631D01*
X0359236Y0130256D01*
X0360319Y0128933D01*
X0361589Y0127750D01*
X0362996Y0126796D01*
X0364493Y0126160D01*
X0366029Y0125929D01*
X0366305Y0125935D01*
X0382514Y0125924D01*
X0382514Y0061075D01*
X0337320Y0061075D01*
X0336330Y0060907D01*
X0335071Y0060421D01*
X0333666Y0059641D01*
X0332239Y0058595D01*
X0330914Y0057307D01*
X0329814Y0055804D01*
X0329064Y0054111D01*
X0328786Y0052254D01*
X0328786Y0048361D01*
X0274578Y0048361D01*
X0274578Y0038877D01*
X0021423Y0038877D01*
X0008163Y0061576D02*
X0008129Y0079347D01*
X0081436Y0079347D01*
X0081404Y0039347D01*
X0106767Y0049235D02*
X0109367Y0049235D01*
X0107922Y0050102D01*
X0109367Y0050969D01*
X0106767Y0050969D01*
X0106767Y0052405D02*
X0106767Y0052983D01*
X0106767Y0052694D02*
X0109367Y0052694D01*
X0109367Y0052405D02*
X0109367Y0052983D01*
X0108283Y0054541D02*
X0107850Y0055335D01*
X0106766Y0055047D02*
X0106768Y0054978D01*
X0106774Y0054910D01*
X0106783Y0054841D01*
X0106797Y0054774D01*
X0106814Y0054707D01*
X0106835Y0054642D01*
X0106860Y0054577D01*
X0106888Y0054515D01*
X0106920Y0054454D01*
X0106955Y0054394D01*
X0106994Y0054337D01*
X0107035Y0054282D01*
X0107080Y0054230D01*
X0107127Y0054180D01*
X0107851Y0055336D02*
X0107825Y0055375D01*
X0107797Y0055413D01*
X0107766Y0055448D01*
X0107732Y0055480D01*
X0107695Y0055509D01*
X0107656Y0055536D01*
X0107616Y0055559D01*
X0107573Y0055579D01*
X0107529Y0055595D01*
X0107484Y0055608D01*
X0107438Y0055618D01*
X0107392Y0055623D01*
X0107345Y0055625D01*
X0107300Y0055623D01*
X0107255Y0055618D01*
X0107210Y0055609D01*
X0107166Y0055597D01*
X0107124Y0055581D01*
X0107083Y0055562D01*
X0107043Y0055540D01*
X0107005Y0055515D01*
X0106970Y0055487D01*
X0106936Y0055456D01*
X0106905Y0055422D01*
X0106877Y0055387D01*
X0106852Y0055349D01*
X0106830Y0055309D01*
X0106811Y0055268D01*
X0106795Y0055226D01*
X0106783Y0055182D01*
X0106774Y0055137D01*
X0106769Y0055092D01*
X0106767Y0055047D01*
X0109149Y0055480D02*
X0109186Y0055428D01*
X0109219Y0055374D01*
X0109250Y0055319D01*
X0109276Y0055261D01*
X0109300Y0055202D01*
X0109320Y0055142D01*
X0109336Y0055081D01*
X0109349Y0055019D01*
X0109359Y0054956D01*
X0109364Y0054893D01*
X0109366Y0054830D01*
X0109367Y0054830D02*
X0109365Y0054785D01*
X0109360Y0054740D01*
X0109351Y0054695D01*
X0109339Y0054651D01*
X0109323Y0054609D01*
X0109304Y0054568D01*
X0109282Y0054528D01*
X0109257Y0054490D01*
X0109229Y0054455D01*
X0109198Y0054421D01*
X0109164Y0054390D01*
X0109129Y0054362D01*
X0109091Y0054337D01*
X0109051Y0054315D01*
X0109010Y0054296D01*
X0108968Y0054280D01*
X0108924Y0054268D01*
X0108879Y0054259D01*
X0108834Y0054254D01*
X0108789Y0054252D01*
X0108742Y0054254D01*
X0108696Y0054259D01*
X0108650Y0054269D01*
X0108605Y0054282D01*
X0108561Y0054298D01*
X0108518Y0054318D01*
X0108478Y0054341D01*
X0108439Y0054368D01*
X0108402Y0054397D01*
X0108368Y0054429D01*
X0108337Y0054464D01*
X0108309Y0054502D01*
X0108283Y0054541D01*
X0108645Y0056964D02*
X0107489Y0056964D01*
X0107436Y0056966D01*
X0107384Y0056972D01*
X0107332Y0056981D01*
X0107281Y0056995D01*
X0107231Y0057012D01*
X0107183Y0057032D01*
X0107136Y0057056D01*
X0107091Y0057084D01*
X0107048Y0057115D01*
X0107007Y0057148D01*
X0106969Y0057185D01*
X0106934Y0057224D01*
X0106902Y0057266D01*
X0106873Y0057310D01*
X0106847Y0057356D01*
X0106825Y0057404D01*
X0106806Y0057453D01*
X0106790Y0057503D01*
X0106779Y0057555D01*
X0106771Y0057607D01*
X0106767Y0057660D01*
X0106767Y0057712D01*
X0106771Y0057765D01*
X0106779Y0057817D01*
X0106790Y0057869D01*
X0106806Y0057919D01*
X0106825Y0057968D01*
X0106847Y0058016D01*
X0106873Y0058062D01*
X0106902Y0058106D01*
X0106934Y0058148D01*
X0106969Y0058187D01*
X0107007Y0058224D01*
X0107048Y0058257D01*
X0107091Y0058288D01*
X0107136Y0058316D01*
X0107183Y0058340D01*
X0107231Y0058360D01*
X0107281Y0058377D01*
X0107332Y0058391D01*
X0107384Y0058400D01*
X0107436Y0058406D01*
X0107489Y0058408D01*
X0108645Y0058408D01*
X0108698Y0058406D01*
X0108750Y0058400D01*
X0108802Y0058391D01*
X0108853Y0058377D01*
X0108903Y0058360D01*
X0108951Y0058340D01*
X0108998Y0058316D01*
X0109043Y0058288D01*
X0109086Y0058257D01*
X0109127Y0058224D01*
X0109165Y0058187D01*
X0109200Y0058148D01*
X0109232Y0058106D01*
X0109261Y0058062D01*
X0109287Y0058016D01*
X0109309Y0057968D01*
X0109328Y0057919D01*
X0109344Y0057869D01*
X0109355Y0057817D01*
X0109363Y0057765D01*
X0109367Y0057712D01*
X0109367Y0057660D01*
X0109363Y0057607D01*
X0109355Y0057555D01*
X0109344Y0057503D01*
X0109328Y0057453D01*
X0109309Y0057404D01*
X0109287Y0057356D01*
X0109261Y0057310D01*
X0109232Y0057266D01*
X0109200Y0057224D01*
X0109165Y0057185D01*
X0109127Y0057148D01*
X0109086Y0057115D01*
X0109043Y0057084D01*
X0108998Y0057056D01*
X0108951Y0057032D01*
X0108903Y0057012D01*
X0108853Y0056995D01*
X0108802Y0056981D01*
X0108750Y0056972D01*
X0108698Y0056966D01*
X0108645Y0056964D01*
X0117017Y0057658D02*
X0118606Y0056792D01*
X0118028Y0056214D02*
X0119617Y0057658D01*
X0119617Y0056214D02*
X0117017Y0056214D01*
X0117017Y0054788D02*
X0117017Y0054210D01*
X0117019Y0054165D01*
X0117024Y0054120D01*
X0117033Y0054075D01*
X0117045Y0054031D01*
X0117061Y0053989D01*
X0117080Y0053948D01*
X0117102Y0053908D01*
X0117127Y0053870D01*
X0117155Y0053835D01*
X0117186Y0053801D01*
X0117220Y0053770D01*
X0117255Y0053742D01*
X0117293Y0053717D01*
X0117333Y0053695D01*
X0117374Y0053676D01*
X0117416Y0053660D01*
X0117460Y0053648D01*
X0117505Y0053639D01*
X0117550Y0053634D01*
X0117595Y0053632D01*
X0117595Y0053633D02*
X0119039Y0053633D01*
X0119039Y0053632D02*
X0119087Y0053634D01*
X0119134Y0053640D01*
X0119181Y0053650D01*
X0119227Y0053663D01*
X0119271Y0053681D01*
X0119314Y0053702D01*
X0119355Y0053726D01*
X0119394Y0053754D01*
X0119430Y0053785D01*
X0119464Y0053819D01*
X0119495Y0053855D01*
X0119523Y0053894D01*
X0119547Y0053935D01*
X0119568Y0053978D01*
X0119586Y0054022D01*
X0119599Y0054068D01*
X0119609Y0054115D01*
X0119615Y0054162D01*
X0119617Y0054210D01*
X0119617Y0054788D01*
X0118100Y0052018D02*
X0118533Y0051224D01*
X0119616Y0051513D02*
X0119614Y0051576D01*
X0119609Y0051639D01*
X0119599Y0051702D01*
X0119586Y0051764D01*
X0119570Y0051825D01*
X0119550Y0051885D01*
X0119526Y0051944D01*
X0119500Y0052002D01*
X0119469Y0052057D01*
X0119436Y0052111D01*
X0119399Y0052163D01*
X0118533Y0051224D02*
X0118559Y0051185D01*
X0118587Y0051147D01*
X0118618Y0051112D01*
X0118652Y0051080D01*
X0118689Y0051051D01*
X0118728Y0051024D01*
X0118768Y0051001D01*
X0118811Y0050981D01*
X0118855Y0050965D01*
X0118900Y0050952D01*
X0118946Y0050942D01*
X0118992Y0050937D01*
X0119039Y0050935D01*
X0119084Y0050937D01*
X0119129Y0050942D01*
X0119174Y0050951D01*
X0119218Y0050963D01*
X0119260Y0050979D01*
X0119301Y0050998D01*
X0119341Y0051020D01*
X0119379Y0051045D01*
X0119414Y0051073D01*
X0119448Y0051104D01*
X0119479Y0051138D01*
X0119507Y0051173D01*
X0119532Y0051211D01*
X0119554Y0051251D01*
X0119573Y0051292D01*
X0119589Y0051334D01*
X0119601Y0051378D01*
X0119610Y0051423D01*
X0119615Y0051468D01*
X0119617Y0051513D01*
X0117377Y0050862D02*
X0117330Y0050912D01*
X0117285Y0050964D01*
X0117244Y0051019D01*
X0117205Y0051076D01*
X0117170Y0051136D01*
X0117138Y0051197D01*
X0117110Y0051259D01*
X0117085Y0051324D01*
X0117064Y0051389D01*
X0117047Y0051456D01*
X0117033Y0051523D01*
X0117024Y0051592D01*
X0117018Y0051660D01*
X0117016Y0051729D01*
X0117017Y0051729D02*
X0117019Y0051774D01*
X0117024Y0051819D01*
X0117033Y0051864D01*
X0117045Y0051908D01*
X0117061Y0051950D01*
X0117080Y0051991D01*
X0117102Y0052031D01*
X0117127Y0052069D01*
X0117155Y0052104D01*
X0117186Y0052138D01*
X0117220Y0052169D01*
X0117255Y0052197D01*
X0117293Y0052222D01*
X0117333Y0052244D01*
X0117374Y0052263D01*
X0117416Y0052279D01*
X0117460Y0052291D01*
X0117505Y0052300D01*
X0117550Y0052305D01*
X0117595Y0052307D01*
X0117642Y0052305D01*
X0117688Y0052300D01*
X0117734Y0052290D01*
X0117779Y0052277D01*
X0117823Y0052261D01*
X0117866Y0052241D01*
X0117906Y0052218D01*
X0117945Y0052191D01*
X0117982Y0052162D01*
X0118016Y0052130D01*
X0118047Y0052095D01*
X0118075Y0052057D01*
X0118101Y0052018D01*
X0127017Y0051369D02*
X0129617Y0051369D01*
X0129617Y0052091D01*
X0129615Y0052144D01*
X0129609Y0052196D01*
X0129600Y0052248D01*
X0129586Y0052299D01*
X0129569Y0052349D01*
X0129549Y0052397D01*
X0129525Y0052444D01*
X0129497Y0052489D01*
X0129466Y0052532D01*
X0129433Y0052573D01*
X0129396Y0052611D01*
X0129357Y0052646D01*
X0129315Y0052678D01*
X0129271Y0052707D01*
X0129225Y0052733D01*
X0129177Y0052755D01*
X0129128Y0052774D01*
X0129078Y0052790D01*
X0129026Y0052801D01*
X0128974Y0052809D01*
X0128921Y0052813D01*
X0128869Y0052813D01*
X0128816Y0052809D01*
X0128764Y0052801D01*
X0128712Y0052790D01*
X0128662Y0052774D01*
X0128613Y0052755D01*
X0128565Y0052733D01*
X0128519Y0052707D01*
X0128475Y0052678D01*
X0128433Y0052646D01*
X0128394Y0052611D01*
X0128357Y0052573D01*
X0128324Y0052532D01*
X0128293Y0052489D01*
X0128265Y0052444D01*
X0128241Y0052397D01*
X0128221Y0052349D01*
X0128204Y0052299D01*
X0128190Y0052248D01*
X0128181Y0052196D01*
X0128175Y0052144D01*
X0128173Y0052091D01*
X0128172Y0052091D02*
X0128172Y0051369D01*
X0128172Y0052236D02*
X0127017Y0052813D01*
X0128101Y0055278D02*
X0128075Y0055317D01*
X0128047Y0055355D01*
X0128016Y0055390D01*
X0127982Y0055422D01*
X0127945Y0055451D01*
X0127906Y0055478D01*
X0127866Y0055501D01*
X0127823Y0055521D01*
X0127779Y0055537D01*
X0127734Y0055550D01*
X0127688Y0055560D01*
X0127642Y0055565D01*
X0127595Y0055567D01*
X0127550Y0055565D01*
X0127505Y0055560D01*
X0127460Y0055551D01*
X0127416Y0055539D01*
X0127374Y0055523D01*
X0127333Y0055504D01*
X0127293Y0055482D01*
X0127255Y0055457D01*
X0127220Y0055429D01*
X0127186Y0055398D01*
X0127155Y0055364D01*
X0127127Y0055329D01*
X0127102Y0055291D01*
X0127080Y0055251D01*
X0127061Y0055210D01*
X0127045Y0055168D01*
X0127033Y0055124D01*
X0127024Y0055079D01*
X0127019Y0055034D01*
X0127017Y0054989D01*
X0128100Y0055277D02*
X0128533Y0054483D01*
X0129616Y0054772D02*
X0129614Y0054835D01*
X0129609Y0054898D01*
X0129599Y0054961D01*
X0129586Y0055023D01*
X0129570Y0055084D01*
X0129550Y0055144D01*
X0129526Y0055203D01*
X0129500Y0055261D01*
X0129469Y0055316D01*
X0129436Y0055370D01*
X0129399Y0055422D01*
X0128533Y0054483D02*
X0128559Y0054444D01*
X0128587Y0054406D01*
X0128618Y0054371D01*
X0128652Y0054339D01*
X0128689Y0054310D01*
X0128728Y0054283D01*
X0128768Y0054260D01*
X0128811Y0054240D01*
X0128855Y0054224D01*
X0128900Y0054211D01*
X0128946Y0054201D01*
X0128992Y0054196D01*
X0129039Y0054194D01*
X0129084Y0054196D01*
X0129129Y0054201D01*
X0129174Y0054210D01*
X0129218Y0054222D01*
X0129260Y0054238D01*
X0129301Y0054257D01*
X0129341Y0054279D01*
X0129379Y0054304D01*
X0129414Y0054332D01*
X0129448Y0054363D01*
X0129479Y0054397D01*
X0129507Y0054432D01*
X0129532Y0054470D01*
X0129554Y0054510D01*
X0129573Y0054551D01*
X0129589Y0054593D01*
X0129601Y0054637D01*
X0129610Y0054682D01*
X0129615Y0054727D01*
X0129617Y0054772D01*
X0127377Y0054122D02*
X0127330Y0054172D01*
X0127285Y0054224D01*
X0127244Y0054279D01*
X0127205Y0054336D01*
X0127170Y0054396D01*
X0127138Y0054457D01*
X0127110Y0054519D01*
X0127085Y0054584D01*
X0127064Y0054649D01*
X0127047Y0054716D01*
X0127033Y0054783D01*
X0127024Y0054852D01*
X0127018Y0054920D01*
X0127016Y0054989D01*
X0129617Y0056714D02*
X0129617Y0058158D01*
X0129617Y0057436D02*
X0127017Y0057436D01*
X0103617Y0064173D02*
X0103617Y0064751D01*
X0103617Y0064462D02*
X0101017Y0064462D01*
X0101017Y0064173D02*
X0101017Y0064751D01*
X0101595Y0066030D02*
X0103039Y0066030D01*
X0103087Y0066032D01*
X0103134Y0066038D01*
X0103181Y0066048D01*
X0103227Y0066061D01*
X0103271Y0066079D01*
X0103314Y0066100D01*
X0103355Y0066124D01*
X0103394Y0066152D01*
X0103430Y0066183D01*
X0103464Y0066217D01*
X0103495Y0066253D01*
X0103523Y0066292D01*
X0103547Y0066333D01*
X0103568Y0066376D01*
X0103586Y0066420D01*
X0103599Y0066466D01*
X0103609Y0066513D01*
X0103615Y0066560D01*
X0103617Y0066608D01*
X0103617Y0067185D01*
X0102533Y0068709D02*
X0102100Y0069503D01*
X0101016Y0069214D02*
X0101018Y0069145D01*
X0101024Y0069077D01*
X0101033Y0069008D01*
X0101047Y0068941D01*
X0101064Y0068874D01*
X0101085Y0068809D01*
X0101110Y0068744D01*
X0101138Y0068682D01*
X0101170Y0068621D01*
X0101205Y0068561D01*
X0101244Y0068504D01*
X0101285Y0068449D01*
X0101330Y0068397D01*
X0101377Y0068347D01*
X0102101Y0069503D02*
X0102075Y0069542D01*
X0102047Y0069580D01*
X0102016Y0069615D01*
X0101982Y0069647D01*
X0101945Y0069676D01*
X0101906Y0069703D01*
X0101866Y0069726D01*
X0101823Y0069746D01*
X0101779Y0069762D01*
X0101734Y0069775D01*
X0101688Y0069785D01*
X0101642Y0069790D01*
X0101595Y0069792D01*
X0101550Y0069790D01*
X0101505Y0069785D01*
X0101460Y0069776D01*
X0101416Y0069764D01*
X0101374Y0069748D01*
X0101333Y0069729D01*
X0101293Y0069707D01*
X0101255Y0069682D01*
X0101220Y0069654D01*
X0101186Y0069623D01*
X0101155Y0069589D01*
X0101127Y0069554D01*
X0101102Y0069516D01*
X0101080Y0069476D01*
X0101061Y0069435D01*
X0101045Y0069393D01*
X0101033Y0069349D01*
X0101024Y0069304D01*
X0101019Y0069259D01*
X0101017Y0069214D01*
X0103399Y0069648D02*
X0103436Y0069596D01*
X0103469Y0069542D01*
X0103500Y0069487D01*
X0103526Y0069429D01*
X0103550Y0069370D01*
X0103570Y0069310D01*
X0103586Y0069249D01*
X0103599Y0069187D01*
X0103609Y0069124D01*
X0103614Y0069061D01*
X0103616Y0068998D01*
X0103617Y0068998D02*
X0103615Y0068953D01*
X0103610Y0068908D01*
X0103601Y0068863D01*
X0103589Y0068819D01*
X0103573Y0068777D01*
X0103554Y0068736D01*
X0103532Y0068696D01*
X0103507Y0068658D01*
X0103479Y0068623D01*
X0103448Y0068589D01*
X0103414Y0068558D01*
X0103379Y0068530D01*
X0103341Y0068505D01*
X0103301Y0068483D01*
X0103260Y0068464D01*
X0103218Y0068448D01*
X0103174Y0068436D01*
X0103129Y0068427D01*
X0103084Y0068422D01*
X0103039Y0068420D01*
X0102992Y0068422D01*
X0102946Y0068427D01*
X0102900Y0068437D01*
X0102855Y0068450D01*
X0102811Y0068466D01*
X0102768Y0068486D01*
X0102728Y0068509D01*
X0102689Y0068536D01*
X0102652Y0068565D01*
X0102618Y0068597D01*
X0102587Y0068632D01*
X0102559Y0068670D01*
X0102533Y0068709D01*
X0101017Y0067185D02*
X0101017Y0066608D01*
X0101019Y0066563D01*
X0101024Y0066518D01*
X0101033Y0066473D01*
X0101045Y0066429D01*
X0101061Y0066387D01*
X0101080Y0066346D01*
X0101102Y0066306D01*
X0101127Y0066268D01*
X0101155Y0066233D01*
X0101186Y0066199D01*
X0101220Y0066168D01*
X0101255Y0066140D01*
X0101293Y0066115D01*
X0101333Y0066093D01*
X0101374Y0066074D01*
X0101416Y0066058D01*
X0101460Y0066046D01*
X0101505Y0066037D01*
X0101550Y0066032D01*
X0101595Y0066030D01*
X0098817Y0066188D02*
X0098817Y0067633D01*
X0098817Y0066910D02*
X0096217Y0066910D01*
X0096939Y0064945D02*
X0098095Y0064945D01*
X0098095Y0064944D02*
X0098148Y0064942D01*
X0098200Y0064936D01*
X0098252Y0064927D01*
X0098303Y0064913D01*
X0098353Y0064896D01*
X0098401Y0064876D01*
X0098448Y0064852D01*
X0098493Y0064824D01*
X0098536Y0064793D01*
X0098577Y0064760D01*
X0098615Y0064723D01*
X0098650Y0064684D01*
X0098682Y0064642D01*
X0098711Y0064598D01*
X0098737Y0064552D01*
X0098759Y0064504D01*
X0098778Y0064455D01*
X0098794Y0064405D01*
X0098805Y0064353D01*
X0098813Y0064301D01*
X0098817Y0064248D01*
X0098817Y0064196D01*
X0098813Y0064143D01*
X0098805Y0064091D01*
X0098794Y0064039D01*
X0098778Y0063989D01*
X0098759Y0063940D01*
X0098737Y0063892D01*
X0098711Y0063846D01*
X0098682Y0063802D01*
X0098650Y0063760D01*
X0098615Y0063721D01*
X0098577Y0063684D01*
X0098536Y0063651D01*
X0098493Y0063620D01*
X0098448Y0063592D01*
X0098401Y0063568D01*
X0098353Y0063548D01*
X0098303Y0063531D01*
X0098252Y0063517D01*
X0098200Y0063508D01*
X0098148Y0063502D01*
X0098095Y0063500D01*
X0096939Y0063500D01*
X0096886Y0063502D01*
X0096834Y0063508D01*
X0096782Y0063517D01*
X0096731Y0063531D01*
X0096681Y0063548D01*
X0096633Y0063568D01*
X0096586Y0063592D01*
X0096541Y0063620D01*
X0096498Y0063651D01*
X0096457Y0063684D01*
X0096419Y0063721D01*
X0096384Y0063760D01*
X0096352Y0063802D01*
X0096323Y0063846D01*
X0096297Y0063892D01*
X0096275Y0063940D01*
X0096256Y0063989D01*
X0096240Y0064039D01*
X0096229Y0064091D01*
X0096221Y0064143D01*
X0096217Y0064196D01*
X0096217Y0064248D01*
X0096221Y0064301D01*
X0096229Y0064353D01*
X0096240Y0064405D01*
X0096256Y0064455D01*
X0096275Y0064504D01*
X0096297Y0064552D01*
X0096323Y0064598D01*
X0096352Y0064642D01*
X0096384Y0064684D01*
X0096419Y0064723D01*
X0096457Y0064760D01*
X0096498Y0064793D01*
X0096541Y0064824D01*
X0096586Y0064852D01*
X0096633Y0064876D01*
X0096681Y0064896D01*
X0096731Y0064913D01*
X0096782Y0064927D01*
X0096834Y0064936D01*
X0096886Y0064942D01*
X0096939Y0064944D01*
X0097661Y0061510D02*
X0097659Y0061563D01*
X0097653Y0061615D01*
X0097644Y0061667D01*
X0097630Y0061718D01*
X0097613Y0061768D01*
X0097593Y0061816D01*
X0097569Y0061863D01*
X0097541Y0061908D01*
X0097510Y0061951D01*
X0097477Y0061992D01*
X0097440Y0062030D01*
X0097401Y0062065D01*
X0097359Y0062097D01*
X0097315Y0062126D01*
X0097269Y0062152D01*
X0097221Y0062174D01*
X0097172Y0062193D01*
X0097122Y0062209D01*
X0097070Y0062220D01*
X0097018Y0062228D01*
X0096965Y0062232D01*
X0096913Y0062232D01*
X0096860Y0062228D01*
X0096808Y0062220D01*
X0096756Y0062209D01*
X0096706Y0062193D01*
X0096657Y0062174D01*
X0096609Y0062152D01*
X0096563Y0062126D01*
X0096519Y0062097D01*
X0096477Y0062065D01*
X0096438Y0062030D01*
X0096401Y0061992D01*
X0096368Y0061951D01*
X0096337Y0061908D01*
X0096309Y0061863D01*
X0096285Y0061816D01*
X0096265Y0061768D01*
X0096248Y0061718D01*
X0096234Y0061667D01*
X0096225Y0061615D01*
X0096219Y0061563D01*
X0096217Y0061510D01*
X0096217Y0060788D01*
X0098817Y0060788D01*
X0098817Y0061510D01*
X0098815Y0061557D01*
X0098810Y0061603D01*
X0098800Y0061648D01*
X0098787Y0061693D01*
X0098771Y0061737D01*
X0098751Y0061779D01*
X0098728Y0061819D01*
X0098701Y0061857D01*
X0098672Y0061893D01*
X0098639Y0061927D01*
X0098605Y0061958D01*
X0098567Y0061986D01*
X0098528Y0062011D01*
X0098487Y0062032D01*
X0098444Y0062050D01*
X0098400Y0062065D01*
X0098355Y0062076D01*
X0098309Y0062084D01*
X0098262Y0062088D01*
X0098216Y0062088D01*
X0098169Y0062084D01*
X0098123Y0062076D01*
X0098078Y0062065D01*
X0098034Y0062050D01*
X0097991Y0062032D01*
X0097950Y0062011D01*
X0097911Y0061986D01*
X0097873Y0061958D01*
X0097839Y0061927D01*
X0097806Y0061893D01*
X0097777Y0061857D01*
X0097750Y0061819D01*
X0097727Y0061779D01*
X0097707Y0061737D01*
X0097691Y0061693D01*
X0097678Y0061648D01*
X0097668Y0061603D01*
X0097663Y0061557D01*
X0097661Y0061510D01*
X0097661Y0060788D01*
X0098817Y0068684D02*
X0098817Y0070129D01*
X0098817Y0069406D02*
X0096217Y0069406D01*
X0096939Y0071372D02*
X0098095Y0071372D01*
X0098148Y0071374D01*
X0098200Y0071380D01*
X0098252Y0071389D01*
X0098303Y0071403D01*
X0098353Y0071420D01*
X0098401Y0071440D01*
X0098448Y0071464D01*
X0098493Y0071492D01*
X0098536Y0071523D01*
X0098577Y0071556D01*
X0098615Y0071593D01*
X0098650Y0071632D01*
X0098682Y0071674D01*
X0098711Y0071718D01*
X0098737Y0071764D01*
X0098759Y0071812D01*
X0098778Y0071861D01*
X0098794Y0071911D01*
X0098805Y0071963D01*
X0098813Y0072015D01*
X0098817Y0072068D01*
X0098817Y0072120D01*
X0098813Y0072173D01*
X0098805Y0072225D01*
X0098794Y0072277D01*
X0098778Y0072327D01*
X0098759Y0072376D01*
X0098737Y0072424D01*
X0098711Y0072470D01*
X0098682Y0072514D01*
X0098650Y0072556D01*
X0098615Y0072595D01*
X0098577Y0072632D01*
X0098536Y0072665D01*
X0098493Y0072696D01*
X0098448Y0072724D01*
X0098401Y0072748D01*
X0098353Y0072768D01*
X0098303Y0072785D01*
X0098252Y0072799D01*
X0098200Y0072808D01*
X0098148Y0072814D01*
X0098095Y0072816D01*
X0098095Y0072817D02*
X0096939Y0072817D01*
X0096939Y0072816D02*
X0096886Y0072814D01*
X0096834Y0072808D01*
X0096782Y0072799D01*
X0096731Y0072785D01*
X0096681Y0072768D01*
X0096633Y0072748D01*
X0096586Y0072724D01*
X0096541Y0072696D01*
X0096498Y0072665D01*
X0096457Y0072632D01*
X0096419Y0072595D01*
X0096384Y0072556D01*
X0096352Y0072514D01*
X0096323Y0072470D01*
X0096297Y0072424D01*
X0096275Y0072376D01*
X0096256Y0072327D01*
X0096240Y0072277D01*
X0096229Y0072225D01*
X0096221Y0072173D01*
X0096217Y0072120D01*
X0096217Y0072068D01*
X0096221Y0072015D01*
X0096229Y0071963D01*
X0096240Y0071911D01*
X0096256Y0071861D01*
X0096275Y0071812D01*
X0096297Y0071764D01*
X0096323Y0071718D01*
X0096352Y0071674D01*
X0096384Y0071632D01*
X0096419Y0071593D01*
X0096457Y0071556D01*
X0096498Y0071523D01*
X0096541Y0071492D01*
X0096586Y0071464D01*
X0096633Y0071440D01*
X0096681Y0071420D01*
X0096731Y0071403D01*
X0096782Y0071389D01*
X0096834Y0071380D01*
X0096886Y0071374D01*
X0096939Y0071372D01*
X0096217Y0074396D02*
X0098817Y0074396D01*
X0097372Y0075262D01*
X0098817Y0076129D01*
X0096217Y0076129D01*
X0101017Y0071299D02*
X0103617Y0071299D01*
X0103617Y0072021D01*
X0103615Y0072074D01*
X0103609Y0072126D01*
X0103600Y0072178D01*
X0103586Y0072229D01*
X0103569Y0072279D01*
X0103549Y0072327D01*
X0103525Y0072374D01*
X0103497Y0072419D01*
X0103466Y0072462D01*
X0103433Y0072503D01*
X0103396Y0072541D01*
X0103357Y0072576D01*
X0103315Y0072608D01*
X0103271Y0072637D01*
X0103225Y0072663D01*
X0103177Y0072685D01*
X0103128Y0072704D01*
X0103078Y0072720D01*
X0103026Y0072731D01*
X0102974Y0072739D01*
X0102921Y0072743D01*
X0102869Y0072743D01*
X0102816Y0072739D01*
X0102764Y0072731D01*
X0102712Y0072720D01*
X0102662Y0072704D01*
X0102613Y0072685D01*
X0102565Y0072663D01*
X0102519Y0072637D01*
X0102475Y0072608D01*
X0102433Y0072576D01*
X0102394Y0072541D01*
X0102357Y0072503D01*
X0102324Y0072462D01*
X0102293Y0072419D01*
X0102265Y0072374D01*
X0102241Y0072327D01*
X0102221Y0072279D01*
X0102204Y0072229D01*
X0102190Y0072178D01*
X0102181Y0072126D01*
X0102175Y0072074D01*
X0102173Y0072021D01*
X0102172Y0072021D02*
X0102172Y0071299D01*
X0106717Y0080125D02*
X0109317Y0079258D01*
X0109317Y0080992D02*
X0106717Y0080125D01*
X0107295Y0082269D02*
X0108739Y0082269D01*
X0108787Y0082271D01*
X0108834Y0082277D01*
X0108881Y0082287D01*
X0108927Y0082300D01*
X0108971Y0082318D01*
X0109014Y0082339D01*
X0109055Y0082363D01*
X0109094Y0082391D01*
X0109130Y0082422D01*
X0109164Y0082456D01*
X0109195Y0082492D01*
X0109223Y0082531D01*
X0109247Y0082572D01*
X0109268Y0082615D01*
X0109286Y0082659D01*
X0109299Y0082705D01*
X0109309Y0082752D01*
X0109315Y0082799D01*
X0109317Y0082847D01*
X0109317Y0083424D01*
X0108739Y0084669D02*
X0107295Y0084669D01*
X0107250Y0084671D01*
X0107205Y0084676D01*
X0107160Y0084685D01*
X0107116Y0084697D01*
X0107074Y0084713D01*
X0107033Y0084732D01*
X0106993Y0084754D01*
X0106955Y0084779D01*
X0106920Y0084807D01*
X0106886Y0084838D01*
X0106855Y0084872D01*
X0106827Y0084907D01*
X0106802Y0084945D01*
X0106780Y0084985D01*
X0106761Y0085026D01*
X0106745Y0085068D01*
X0106733Y0085112D01*
X0106724Y0085157D01*
X0106719Y0085202D01*
X0106717Y0085247D01*
X0106717Y0085824D01*
X0108739Y0084669D02*
X0108787Y0084671D01*
X0108834Y0084677D01*
X0108881Y0084687D01*
X0108927Y0084700D01*
X0108971Y0084718D01*
X0109014Y0084739D01*
X0109055Y0084763D01*
X0109094Y0084791D01*
X0109130Y0084822D01*
X0109164Y0084856D01*
X0109195Y0084892D01*
X0109223Y0084931D01*
X0109247Y0084972D01*
X0109268Y0085015D01*
X0109286Y0085059D01*
X0109299Y0085105D01*
X0109309Y0085152D01*
X0109315Y0085199D01*
X0109317Y0085247D01*
X0109317Y0085824D01*
X0106717Y0083424D02*
X0106717Y0082847D01*
X0106719Y0082802D01*
X0106724Y0082757D01*
X0106733Y0082712D01*
X0106745Y0082668D01*
X0106761Y0082626D01*
X0106780Y0082585D01*
X0106802Y0082545D01*
X0106827Y0082507D01*
X0106855Y0082472D01*
X0106886Y0082438D01*
X0106920Y0082407D01*
X0106955Y0082379D01*
X0106993Y0082354D01*
X0107033Y0082332D01*
X0107074Y0082313D01*
X0107116Y0082297D01*
X0107160Y0082285D01*
X0107205Y0082276D01*
X0107250Y0082271D01*
X0107295Y0082269D01*
X0116967Y0080742D02*
X0119567Y0080742D01*
X0118122Y0079875D01*
X0119567Y0079008D01*
X0116967Y0079008D01*
X0117689Y0082321D02*
X0118845Y0082321D01*
X0118898Y0082323D01*
X0118950Y0082329D01*
X0119002Y0082338D01*
X0119053Y0082352D01*
X0119103Y0082369D01*
X0119151Y0082389D01*
X0119198Y0082413D01*
X0119243Y0082441D01*
X0119286Y0082472D01*
X0119327Y0082505D01*
X0119365Y0082542D01*
X0119400Y0082581D01*
X0119432Y0082623D01*
X0119461Y0082667D01*
X0119487Y0082713D01*
X0119509Y0082761D01*
X0119528Y0082810D01*
X0119544Y0082860D01*
X0119555Y0082912D01*
X0119563Y0082964D01*
X0119567Y0083017D01*
X0119567Y0083069D01*
X0119563Y0083122D01*
X0119555Y0083174D01*
X0119544Y0083226D01*
X0119528Y0083276D01*
X0119509Y0083325D01*
X0119487Y0083373D01*
X0119461Y0083419D01*
X0119432Y0083463D01*
X0119400Y0083505D01*
X0119365Y0083544D01*
X0119327Y0083581D01*
X0119286Y0083614D01*
X0119243Y0083645D01*
X0119198Y0083673D01*
X0119151Y0083697D01*
X0119103Y0083717D01*
X0119053Y0083734D01*
X0119002Y0083748D01*
X0118950Y0083757D01*
X0118898Y0083763D01*
X0118845Y0083765D01*
X0117689Y0083765D01*
X0117636Y0083763D01*
X0117584Y0083757D01*
X0117532Y0083748D01*
X0117481Y0083734D01*
X0117431Y0083717D01*
X0117383Y0083697D01*
X0117336Y0083673D01*
X0117291Y0083645D01*
X0117248Y0083614D01*
X0117207Y0083581D01*
X0117169Y0083544D01*
X0117134Y0083505D01*
X0117102Y0083463D01*
X0117073Y0083419D01*
X0117047Y0083373D01*
X0117025Y0083325D01*
X0117006Y0083276D01*
X0116990Y0083226D01*
X0116979Y0083174D01*
X0116971Y0083122D01*
X0116967Y0083069D01*
X0116967Y0083017D01*
X0116971Y0082964D01*
X0116979Y0082912D01*
X0116990Y0082860D01*
X0117006Y0082810D01*
X0117025Y0082761D01*
X0117047Y0082713D01*
X0117073Y0082667D01*
X0117102Y0082623D01*
X0117134Y0082581D01*
X0117169Y0082542D01*
X0117207Y0082505D01*
X0117248Y0082472D01*
X0117291Y0082441D01*
X0117336Y0082413D01*
X0117383Y0082389D01*
X0117431Y0082369D01*
X0117481Y0082352D01*
X0117532Y0082338D01*
X0117584Y0082329D01*
X0117636Y0082323D01*
X0117689Y0082321D01*
X0118483Y0085466D02*
X0118050Y0086260D01*
X0116966Y0085971D02*
X0116968Y0085902D01*
X0116974Y0085834D01*
X0116983Y0085765D01*
X0116997Y0085698D01*
X0117014Y0085631D01*
X0117035Y0085566D01*
X0117060Y0085501D01*
X0117088Y0085439D01*
X0117120Y0085378D01*
X0117155Y0085318D01*
X0117194Y0085261D01*
X0117235Y0085206D01*
X0117280Y0085154D01*
X0117327Y0085104D01*
X0118051Y0086260D02*
X0118025Y0086299D01*
X0117997Y0086337D01*
X0117966Y0086372D01*
X0117932Y0086404D01*
X0117895Y0086433D01*
X0117856Y0086460D01*
X0117816Y0086483D01*
X0117773Y0086503D01*
X0117729Y0086519D01*
X0117684Y0086532D01*
X0117638Y0086542D01*
X0117592Y0086547D01*
X0117545Y0086549D01*
X0117500Y0086547D01*
X0117455Y0086542D01*
X0117410Y0086533D01*
X0117366Y0086521D01*
X0117324Y0086505D01*
X0117283Y0086486D01*
X0117243Y0086464D01*
X0117205Y0086439D01*
X0117170Y0086411D01*
X0117136Y0086380D01*
X0117105Y0086346D01*
X0117077Y0086311D01*
X0117052Y0086273D01*
X0117030Y0086233D01*
X0117011Y0086192D01*
X0116995Y0086150D01*
X0116983Y0086106D01*
X0116974Y0086061D01*
X0116969Y0086016D01*
X0116967Y0085971D01*
X0119349Y0086405D02*
X0119386Y0086353D01*
X0119419Y0086299D01*
X0119450Y0086244D01*
X0119476Y0086186D01*
X0119500Y0086127D01*
X0119520Y0086067D01*
X0119536Y0086006D01*
X0119549Y0085944D01*
X0119559Y0085881D01*
X0119564Y0085818D01*
X0119566Y0085755D01*
X0119567Y0085755D02*
X0119565Y0085710D01*
X0119560Y0085665D01*
X0119551Y0085620D01*
X0119539Y0085576D01*
X0119523Y0085534D01*
X0119504Y0085493D01*
X0119482Y0085453D01*
X0119457Y0085415D01*
X0119429Y0085380D01*
X0119398Y0085346D01*
X0119364Y0085315D01*
X0119329Y0085287D01*
X0119291Y0085262D01*
X0119251Y0085240D01*
X0119210Y0085221D01*
X0119168Y0085205D01*
X0119124Y0085193D01*
X0119079Y0085184D01*
X0119034Y0085179D01*
X0118989Y0085177D01*
X0118942Y0085179D01*
X0118896Y0085184D01*
X0118850Y0085194D01*
X0118805Y0085207D01*
X0118761Y0085223D01*
X0118718Y0085243D01*
X0118678Y0085266D01*
X0118639Y0085293D01*
X0118602Y0085322D01*
X0118568Y0085354D01*
X0118537Y0085389D01*
X0118509Y0085427D01*
X0118483Y0085466D01*
X0119567Y0087746D02*
X0119567Y0088324D01*
X0119567Y0088035D02*
X0116967Y0088035D01*
X0116967Y0087746D02*
X0116967Y0088324D01*
X0125282Y0092486D02*
X0124597Y0094247D01*
X0124394Y0096150D01*
X0124709Y0098097D01*
X0125577Y0099993D01*
X0127037Y0101738D01*
X0129125Y0103236D01*
X0168391Y0127595D01*
X0170418Y0128721D01*
X0173294Y0129549D01*
X0176760Y0130067D01*
X0180556Y0130263D01*
X0184420Y0130126D01*
X0188092Y0129643D01*
X0191312Y0128804D01*
X0193820Y0127595D01*
X0233553Y0102771D01*
X0234977Y0101475D01*
X0235903Y0099923D01*
X0236379Y0098204D01*
X0236449Y0096404D01*
X0236162Y0094612D01*
X0235563Y0092915D01*
X0234698Y0091402D01*
X0233615Y0090159D01*
X0201009Y0069447D01*
X0196799Y0066639D01*
X0192316Y0064518D01*
X0187600Y0063119D01*
X0182694Y0062478D01*
X0177638Y0062628D01*
X0172474Y0063607D01*
X0167243Y0065449D01*
X0161985Y0068189D01*
X0127945Y0089783D01*
X0126410Y0090966D01*
X0125282Y0092486D01*
X0127689Y0086847D02*
X0128845Y0086847D01*
X0128897Y0086845D01*
X0128948Y0086840D01*
X0128998Y0086831D01*
X0129048Y0086818D01*
X0129097Y0086801D01*
X0129145Y0086782D01*
X0129191Y0086759D01*
X0129235Y0086732D01*
X0129278Y0086703D01*
X0129318Y0086671D01*
X0129356Y0086636D01*
X0129391Y0086598D01*
X0129423Y0086558D01*
X0129452Y0086515D01*
X0129479Y0086471D01*
X0129502Y0086425D01*
X0129521Y0086377D01*
X0129538Y0086328D01*
X0129551Y0086278D01*
X0129560Y0086228D01*
X0129565Y0086177D01*
X0129567Y0086125D01*
X0129567Y0085402D01*
X0126967Y0085402D01*
X0126967Y0086125D01*
X0126969Y0086177D01*
X0126974Y0086228D01*
X0126983Y0086278D01*
X0126996Y0086328D01*
X0127013Y0086377D01*
X0127032Y0086425D01*
X0127055Y0086471D01*
X0127082Y0086515D01*
X0127111Y0086558D01*
X0127143Y0086598D01*
X0127178Y0086636D01*
X0127216Y0086671D01*
X0127256Y0086703D01*
X0127299Y0086732D01*
X0127343Y0086759D01*
X0127389Y0086782D01*
X0127437Y0086801D01*
X0127486Y0086818D01*
X0127536Y0086831D01*
X0127586Y0086840D01*
X0127637Y0086845D01*
X0127689Y0086847D01*
X0126967Y0083775D02*
X0129567Y0083775D01*
X0129567Y0082330D02*
X0126967Y0082330D01*
X0126967Y0083775D02*
X0129567Y0082330D01*
X0129567Y0080703D02*
X0129567Y0079836D01*
X0129565Y0079788D01*
X0129559Y0079741D01*
X0129549Y0079694D01*
X0129536Y0079648D01*
X0129518Y0079604D01*
X0129497Y0079561D01*
X0129473Y0079520D01*
X0129445Y0079481D01*
X0129414Y0079445D01*
X0129380Y0079411D01*
X0129344Y0079380D01*
X0129305Y0079352D01*
X0129264Y0079328D01*
X0129221Y0079307D01*
X0129177Y0079289D01*
X0129131Y0079276D01*
X0129084Y0079266D01*
X0129037Y0079260D01*
X0128989Y0079258D01*
X0127545Y0079258D01*
X0127500Y0079260D01*
X0127455Y0079265D01*
X0127410Y0079274D01*
X0127366Y0079286D01*
X0127324Y0079302D01*
X0127283Y0079321D01*
X0127243Y0079343D01*
X0127205Y0079368D01*
X0127170Y0079396D01*
X0127136Y0079427D01*
X0127105Y0079461D01*
X0127077Y0079496D01*
X0127052Y0079534D01*
X0127030Y0079574D01*
X0127011Y0079615D01*
X0126995Y0079657D01*
X0126983Y0079701D01*
X0126974Y0079746D01*
X0126969Y0079791D01*
X0126967Y0079836D01*
X0126967Y0080703D01*
X0128411Y0080703D01*
X0128411Y0080269D01*
X0162217Y0092431D02*
X0162217Y0095986D01*
X0162219Y0096060D01*
X0162225Y0096135D01*
X0162235Y0096208D01*
X0162248Y0096282D01*
X0162265Y0096354D01*
X0162287Y0096425D01*
X0162311Y0096496D01*
X0162340Y0096564D01*
X0162372Y0096632D01*
X0162408Y0096697D01*
X0162446Y0096760D01*
X0162489Y0096822D01*
X0162534Y0096881D01*
X0162582Y0096937D01*
X0162633Y0096992D01*
X0162687Y0097043D01*
X0162744Y0097091D01*
X0162803Y0097136D01*
X0162865Y0097179D01*
X0162928Y0097217D01*
X0162993Y0097253D01*
X0163061Y0097285D01*
X0163129Y0097314D01*
X0163200Y0097338D01*
X0163271Y0097360D01*
X0163343Y0097377D01*
X0163417Y0097390D01*
X0163490Y0097400D01*
X0163565Y0097406D01*
X0163639Y0097408D01*
X0165061Y0097408D01*
X0167566Y0097408D02*
X0167566Y0092786D01*
X0167568Y0092703D01*
X0167574Y0092620D01*
X0167584Y0092537D01*
X0167597Y0092454D01*
X0167615Y0092373D01*
X0167636Y0092292D01*
X0167661Y0092213D01*
X0167690Y0092135D01*
X0167722Y0092058D01*
X0167758Y0091983D01*
X0167797Y0091909D01*
X0167840Y0091838D01*
X0167886Y0091768D01*
X0167936Y0091701D01*
X0167988Y0091636D01*
X0168043Y0091574D01*
X0168102Y0091514D01*
X0168163Y0091457D01*
X0168226Y0091403D01*
X0168292Y0091352D01*
X0168361Y0091305D01*
X0168431Y0091260D01*
X0168504Y0091219D01*
X0168578Y0091182D01*
X0168654Y0091147D01*
X0168732Y0091117D01*
X0168810Y0091090D01*
X0168891Y0091067D01*
X0168972Y0091047D01*
X0169054Y0091032D01*
X0169136Y0091020D01*
X0169219Y0091012D01*
X0169302Y0091008D01*
X0169386Y0091008D01*
X0169469Y0091012D01*
X0169552Y0091020D01*
X0169634Y0091032D01*
X0169716Y0091047D01*
X0169797Y0091067D01*
X0169878Y0091090D01*
X0169956Y0091117D01*
X0170034Y0091147D01*
X0170110Y0091182D01*
X0170184Y0091219D01*
X0170257Y0091260D01*
X0170327Y0091305D01*
X0170396Y0091352D01*
X0170462Y0091403D01*
X0170525Y0091457D01*
X0170586Y0091514D01*
X0170645Y0091574D01*
X0170700Y0091636D01*
X0170752Y0091701D01*
X0170802Y0091768D01*
X0170848Y0091838D01*
X0170891Y0091909D01*
X0170930Y0091983D01*
X0170966Y0092058D01*
X0170998Y0092135D01*
X0171027Y0092213D01*
X0171052Y0092292D01*
X0171073Y0092373D01*
X0171091Y0092454D01*
X0171104Y0092537D01*
X0171114Y0092620D01*
X0171120Y0092703D01*
X0171122Y0092786D01*
X0171121Y0092786D02*
X0171121Y0097408D01*
X0173515Y0097408D02*
X0177070Y0097408D01*
X0175292Y0097408D02*
X0175292Y0091008D01*
X0182541Y0092786D02*
X0182541Y0095631D01*
X0182540Y0095631D02*
X0182542Y0095714D01*
X0182548Y0095797D01*
X0182558Y0095880D01*
X0182571Y0095963D01*
X0182589Y0096044D01*
X0182610Y0096125D01*
X0182635Y0096204D01*
X0182664Y0096282D01*
X0182696Y0096359D01*
X0182732Y0096434D01*
X0182771Y0096508D01*
X0182814Y0096579D01*
X0182860Y0096649D01*
X0182910Y0096716D01*
X0182962Y0096781D01*
X0183017Y0096843D01*
X0183076Y0096903D01*
X0183137Y0096960D01*
X0183200Y0097014D01*
X0183266Y0097065D01*
X0183335Y0097112D01*
X0183405Y0097157D01*
X0183478Y0097198D01*
X0183552Y0097235D01*
X0183628Y0097270D01*
X0183706Y0097300D01*
X0183784Y0097327D01*
X0183865Y0097350D01*
X0183946Y0097370D01*
X0184028Y0097385D01*
X0184110Y0097397D01*
X0184193Y0097405D01*
X0184276Y0097409D01*
X0184360Y0097409D01*
X0184443Y0097405D01*
X0184526Y0097397D01*
X0184608Y0097385D01*
X0184690Y0097370D01*
X0184771Y0097350D01*
X0184852Y0097327D01*
X0184930Y0097300D01*
X0185008Y0097270D01*
X0185084Y0097235D01*
X0185158Y0097198D01*
X0185231Y0097157D01*
X0185301Y0097112D01*
X0185370Y0097065D01*
X0185436Y0097014D01*
X0185499Y0096960D01*
X0185560Y0096903D01*
X0185619Y0096843D01*
X0185674Y0096781D01*
X0185726Y0096716D01*
X0185776Y0096649D01*
X0185822Y0096579D01*
X0185865Y0096508D01*
X0185904Y0096434D01*
X0185940Y0096359D01*
X0185972Y0096282D01*
X0186001Y0096204D01*
X0186026Y0096125D01*
X0186047Y0096044D01*
X0186065Y0095963D01*
X0186078Y0095880D01*
X0186088Y0095797D01*
X0186094Y0095714D01*
X0186096Y0095631D01*
X0186096Y0092786D01*
X0186094Y0092703D01*
X0186088Y0092620D01*
X0186078Y0092537D01*
X0186065Y0092454D01*
X0186047Y0092373D01*
X0186026Y0092292D01*
X0186001Y0092213D01*
X0185972Y0092135D01*
X0185940Y0092058D01*
X0185904Y0091983D01*
X0185865Y0091909D01*
X0185822Y0091838D01*
X0185776Y0091768D01*
X0185726Y0091701D01*
X0185674Y0091636D01*
X0185619Y0091574D01*
X0185560Y0091514D01*
X0185499Y0091457D01*
X0185436Y0091403D01*
X0185370Y0091352D01*
X0185301Y0091305D01*
X0185231Y0091260D01*
X0185158Y0091219D01*
X0185084Y0091182D01*
X0185008Y0091147D01*
X0184930Y0091117D01*
X0184852Y0091090D01*
X0184771Y0091067D01*
X0184690Y0091047D01*
X0184608Y0091032D01*
X0184526Y0091020D01*
X0184443Y0091012D01*
X0184360Y0091008D01*
X0184276Y0091008D01*
X0184193Y0091012D01*
X0184110Y0091020D01*
X0184028Y0091032D01*
X0183946Y0091047D01*
X0183865Y0091067D01*
X0183784Y0091090D01*
X0183706Y0091117D01*
X0183628Y0091147D01*
X0183552Y0091182D01*
X0183478Y0091219D01*
X0183405Y0091260D01*
X0183335Y0091305D01*
X0183266Y0091352D01*
X0183200Y0091403D01*
X0183137Y0091457D01*
X0183076Y0091514D01*
X0183017Y0091574D01*
X0182962Y0091636D01*
X0182910Y0091701D01*
X0182860Y0091768D01*
X0182814Y0091838D01*
X0182771Y0091909D01*
X0182732Y0091983D01*
X0182696Y0092058D01*
X0182664Y0092135D01*
X0182635Y0092213D01*
X0182610Y0092292D01*
X0182589Y0092373D01*
X0182571Y0092454D01*
X0182558Y0092537D01*
X0182548Y0092620D01*
X0182542Y0092703D01*
X0182540Y0092786D01*
X0188900Y0092786D02*
X0188900Y0097408D01*
X0192455Y0097408D02*
X0192455Y0092786D01*
X0192456Y0092786D02*
X0192454Y0092703D01*
X0192448Y0092620D01*
X0192438Y0092537D01*
X0192425Y0092454D01*
X0192407Y0092373D01*
X0192386Y0092292D01*
X0192361Y0092213D01*
X0192332Y0092135D01*
X0192300Y0092058D01*
X0192264Y0091983D01*
X0192225Y0091909D01*
X0192182Y0091838D01*
X0192136Y0091768D01*
X0192086Y0091701D01*
X0192034Y0091636D01*
X0191979Y0091574D01*
X0191920Y0091514D01*
X0191859Y0091457D01*
X0191796Y0091403D01*
X0191730Y0091352D01*
X0191661Y0091305D01*
X0191591Y0091260D01*
X0191518Y0091219D01*
X0191444Y0091182D01*
X0191368Y0091147D01*
X0191290Y0091117D01*
X0191212Y0091090D01*
X0191131Y0091067D01*
X0191050Y0091047D01*
X0190968Y0091032D01*
X0190886Y0091020D01*
X0190803Y0091012D01*
X0190720Y0091008D01*
X0190636Y0091008D01*
X0190553Y0091012D01*
X0190470Y0091020D01*
X0190388Y0091032D01*
X0190306Y0091047D01*
X0190225Y0091067D01*
X0190144Y0091090D01*
X0190066Y0091117D01*
X0189988Y0091147D01*
X0189912Y0091182D01*
X0189838Y0091219D01*
X0189765Y0091260D01*
X0189695Y0091305D01*
X0189626Y0091352D01*
X0189560Y0091403D01*
X0189497Y0091457D01*
X0189436Y0091514D01*
X0189377Y0091574D01*
X0189322Y0091636D01*
X0189270Y0091701D01*
X0189220Y0091768D01*
X0189174Y0091838D01*
X0189131Y0091909D01*
X0189092Y0091983D01*
X0189056Y0092058D01*
X0189024Y0092135D01*
X0188995Y0092213D01*
X0188970Y0092292D01*
X0188949Y0092373D01*
X0188931Y0092454D01*
X0188918Y0092537D01*
X0188908Y0092620D01*
X0188902Y0092703D01*
X0188900Y0092786D01*
X0194849Y0097408D02*
X0198404Y0097408D01*
X0196626Y0097408D02*
X0196626Y0091008D01*
X0165061Y0091008D02*
X0163639Y0091008D01*
X0163639Y0091009D02*
X0163565Y0091011D01*
X0163490Y0091017D01*
X0163417Y0091027D01*
X0163343Y0091040D01*
X0163271Y0091057D01*
X0163200Y0091079D01*
X0163129Y0091103D01*
X0163061Y0091132D01*
X0162993Y0091164D01*
X0162928Y0091200D01*
X0162865Y0091238D01*
X0162803Y0091281D01*
X0162744Y0091326D01*
X0162687Y0091374D01*
X0162633Y0091425D01*
X0162582Y0091479D01*
X0162534Y0091536D01*
X0162489Y0091595D01*
X0162446Y0091657D01*
X0162408Y0091720D01*
X0162372Y0091785D01*
X0162340Y0091853D01*
X0162311Y0091921D01*
X0162287Y0091992D01*
X0162265Y0092063D01*
X0162248Y0092135D01*
X0162235Y0092209D01*
X0162225Y0092282D01*
X0162219Y0092357D01*
X0162217Y0092431D01*
X0259531Y0136897D02*
X0259454Y0137142D01*
X0259427Y0137405D01*
X0259427Y0139289D01*
X0259454Y0139552D01*
X0259531Y0139797D01*
X0259651Y0140020D01*
X0259812Y0140213D01*
X0260005Y0140374D01*
X0260228Y0140495D01*
X0260473Y0140571D01*
X0260736Y0140598D01*
X0265812Y0140598D01*
X0266075Y0140571D01*
X0266320Y0140495D01*
X0266542Y0140374D01*
X0266736Y0140213D01*
X0266896Y0140020D01*
X0267017Y0139797D01*
X0267094Y0139552D01*
X0267120Y0139289D01*
X0267120Y0137405D01*
X0267094Y0137142D01*
X0267017Y0136897D01*
X0266896Y0136675D01*
X0266736Y0136481D01*
X0266542Y0136321D01*
X0266320Y0136200D01*
X0266075Y0136123D01*
X0265812Y0136097D01*
X0260736Y0136097D01*
X0260473Y0136123D01*
X0260228Y0136200D01*
X0260005Y0136321D01*
X0259812Y0136481D01*
X0259651Y0136675D01*
X0259531Y0136897D01*
X0274855Y0137405D02*
X0274855Y0139289D01*
X0274882Y0139552D01*
X0274959Y0139797D01*
X0275079Y0140020D01*
X0275240Y0140213D01*
X0275433Y0140374D01*
X0275655Y0140495D01*
X0275901Y0140571D01*
X0276163Y0140598D01*
X0281240Y0140598D01*
X0281503Y0140571D01*
X0281748Y0140495D01*
X0281970Y0140374D01*
X0282164Y0140213D01*
X0282324Y0140020D01*
X0282445Y0139797D01*
X0282522Y0139552D01*
X0282548Y0139289D01*
X0282548Y0137405D01*
X0282522Y0137142D01*
X0282445Y0136897D01*
X0282324Y0136675D01*
X0282164Y0136481D01*
X0281970Y0136321D01*
X0281748Y0136200D01*
X0281503Y0136123D01*
X0281240Y0136097D01*
X0276163Y0136097D01*
X0275901Y0136123D01*
X0275655Y0136200D01*
X0275433Y0136321D01*
X0275240Y0136481D01*
X0275079Y0136675D01*
X0274959Y0136897D01*
X0274882Y0137142D01*
X0274855Y0137405D01*
X0312203Y0136890D02*
X0312203Y0138774D01*
X0312230Y0139037D01*
X0312307Y0139282D01*
X0312427Y0139504D01*
X0312588Y0139698D01*
X0312781Y0139858D01*
X0313003Y0139979D01*
X0313249Y0140056D01*
X0313511Y0140082D01*
X0318588Y0140082D01*
X0318851Y0140056D01*
X0319096Y0139979D01*
X0319318Y0139858D01*
X0319512Y0139698D01*
X0319672Y0139504D01*
X0319793Y0139282D01*
X0319870Y0139037D01*
X0319896Y0138774D01*
X0319896Y0136890D01*
X0319870Y0136627D01*
X0319793Y0136382D01*
X0319672Y0136160D01*
X0319512Y0135966D01*
X0319318Y0135806D01*
X0319096Y0135685D01*
X0318851Y0135608D01*
X0318588Y0135582D01*
X0313511Y0135582D01*
X0313249Y0135608D01*
X0313003Y0135685D01*
X0312781Y0135806D01*
X0312588Y0135966D01*
X0312427Y0136160D01*
X0312307Y0136382D01*
X0312230Y0136627D01*
X0312203Y0136890D01*
X0334887Y0126223D02*
X0335008Y0126445D01*
X0335168Y0126639D01*
X0335362Y0126799D01*
X0335584Y0126920D01*
X0335829Y0126996D01*
X0336092Y0127023D01*
X0337976Y0127023D01*
X0338239Y0126996D01*
X0338484Y0126920D01*
X0338707Y0126799D01*
X0338901Y0126639D01*
X0339061Y0126445D01*
X0339182Y0126223D01*
X0339258Y0125978D01*
X0339285Y0125715D01*
X0339285Y0120638D01*
X0339258Y0120375D01*
X0339182Y0120130D01*
X0339061Y0119908D01*
X0338901Y0119714D01*
X0338707Y0119554D01*
X0338484Y0119433D01*
X0338239Y0119357D01*
X0337976Y0119330D01*
X0336092Y0119330D01*
X0335829Y0119357D01*
X0335584Y0119433D01*
X0335362Y0119554D01*
X0335168Y0119714D01*
X0335008Y0119908D01*
X0334887Y0120130D01*
X0334811Y0120375D01*
X0334784Y0120638D01*
X0334784Y0125715D01*
X0334811Y0125978D01*
X0334887Y0126223D01*
X0347197Y0119106D02*
X0347357Y0119300D01*
X0347551Y0119460D01*
X0347773Y0119581D01*
X0348018Y0119658D01*
X0348281Y0119684D01*
X0353357Y0119684D01*
X0353620Y0119658D01*
X0353865Y0119581D01*
X0354088Y0119460D01*
X0354281Y0119300D01*
X0354442Y0119106D01*
X0354562Y0118884D01*
X0354639Y0118639D01*
X0354666Y0118376D01*
X0354666Y0116492D01*
X0354639Y0116229D01*
X0354562Y0115984D01*
X0354442Y0115761D01*
X0354281Y0115567D01*
X0354088Y0115407D01*
X0353865Y0115286D01*
X0353620Y0115210D01*
X0353357Y0115183D01*
X0348281Y0115183D01*
X0348018Y0115210D01*
X0347773Y0115286D01*
X0347551Y0115407D01*
X0347357Y0115567D01*
X0347197Y0115761D01*
X0347076Y0115984D01*
X0346999Y0116229D01*
X0346973Y0116492D01*
X0346973Y0118376D01*
X0346999Y0118639D01*
X0347076Y0118884D01*
X0347197Y0119106D01*
X0365296Y0118376D02*
X0365296Y0116492D01*
X0365323Y0116229D01*
X0365399Y0115984D01*
X0365520Y0115761D01*
X0365681Y0115567D01*
X0365874Y0115407D01*
X0366097Y0115286D01*
X0366342Y0115210D01*
X0366605Y0115183D01*
X0371681Y0115183D01*
X0371944Y0115210D01*
X0372189Y0115286D01*
X0372411Y0115407D01*
X0372605Y0115567D01*
X0372765Y0115761D01*
X0372886Y0115984D01*
X0372962Y0116229D01*
X0372989Y0116492D01*
X0372989Y0118376D01*
X0372962Y0118639D01*
X0372886Y0118884D01*
X0372765Y0119106D01*
X0372605Y0119300D01*
X0372411Y0119460D01*
X0372189Y0119581D01*
X0371944Y0119658D01*
X0371681Y0119684D01*
X0366605Y0119684D01*
X0366342Y0119658D01*
X0366097Y0119581D01*
X0365874Y0119460D01*
X0365681Y0119300D01*
X0365520Y0119106D01*
X0365399Y0118884D01*
X0365323Y0118639D01*
X0365296Y0118376D01*
X0290480Y0097559D02*
X0290544Y0096924D01*
X0290484Y0097539D01*
X0290305Y0098129D01*
X0290014Y0098674D01*
X0289622Y0099151D01*
X0289145Y0099543D01*
X0288600Y0099834D01*
X0288009Y0100013D01*
X0287395Y0100074D01*
X0286780Y0100013D01*
X0286189Y0099834D01*
X0285645Y0099543D01*
X0285168Y0099151D01*
X0284776Y0098674D01*
X0284485Y0098129D01*
X0284306Y0097539D01*
X0284245Y0096924D01*
X0284306Y0096310D01*
X0284485Y0095719D01*
X0284776Y0095174D01*
X0285168Y0094697D01*
X0285645Y0094305D01*
X0286189Y0094014D01*
X0286780Y0093835D01*
X0287395Y0093774D01*
X0288009Y0093835D01*
X0288600Y0094014D01*
X0289145Y0094305D01*
X0289622Y0094697D01*
X0289156Y0094312D01*
X0288621Y0094022D01*
X0288029Y0093839D01*
X0287395Y0093774D01*
X0286760Y0093839D01*
X0286169Y0094022D01*
X0285634Y0094312D01*
X0285168Y0094697D01*
X0284783Y0095163D01*
X0284493Y0095698D01*
X0284309Y0096289D01*
X0284245Y0096924D01*
X0284309Y0097559D01*
X0284493Y0098150D01*
X0284783Y0098685D01*
X0285168Y0099151D01*
X0285634Y0099536D01*
X0286169Y0099826D01*
X0286760Y0100010D01*
X0287395Y0100074D01*
X0288029Y0100010D01*
X0288621Y0099826D01*
X0289156Y0099536D01*
X0289622Y0099151D01*
X0290007Y0098685D01*
X0290297Y0098150D01*
X0290480Y0097559D01*
X0290544Y0096924D02*
X0290484Y0096310D01*
X0290305Y0095719D01*
X0290014Y0095174D01*
X0289622Y0094697D01*
X0290007Y0095163D01*
X0290297Y0095698D01*
X0290480Y0096289D01*
X0290544Y0096924D01*
X0064482Y0141013D02*
X0064482Y0145461D01*
D11*
X0061845Y0126155D02*
X0050845Y0126155D01*
X0050845Y0121155D01*
X0061845Y0121155D01*
X0061845Y0126155D01*
X0065692Y0120039D02*
X0065692Y0112952D01*
X0072779Y0112952D01*
X0072779Y0120039D01*
X0065692Y0120039D01*
X0061845Y0119049D02*
X0061845Y0114049D01*
X0050845Y0114049D01*
X0050845Y0119049D01*
X0061845Y0119049D01*
X0061917Y0111852D02*
X0050917Y0111852D01*
X0050917Y0106852D01*
X0061917Y0106852D01*
X0061917Y0111852D01*
X0005020Y0114803D02*
X0005020Y0099735D01*
D12*
X0024010Y0145461D02*
X0064482Y0145461D01*
X0129179Y0114269D02*
X0131158Y0115505D01*
X0132147Y0113922D01*
X0130960Y0113180D01*
X0130909Y0113146D01*
X0130861Y0113109D01*
X0130815Y0113069D01*
X0130772Y0113025D01*
X0130731Y0112979D01*
X0130694Y0112931D01*
X0130661Y0112880D01*
X0130630Y0112827D01*
X0130603Y0112772D01*
X0130580Y0112716D01*
X0130561Y0112658D01*
X0130545Y0112599D01*
X0130533Y0112539D01*
X0130525Y0112478D01*
X0130521Y0112417D01*
X0130522Y0112356D01*
X0130526Y0112296D01*
X0130534Y0112235D01*
X0130546Y0112175D01*
X0130562Y0112116D01*
X0130582Y0112058D01*
X0130605Y0112002D01*
X0130632Y0111947D01*
X0130663Y0111895D01*
X0130663Y0111894D02*
X0130910Y0111499D01*
X0130911Y0111499D02*
X0130945Y0111448D01*
X0130982Y0111400D01*
X0131022Y0111354D01*
X0131066Y0111311D01*
X0131112Y0111270D01*
X0131160Y0111233D01*
X0131211Y0111200D01*
X0131264Y0111169D01*
X0131319Y0111142D01*
X0131375Y0111119D01*
X0131433Y0111100D01*
X0131492Y0111084D01*
X0131552Y0111072D01*
X0131613Y0111064D01*
X0131674Y0111060D01*
X0131735Y0111061D01*
X0131795Y0111065D01*
X0131856Y0111073D01*
X0131916Y0111085D01*
X0131975Y0111101D01*
X0132033Y0111121D01*
X0132089Y0111144D01*
X0132144Y0111171D01*
X0132196Y0111202D01*
X0133384Y0111944D01*
X0134967Y0112933D02*
X0134843Y0113131D01*
X0135041Y0113254D01*
X0135164Y0113056D01*
X0134967Y0112933D01*
X0136253Y0114837D02*
X0136006Y0115233D01*
X0135975Y0115285D01*
X0135948Y0115340D01*
X0135925Y0115396D01*
X0135905Y0115454D01*
X0135889Y0115513D01*
X0135877Y0115573D01*
X0135869Y0115634D01*
X0135865Y0115694D01*
X0135864Y0115755D01*
X0135868Y0115816D01*
X0135876Y0115877D01*
X0135888Y0115937D01*
X0135904Y0115996D01*
X0135923Y0116054D01*
X0135946Y0116110D01*
X0135973Y0116165D01*
X0136004Y0116218D01*
X0136037Y0116269D01*
X0136074Y0116317D01*
X0136115Y0116363D01*
X0136158Y0116407D01*
X0136204Y0116447D01*
X0136252Y0116484D01*
X0136303Y0116518D01*
X0136302Y0116519D02*
X0137490Y0117261D01*
X0136501Y0118844D01*
X0134522Y0117607D01*
X0136253Y0114838D02*
X0136287Y0114787D01*
X0136324Y0114739D01*
X0136364Y0114693D01*
X0136408Y0114650D01*
X0136454Y0114609D01*
X0136502Y0114572D01*
X0136553Y0114539D01*
X0136606Y0114508D01*
X0136661Y0114481D01*
X0136717Y0114458D01*
X0136775Y0114439D01*
X0136834Y0114423D01*
X0136894Y0114411D01*
X0136955Y0114403D01*
X0137016Y0114399D01*
X0137077Y0114400D01*
X0137137Y0114404D01*
X0137198Y0114412D01*
X0137258Y0114424D01*
X0137317Y0114440D01*
X0137375Y0114460D01*
X0137431Y0114483D01*
X0137486Y0114510D01*
X0137538Y0114541D01*
X0137539Y0114540D02*
X0138726Y0115282D01*
X0142405Y0117581D02*
X0142603Y0117704D01*
X0142644Y0117732D01*
X0142684Y0117763D01*
X0142721Y0117797D01*
X0142755Y0117833D01*
X0142787Y0117871D01*
X0142816Y0117912D01*
X0142842Y0117955D01*
X0142865Y0117999D01*
X0142885Y0118045D01*
X0142901Y0118092D01*
X0142914Y0118141D01*
X0142924Y0118190D01*
X0142930Y0118239D01*
X0142932Y0118289D01*
X0142931Y0118339D01*
X0142926Y0118389D01*
X0142918Y0118438D01*
X0142906Y0118487D01*
X0142891Y0118534D01*
X0142872Y0118581D01*
X0142851Y0118626D01*
X0142826Y0118669D01*
X0142825Y0118669D02*
X0140971Y0121637D01*
X0142108Y0120697D02*
X0140921Y0119955D01*
X0143603Y0121631D02*
X0145086Y0119257D01*
X0146076Y0119875D01*
X0146076Y0119874D02*
X0146119Y0119904D01*
X0146160Y0119936D01*
X0146199Y0119972D01*
X0146234Y0120010D01*
X0146267Y0120051D01*
X0146297Y0120094D01*
X0146323Y0120139D01*
X0146346Y0120186D01*
X0146365Y0120235D01*
X0146381Y0120285D01*
X0146392Y0120336D01*
X0146400Y0120388D01*
X0146404Y0120440D01*
X0146405Y0120492D01*
X0146401Y0120545D01*
X0146393Y0120596D01*
X0146382Y0120647D01*
X0146366Y0120698D01*
X0146347Y0120746D01*
X0146325Y0120794D01*
X0146299Y0120839D01*
X0145186Y0122620D01*
X0147532Y0122986D02*
X0148026Y0122194D01*
X0148027Y0122195D02*
X0148061Y0122144D01*
X0148098Y0122096D01*
X0148138Y0122050D01*
X0148182Y0122007D01*
X0148228Y0121966D01*
X0148276Y0121929D01*
X0148327Y0121896D01*
X0148380Y0121865D01*
X0148435Y0121838D01*
X0148491Y0121815D01*
X0148549Y0121796D01*
X0148608Y0121780D01*
X0148668Y0121768D01*
X0148729Y0121760D01*
X0148790Y0121756D01*
X0148851Y0121757D01*
X0148911Y0121761D01*
X0148972Y0121769D01*
X0149032Y0121781D01*
X0149091Y0121797D01*
X0149149Y0121817D01*
X0149205Y0121840D01*
X0149260Y0121867D01*
X0149312Y0121898D01*
X0149363Y0121932D01*
X0149411Y0121969D01*
X0149457Y0122009D01*
X0149500Y0122053D01*
X0149541Y0122099D01*
X0149578Y0122147D01*
X0149611Y0122198D01*
X0149642Y0122251D01*
X0149669Y0122306D01*
X0149692Y0122362D01*
X0149711Y0122420D01*
X0149727Y0122479D01*
X0149739Y0122539D01*
X0149747Y0122600D01*
X0149751Y0122661D01*
X0149750Y0122722D01*
X0149746Y0122782D01*
X0149738Y0122843D01*
X0149726Y0122903D01*
X0149710Y0122962D01*
X0149690Y0123020D01*
X0149667Y0123076D01*
X0149640Y0123131D01*
X0149609Y0123183D01*
X0149115Y0123975D01*
X0149114Y0123974D02*
X0149081Y0124024D01*
X0149045Y0124072D01*
X0149005Y0124117D01*
X0148963Y0124159D01*
X0148918Y0124199D01*
X0148871Y0124235D01*
X0148821Y0124269D01*
X0148770Y0124299D01*
X0148716Y0124326D01*
X0148661Y0124349D01*
X0148605Y0124369D01*
X0148547Y0124386D01*
X0148489Y0124398D01*
X0148430Y0124407D01*
X0148370Y0124412D01*
X0148310Y0124413D01*
X0148251Y0124410D01*
X0148191Y0124404D01*
X0148132Y0124393D01*
X0148074Y0124379D01*
X0148017Y0124361D01*
X0147961Y0124340D01*
X0147907Y0124315D01*
X0147854Y0124287D01*
X0147803Y0124255D01*
X0147755Y0124220D01*
X0147709Y0124182D01*
X0147665Y0124141D01*
X0147624Y0124098D01*
X0147586Y0124052D01*
X0147551Y0124003D01*
X0147519Y0123953D01*
X0147490Y0123900D01*
X0147465Y0123846D01*
X0147443Y0123790D01*
X0147425Y0123733D01*
X0147411Y0123675D01*
X0147400Y0123616D01*
X0147393Y0123557D01*
X0147390Y0123497D01*
X0147391Y0123437D01*
X0147396Y0123378D01*
X0147404Y0123319D01*
X0147416Y0123260D01*
X0147432Y0123202D01*
X0147452Y0123146D01*
X0147475Y0123091D01*
X0147502Y0123037D01*
X0147532Y0122986D01*
X0150217Y0125764D02*
X0153630Y0122945D01*
X0154026Y0123192D01*
X0152493Y0123885D02*
X0151800Y0126754D01*
X0153925Y0127256D02*
X0155038Y0125475D01*
X0155929Y0126031D01*
X0155976Y0126063D01*
X0156021Y0126098D01*
X0156064Y0126136D01*
X0156103Y0126177D01*
X0156140Y0126221D01*
X0156173Y0126267D01*
X0156204Y0126316D01*
X0156230Y0126366D01*
X0156254Y0126418D01*
X0156273Y0126472D01*
X0156289Y0126526D01*
X0156301Y0126582D01*
X0156309Y0126639D01*
X0156313Y0126695D01*
X0156313Y0126753D01*
X0156309Y0126809D01*
X0156301Y0126866D01*
X0156289Y0126922D01*
X0156273Y0126976D01*
X0156254Y0127030D01*
X0156230Y0127082D01*
X0156204Y0127133D01*
X0156173Y0127181D01*
X0156140Y0127227D01*
X0156103Y0127271D01*
X0156064Y0127312D01*
X0156021Y0127350D01*
X0155976Y0127385D01*
X0155929Y0127417D01*
X0155880Y0127445D01*
X0155828Y0127470D01*
X0155775Y0127492D01*
X0155721Y0127509D01*
X0155666Y0127523D01*
X0155610Y0127533D01*
X0155553Y0127539D01*
X0155496Y0127541D01*
X0155439Y0127539D01*
X0155382Y0127533D01*
X0155326Y0127523D01*
X0155271Y0127509D01*
X0155217Y0127492D01*
X0155164Y0127470D01*
X0155112Y0127445D01*
X0155063Y0127417D01*
X0154173Y0126860D01*
X0153925Y0127256D02*
X0153900Y0127299D01*
X0153879Y0127344D01*
X0153860Y0127391D01*
X0153845Y0127438D01*
X0153833Y0127487D01*
X0153825Y0127536D01*
X0153820Y0127586D01*
X0153819Y0127636D01*
X0153821Y0127686D01*
X0153827Y0127735D01*
X0153837Y0127784D01*
X0153850Y0127833D01*
X0153866Y0127880D01*
X0153886Y0127926D01*
X0153909Y0127970D01*
X0153935Y0128013D01*
X0153964Y0128054D01*
X0153996Y0128092D01*
X0154030Y0128128D01*
X0154067Y0128162D01*
X0154107Y0128193D01*
X0154148Y0128221D01*
X0154939Y0128715D01*
X0158245Y0128304D02*
X0158271Y0128259D01*
X0158293Y0128211D01*
X0158312Y0128163D01*
X0158328Y0128112D01*
X0158339Y0128061D01*
X0158347Y0128010D01*
X0158351Y0127957D01*
X0158350Y0127905D01*
X0158346Y0127853D01*
X0158338Y0127801D01*
X0158327Y0127750D01*
X0158311Y0127700D01*
X0158292Y0127651D01*
X0158269Y0127604D01*
X0158243Y0127559D01*
X0158213Y0127516D01*
X0158180Y0127475D01*
X0158145Y0127437D01*
X0158106Y0127401D01*
X0158065Y0127369D01*
X0158022Y0127339D01*
X0158245Y0128304D02*
X0156390Y0131272D01*
X0160186Y0055514D02*
X0160186Y0054581D01*
X0161352Y0054581D02*
X0161352Y0055514D01*
X0162663Y0053181D02*
X0162663Y0052714D01*
X0162663Y0053181D02*
X0164063Y0053181D01*
X0164063Y0050381D01*
X0166286Y0050381D02*
X0167452Y0050381D01*
X0167502Y0050383D01*
X0167552Y0050388D01*
X0167601Y0050397D01*
X0167649Y0050409D01*
X0167697Y0050425D01*
X0167743Y0050444D01*
X0167787Y0050467D01*
X0167830Y0050492D01*
X0167871Y0050521D01*
X0167910Y0050552D01*
X0167947Y0050586D01*
X0167981Y0050623D01*
X0168012Y0050662D01*
X0168041Y0050703D01*
X0168066Y0050746D01*
X0168089Y0050790D01*
X0168108Y0050836D01*
X0168124Y0050884D01*
X0168136Y0050932D01*
X0168145Y0050981D01*
X0168150Y0051031D01*
X0168152Y0051081D01*
X0168152Y0052248D01*
X0168152Y0051781D02*
X0166286Y0051781D01*
X0166286Y0052248D01*
X0166288Y0052308D01*
X0166294Y0052367D01*
X0166303Y0052426D01*
X0166317Y0052485D01*
X0166334Y0052542D01*
X0166354Y0052598D01*
X0166378Y0052653D01*
X0166406Y0052706D01*
X0166437Y0052757D01*
X0166471Y0052806D01*
X0166509Y0052853D01*
X0166549Y0052897D01*
X0166592Y0052939D01*
X0166637Y0052977D01*
X0166685Y0053013D01*
X0166735Y0053046D01*
X0166787Y0053075D01*
X0166841Y0053101D01*
X0166897Y0053124D01*
X0166954Y0053142D01*
X0167011Y0053158D01*
X0167070Y0053169D01*
X0167129Y0053177D01*
X0167189Y0053181D01*
X0167249Y0053181D01*
X0167309Y0053177D01*
X0167368Y0053169D01*
X0167427Y0053158D01*
X0167484Y0053142D01*
X0167541Y0053124D01*
X0167597Y0053101D01*
X0167651Y0053075D01*
X0167703Y0053046D01*
X0167753Y0053013D01*
X0167801Y0052977D01*
X0167846Y0052939D01*
X0167889Y0052897D01*
X0167929Y0052853D01*
X0167967Y0052806D01*
X0168001Y0052757D01*
X0168032Y0052706D01*
X0168060Y0052653D01*
X0168084Y0052598D01*
X0168104Y0052542D01*
X0168121Y0052485D01*
X0168135Y0052426D01*
X0168144Y0052367D01*
X0168150Y0052308D01*
X0168152Y0052248D01*
X0170370Y0053181D02*
X0171537Y0053181D01*
X0171587Y0053179D01*
X0171637Y0053174D01*
X0171686Y0053165D01*
X0171734Y0053153D01*
X0171782Y0053137D01*
X0171828Y0053118D01*
X0171872Y0053095D01*
X0171915Y0053070D01*
X0171956Y0053041D01*
X0171995Y0053010D01*
X0172032Y0052976D01*
X0172066Y0052939D01*
X0172097Y0052900D01*
X0172126Y0052859D01*
X0172151Y0052816D01*
X0172174Y0052772D01*
X0172193Y0052726D01*
X0172209Y0052678D01*
X0172221Y0052630D01*
X0172230Y0052581D01*
X0172235Y0052531D01*
X0172237Y0052481D01*
X0172237Y0051081D01*
X0172235Y0051031D01*
X0172230Y0050981D01*
X0172221Y0050932D01*
X0172209Y0050884D01*
X0172193Y0050836D01*
X0172174Y0050790D01*
X0172151Y0050746D01*
X0172126Y0050703D01*
X0172097Y0050662D01*
X0172066Y0050623D01*
X0172032Y0050586D01*
X0171995Y0050552D01*
X0171956Y0050521D01*
X0171915Y0050492D01*
X0171872Y0050467D01*
X0171828Y0050444D01*
X0171782Y0050425D01*
X0171734Y0050409D01*
X0171686Y0050397D01*
X0171637Y0050388D01*
X0171587Y0050383D01*
X0171537Y0050381D01*
X0170370Y0050381D01*
X0170370Y0054581D01*
X0174386Y0052481D02*
X0174386Y0050381D01*
X0176252Y0050381D02*
X0176252Y0053181D01*
X0175086Y0053181D01*
X0175036Y0053179D01*
X0174986Y0053174D01*
X0174937Y0053165D01*
X0174889Y0053153D01*
X0174841Y0053137D01*
X0174795Y0053118D01*
X0174751Y0053095D01*
X0174708Y0053070D01*
X0174667Y0053041D01*
X0174628Y0053010D01*
X0174591Y0052976D01*
X0174557Y0052939D01*
X0174526Y0052900D01*
X0174497Y0052859D01*
X0174472Y0052816D01*
X0174449Y0052772D01*
X0174430Y0052726D01*
X0174414Y0052678D01*
X0174402Y0052630D01*
X0174393Y0052581D01*
X0174388Y0052531D01*
X0174386Y0052481D01*
X0178319Y0053181D02*
X0178319Y0050381D01*
X0180532Y0050381D02*
X0180532Y0053881D01*
X0180530Y0053931D01*
X0180525Y0053981D01*
X0180516Y0054030D01*
X0180504Y0054078D01*
X0180488Y0054126D01*
X0180469Y0054172D01*
X0180446Y0054216D01*
X0180421Y0054259D01*
X0180392Y0054300D01*
X0180361Y0054339D01*
X0180327Y0054376D01*
X0180290Y0054410D01*
X0180251Y0054441D01*
X0180210Y0054470D01*
X0180167Y0054495D01*
X0180123Y0054518D01*
X0180077Y0054537D01*
X0180029Y0054553D01*
X0179981Y0054565D01*
X0179932Y0054574D01*
X0179882Y0054579D01*
X0179832Y0054581D01*
X0179599Y0054581D01*
X0178436Y0054581D02*
X0178202Y0054581D01*
X0178202Y0054348D01*
X0178436Y0054348D01*
X0178436Y0054581D01*
X0179599Y0053181D02*
X0180999Y0053181D01*
X0182936Y0052481D02*
X0182936Y0050381D01*
X0184802Y0050381D02*
X0184802Y0054581D01*
X0184802Y0053181D02*
X0183636Y0053181D01*
X0183586Y0053179D01*
X0183536Y0053174D01*
X0183487Y0053165D01*
X0183439Y0053153D01*
X0183391Y0053137D01*
X0183345Y0053118D01*
X0183301Y0053095D01*
X0183258Y0053070D01*
X0183217Y0053041D01*
X0183178Y0053010D01*
X0183141Y0052976D01*
X0183107Y0052939D01*
X0183076Y0052900D01*
X0183047Y0052859D01*
X0183022Y0052816D01*
X0182999Y0052772D01*
X0182980Y0052726D01*
X0182964Y0052678D01*
X0182952Y0052630D01*
X0182943Y0052581D01*
X0182938Y0052531D01*
X0182936Y0052481D01*
X0186823Y0053181D02*
X0188223Y0053181D01*
X0187757Y0054581D02*
X0187757Y0051081D01*
X0187755Y0051031D01*
X0187750Y0050981D01*
X0187741Y0050932D01*
X0187729Y0050884D01*
X0187713Y0050836D01*
X0187694Y0050790D01*
X0187671Y0050746D01*
X0187646Y0050703D01*
X0187617Y0050662D01*
X0187586Y0050623D01*
X0187552Y0050586D01*
X0187515Y0050552D01*
X0187476Y0050521D01*
X0187435Y0050492D01*
X0187392Y0050467D01*
X0187348Y0050444D01*
X0187302Y0050425D01*
X0187254Y0050409D01*
X0187206Y0050397D01*
X0187157Y0050388D01*
X0187107Y0050383D01*
X0187057Y0050381D01*
X0186823Y0050381D01*
X0190020Y0050381D02*
X0190020Y0052481D01*
X0190020Y0052014D02*
X0191070Y0052014D01*
X0190020Y0052481D02*
X0190022Y0052531D01*
X0190027Y0052581D01*
X0190036Y0052630D01*
X0190048Y0052678D01*
X0190064Y0052726D01*
X0190083Y0052772D01*
X0190106Y0052816D01*
X0190131Y0052859D01*
X0190160Y0052900D01*
X0190191Y0052939D01*
X0190225Y0052976D01*
X0190262Y0053010D01*
X0190301Y0053041D01*
X0190342Y0053070D01*
X0190385Y0053095D01*
X0190429Y0053118D01*
X0190475Y0053137D01*
X0190523Y0053153D01*
X0190571Y0053165D01*
X0190620Y0053174D01*
X0190670Y0053179D01*
X0190720Y0053181D01*
X0191654Y0053181D01*
X0191070Y0052015D02*
X0191126Y0052013D01*
X0191181Y0052007D01*
X0191236Y0051998D01*
X0191290Y0051985D01*
X0191344Y0051968D01*
X0191395Y0051947D01*
X0191446Y0051923D01*
X0191495Y0051896D01*
X0191541Y0051865D01*
X0191586Y0051832D01*
X0191628Y0051795D01*
X0191667Y0051756D01*
X0191704Y0051714D01*
X0191737Y0051669D01*
X0191768Y0051623D01*
X0191795Y0051574D01*
X0191819Y0051523D01*
X0191840Y0051472D01*
X0191857Y0051418D01*
X0191870Y0051364D01*
X0191879Y0051309D01*
X0191885Y0051254D01*
X0191887Y0051198D01*
X0191885Y0051142D01*
X0191879Y0051087D01*
X0191870Y0051032D01*
X0191857Y0050978D01*
X0191840Y0050924D01*
X0191819Y0050873D01*
X0191795Y0050822D01*
X0191768Y0050773D01*
X0191737Y0050727D01*
X0191704Y0050682D01*
X0191667Y0050640D01*
X0191628Y0050601D01*
X0191586Y0050564D01*
X0191541Y0050531D01*
X0191495Y0050500D01*
X0191446Y0050473D01*
X0191395Y0050449D01*
X0191344Y0050428D01*
X0191290Y0050411D01*
X0191236Y0050398D01*
X0191181Y0050389D01*
X0191126Y0050383D01*
X0191070Y0050381D01*
X0190020Y0050381D01*
X0194869Y0052248D02*
X0196036Y0052248D01*
X0194869Y0052247D02*
X0194802Y0052249D01*
X0194736Y0052255D01*
X0194670Y0052264D01*
X0194605Y0052277D01*
X0194540Y0052294D01*
X0194477Y0052315D01*
X0194415Y0052339D01*
X0194354Y0052367D01*
X0194295Y0052398D01*
X0194238Y0052432D01*
X0194183Y0052470D01*
X0194130Y0052511D01*
X0194080Y0052554D01*
X0194032Y0052601D01*
X0193987Y0052650D01*
X0193945Y0052701D01*
X0193906Y0052755D01*
X0193870Y0052811D01*
X0193837Y0052869D01*
X0193807Y0052929D01*
X0193782Y0052991D01*
X0193759Y0053053D01*
X0193740Y0053117D01*
X0193725Y0053182D01*
X0193714Y0053248D01*
X0193706Y0053314D01*
X0193702Y0053381D01*
X0193702Y0053447D01*
X0193706Y0053514D01*
X0193714Y0053580D01*
X0193725Y0053646D01*
X0193740Y0053711D01*
X0193759Y0053775D01*
X0193782Y0053837D01*
X0193807Y0053899D01*
X0193837Y0053959D01*
X0193870Y0054017D01*
X0193906Y0054073D01*
X0193945Y0054127D01*
X0193987Y0054178D01*
X0194032Y0054227D01*
X0194080Y0054274D01*
X0194130Y0054317D01*
X0194183Y0054358D01*
X0194238Y0054396D01*
X0194295Y0054430D01*
X0194354Y0054461D01*
X0194415Y0054489D01*
X0194477Y0054513D01*
X0194540Y0054534D01*
X0194605Y0054551D01*
X0194670Y0054564D01*
X0194736Y0054573D01*
X0194802Y0054579D01*
X0194869Y0054581D01*
X0196036Y0054581D01*
X0196036Y0050381D01*
X0198136Y0054581D02*
X0198136Y0055514D01*
X0199302Y0055514D02*
X0199302Y0054581D01*
D13*
X0285155Y0096586D02*
X0285155Y0097031D01*
X0285157Y0097056D01*
X0285162Y0097081D01*
X0285171Y0097105D01*
X0285183Y0097127D01*
X0285198Y0097148D01*
X0285216Y0097166D01*
X0285237Y0097181D01*
X0285259Y0097193D01*
X0285283Y0097202D01*
X0285308Y0097207D01*
X0285333Y0097209D01*
X0285333Y0097208D02*
X0285511Y0097208D01*
X0285780Y0097208D02*
X0285780Y0096631D01*
X0285781Y0096631D02*
X0285783Y0096602D01*
X0285789Y0096574D01*
X0285798Y0096546D01*
X0285811Y0096520D01*
X0285827Y0096496D01*
X0285846Y0096474D01*
X0285868Y0096455D01*
X0285892Y0096439D01*
X0285918Y0096426D01*
X0285946Y0096417D01*
X0285974Y0096411D01*
X0286003Y0096409D01*
X0286032Y0096411D01*
X0286060Y0096417D01*
X0286088Y0096426D01*
X0286114Y0096439D01*
X0286138Y0096455D01*
X0286160Y0096474D01*
X0286179Y0096496D01*
X0286195Y0096520D01*
X0286208Y0096546D01*
X0286217Y0096574D01*
X0286223Y0096602D01*
X0286225Y0096631D01*
X0286225Y0097208D01*
X0286476Y0097208D02*
X0286921Y0097208D01*
X0286699Y0097208D02*
X0286699Y0096408D01*
X0287532Y0096631D02*
X0287532Y0096986D01*
X0287533Y0096986D02*
X0287535Y0097015D01*
X0287541Y0097043D01*
X0287550Y0097071D01*
X0287563Y0097097D01*
X0287579Y0097121D01*
X0287598Y0097143D01*
X0287620Y0097162D01*
X0287644Y0097178D01*
X0287670Y0097191D01*
X0287698Y0097200D01*
X0287726Y0097206D01*
X0287755Y0097208D01*
X0287784Y0097206D01*
X0287812Y0097200D01*
X0287840Y0097191D01*
X0287866Y0097178D01*
X0287890Y0097162D01*
X0287912Y0097143D01*
X0287931Y0097121D01*
X0287947Y0097097D01*
X0287960Y0097071D01*
X0287969Y0097043D01*
X0287975Y0097015D01*
X0287977Y0096986D01*
X0287977Y0096631D01*
X0287975Y0096602D01*
X0287969Y0096574D01*
X0287960Y0096546D01*
X0287947Y0096520D01*
X0287931Y0096496D01*
X0287912Y0096474D01*
X0287890Y0096455D01*
X0287866Y0096439D01*
X0287840Y0096426D01*
X0287812Y0096417D01*
X0287784Y0096411D01*
X0287755Y0096409D01*
X0287726Y0096411D01*
X0287698Y0096417D01*
X0287670Y0096426D01*
X0287644Y0096439D01*
X0287620Y0096455D01*
X0287598Y0096474D01*
X0287579Y0096496D01*
X0287563Y0096520D01*
X0287550Y0096546D01*
X0287541Y0096574D01*
X0287535Y0096602D01*
X0287533Y0096631D01*
X0288276Y0096631D02*
X0288276Y0097208D01*
X0288721Y0097208D02*
X0288721Y0096631D01*
X0288719Y0096602D01*
X0288713Y0096574D01*
X0288704Y0096546D01*
X0288691Y0096520D01*
X0288675Y0096496D01*
X0288656Y0096474D01*
X0288634Y0096455D01*
X0288610Y0096439D01*
X0288584Y0096426D01*
X0288556Y0096417D01*
X0288528Y0096411D01*
X0288499Y0096409D01*
X0288470Y0096411D01*
X0288442Y0096417D01*
X0288414Y0096426D01*
X0288388Y0096439D01*
X0288364Y0096455D01*
X0288342Y0096474D01*
X0288323Y0096496D01*
X0288307Y0096520D01*
X0288294Y0096546D01*
X0288285Y0096574D01*
X0288279Y0096602D01*
X0288277Y0096631D01*
X0288972Y0097208D02*
X0289417Y0097208D01*
X0289195Y0097208D02*
X0289195Y0096408D01*
X0285511Y0096408D02*
X0285333Y0096408D01*
X0285308Y0096410D01*
X0285283Y0096415D01*
X0285259Y0096424D01*
X0285237Y0096436D01*
X0285216Y0096451D01*
X0285198Y0096469D01*
X0285183Y0096490D01*
X0285171Y0096512D01*
X0285162Y0096536D01*
X0285157Y0096561D01*
X0285155Y0096586D01*
X0336617Y0121386D02*
X0336617Y0121564D01*
X0336617Y0121386D02*
X0336619Y0121361D01*
X0336624Y0121336D01*
X0336633Y0121312D01*
X0336645Y0121290D01*
X0336660Y0121269D01*
X0336678Y0121251D01*
X0336699Y0121236D01*
X0336721Y0121224D01*
X0336745Y0121215D01*
X0336770Y0121210D01*
X0336795Y0121208D01*
X0337239Y0121208D01*
X0337264Y0121210D01*
X0337289Y0121215D01*
X0337313Y0121224D01*
X0337335Y0121236D01*
X0337356Y0121251D01*
X0337374Y0121269D01*
X0337389Y0121290D01*
X0337401Y0121312D01*
X0337410Y0121336D01*
X0337415Y0121361D01*
X0337417Y0121386D01*
X0337417Y0121564D01*
X0337195Y0121833D02*
X0336617Y0121833D01*
X0336617Y0122278D02*
X0337195Y0122278D01*
X0337224Y0122276D01*
X0337252Y0122270D01*
X0337280Y0122261D01*
X0337306Y0122248D01*
X0337330Y0122232D01*
X0337352Y0122213D01*
X0337371Y0122191D01*
X0337387Y0122167D01*
X0337400Y0122141D01*
X0337409Y0122113D01*
X0337415Y0122085D01*
X0337417Y0122056D01*
X0337415Y0122027D01*
X0337409Y0121999D01*
X0337400Y0121971D01*
X0337387Y0121945D01*
X0337371Y0121921D01*
X0337352Y0121899D01*
X0337330Y0121880D01*
X0337306Y0121864D01*
X0337280Y0121851D01*
X0337252Y0121842D01*
X0337224Y0121836D01*
X0337195Y0121834D01*
X0336617Y0122529D02*
X0336617Y0122974D01*
X0336617Y0122752D02*
X0337417Y0122752D01*
X0337195Y0123585D02*
X0336839Y0123585D01*
X0336839Y0123586D02*
X0336810Y0123588D01*
X0336782Y0123594D01*
X0336754Y0123603D01*
X0336728Y0123616D01*
X0336704Y0123632D01*
X0336682Y0123651D01*
X0336663Y0123673D01*
X0336647Y0123697D01*
X0336634Y0123723D01*
X0336625Y0123751D01*
X0336619Y0123779D01*
X0336617Y0123808D01*
X0336619Y0123837D01*
X0336625Y0123865D01*
X0336634Y0123893D01*
X0336647Y0123919D01*
X0336663Y0123943D01*
X0336682Y0123965D01*
X0336704Y0123984D01*
X0336728Y0124000D01*
X0336754Y0124013D01*
X0336782Y0124022D01*
X0336810Y0124028D01*
X0336839Y0124030D01*
X0337195Y0124030D01*
X0337224Y0124028D01*
X0337252Y0124022D01*
X0337280Y0124013D01*
X0337306Y0124000D01*
X0337330Y0123984D01*
X0337352Y0123965D01*
X0337371Y0123943D01*
X0337387Y0123919D01*
X0337400Y0123893D01*
X0337409Y0123865D01*
X0337415Y0123837D01*
X0337417Y0123808D01*
X0337415Y0123779D01*
X0337409Y0123751D01*
X0337400Y0123723D01*
X0337387Y0123697D01*
X0337371Y0123673D01*
X0337352Y0123651D01*
X0337330Y0123632D01*
X0337306Y0123616D01*
X0337280Y0123603D01*
X0337252Y0123594D01*
X0337224Y0123588D01*
X0337195Y0123586D01*
X0337195Y0124329D02*
X0336617Y0124329D01*
X0336617Y0124774D02*
X0337195Y0124774D01*
X0337224Y0124772D01*
X0337252Y0124766D01*
X0337280Y0124757D01*
X0337306Y0124744D01*
X0337330Y0124728D01*
X0337352Y0124709D01*
X0337371Y0124687D01*
X0337387Y0124663D01*
X0337400Y0124637D01*
X0337409Y0124609D01*
X0337415Y0124581D01*
X0337417Y0124552D01*
X0337415Y0124523D01*
X0337409Y0124495D01*
X0337400Y0124467D01*
X0337387Y0124441D01*
X0337371Y0124417D01*
X0337352Y0124395D01*
X0337330Y0124376D01*
X0337306Y0124360D01*
X0337280Y0124347D01*
X0337252Y0124338D01*
X0337224Y0124332D01*
X0337195Y0124330D01*
X0336617Y0125025D02*
X0336617Y0125470D01*
X0336617Y0125248D02*
X0337417Y0125248D01*
X0348917Y0117831D02*
X0348917Y0117386D01*
X0348919Y0117361D01*
X0348924Y0117336D01*
X0348933Y0117312D01*
X0348945Y0117290D01*
X0348960Y0117269D01*
X0348978Y0117251D01*
X0348999Y0117236D01*
X0349021Y0117224D01*
X0349045Y0117215D01*
X0349070Y0117210D01*
X0349095Y0117208D01*
X0349272Y0117208D01*
X0349542Y0117431D02*
X0349542Y0118008D01*
X0349272Y0118008D02*
X0349095Y0118008D01*
X0349095Y0118009D02*
X0349070Y0118007D01*
X0349045Y0118002D01*
X0349021Y0117993D01*
X0348999Y0117981D01*
X0348978Y0117966D01*
X0348960Y0117948D01*
X0348945Y0117927D01*
X0348933Y0117905D01*
X0348924Y0117881D01*
X0348919Y0117856D01*
X0348917Y0117831D01*
X0349542Y0117431D02*
X0349544Y0117402D01*
X0349550Y0117374D01*
X0349559Y0117346D01*
X0349572Y0117320D01*
X0349588Y0117296D01*
X0349607Y0117274D01*
X0349629Y0117255D01*
X0349653Y0117239D01*
X0349679Y0117226D01*
X0349707Y0117217D01*
X0349735Y0117211D01*
X0349764Y0117209D01*
X0349793Y0117211D01*
X0349821Y0117217D01*
X0349849Y0117226D01*
X0349875Y0117239D01*
X0349899Y0117255D01*
X0349921Y0117274D01*
X0349940Y0117296D01*
X0349956Y0117320D01*
X0349969Y0117346D01*
X0349978Y0117374D01*
X0349984Y0117402D01*
X0349986Y0117431D01*
X0349986Y0118008D01*
X0350238Y0118008D02*
X0350682Y0118008D01*
X0350460Y0118008D02*
X0350460Y0117208D01*
X0351294Y0117431D02*
X0351294Y0117786D01*
X0351296Y0117815D01*
X0351302Y0117843D01*
X0351311Y0117871D01*
X0351324Y0117897D01*
X0351340Y0117921D01*
X0351359Y0117943D01*
X0351381Y0117962D01*
X0351405Y0117978D01*
X0351431Y0117991D01*
X0351459Y0118000D01*
X0351487Y0118006D01*
X0351516Y0118008D01*
X0351545Y0118006D01*
X0351573Y0118000D01*
X0351601Y0117991D01*
X0351627Y0117978D01*
X0351651Y0117962D01*
X0351673Y0117943D01*
X0351692Y0117921D01*
X0351708Y0117897D01*
X0351721Y0117871D01*
X0351730Y0117843D01*
X0351736Y0117815D01*
X0351738Y0117786D01*
X0351738Y0117431D01*
X0351736Y0117402D01*
X0351730Y0117374D01*
X0351721Y0117346D01*
X0351708Y0117320D01*
X0351692Y0117296D01*
X0351673Y0117274D01*
X0351651Y0117255D01*
X0351627Y0117239D01*
X0351601Y0117226D01*
X0351573Y0117217D01*
X0351545Y0117211D01*
X0351516Y0117209D01*
X0351487Y0117211D01*
X0351459Y0117217D01*
X0351431Y0117226D01*
X0351405Y0117239D01*
X0351381Y0117255D01*
X0351359Y0117274D01*
X0351340Y0117296D01*
X0351324Y0117320D01*
X0351311Y0117346D01*
X0351302Y0117374D01*
X0351296Y0117402D01*
X0351294Y0117431D01*
X0352038Y0117431D02*
X0352038Y0118008D01*
X0352482Y0118008D02*
X0352482Y0117431D01*
X0352480Y0117402D01*
X0352474Y0117374D01*
X0352465Y0117346D01*
X0352452Y0117320D01*
X0352436Y0117296D01*
X0352417Y0117274D01*
X0352395Y0117255D01*
X0352371Y0117239D01*
X0352345Y0117226D01*
X0352317Y0117217D01*
X0352289Y0117211D01*
X0352260Y0117209D01*
X0352231Y0117211D01*
X0352203Y0117217D01*
X0352175Y0117226D01*
X0352149Y0117239D01*
X0352125Y0117255D01*
X0352103Y0117274D01*
X0352084Y0117296D01*
X0352068Y0117320D01*
X0352055Y0117346D01*
X0352046Y0117374D01*
X0352040Y0117402D01*
X0352038Y0117431D01*
X0352734Y0118008D02*
X0353178Y0118008D01*
X0352956Y0118008D02*
X0352956Y0117208D01*
X0367417Y0117386D02*
X0367417Y0117831D01*
X0367419Y0117856D01*
X0367424Y0117881D01*
X0367433Y0117905D01*
X0367445Y0117927D01*
X0367460Y0117948D01*
X0367478Y0117966D01*
X0367499Y0117981D01*
X0367521Y0117993D01*
X0367545Y0118002D01*
X0367570Y0118007D01*
X0367595Y0118009D01*
X0367595Y0118008D02*
X0367772Y0118008D01*
X0368042Y0118008D02*
X0368042Y0117431D01*
X0368044Y0117402D01*
X0368050Y0117374D01*
X0368059Y0117346D01*
X0368072Y0117320D01*
X0368088Y0117296D01*
X0368107Y0117274D01*
X0368129Y0117255D01*
X0368153Y0117239D01*
X0368179Y0117226D01*
X0368207Y0117217D01*
X0368235Y0117211D01*
X0368264Y0117209D01*
X0368293Y0117211D01*
X0368321Y0117217D01*
X0368349Y0117226D01*
X0368375Y0117239D01*
X0368399Y0117255D01*
X0368421Y0117274D01*
X0368440Y0117296D01*
X0368456Y0117320D01*
X0368469Y0117346D01*
X0368478Y0117374D01*
X0368484Y0117402D01*
X0368486Y0117431D01*
X0368486Y0118008D01*
X0368738Y0118008D02*
X0369182Y0118008D01*
X0368960Y0118008D02*
X0368960Y0117208D01*
X0369794Y0117431D02*
X0369794Y0117786D01*
X0369796Y0117815D01*
X0369802Y0117843D01*
X0369811Y0117871D01*
X0369824Y0117897D01*
X0369840Y0117921D01*
X0369859Y0117943D01*
X0369881Y0117962D01*
X0369905Y0117978D01*
X0369931Y0117991D01*
X0369959Y0118000D01*
X0369987Y0118006D01*
X0370016Y0118008D01*
X0370045Y0118006D01*
X0370073Y0118000D01*
X0370101Y0117991D01*
X0370127Y0117978D01*
X0370151Y0117962D01*
X0370173Y0117943D01*
X0370192Y0117921D01*
X0370208Y0117897D01*
X0370221Y0117871D01*
X0370230Y0117843D01*
X0370236Y0117815D01*
X0370238Y0117786D01*
X0370238Y0117431D01*
X0370236Y0117402D01*
X0370230Y0117374D01*
X0370221Y0117346D01*
X0370208Y0117320D01*
X0370192Y0117296D01*
X0370173Y0117274D01*
X0370151Y0117255D01*
X0370127Y0117239D01*
X0370101Y0117226D01*
X0370073Y0117217D01*
X0370045Y0117211D01*
X0370016Y0117209D01*
X0369987Y0117211D01*
X0369959Y0117217D01*
X0369931Y0117226D01*
X0369905Y0117239D01*
X0369881Y0117255D01*
X0369859Y0117274D01*
X0369840Y0117296D01*
X0369824Y0117320D01*
X0369811Y0117346D01*
X0369802Y0117374D01*
X0369796Y0117402D01*
X0369794Y0117431D01*
X0370538Y0117431D02*
X0370538Y0118008D01*
X0370982Y0118008D02*
X0370982Y0117431D01*
X0370980Y0117402D01*
X0370974Y0117374D01*
X0370965Y0117346D01*
X0370952Y0117320D01*
X0370936Y0117296D01*
X0370917Y0117274D01*
X0370895Y0117255D01*
X0370871Y0117239D01*
X0370845Y0117226D01*
X0370817Y0117217D01*
X0370789Y0117211D01*
X0370760Y0117209D01*
X0370731Y0117211D01*
X0370703Y0117217D01*
X0370675Y0117226D01*
X0370649Y0117239D01*
X0370625Y0117255D01*
X0370603Y0117274D01*
X0370584Y0117296D01*
X0370568Y0117320D01*
X0370555Y0117346D01*
X0370546Y0117374D01*
X0370540Y0117402D01*
X0370538Y0117431D01*
X0371234Y0118008D02*
X0371678Y0118008D01*
X0371456Y0118008D02*
X0371456Y0117208D01*
X0367772Y0117208D02*
X0367595Y0117208D01*
X0367570Y0117210D01*
X0367545Y0117215D01*
X0367521Y0117224D01*
X0367499Y0117236D01*
X0367478Y0117251D01*
X0367460Y0117269D01*
X0367445Y0117290D01*
X0367433Y0117312D01*
X0367424Y0117336D01*
X0367419Y0117361D01*
X0367417Y0117386D01*
X0317956Y0137708D02*
X0317956Y0138508D01*
X0317734Y0138508D02*
X0318178Y0138508D01*
X0317482Y0138508D02*
X0317482Y0137931D01*
X0317480Y0137902D01*
X0317474Y0137874D01*
X0317465Y0137846D01*
X0317452Y0137820D01*
X0317436Y0137796D01*
X0317417Y0137774D01*
X0317395Y0137755D01*
X0317371Y0137739D01*
X0317345Y0137726D01*
X0317317Y0137717D01*
X0317289Y0137711D01*
X0317260Y0137709D01*
X0317231Y0137711D01*
X0317203Y0137717D01*
X0317175Y0137726D01*
X0317149Y0137739D01*
X0317125Y0137755D01*
X0317103Y0137774D01*
X0317084Y0137796D01*
X0317068Y0137820D01*
X0317055Y0137846D01*
X0317046Y0137874D01*
X0317040Y0137902D01*
X0317038Y0137931D01*
X0317038Y0138508D01*
X0316738Y0138286D02*
X0316738Y0137931D01*
X0316736Y0137902D01*
X0316730Y0137874D01*
X0316721Y0137846D01*
X0316708Y0137820D01*
X0316692Y0137796D01*
X0316673Y0137774D01*
X0316651Y0137755D01*
X0316627Y0137739D01*
X0316601Y0137726D01*
X0316573Y0137717D01*
X0316545Y0137711D01*
X0316516Y0137709D01*
X0316487Y0137711D01*
X0316459Y0137717D01*
X0316431Y0137726D01*
X0316405Y0137739D01*
X0316381Y0137755D01*
X0316359Y0137774D01*
X0316340Y0137796D01*
X0316324Y0137820D01*
X0316311Y0137846D01*
X0316302Y0137874D01*
X0316296Y0137902D01*
X0316294Y0137931D01*
X0316294Y0138286D01*
X0316296Y0138315D01*
X0316302Y0138343D01*
X0316311Y0138371D01*
X0316324Y0138397D01*
X0316340Y0138421D01*
X0316359Y0138443D01*
X0316381Y0138462D01*
X0316405Y0138478D01*
X0316431Y0138491D01*
X0316459Y0138500D01*
X0316487Y0138506D01*
X0316516Y0138508D01*
X0316545Y0138506D01*
X0316573Y0138500D01*
X0316601Y0138491D01*
X0316627Y0138478D01*
X0316651Y0138462D01*
X0316673Y0138443D01*
X0316692Y0138421D01*
X0316708Y0138397D01*
X0316721Y0138371D01*
X0316730Y0138343D01*
X0316736Y0138315D01*
X0316738Y0138286D01*
X0315682Y0138508D02*
X0315238Y0138508D01*
X0315460Y0138508D02*
X0315460Y0137708D01*
X0314986Y0137931D02*
X0314986Y0138508D01*
X0314542Y0138508D02*
X0314542Y0137931D01*
X0314544Y0137902D01*
X0314550Y0137874D01*
X0314559Y0137846D01*
X0314572Y0137820D01*
X0314588Y0137796D01*
X0314607Y0137774D01*
X0314629Y0137755D01*
X0314653Y0137739D01*
X0314679Y0137726D01*
X0314707Y0137717D01*
X0314735Y0137711D01*
X0314764Y0137709D01*
X0314793Y0137711D01*
X0314821Y0137717D01*
X0314849Y0137726D01*
X0314875Y0137739D01*
X0314899Y0137755D01*
X0314921Y0137774D01*
X0314940Y0137796D01*
X0314956Y0137820D01*
X0314969Y0137846D01*
X0314978Y0137874D01*
X0314984Y0137902D01*
X0314986Y0137931D01*
X0314272Y0137708D02*
X0314095Y0137708D01*
X0314070Y0137710D01*
X0314045Y0137715D01*
X0314021Y0137724D01*
X0313999Y0137736D01*
X0313978Y0137751D01*
X0313960Y0137769D01*
X0313945Y0137790D01*
X0313933Y0137812D01*
X0313924Y0137836D01*
X0313919Y0137861D01*
X0313917Y0137886D01*
X0313917Y0138331D01*
X0313919Y0138356D01*
X0313924Y0138381D01*
X0313933Y0138405D01*
X0313945Y0138427D01*
X0313960Y0138448D01*
X0313978Y0138466D01*
X0313999Y0138481D01*
X0314021Y0138493D01*
X0314045Y0138502D01*
X0314070Y0138507D01*
X0314095Y0138509D01*
X0314095Y0138508D02*
X0314272Y0138508D01*
X0280678Y0139008D02*
X0280234Y0139008D01*
X0280456Y0139008D02*
X0280456Y0138208D01*
X0279982Y0138431D02*
X0279982Y0139008D01*
X0279538Y0139008D02*
X0279538Y0138431D01*
X0279540Y0138402D01*
X0279546Y0138374D01*
X0279555Y0138346D01*
X0279568Y0138320D01*
X0279584Y0138296D01*
X0279603Y0138274D01*
X0279625Y0138255D01*
X0279649Y0138239D01*
X0279675Y0138226D01*
X0279703Y0138217D01*
X0279731Y0138211D01*
X0279760Y0138209D01*
X0279789Y0138211D01*
X0279817Y0138217D01*
X0279845Y0138226D01*
X0279871Y0138239D01*
X0279895Y0138255D01*
X0279917Y0138274D01*
X0279936Y0138296D01*
X0279952Y0138320D01*
X0279965Y0138346D01*
X0279974Y0138374D01*
X0279980Y0138402D01*
X0279982Y0138431D01*
X0279238Y0138431D02*
X0279238Y0138786D01*
X0279236Y0138815D01*
X0279230Y0138843D01*
X0279221Y0138871D01*
X0279208Y0138897D01*
X0279192Y0138921D01*
X0279173Y0138943D01*
X0279151Y0138962D01*
X0279127Y0138978D01*
X0279101Y0138991D01*
X0279073Y0139000D01*
X0279045Y0139006D01*
X0279016Y0139008D01*
X0278987Y0139006D01*
X0278959Y0139000D01*
X0278931Y0138991D01*
X0278905Y0138978D01*
X0278881Y0138962D01*
X0278859Y0138943D01*
X0278840Y0138921D01*
X0278824Y0138897D01*
X0278811Y0138871D01*
X0278802Y0138843D01*
X0278796Y0138815D01*
X0278794Y0138786D01*
X0278794Y0138431D01*
X0278796Y0138402D01*
X0278802Y0138374D01*
X0278811Y0138346D01*
X0278824Y0138320D01*
X0278840Y0138296D01*
X0278859Y0138274D01*
X0278881Y0138255D01*
X0278905Y0138239D01*
X0278931Y0138226D01*
X0278959Y0138217D01*
X0278987Y0138211D01*
X0279016Y0138209D01*
X0279045Y0138211D01*
X0279073Y0138217D01*
X0279101Y0138226D01*
X0279127Y0138239D01*
X0279151Y0138255D01*
X0279173Y0138274D01*
X0279192Y0138296D01*
X0279208Y0138320D01*
X0279221Y0138346D01*
X0279230Y0138374D01*
X0279236Y0138402D01*
X0279238Y0138431D01*
X0278182Y0139008D02*
X0277738Y0139008D01*
X0277960Y0139008D02*
X0277960Y0138208D01*
X0277486Y0138431D02*
X0277486Y0139008D01*
X0277042Y0139008D02*
X0277042Y0138431D01*
X0277044Y0138402D01*
X0277050Y0138374D01*
X0277059Y0138346D01*
X0277072Y0138320D01*
X0277088Y0138296D01*
X0277107Y0138274D01*
X0277129Y0138255D01*
X0277153Y0138239D01*
X0277179Y0138226D01*
X0277207Y0138217D01*
X0277235Y0138211D01*
X0277264Y0138209D01*
X0277293Y0138211D01*
X0277321Y0138217D01*
X0277349Y0138226D01*
X0277375Y0138239D01*
X0277399Y0138255D01*
X0277421Y0138274D01*
X0277440Y0138296D01*
X0277456Y0138320D01*
X0277469Y0138346D01*
X0277478Y0138374D01*
X0277484Y0138402D01*
X0277486Y0138431D01*
X0276772Y0138208D02*
X0276595Y0138208D01*
X0276570Y0138210D01*
X0276545Y0138215D01*
X0276521Y0138224D01*
X0276499Y0138236D01*
X0276478Y0138251D01*
X0276460Y0138269D01*
X0276445Y0138290D01*
X0276433Y0138312D01*
X0276424Y0138336D01*
X0276419Y0138361D01*
X0276417Y0138386D01*
X0276417Y0138831D01*
X0276419Y0138856D01*
X0276424Y0138881D01*
X0276433Y0138905D01*
X0276445Y0138927D01*
X0276460Y0138948D01*
X0276478Y0138966D01*
X0276499Y0138981D01*
X0276521Y0138993D01*
X0276545Y0139002D01*
X0276570Y0139007D01*
X0276595Y0139009D01*
X0276595Y0139008D02*
X0276772Y0139008D01*
X0265678Y0139008D02*
X0265234Y0139008D01*
X0265456Y0139008D02*
X0265456Y0138208D01*
X0264982Y0138431D02*
X0264982Y0139008D01*
X0264538Y0139008D02*
X0264538Y0138431D01*
X0264540Y0138402D01*
X0264546Y0138374D01*
X0264555Y0138346D01*
X0264568Y0138320D01*
X0264584Y0138296D01*
X0264603Y0138274D01*
X0264625Y0138255D01*
X0264649Y0138239D01*
X0264675Y0138226D01*
X0264703Y0138217D01*
X0264731Y0138211D01*
X0264760Y0138209D01*
X0264789Y0138211D01*
X0264817Y0138217D01*
X0264845Y0138226D01*
X0264871Y0138239D01*
X0264895Y0138255D01*
X0264917Y0138274D01*
X0264936Y0138296D01*
X0264952Y0138320D01*
X0264965Y0138346D01*
X0264974Y0138374D01*
X0264980Y0138402D01*
X0264982Y0138431D01*
X0264238Y0138431D02*
X0264238Y0138786D01*
X0264236Y0138815D01*
X0264230Y0138843D01*
X0264221Y0138871D01*
X0264208Y0138897D01*
X0264192Y0138921D01*
X0264173Y0138943D01*
X0264151Y0138962D01*
X0264127Y0138978D01*
X0264101Y0138991D01*
X0264073Y0139000D01*
X0264045Y0139006D01*
X0264016Y0139008D01*
X0263987Y0139006D01*
X0263959Y0139000D01*
X0263931Y0138991D01*
X0263905Y0138978D01*
X0263881Y0138962D01*
X0263859Y0138943D01*
X0263840Y0138921D01*
X0263824Y0138897D01*
X0263811Y0138871D01*
X0263802Y0138843D01*
X0263796Y0138815D01*
X0263794Y0138786D01*
X0263794Y0138431D01*
X0263796Y0138402D01*
X0263802Y0138374D01*
X0263811Y0138346D01*
X0263824Y0138320D01*
X0263840Y0138296D01*
X0263859Y0138274D01*
X0263881Y0138255D01*
X0263905Y0138239D01*
X0263931Y0138226D01*
X0263959Y0138217D01*
X0263987Y0138211D01*
X0264016Y0138209D01*
X0264045Y0138211D01*
X0264073Y0138217D01*
X0264101Y0138226D01*
X0264127Y0138239D01*
X0264151Y0138255D01*
X0264173Y0138274D01*
X0264192Y0138296D01*
X0264208Y0138320D01*
X0264221Y0138346D01*
X0264230Y0138374D01*
X0264236Y0138402D01*
X0264238Y0138431D01*
X0263182Y0139008D02*
X0262738Y0139008D01*
X0262960Y0139008D02*
X0262960Y0138208D01*
X0262486Y0138431D02*
X0262486Y0139008D01*
X0262042Y0139008D02*
X0262042Y0138431D01*
X0262044Y0138402D01*
X0262050Y0138374D01*
X0262059Y0138346D01*
X0262072Y0138320D01*
X0262088Y0138296D01*
X0262107Y0138274D01*
X0262129Y0138255D01*
X0262153Y0138239D01*
X0262179Y0138226D01*
X0262207Y0138217D01*
X0262235Y0138211D01*
X0262264Y0138209D01*
X0262293Y0138211D01*
X0262321Y0138217D01*
X0262349Y0138226D01*
X0262375Y0138239D01*
X0262399Y0138255D01*
X0262421Y0138274D01*
X0262440Y0138296D01*
X0262456Y0138320D01*
X0262469Y0138346D01*
X0262478Y0138374D01*
X0262484Y0138402D01*
X0262486Y0138431D01*
X0261772Y0138208D02*
X0261595Y0138208D01*
X0261570Y0138210D01*
X0261545Y0138215D01*
X0261521Y0138224D01*
X0261499Y0138236D01*
X0261478Y0138251D01*
X0261460Y0138269D01*
X0261445Y0138290D01*
X0261433Y0138312D01*
X0261424Y0138336D01*
X0261419Y0138361D01*
X0261417Y0138386D01*
X0261417Y0138831D01*
X0261419Y0138856D01*
X0261424Y0138881D01*
X0261433Y0138905D01*
X0261445Y0138927D01*
X0261460Y0138948D01*
X0261478Y0138966D01*
X0261499Y0138981D01*
X0261521Y0138993D01*
X0261545Y0139002D01*
X0261570Y0139007D01*
X0261595Y0139009D01*
X0261595Y0139008D02*
X0261772Y0139008D01*
D14*
X0231117Y0141967D02*
X0230033Y0137633D01*
X0228950Y0140522D01*
X0227867Y0137633D01*
X0226783Y0141967D01*
X0224082Y0141967D02*
X0222999Y0137633D01*
X0221916Y0140522D01*
X0220832Y0137633D01*
X0219749Y0141967D01*
X0217048Y0141967D02*
X0215965Y0137633D01*
X0214881Y0140522D01*
X0213798Y0137633D01*
X0212715Y0141967D01*
X0207313Y0140522D02*
X0207313Y0139078D01*
X0207311Y0139002D01*
X0207305Y0138927D01*
X0207295Y0138852D01*
X0207281Y0138778D01*
X0207264Y0138704D01*
X0207242Y0138632D01*
X0207217Y0138561D01*
X0207188Y0138491D01*
X0207156Y0138422D01*
X0207120Y0138356D01*
X0207080Y0138292D01*
X0207037Y0138229D01*
X0206991Y0138169D01*
X0206942Y0138112D01*
X0206890Y0138057D01*
X0206835Y0138005D01*
X0206778Y0137956D01*
X0206718Y0137910D01*
X0206655Y0137867D01*
X0206591Y0137827D01*
X0206525Y0137791D01*
X0206456Y0137759D01*
X0206386Y0137730D01*
X0206315Y0137705D01*
X0206243Y0137683D01*
X0206169Y0137666D01*
X0206095Y0137652D01*
X0206020Y0137642D01*
X0205945Y0137636D01*
X0205869Y0137634D01*
X0205793Y0137636D01*
X0205718Y0137642D01*
X0205643Y0137652D01*
X0205569Y0137666D01*
X0205495Y0137683D01*
X0205423Y0137705D01*
X0205352Y0137730D01*
X0205282Y0137759D01*
X0205213Y0137791D01*
X0205147Y0137827D01*
X0205083Y0137867D01*
X0205020Y0137910D01*
X0204960Y0137956D01*
X0204903Y0138005D01*
X0204848Y0138057D01*
X0204796Y0138112D01*
X0204747Y0138169D01*
X0204701Y0138229D01*
X0204658Y0138292D01*
X0204618Y0138356D01*
X0204582Y0138422D01*
X0204550Y0138491D01*
X0204521Y0138561D01*
X0204496Y0138632D01*
X0204474Y0138704D01*
X0204457Y0138778D01*
X0204443Y0138852D01*
X0204433Y0138927D01*
X0204427Y0139002D01*
X0204425Y0139078D01*
X0204424Y0139078D02*
X0204424Y0140522D01*
X0204425Y0140522D02*
X0204427Y0140598D01*
X0204433Y0140673D01*
X0204443Y0140748D01*
X0204457Y0140822D01*
X0204474Y0140896D01*
X0204496Y0140968D01*
X0204521Y0141039D01*
X0204550Y0141109D01*
X0204582Y0141178D01*
X0204618Y0141244D01*
X0204658Y0141308D01*
X0204701Y0141371D01*
X0204747Y0141431D01*
X0204796Y0141488D01*
X0204848Y0141543D01*
X0204903Y0141595D01*
X0204960Y0141644D01*
X0205020Y0141690D01*
X0205083Y0141733D01*
X0205147Y0141773D01*
X0205213Y0141809D01*
X0205282Y0141841D01*
X0205352Y0141870D01*
X0205423Y0141895D01*
X0205495Y0141917D01*
X0205569Y0141934D01*
X0205643Y0141948D01*
X0205718Y0141958D01*
X0205793Y0141964D01*
X0205869Y0141966D01*
X0205945Y0141964D01*
X0206020Y0141958D01*
X0206095Y0141948D01*
X0206169Y0141934D01*
X0206243Y0141917D01*
X0206315Y0141895D01*
X0206386Y0141870D01*
X0206456Y0141841D01*
X0206525Y0141809D01*
X0206591Y0141773D01*
X0206655Y0141733D01*
X0206718Y0141690D01*
X0206778Y0141644D01*
X0206835Y0141595D01*
X0206890Y0141543D01*
X0206942Y0141488D01*
X0206991Y0141431D01*
X0207037Y0141371D01*
X0207080Y0141308D01*
X0207120Y0141244D01*
X0207156Y0141178D01*
X0207188Y0141109D01*
X0207217Y0141039D01*
X0207242Y0140968D01*
X0207264Y0140896D01*
X0207281Y0140822D01*
X0207295Y0140748D01*
X0207305Y0140673D01*
X0207311Y0140598D01*
X0207313Y0140522D01*
X0209865Y0137994D02*
X0209865Y0137633D01*
X0210226Y0137633D01*
X0210226Y0137994D01*
X0209865Y0137994D01*
X0201336Y0137633D02*
X0199531Y0137633D01*
X0199531Y0137634D02*
X0199468Y0137636D01*
X0199405Y0137641D01*
X0199343Y0137650D01*
X0199281Y0137663D01*
X0199220Y0137679D01*
X0199161Y0137699D01*
X0199102Y0137723D01*
X0199045Y0137749D01*
X0198990Y0137779D01*
X0198936Y0137812D01*
X0198884Y0137848D01*
X0198835Y0137887D01*
X0198788Y0137929D01*
X0198743Y0137974D01*
X0198701Y0138021D01*
X0198662Y0138070D01*
X0198626Y0138122D01*
X0198593Y0138176D01*
X0198563Y0138231D01*
X0198537Y0138288D01*
X0198513Y0138347D01*
X0198493Y0138406D01*
X0198477Y0138467D01*
X0198464Y0138529D01*
X0198455Y0138591D01*
X0198450Y0138654D01*
X0198448Y0138717D01*
X0198447Y0138717D02*
X0198447Y0140883D01*
X0198448Y0140883D02*
X0198450Y0140948D01*
X0198456Y0141014D01*
X0198466Y0141078D01*
X0198479Y0141142D01*
X0198497Y0141205D01*
X0198518Y0141267D01*
X0198543Y0141327D01*
X0198572Y0141386D01*
X0198604Y0141443D01*
X0198640Y0141498D01*
X0198678Y0141551D01*
X0198720Y0141601D01*
X0198765Y0141649D01*
X0198813Y0141694D01*
X0198863Y0141736D01*
X0198916Y0141774D01*
X0198971Y0141810D01*
X0199028Y0141842D01*
X0199087Y0141871D01*
X0199147Y0141896D01*
X0199209Y0141917D01*
X0199272Y0141935D01*
X0199336Y0141948D01*
X0199400Y0141958D01*
X0199466Y0141964D01*
X0199531Y0141966D01*
X0199531Y0141967D02*
X0201336Y0141967D01*
X0201336Y0135467D01*
X0195663Y0138717D02*
X0195663Y0140522D01*
X0195663Y0139800D02*
X0192774Y0139800D01*
X0192774Y0140522D01*
X0192776Y0140598D01*
X0192782Y0140673D01*
X0192792Y0140748D01*
X0192806Y0140822D01*
X0192823Y0140896D01*
X0192845Y0140968D01*
X0192870Y0141039D01*
X0192899Y0141109D01*
X0192931Y0141178D01*
X0192967Y0141244D01*
X0193007Y0141308D01*
X0193050Y0141371D01*
X0193096Y0141431D01*
X0193145Y0141488D01*
X0193197Y0141543D01*
X0193252Y0141595D01*
X0193309Y0141644D01*
X0193369Y0141690D01*
X0193432Y0141733D01*
X0193496Y0141773D01*
X0193562Y0141809D01*
X0193631Y0141841D01*
X0193701Y0141870D01*
X0193772Y0141895D01*
X0193844Y0141917D01*
X0193918Y0141934D01*
X0193992Y0141948D01*
X0194067Y0141958D01*
X0194142Y0141964D01*
X0194218Y0141966D01*
X0194294Y0141964D01*
X0194369Y0141958D01*
X0194444Y0141948D01*
X0194518Y0141934D01*
X0194592Y0141917D01*
X0194664Y0141895D01*
X0194735Y0141870D01*
X0194805Y0141841D01*
X0194874Y0141809D01*
X0194940Y0141773D01*
X0195004Y0141733D01*
X0195067Y0141690D01*
X0195127Y0141644D01*
X0195184Y0141595D01*
X0195239Y0141543D01*
X0195291Y0141488D01*
X0195340Y0141431D01*
X0195386Y0141371D01*
X0195429Y0141308D01*
X0195469Y0141244D01*
X0195505Y0141178D01*
X0195537Y0141109D01*
X0195566Y0141039D01*
X0195591Y0140968D01*
X0195613Y0140896D01*
X0195630Y0140822D01*
X0195644Y0140748D01*
X0195654Y0140673D01*
X0195660Y0140598D01*
X0195662Y0140522D01*
X0195662Y0138717D02*
X0195660Y0138654D01*
X0195655Y0138591D01*
X0195646Y0138529D01*
X0195633Y0138467D01*
X0195617Y0138406D01*
X0195597Y0138347D01*
X0195573Y0138288D01*
X0195547Y0138231D01*
X0195517Y0138176D01*
X0195484Y0138122D01*
X0195448Y0138070D01*
X0195409Y0138021D01*
X0195367Y0137974D01*
X0195322Y0137929D01*
X0195275Y0137887D01*
X0195226Y0137848D01*
X0195174Y0137812D01*
X0195121Y0137779D01*
X0195065Y0137749D01*
X0195008Y0137723D01*
X0194949Y0137699D01*
X0194890Y0137679D01*
X0194829Y0137663D01*
X0194767Y0137650D01*
X0194705Y0137641D01*
X0194642Y0137636D01*
X0194579Y0137634D01*
X0194579Y0137633D02*
X0192774Y0137633D01*
X0189727Y0137633D02*
X0189727Y0141967D01*
X0187922Y0141967D01*
X0187922Y0141966D02*
X0187857Y0141964D01*
X0187791Y0141958D01*
X0187727Y0141948D01*
X0187663Y0141935D01*
X0187600Y0141917D01*
X0187538Y0141896D01*
X0187478Y0141871D01*
X0187419Y0141842D01*
X0187362Y0141810D01*
X0187307Y0141774D01*
X0187254Y0141736D01*
X0187204Y0141694D01*
X0187156Y0141649D01*
X0187111Y0141601D01*
X0187069Y0141551D01*
X0187031Y0141498D01*
X0186995Y0141443D01*
X0186963Y0141386D01*
X0186934Y0141327D01*
X0186909Y0141267D01*
X0186888Y0141205D01*
X0186870Y0141142D01*
X0186857Y0141078D01*
X0186847Y0141014D01*
X0186841Y0140948D01*
X0186839Y0140883D01*
X0186839Y0137633D01*
X0181044Y0140342D02*
X0180980Y0140302D01*
X0180917Y0140258D01*
X0180857Y0140211D01*
X0180800Y0140161D01*
X0180745Y0140108D01*
X0180693Y0140053D01*
X0180644Y0139995D01*
X0180598Y0139934D01*
X0180555Y0139871D01*
X0180515Y0139806D01*
X0180479Y0139739D01*
X0180447Y0139670D01*
X0180418Y0139599D01*
X0180393Y0139528D01*
X0180371Y0139455D01*
X0180354Y0139380D01*
X0180340Y0139306D01*
X0180330Y0139230D01*
X0180324Y0139154D01*
X0180322Y0139078D01*
X0180323Y0139078D02*
X0180325Y0139005D01*
X0180330Y0138932D01*
X0180340Y0138859D01*
X0180353Y0138787D01*
X0180369Y0138716D01*
X0180389Y0138646D01*
X0180413Y0138576D01*
X0180440Y0138509D01*
X0180471Y0138442D01*
X0180504Y0138377D01*
X0180542Y0138314D01*
X0180582Y0138253D01*
X0180625Y0138194D01*
X0180671Y0138137D01*
X0180720Y0138083D01*
X0180772Y0138031D01*
X0180826Y0137982D01*
X0180883Y0137936D01*
X0180942Y0137893D01*
X0181003Y0137853D01*
X0181066Y0137815D01*
X0181131Y0137782D01*
X0181198Y0137751D01*
X0181266Y0137724D01*
X0181335Y0137700D01*
X0181405Y0137680D01*
X0181476Y0137664D01*
X0181548Y0137651D01*
X0181621Y0137641D01*
X0181694Y0137636D01*
X0181767Y0137634D01*
X0181045Y0140342D02*
X0183031Y0141425D01*
X0182309Y0144133D02*
X0182207Y0144131D01*
X0182104Y0144125D01*
X0182002Y0144116D01*
X0181901Y0144102D01*
X0181800Y0144085D01*
X0181699Y0144063D01*
X0181600Y0144038D01*
X0181501Y0144010D01*
X0181404Y0143977D01*
X0181308Y0143941D01*
X0181214Y0143902D01*
X0181121Y0143858D01*
X0181030Y0143812D01*
X0180940Y0143762D01*
X0180853Y0143708D01*
X0180767Y0143651D01*
X0180684Y0143591D01*
X0183031Y0141425D02*
X0183095Y0141465D01*
X0183158Y0141509D01*
X0183218Y0141556D01*
X0183275Y0141606D01*
X0183330Y0141659D01*
X0183382Y0141714D01*
X0183431Y0141772D01*
X0183477Y0141833D01*
X0183520Y0141896D01*
X0183560Y0141961D01*
X0183596Y0142028D01*
X0183628Y0142097D01*
X0183657Y0142168D01*
X0183682Y0142239D01*
X0183704Y0142312D01*
X0183721Y0142387D01*
X0183735Y0142461D01*
X0183745Y0142537D01*
X0183751Y0142613D01*
X0183753Y0142689D01*
X0183751Y0142765D01*
X0183745Y0142840D01*
X0183735Y0142915D01*
X0183721Y0142989D01*
X0183704Y0143063D01*
X0183682Y0143135D01*
X0183657Y0143206D01*
X0183628Y0143276D01*
X0183596Y0143345D01*
X0183560Y0143411D01*
X0183520Y0143475D01*
X0183477Y0143538D01*
X0183431Y0143598D01*
X0183382Y0143655D01*
X0183330Y0143710D01*
X0183275Y0143762D01*
X0183218Y0143811D01*
X0183158Y0143857D01*
X0183095Y0143900D01*
X0183031Y0143940D01*
X0182965Y0143976D01*
X0182896Y0144008D01*
X0182826Y0144037D01*
X0182755Y0144062D01*
X0182683Y0144084D01*
X0182609Y0144101D01*
X0182535Y0144115D01*
X0182460Y0144125D01*
X0182385Y0144131D01*
X0182309Y0144133D01*
X0177920Y0144133D02*
X0173586Y0137633D01*
X0177920Y0137633D02*
X0173586Y0144133D01*
X0170964Y0144133D02*
X0167353Y0144133D01*
X0169158Y0137633D01*
X0164008Y0139078D02*
X0161119Y0142689D01*
X0161300Y0143230D02*
X0161325Y0143298D01*
X0161354Y0143364D01*
X0161387Y0143428D01*
X0161422Y0143491D01*
X0161461Y0143551D01*
X0161504Y0143610D01*
X0161549Y0143666D01*
X0161597Y0143719D01*
X0161648Y0143770D01*
X0161702Y0143818D01*
X0161758Y0143863D01*
X0161817Y0143905D01*
X0161878Y0143943D01*
X0161941Y0143979D01*
X0162005Y0144011D01*
X0162072Y0144039D01*
X0162139Y0144064D01*
X0162208Y0144085D01*
X0162278Y0144102D01*
X0162349Y0144116D01*
X0162420Y0144125D01*
X0162492Y0144131D01*
X0162564Y0144133D01*
X0162636Y0144131D01*
X0162708Y0144125D01*
X0162779Y0144116D01*
X0162850Y0144102D01*
X0162920Y0144085D01*
X0162989Y0144064D01*
X0163057Y0144039D01*
X0163123Y0144011D01*
X0163187Y0143979D01*
X0163250Y0143943D01*
X0163311Y0143905D01*
X0163370Y0143863D01*
X0163426Y0143818D01*
X0163480Y0143770D01*
X0163531Y0143719D01*
X0163579Y0143666D01*
X0163624Y0143610D01*
X0163667Y0143551D01*
X0163706Y0143491D01*
X0163741Y0143428D01*
X0163774Y0143364D01*
X0163803Y0143298D01*
X0163828Y0143230D01*
X0161301Y0143230D02*
X0161240Y0143101D01*
X0161182Y0142970D01*
X0161128Y0142838D01*
X0161078Y0142704D01*
X0161031Y0142569D01*
X0160988Y0142433D01*
X0160949Y0142295D01*
X0160913Y0142157D01*
X0160881Y0142018D01*
X0160852Y0141878D01*
X0160827Y0141737D01*
X0160807Y0141595D01*
X0160789Y0141454D01*
X0160776Y0141311D01*
X0160767Y0141169D01*
X0160761Y0141026D01*
X0160759Y0140883D01*
X0164370Y0140883D02*
X0164368Y0141026D01*
X0164362Y0141169D01*
X0164353Y0141311D01*
X0164340Y0141454D01*
X0164322Y0141596D01*
X0164301Y0141737D01*
X0164277Y0141878D01*
X0164248Y0142018D01*
X0164216Y0142157D01*
X0164180Y0142295D01*
X0164141Y0142433D01*
X0164098Y0142569D01*
X0164051Y0142704D01*
X0164001Y0142838D01*
X0163947Y0142970D01*
X0163889Y0143101D01*
X0163828Y0143230D01*
X0160758Y0140883D02*
X0160760Y0140740D01*
X0160766Y0140597D01*
X0160775Y0140455D01*
X0160788Y0140312D01*
X0160806Y0140170D01*
X0160827Y0140029D01*
X0160851Y0139888D01*
X0160880Y0139748D01*
X0160912Y0139609D01*
X0160948Y0139471D01*
X0160987Y0139333D01*
X0161030Y0139197D01*
X0161077Y0139062D01*
X0161127Y0138928D01*
X0161181Y0138796D01*
X0161239Y0138665D01*
X0161300Y0138536D01*
X0162564Y0137633D02*
X0162636Y0137635D01*
X0162708Y0137641D01*
X0162779Y0137650D01*
X0162850Y0137664D01*
X0162920Y0137681D01*
X0162989Y0137702D01*
X0163057Y0137727D01*
X0163123Y0137755D01*
X0163187Y0137787D01*
X0163250Y0137823D01*
X0163311Y0137861D01*
X0163370Y0137903D01*
X0163426Y0137948D01*
X0163480Y0137996D01*
X0163531Y0138047D01*
X0163579Y0138100D01*
X0163624Y0138156D01*
X0163667Y0138215D01*
X0163706Y0138275D01*
X0163741Y0138338D01*
X0163774Y0138402D01*
X0163803Y0138468D01*
X0163828Y0138536D01*
X0162564Y0137633D02*
X0162492Y0137635D01*
X0162420Y0137641D01*
X0162349Y0137650D01*
X0162278Y0137664D01*
X0162208Y0137681D01*
X0162139Y0137702D01*
X0162072Y0137727D01*
X0162005Y0137755D01*
X0161941Y0137787D01*
X0161878Y0137823D01*
X0161817Y0137861D01*
X0161758Y0137903D01*
X0161702Y0137948D01*
X0161648Y0137996D01*
X0161597Y0138047D01*
X0161549Y0138100D01*
X0161504Y0138156D01*
X0161461Y0138215D01*
X0161422Y0138275D01*
X0161387Y0138338D01*
X0161354Y0138402D01*
X0161325Y0138468D01*
X0161300Y0138536D01*
X0158128Y0137994D02*
X0157767Y0137994D01*
X0157767Y0137633D01*
X0158128Y0137633D01*
X0158128Y0137994D01*
X0155205Y0138717D02*
X0155205Y0140883D01*
X0155203Y0140946D01*
X0155198Y0141009D01*
X0155189Y0141071D01*
X0155176Y0141133D01*
X0155160Y0141194D01*
X0155140Y0141253D01*
X0155116Y0141312D01*
X0155090Y0141369D01*
X0155060Y0141425D01*
X0155027Y0141478D01*
X0154991Y0141530D01*
X0154952Y0141579D01*
X0154910Y0141626D01*
X0154865Y0141671D01*
X0154818Y0141713D01*
X0154769Y0141752D01*
X0154717Y0141788D01*
X0154664Y0141821D01*
X0154608Y0141851D01*
X0154551Y0141877D01*
X0154492Y0141901D01*
X0154433Y0141921D01*
X0154372Y0141937D01*
X0154310Y0141950D01*
X0154248Y0141959D01*
X0154185Y0141964D01*
X0154122Y0141966D01*
X0154122Y0141967D02*
X0152677Y0141967D01*
X0150159Y0140522D02*
X0150159Y0139078D01*
X0150157Y0139002D01*
X0150151Y0138927D01*
X0150141Y0138852D01*
X0150127Y0138778D01*
X0150110Y0138704D01*
X0150088Y0138632D01*
X0150063Y0138561D01*
X0150034Y0138491D01*
X0150002Y0138422D01*
X0149966Y0138356D01*
X0149926Y0138292D01*
X0149883Y0138229D01*
X0149837Y0138169D01*
X0149788Y0138112D01*
X0149736Y0138057D01*
X0149681Y0138005D01*
X0149624Y0137956D01*
X0149564Y0137910D01*
X0149501Y0137867D01*
X0149437Y0137827D01*
X0149371Y0137791D01*
X0149302Y0137759D01*
X0149232Y0137730D01*
X0149161Y0137705D01*
X0149089Y0137683D01*
X0149015Y0137666D01*
X0148941Y0137652D01*
X0148866Y0137642D01*
X0148791Y0137636D01*
X0148715Y0137634D01*
X0148639Y0137636D01*
X0148564Y0137642D01*
X0148489Y0137652D01*
X0148415Y0137666D01*
X0148341Y0137683D01*
X0148269Y0137705D01*
X0148198Y0137730D01*
X0148128Y0137759D01*
X0148059Y0137791D01*
X0147993Y0137827D01*
X0147929Y0137867D01*
X0147866Y0137910D01*
X0147806Y0137956D01*
X0147749Y0138005D01*
X0147694Y0138057D01*
X0147642Y0138112D01*
X0147593Y0138169D01*
X0147547Y0138229D01*
X0147504Y0138292D01*
X0147464Y0138356D01*
X0147428Y0138422D01*
X0147396Y0138491D01*
X0147367Y0138561D01*
X0147342Y0138632D01*
X0147320Y0138704D01*
X0147303Y0138778D01*
X0147289Y0138852D01*
X0147279Y0138927D01*
X0147273Y0139002D01*
X0147271Y0139078D01*
X0147271Y0140522D01*
X0147273Y0140598D01*
X0147279Y0140673D01*
X0147289Y0140748D01*
X0147303Y0140822D01*
X0147320Y0140896D01*
X0147342Y0140968D01*
X0147367Y0141039D01*
X0147396Y0141109D01*
X0147428Y0141178D01*
X0147464Y0141244D01*
X0147504Y0141308D01*
X0147547Y0141371D01*
X0147593Y0141431D01*
X0147642Y0141488D01*
X0147694Y0141543D01*
X0147749Y0141595D01*
X0147806Y0141644D01*
X0147866Y0141690D01*
X0147929Y0141733D01*
X0147993Y0141773D01*
X0148059Y0141809D01*
X0148128Y0141841D01*
X0148198Y0141870D01*
X0148269Y0141895D01*
X0148341Y0141917D01*
X0148415Y0141934D01*
X0148489Y0141948D01*
X0148564Y0141958D01*
X0148639Y0141964D01*
X0148715Y0141966D01*
X0148791Y0141964D01*
X0148866Y0141958D01*
X0148941Y0141948D01*
X0149015Y0141934D01*
X0149089Y0141917D01*
X0149161Y0141895D01*
X0149232Y0141870D01*
X0149302Y0141841D01*
X0149371Y0141809D01*
X0149437Y0141773D01*
X0149501Y0141733D01*
X0149564Y0141690D01*
X0149624Y0141644D01*
X0149681Y0141595D01*
X0149736Y0141543D01*
X0149788Y0141488D01*
X0149837Y0141431D01*
X0149883Y0141371D01*
X0149926Y0141308D01*
X0149966Y0141244D01*
X0150002Y0141178D01*
X0150034Y0141109D01*
X0150063Y0141039D01*
X0150088Y0140968D01*
X0150110Y0140896D01*
X0150127Y0140822D01*
X0150141Y0140748D01*
X0150151Y0140673D01*
X0150157Y0140598D01*
X0150159Y0140522D01*
X0152677Y0137633D02*
X0154122Y0137633D01*
X0154122Y0137634D02*
X0154185Y0137636D01*
X0154248Y0137641D01*
X0154310Y0137650D01*
X0154372Y0137663D01*
X0154433Y0137679D01*
X0154492Y0137699D01*
X0154551Y0137723D01*
X0154608Y0137749D01*
X0154664Y0137779D01*
X0154717Y0137812D01*
X0154769Y0137848D01*
X0154818Y0137887D01*
X0154865Y0137929D01*
X0154910Y0137974D01*
X0154952Y0138021D01*
X0154991Y0138070D01*
X0155027Y0138122D01*
X0155060Y0138176D01*
X0155090Y0138231D01*
X0155116Y0138288D01*
X0155140Y0138347D01*
X0155160Y0138406D01*
X0155176Y0138467D01*
X0155189Y0138529D01*
X0155198Y0138591D01*
X0155203Y0138654D01*
X0155205Y0138717D01*
X0163828Y0138536D02*
X0163889Y0138665D01*
X0163947Y0138796D01*
X0164001Y0138928D01*
X0164051Y0139062D01*
X0164098Y0139197D01*
X0164141Y0139333D01*
X0164180Y0139471D01*
X0164216Y0139609D01*
X0164248Y0139748D01*
X0164277Y0139888D01*
X0164302Y0140029D01*
X0164322Y0140170D01*
X0164340Y0140312D01*
X0164353Y0140455D01*
X0164362Y0140597D01*
X0164368Y0140740D01*
X0164370Y0140883D01*
X0170964Y0143411D02*
X0170964Y0144133D01*
X0181767Y0137634D02*
X0181876Y0137636D01*
X0181986Y0137642D01*
X0182095Y0137652D01*
X0182204Y0137665D01*
X0182312Y0137683D01*
X0182419Y0137704D01*
X0182525Y0137730D01*
X0182631Y0137759D01*
X0182735Y0137792D01*
X0182839Y0137828D01*
X0182940Y0137869D01*
X0183041Y0137913D01*
X0183139Y0137960D01*
X0183236Y0138011D01*
X0183331Y0138066D01*
X0183424Y0138123D01*
X0183515Y0138184D01*
X0183604Y0138249D01*
X0183690Y0138316D01*
X0183774Y0138387D01*
X0183855Y0138460D01*
X0183933Y0138537D01*
X0144067Y0137633D02*
X0144067Y0141967D01*
X0140817Y0141967D01*
X0141901Y0141967D02*
X0141901Y0137633D01*
X0139734Y0137633D02*
X0139734Y0140883D01*
X0139736Y0140948D01*
X0139742Y0141014D01*
X0139752Y0141078D01*
X0139765Y0141142D01*
X0139783Y0141205D01*
X0139804Y0141267D01*
X0139829Y0141327D01*
X0139858Y0141386D01*
X0139890Y0141443D01*
X0139926Y0141498D01*
X0139964Y0141551D01*
X0140006Y0141601D01*
X0140051Y0141649D01*
X0140099Y0141694D01*
X0140149Y0141736D01*
X0140202Y0141774D01*
X0140257Y0141810D01*
X0140314Y0141842D01*
X0140373Y0141871D01*
X0140433Y0141896D01*
X0140495Y0141917D01*
X0140558Y0141935D01*
X0140622Y0141948D01*
X0140686Y0141958D01*
X0140752Y0141964D01*
X0140817Y0141966D01*
D15*
X0065102Y0122008D02*
X0065104Y0122035D01*
X0065110Y0122062D01*
X0065119Y0122088D01*
X0065132Y0122112D01*
X0065148Y0122135D01*
X0065167Y0122154D01*
X0065189Y0122171D01*
X0065213Y0122185D01*
X0065238Y0122195D01*
X0065265Y0122202D01*
X0065292Y0122205D01*
X0065320Y0122204D01*
X0065347Y0122199D01*
X0065373Y0122191D01*
X0065397Y0122179D01*
X0065420Y0122163D01*
X0065441Y0122145D01*
X0065458Y0122124D01*
X0065473Y0122100D01*
X0065484Y0122075D01*
X0065492Y0122049D01*
X0065496Y0122022D01*
X0065496Y0121994D01*
X0065492Y0121967D01*
X0065484Y0121941D01*
X0065473Y0121916D01*
X0065458Y0121892D01*
X0065441Y0121871D01*
X0065420Y0121853D01*
X0065398Y0121837D01*
X0065373Y0121825D01*
X0065347Y0121817D01*
X0065320Y0121812D01*
X0065292Y0121811D01*
X0065265Y0121814D01*
X0065238Y0121821D01*
X0065213Y0121831D01*
X0065189Y0121845D01*
X0065167Y0121862D01*
X0065148Y0121881D01*
X0065132Y0121904D01*
X0065119Y0121928D01*
X0065110Y0121954D01*
X0065104Y0121981D01*
X0065102Y0122008D01*
X0101108Y0062708D02*
X0101110Y0062755D01*
X0101116Y0062801D01*
X0101126Y0062847D01*
X0101139Y0062892D01*
X0101156Y0062935D01*
X0101177Y0062977D01*
X0101201Y0063017D01*
X0101229Y0063055D01*
X0101260Y0063091D01*
X0101293Y0063123D01*
X0101329Y0063153D01*
X0101367Y0063180D01*
X0101408Y0063203D01*
X0101450Y0063223D01*
X0101494Y0063240D01*
X0101539Y0063252D01*
X0101585Y0063261D01*
X0101632Y0063266D01*
X0101679Y0063267D01*
X0101725Y0063264D01*
X0101772Y0063257D01*
X0101817Y0063246D01*
X0101862Y0063232D01*
X0101905Y0063214D01*
X0101946Y0063192D01*
X0101986Y0063167D01*
X0102023Y0063139D01*
X0102058Y0063107D01*
X0102090Y0063073D01*
X0102119Y0063037D01*
X0102145Y0062998D01*
X0102168Y0062957D01*
X0102187Y0062914D01*
X0102202Y0062870D01*
X0102214Y0062824D01*
X0102222Y0062778D01*
X0102226Y0062731D01*
X0102226Y0062685D01*
X0102222Y0062638D01*
X0102214Y0062592D01*
X0102202Y0062546D01*
X0102187Y0062502D01*
X0102168Y0062459D01*
X0102145Y0062418D01*
X0102119Y0062379D01*
X0102090Y0062343D01*
X0102058Y0062309D01*
X0102023Y0062277D01*
X0101986Y0062249D01*
X0101947Y0062224D01*
X0101905Y0062202D01*
X0101862Y0062184D01*
X0101817Y0062170D01*
X0101772Y0062159D01*
X0101725Y0062152D01*
X0101679Y0062149D01*
X0101632Y0062150D01*
X0101585Y0062155D01*
X0101539Y0062164D01*
X0101494Y0062176D01*
X0101450Y0062193D01*
X0101408Y0062213D01*
X0101367Y0062236D01*
X0101329Y0062263D01*
X0101293Y0062293D01*
X0101260Y0062325D01*
X0101229Y0062361D01*
X0101201Y0062399D01*
X0101177Y0062439D01*
X0101156Y0062481D01*
X0101139Y0062524D01*
X0101126Y0062569D01*
X0101116Y0062615D01*
X0101110Y0062661D01*
X0101108Y0062708D01*
D16*
X0071165Y0124345D02*
X0068965Y0125078D01*
X0071165Y0125812D01*
X0070615Y0125628D02*
X0070615Y0124528D01*
X0067781Y0124345D02*
X0065581Y0125078D01*
X0067781Y0125812D01*
X0067231Y0125628D02*
X0067231Y0124528D01*
M02*
