%
M48
M72
T01C0.01378
T02C0.02500
%
T01
X37118Y56760
X69207Y53359
X78167Y42791
X110217Y54158
X127492Y52608
X156417Y59208
X142917Y68708
X98417Y86583
X113792Y95158
X79417Y105083
X74417Y101208
X63917Y96708
X65042Y105083
X75217Y116708
X84467Y122708
X103417Y130208
X111917Y124458
X121917Y124458
X137792Y129169
X125917Y114708
X243417Y90958
X252152Y93089
X255217Y99208
X263167Y98758
X271129Y99671
X290667Y105583
X287767Y108833
X282917Y112083
X282167Y115208
X292074Y116241
X296917Y115669
X311917Y123958
X324417Y130958
X350792Y112083
X360917Y107708
X346167Y106458
X342667Y98208
X331792Y100833
X326917Y100708
X323667Y104158
X319292Y106208
X315917Y109733
X311042Y106208
X307542Y105833
X303292Y100083
X307167Y95458
X315167Y94083
X314667Y77658
X338417Y77908
X357167Y78583
X366167Y94708
X363917Y100958
X347667Y130208
X343292Y137333
X290767Y124758
X241486Y132206
X230292Y133458
X238067Y142658
X261917Y129458
X244417Y125208
X246917Y115708
X257167Y116708
X288292Y139958
X275417Y86208
X264167Y85083
X255992Y85858
X257417Y79208
X252667Y75583
X242917Y79458
X273417Y71708
X277467Y75508
X266417Y64708
X280046Y60079
X287492Y52508
X300917Y54650
X253917Y58397
X211542Y64708
X70484Y73913
X30917Y92208
X26417Y75208
X13102Y106760
X22667Y114333
X36007Y124493
X42167Y112208
X50967Y135208
T02
X108167Y63958
X118167Y63958
X128167Y63958
X128167Y73958
X118167Y73958
X108167Y73958
M30
