%
M48
M72
T01C0.01378
%
T01
X57997Y65708
X77197Y61708
X94997Y64708
X106497Y54158
X131597Y60508
X103197Y77583
X91497Y77708
X64497Y82208
X60197Y96708
X70697Y101208
X75697Y105083
X61322Y105083
X71497Y116708
X81997Y127708
X108197Y124458
X118197Y124458
X134072Y129169
X240697Y78208
X248947Y75583
X253697Y79208
X260447Y85083
X252272Y85858
X271697Y86208
X273197Y80208
X282797Y76508
X256197Y68708
X276326Y60079
X283772Y52508
X303197Y54650
X332397Y78108
X315435Y83970
X309197Y86908
X305197Y92458
X315947Y98083
X325822Y95583
X319447Y93208
X336947Y96958
X319322Y104458
X313947Y110083
X308822Y105708
X303822Y104833
X299572Y100083
X288197Y105083
X284197Y108833
X276697Y112083
X273197Y115208
X285997Y120508
X288355Y116241
X293197Y115669
X298797Y120508
X310697Y122708
X318797Y122908
X347072Y112083
X342447Y106458
X358197Y108208
X360197Y100958
X363197Y95708
X353447Y78583
X356397Y74908
X267409Y99671
X262497Y103708
X259447Y98758
X251497Y99208
X255197Y115208
X243197Y115708
X240697Y125208
X230072Y132958
X218997Y127208
X234347Y142658
X284572Y139958
X320697Y130958
X339572Y137333
X348397Y134908
X258197Y129458
X198072Y64708
X74447Y42791
X24447Y73208
X27197Y92208
X8497Y107708
X18947Y114333
X38447Y112208
X31697Y125083
X35997Y135208
M30
