  0
SECTION
  2
HEADER
  9
$ACADVER
  1
AC1002
  9
$INSBASE
 10
0.0
 20
0.0
  9
$EXTMIN
 10
-47.1904
 20
-13.7746
  9
$EXTMAX
 10
46.463
 20
8.5416
  9
$LIMMIN
 10
0.0
 20
0.0
  9
$LIMMAX
 10
12.0
 20
9.0
  9
$ORTHOMODE
 70
     0
  9
$REGENMODE
 70
     1
  9
$FILLMODE
 70
     1
  9
$QTEXTMODE
 70
     0
  9
$DRAGMODE
 70
     2
  9
$LTSCALE
 40
1.0
  9
$OSMODE
 70
    37
  9
$ATTMODE
 70
     1
  9
$TEXTSIZE
 40
0.2
  9
$TRACEWID
 40
0.05
  9
$TEXTSTYLE
  7
STANDARD
  9
$CLAYER
  8
0
  9
$CELTYPE
  6
BYLAYER
  9
$CECOLOR
 62
   256
  9
$DIMSCALE
 40
1.0
  9
$DIMASZ
 40
0.18
  9
$DIMEXO
 40
0.0625
  9
$DIMDLI
 40
0.38
  9
$DIMRND
 40
0.0
  9
$DIMDLE
 40
0.0
  9
$DIMEXE
 40
0.18
  9
$DIMTP
 40
0.0
  9
$DIMTM
 40
0.0
  9
$DIMTXT
 40
0.18
  9
$DIMCEN
 40
0.09
  9
$DIMTSZ
 40
0.0
  9
$DIMTOL
 70
     0
  9
$DIMLIM
 70
     0
  9
$DIMTIH
 70
     1
  9
$DIMTOH
 70
     1
  9
$DIMSE1
 70
     0
  9
$DIMSE2
 70
     0
  9
$DIMTAD
 70
     0
  9
$DIMZIN
 70
     0
  9
$DIMBLK
  1

  9
$LUNITS
 70
     2
  9
$LUPREC
 70
     4
  9
$SKETCHINC
 40
0.1
  9
$FILLETRAD
 40
0.5
  9
$AUNITS
 70
     0
  9
$AUPREC
 70
     0
  9
$MENU
  1
.
  9
$ELEVATION
 40
0.0
  9
$THICKNESS
 40
0.0
  9
$LIMCHECK
 70
     0
  9
$CHAMFERA
 40
0.0
  9
$CHAMFERB
 40
0.0
  9
$SKPOLY
 70
     0
  9
$TDCREATE
 40
2458080.768124282
  9
$TDUPDATE
 40
2458080.768124294
  9
$TDINDWG
 40
0.0000000116
  9
$TDUSRTIMER
 40
0.0000000116
  9
$USRTIMER
 70
     1
  9
$ANGBASE
 50
0.0
  9
$ANGDIR
 70
     0
  9
$PDMODE
 70
     0
  9
$PDSIZE
 40
0.0
  9
$PLINEWID
 40
0.0
  9
$COORDS
 70
     1
  9
$SURFTAB1
 70
     6
  9
$SURFTAB2
 70
     6
  9
$SURFTYPE
 70
     6
  9
$SURFU
 70
     6
  9
$SURFV
 70
     6
  9
$UCSNAME
  2

  9
$UCSORG
 10
0.0
 20
0.0
 30
0.0
  9
$UCSXDIR
 10
1.0
 20
0.0
 30
0.0
  9
$UCSYDIR
 10
0.0
 20
1.0
 30
0.0
  9
$USERI1
 70
     0
  9
$USERI2
 70
     0
  9
$USERI3
 70
     0
  9
$USERI4
 70
     0
  9
$USERI5
 70
     0
  9
$USERR1
 40
0.0
  9
$USERR2
 40
0.0
  9
$USERR3
 40
0.0
  9
$USERR4
 40
0.0
  9
$USERR5
 40
0.0
  0
ENDSEC
  0
SECTION
  2
TABLES
  0
TABLE
  2
LTYPE
 70
     1
  0
LTYPE
  2
CONTINUOUS
 70
     0
  3
Solid line
 72
    65
 73
     0
 40
0.0
  0
ENDTAB
  0
TABLE
  2
LAYER
 70
     2
  0
LAYER
  2
0
 70
     0
 62
     7
  6
CONTINUOUS
  0
LAYER
  2
CAPA_1
 70
     0
 62
     7
  6
CONTINUOUS
  0
ENDTAB
  0
TABLE
  2
STYLE
 70
     1
  0
STYLE
  2
STANDARD
 70
     0
 40
0.0
 41
1.0
 50
0.0
 71
     0
 42
0.2
  3
txt
  4

  0
ENDTAB
  0
TABLE
  2
VIEW
 70
     0
  0
ENDTAB
  0
ENDSEC
  0
SECTION
  2
BLOCKS
  0
ENDSEC
  0
SECTION
  2
ENTITIES
  0
POLYLINE
  8
CAPA_1
 66
     1
 70
     1
  0
VERTEX
  8
CAPA_1
 10
23.7814
 20
1.3488
  0
VERTEX
  8
CAPA_1
 10
23.6253277423871
 20
1.333428224322584
  0
VERTEX
  8
CAPA_1
 10
23.47525325410793
 20
1.28790362600903
  0
VERTEX
  8
CAPA_1
 10
23.33694381358432
 20
1.213975689842036
  0
VERTEX
  8
CAPA_1
 10
23.21571457505076
 20
1.114485424949238
  0
VERTEX
  8
CAPA_1
 10
23.11622431015796
 20
0.9932561864156818
  0
VERTEX
  8
CAPA_1
 10
23.04229637399097
 20
0.8549467458920719
  0
VERTEX
  8
CAPA_1
 10
22.99677177567742
 20
0.7048722576129026
  0
VERTEX
  8
CAPA_1
 10
22.9814
 20
0.5488
  0
VERTEX
  8
CAPA_1
 10
22.99677177567742
 20
0.3927277423870974
  0
VERTEX
  8
CAPA_1
 10
23.04229637399097
 20
0.2426532541079282
  0
VERTEX
  8
CAPA_1
 10
23.11622431015796
 20
0.1043438135843184
  0
VERTEX
  8
CAPA_1
 10
23.21571457505076
 20
-0.0168854249492381
  0
VERTEX
  8
CAPA_1
 10
23.33694381358432
 20
-0.1163756898420364
  0
VERTEX
  8
CAPA_1
 10
23.47525325410793
 20
-0.1903036260090296
  0
VERTEX
  8
CAPA_1
 10
23.6253277423871
 20
-0.2358282243225845
  0
VERTEX
  8
CAPA_1
 10
23.7814
 20
-0.2512000000000001
  0
VERTEX
  8
CAPA_1
 10
23.9374722576129
 20
-0.2358282243225842
  0
VERTEX
  8
CAPA_1
 10
24.08754674589207
 20
-0.1903036260090292
  0
VERTEX
  8
CAPA_1
 10
24.22585618641568
 20
-0.1163756898420356
  0
VERTEX
  8
CAPA_1
 10
24.34708542494924
 20
-0.0168854249492372
  0
VERTEX
  8
CAPA_1
 10
24.44657568984204
 20
0.1043438135843193
  0
VERTEX
  8
CAPA_1
 10
24.52050362600903
 20
0.2426532541079296
  0
VERTEX
  8
CAPA_1
 10
24.56602822432259
 20
0.3927277423870991
  0
VERTEX
  8
CAPA_1
 10
24.5814
 20
0.548800000000002
  0
VERTEX
  8
CAPA_1
 10
24.56602822432259
 20
0.7048722576129047
  0
VERTEX
  8
CAPA_1
 10
24.52050362600903
 20
0.8549467458920739
  0
VERTEX
  8
CAPA_1
 10
24.44657568984204
 20
0.9932561864156839
  0
VERTEX
  8
CAPA_1
 10
24.34708542494924
 20
1.11448542494924
  0
VERTEX
  8
CAPA_1
 10
24.22585618641568
 20
1.213975689842038
  0
VERTEX
  8
CAPA_1
 10
24.08754674589207
 20
1.28790362600903
  0
VERTEX
  8
CAPA_1
 10
23.9374722576129
 20
1.333428224322585
  0
SEQEND
  8
CAPA_1
  0
POLYLINE
  8
CAPA_1
 66
     1
 70
     1
  0
VERTEX
  8
CAPA_1
 10
-36.5853
 20
8.5035
  0
VERTEX
  8
CAPA_1
 10
-28.3169
 20
8.5035
  0
VERTEX
  8
CAPA_1
 10
-28.2106
 20
8.4927
  0
VERTEX
  8
CAPA_1
 10
-28.1114
 20
8.4618
  0
VERTEX
  8
CAPA_1
 10
-28.0216
 20
8.4128
  0
VERTEX
  8
CAPA_1
 10
-27.9432
 20
8.3481
  0
VERTEX
  8
CAPA_1
 10
-27.8785
 20
8.2697
  0
VERTEX
  8
CAPA_1
 10
-27.8295
 20
8.1799
  0
VERTEX
  8
CAPA_1
 10
-27.7986
 20
8.0807
  0
VERTEX
  8
CAPA_1
 10
-27.7878
 20
7.9744
  0
VERTEX
  8
CAPA_1
 10
-27.7878
 20
2.848
  0
VERTEX
  8
CAPA_1
 10
-27.7986
 20
2.7417
  0
VERTEX
  8
CAPA_1
 10
-27.8295
 20
2.6425
  0
VERTEX
  8
CAPA_1
 10
-27.8785
 20
2.5527
  0
VERTEX
  8
CAPA_1
 10
-27.9432
 20
2.4743
  0
VERTEX
  8
CAPA_1
 10
-28.0216
 20
2.4096
  0
VERTEX
  8
CAPA_1
 10
-28.1114
 20
2.3606
  0
VERTEX
  8
CAPA_1
 10
-28.2106
 20
2.3297
  0
VERTEX
  8
CAPA_1
 10
-28.3169
 20
2.3189
  0
VERTEX
  8
CAPA_1
 10
-36.5853
 20
2.3189
  0
VERTEX
  8
CAPA_1
 10
-36.6916
 20
2.3297
  0
VERTEX
  8
CAPA_1
 10
-36.7908
 20
2.3606
  0
VERTEX
  8
CAPA_1
 10
-36.8806
 20
2.4096
  0
VERTEX
  8
CAPA_1
 10
-36.959
 20
2.4743
  0
VERTEX
  8
CAPA_1
 10
-37.0237
 20
2.5527
  0
VERTEX
  8
CAPA_1
 10
-37.0727
 20
2.6425
  0
VERTEX
  8
CAPA_1
 10
-37.1036
 20
2.7417
  0
VERTEX
  8
CAPA_1
 10
-37.1144
 20
2.848
  0
VERTEX
  8
CAPA_1
 10
-37.1144
 20
7.9744
  0
VERTEX
  8
CAPA_1
 10
-37.1036
 20
8.0807
  0
VERTEX
  8
CAPA_1
 10
-37.0727
 20
8.1799
  0
VERTEX
  8
CAPA_1
 10
-37.0237
 20
8.2697
  0
VERTEX
  8
CAPA_1
 10
-36.959
 20
8.3481
  0
VERTEX
  8
CAPA_1
 10
-36.8806
 20
8.4128
  0
VERTEX
  8
CAPA_1
 10
-36.7908
 20
8.4618
  0
VERTEX
  8
CAPA_1
 10
-36.6916
 20
8.4927
  0
VERTEX
  8
CAPA_1
 10
-36.5853
 20
8.5035
  0
SEQEND
  8
CAPA_1
  0
POLYLINE
  8
CAPA_1
 66
     1
 70
     1
  0
VERTEX
  8
CAPA_1
 10
-31.0824
 20
7.9922
  0
VERTEX
  8
CAPA_1
 10
-31.61499657910403
 20
7.939743815500819
  0
VERTEX
  8
CAPA_1
 10
-32.12712577035669
 20
7.784391123755812
  0
VERTEX
  8
CAPA_1
 10
-32.59910673614351
 20
7.532112041585949
  0
VERTEX
  8
CAPA_1
 10
-33.01280151263927
 20
7.192601512639275
  0
VERTEX
  8
CAPA_1
 10
-33.35231204158595
 20
6.778906736143514
  0
VERTEX
  8
CAPA_1
 10
-33.60459112375581
 20
6.306925770356695
  0
VERTEX
  8
CAPA_1
 10
-33.75994381550082
 20
5.79479657910403
  0
VERTEX
  8
CAPA_1
 10
-33.8124
 20
5.2622
  0
VERTEX
  8
CAPA_1
 10
-33.75994381550082
 20
4.72960342089597
  0
VERTEX
  8
CAPA_1
 10
-33.60459112375581
 20
4.217474229643305
  0
VERTEX
  8
CAPA_1
 10
-33.35231204158595
 20
3.745493263856487
  0
VERTEX
  8
CAPA_1
 10
-33.01280151263927
 20
3.331798487360725
  0
VERTEX
  8
CAPA_1
 10
-32.59910673614351
 20
2.992287958414051
  0
VERTEX
  8
CAPA_1
 10
-32.12712577035669
 20
2.740008876244187
  0
VERTEX
  8
CAPA_1
 10
-31.61499657910403
 20
2.584656184499181
  0
VERTEX
  8
CAPA_1
 10
-31.0824
 20
2.5322
  0
VERTEX
  8
CAPA_1
 10
-30.54980342089597
 20
2.584656184499182
  0
VERTEX
  8
CAPA_1
 10
-30.0376742296433
 20
2.740008876244188
  0
VERTEX
  8
CAPA_1
 10
-29.56569326385648
 20
2.992287958414054
  0
VERTEX
  8
CAPA_1
 10
-29.15199848736072
 20
3.331798487360729
  0
VERTEX
  8
CAPA_1
 10
-28.81248795841405
 20
3.74549326385649
  0
VERTEX
  8
CAPA_1
 10
-28.56020887624419
 20
4.21747422964331
  0
VERTEX
  8
CAPA_1
 10
-28.40485618449918
 20
4.729603420895976
  0
VERTEX
  8
CAPA_1
 10
-28.3524
 20
5.262200000000007
  0
VERTEX
  8
CAPA_1
 10
-28.40485618449918
 20
5.794796579104037
  0
VERTEX
  8
CAPA_1
 10
-28.56020887624419
 20
6.306925770356703
  0
VERTEX
  8
CAPA_1
 10
-28.81248795841406
 20
6.778906736143521
  0
VERTEX
  8
CAPA_1
 10
-29.15199848736073
 20
7.192601512639281
  0
VERTEX
  8
CAPA_1
 10
-29.5656932638565
 20
7.532112041585954
  0
VERTEX
  8
CAPA_1
 10
-30.03767422964332
 20
7.784391123755817
  0
VERTEX
  8
CAPA_1
 10
-30.54980342089598
 20
7.939743815500821
  0
SEQEND
  8
CAPA_1
  0
POLYLINE
  8
CAPA_1
 66
     1
 70
     1
  0
VERTEX
  8
CAPA_1
 10
-33.2825
 20
4.4109
  0
VERTEX
  8
CAPA_1
 10
-28.8673
 20
4.4109
  0
VERTEX
  8
CAPA_1
 10
-28.8673
 20
6.1717
  0
VERTEX
  8
CAPA_1
 10
-33.2825
 20
6.1717
  0
VERTEX
  8
CAPA_1
 10
-33.2825
 20
4.4109
  0
SEQEND
  8
CAPA_1
  0
POLYLINE
  8
CAPA_1
 66
     1
 70
     1
  0
VERTEX
  8
CAPA_1
 10
28.1185
 20
-6.4289
  0
VERTEX
  8
CAPA_1
 10
46.4245
 20
-6.3959
  0
VERTEX
  8
CAPA_1
 10
46.3418
 20
2.137
  0
VERTEX
  8
CAPA_1
 10
31.7235
 20
2.137
  0
VERTEX
  8
CAPA_1
 10
30.3179
 20
3.5923
  0
VERTEX
  8
CAPA_1
 10
28.0689
 20
3.5923
  0
VERTEX
  8
CAPA_1
 10
28.1185
 20
-6.4289
  0
SEQEND
  8
CAPA_1
  0
POLYLINE
  8
CAPA_1
 66
     1
 70
     1
  0
VERTEX
  8
CAPA_1
 10
24.4887
 20
0.5823
  0
VERTEX
  8
CAPA_1
 10
24.47423900203147
 20
0.7219066344347415
  0
VERTEX
  8
CAPA_1
 10
24.43141173616799
 20
0.8561482642004583
  0
VERTEX
  8
CAPA_1
 10
24.3618640302189
 20
0.9798660587488274
  0
VERTEX
  8
CAPA_1
 10
24.268268563521
 20
1.088305612617094
  0
VERTEX
  8
CAPA_1
 10
24.15422215737055
 20
1.177299654563702
  0
VERTEX
  8
CAPA_1
 10
24.02410755119797
 20
1.243428193465077
  0
VERTEX
  8
CAPA_1
 10
23.88292497634934
 20
1.284149946656552
  0
VERTEX
  8
CAPA_1
 10
23.7361
 20
1.2979
  0
VERTEX
  8
CAPA_1
 10
23.58927502365066
 20
1.284149946656552
  0
VERTEX
  8
CAPA_1
 10
23.44809244880203
 20
1.243428193465077
  0
VERTEX
  8
CAPA_1
 10
23.31797784262945
 20
1.177299654563702
  0
VERTEX
  8
CAPA_1
 10
23.203931436479
 20
1.088305612617094
  0
VERTEX
  8
CAPA_1
 10
23.1103359697811
 20
0.9798660587488274
  0
VERTEX
  8
CAPA_1
 10
23.04078826383201
 20
0.8561482642004581
  0
VERTEX
  8
CAPA_1
 10
22.99796099796853
 20
0.721906634434741
  0
VERTEX
  8
CAPA_1
 10
22.9835
 20
0.5822999999999995
  0
VERTEX
  8
CAPA_1
 10
22.99796099796853
 20
0.442693365565258
  0
VERTEX
  8
CAPA_1
 10
23.04078826383201
 20
0.308451735799541
  0
VERTEX
  8
CAPA_1
 10
23.1103359697811
 20
0.1847339412511718
  0
VERTEX
  8
CAPA_1
 10
23.20393143647901
 20
0.0762943873829058
  0
VERTEX
  8
CAPA_1
 10
23.31797784262945
 20
-0.012699654563702
  0
VERTEX
  8
CAPA_1
 10
23.44809244880204
 20
-0.0788281934650773
  0
VERTEX
  8
CAPA_1
 10
23.58927502365066
 20
-0.1195499466565519
  0
VERTEX
  8
CAPA_1
 10
23.7361
 20
-0.1333
  0
VERTEX
  8
CAPA_1
 10
23.88292497634934
 20
-0.1195499466565513
  0
VERTEX
  8
CAPA_1
 10
24.02410755119797
 20
-0.078828193465076
  0
VERTEX
  8
CAPA_1
 10
24.15422215737055
 20
-0.0126996545637
  0
VERTEX
  8
CAPA_1
 10
24.268268563521
 20
0.0762943873829083
  0
VERTEX
  8
CAPA_1
 10
24.3618640302189
 20
0.1847339412511748
  0
VERTEX
  8
CAPA_1
 10
24.43141173616799
 20
0.3084517357995443
  0
VERTEX
  8
CAPA_1
 10
24.47423900203147
 20
0.4426933655652615
  0
SEQEND
  8
CAPA_1
  0
POLYLINE
  8
CAPA_1
 66
     1
 70
     1
  0
VERTEX
  8
CAPA_1
 10
-47.1522
 20
-3.9157
  0
VERTEX
  8
CAPA_1
 10
-28.532
 20
-3.9157
  0
VERTEX
  8
CAPA_1
 10
-28.5403
 20
-13.4407
  0
VERTEX
  8
CAPA_1
 10
-43.7397
 20
-13.7357
  0
VERTEX
  8
CAPA_1
 10
-43.7019
 20
-12.0766
  0
VERTEX
  8
CAPA_1
 10
-43.7483
 20
-10.9041
  0
VERTEX
  8
CAPA_1
 10
-43.9885
 20
-10.0133
  0
VERTEX
  8
CAPA_1
 10
-44.3725
 20
-9.3657
  0
VERTEX
  8
CAPA_1
 10
-44.8503
 20
-8.9231
  0
VERTEX
  8
CAPA_1
 10
-45.372
 20
-8.6472
  0
VERTEX
  8
CAPA_1
 10
-45.8874
 20
-8.4996
  0
VERTEX
  8
CAPA_1
 10
-46.3467
 20
-8.4419
  0
VERTEX
  8
CAPA_1
 10
-46.6997
 20
-8.436
  0
VERTEX
  8
CAPA_1
 10
-47.1435
 20
-8.4297
  0
VERTEX
  8
CAPA_1
 10
-47.1522
 20
-3.9157
  0
SEQEND
  8
CAPA_1
  0
ENDSEC
  0
EOF
