G75*
%MOIN*%
%OFA0B0*%
%FSLAX25Y25*%
%IPPOS*%
%LPD*%
%AMOC8*
5,1,8,0,0,1.08239X$1,22.5*
%
%ADD10C,0.00800*%
%ADD11C,0.00500*%
%ADD12C,0.00000*%
%ADD13C,0.00600*%
%ADD14C,0.00100*%
%ADD15R,0.03538X0.01584*%
%ADD16C,0.00394*%
%ADD17R,0.03528X0.01568*%
%ADD18R,0.03536X0.01563*%
%ADD19R,0.01565X0.01935*%
%ADD20R,0.01580X0.01955*%
%ADD21R,0.01589X0.02008*%
%ADD22R,0.01570X0.01989*%
%ADD23C,0.00300*%
D10*
X0123333Y0058200D02*
X0248333Y0058200D01*
X0248333Y0118200D01*
X0123333Y0118200D01*
X0123333Y0058200D01*
X0155083Y0074200D02*
X0161583Y0074200D01*
X0161643Y0074202D01*
X0161704Y0074207D01*
X0161763Y0074216D01*
X0161822Y0074229D01*
X0161881Y0074245D01*
X0161938Y0074265D01*
X0161993Y0074288D01*
X0162048Y0074315D01*
X0162100Y0074344D01*
X0162151Y0074377D01*
X0162200Y0074413D01*
X0162246Y0074451D01*
X0162290Y0074493D01*
X0162332Y0074537D01*
X0162370Y0074583D01*
X0162406Y0074632D01*
X0162439Y0074683D01*
X0162468Y0074735D01*
X0162495Y0074790D01*
X0162518Y0074845D01*
X0162538Y0074902D01*
X0162554Y0074961D01*
X0162567Y0075020D01*
X0162576Y0075079D01*
X0162581Y0075140D01*
X0162583Y0075200D01*
X0155083Y0074200D02*
X0155023Y0074202D01*
X0154962Y0074207D01*
X0154903Y0074216D01*
X0154844Y0074229D01*
X0154785Y0074245D01*
X0154728Y0074265D01*
X0154673Y0074288D01*
X0154618Y0074315D01*
X0154566Y0074344D01*
X0154515Y0074377D01*
X0154466Y0074413D01*
X0154420Y0074451D01*
X0154376Y0074493D01*
X0154334Y0074537D01*
X0154296Y0074583D01*
X0154260Y0074632D01*
X0154227Y0074683D01*
X0154198Y0074735D01*
X0154171Y0074790D01*
X0154148Y0074845D01*
X0154128Y0074902D01*
X0154112Y0074961D01*
X0154099Y0075020D01*
X0154090Y0075079D01*
X0154085Y0075140D01*
X0154083Y0075200D01*
X0154083Y0081200D02*
X0154085Y0081260D01*
X0154090Y0081321D01*
X0154099Y0081380D01*
X0154112Y0081439D01*
X0154128Y0081498D01*
X0154148Y0081555D01*
X0154171Y0081610D01*
X0154198Y0081665D01*
X0154227Y0081717D01*
X0154260Y0081768D01*
X0154296Y0081817D01*
X0154334Y0081863D01*
X0154376Y0081907D01*
X0154420Y0081949D01*
X0154466Y0081987D01*
X0154515Y0082023D01*
X0154566Y0082056D01*
X0154618Y0082085D01*
X0154673Y0082112D01*
X0154728Y0082135D01*
X0154785Y0082155D01*
X0154844Y0082171D01*
X0154903Y0082184D01*
X0154962Y0082193D01*
X0155023Y0082198D01*
X0155083Y0082200D01*
X0161583Y0082200D01*
X0161643Y0082198D01*
X0161704Y0082193D01*
X0161763Y0082184D01*
X0161822Y0082171D01*
X0161881Y0082155D01*
X0161938Y0082135D01*
X0161993Y0082112D01*
X0162048Y0082085D01*
X0162100Y0082056D01*
X0162151Y0082023D01*
X0162200Y0081987D01*
X0162246Y0081949D01*
X0162290Y0081907D01*
X0162332Y0081863D01*
X0162370Y0081817D01*
X0162406Y0081768D01*
X0162439Y0081717D01*
X0162468Y0081665D01*
X0162495Y0081610D01*
X0162518Y0081555D01*
X0162538Y0081498D01*
X0162554Y0081439D01*
X0162567Y0081380D01*
X0162576Y0081321D01*
X0162581Y0081260D01*
X0162583Y0081200D01*
X0161583Y0094200D02*
X0155083Y0094200D01*
X0155023Y0094202D01*
X0154962Y0094207D01*
X0154903Y0094216D01*
X0154844Y0094229D01*
X0154785Y0094245D01*
X0154728Y0094265D01*
X0154673Y0094288D01*
X0154618Y0094315D01*
X0154566Y0094344D01*
X0154515Y0094377D01*
X0154466Y0094413D01*
X0154420Y0094451D01*
X0154376Y0094493D01*
X0154334Y0094537D01*
X0154296Y0094583D01*
X0154260Y0094632D01*
X0154227Y0094683D01*
X0154198Y0094735D01*
X0154171Y0094790D01*
X0154148Y0094845D01*
X0154128Y0094902D01*
X0154112Y0094961D01*
X0154099Y0095020D01*
X0154090Y0095079D01*
X0154085Y0095140D01*
X0154083Y0095200D01*
X0161583Y0094200D02*
X0161643Y0094202D01*
X0161704Y0094207D01*
X0161763Y0094216D01*
X0161822Y0094229D01*
X0161881Y0094245D01*
X0161938Y0094265D01*
X0161993Y0094288D01*
X0162048Y0094315D01*
X0162100Y0094344D01*
X0162151Y0094377D01*
X0162200Y0094413D01*
X0162246Y0094451D01*
X0162290Y0094493D01*
X0162332Y0094537D01*
X0162370Y0094583D01*
X0162406Y0094632D01*
X0162439Y0094683D01*
X0162468Y0094735D01*
X0162495Y0094790D01*
X0162518Y0094845D01*
X0162538Y0094902D01*
X0162554Y0094961D01*
X0162567Y0095020D01*
X0162576Y0095079D01*
X0162581Y0095140D01*
X0162583Y0095200D01*
X0162583Y0101200D02*
X0162581Y0101260D01*
X0162576Y0101321D01*
X0162567Y0101380D01*
X0162554Y0101439D01*
X0162538Y0101498D01*
X0162518Y0101555D01*
X0162495Y0101610D01*
X0162468Y0101665D01*
X0162439Y0101717D01*
X0162406Y0101768D01*
X0162370Y0101817D01*
X0162332Y0101863D01*
X0162290Y0101907D01*
X0162246Y0101949D01*
X0162200Y0101987D01*
X0162151Y0102023D01*
X0162100Y0102056D01*
X0162048Y0102085D01*
X0161993Y0102112D01*
X0161938Y0102135D01*
X0161881Y0102155D01*
X0161822Y0102171D01*
X0161763Y0102184D01*
X0161704Y0102193D01*
X0161643Y0102198D01*
X0161583Y0102200D01*
X0155083Y0102200D01*
X0155023Y0102198D01*
X0154962Y0102193D01*
X0154903Y0102184D01*
X0154844Y0102171D01*
X0154785Y0102155D01*
X0154728Y0102135D01*
X0154673Y0102112D01*
X0154618Y0102085D01*
X0154566Y0102056D01*
X0154515Y0102023D01*
X0154466Y0101987D01*
X0154420Y0101949D01*
X0154376Y0101907D01*
X0154334Y0101863D01*
X0154296Y0101817D01*
X0154260Y0101768D01*
X0154227Y0101717D01*
X0154198Y0101665D01*
X0154171Y0101610D01*
X0154148Y0101555D01*
X0154128Y0101498D01*
X0154112Y0101439D01*
X0154099Y0101380D01*
X0154090Y0101321D01*
X0154085Y0101260D01*
X0154083Y0101200D01*
D11*
X0162228Y0099102D02*
X0162679Y0099552D01*
X0163579Y0099552D01*
X0164030Y0099102D01*
X0165175Y0099102D02*
X0165175Y0098652D01*
X0165625Y0098201D01*
X0166976Y0098201D01*
X0165625Y0098201D02*
X0165175Y0097751D01*
X0165175Y0097300D01*
X0165625Y0096850D01*
X0166976Y0096850D01*
X0166976Y0099552D01*
X0165625Y0099552D01*
X0165175Y0099102D01*
X0164030Y0096850D02*
X0162228Y0096850D01*
X0162228Y0098652D02*
X0162228Y0099102D01*
X0162228Y0098652D02*
X0164030Y0096850D01*
X0168121Y0097300D02*
X0168572Y0096850D01*
X0169473Y0096850D01*
X0169923Y0097300D01*
X0169923Y0099102D01*
X0169473Y0099552D01*
X0168572Y0099552D01*
X0168121Y0099102D01*
X0184545Y0097202D02*
X0184545Y0096752D01*
X0184996Y0096301D01*
X0184545Y0095851D01*
X0184545Y0095400D01*
X0184996Y0094950D01*
X0185896Y0094950D01*
X0186347Y0095400D01*
X0187370Y0095400D02*
X0187370Y0094950D01*
X0187820Y0094950D01*
X0187820Y0095400D01*
X0187370Y0095400D01*
X0188965Y0095400D02*
X0189415Y0094950D01*
X0190316Y0094950D01*
X0190766Y0095400D01*
X0189866Y0096301D02*
X0189415Y0096301D01*
X0188965Y0095851D01*
X0188965Y0095400D01*
X0189415Y0096301D02*
X0188965Y0096752D01*
X0188965Y0097202D01*
X0189415Y0097652D01*
X0190316Y0097652D01*
X0190766Y0097202D01*
X0186347Y0097202D02*
X0185896Y0097652D01*
X0184996Y0097652D01*
X0184545Y0097202D01*
X0184996Y0096301D02*
X0185446Y0096301D01*
X0192983Y0090694D02*
X0193434Y0091145D01*
X0192983Y0090694D02*
X0192983Y0089793D01*
X0193434Y0089343D01*
X0195235Y0089343D01*
X0195686Y0089793D01*
X0195686Y0090694D01*
X0195235Y0091145D01*
X0195235Y0088198D02*
X0195686Y0087748D01*
X0195686Y0086847D01*
X0195235Y0086397D01*
X0193434Y0086397D01*
X0192983Y0086847D01*
X0192983Y0087748D01*
X0193434Y0088198D01*
X0193884Y0085252D02*
X0192983Y0084351D01*
X0193884Y0083450D01*
X0195686Y0083450D01*
X0195686Y0085252D02*
X0193884Y0085252D01*
X0190530Y0081452D02*
X0188728Y0081452D01*
X0189179Y0080552D02*
X0188728Y0080101D01*
X0188728Y0079200D01*
X0189179Y0078750D01*
X0190079Y0078750D01*
X0190530Y0079200D01*
X0190530Y0080101D02*
X0189629Y0080552D01*
X0189179Y0080552D01*
X0190530Y0080101D02*
X0190530Y0081452D01*
X0187583Y0081452D02*
X0187583Y0079651D01*
X0186683Y0078750D01*
X0185782Y0079651D01*
X0185782Y0081452D01*
X0169923Y0079102D02*
X0169923Y0077300D01*
X0169473Y0076850D01*
X0168572Y0076850D01*
X0168121Y0077300D01*
X0166976Y0076850D02*
X0165625Y0076850D01*
X0165175Y0077300D01*
X0165175Y0077751D01*
X0165625Y0078201D01*
X0166976Y0078201D01*
X0165625Y0078201D02*
X0165175Y0078652D01*
X0165175Y0079102D01*
X0165625Y0079552D01*
X0166976Y0079552D01*
X0166976Y0076850D01*
X0168121Y0079102D02*
X0168572Y0079552D01*
X0169473Y0079552D01*
X0169923Y0079102D01*
X0164030Y0078652D02*
X0163129Y0079552D01*
X0163129Y0076850D01*
X0164030Y0076850D02*
X0162228Y0076850D01*
X0157003Y0071152D02*
X0155652Y0071152D01*
X0155202Y0070702D01*
X0155202Y0069801D01*
X0155652Y0069351D01*
X0157003Y0069351D01*
X0156102Y0069351D02*
X0155202Y0068450D01*
X0157003Y0068450D02*
X0157003Y0071152D01*
X0154057Y0071152D02*
X0152255Y0071152D01*
X0153156Y0071152D02*
X0153156Y0068450D01*
X0151110Y0068900D02*
X0150660Y0068450D01*
X0149759Y0068450D01*
X0149309Y0068900D01*
X0149309Y0069351D01*
X0149759Y0069801D01*
X0150660Y0069801D01*
X0151110Y0070252D01*
X0151110Y0070702D01*
X0150660Y0071152D01*
X0149759Y0071152D01*
X0149309Y0070702D01*
X0143686Y0069801D02*
X0143235Y0070252D01*
X0142785Y0070252D01*
X0142334Y0069801D01*
X0141884Y0070252D01*
X0141434Y0070252D01*
X0140983Y0069801D01*
X0140983Y0068900D01*
X0141434Y0068450D01*
X0142334Y0069351D02*
X0142334Y0069801D01*
X0143686Y0069801D02*
X0143686Y0068900D01*
X0143235Y0068450D01*
X0141434Y0071397D02*
X0141434Y0071847D01*
X0140983Y0071847D01*
X0140983Y0071397D01*
X0141434Y0071397D01*
X0141434Y0072870D02*
X0140983Y0073320D01*
X0140983Y0074221D01*
X0141434Y0074671D01*
X0141884Y0074671D01*
X0142334Y0074221D01*
X0142334Y0073771D01*
X0142334Y0074221D02*
X0142785Y0074671D01*
X0143235Y0074671D01*
X0143686Y0074221D01*
X0143686Y0073320D01*
X0143235Y0072870D01*
D12*
X0138322Y0081220D02*
X0138324Y0081301D01*
X0138330Y0081383D01*
X0138340Y0081464D01*
X0138354Y0081544D01*
X0138371Y0081623D01*
X0138393Y0081702D01*
X0138418Y0081779D01*
X0138447Y0081856D01*
X0138480Y0081930D01*
X0138517Y0082003D01*
X0138556Y0082074D01*
X0138600Y0082143D01*
X0138646Y0082210D01*
X0138696Y0082274D01*
X0138749Y0082336D01*
X0138805Y0082396D01*
X0138863Y0082452D01*
X0138925Y0082506D01*
X0138989Y0082557D01*
X0139055Y0082604D01*
X0139123Y0082648D01*
X0139194Y0082689D01*
X0139266Y0082726D01*
X0139341Y0082760D01*
X0139416Y0082790D01*
X0139494Y0082816D01*
X0139572Y0082839D01*
X0139651Y0082857D01*
X0139731Y0082872D01*
X0139812Y0082883D01*
X0139893Y0082890D01*
X0139975Y0082893D01*
X0140056Y0082892D01*
X0140137Y0082887D01*
X0140218Y0082878D01*
X0140299Y0082865D01*
X0140379Y0082848D01*
X0140457Y0082828D01*
X0140535Y0082803D01*
X0140612Y0082775D01*
X0140687Y0082743D01*
X0140760Y0082708D01*
X0140831Y0082669D01*
X0140901Y0082626D01*
X0140968Y0082581D01*
X0141034Y0082532D01*
X0141096Y0082480D01*
X0141156Y0082424D01*
X0141213Y0082366D01*
X0141268Y0082306D01*
X0141319Y0082242D01*
X0141367Y0082177D01*
X0141412Y0082109D01*
X0141454Y0082039D01*
X0141492Y0081967D01*
X0141527Y0081893D01*
X0141558Y0081818D01*
X0141585Y0081741D01*
X0141608Y0081663D01*
X0141628Y0081584D01*
X0141644Y0081504D01*
X0141656Y0081423D01*
X0141664Y0081342D01*
X0141668Y0081261D01*
X0141668Y0081179D01*
X0141664Y0081098D01*
X0141656Y0081017D01*
X0141644Y0080936D01*
X0141628Y0080856D01*
X0141608Y0080777D01*
X0141585Y0080699D01*
X0141558Y0080622D01*
X0141527Y0080547D01*
X0141492Y0080473D01*
X0141454Y0080401D01*
X0141412Y0080331D01*
X0141367Y0080263D01*
X0141319Y0080198D01*
X0141268Y0080134D01*
X0141213Y0080074D01*
X0141156Y0080016D01*
X0141096Y0079960D01*
X0141034Y0079908D01*
X0140968Y0079859D01*
X0140901Y0079814D01*
X0140832Y0079771D01*
X0140760Y0079732D01*
X0140687Y0079697D01*
X0140612Y0079665D01*
X0140535Y0079637D01*
X0140457Y0079612D01*
X0140379Y0079592D01*
X0140299Y0079575D01*
X0140218Y0079562D01*
X0140137Y0079553D01*
X0140056Y0079548D01*
X0139975Y0079547D01*
X0139893Y0079550D01*
X0139812Y0079557D01*
X0139731Y0079568D01*
X0139651Y0079583D01*
X0139572Y0079601D01*
X0139494Y0079624D01*
X0139416Y0079650D01*
X0139341Y0079680D01*
X0139266Y0079714D01*
X0139194Y0079751D01*
X0139123Y0079792D01*
X0139055Y0079836D01*
X0138989Y0079883D01*
X0138925Y0079934D01*
X0138863Y0079988D01*
X0138805Y0080044D01*
X0138749Y0080104D01*
X0138696Y0080166D01*
X0138646Y0080230D01*
X0138600Y0080297D01*
X0138556Y0080366D01*
X0138517Y0080437D01*
X0138480Y0080510D01*
X0138447Y0080584D01*
X0138418Y0080661D01*
X0138393Y0080738D01*
X0138371Y0080817D01*
X0138354Y0080896D01*
X0138340Y0080976D01*
X0138330Y0081057D01*
X0138324Y0081139D01*
X0138322Y0081220D01*
X0138322Y0096180D02*
X0138324Y0096261D01*
X0138330Y0096343D01*
X0138340Y0096424D01*
X0138354Y0096504D01*
X0138371Y0096583D01*
X0138393Y0096662D01*
X0138418Y0096739D01*
X0138447Y0096816D01*
X0138480Y0096890D01*
X0138517Y0096963D01*
X0138556Y0097034D01*
X0138600Y0097103D01*
X0138646Y0097170D01*
X0138696Y0097234D01*
X0138749Y0097296D01*
X0138805Y0097356D01*
X0138863Y0097412D01*
X0138925Y0097466D01*
X0138989Y0097517D01*
X0139055Y0097564D01*
X0139123Y0097608D01*
X0139194Y0097649D01*
X0139266Y0097686D01*
X0139341Y0097720D01*
X0139416Y0097750D01*
X0139494Y0097776D01*
X0139572Y0097799D01*
X0139651Y0097817D01*
X0139731Y0097832D01*
X0139812Y0097843D01*
X0139893Y0097850D01*
X0139975Y0097853D01*
X0140056Y0097852D01*
X0140137Y0097847D01*
X0140218Y0097838D01*
X0140299Y0097825D01*
X0140379Y0097808D01*
X0140457Y0097788D01*
X0140535Y0097763D01*
X0140612Y0097735D01*
X0140687Y0097703D01*
X0140760Y0097668D01*
X0140831Y0097629D01*
X0140901Y0097586D01*
X0140968Y0097541D01*
X0141034Y0097492D01*
X0141096Y0097440D01*
X0141156Y0097384D01*
X0141213Y0097326D01*
X0141268Y0097266D01*
X0141319Y0097202D01*
X0141367Y0097137D01*
X0141412Y0097069D01*
X0141454Y0096999D01*
X0141492Y0096927D01*
X0141527Y0096853D01*
X0141558Y0096778D01*
X0141585Y0096701D01*
X0141608Y0096623D01*
X0141628Y0096544D01*
X0141644Y0096464D01*
X0141656Y0096383D01*
X0141664Y0096302D01*
X0141668Y0096221D01*
X0141668Y0096139D01*
X0141664Y0096058D01*
X0141656Y0095977D01*
X0141644Y0095896D01*
X0141628Y0095816D01*
X0141608Y0095737D01*
X0141585Y0095659D01*
X0141558Y0095582D01*
X0141527Y0095507D01*
X0141492Y0095433D01*
X0141454Y0095361D01*
X0141412Y0095291D01*
X0141367Y0095223D01*
X0141319Y0095158D01*
X0141268Y0095094D01*
X0141213Y0095034D01*
X0141156Y0094976D01*
X0141096Y0094920D01*
X0141034Y0094868D01*
X0140968Y0094819D01*
X0140901Y0094774D01*
X0140832Y0094731D01*
X0140760Y0094692D01*
X0140687Y0094657D01*
X0140612Y0094625D01*
X0140535Y0094597D01*
X0140457Y0094572D01*
X0140379Y0094552D01*
X0140299Y0094535D01*
X0140218Y0094522D01*
X0140137Y0094513D01*
X0140056Y0094508D01*
X0139975Y0094507D01*
X0139893Y0094510D01*
X0139812Y0094517D01*
X0139731Y0094528D01*
X0139651Y0094543D01*
X0139572Y0094561D01*
X0139494Y0094584D01*
X0139416Y0094610D01*
X0139341Y0094640D01*
X0139266Y0094674D01*
X0139194Y0094711D01*
X0139123Y0094752D01*
X0139055Y0094796D01*
X0138989Y0094843D01*
X0138925Y0094894D01*
X0138863Y0094948D01*
X0138805Y0095004D01*
X0138749Y0095064D01*
X0138696Y0095126D01*
X0138646Y0095190D01*
X0138600Y0095257D01*
X0138556Y0095326D01*
X0138517Y0095397D01*
X0138480Y0095470D01*
X0138447Y0095544D01*
X0138418Y0095621D01*
X0138393Y0095698D01*
X0138371Y0095777D01*
X0138354Y0095856D01*
X0138340Y0095936D01*
X0138330Y0096017D01*
X0138324Y0096099D01*
X0138322Y0096180D01*
X0240061Y0094606D02*
X0240063Y0094690D01*
X0240069Y0094773D01*
X0240079Y0094856D01*
X0240093Y0094939D01*
X0240110Y0095021D01*
X0240132Y0095102D01*
X0240157Y0095181D01*
X0240186Y0095260D01*
X0240219Y0095337D01*
X0240255Y0095412D01*
X0240295Y0095486D01*
X0240338Y0095558D01*
X0240385Y0095627D01*
X0240435Y0095694D01*
X0240488Y0095759D01*
X0240544Y0095821D01*
X0240602Y0095881D01*
X0240664Y0095938D01*
X0240728Y0095991D01*
X0240795Y0096042D01*
X0240864Y0096089D01*
X0240935Y0096134D01*
X0241008Y0096174D01*
X0241083Y0096211D01*
X0241160Y0096245D01*
X0241238Y0096275D01*
X0241317Y0096301D01*
X0241398Y0096324D01*
X0241480Y0096342D01*
X0241562Y0096357D01*
X0241645Y0096368D01*
X0241728Y0096375D01*
X0241812Y0096378D01*
X0241896Y0096377D01*
X0241979Y0096372D01*
X0242063Y0096363D01*
X0242145Y0096350D01*
X0242227Y0096334D01*
X0242308Y0096313D01*
X0242389Y0096289D01*
X0242467Y0096261D01*
X0242545Y0096229D01*
X0242621Y0096193D01*
X0242695Y0096154D01*
X0242767Y0096112D01*
X0242837Y0096066D01*
X0242905Y0096017D01*
X0242970Y0095965D01*
X0243033Y0095910D01*
X0243093Y0095852D01*
X0243151Y0095791D01*
X0243205Y0095727D01*
X0243257Y0095661D01*
X0243305Y0095593D01*
X0243350Y0095522D01*
X0243391Y0095449D01*
X0243430Y0095375D01*
X0243464Y0095299D01*
X0243495Y0095221D01*
X0243522Y0095142D01*
X0243546Y0095061D01*
X0243565Y0094980D01*
X0243581Y0094898D01*
X0243593Y0094815D01*
X0243601Y0094731D01*
X0243605Y0094648D01*
X0243605Y0094564D01*
X0243601Y0094481D01*
X0243593Y0094397D01*
X0243581Y0094314D01*
X0243565Y0094232D01*
X0243546Y0094151D01*
X0243522Y0094070D01*
X0243495Y0093991D01*
X0243464Y0093913D01*
X0243430Y0093837D01*
X0243391Y0093763D01*
X0243350Y0093690D01*
X0243305Y0093619D01*
X0243257Y0093551D01*
X0243205Y0093485D01*
X0243151Y0093421D01*
X0243093Y0093360D01*
X0243033Y0093302D01*
X0242970Y0093247D01*
X0242905Y0093195D01*
X0242837Y0093146D01*
X0242767Y0093100D01*
X0242695Y0093058D01*
X0242621Y0093019D01*
X0242545Y0092983D01*
X0242467Y0092951D01*
X0242389Y0092923D01*
X0242308Y0092899D01*
X0242227Y0092878D01*
X0242145Y0092862D01*
X0242063Y0092849D01*
X0241979Y0092840D01*
X0241896Y0092835D01*
X0241812Y0092834D01*
X0241728Y0092837D01*
X0241645Y0092844D01*
X0241562Y0092855D01*
X0241480Y0092870D01*
X0241398Y0092888D01*
X0241317Y0092911D01*
X0241238Y0092937D01*
X0241160Y0092967D01*
X0241083Y0093001D01*
X0241008Y0093038D01*
X0240935Y0093078D01*
X0240864Y0093123D01*
X0240795Y0093170D01*
X0240728Y0093221D01*
X0240664Y0093274D01*
X0240602Y0093331D01*
X0240544Y0093391D01*
X0240488Y0093453D01*
X0240435Y0093518D01*
X0240385Y0093585D01*
X0240338Y0093654D01*
X0240295Y0093726D01*
X0240255Y0093800D01*
X0240219Y0093875D01*
X0240186Y0093952D01*
X0240157Y0094031D01*
X0240132Y0094110D01*
X0240110Y0094191D01*
X0240093Y0094273D01*
X0240079Y0094356D01*
X0240069Y0094439D01*
X0240063Y0094522D01*
X0240061Y0094606D01*
X0240061Y0082794D02*
X0240063Y0082878D01*
X0240069Y0082961D01*
X0240079Y0083044D01*
X0240093Y0083127D01*
X0240110Y0083209D01*
X0240132Y0083290D01*
X0240157Y0083369D01*
X0240186Y0083448D01*
X0240219Y0083525D01*
X0240255Y0083600D01*
X0240295Y0083674D01*
X0240338Y0083746D01*
X0240385Y0083815D01*
X0240435Y0083882D01*
X0240488Y0083947D01*
X0240544Y0084009D01*
X0240602Y0084069D01*
X0240664Y0084126D01*
X0240728Y0084179D01*
X0240795Y0084230D01*
X0240864Y0084277D01*
X0240935Y0084322D01*
X0241008Y0084362D01*
X0241083Y0084399D01*
X0241160Y0084433D01*
X0241238Y0084463D01*
X0241317Y0084489D01*
X0241398Y0084512D01*
X0241480Y0084530D01*
X0241562Y0084545D01*
X0241645Y0084556D01*
X0241728Y0084563D01*
X0241812Y0084566D01*
X0241896Y0084565D01*
X0241979Y0084560D01*
X0242063Y0084551D01*
X0242145Y0084538D01*
X0242227Y0084522D01*
X0242308Y0084501D01*
X0242389Y0084477D01*
X0242467Y0084449D01*
X0242545Y0084417D01*
X0242621Y0084381D01*
X0242695Y0084342D01*
X0242767Y0084300D01*
X0242837Y0084254D01*
X0242905Y0084205D01*
X0242970Y0084153D01*
X0243033Y0084098D01*
X0243093Y0084040D01*
X0243151Y0083979D01*
X0243205Y0083915D01*
X0243257Y0083849D01*
X0243305Y0083781D01*
X0243350Y0083710D01*
X0243391Y0083637D01*
X0243430Y0083563D01*
X0243464Y0083487D01*
X0243495Y0083409D01*
X0243522Y0083330D01*
X0243546Y0083249D01*
X0243565Y0083168D01*
X0243581Y0083086D01*
X0243593Y0083003D01*
X0243601Y0082919D01*
X0243605Y0082836D01*
X0243605Y0082752D01*
X0243601Y0082669D01*
X0243593Y0082585D01*
X0243581Y0082502D01*
X0243565Y0082420D01*
X0243546Y0082339D01*
X0243522Y0082258D01*
X0243495Y0082179D01*
X0243464Y0082101D01*
X0243430Y0082025D01*
X0243391Y0081951D01*
X0243350Y0081878D01*
X0243305Y0081807D01*
X0243257Y0081739D01*
X0243205Y0081673D01*
X0243151Y0081609D01*
X0243093Y0081548D01*
X0243033Y0081490D01*
X0242970Y0081435D01*
X0242905Y0081383D01*
X0242837Y0081334D01*
X0242767Y0081288D01*
X0242695Y0081246D01*
X0242621Y0081207D01*
X0242545Y0081171D01*
X0242467Y0081139D01*
X0242389Y0081111D01*
X0242308Y0081087D01*
X0242227Y0081066D01*
X0242145Y0081050D01*
X0242063Y0081037D01*
X0241979Y0081028D01*
X0241896Y0081023D01*
X0241812Y0081022D01*
X0241728Y0081025D01*
X0241645Y0081032D01*
X0241562Y0081043D01*
X0241480Y0081058D01*
X0241398Y0081076D01*
X0241317Y0081099D01*
X0241238Y0081125D01*
X0241160Y0081155D01*
X0241083Y0081189D01*
X0241008Y0081226D01*
X0240935Y0081266D01*
X0240864Y0081311D01*
X0240795Y0081358D01*
X0240728Y0081409D01*
X0240664Y0081462D01*
X0240602Y0081519D01*
X0240544Y0081579D01*
X0240488Y0081641D01*
X0240435Y0081706D01*
X0240385Y0081773D01*
X0240338Y0081842D01*
X0240295Y0081914D01*
X0240255Y0081988D01*
X0240219Y0082063D01*
X0240186Y0082140D01*
X0240157Y0082219D01*
X0240132Y0082298D01*
X0240110Y0082379D01*
X0240093Y0082461D01*
X0240079Y0082544D01*
X0240069Y0082627D01*
X0240063Y0082710D01*
X0240061Y0082794D01*
D13*
X0191833Y0083200D02*
X0191833Y0093200D01*
X0191831Y0093260D01*
X0191826Y0093321D01*
X0191817Y0093380D01*
X0191804Y0093439D01*
X0191788Y0093498D01*
X0191768Y0093555D01*
X0191745Y0093610D01*
X0191718Y0093665D01*
X0191689Y0093717D01*
X0191656Y0093768D01*
X0191620Y0093817D01*
X0191582Y0093863D01*
X0191540Y0093907D01*
X0191496Y0093949D01*
X0191450Y0093987D01*
X0191401Y0094023D01*
X0191350Y0094056D01*
X0191298Y0094085D01*
X0191243Y0094112D01*
X0191188Y0094135D01*
X0191131Y0094155D01*
X0191072Y0094171D01*
X0191013Y0094184D01*
X0190954Y0094193D01*
X0190893Y0094198D01*
X0190833Y0094200D01*
X0184833Y0094200D01*
X0184773Y0094198D01*
X0184712Y0094193D01*
X0184653Y0094184D01*
X0184594Y0094171D01*
X0184535Y0094155D01*
X0184478Y0094135D01*
X0184423Y0094112D01*
X0184368Y0094085D01*
X0184316Y0094056D01*
X0184265Y0094023D01*
X0184216Y0093987D01*
X0184170Y0093949D01*
X0184126Y0093907D01*
X0184084Y0093863D01*
X0184046Y0093817D01*
X0184010Y0093768D01*
X0183977Y0093717D01*
X0183948Y0093665D01*
X0183921Y0093610D01*
X0183898Y0093555D01*
X0183878Y0093498D01*
X0183862Y0093439D01*
X0183849Y0093380D01*
X0183840Y0093321D01*
X0183835Y0093260D01*
X0183833Y0093200D01*
X0183833Y0083200D01*
X0183835Y0083140D01*
X0183840Y0083079D01*
X0183849Y0083020D01*
X0183862Y0082961D01*
X0183878Y0082902D01*
X0183898Y0082845D01*
X0183921Y0082790D01*
X0183948Y0082735D01*
X0183977Y0082683D01*
X0184010Y0082632D01*
X0184046Y0082583D01*
X0184084Y0082537D01*
X0184126Y0082493D01*
X0184170Y0082451D01*
X0184216Y0082413D01*
X0184265Y0082377D01*
X0184316Y0082344D01*
X0184368Y0082315D01*
X0184423Y0082288D01*
X0184478Y0082265D01*
X0184535Y0082245D01*
X0184594Y0082229D01*
X0184653Y0082216D01*
X0184712Y0082207D01*
X0184773Y0082202D01*
X0184833Y0082200D01*
X0190833Y0082200D01*
X0190893Y0082202D01*
X0190954Y0082207D01*
X0191013Y0082216D01*
X0191072Y0082229D01*
X0191131Y0082245D01*
X0191188Y0082265D01*
X0191243Y0082288D01*
X0191298Y0082315D01*
X0191350Y0082344D01*
X0191401Y0082377D01*
X0191450Y0082413D01*
X0191496Y0082451D01*
X0191540Y0082493D01*
X0191582Y0082537D01*
X0191620Y0082583D01*
X0191656Y0082632D01*
X0191689Y0082683D01*
X0191718Y0082735D01*
X0191745Y0082790D01*
X0191768Y0082845D01*
X0191788Y0082902D01*
X0191804Y0082961D01*
X0191817Y0083020D01*
X0191826Y0083079D01*
X0191831Y0083140D01*
X0191833Y0083200D01*
D14*
X0182785Y0089080D02*
X0182534Y0088830D01*
X0182284Y0088830D01*
X0182034Y0089080D01*
X0182034Y0089581D01*
X0181784Y0089831D01*
X0181534Y0089831D01*
X0181283Y0089581D01*
X0181283Y0089080D01*
X0181534Y0088830D01*
X0182785Y0089080D02*
X0182785Y0089581D01*
X0182534Y0089831D01*
X0182785Y0090804D02*
X0182785Y0091304D01*
X0182785Y0091054D02*
X0181534Y0091054D01*
X0181283Y0090804D01*
X0181283Y0090554D01*
X0181534Y0090303D01*
X0181283Y0091777D02*
X0181283Y0092778D01*
X0181283Y0092277D02*
X0182785Y0092277D01*
X0182284Y0091777D01*
X0162033Y0084501D02*
X0162033Y0084251D01*
X0161783Y0084001D01*
X0161283Y0084001D01*
X0161032Y0083750D01*
X0161032Y0083500D01*
X0161283Y0083250D01*
X0161783Y0083250D01*
X0162033Y0083500D01*
X0162033Y0084501D02*
X0161783Y0084751D01*
X0161283Y0084751D01*
X0161032Y0084501D01*
X0160060Y0084751D02*
X0159559Y0084751D01*
X0159809Y0084751D02*
X0159809Y0083500D01*
X0160060Y0083250D01*
X0160310Y0083250D01*
X0160560Y0083500D01*
X0159087Y0083500D02*
X0158837Y0083250D01*
X0158336Y0083250D01*
X0158086Y0083500D01*
X0158086Y0083750D01*
X0158336Y0084001D01*
X0158586Y0084001D01*
X0158336Y0084001D02*
X0158086Y0084251D01*
X0158086Y0084501D01*
X0158336Y0084751D01*
X0158837Y0084751D01*
X0159087Y0084501D01*
X0159087Y0103250D02*
X0158086Y0104251D01*
X0158086Y0104501D01*
X0158336Y0104751D01*
X0158837Y0104751D01*
X0159087Y0104501D01*
X0159559Y0104751D02*
X0160060Y0104751D01*
X0159809Y0104751D02*
X0159809Y0103500D01*
X0160060Y0103250D01*
X0160310Y0103250D01*
X0160560Y0103500D01*
X0161032Y0103500D02*
X0161283Y0103250D01*
X0161783Y0103250D01*
X0162033Y0103500D01*
X0161783Y0104001D02*
X0161283Y0104001D01*
X0161032Y0103750D01*
X0161032Y0103500D01*
X0161783Y0104001D02*
X0162033Y0104251D01*
X0162033Y0104501D01*
X0161783Y0104751D01*
X0161283Y0104751D01*
X0161032Y0104501D01*
X0159087Y0103250D02*
X0158086Y0103250D01*
D15*
X0234941Y0097563D03*
D16*
X0236715Y0101889D02*
X0246951Y0101889D01*
X0246951Y0088700D01*
X0251676Y0088700D01*
X0252857Y0087519D01*
X0252857Y0084763D01*
X0251676Y0083582D01*
X0246951Y0083582D01*
X0246951Y0075511D01*
X0236715Y0075511D01*
X0236715Y0101889D01*
X0246951Y0088700D02*
X0246951Y0083582D01*
D17*
X0234936Y0085744D03*
D18*
X0234940Y0079836D03*
D19*
X0237301Y0074510D03*
D20*
X0246364Y0074520D03*
D21*
X0246368Y0102893D03*
D22*
X0237303Y0102884D03*
D23*
X0243033Y0106374D02*
X0245505Y0106374D01*
X0244269Y0106374D02*
X0244269Y0110083D01*
X0245505Y0108846D01*
X0246721Y0108846D02*
X0247339Y0108228D01*
X0249194Y0108228D01*
X0249194Y0106374D02*
X0247339Y0106374D01*
X0246721Y0106992D01*
X0246721Y0107610D01*
X0247339Y0108228D01*
X0246721Y0108846D02*
X0246721Y0109465D01*
X0247339Y0110083D01*
X0249194Y0110083D01*
X0249194Y0106374D01*
M02*
