G75*
%MOIN*%
%OFA0B0*%
%FSLAX25Y25*%
%IPPOS*%
%LPD*%
%AMOC8*
5,1,8,0,0,1.08239X$1,22.5*
%
%ADD10C,0.00800*%
%ADD11C,0.00400*%
%ADD12C,0.00000*%
%ADD13R,0.05000X0.02500*%
%ADD14R,0.02500X0.05000*%
%ADD15R,0.05906X0.02756*%
%ADD16R,0.03150X0.03937*%
%ADD17C,0.01000*%
%ADD18C,0.02900*%
%ADD19C,0.03400*%
%ADD20C,0.02778*%
%ADD21C,0.01200*%
D10*
X0123333Y0058200D02*
X0248333Y0058200D01*
X0248333Y0118200D01*
X0123333Y0118200D01*
X0123333Y0058200D01*
X0156833Y0078200D02*
X0159833Y0078200D01*
X0159833Y0098200D02*
X0156833Y0098200D01*
D11*
X0170089Y0067237D02*
X0170089Y0064167D01*
X0169322Y0063400D01*
X0167787Y0064167D02*
X0167020Y0063400D01*
X0165485Y0063400D01*
X0164718Y0064167D01*
X0164718Y0065702D01*
X0165485Y0066469D01*
X0167020Y0066469D01*
X0167787Y0065702D01*
X0167787Y0064167D01*
X0169322Y0066469D02*
X0170856Y0066469D01*
X0172391Y0066469D02*
X0173925Y0066469D01*
X0173158Y0067237D02*
X0173158Y0064167D01*
X0172391Y0063400D01*
X0175460Y0064167D02*
X0176227Y0063400D01*
X0177762Y0063400D01*
X0178529Y0064167D01*
X0178529Y0065702D01*
X0177762Y0066469D01*
X0176227Y0066469D01*
X0175460Y0065702D01*
X0175460Y0064167D01*
X0180064Y0064167D02*
X0180064Y0065702D01*
X0180831Y0066469D01*
X0183133Y0066469D01*
X0183133Y0068004D02*
X0183133Y0063400D01*
X0180831Y0063400D01*
X0180064Y0064167D01*
X0163183Y0063400D02*
X0163183Y0066469D01*
X0162416Y0066469D01*
X0161648Y0065702D01*
X0160881Y0066469D01*
X0160114Y0065702D01*
X0160114Y0063400D01*
X0161648Y0063400D02*
X0161648Y0065702D01*
D12*
X0138322Y0081220D02*
X0138324Y0081301D01*
X0138330Y0081383D01*
X0138340Y0081464D01*
X0138354Y0081544D01*
X0138371Y0081623D01*
X0138393Y0081702D01*
X0138418Y0081779D01*
X0138447Y0081856D01*
X0138480Y0081930D01*
X0138517Y0082003D01*
X0138556Y0082074D01*
X0138600Y0082143D01*
X0138646Y0082210D01*
X0138696Y0082274D01*
X0138749Y0082336D01*
X0138805Y0082396D01*
X0138863Y0082452D01*
X0138925Y0082506D01*
X0138989Y0082557D01*
X0139055Y0082604D01*
X0139123Y0082648D01*
X0139194Y0082689D01*
X0139266Y0082726D01*
X0139341Y0082760D01*
X0139416Y0082790D01*
X0139494Y0082816D01*
X0139572Y0082839D01*
X0139651Y0082857D01*
X0139731Y0082872D01*
X0139812Y0082883D01*
X0139893Y0082890D01*
X0139975Y0082893D01*
X0140056Y0082892D01*
X0140137Y0082887D01*
X0140218Y0082878D01*
X0140299Y0082865D01*
X0140379Y0082848D01*
X0140457Y0082828D01*
X0140535Y0082803D01*
X0140612Y0082775D01*
X0140687Y0082743D01*
X0140760Y0082708D01*
X0140831Y0082669D01*
X0140901Y0082626D01*
X0140968Y0082581D01*
X0141034Y0082532D01*
X0141096Y0082480D01*
X0141156Y0082424D01*
X0141213Y0082366D01*
X0141268Y0082306D01*
X0141319Y0082242D01*
X0141367Y0082177D01*
X0141412Y0082109D01*
X0141454Y0082039D01*
X0141492Y0081967D01*
X0141527Y0081893D01*
X0141558Y0081818D01*
X0141585Y0081741D01*
X0141608Y0081663D01*
X0141628Y0081584D01*
X0141644Y0081504D01*
X0141656Y0081423D01*
X0141664Y0081342D01*
X0141668Y0081261D01*
X0141668Y0081179D01*
X0141664Y0081098D01*
X0141656Y0081017D01*
X0141644Y0080936D01*
X0141628Y0080856D01*
X0141608Y0080777D01*
X0141585Y0080699D01*
X0141558Y0080622D01*
X0141527Y0080547D01*
X0141492Y0080473D01*
X0141454Y0080401D01*
X0141412Y0080331D01*
X0141367Y0080263D01*
X0141319Y0080198D01*
X0141268Y0080134D01*
X0141213Y0080074D01*
X0141156Y0080016D01*
X0141096Y0079960D01*
X0141034Y0079908D01*
X0140968Y0079859D01*
X0140901Y0079814D01*
X0140832Y0079771D01*
X0140760Y0079732D01*
X0140687Y0079697D01*
X0140612Y0079665D01*
X0140535Y0079637D01*
X0140457Y0079612D01*
X0140379Y0079592D01*
X0140299Y0079575D01*
X0140218Y0079562D01*
X0140137Y0079553D01*
X0140056Y0079548D01*
X0139975Y0079547D01*
X0139893Y0079550D01*
X0139812Y0079557D01*
X0139731Y0079568D01*
X0139651Y0079583D01*
X0139572Y0079601D01*
X0139494Y0079624D01*
X0139416Y0079650D01*
X0139341Y0079680D01*
X0139266Y0079714D01*
X0139194Y0079751D01*
X0139123Y0079792D01*
X0139055Y0079836D01*
X0138989Y0079883D01*
X0138925Y0079934D01*
X0138863Y0079988D01*
X0138805Y0080044D01*
X0138749Y0080104D01*
X0138696Y0080166D01*
X0138646Y0080230D01*
X0138600Y0080297D01*
X0138556Y0080366D01*
X0138517Y0080437D01*
X0138480Y0080510D01*
X0138447Y0080584D01*
X0138418Y0080661D01*
X0138393Y0080738D01*
X0138371Y0080817D01*
X0138354Y0080896D01*
X0138340Y0080976D01*
X0138330Y0081057D01*
X0138324Y0081139D01*
X0138322Y0081220D01*
X0138322Y0096180D02*
X0138324Y0096261D01*
X0138330Y0096343D01*
X0138340Y0096424D01*
X0138354Y0096504D01*
X0138371Y0096583D01*
X0138393Y0096662D01*
X0138418Y0096739D01*
X0138447Y0096816D01*
X0138480Y0096890D01*
X0138517Y0096963D01*
X0138556Y0097034D01*
X0138600Y0097103D01*
X0138646Y0097170D01*
X0138696Y0097234D01*
X0138749Y0097296D01*
X0138805Y0097356D01*
X0138863Y0097412D01*
X0138925Y0097466D01*
X0138989Y0097517D01*
X0139055Y0097564D01*
X0139123Y0097608D01*
X0139194Y0097649D01*
X0139266Y0097686D01*
X0139341Y0097720D01*
X0139416Y0097750D01*
X0139494Y0097776D01*
X0139572Y0097799D01*
X0139651Y0097817D01*
X0139731Y0097832D01*
X0139812Y0097843D01*
X0139893Y0097850D01*
X0139975Y0097853D01*
X0140056Y0097852D01*
X0140137Y0097847D01*
X0140218Y0097838D01*
X0140299Y0097825D01*
X0140379Y0097808D01*
X0140457Y0097788D01*
X0140535Y0097763D01*
X0140612Y0097735D01*
X0140687Y0097703D01*
X0140760Y0097668D01*
X0140831Y0097629D01*
X0140901Y0097586D01*
X0140968Y0097541D01*
X0141034Y0097492D01*
X0141096Y0097440D01*
X0141156Y0097384D01*
X0141213Y0097326D01*
X0141268Y0097266D01*
X0141319Y0097202D01*
X0141367Y0097137D01*
X0141412Y0097069D01*
X0141454Y0096999D01*
X0141492Y0096927D01*
X0141527Y0096853D01*
X0141558Y0096778D01*
X0141585Y0096701D01*
X0141608Y0096623D01*
X0141628Y0096544D01*
X0141644Y0096464D01*
X0141656Y0096383D01*
X0141664Y0096302D01*
X0141668Y0096221D01*
X0141668Y0096139D01*
X0141664Y0096058D01*
X0141656Y0095977D01*
X0141644Y0095896D01*
X0141628Y0095816D01*
X0141608Y0095737D01*
X0141585Y0095659D01*
X0141558Y0095582D01*
X0141527Y0095507D01*
X0141492Y0095433D01*
X0141454Y0095361D01*
X0141412Y0095291D01*
X0141367Y0095223D01*
X0141319Y0095158D01*
X0141268Y0095094D01*
X0141213Y0095034D01*
X0141156Y0094976D01*
X0141096Y0094920D01*
X0141034Y0094868D01*
X0140968Y0094819D01*
X0140901Y0094774D01*
X0140832Y0094731D01*
X0140760Y0094692D01*
X0140687Y0094657D01*
X0140612Y0094625D01*
X0140535Y0094597D01*
X0140457Y0094572D01*
X0140379Y0094552D01*
X0140299Y0094535D01*
X0140218Y0094522D01*
X0140137Y0094513D01*
X0140056Y0094508D01*
X0139975Y0094507D01*
X0139893Y0094510D01*
X0139812Y0094517D01*
X0139731Y0094528D01*
X0139651Y0094543D01*
X0139572Y0094561D01*
X0139494Y0094584D01*
X0139416Y0094610D01*
X0139341Y0094640D01*
X0139266Y0094674D01*
X0139194Y0094711D01*
X0139123Y0094752D01*
X0139055Y0094796D01*
X0138989Y0094843D01*
X0138925Y0094894D01*
X0138863Y0094948D01*
X0138805Y0095004D01*
X0138749Y0095064D01*
X0138696Y0095126D01*
X0138646Y0095190D01*
X0138600Y0095257D01*
X0138556Y0095326D01*
X0138517Y0095397D01*
X0138480Y0095470D01*
X0138447Y0095544D01*
X0138418Y0095621D01*
X0138393Y0095698D01*
X0138371Y0095777D01*
X0138354Y0095856D01*
X0138340Y0095936D01*
X0138330Y0096017D01*
X0138324Y0096099D01*
X0138322Y0096180D01*
X0240061Y0094606D02*
X0240063Y0094690D01*
X0240069Y0094773D01*
X0240079Y0094856D01*
X0240093Y0094939D01*
X0240110Y0095021D01*
X0240132Y0095102D01*
X0240157Y0095181D01*
X0240186Y0095260D01*
X0240219Y0095337D01*
X0240255Y0095412D01*
X0240295Y0095486D01*
X0240338Y0095558D01*
X0240385Y0095627D01*
X0240435Y0095694D01*
X0240488Y0095759D01*
X0240544Y0095821D01*
X0240602Y0095881D01*
X0240664Y0095938D01*
X0240728Y0095991D01*
X0240795Y0096042D01*
X0240864Y0096089D01*
X0240935Y0096134D01*
X0241008Y0096174D01*
X0241083Y0096211D01*
X0241160Y0096245D01*
X0241238Y0096275D01*
X0241317Y0096301D01*
X0241398Y0096324D01*
X0241480Y0096342D01*
X0241562Y0096357D01*
X0241645Y0096368D01*
X0241728Y0096375D01*
X0241812Y0096378D01*
X0241896Y0096377D01*
X0241979Y0096372D01*
X0242063Y0096363D01*
X0242145Y0096350D01*
X0242227Y0096334D01*
X0242308Y0096313D01*
X0242389Y0096289D01*
X0242467Y0096261D01*
X0242545Y0096229D01*
X0242621Y0096193D01*
X0242695Y0096154D01*
X0242767Y0096112D01*
X0242837Y0096066D01*
X0242905Y0096017D01*
X0242970Y0095965D01*
X0243033Y0095910D01*
X0243093Y0095852D01*
X0243151Y0095791D01*
X0243205Y0095727D01*
X0243257Y0095661D01*
X0243305Y0095593D01*
X0243350Y0095522D01*
X0243391Y0095449D01*
X0243430Y0095375D01*
X0243464Y0095299D01*
X0243495Y0095221D01*
X0243522Y0095142D01*
X0243546Y0095061D01*
X0243565Y0094980D01*
X0243581Y0094898D01*
X0243593Y0094815D01*
X0243601Y0094731D01*
X0243605Y0094648D01*
X0243605Y0094564D01*
X0243601Y0094481D01*
X0243593Y0094397D01*
X0243581Y0094314D01*
X0243565Y0094232D01*
X0243546Y0094151D01*
X0243522Y0094070D01*
X0243495Y0093991D01*
X0243464Y0093913D01*
X0243430Y0093837D01*
X0243391Y0093763D01*
X0243350Y0093690D01*
X0243305Y0093619D01*
X0243257Y0093551D01*
X0243205Y0093485D01*
X0243151Y0093421D01*
X0243093Y0093360D01*
X0243033Y0093302D01*
X0242970Y0093247D01*
X0242905Y0093195D01*
X0242837Y0093146D01*
X0242767Y0093100D01*
X0242695Y0093058D01*
X0242621Y0093019D01*
X0242545Y0092983D01*
X0242467Y0092951D01*
X0242389Y0092923D01*
X0242308Y0092899D01*
X0242227Y0092878D01*
X0242145Y0092862D01*
X0242063Y0092849D01*
X0241979Y0092840D01*
X0241896Y0092835D01*
X0241812Y0092834D01*
X0241728Y0092837D01*
X0241645Y0092844D01*
X0241562Y0092855D01*
X0241480Y0092870D01*
X0241398Y0092888D01*
X0241317Y0092911D01*
X0241238Y0092937D01*
X0241160Y0092967D01*
X0241083Y0093001D01*
X0241008Y0093038D01*
X0240935Y0093078D01*
X0240864Y0093123D01*
X0240795Y0093170D01*
X0240728Y0093221D01*
X0240664Y0093274D01*
X0240602Y0093331D01*
X0240544Y0093391D01*
X0240488Y0093453D01*
X0240435Y0093518D01*
X0240385Y0093585D01*
X0240338Y0093654D01*
X0240295Y0093726D01*
X0240255Y0093800D01*
X0240219Y0093875D01*
X0240186Y0093952D01*
X0240157Y0094031D01*
X0240132Y0094110D01*
X0240110Y0094191D01*
X0240093Y0094273D01*
X0240079Y0094356D01*
X0240069Y0094439D01*
X0240063Y0094522D01*
X0240061Y0094606D01*
X0240061Y0082794D02*
X0240063Y0082878D01*
X0240069Y0082961D01*
X0240079Y0083044D01*
X0240093Y0083127D01*
X0240110Y0083209D01*
X0240132Y0083290D01*
X0240157Y0083369D01*
X0240186Y0083448D01*
X0240219Y0083525D01*
X0240255Y0083600D01*
X0240295Y0083674D01*
X0240338Y0083746D01*
X0240385Y0083815D01*
X0240435Y0083882D01*
X0240488Y0083947D01*
X0240544Y0084009D01*
X0240602Y0084069D01*
X0240664Y0084126D01*
X0240728Y0084179D01*
X0240795Y0084230D01*
X0240864Y0084277D01*
X0240935Y0084322D01*
X0241008Y0084362D01*
X0241083Y0084399D01*
X0241160Y0084433D01*
X0241238Y0084463D01*
X0241317Y0084489D01*
X0241398Y0084512D01*
X0241480Y0084530D01*
X0241562Y0084545D01*
X0241645Y0084556D01*
X0241728Y0084563D01*
X0241812Y0084566D01*
X0241896Y0084565D01*
X0241979Y0084560D01*
X0242063Y0084551D01*
X0242145Y0084538D01*
X0242227Y0084522D01*
X0242308Y0084501D01*
X0242389Y0084477D01*
X0242467Y0084449D01*
X0242545Y0084417D01*
X0242621Y0084381D01*
X0242695Y0084342D01*
X0242767Y0084300D01*
X0242837Y0084254D01*
X0242905Y0084205D01*
X0242970Y0084153D01*
X0243033Y0084098D01*
X0243093Y0084040D01*
X0243151Y0083979D01*
X0243205Y0083915D01*
X0243257Y0083849D01*
X0243305Y0083781D01*
X0243350Y0083710D01*
X0243391Y0083637D01*
X0243430Y0083563D01*
X0243464Y0083487D01*
X0243495Y0083409D01*
X0243522Y0083330D01*
X0243546Y0083249D01*
X0243565Y0083168D01*
X0243581Y0083086D01*
X0243593Y0083003D01*
X0243601Y0082919D01*
X0243605Y0082836D01*
X0243605Y0082752D01*
X0243601Y0082669D01*
X0243593Y0082585D01*
X0243581Y0082502D01*
X0243565Y0082420D01*
X0243546Y0082339D01*
X0243522Y0082258D01*
X0243495Y0082179D01*
X0243464Y0082101D01*
X0243430Y0082025D01*
X0243391Y0081951D01*
X0243350Y0081878D01*
X0243305Y0081807D01*
X0243257Y0081739D01*
X0243205Y0081673D01*
X0243151Y0081609D01*
X0243093Y0081548D01*
X0243033Y0081490D01*
X0242970Y0081435D01*
X0242905Y0081383D01*
X0242837Y0081334D01*
X0242767Y0081288D01*
X0242695Y0081246D01*
X0242621Y0081207D01*
X0242545Y0081171D01*
X0242467Y0081139D01*
X0242389Y0081111D01*
X0242308Y0081087D01*
X0242227Y0081066D01*
X0242145Y0081050D01*
X0242063Y0081037D01*
X0241979Y0081028D01*
X0241896Y0081023D01*
X0241812Y0081022D01*
X0241728Y0081025D01*
X0241645Y0081032D01*
X0241562Y0081043D01*
X0241480Y0081058D01*
X0241398Y0081076D01*
X0241317Y0081099D01*
X0241238Y0081125D01*
X0241160Y0081155D01*
X0241083Y0081189D01*
X0241008Y0081226D01*
X0240935Y0081266D01*
X0240864Y0081311D01*
X0240795Y0081358D01*
X0240728Y0081409D01*
X0240664Y0081462D01*
X0240602Y0081519D01*
X0240544Y0081579D01*
X0240488Y0081641D01*
X0240435Y0081706D01*
X0240385Y0081773D01*
X0240338Y0081842D01*
X0240295Y0081914D01*
X0240255Y0081988D01*
X0240219Y0082063D01*
X0240186Y0082140D01*
X0240157Y0082219D01*
X0240132Y0082298D01*
X0240110Y0082379D01*
X0240093Y0082461D01*
X0240079Y0082544D01*
X0240069Y0082627D01*
X0240063Y0082710D01*
X0240061Y0082794D01*
D13*
X0187833Y0084700D03*
X0187833Y0088200D03*
X0187833Y0091700D03*
D14*
X0160333Y0098200D03*
X0156333Y0098200D03*
X0156333Y0078200D03*
X0160333Y0078200D03*
D15*
X0233959Y0079842D03*
X0233959Y0085747D03*
X0233959Y0097558D03*
D16*
X0237503Y0103070D03*
X0246164Y0103070D03*
X0246164Y0074330D03*
X0237503Y0074330D03*
D17*
X0240777Y0074176D02*
X0242889Y0074176D01*
X0242889Y0073178D02*
X0240777Y0073178D01*
X0240777Y0072179D02*
X0242889Y0072179D01*
X0242889Y0071657D02*
X0243885Y0070661D01*
X0246233Y0070661D01*
X0246233Y0060300D01*
X0125433Y0060300D01*
X0125433Y0116100D01*
X0246233Y0116100D01*
X0246233Y0106739D01*
X0243885Y0106739D01*
X0242889Y0105743D01*
X0242889Y0100397D01*
X0243885Y0099402D01*
X0246233Y0099402D01*
X0246233Y0077998D01*
X0243885Y0077998D01*
X0242889Y0077003D01*
X0242889Y0071657D01*
X0243366Y0071181D02*
X0240301Y0071181D01*
X0240777Y0071657D02*
X0239782Y0070661D01*
X0235224Y0070661D01*
X0234228Y0071657D01*
X0234228Y0076764D01*
X0230302Y0076764D01*
X0229307Y0077760D01*
X0229307Y0081924D01*
X0230177Y0082794D01*
X0229524Y0083447D01*
X0227239Y0083447D01*
X0226039Y0082247D01*
X0224692Y0080900D01*
X0217886Y0080900D01*
X0217486Y0080500D01*
X0217345Y0080500D01*
X0215445Y0078600D01*
X0211063Y0078600D01*
X0211383Y0077827D01*
X0211383Y0076573D01*
X0210904Y0075416D01*
X0210018Y0074530D01*
X0208860Y0074050D01*
X0207607Y0074050D01*
X0206449Y0074530D01*
X0205563Y0075416D01*
X0205114Y0076500D01*
X0179422Y0076500D01*
X0171133Y0084789D01*
X0171133Y0089445D01*
X0170663Y0089916D01*
X0170183Y0091073D01*
X0170183Y0091739D01*
X0168922Y0093000D01*
X0167745Y0093000D01*
X0165863Y0091118D01*
X0151055Y0091118D01*
X0149905Y0092268D01*
X0149240Y0092268D01*
X0148082Y0092748D01*
X0147763Y0093066D01*
X0147763Y0090251D01*
X0150615Y0087400D01*
X0158245Y0087400D01*
X0159533Y0086111D01*
X0159533Y0086111D01*
X0162533Y0083111D01*
X0162533Y0082154D01*
X0163283Y0081404D01*
X0163283Y0074996D01*
X0162287Y0074000D01*
X0158379Y0074000D01*
X0158333Y0074046D01*
X0158287Y0074000D01*
X0154379Y0074000D01*
X0153383Y0074996D01*
X0153383Y0076000D01*
X0152388Y0076000D01*
X0151518Y0075130D01*
X0150360Y0074650D01*
X0149107Y0074650D01*
X0147949Y0075130D01*
X0147063Y0076016D01*
X0146583Y0077173D01*
X0146583Y0078427D01*
X0147063Y0079584D01*
X0147949Y0080470D01*
X0149107Y0080950D01*
X0150360Y0080950D01*
X0151518Y0080470D01*
X0151588Y0080400D01*
X0153383Y0080400D01*
X0153383Y0081404D01*
X0154379Y0082400D01*
X0157022Y0082400D01*
X0156422Y0083000D01*
X0148792Y0083000D01*
X0144652Y0087140D01*
X0143363Y0088429D01*
X0143363Y0095498D01*
X0142854Y0094270D01*
X0141906Y0093321D01*
X0140666Y0092807D01*
X0139324Y0092807D01*
X0138693Y0093068D01*
X0138693Y0084332D01*
X0139324Y0084593D01*
X0140666Y0084593D01*
X0141906Y0084079D01*
X0142854Y0083130D01*
X0143368Y0081891D01*
X0143368Y0080549D01*
X0142854Y0079309D01*
X0141906Y0078360D01*
X0140666Y0077846D01*
X0139324Y0077846D01*
X0138693Y0078108D01*
X0138693Y0073451D01*
X0139245Y0072900D01*
X0142679Y0072900D01*
X0143149Y0073370D01*
X0144307Y0073850D01*
X0145560Y0073850D01*
X0146718Y0073370D01*
X0147188Y0072900D01*
X0165714Y0072900D01*
X0166163Y0073984D01*
X0167049Y0074870D01*
X0168207Y0075350D01*
X0169460Y0075350D01*
X0170618Y0074870D01*
X0171504Y0073984D01*
X0171983Y0072827D01*
X0171983Y0071573D01*
X0171504Y0070416D01*
X0170618Y0069530D01*
X0169669Y0069137D01*
X0170876Y0069137D01*
X0171624Y0068389D01*
X0172371Y0069137D01*
X0173945Y0069137D01*
X0175058Y0068024D01*
X0175058Y0068024D01*
X0175076Y0068005D01*
X0175440Y0068369D01*
X0176975Y0068369D01*
X0176975Y0068369D01*
X0177770Y0068369D01*
X0178549Y0068369D01*
X0178549Y0068369D01*
X0178549Y0068369D01*
X0179297Y0067622D01*
X0180044Y0068369D01*
X0181233Y0068369D01*
X0181233Y0068791D01*
X0182346Y0069904D01*
X0183920Y0069904D01*
X0185033Y0068791D01*
X0185033Y0062613D01*
X0183920Y0061500D01*
X0180839Y0061500D01*
X0180044Y0061500D01*
X0179297Y0062248D01*
X0178549Y0061500D01*
X0176236Y0061500D01*
X0175440Y0061500D01*
X0174673Y0062267D01*
X0174673Y0062267D01*
X0174487Y0062454D01*
X0174309Y0062631D01*
X0174104Y0062426D01*
X0173945Y0062267D01*
X0173945Y0062267D01*
X0173178Y0061500D01*
X0171604Y0061500D01*
X0170856Y0062248D01*
X0170109Y0061500D01*
X0168535Y0061500D01*
X0168171Y0061864D01*
X0167807Y0061500D01*
X0165493Y0061500D01*
X0164698Y0061500D01*
X0164334Y0061864D01*
X0163970Y0061500D01*
X0159327Y0061500D01*
X0158214Y0062613D01*
X0158214Y0066489D01*
X0158981Y0067256D01*
X0158981Y0067256D01*
X0160094Y0068369D01*
X0163970Y0068369D01*
X0164334Y0068005D01*
X0164698Y0068369D01*
X0166233Y0068369D01*
X0166233Y0068369D01*
X0167028Y0068369D01*
X0167807Y0068369D01*
X0167807Y0068369D01*
X0168171Y0068005D01*
X0168535Y0068369D01*
X0169215Y0069050D01*
X0168795Y0069050D01*
X0168245Y0068500D01*
X0147188Y0068500D01*
X0146718Y0068030D01*
X0145560Y0067550D01*
X0144307Y0067550D01*
X0143149Y0068030D01*
X0142679Y0068500D01*
X0137422Y0068500D01*
X0134293Y0071629D01*
X0134293Y0105051D01*
X0137142Y0107900D01*
X0142479Y0107900D01*
X0142949Y0108370D01*
X0144107Y0108850D01*
X0145360Y0108850D01*
X0146518Y0108370D01*
X0147404Y0107484D01*
X0147639Y0106917D01*
X0149922Y0109200D01*
X0158622Y0109200D01*
X0159722Y0110300D01*
X0185516Y0110300D01*
X0185615Y0110539D01*
X0186484Y0111408D01*
X0187619Y0111878D01*
X0188848Y0111878D01*
X0189983Y0111408D01*
X0190852Y0110539D01*
X0190909Y0110400D01*
X0209245Y0110400D01*
X0210533Y0109111D01*
X0210533Y0089050D01*
X0211660Y0089050D01*
X0212818Y0088570D01*
X0213704Y0087684D01*
X0214183Y0086527D01*
X0214183Y0085273D01*
X0213704Y0084116D01*
X0213333Y0083745D01*
X0213333Y0083000D01*
X0213622Y0083000D01*
X0214233Y0083611D01*
X0214233Y0083753D01*
X0214333Y0083853D01*
X0214333Y0107011D01*
X0215583Y0108261D01*
X0215583Y0108927D01*
X0216063Y0110084D01*
X0216949Y0110970D01*
X0218107Y0111450D01*
X0219360Y0111450D01*
X0220518Y0110970D01*
X0221404Y0110084D01*
X0221883Y0108927D01*
X0221883Y0107673D01*
X0221404Y0106516D01*
X0220518Y0105630D01*
X0219360Y0105150D01*
X0218733Y0105150D01*
X0218733Y0085500D01*
X0222786Y0085500D01*
X0225333Y0088047D01*
X0229524Y0088047D01*
X0230302Y0088825D01*
X0237616Y0088825D01*
X0238612Y0087829D01*
X0238612Y0084089D01*
X0238890Y0084761D01*
X0239867Y0085738D01*
X0241143Y0086266D01*
X0242524Y0086266D01*
X0243800Y0085738D01*
X0244776Y0084761D01*
X0245305Y0083485D01*
X0245305Y0082104D01*
X0244776Y0080828D01*
X0243800Y0079851D01*
X0242524Y0079323D01*
X0241143Y0079323D01*
X0239867Y0079851D01*
X0238890Y0080828D01*
X0238612Y0081499D01*
X0238612Y0077998D01*
X0239782Y0077998D01*
X0240777Y0077003D01*
X0240777Y0071657D01*
X0246233Y0070182D02*
X0171270Y0070182D01*
X0171821Y0071181D02*
X0234704Y0071181D01*
X0234228Y0072179D02*
X0171983Y0072179D01*
X0171838Y0073178D02*
X0234228Y0073178D01*
X0234228Y0074176D02*
X0209165Y0074176D01*
X0210663Y0075175D02*
X0234228Y0075175D01*
X0234228Y0076173D02*
X0211218Y0076173D01*
X0211383Y0077172D02*
X0229894Y0077172D01*
X0229307Y0078170D02*
X0211241Y0078170D01*
X0208233Y0077200D02*
X0206733Y0078700D01*
X0187833Y0078700D01*
X0187833Y0084700D01*
X0187833Y0087700D01*
X0187833Y0088200D02*
X0193215Y0088200D01*
X0193704Y0087711D01*
X0193704Y0084929D01*
X0197833Y0080800D01*
X0214533Y0080800D01*
X0216533Y0082800D01*
X0216533Y0106100D01*
X0218733Y0108300D01*
X0221657Y0107127D02*
X0246233Y0107127D01*
X0246233Y0108126D02*
X0221883Y0108126D01*
X0221802Y0109124D02*
X0246233Y0109124D01*
X0246233Y0110123D02*
X0221366Y0110123D01*
X0220154Y0111121D02*
X0246233Y0111121D01*
X0246233Y0112120D02*
X0125433Y0112120D01*
X0125433Y0113118D02*
X0246233Y0113118D01*
X0246233Y0114117D02*
X0125433Y0114117D01*
X0125433Y0115115D02*
X0246233Y0115115D01*
X0243275Y0106129D02*
X0240392Y0106129D01*
X0240777Y0105743D02*
X0239782Y0106739D01*
X0235224Y0106739D01*
X0234228Y0105743D01*
X0234228Y0100636D01*
X0233993Y0100636D01*
X0231145Y0103484D01*
X0230952Y0103950D01*
X0230083Y0104819D01*
X0228948Y0105289D01*
X0227719Y0105289D01*
X0226584Y0104819D01*
X0225715Y0103950D01*
X0225244Y0102814D01*
X0225244Y0101586D01*
X0225715Y0100450D01*
X0226584Y0099581D01*
X0227719Y0099111D01*
X0228948Y0099111D01*
X0229193Y0099213D01*
X0229307Y0099100D01*
X0229307Y0095476D01*
X0230302Y0094480D01*
X0237616Y0094480D01*
X0238362Y0095226D01*
X0238362Y0093915D01*
X0238890Y0092639D01*
X0239867Y0091662D01*
X0241143Y0091134D01*
X0242524Y0091134D01*
X0243800Y0091662D01*
X0244776Y0092639D01*
X0245305Y0093915D01*
X0245305Y0095296D01*
X0244776Y0096572D01*
X0243800Y0097549D01*
X0242524Y0098077D01*
X0241143Y0098077D01*
X0239867Y0097549D01*
X0238890Y0096572D01*
X0238612Y0095901D01*
X0238612Y0099402D01*
X0239782Y0099402D01*
X0240777Y0100397D01*
X0240777Y0105743D01*
X0240777Y0105130D02*
X0242889Y0105130D01*
X0242889Y0104132D02*
X0240777Y0104132D01*
X0240777Y0103133D02*
X0242889Y0103133D01*
X0242889Y0102134D02*
X0240777Y0102134D01*
X0240777Y0101136D02*
X0242889Y0101136D01*
X0243149Y0100137D02*
X0240517Y0100137D01*
X0238612Y0099139D02*
X0246233Y0099139D01*
X0246233Y0098140D02*
X0238612Y0098140D01*
X0238612Y0097142D02*
X0239460Y0097142D01*
X0238713Y0096143D02*
X0238612Y0096143D01*
X0238362Y0095145D02*
X0238281Y0095145D01*
X0238362Y0094146D02*
X0218733Y0094146D01*
X0218733Y0093148D02*
X0238679Y0093148D01*
X0239380Y0092149D02*
X0218733Y0092149D01*
X0218733Y0091151D02*
X0241102Y0091151D01*
X0242565Y0091151D02*
X0246233Y0091151D01*
X0246233Y0092149D02*
X0244287Y0092149D01*
X0244987Y0093148D02*
X0246233Y0093148D01*
X0246233Y0094146D02*
X0245305Y0094146D01*
X0245305Y0095145D02*
X0246233Y0095145D01*
X0246233Y0096143D02*
X0244954Y0096143D01*
X0244207Y0097142D02*
X0246233Y0097142D01*
X0233959Y0097558D02*
X0229318Y0102200D01*
X0228333Y0102200D01*
X0225244Y0102134D02*
X0218733Y0102134D01*
X0218733Y0101136D02*
X0225431Y0101136D01*
X0226027Y0100137D02*
X0218733Y0100137D01*
X0218733Y0099139D02*
X0227651Y0099139D01*
X0229015Y0099139D02*
X0229267Y0099139D01*
X0229307Y0098140D02*
X0218733Y0098140D01*
X0218733Y0097142D02*
X0229307Y0097142D01*
X0229307Y0096143D02*
X0218733Y0096143D01*
X0218733Y0095145D02*
X0229638Y0095145D01*
X0233493Y0101136D02*
X0234228Y0101136D01*
X0234228Y0102134D02*
X0232494Y0102134D01*
X0231496Y0103133D02*
X0234228Y0103133D01*
X0234228Y0104132D02*
X0230770Y0104132D01*
X0229331Y0105130D02*
X0234228Y0105130D01*
X0234614Y0106129D02*
X0221017Y0106129D01*
X0218733Y0105130D02*
X0227335Y0105130D01*
X0225896Y0104132D02*
X0218733Y0104132D01*
X0218733Y0103133D02*
X0225376Y0103133D01*
X0214333Y0103133D02*
X0210533Y0103133D01*
X0210533Y0102134D02*
X0214333Y0102134D01*
X0214333Y0101136D02*
X0210533Y0101136D01*
X0210533Y0100137D02*
X0214333Y0100137D01*
X0214333Y0099139D02*
X0210533Y0099139D01*
X0210533Y0098140D02*
X0214333Y0098140D01*
X0214333Y0097142D02*
X0210533Y0097142D01*
X0210533Y0096143D02*
X0214333Y0096143D01*
X0214333Y0095145D02*
X0210533Y0095145D01*
X0210533Y0094146D02*
X0214333Y0094146D01*
X0214333Y0093148D02*
X0210533Y0093148D01*
X0210533Y0092149D02*
X0214333Y0092149D01*
X0214333Y0091151D02*
X0210533Y0091151D01*
X0210533Y0090152D02*
X0214333Y0090152D01*
X0214333Y0089154D02*
X0210533Y0089154D01*
X0208333Y0088600D02*
X0208333Y0108200D01*
X0191333Y0108200D01*
X0189333Y0106200D01*
X0162333Y0106200D01*
X0160333Y0104200D01*
X0160333Y0098200D01*
X0156333Y0098200D02*
X0152533Y0098200D01*
X0149933Y0100800D01*
X0145563Y0101730D02*
X0150833Y0107000D01*
X0159533Y0107000D01*
X0160633Y0108100D01*
X0188233Y0108100D01*
X0188233Y0108789D01*
X0192245Y0106000D02*
X0206133Y0106000D01*
X0206133Y0089511D01*
X0205772Y0089150D01*
X0205107Y0089150D01*
X0203949Y0088670D01*
X0203063Y0087784D01*
X0202583Y0086627D01*
X0202583Y0085373D01*
X0202821Y0084800D01*
X0200245Y0084800D01*
X0199033Y0086011D01*
X0199033Y0096111D01*
X0197745Y0097400D01*
X0192245Y0102900D01*
X0187745Y0102900D01*
X0186833Y0103811D01*
X0186645Y0104000D01*
X0190245Y0104000D01*
X0192245Y0106000D01*
X0191375Y0105130D02*
X0206133Y0105130D01*
X0206133Y0104132D02*
X0190376Y0104132D01*
X0187512Y0103133D02*
X0206133Y0103133D01*
X0206133Y0102134D02*
X0193010Y0102134D01*
X0194009Y0101136D02*
X0206133Y0101136D01*
X0206133Y0100137D02*
X0195007Y0100137D01*
X0196006Y0099139D02*
X0206133Y0099139D01*
X0206133Y0098140D02*
X0197004Y0098140D01*
X0198003Y0097142D02*
X0206133Y0097142D01*
X0206133Y0096143D02*
X0199001Y0096143D01*
X0199033Y0095145D02*
X0206133Y0095145D01*
X0206133Y0094146D02*
X0199033Y0094146D01*
X0199033Y0093148D02*
X0206133Y0093148D01*
X0206133Y0092149D02*
X0199033Y0092149D01*
X0199033Y0091151D02*
X0206133Y0091151D01*
X0206133Y0090152D02*
X0199033Y0090152D01*
X0199033Y0089154D02*
X0205776Y0089154D01*
X0203434Y0088155D02*
X0199033Y0088155D01*
X0199033Y0087157D02*
X0202803Y0087157D01*
X0202583Y0086158D02*
X0199033Y0086158D01*
X0199885Y0085160D02*
X0202672Y0085160D01*
X0205733Y0086000D02*
X0208333Y0088600D01*
X0211033Y0085900D02*
X0211133Y0085800D01*
X0211133Y0083600D01*
X0210133Y0082600D01*
X0199333Y0082600D01*
X0196833Y0085100D01*
X0196833Y0095200D01*
X0191333Y0100700D01*
X0186833Y0100700D01*
X0184633Y0102900D01*
X0173333Y0102900D01*
X0159545Y0110123D02*
X0125433Y0110123D01*
X0125433Y0111121D02*
X0186197Y0111121D01*
X0190270Y0111121D02*
X0217313Y0111121D01*
X0216101Y0110123D02*
X0209522Y0110123D01*
X0210521Y0109124D02*
X0215665Y0109124D01*
X0215448Y0108126D02*
X0210533Y0108126D01*
X0210533Y0107127D02*
X0214449Y0107127D01*
X0214333Y0106129D02*
X0210533Y0106129D01*
X0210533Y0105130D02*
X0214333Y0105130D01*
X0214333Y0104132D02*
X0210533Y0104132D01*
X0193333Y0093700D02*
X0191333Y0091700D01*
X0187833Y0091700D01*
X0183833Y0091700D01*
X0181083Y0088950D01*
X0181083Y0082900D01*
X0180333Y0078700D02*
X0173333Y0085700D01*
X0173333Y0091700D01*
X0169833Y0095200D01*
X0166833Y0095200D01*
X0164951Y0093318D01*
X0151966Y0093318D01*
X0149866Y0095418D01*
X0143363Y0095145D02*
X0143217Y0095145D01*
X0143363Y0094146D02*
X0142731Y0094146D01*
X0143363Y0093148D02*
X0141488Y0093148D01*
X0143363Y0092149D02*
X0138693Y0092149D01*
X0138693Y0091151D02*
X0143363Y0091151D01*
X0143363Y0090152D02*
X0138693Y0090152D01*
X0138693Y0089154D02*
X0143363Y0089154D01*
X0143637Y0088155D02*
X0138693Y0088155D01*
X0138693Y0087157D02*
X0144635Y0087157D01*
X0145634Y0086158D02*
X0138693Y0086158D01*
X0138693Y0085160D02*
X0146632Y0085160D01*
X0147631Y0084161D02*
X0141708Y0084161D01*
X0142822Y0083163D02*
X0148629Y0083163D01*
X0149703Y0085200D02*
X0145563Y0089340D01*
X0145563Y0101730D01*
X0144733Y0105700D02*
X0138053Y0105700D01*
X0136493Y0104140D01*
X0136493Y0072540D01*
X0138333Y0070700D01*
X0144933Y0070700D01*
X0167333Y0070700D01*
X0168833Y0072200D01*
X0165829Y0073178D02*
X0146910Y0073178D01*
X0142956Y0073178D02*
X0138967Y0073178D01*
X0138693Y0074176D02*
X0154203Y0074176D01*
X0153383Y0075175D02*
X0151563Y0075175D01*
X0149733Y0077800D02*
X0150133Y0078200D01*
X0156333Y0078200D01*
X0160333Y0078200D02*
X0160333Y0082200D01*
X0157333Y0085200D01*
X0149703Y0085200D01*
X0149859Y0088155D02*
X0171133Y0088155D01*
X0171133Y0087157D02*
X0158488Y0087157D01*
X0159486Y0086158D02*
X0171133Y0086158D01*
X0171133Y0085160D02*
X0160485Y0085160D01*
X0161483Y0084161D02*
X0171761Y0084161D01*
X0172759Y0083163D02*
X0162482Y0083163D01*
X0162533Y0082164D02*
X0173758Y0082164D01*
X0174756Y0081166D02*
X0163283Y0081166D01*
X0163283Y0080167D02*
X0175755Y0080167D01*
X0176753Y0079169D02*
X0163283Y0079169D01*
X0163283Y0078170D02*
X0177752Y0078170D01*
X0178750Y0077172D02*
X0163283Y0077172D01*
X0163283Y0076173D02*
X0205249Y0076173D01*
X0205804Y0075175D02*
X0169883Y0075175D01*
X0171312Y0074176D02*
X0207302Y0074176D01*
X0216013Y0079169D02*
X0229307Y0079169D01*
X0229307Y0080167D02*
X0217012Y0080167D01*
X0213785Y0083163D02*
X0213333Y0083163D01*
X0213723Y0084161D02*
X0214333Y0084161D01*
X0214333Y0085160D02*
X0214136Y0085160D01*
X0214183Y0086158D02*
X0214333Y0086158D01*
X0214333Y0087157D02*
X0213922Y0087157D01*
X0214333Y0088155D02*
X0213233Y0088155D01*
X0218733Y0088155D02*
X0229633Y0088155D01*
X0224443Y0087157D02*
X0218733Y0087157D01*
X0218733Y0086158D02*
X0223444Y0086158D01*
X0226954Y0083163D02*
X0229809Y0083163D01*
X0229547Y0082164D02*
X0225956Y0082164D01*
X0224957Y0081166D02*
X0229307Y0081166D01*
X0238612Y0081166D02*
X0238750Y0081166D01*
X0238612Y0080167D02*
X0239551Y0080167D01*
X0238612Y0079169D02*
X0246233Y0079169D01*
X0246233Y0080167D02*
X0244116Y0080167D01*
X0244916Y0081166D02*
X0246233Y0081166D01*
X0246233Y0082164D02*
X0245305Y0082164D01*
X0245305Y0083163D02*
X0246233Y0083163D01*
X0246233Y0084161D02*
X0245025Y0084161D01*
X0244378Y0085160D02*
X0246233Y0085160D01*
X0246233Y0086158D02*
X0242784Y0086158D01*
X0240882Y0086158D02*
X0238612Y0086158D01*
X0238612Y0085160D02*
X0239289Y0085160D01*
X0238642Y0084161D02*
X0238612Y0084161D01*
X0238612Y0087157D02*
X0246233Y0087157D01*
X0246233Y0088155D02*
X0238286Y0088155D01*
X0246233Y0089154D02*
X0218733Y0089154D01*
X0218733Y0090152D02*
X0246233Y0090152D01*
X0246233Y0078170D02*
X0238612Y0078170D01*
X0240608Y0077172D02*
X0243058Y0077172D01*
X0242889Y0076173D02*
X0240777Y0076173D01*
X0240777Y0075175D02*
X0242889Y0075175D01*
X0246233Y0069184D02*
X0184641Y0069184D01*
X0185033Y0068185D02*
X0246233Y0068185D01*
X0246233Y0067187D02*
X0185033Y0067187D01*
X0185033Y0066188D02*
X0246233Y0066188D01*
X0246233Y0065190D02*
X0185033Y0065190D01*
X0185033Y0064191D02*
X0246233Y0064191D01*
X0246233Y0063193D02*
X0185033Y0063193D01*
X0184614Y0062194D02*
X0246233Y0062194D01*
X0246233Y0061196D02*
X0125433Y0061196D01*
X0125433Y0062194D02*
X0158633Y0062194D01*
X0158214Y0063193D02*
X0125433Y0063193D01*
X0125433Y0064191D02*
X0158214Y0064191D01*
X0158214Y0065190D02*
X0125433Y0065190D01*
X0125433Y0066188D02*
X0158214Y0066188D01*
X0158911Y0067187D02*
X0125433Y0067187D01*
X0125433Y0068185D02*
X0142993Y0068185D01*
X0146873Y0068185D02*
X0159910Y0068185D01*
X0164154Y0068185D02*
X0164514Y0068185D01*
X0167807Y0068369D02*
X0167807Y0068369D01*
X0167991Y0068185D02*
X0168350Y0068185D01*
X0169782Y0069184D02*
X0181626Y0069184D01*
X0179860Y0068185D02*
X0178733Y0068185D01*
X0175256Y0068185D02*
X0174897Y0068185D01*
X0174746Y0062194D02*
X0173872Y0062194D01*
X0170910Y0062194D02*
X0170803Y0062194D01*
X0179243Y0062194D02*
X0179350Y0062194D01*
X0166355Y0074176D02*
X0162464Y0074176D01*
X0163283Y0075175D02*
X0167784Y0075175D01*
X0180333Y0078700D02*
X0187833Y0078700D01*
X0171133Y0089154D02*
X0148861Y0089154D01*
X0147862Y0090152D02*
X0170565Y0090152D01*
X0170183Y0091151D02*
X0165895Y0091151D01*
X0166894Y0092149D02*
X0169773Y0092149D01*
X0151022Y0091151D02*
X0147763Y0091151D01*
X0147763Y0092149D02*
X0150024Y0092149D01*
X0134293Y0092149D02*
X0125433Y0092149D01*
X0125433Y0091151D02*
X0134293Y0091151D01*
X0134293Y0090152D02*
X0125433Y0090152D01*
X0125433Y0089154D02*
X0134293Y0089154D01*
X0134293Y0088155D02*
X0125433Y0088155D01*
X0125433Y0087157D02*
X0134293Y0087157D01*
X0134293Y0086158D02*
X0125433Y0086158D01*
X0125433Y0085160D02*
X0134293Y0085160D01*
X0134293Y0084161D02*
X0125433Y0084161D01*
X0125433Y0083163D02*
X0134293Y0083163D01*
X0134293Y0082164D02*
X0125433Y0082164D01*
X0125433Y0081166D02*
X0134293Y0081166D01*
X0134293Y0080167D02*
X0125433Y0080167D01*
X0125433Y0079169D02*
X0134293Y0079169D01*
X0134293Y0078170D02*
X0125433Y0078170D01*
X0125433Y0077172D02*
X0134293Y0077172D01*
X0134293Y0076173D02*
X0125433Y0076173D01*
X0125433Y0075175D02*
X0134293Y0075175D01*
X0134293Y0074176D02*
X0125433Y0074176D01*
X0125433Y0073178D02*
X0134293Y0073178D01*
X0134293Y0072179D02*
X0125433Y0072179D01*
X0125433Y0071181D02*
X0134741Y0071181D01*
X0135740Y0070182D02*
X0125433Y0070182D01*
X0125433Y0069184D02*
X0136738Y0069184D01*
X0138693Y0075175D02*
X0147904Y0075175D01*
X0146998Y0076173D02*
X0138693Y0076173D01*
X0138693Y0077172D02*
X0146584Y0077172D01*
X0146583Y0078170D02*
X0141447Y0078170D01*
X0142714Y0079169D02*
X0146891Y0079169D01*
X0147646Y0080167D02*
X0143210Y0080167D01*
X0143368Y0081166D02*
X0153383Y0081166D01*
X0154143Y0082164D02*
X0143255Y0082164D01*
X0134293Y0093148D02*
X0125433Y0093148D01*
X0125433Y0094146D02*
X0134293Y0094146D01*
X0134293Y0095145D02*
X0125433Y0095145D01*
X0125433Y0096143D02*
X0134293Y0096143D01*
X0134293Y0097142D02*
X0125433Y0097142D01*
X0125433Y0098140D02*
X0134293Y0098140D01*
X0134293Y0099139D02*
X0125433Y0099139D01*
X0125433Y0100137D02*
X0134293Y0100137D01*
X0134293Y0101136D02*
X0125433Y0101136D01*
X0125433Y0102134D02*
X0134293Y0102134D01*
X0134293Y0103133D02*
X0125433Y0103133D01*
X0125433Y0104132D02*
X0134293Y0104132D01*
X0134372Y0105130D02*
X0125433Y0105130D01*
X0125433Y0106129D02*
X0135371Y0106129D01*
X0136369Y0107127D02*
X0125433Y0107127D01*
X0125433Y0108126D02*
X0142704Y0108126D01*
X0146763Y0108126D02*
X0148848Y0108126D01*
X0149846Y0109124D02*
X0125433Y0109124D01*
X0147552Y0107127D02*
X0147849Y0107127D01*
D18*
X0144733Y0105700D03*
X0149933Y0100800D03*
X0149866Y0095418D03*
X0168623Y0091820D03*
X0173333Y0091700D03*
X0193333Y0093700D03*
X0204083Y0097950D03*
X0191333Y0103850D03*
X0173333Y0102900D03*
X0218733Y0108300D03*
X0211033Y0085900D03*
X0205733Y0086000D03*
X0181083Y0082900D03*
X0169633Y0081050D03*
X0149733Y0077800D03*
X0143933Y0076700D03*
X0144933Y0070700D03*
X0168833Y0072200D03*
X0189983Y0071400D03*
X0209033Y0071550D03*
X0208233Y0077200D03*
D19*
X0131363Y0073930D03*
X0131353Y0088680D03*
X0131363Y0103020D03*
D20*
X0188233Y0108789D03*
X0228333Y0102200D03*
X0231833Y0106700D03*
X0221833Y0071700D03*
X0236833Y0066700D03*
D21*
X0223739Y0083200D02*
X0216933Y0083200D01*
X0216533Y0082800D01*
X0223739Y0083200D02*
X0226286Y0085747D01*
X0233959Y0085747D01*
M02*
