G75*
%MOIN*%
%OFA0B0*%
%FSLAX25Y25*%
%IPPOS*%
%LPD*%
%AMOC8*
5,1,8,0,0,1.08239X$1,22.5*
%
%ADD10C,0.00800*%
%ADD11C,0.00400*%
%ADD12R,0.01500X0.04500*%
%ADD13R,0.03937X0.04331*%
%ADD14R,0.04331X0.03937*%
%ADD15R,0.05709X0.01575*%
%ADD16C,0.00000*%
%ADD17R,0.05906X0.07087*%
%ADD18R,0.05906X0.09843*%
%ADD19R,0.06299X0.05512*%
%ADD20C,0.01181*%
%ADD21R,0.02756X0.02756*%
%ADD22C,0.03937*%
%ADD23R,0.03937X0.00984*%
%ADD24R,0.05276X0.03937*%
%ADD25C,0.01000*%
%ADD26C,0.02900*%
%ADD27C,0.03400*%
%ADD28C,0.02778*%
%ADD29C,0.00700*%
D10*
X0123333Y0058200D02*
X0248333Y0058200D01*
X0248333Y0118200D01*
X0123333Y0118200D01*
X0123333Y0058200D01*
D11*
X0173533Y0066469D02*
X0175068Y0066469D01*
X0174301Y0067237D02*
X0174301Y0064167D01*
X0175068Y0063400D01*
X0176603Y0064167D02*
X0177370Y0063400D01*
X0178905Y0063400D01*
X0179672Y0064167D01*
X0179672Y0065702D01*
X0178905Y0066469D01*
X0177370Y0066469D01*
X0176603Y0065702D01*
X0176603Y0064167D01*
X0181207Y0063400D02*
X0183508Y0063400D01*
X0184276Y0064167D01*
X0184276Y0065702D01*
X0183508Y0066469D01*
X0181207Y0066469D01*
X0181207Y0061865D01*
D12*
X0182083Y0077650D03*
X0179583Y0077650D03*
X0177083Y0077650D03*
X0184583Y0077650D03*
X0187083Y0077650D03*
X0189583Y0077650D03*
X0192083Y0077650D03*
X0194583Y0077650D03*
X0197083Y0077650D03*
X0199583Y0077650D03*
X0199583Y0098750D03*
X0197083Y0098750D03*
X0194583Y0098750D03*
X0192083Y0098750D03*
X0189583Y0098750D03*
X0187083Y0098750D03*
X0184583Y0098750D03*
X0182083Y0098750D03*
X0179583Y0098750D03*
X0177083Y0098750D03*
D13*
X0203433Y0076746D03*
X0203433Y0070054D03*
D14*
X0161680Y0075700D03*
X0154987Y0075700D03*
X0154987Y0080700D03*
X0161680Y0080700D03*
X0161680Y0085700D03*
X0154987Y0085700D03*
X0154987Y0090700D03*
X0161680Y0090700D03*
X0161680Y0095700D03*
X0154987Y0095700D03*
X0154987Y0100700D03*
X0161680Y0100700D03*
X0200867Y0104050D03*
X0207560Y0104050D03*
X0211787Y0113200D03*
X0218480Y0113200D03*
X0216280Y0093200D03*
X0209587Y0093200D03*
D15*
X0142062Y0093818D03*
X0142062Y0091259D03*
X0142062Y0088700D03*
X0142062Y0086141D03*
X0142062Y0083582D03*
D16*
X0138322Y0081220D02*
X0138324Y0081301D01*
X0138330Y0081383D01*
X0138340Y0081464D01*
X0138354Y0081544D01*
X0138371Y0081623D01*
X0138393Y0081702D01*
X0138418Y0081779D01*
X0138447Y0081856D01*
X0138480Y0081930D01*
X0138517Y0082003D01*
X0138556Y0082074D01*
X0138600Y0082143D01*
X0138646Y0082210D01*
X0138696Y0082274D01*
X0138749Y0082336D01*
X0138805Y0082396D01*
X0138863Y0082452D01*
X0138925Y0082506D01*
X0138989Y0082557D01*
X0139055Y0082604D01*
X0139123Y0082648D01*
X0139194Y0082689D01*
X0139266Y0082726D01*
X0139341Y0082760D01*
X0139416Y0082790D01*
X0139494Y0082816D01*
X0139572Y0082839D01*
X0139651Y0082857D01*
X0139731Y0082872D01*
X0139812Y0082883D01*
X0139893Y0082890D01*
X0139975Y0082893D01*
X0140056Y0082892D01*
X0140137Y0082887D01*
X0140218Y0082878D01*
X0140299Y0082865D01*
X0140379Y0082848D01*
X0140457Y0082828D01*
X0140535Y0082803D01*
X0140612Y0082775D01*
X0140687Y0082743D01*
X0140760Y0082708D01*
X0140831Y0082669D01*
X0140901Y0082626D01*
X0140968Y0082581D01*
X0141034Y0082532D01*
X0141096Y0082480D01*
X0141156Y0082424D01*
X0141213Y0082366D01*
X0141268Y0082306D01*
X0141319Y0082242D01*
X0141367Y0082177D01*
X0141412Y0082109D01*
X0141454Y0082039D01*
X0141492Y0081967D01*
X0141527Y0081893D01*
X0141558Y0081818D01*
X0141585Y0081741D01*
X0141608Y0081663D01*
X0141628Y0081584D01*
X0141644Y0081504D01*
X0141656Y0081423D01*
X0141664Y0081342D01*
X0141668Y0081261D01*
X0141668Y0081179D01*
X0141664Y0081098D01*
X0141656Y0081017D01*
X0141644Y0080936D01*
X0141628Y0080856D01*
X0141608Y0080777D01*
X0141585Y0080699D01*
X0141558Y0080622D01*
X0141527Y0080547D01*
X0141492Y0080473D01*
X0141454Y0080401D01*
X0141412Y0080331D01*
X0141367Y0080263D01*
X0141319Y0080198D01*
X0141268Y0080134D01*
X0141213Y0080074D01*
X0141156Y0080016D01*
X0141096Y0079960D01*
X0141034Y0079908D01*
X0140968Y0079859D01*
X0140901Y0079814D01*
X0140832Y0079771D01*
X0140760Y0079732D01*
X0140687Y0079697D01*
X0140612Y0079665D01*
X0140535Y0079637D01*
X0140457Y0079612D01*
X0140379Y0079592D01*
X0140299Y0079575D01*
X0140218Y0079562D01*
X0140137Y0079553D01*
X0140056Y0079548D01*
X0139975Y0079547D01*
X0139893Y0079550D01*
X0139812Y0079557D01*
X0139731Y0079568D01*
X0139651Y0079583D01*
X0139572Y0079601D01*
X0139494Y0079624D01*
X0139416Y0079650D01*
X0139341Y0079680D01*
X0139266Y0079714D01*
X0139194Y0079751D01*
X0139123Y0079792D01*
X0139055Y0079836D01*
X0138989Y0079883D01*
X0138925Y0079934D01*
X0138863Y0079988D01*
X0138805Y0080044D01*
X0138749Y0080104D01*
X0138696Y0080166D01*
X0138646Y0080230D01*
X0138600Y0080297D01*
X0138556Y0080366D01*
X0138517Y0080437D01*
X0138480Y0080510D01*
X0138447Y0080584D01*
X0138418Y0080661D01*
X0138393Y0080738D01*
X0138371Y0080817D01*
X0138354Y0080896D01*
X0138340Y0080976D01*
X0138330Y0081057D01*
X0138324Y0081139D01*
X0138322Y0081220D01*
X0138322Y0096180D02*
X0138324Y0096261D01*
X0138330Y0096343D01*
X0138340Y0096424D01*
X0138354Y0096504D01*
X0138371Y0096583D01*
X0138393Y0096662D01*
X0138418Y0096739D01*
X0138447Y0096816D01*
X0138480Y0096890D01*
X0138517Y0096963D01*
X0138556Y0097034D01*
X0138600Y0097103D01*
X0138646Y0097170D01*
X0138696Y0097234D01*
X0138749Y0097296D01*
X0138805Y0097356D01*
X0138863Y0097412D01*
X0138925Y0097466D01*
X0138989Y0097517D01*
X0139055Y0097564D01*
X0139123Y0097608D01*
X0139194Y0097649D01*
X0139266Y0097686D01*
X0139341Y0097720D01*
X0139416Y0097750D01*
X0139494Y0097776D01*
X0139572Y0097799D01*
X0139651Y0097817D01*
X0139731Y0097832D01*
X0139812Y0097843D01*
X0139893Y0097850D01*
X0139975Y0097853D01*
X0140056Y0097852D01*
X0140137Y0097847D01*
X0140218Y0097838D01*
X0140299Y0097825D01*
X0140379Y0097808D01*
X0140457Y0097788D01*
X0140535Y0097763D01*
X0140612Y0097735D01*
X0140687Y0097703D01*
X0140760Y0097668D01*
X0140831Y0097629D01*
X0140901Y0097586D01*
X0140968Y0097541D01*
X0141034Y0097492D01*
X0141096Y0097440D01*
X0141156Y0097384D01*
X0141213Y0097326D01*
X0141268Y0097266D01*
X0141319Y0097202D01*
X0141367Y0097137D01*
X0141412Y0097069D01*
X0141454Y0096999D01*
X0141492Y0096927D01*
X0141527Y0096853D01*
X0141558Y0096778D01*
X0141585Y0096701D01*
X0141608Y0096623D01*
X0141628Y0096544D01*
X0141644Y0096464D01*
X0141656Y0096383D01*
X0141664Y0096302D01*
X0141668Y0096221D01*
X0141668Y0096139D01*
X0141664Y0096058D01*
X0141656Y0095977D01*
X0141644Y0095896D01*
X0141628Y0095816D01*
X0141608Y0095737D01*
X0141585Y0095659D01*
X0141558Y0095582D01*
X0141527Y0095507D01*
X0141492Y0095433D01*
X0141454Y0095361D01*
X0141412Y0095291D01*
X0141367Y0095223D01*
X0141319Y0095158D01*
X0141268Y0095094D01*
X0141213Y0095034D01*
X0141156Y0094976D01*
X0141096Y0094920D01*
X0141034Y0094868D01*
X0140968Y0094819D01*
X0140901Y0094774D01*
X0140832Y0094731D01*
X0140760Y0094692D01*
X0140687Y0094657D01*
X0140612Y0094625D01*
X0140535Y0094597D01*
X0140457Y0094572D01*
X0140379Y0094552D01*
X0140299Y0094535D01*
X0140218Y0094522D01*
X0140137Y0094513D01*
X0140056Y0094508D01*
X0139975Y0094507D01*
X0139893Y0094510D01*
X0139812Y0094517D01*
X0139731Y0094528D01*
X0139651Y0094543D01*
X0139572Y0094561D01*
X0139494Y0094584D01*
X0139416Y0094610D01*
X0139341Y0094640D01*
X0139266Y0094674D01*
X0139194Y0094711D01*
X0139123Y0094752D01*
X0139055Y0094796D01*
X0138989Y0094843D01*
X0138925Y0094894D01*
X0138863Y0094948D01*
X0138805Y0095004D01*
X0138749Y0095064D01*
X0138696Y0095126D01*
X0138646Y0095190D01*
X0138600Y0095257D01*
X0138556Y0095326D01*
X0138517Y0095397D01*
X0138480Y0095470D01*
X0138447Y0095544D01*
X0138418Y0095621D01*
X0138393Y0095698D01*
X0138371Y0095777D01*
X0138354Y0095856D01*
X0138340Y0095936D01*
X0138330Y0096017D01*
X0138324Y0096099D01*
X0138322Y0096180D01*
X0240061Y0094606D02*
X0240063Y0094690D01*
X0240069Y0094773D01*
X0240079Y0094856D01*
X0240093Y0094939D01*
X0240110Y0095021D01*
X0240132Y0095102D01*
X0240157Y0095181D01*
X0240186Y0095260D01*
X0240219Y0095337D01*
X0240255Y0095412D01*
X0240295Y0095486D01*
X0240338Y0095558D01*
X0240385Y0095627D01*
X0240435Y0095694D01*
X0240488Y0095759D01*
X0240544Y0095821D01*
X0240602Y0095881D01*
X0240664Y0095938D01*
X0240728Y0095991D01*
X0240795Y0096042D01*
X0240864Y0096089D01*
X0240935Y0096134D01*
X0241008Y0096174D01*
X0241083Y0096211D01*
X0241160Y0096245D01*
X0241238Y0096275D01*
X0241317Y0096301D01*
X0241398Y0096324D01*
X0241480Y0096342D01*
X0241562Y0096357D01*
X0241645Y0096368D01*
X0241728Y0096375D01*
X0241812Y0096378D01*
X0241896Y0096377D01*
X0241979Y0096372D01*
X0242063Y0096363D01*
X0242145Y0096350D01*
X0242227Y0096334D01*
X0242308Y0096313D01*
X0242389Y0096289D01*
X0242467Y0096261D01*
X0242545Y0096229D01*
X0242621Y0096193D01*
X0242695Y0096154D01*
X0242767Y0096112D01*
X0242837Y0096066D01*
X0242905Y0096017D01*
X0242970Y0095965D01*
X0243033Y0095910D01*
X0243093Y0095852D01*
X0243151Y0095791D01*
X0243205Y0095727D01*
X0243257Y0095661D01*
X0243305Y0095593D01*
X0243350Y0095522D01*
X0243391Y0095449D01*
X0243430Y0095375D01*
X0243464Y0095299D01*
X0243495Y0095221D01*
X0243522Y0095142D01*
X0243546Y0095061D01*
X0243565Y0094980D01*
X0243581Y0094898D01*
X0243593Y0094815D01*
X0243601Y0094731D01*
X0243605Y0094648D01*
X0243605Y0094564D01*
X0243601Y0094481D01*
X0243593Y0094397D01*
X0243581Y0094314D01*
X0243565Y0094232D01*
X0243546Y0094151D01*
X0243522Y0094070D01*
X0243495Y0093991D01*
X0243464Y0093913D01*
X0243430Y0093837D01*
X0243391Y0093763D01*
X0243350Y0093690D01*
X0243305Y0093619D01*
X0243257Y0093551D01*
X0243205Y0093485D01*
X0243151Y0093421D01*
X0243093Y0093360D01*
X0243033Y0093302D01*
X0242970Y0093247D01*
X0242905Y0093195D01*
X0242837Y0093146D01*
X0242767Y0093100D01*
X0242695Y0093058D01*
X0242621Y0093019D01*
X0242545Y0092983D01*
X0242467Y0092951D01*
X0242389Y0092923D01*
X0242308Y0092899D01*
X0242227Y0092878D01*
X0242145Y0092862D01*
X0242063Y0092849D01*
X0241979Y0092840D01*
X0241896Y0092835D01*
X0241812Y0092834D01*
X0241728Y0092837D01*
X0241645Y0092844D01*
X0241562Y0092855D01*
X0241480Y0092870D01*
X0241398Y0092888D01*
X0241317Y0092911D01*
X0241238Y0092937D01*
X0241160Y0092967D01*
X0241083Y0093001D01*
X0241008Y0093038D01*
X0240935Y0093078D01*
X0240864Y0093123D01*
X0240795Y0093170D01*
X0240728Y0093221D01*
X0240664Y0093274D01*
X0240602Y0093331D01*
X0240544Y0093391D01*
X0240488Y0093453D01*
X0240435Y0093518D01*
X0240385Y0093585D01*
X0240338Y0093654D01*
X0240295Y0093726D01*
X0240255Y0093800D01*
X0240219Y0093875D01*
X0240186Y0093952D01*
X0240157Y0094031D01*
X0240132Y0094110D01*
X0240110Y0094191D01*
X0240093Y0094273D01*
X0240079Y0094356D01*
X0240069Y0094439D01*
X0240063Y0094522D01*
X0240061Y0094606D01*
X0240061Y0082794D02*
X0240063Y0082878D01*
X0240069Y0082961D01*
X0240079Y0083044D01*
X0240093Y0083127D01*
X0240110Y0083209D01*
X0240132Y0083290D01*
X0240157Y0083369D01*
X0240186Y0083448D01*
X0240219Y0083525D01*
X0240255Y0083600D01*
X0240295Y0083674D01*
X0240338Y0083746D01*
X0240385Y0083815D01*
X0240435Y0083882D01*
X0240488Y0083947D01*
X0240544Y0084009D01*
X0240602Y0084069D01*
X0240664Y0084126D01*
X0240728Y0084179D01*
X0240795Y0084230D01*
X0240864Y0084277D01*
X0240935Y0084322D01*
X0241008Y0084362D01*
X0241083Y0084399D01*
X0241160Y0084433D01*
X0241238Y0084463D01*
X0241317Y0084489D01*
X0241398Y0084512D01*
X0241480Y0084530D01*
X0241562Y0084545D01*
X0241645Y0084556D01*
X0241728Y0084563D01*
X0241812Y0084566D01*
X0241896Y0084565D01*
X0241979Y0084560D01*
X0242063Y0084551D01*
X0242145Y0084538D01*
X0242227Y0084522D01*
X0242308Y0084501D01*
X0242389Y0084477D01*
X0242467Y0084449D01*
X0242545Y0084417D01*
X0242621Y0084381D01*
X0242695Y0084342D01*
X0242767Y0084300D01*
X0242837Y0084254D01*
X0242905Y0084205D01*
X0242970Y0084153D01*
X0243033Y0084098D01*
X0243093Y0084040D01*
X0243151Y0083979D01*
X0243205Y0083915D01*
X0243257Y0083849D01*
X0243305Y0083781D01*
X0243350Y0083710D01*
X0243391Y0083637D01*
X0243430Y0083563D01*
X0243464Y0083487D01*
X0243495Y0083409D01*
X0243522Y0083330D01*
X0243546Y0083249D01*
X0243565Y0083168D01*
X0243581Y0083086D01*
X0243593Y0083003D01*
X0243601Y0082919D01*
X0243605Y0082836D01*
X0243605Y0082752D01*
X0243601Y0082669D01*
X0243593Y0082585D01*
X0243581Y0082502D01*
X0243565Y0082420D01*
X0243546Y0082339D01*
X0243522Y0082258D01*
X0243495Y0082179D01*
X0243464Y0082101D01*
X0243430Y0082025D01*
X0243391Y0081951D01*
X0243350Y0081878D01*
X0243305Y0081807D01*
X0243257Y0081739D01*
X0243205Y0081673D01*
X0243151Y0081609D01*
X0243093Y0081548D01*
X0243033Y0081490D01*
X0242970Y0081435D01*
X0242905Y0081383D01*
X0242837Y0081334D01*
X0242767Y0081288D01*
X0242695Y0081246D01*
X0242621Y0081207D01*
X0242545Y0081171D01*
X0242467Y0081139D01*
X0242389Y0081111D01*
X0242308Y0081087D01*
X0242227Y0081066D01*
X0242145Y0081050D01*
X0242063Y0081037D01*
X0241979Y0081028D01*
X0241896Y0081023D01*
X0241812Y0081022D01*
X0241728Y0081025D01*
X0241645Y0081032D01*
X0241562Y0081043D01*
X0241480Y0081058D01*
X0241398Y0081076D01*
X0241317Y0081099D01*
X0241238Y0081125D01*
X0241160Y0081155D01*
X0241083Y0081189D01*
X0241008Y0081226D01*
X0240935Y0081266D01*
X0240864Y0081311D01*
X0240795Y0081358D01*
X0240728Y0081409D01*
X0240664Y0081462D01*
X0240602Y0081519D01*
X0240544Y0081579D01*
X0240488Y0081641D01*
X0240435Y0081706D01*
X0240385Y0081773D01*
X0240338Y0081842D01*
X0240295Y0081914D01*
X0240255Y0081988D01*
X0240219Y0082063D01*
X0240186Y0082140D01*
X0240157Y0082219D01*
X0240132Y0082298D01*
X0240110Y0082379D01*
X0240093Y0082461D01*
X0240079Y0082544D01*
X0240069Y0082627D01*
X0240063Y0082710D01*
X0240061Y0082794D01*
D17*
X0131333Y0074192D03*
X0131333Y0103208D03*
D18*
X0131333Y0088700D03*
D19*
X0215433Y0078812D03*
X0215433Y0067788D03*
D20*
X0155408Y0069322D02*
X0155408Y0072078D01*
X0158164Y0072078D01*
X0158164Y0069322D01*
X0155408Y0069322D01*
X0155408Y0070502D02*
X0158164Y0070502D01*
X0158164Y0071682D02*
X0155408Y0071682D01*
X0148503Y0072078D02*
X0148503Y0069322D01*
X0148503Y0072078D02*
X0151259Y0072078D01*
X0151259Y0069322D01*
X0148503Y0069322D01*
X0148503Y0070502D02*
X0151259Y0070502D01*
X0151259Y0071682D02*
X0148503Y0071682D01*
X0148503Y0104322D02*
X0148503Y0107078D01*
X0151259Y0107078D01*
X0151259Y0104322D01*
X0148503Y0104322D01*
X0148503Y0105502D02*
X0151259Y0105502D01*
X0151259Y0106682D02*
X0148503Y0106682D01*
X0155408Y0107078D02*
X0155408Y0104322D01*
X0155408Y0107078D02*
X0158164Y0107078D01*
X0158164Y0104322D01*
X0155408Y0104322D01*
X0155408Y0105502D02*
X0158164Y0105502D01*
X0158164Y0106682D02*
X0155408Y0106682D01*
D21*
X0214092Y0105559D03*
X0221375Y0103000D03*
X0214092Y0100441D03*
D22*
X0223533Y0078250D03*
X0128333Y0113200D03*
D23*
X0230833Y0093121D03*
X0230833Y0091153D03*
X0230833Y0089184D03*
X0230833Y0087216D03*
X0230833Y0085247D03*
X0230833Y0083279D03*
D24*
X0237625Y0073879D03*
X0237625Y0102521D03*
D25*
X0241962Y0102134D02*
X0246233Y0102134D01*
X0246233Y0101136D02*
X0241962Y0101136D01*
X0241962Y0100137D02*
X0246233Y0100137D01*
X0246233Y0099139D02*
X0241253Y0099139D01*
X0240967Y0098852D02*
X0241962Y0099848D01*
X0241962Y0105194D01*
X0240967Y0106189D01*
X0234283Y0106189D01*
X0233287Y0105194D01*
X0233287Y0100358D01*
X0231422Y0102222D01*
X0231422Y0102814D01*
X0230952Y0103950D01*
X0230083Y0104819D01*
X0228948Y0105289D01*
X0227719Y0105289D01*
X0226584Y0104819D01*
X0225715Y0103950D01*
X0225244Y0102814D01*
X0225244Y0102242D01*
X0224453Y0103033D01*
X0224453Y0105082D01*
X0223890Y0105645D01*
X0224245Y0106000D01*
X0225533Y0107289D01*
X0225533Y0114111D01*
X0224245Y0115400D01*
X0222345Y0115400D01*
X0222345Y0115873D01*
X0222118Y0116100D01*
X0246233Y0116100D01*
X0246233Y0060300D01*
X0223545Y0060300D01*
X0227613Y0064369D01*
X0228902Y0065657D01*
X0228902Y0081287D01*
X0230833Y0081287D01*
X0230833Y0082771D01*
X0230833Y0082771D01*
X0230833Y0081287D01*
X0232999Y0081287D01*
X0233381Y0081389D01*
X0233723Y0081586D01*
X0234002Y0081866D01*
X0234200Y0082208D01*
X0234302Y0082589D01*
X0234302Y0083279D01*
X0234302Y0083851D01*
X0234502Y0084051D01*
X0234502Y0085016D01*
X0237260Y0085016D01*
X0238745Y0086500D01*
X0240033Y0087789D01*
X0240033Y0091593D01*
X0241143Y0091134D01*
X0242524Y0091134D01*
X0243800Y0091662D01*
X0244776Y0092639D01*
X0245305Y0093915D01*
X0245305Y0095296D01*
X0244776Y0096572D01*
X0243800Y0097549D01*
X0242524Y0098077D01*
X0241143Y0098077D01*
X0239867Y0097549D01*
X0238890Y0096572D01*
X0238362Y0095296D01*
X0238362Y0095283D01*
X0234792Y0098852D01*
X0240967Y0098852D01*
X0239460Y0097142D02*
X0236503Y0097142D01*
X0237501Y0096143D02*
X0238713Y0096143D01*
X0235504Y0098140D02*
X0246233Y0098140D01*
X0246233Y0097142D02*
X0244207Y0097142D01*
X0244954Y0096143D02*
X0246233Y0096143D01*
X0246233Y0095145D02*
X0245305Y0095145D01*
X0245305Y0094146D02*
X0246233Y0094146D01*
X0246233Y0093148D02*
X0244987Y0093148D01*
X0244287Y0092149D02*
X0246233Y0092149D01*
X0246233Y0091151D02*
X0242565Y0091151D01*
X0241102Y0091151D02*
X0240033Y0091151D01*
X0240033Y0090152D02*
X0246233Y0090152D01*
X0246233Y0089154D02*
X0240033Y0089154D01*
X0240033Y0088155D02*
X0246233Y0088155D01*
X0246233Y0087157D02*
X0239401Y0087157D01*
X0238403Y0086158D02*
X0240882Y0086158D01*
X0241143Y0086266D02*
X0239867Y0085738D01*
X0238890Y0084761D01*
X0238362Y0083485D01*
X0238362Y0082104D01*
X0238890Y0080828D01*
X0239867Y0079851D01*
X0241143Y0079323D01*
X0242524Y0079323D01*
X0243800Y0079851D01*
X0244776Y0080828D01*
X0245305Y0082104D01*
X0245305Y0083485D01*
X0244776Y0084761D01*
X0243800Y0085738D01*
X0242524Y0086266D01*
X0241143Y0086266D01*
X0242784Y0086158D02*
X0246233Y0086158D01*
X0246233Y0085160D02*
X0244378Y0085160D01*
X0245025Y0084161D02*
X0246233Y0084161D01*
X0246233Y0083163D02*
X0245305Y0083163D01*
X0245305Y0082164D02*
X0246233Y0082164D01*
X0246233Y0081166D02*
X0244916Y0081166D01*
X0244116Y0080167D02*
X0246233Y0080167D01*
X0246233Y0079169D02*
X0228902Y0079169D01*
X0228902Y0080167D02*
X0239551Y0080167D01*
X0238750Y0081166D02*
X0228902Y0081166D01*
X0230833Y0082164D02*
X0230833Y0082164D01*
X0233730Y0083279D02*
X0233730Y0083279D01*
X0234302Y0083279D01*
X0233730Y0083279D01*
X0234302Y0083163D02*
X0238362Y0083163D01*
X0238362Y0082164D02*
X0234175Y0082164D01*
X0234502Y0084161D02*
X0238642Y0084161D01*
X0239289Y0085160D02*
X0237404Y0085160D01*
X0236349Y0087216D02*
X0237833Y0088700D01*
X0237833Y0092700D01*
X0228333Y0102200D01*
X0225376Y0103133D02*
X0224453Y0103133D01*
X0224453Y0104132D02*
X0225896Y0104132D01*
X0227335Y0105130D02*
X0224405Y0105130D01*
X0224373Y0106129D02*
X0234222Y0106129D01*
X0233287Y0105130D02*
X0229331Y0105130D01*
X0230770Y0104132D02*
X0233287Y0104132D01*
X0233287Y0103133D02*
X0231290Y0103133D01*
X0231510Y0102134D02*
X0233287Y0102134D01*
X0233287Y0101136D02*
X0232509Y0101136D01*
X0241962Y0103133D02*
X0246233Y0103133D01*
X0246233Y0104132D02*
X0241962Y0104132D01*
X0241962Y0105130D02*
X0246233Y0105130D01*
X0246233Y0106129D02*
X0241027Y0106129D01*
X0246233Y0107127D02*
X0225372Y0107127D01*
X0225533Y0108126D02*
X0246233Y0108126D01*
X0246233Y0109124D02*
X0225533Y0109124D01*
X0225533Y0110123D02*
X0246233Y0110123D01*
X0246233Y0111121D02*
X0225533Y0111121D01*
X0225533Y0112120D02*
X0246233Y0112120D01*
X0246233Y0113118D02*
X0225533Y0113118D01*
X0225528Y0114117D02*
X0246233Y0114117D01*
X0246233Y0115115D02*
X0224529Y0115115D01*
X0223333Y0113200D02*
X0223333Y0108200D01*
X0221333Y0106200D01*
X0221333Y0103042D01*
X0221375Y0103000D01*
X0228333Y0096042D01*
X0228333Y0093200D01*
X0228412Y0093121D01*
X0230833Y0093121D01*
X0230433Y0091100D02*
X0221433Y0091100D01*
X0219333Y0089000D01*
X0202433Y0089000D01*
X0194733Y0081300D01*
X0185633Y0081300D01*
X0184933Y0080600D01*
X0184933Y0077800D01*
X0182083Y0077650D02*
X0182083Y0081900D01*
X0181083Y0082900D01*
X0178833Y0086200D02*
X0177083Y0084450D01*
X0177083Y0077650D01*
X0174633Y0077172D02*
X0165545Y0077172D01*
X0165545Y0078170D02*
X0174633Y0078170D01*
X0174633Y0079169D02*
X0165345Y0079169D01*
X0165345Y0078573D02*
X0165345Y0080216D01*
X0162164Y0080216D01*
X0162164Y0081184D01*
X0165345Y0081184D01*
X0165345Y0082827D01*
X0165545Y0083027D01*
X0165545Y0083500D01*
X0174883Y0083500D01*
X0174883Y0080854D01*
X0174633Y0080604D01*
X0174633Y0074696D01*
X0174929Y0074400D01*
X0171088Y0074400D01*
X0170618Y0074870D01*
X0169460Y0075350D01*
X0168207Y0075350D01*
X0167049Y0074870D01*
X0166163Y0073984D01*
X0165683Y0072827D01*
X0165683Y0071573D01*
X0166163Y0070416D01*
X0167049Y0069530D01*
X0168207Y0069050D01*
X0169460Y0069050D01*
X0170618Y0069530D01*
X0171088Y0070000D01*
X0180945Y0070000D01*
X0182995Y0072050D01*
X0184283Y0073339D01*
X0184283Y0073700D01*
X0188537Y0073700D01*
X0188737Y0073900D01*
X0189583Y0073900D01*
X0189583Y0077650D01*
X0189583Y0077650D01*
X0189583Y0073900D01*
X0190429Y0073900D01*
X0190629Y0073700D01*
X0194883Y0073700D01*
X0194883Y0067039D01*
X0197434Y0064488D01*
X0204934Y0064488D01*
X0209122Y0060300D01*
X0182328Y0060300D01*
X0183107Y0061078D01*
X0183107Y0061500D01*
X0183517Y0061500D01*
X0184295Y0061500D01*
X0184295Y0061500D01*
X0184309Y0061514D01*
X0185063Y0062267D01*
X0185222Y0062426D01*
X0186176Y0063380D01*
X0186176Y0063380D01*
X0186176Y0064159D01*
X0186176Y0064954D01*
X0186176Y0064954D01*
X0186176Y0066489D01*
X0185063Y0067602D01*
X0184295Y0068369D01*
X0180420Y0068369D01*
X0180056Y0068005D01*
X0179692Y0068369D01*
X0178157Y0068369D01*
X0178157Y0068369D01*
X0177362Y0068369D01*
X0176583Y0068369D01*
X0176219Y0068005D01*
X0175855Y0068369D01*
X0175088Y0069137D01*
X0173514Y0069137D01*
X0172401Y0068024D01*
X0172401Y0068024D01*
X0171633Y0067256D01*
X0171633Y0065682D01*
X0172401Y0064915D01*
X0172401Y0064159D01*
X0172401Y0063380D01*
X0173354Y0062426D01*
X0173514Y0062267D01*
X0174281Y0061500D01*
X0175855Y0061500D01*
X0176219Y0061864D01*
X0176583Y0061500D01*
X0179307Y0061500D01*
X0179307Y0061078D01*
X0180085Y0060300D01*
X0125433Y0060300D01*
X0125433Y0110912D01*
X0126255Y0110090D01*
X0127604Y0109531D01*
X0129063Y0109531D01*
X0130411Y0110090D01*
X0131443Y0111122D01*
X0132002Y0112470D01*
X0132002Y0113930D01*
X0131443Y0115278D01*
X0130621Y0116100D01*
X0208149Y0116100D01*
X0207922Y0115873D01*
X0207922Y0110527D01*
X0208529Y0109920D01*
X0197132Y0109920D01*
X0196812Y0109600D01*
X0195523Y0108311D01*
X0195523Y0105801D01*
X0194633Y0104911D01*
X0192422Y0102700D01*
X0188129Y0102700D01*
X0187929Y0102500D01*
X0187245Y0102500D01*
X0190433Y0105689D01*
X0190433Y0106621D01*
X0190852Y0107039D01*
X0191322Y0108175D01*
X0191322Y0109403D01*
X0190852Y0110539D01*
X0189983Y0111408D01*
X0188848Y0111878D01*
X0187619Y0111878D01*
X0186484Y0111408D01*
X0185615Y0110539D01*
X0185173Y0109472D01*
X0184245Y0110400D01*
X0182422Y0110400D01*
X0179883Y0107861D01*
X0179883Y0102700D01*
X0179132Y0102700D01*
X0177995Y0103837D01*
X0177396Y0104436D01*
X0176107Y0104436D01*
X0176004Y0104684D01*
X0175118Y0105570D01*
X0173960Y0106050D01*
X0172707Y0106050D01*
X0171549Y0105570D01*
X0170663Y0104684D01*
X0170183Y0103527D01*
X0170183Y0102273D01*
X0170663Y0101116D01*
X0171549Y0100230D01*
X0172707Y0099750D01*
X0173960Y0099750D01*
X0174633Y0100029D01*
X0174633Y0095796D01*
X0175629Y0094800D01*
X0186037Y0094800D01*
X0186237Y0095000D01*
X0187083Y0095000D01*
X0187083Y0098750D01*
X0187083Y0098750D01*
X0187083Y0095000D01*
X0187383Y0095000D01*
X0187383Y0094861D01*
X0186922Y0094400D01*
X0175046Y0094400D01*
X0173960Y0094850D01*
X0172707Y0094850D01*
X0171549Y0094370D01*
X0170663Y0093484D01*
X0170183Y0092327D01*
X0170183Y0091073D01*
X0170663Y0089916D01*
X0170679Y0089900D01*
X0168695Y0089900D01*
X0166973Y0091621D01*
X0165685Y0092910D01*
X0165545Y0092910D01*
X0165545Y0093373D01*
X0165345Y0093573D01*
X0165345Y0095216D01*
X0162164Y0095216D01*
X0162164Y0096184D01*
X0165345Y0096184D01*
X0165345Y0097827D01*
X0165545Y0098027D01*
X0165545Y0103373D01*
X0164549Y0104368D01*
X0163833Y0104368D01*
X0163833Y0104611D01*
X0162545Y0105900D01*
X0160545Y0107900D01*
X0160455Y0107900D01*
X0160455Y0108027D01*
X0159113Y0109368D01*
X0154459Y0109368D01*
X0153333Y0108242D01*
X0152207Y0109368D01*
X0147554Y0109368D01*
X0146537Y0108351D01*
X0146518Y0108370D01*
X0145360Y0108850D01*
X0144107Y0108850D01*
X0142949Y0108370D01*
X0142063Y0107484D01*
X0141583Y0106327D01*
X0141583Y0105073D01*
X0142063Y0103916D01*
X0142949Y0103030D01*
X0144107Y0102550D01*
X0145360Y0102550D01*
X0146518Y0103030D01*
X0146537Y0103049D01*
X0147186Y0102399D01*
X0146783Y0101427D01*
X0146783Y0100173D01*
X0147263Y0099016D01*
X0148149Y0098130D01*
X0148165Y0098123D01*
X0148082Y0098089D01*
X0147196Y0097202D01*
X0146716Y0096045D01*
X0146716Y0096018D01*
X0145908Y0096018D01*
X0145620Y0096305D01*
X0143368Y0096305D01*
X0143368Y0096851D01*
X0142854Y0098091D01*
X0141906Y0099040D01*
X0140666Y0099554D01*
X0139324Y0099554D01*
X0138084Y0099040D01*
X0137135Y0098091D01*
X0136622Y0096851D01*
X0136622Y0095509D01*
X0137135Y0094270D01*
X0137507Y0093897D01*
X0137507Y0084649D01*
X0137707Y0084449D01*
X0137707Y0083703D01*
X0137135Y0083130D01*
X0136622Y0081891D01*
X0136622Y0080549D01*
X0137135Y0079309D01*
X0138084Y0078360D01*
X0139324Y0077846D01*
X0140666Y0077846D01*
X0141906Y0078360D01*
X0142854Y0079309D01*
X0143368Y0080549D01*
X0143368Y0081294D01*
X0145113Y0081294D01*
X0145495Y0081397D01*
X0145837Y0081594D01*
X0146116Y0081873D01*
X0146314Y0082216D01*
X0146416Y0082597D01*
X0146416Y0083582D01*
X0146416Y0084449D01*
X0146616Y0084649D01*
X0146616Y0086500D01*
X0146842Y0086500D01*
X0148583Y0084759D01*
X0149872Y0083470D01*
X0151122Y0083470D01*
X0151122Y0080635D01*
X0150360Y0080950D01*
X0149107Y0080950D01*
X0147949Y0080470D01*
X0147063Y0079584D01*
X0146583Y0078427D01*
X0146583Y0077173D01*
X0147063Y0076016D01*
X0147949Y0075130D01*
X0149107Y0074650D01*
X0149772Y0074650D01*
X0150054Y0074368D01*
X0147554Y0074368D01*
X0146603Y0073418D01*
X0145560Y0073850D01*
X0144307Y0073850D01*
X0143149Y0073370D01*
X0142263Y0072484D01*
X0141783Y0071327D01*
X0141783Y0070661D01*
X0141133Y0070011D01*
X0141133Y0068189D01*
X0142422Y0066900D01*
X0144245Y0066900D01*
X0144895Y0067550D01*
X0145560Y0067550D01*
X0146603Y0067982D01*
X0147554Y0067031D01*
X0152207Y0067031D01*
X0153333Y0068158D01*
X0154459Y0067031D01*
X0159113Y0067031D01*
X0160455Y0068373D01*
X0160455Y0068500D01*
X0161245Y0068500D01*
X0162745Y0070000D01*
X0164033Y0071289D01*
X0164033Y0072031D01*
X0164549Y0072031D01*
X0165545Y0073027D01*
X0165545Y0078373D01*
X0165345Y0078573D01*
X0165345Y0080167D02*
X0174633Y0080167D01*
X0174883Y0081166D02*
X0162164Y0081166D01*
X0165345Y0082164D02*
X0174883Y0082164D01*
X0174883Y0083163D02*
X0165545Y0083163D01*
X0161680Y0085700D02*
X0175333Y0085700D01*
X0177833Y0088200D01*
X0196033Y0088200D01*
X0199583Y0091750D01*
X0199583Y0098750D01*
X0202033Y0099139D02*
X0209678Y0099139D01*
X0208680Y0098140D02*
X0202033Y0098140D01*
X0202033Y0097142D02*
X0207681Y0097142D01*
X0207408Y0096868D02*
X0206717Y0096868D01*
X0205722Y0095873D01*
X0205722Y0094800D01*
X0202322Y0094800D01*
X0201783Y0094261D01*
X0201783Y0095546D01*
X0202033Y0095796D01*
X0202033Y0100381D01*
X0203736Y0100381D01*
X0204355Y0101000D01*
X0204473Y0100881D01*
X0204815Y0100684D01*
X0205197Y0100581D01*
X0207076Y0100581D01*
X0207076Y0103566D01*
X0208044Y0103566D01*
X0208044Y0100581D01*
X0209923Y0100581D01*
X0210304Y0100684D01*
X0210646Y0100881D01*
X0210925Y0101160D01*
X0211014Y0101313D01*
X0211014Y0100474D01*
X0207408Y0096868D01*
X0205992Y0096143D02*
X0202033Y0096143D01*
X0201783Y0095145D02*
X0205722Y0095145D01*
X0209587Y0095936D02*
X0214092Y0100441D01*
X0211014Y0101136D02*
X0210901Y0101136D01*
X0210677Y0100137D02*
X0202033Y0100137D01*
X0197083Y0098750D02*
X0197083Y0091950D01*
X0195333Y0090200D01*
X0176833Y0090200D01*
X0174333Y0087700D01*
X0167783Y0087700D01*
X0164773Y0090710D01*
X0161690Y0090710D01*
X0161680Y0090700D01*
X0161780Y0090600D01*
X0161680Y0090700D02*
X0162333Y0090700D01*
X0165545Y0093148D02*
X0170524Y0093148D01*
X0170183Y0092149D02*
X0166445Y0092149D01*
X0167444Y0091151D02*
X0170183Y0091151D01*
X0170565Y0090152D02*
X0168442Y0090152D01*
X0173333Y0091700D02*
X0173833Y0092200D01*
X0187833Y0092200D01*
X0189583Y0093950D01*
X0189583Y0098750D01*
X0192083Y0098750D02*
X0192083Y0094950D01*
X0193333Y0093700D01*
X0194583Y0094950D01*
X0194583Y0098750D01*
X0194583Y0101750D01*
X0196833Y0104000D01*
X0197253Y0104000D01*
X0200817Y0104000D01*
X0200867Y0104050D01*
X0197723Y0104470D02*
X0197253Y0104000D01*
X0197723Y0104470D02*
X0197723Y0107400D01*
X0198043Y0107720D01*
X0210023Y0107720D01*
X0210763Y0106980D01*
X0210763Y0106980D01*
X0212184Y0105559D01*
X0214092Y0105559D01*
X0214103Y0105570D01*
X0216383Y0105570D01*
X0218333Y0103620D01*
X0218333Y0098200D01*
X0216280Y0096146D01*
X0216280Y0093200D01*
X0209587Y0093200D02*
X0209587Y0095936D01*
X0209587Y0093200D02*
X0208333Y0093200D01*
X0207733Y0092600D01*
X0203233Y0092600D01*
X0196833Y0086200D01*
X0178833Y0086200D01*
X0171325Y0094146D02*
X0165345Y0094146D01*
X0165345Y0095145D02*
X0175284Y0095145D01*
X0174633Y0096143D02*
X0162164Y0096143D01*
X0165345Y0097142D02*
X0174633Y0097142D01*
X0174633Y0098140D02*
X0165545Y0098140D01*
X0165545Y0099139D02*
X0174633Y0099139D01*
X0177083Y0098750D02*
X0177083Y0101637D01*
X0176484Y0102236D01*
X0173997Y0102236D01*
X0173333Y0102900D01*
X0173333Y0103200D01*
X0171109Y0105130D02*
X0163315Y0105130D01*
X0162316Y0106129D02*
X0179883Y0106129D01*
X0179883Y0107127D02*
X0161318Y0107127D01*
X0160356Y0108126D02*
X0180148Y0108126D01*
X0181146Y0109124D02*
X0159357Y0109124D01*
X0154215Y0109124D02*
X0152452Y0109124D01*
X0147309Y0109124D02*
X0125433Y0109124D01*
X0125433Y0108126D02*
X0127761Y0108126D01*
X0127802Y0108149D02*
X0127460Y0107951D01*
X0127180Y0107672D01*
X0126983Y0107330D01*
X0126881Y0106949D01*
X0126881Y0103708D01*
X0130833Y0103708D01*
X0130833Y0102708D01*
X0126881Y0102708D01*
X0126881Y0099467D01*
X0126983Y0099086D01*
X0127180Y0098744D01*
X0127460Y0098464D01*
X0127802Y0098267D01*
X0128183Y0098165D01*
X0130833Y0098165D01*
X0130833Y0102708D01*
X0131833Y0102708D01*
X0131833Y0098165D01*
X0134484Y0098165D01*
X0134865Y0098267D01*
X0135207Y0098464D01*
X0135486Y0098744D01*
X0135684Y0099086D01*
X0135786Y0099467D01*
X0135786Y0102708D01*
X0131833Y0102708D01*
X0131833Y0103708D01*
X0130833Y0103708D01*
X0130833Y0108251D01*
X0128183Y0108251D01*
X0127802Y0108149D01*
X0126928Y0107127D02*
X0125433Y0107127D01*
X0125433Y0106129D02*
X0126881Y0106129D01*
X0126881Y0105130D02*
X0125433Y0105130D01*
X0125433Y0104132D02*
X0126881Y0104132D01*
X0125433Y0103133D02*
X0130833Y0103133D01*
X0130833Y0102134D02*
X0131833Y0102134D01*
X0131833Y0101136D02*
X0130833Y0101136D01*
X0130833Y0100137D02*
X0131833Y0100137D01*
X0131833Y0099139D02*
X0130833Y0099139D01*
X0126968Y0099139D02*
X0125433Y0099139D01*
X0125433Y0100137D02*
X0126881Y0100137D01*
X0126881Y0101136D02*
X0125433Y0101136D01*
X0125433Y0102134D02*
X0126881Y0102134D01*
X0130833Y0104132D02*
X0131833Y0104132D01*
X0131833Y0103708D02*
X0131833Y0108251D01*
X0134484Y0108251D01*
X0134865Y0108149D01*
X0135207Y0107951D01*
X0135486Y0107672D01*
X0135684Y0107330D01*
X0135786Y0106949D01*
X0135786Y0103708D01*
X0131833Y0103708D01*
X0131833Y0103133D02*
X0142846Y0103133D01*
X0141973Y0104132D02*
X0135786Y0104132D01*
X0135786Y0105130D02*
X0141583Y0105130D01*
X0141583Y0106129D02*
X0135786Y0106129D01*
X0135738Y0107127D02*
X0141915Y0107127D01*
X0142704Y0108126D02*
X0134906Y0108126D01*
X0131833Y0108126D02*
X0130833Y0108126D01*
X0130833Y0107127D02*
X0131833Y0107127D01*
X0131833Y0106129D02*
X0130833Y0106129D01*
X0130833Y0105130D02*
X0131833Y0105130D01*
X0135786Y0102134D02*
X0147077Y0102134D01*
X0146783Y0101136D02*
X0135786Y0101136D01*
X0135786Y0100137D02*
X0146798Y0100137D01*
X0147212Y0099139D02*
X0141667Y0099139D01*
X0142805Y0098140D02*
X0148138Y0098140D01*
X0147171Y0097142D02*
X0143248Y0097142D01*
X0145782Y0096143D02*
X0146757Y0096143D01*
X0148266Y0093818D02*
X0149866Y0095418D01*
X0148266Y0093818D02*
X0142062Y0093818D01*
X0142062Y0091259D02*
X0149374Y0091259D01*
X0149933Y0090700D01*
X0154987Y0090700D01*
X0154987Y0095700D01*
X0154987Y0100700D02*
X0154887Y0100800D01*
X0149933Y0100800D01*
X0138323Y0099139D02*
X0135698Y0099139D01*
X0137184Y0098140D02*
X0125433Y0098140D01*
X0125433Y0097142D02*
X0136742Y0097142D01*
X0136622Y0096143D02*
X0125433Y0096143D01*
X0125433Y0095145D02*
X0136772Y0095145D01*
X0137258Y0094146D02*
X0135698Y0094146D01*
X0135684Y0094200D02*
X0135486Y0094542D01*
X0135207Y0094822D01*
X0134865Y0095019D01*
X0134484Y0095121D01*
X0131833Y0095121D01*
X0131833Y0089200D01*
X0130833Y0089200D01*
X0130833Y0088200D01*
X0126881Y0088200D01*
X0126881Y0083581D01*
X0126983Y0083200D01*
X0127180Y0082858D01*
X0127460Y0082578D01*
X0127802Y0082381D01*
X0128183Y0082279D01*
X0130833Y0082279D01*
X0130833Y0088200D01*
X0131833Y0088200D01*
X0131833Y0082279D01*
X0134484Y0082279D01*
X0134865Y0082381D01*
X0135207Y0082578D01*
X0135486Y0082858D01*
X0135684Y0083200D01*
X0135786Y0083581D01*
X0135786Y0088200D01*
X0131833Y0088200D01*
X0131833Y0089200D01*
X0135786Y0089200D01*
X0135786Y0093819D01*
X0135684Y0094200D01*
X0135786Y0093148D02*
X0137507Y0093148D01*
X0137507Y0092149D02*
X0135786Y0092149D01*
X0135786Y0091151D02*
X0137507Y0091151D01*
X0137507Y0090152D02*
X0135786Y0090152D01*
X0137507Y0089154D02*
X0131833Y0089154D01*
X0131833Y0090152D02*
X0130833Y0090152D01*
X0130833Y0089200D02*
X0130833Y0095121D01*
X0128183Y0095121D01*
X0127802Y0095019D01*
X0127460Y0094822D01*
X0127180Y0094542D01*
X0126983Y0094200D01*
X0126881Y0093819D01*
X0126881Y0089200D01*
X0130833Y0089200D01*
X0130833Y0089154D02*
X0125433Y0089154D01*
X0125433Y0090152D02*
X0126881Y0090152D01*
X0126881Y0091151D02*
X0125433Y0091151D01*
X0125433Y0092149D02*
X0126881Y0092149D01*
X0126881Y0093148D02*
X0125433Y0093148D01*
X0125433Y0094146D02*
X0126968Y0094146D01*
X0130833Y0094146D02*
X0131833Y0094146D01*
X0131833Y0093148D02*
X0130833Y0093148D01*
X0130833Y0092149D02*
X0131833Y0092149D01*
X0131833Y0091151D02*
X0130833Y0091151D01*
X0130833Y0088155D02*
X0131833Y0088155D01*
X0131833Y0087157D02*
X0130833Y0087157D01*
X0130833Y0086158D02*
X0131833Y0086158D01*
X0131833Y0085160D02*
X0130833Y0085160D01*
X0130833Y0084161D02*
X0131833Y0084161D01*
X0131833Y0083163D02*
X0130833Y0083163D01*
X0127004Y0083163D02*
X0125433Y0083163D01*
X0125433Y0084161D02*
X0126881Y0084161D01*
X0126881Y0085160D02*
X0125433Y0085160D01*
X0125433Y0086158D02*
X0126881Y0086158D01*
X0126881Y0087157D02*
X0125433Y0087157D01*
X0125433Y0088155D02*
X0126881Y0088155D01*
X0135786Y0088155D02*
X0137507Y0088155D01*
X0137507Y0087157D02*
X0135786Y0087157D01*
X0135786Y0086158D02*
X0137507Y0086158D01*
X0137507Y0085160D02*
X0135786Y0085160D01*
X0135786Y0084161D02*
X0137707Y0084161D01*
X0137167Y0083163D02*
X0135663Y0083163D01*
X0136735Y0082164D02*
X0125433Y0082164D01*
X0125433Y0081166D02*
X0136622Y0081166D01*
X0136780Y0080167D02*
X0125433Y0080167D01*
X0125433Y0079169D02*
X0127934Y0079169D01*
X0127802Y0079133D02*
X0127460Y0078936D01*
X0127180Y0078656D01*
X0126983Y0078314D01*
X0126881Y0077933D01*
X0126881Y0074692D01*
X0130833Y0074692D01*
X0130833Y0073692D01*
X0126881Y0073692D01*
X0126881Y0070451D01*
X0126983Y0070070D01*
X0127180Y0069728D01*
X0127460Y0069449D01*
X0127802Y0069251D01*
X0128183Y0069149D01*
X0130833Y0069149D01*
X0130833Y0073692D01*
X0131833Y0073692D01*
X0131833Y0069149D01*
X0134484Y0069149D01*
X0134865Y0069251D01*
X0135207Y0069449D01*
X0135486Y0069728D01*
X0135684Y0070070D01*
X0135786Y0070451D01*
X0135786Y0073692D01*
X0131833Y0073692D01*
X0131833Y0074692D01*
X0130833Y0074692D01*
X0130833Y0079235D01*
X0128183Y0079235D01*
X0127802Y0079133D01*
X0126944Y0078170D02*
X0125433Y0078170D01*
X0125433Y0077172D02*
X0126881Y0077172D01*
X0126881Y0076173D02*
X0125433Y0076173D01*
X0125433Y0075175D02*
X0126881Y0075175D01*
X0125433Y0074176D02*
X0130833Y0074176D01*
X0130833Y0073178D02*
X0131833Y0073178D01*
X0131833Y0074176D02*
X0147362Y0074176D01*
X0147904Y0075175D02*
X0135786Y0075175D01*
X0135786Y0074692D02*
X0131833Y0074692D01*
X0131833Y0079235D01*
X0134484Y0079235D01*
X0134865Y0079133D01*
X0135207Y0078936D01*
X0135486Y0078656D01*
X0135684Y0078314D01*
X0135786Y0077933D01*
X0135786Y0074692D01*
X0135786Y0076173D02*
X0146998Y0076173D01*
X0146584Y0077172D02*
X0135786Y0077172D01*
X0135722Y0078170D02*
X0138542Y0078170D01*
X0137275Y0079169D02*
X0134732Y0079169D01*
X0131833Y0079169D02*
X0130833Y0079169D01*
X0130833Y0078170D02*
X0131833Y0078170D01*
X0131833Y0077172D02*
X0130833Y0077172D01*
X0130833Y0076173D02*
X0131833Y0076173D01*
X0131833Y0075175D02*
X0130833Y0075175D01*
X0130833Y0072179D02*
X0131833Y0072179D01*
X0131833Y0071181D02*
X0130833Y0071181D01*
X0130833Y0070182D02*
X0131833Y0070182D01*
X0131833Y0069184D02*
X0130833Y0069184D01*
X0128053Y0069184D02*
X0125433Y0069184D01*
X0125433Y0070182D02*
X0126953Y0070182D01*
X0126881Y0071181D02*
X0125433Y0071181D01*
X0125433Y0072179D02*
X0126881Y0072179D01*
X0126881Y0073178D02*
X0125433Y0073178D01*
X0134613Y0069184D02*
X0141133Y0069184D01*
X0141137Y0068185D02*
X0125433Y0068185D01*
X0125433Y0067187D02*
X0142135Y0067187D01*
X0143333Y0069100D02*
X0144933Y0070700D01*
X0149881Y0070700D01*
X0142956Y0073178D02*
X0135786Y0073178D01*
X0135786Y0072179D02*
X0142136Y0072179D01*
X0141783Y0071181D02*
X0135786Y0071181D01*
X0135714Y0070182D02*
X0141304Y0070182D01*
X0144531Y0067187D02*
X0147399Y0067187D01*
X0152362Y0067187D02*
X0154304Y0067187D01*
X0156786Y0070700D02*
X0160333Y0070700D01*
X0161833Y0072200D01*
X0161833Y0075546D01*
X0161680Y0075700D01*
X0161286Y0075306D01*
X0165545Y0075175D02*
X0167784Y0075175D01*
X0166355Y0074176D02*
X0165545Y0074176D01*
X0165545Y0073178D02*
X0165829Y0073178D01*
X0165683Y0072179D02*
X0164697Y0072179D01*
X0163925Y0071181D02*
X0165846Y0071181D01*
X0166396Y0070182D02*
X0162927Y0070182D01*
X0161928Y0069184D02*
X0167884Y0069184D01*
X0169782Y0069184D02*
X0194883Y0069184D01*
X0194883Y0070182D02*
X0181127Y0070182D01*
X0182125Y0071181D02*
X0194883Y0071181D01*
X0194883Y0072179D02*
X0183124Y0072179D01*
X0184122Y0073178D02*
X0194883Y0073178D01*
X0199283Y0073178D02*
X0200302Y0073178D01*
X0200265Y0073140D02*
X0200067Y0072798D01*
X0199965Y0072416D01*
X0199965Y0070538D01*
X0202949Y0070538D01*
X0202949Y0069569D01*
X0199965Y0069569D01*
X0199965Y0068888D01*
X0199283Y0068888D01*
X0199283Y0073700D01*
X0199942Y0073700D01*
X0200383Y0073259D01*
X0200265Y0073140D01*
X0199965Y0072179D02*
X0199283Y0072179D01*
X0199283Y0071181D02*
X0199965Y0071181D01*
X0199283Y0070182D02*
X0202949Y0070182D01*
X0203918Y0070182D02*
X0210784Y0070182D01*
X0210784Y0070742D02*
X0210784Y0068288D01*
X0214933Y0068288D01*
X0214933Y0067288D01*
X0210784Y0067288D01*
X0210784Y0064861D01*
X0206902Y0068743D01*
X0206902Y0069569D01*
X0203918Y0069569D01*
X0203918Y0070538D01*
X0206902Y0070538D01*
X0206902Y0072416D01*
X0206800Y0072798D01*
X0206602Y0073140D01*
X0206483Y0073259D01*
X0207102Y0073877D01*
X0207102Y0074259D01*
X0207607Y0074050D01*
X0208860Y0074050D01*
X0210018Y0074530D01*
X0210712Y0075224D01*
X0211580Y0074356D01*
X0219287Y0074356D01*
X0220283Y0075352D01*
X0220283Y0076511D01*
X0220423Y0076172D01*
X0221455Y0075140D01*
X0222804Y0074581D01*
X0224263Y0074581D01*
X0224502Y0074680D01*
X0224502Y0067480D01*
X0221422Y0064400D01*
X0219950Y0064400D01*
X0219981Y0064453D01*
X0220083Y0064835D01*
X0220083Y0067288D01*
X0215933Y0067288D01*
X0215933Y0068288D01*
X0214933Y0068288D01*
X0214933Y0072044D01*
X0212086Y0072044D01*
X0211705Y0071942D01*
X0211363Y0071744D01*
X0211083Y0071465D01*
X0210886Y0071123D01*
X0210784Y0070742D01*
X0210919Y0071181D02*
X0206902Y0071181D01*
X0206902Y0072179D02*
X0224502Y0072179D01*
X0224502Y0071181D02*
X0219947Y0071181D01*
X0219981Y0071123D02*
X0219783Y0071465D01*
X0219504Y0071744D01*
X0219162Y0071942D01*
X0218780Y0072044D01*
X0215933Y0072044D01*
X0215933Y0068288D01*
X0220083Y0068288D01*
X0220083Y0070742D01*
X0219981Y0071123D01*
X0220083Y0070182D02*
X0224502Y0070182D01*
X0224502Y0069184D02*
X0220083Y0069184D01*
X0220083Y0067187D02*
X0224209Y0067187D01*
X0224502Y0068185D02*
X0215933Y0068185D01*
X0215933Y0069184D02*
X0214933Y0069184D01*
X0214933Y0070182D02*
X0215933Y0070182D01*
X0215933Y0071181D02*
X0214933Y0071181D01*
X0210784Y0069184D02*
X0206902Y0069184D01*
X0207459Y0068185D02*
X0214933Y0068185D01*
X0210784Y0067187D02*
X0208458Y0067187D01*
X0209456Y0066188D02*
X0210784Y0066188D01*
X0210784Y0065190D02*
X0210455Y0065190D01*
X0210333Y0062200D02*
X0205845Y0066688D01*
X0198345Y0066688D01*
X0197083Y0067950D01*
X0197083Y0077650D01*
X0199583Y0077650D02*
X0199583Y0081550D01*
X0203223Y0085190D01*
X0204923Y0085190D01*
X0205733Y0086000D01*
X0211033Y0085900D02*
X0221033Y0085900D01*
X0224333Y0089200D01*
X0224349Y0089184D01*
X0230833Y0089184D01*
X0230833Y0087216D02*
X0236349Y0087216D01*
X0230833Y0085247D02*
X0230557Y0084971D01*
X0228368Y0084971D01*
X0226702Y0083305D01*
X0226702Y0066569D01*
X0222333Y0062200D01*
X0210333Y0062200D01*
X0208227Y0061196D02*
X0183107Y0061196D01*
X0184990Y0062194D02*
X0207228Y0062194D01*
X0206229Y0063193D02*
X0185988Y0063193D01*
X0186176Y0063380D02*
X0186176Y0063380D01*
X0186176Y0064191D02*
X0205231Y0064191D01*
X0196732Y0065190D02*
X0186176Y0065190D01*
X0186176Y0066188D02*
X0195734Y0066188D01*
X0194883Y0067187D02*
X0185478Y0067187D01*
X0184480Y0068185D02*
X0194883Y0068185D01*
X0199283Y0069184D02*
X0199965Y0069184D01*
X0206564Y0073178D02*
X0224502Y0073178D01*
X0224502Y0074176D02*
X0209165Y0074176D01*
X0210663Y0075175D02*
X0210761Y0075175D01*
X0208233Y0077200D02*
X0207780Y0076746D01*
X0203433Y0076746D01*
X0208233Y0077200D02*
X0209733Y0078700D01*
X0215322Y0078700D01*
X0215433Y0078812D01*
X0220283Y0076173D02*
X0220423Y0076173D01*
X0220106Y0075175D02*
X0221421Y0075175D01*
X0228902Y0075175D02*
X0233287Y0075175D01*
X0233287Y0076173D02*
X0228902Y0076173D01*
X0228902Y0077172D02*
X0233907Y0077172D01*
X0234283Y0077548D02*
X0233287Y0076552D01*
X0233287Y0071206D01*
X0234283Y0070211D01*
X0240967Y0070211D01*
X0241962Y0071206D01*
X0241962Y0076552D01*
X0240967Y0077548D01*
X0234283Y0077548D01*
X0228902Y0078170D02*
X0246233Y0078170D01*
X0246233Y0077172D02*
X0241343Y0077172D01*
X0241962Y0076173D02*
X0246233Y0076173D01*
X0246233Y0075175D02*
X0241962Y0075175D01*
X0241962Y0074176D02*
X0246233Y0074176D01*
X0246233Y0073178D02*
X0241962Y0073178D01*
X0241962Y0072179D02*
X0246233Y0072179D01*
X0246233Y0071181D02*
X0241937Y0071181D01*
X0246233Y0070182D02*
X0228902Y0070182D01*
X0228902Y0069184D02*
X0246233Y0069184D01*
X0246233Y0068185D02*
X0228902Y0068185D01*
X0228902Y0067187D02*
X0246233Y0067187D01*
X0246233Y0066188D02*
X0228902Y0066188D01*
X0228434Y0065190D02*
X0246233Y0065190D01*
X0246233Y0064191D02*
X0227436Y0064191D01*
X0227613Y0064369D02*
X0227613Y0064369D01*
X0226437Y0063193D02*
X0246233Y0063193D01*
X0246233Y0062194D02*
X0225439Y0062194D01*
X0224440Y0061196D02*
X0246233Y0061196D01*
X0233313Y0071181D02*
X0228902Y0071181D01*
X0228902Y0072179D02*
X0233287Y0072179D01*
X0233287Y0073178D02*
X0228902Y0073178D01*
X0228902Y0074176D02*
X0233287Y0074176D01*
X0223210Y0066188D02*
X0220083Y0066188D01*
X0220083Y0065190D02*
X0222212Y0065190D01*
X0207302Y0074176D02*
X0207102Y0074176D01*
X0189583Y0074176D02*
X0189583Y0074176D01*
X0189583Y0075175D02*
X0189583Y0075175D01*
X0189583Y0076173D02*
X0189583Y0076173D01*
X0189583Y0077172D02*
X0189583Y0077172D01*
X0182083Y0077650D02*
X0182083Y0074250D01*
X0180033Y0072200D01*
X0168833Y0072200D01*
X0169883Y0075175D02*
X0174633Y0075175D01*
X0174633Y0076173D02*
X0165545Y0076173D01*
X0154987Y0075700D02*
X0151833Y0075700D01*
X0149733Y0077800D01*
X0146891Y0079169D02*
X0142714Y0079169D01*
X0143210Y0080167D02*
X0147646Y0080167D01*
X0146583Y0078170D02*
X0141447Y0078170D01*
X0143368Y0081166D02*
X0151122Y0081166D01*
X0151122Y0082164D02*
X0146284Y0082164D01*
X0146416Y0083163D02*
X0151122Y0083163D01*
X0149181Y0084161D02*
X0146416Y0084161D01*
X0146416Y0083582D02*
X0142403Y0083582D01*
X0142403Y0083582D01*
X0146416Y0083582D01*
X0146616Y0085160D02*
X0148182Y0085160D01*
X0147184Y0086158D02*
X0146616Y0086158D01*
X0147753Y0088700D02*
X0142062Y0088700D01*
X0147753Y0088700D02*
X0150783Y0085670D01*
X0154957Y0085670D01*
X0154987Y0085700D01*
X0154987Y0080700D01*
X0160266Y0068185D02*
X0172562Y0068185D01*
X0171633Y0067187D02*
X0159268Y0067187D01*
X0171633Y0066188D02*
X0125433Y0066188D01*
X0125433Y0065190D02*
X0172126Y0065190D01*
X0172401Y0064191D02*
X0125433Y0064191D01*
X0125433Y0063193D02*
X0172588Y0063193D01*
X0172401Y0063380D02*
X0172401Y0063380D01*
X0172401Y0063380D01*
X0173514Y0062267D02*
X0173514Y0062267D01*
X0173587Y0062194D02*
X0125433Y0062194D01*
X0125433Y0061196D02*
X0179307Y0061196D01*
X0185063Y0062267D02*
X0185063Y0062267D01*
X0180235Y0068185D02*
X0179876Y0068185D01*
X0176583Y0068369D02*
X0176583Y0068369D01*
X0176583Y0068369D01*
X0176399Y0068185D02*
X0176039Y0068185D01*
X0175855Y0068369D02*
X0175855Y0068369D01*
X0187083Y0095145D02*
X0187083Y0095145D01*
X0187083Y0096143D02*
X0187083Y0096143D01*
X0187083Y0097142D02*
X0187083Y0097142D01*
X0187083Y0098140D02*
X0187083Y0098140D01*
X0184583Y0098750D02*
X0184583Y0102950D01*
X0188233Y0106600D01*
X0188233Y0108789D01*
X0185442Y0110123D02*
X0184522Y0110123D01*
X0186197Y0111121D02*
X0131442Y0111121D01*
X0131857Y0112120D02*
X0207922Y0112120D01*
X0207922Y0113118D02*
X0132002Y0113118D01*
X0131924Y0114117D02*
X0207922Y0114117D01*
X0207922Y0115115D02*
X0131511Y0115115D01*
X0130444Y0110123D02*
X0182145Y0110123D01*
X0183333Y0108200D02*
X0182083Y0106950D01*
X0182083Y0098750D01*
X0179883Y0103133D02*
X0178699Y0103133D01*
X0177700Y0104132D02*
X0179883Y0104132D01*
X0179883Y0105130D02*
X0175558Y0105130D01*
X0170434Y0104132D02*
X0164786Y0104132D01*
X0165545Y0103133D02*
X0170183Y0103133D01*
X0170241Y0102134D02*
X0165545Y0102134D01*
X0165545Y0101136D02*
X0170654Y0101136D01*
X0171771Y0100137D02*
X0165545Y0100137D01*
X0161680Y0100700D02*
X0161633Y0100746D01*
X0161633Y0103700D01*
X0159633Y0105700D01*
X0156786Y0105700D01*
X0149881Y0105700D02*
X0144733Y0105700D01*
X0126223Y0110123D02*
X0125433Y0110123D01*
X0187878Y0103133D02*
X0192855Y0103133D01*
X0193854Y0104132D02*
X0188876Y0104132D01*
X0189875Y0105130D02*
X0194852Y0105130D01*
X0195523Y0106129D02*
X0190433Y0106129D01*
X0190888Y0107127D02*
X0195523Y0107127D01*
X0195523Y0108126D02*
X0191302Y0108126D01*
X0191322Y0109124D02*
X0196336Y0109124D01*
X0191024Y0110123D02*
X0208326Y0110123D01*
X0207922Y0111121D02*
X0190270Y0111121D01*
X0207076Y0103133D02*
X0208044Y0103133D01*
X0208044Y0102134D02*
X0207076Y0102134D01*
X0207076Y0101136D02*
X0208044Y0101136D01*
X0213233Y0108300D02*
X0211787Y0109746D01*
X0211787Y0113200D01*
X0218480Y0113200D02*
X0223333Y0113200D01*
X0218733Y0108300D02*
X0213233Y0108300D01*
D26*
X0218733Y0108300D03*
X0191333Y0103850D03*
X0204083Y0097950D03*
X0193333Y0093700D03*
X0173333Y0091700D03*
X0168623Y0091820D03*
X0181083Y0082900D03*
X0169633Y0081050D03*
X0149733Y0077800D03*
X0143933Y0076700D03*
X0144933Y0070700D03*
X0168833Y0072200D03*
X0189983Y0071400D03*
X0209033Y0071550D03*
X0208233Y0077200D03*
X0211033Y0085900D03*
X0205733Y0086000D03*
X0173333Y0102900D03*
X0149933Y0100800D03*
X0149866Y0095418D03*
X0144733Y0105700D03*
D27*
X0131363Y0103020D03*
X0131353Y0088680D03*
X0131363Y0073930D03*
D28*
X0221833Y0071700D03*
X0236833Y0066700D03*
X0228333Y0102200D03*
X0231833Y0106700D03*
X0188233Y0108789D03*
D29*
X0230433Y0091100D02*
X0230833Y0091153D01*
X0231133Y0083400D02*
X0230833Y0083279D01*
X0231133Y0083400D02*
X0231133Y0072900D01*
X0236733Y0067300D01*
X0236833Y0066700D01*
X0184933Y0077800D02*
X0184583Y0077650D01*
M02*
