%
M48
M72
T01C0.01378
T02C0.01500
T03C0.02000
T04C0.03346
T05C0.03543
%
T01
X236833Y66700
X221833Y71700
X228333Y102200
X231833Y106700
X188233Y108789
T02
X209033Y71550
X208233Y77200
X189983Y71400
X168833Y72200
X149733Y77800
X143933Y76700
X144933Y70700
X169633Y81050
X181083Y82900
X173333Y91700
X168623Y91820
X149866Y95418
X149933Y100800
X144733Y105700
X173333Y102900
X191333Y103850
X204083Y97950
X193333Y93700
X205733Y86000
X211033Y85900
X218733Y108300
T03
X131363Y103020
X131353Y88680
X131363Y73930
T04
X139995Y96180
X139995Y81220
T05
X241833Y82794
X241833Y94606
M30
