G75*
%MOIN*%
%OFA0B0*%
%FSLAX25Y25*%
%IPPOS*%
%LPD*%
%AMOC8*
5,1,8,0,0,1.08239X$1,22.5*
%
%ADD10C,0.00800*%
%ADD11C,0.00000*%
%ADD12R,0.05906X0.02756*%
%ADD13R,0.03150X0.03937*%
D10*
X0123333Y0058200D02*
X0248333Y0058200D01*
X0248333Y0118200D01*
X0123333Y0118200D01*
X0123333Y0058200D01*
D11*
X0138322Y0081220D02*
X0138324Y0081301D01*
X0138330Y0081383D01*
X0138340Y0081464D01*
X0138354Y0081544D01*
X0138371Y0081623D01*
X0138393Y0081702D01*
X0138418Y0081779D01*
X0138447Y0081856D01*
X0138480Y0081930D01*
X0138517Y0082003D01*
X0138556Y0082074D01*
X0138600Y0082143D01*
X0138646Y0082210D01*
X0138696Y0082274D01*
X0138749Y0082336D01*
X0138805Y0082396D01*
X0138863Y0082452D01*
X0138925Y0082506D01*
X0138989Y0082557D01*
X0139055Y0082604D01*
X0139123Y0082648D01*
X0139194Y0082689D01*
X0139266Y0082726D01*
X0139341Y0082760D01*
X0139416Y0082790D01*
X0139494Y0082816D01*
X0139572Y0082839D01*
X0139651Y0082857D01*
X0139731Y0082872D01*
X0139812Y0082883D01*
X0139893Y0082890D01*
X0139975Y0082893D01*
X0140056Y0082892D01*
X0140137Y0082887D01*
X0140218Y0082878D01*
X0140299Y0082865D01*
X0140379Y0082848D01*
X0140457Y0082828D01*
X0140535Y0082803D01*
X0140612Y0082775D01*
X0140687Y0082743D01*
X0140760Y0082708D01*
X0140831Y0082669D01*
X0140901Y0082626D01*
X0140968Y0082581D01*
X0141034Y0082532D01*
X0141096Y0082480D01*
X0141156Y0082424D01*
X0141213Y0082366D01*
X0141268Y0082306D01*
X0141319Y0082242D01*
X0141367Y0082177D01*
X0141412Y0082109D01*
X0141454Y0082039D01*
X0141492Y0081967D01*
X0141527Y0081893D01*
X0141558Y0081818D01*
X0141585Y0081741D01*
X0141608Y0081663D01*
X0141628Y0081584D01*
X0141644Y0081504D01*
X0141656Y0081423D01*
X0141664Y0081342D01*
X0141668Y0081261D01*
X0141668Y0081179D01*
X0141664Y0081098D01*
X0141656Y0081017D01*
X0141644Y0080936D01*
X0141628Y0080856D01*
X0141608Y0080777D01*
X0141585Y0080699D01*
X0141558Y0080622D01*
X0141527Y0080547D01*
X0141492Y0080473D01*
X0141454Y0080401D01*
X0141412Y0080331D01*
X0141367Y0080263D01*
X0141319Y0080198D01*
X0141268Y0080134D01*
X0141213Y0080074D01*
X0141156Y0080016D01*
X0141096Y0079960D01*
X0141034Y0079908D01*
X0140968Y0079859D01*
X0140901Y0079814D01*
X0140832Y0079771D01*
X0140760Y0079732D01*
X0140687Y0079697D01*
X0140612Y0079665D01*
X0140535Y0079637D01*
X0140457Y0079612D01*
X0140379Y0079592D01*
X0140299Y0079575D01*
X0140218Y0079562D01*
X0140137Y0079553D01*
X0140056Y0079548D01*
X0139975Y0079547D01*
X0139893Y0079550D01*
X0139812Y0079557D01*
X0139731Y0079568D01*
X0139651Y0079583D01*
X0139572Y0079601D01*
X0139494Y0079624D01*
X0139416Y0079650D01*
X0139341Y0079680D01*
X0139266Y0079714D01*
X0139194Y0079751D01*
X0139123Y0079792D01*
X0139055Y0079836D01*
X0138989Y0079883D01*
X0138925Y0079934D01*
X0138863Y0079988D01*
X0138805Y0080044D01*
X0138749Y0080104D01*
X0138696Y0080166D01*
X0138646Y0080230D01*
X0138600Y0080297D01*
X0138556Y0080366D01*
X0138517Y0080437D01*
X0138480Y0080510D01*
X0138447Y0080584D01*
X0138418Y0080661D01*
X0138393Y0080738D01*
X0138371Y0080817D01*
X0138354Y0080896D01*
X0138340Y0080976D01*
X0138330Y0081057D01*
X0138324Y0081139D01*
X0138322Y0081220D01*
X0138322Y0096180D02*
X0138324Y0096261D01*
X0138330Y0096343D01*
X0138340Y0096424D01*
X0138354Y0096504D01*
X0138371Y0096583D01*
X0138393Y0096662D01*
X0138418Y0096739D01*
X0138447Y0096816D01*
X0138480Y0096890D01*
X0138517Y0096963D01*
X0138556Y0097034D01*
X0138600Y0097103D01*
X0138646Y0097170D01*
X0138696Y0097234D01*
X0138749Y0097296D01*
X0138805Y0097356D01*
X0138863Y0097412D01*
X0138925Y0097466D01*
X0138989Y0097517D01*
X0139055Y0097564D01*
X0139123Y0097608D01*
X0139194Y0097649D01*
X0139266Y0097686D01*
X0139341Y0097720D01*
X0139416Y0097750D01*
X0139494Y0097776D01*
X0139572Y0097799D01*
X0139651Y0097817D01*
X0139731Y0097832D01*
X0139812Y0097843D01*
X0139893Y0097850D01*
X0139975Y0097853D01*
X0140056Y0097852D01*
X0140137Y0097847D01*
X0140218Y0097838D01*
X0140299Y0097825D01*
X0140379Y0097808D01*
X0140457Y0097788D01*
X0140535Y0097763D01*
X0140612Y0097735D01*
X0140687Y0097703D01*
X0140760Y0097668D01*
X0140831Y0097629D01*
X0140901Y0097586D01*
X0140968Y0097541D01*
X0141034Y0097492D01*
X0141096Y0097440D01*
X0141156Y0097384D01*
X0141213Y0097326D01*
X0141268Y0097266D01*
X0141319Y0097202D01*
X0141367Y0097137D01*
X0141412Y0097069D01*
X0141454Y0096999D01*
X0141492Y0096927D01*
X0141527Y0096853D01*
X0141558Y0096778D01*
X0141585Y0096701D01*
X0141608Y0096623D01*
X0141628Y0096544D01*
X0141644Y0096464D01*
X0141656Y0096383D01*
X0141664Y0096302D01*
X0141668Y0096221D01*
X0141668Y0096139D01*
X0141664Y0096058D01*
X0141656Y0095977D01*
X0141644Y0095896D01*
X0141628Y0095816D01*
X0141608Y0095737D01*
X0141585Y0095659D01*
X0141558Y0095582D01*
X0141527Y0095507D01*
X0141492Y0095433D01*
X0141454Y0095361D01*
X0141412Y0095291D01*
X0141367Y0095223D01*
X0141319Y0095158D01*
X0141268Y0095094D01*
X0141213Y0095034D01*
X0141156Y0094976D01*
X0141096Y0094920D01*
X0141034Y0094868D01*
X0140968Y0094819D01*
X0140901Y0094774D01*
X0140832Y0094731D01*
X0140760Y0094692D01*
X0140687Y0094657D01*
X0140612Y0094625D01*
X0140535Y0094597D01*
X0140457Y0094572D01*
X0140379Y0094552D01*
X0140299Y0094535D01*
X0140218Y0094522D01*
X0140137Y0094513D01*
X0140056Y0094508D01*
X0139975Y0094507D01*
X0139893Y0094510D01*
X0139812Y0094517D01*
X0139731Y0094528D01*
X0139651Y0094543D01*
X0139572Y0094561D01*
X0139494Y0094584D01*
X0139416Y0094610D01*
X0139341Y0094640D01*
X0139266Y0094674D01*
X0139194Y0094711D01*
X0139123Y0094752D01*
X0139055Y0094796D01*
X0138989Y0094843D01*
X0138925Y0094894D01*
X0138863Y0094948D01*
X0138805Y0095004D01*
X0138749Y0095064D01*
X0138696Y0095126D01*
X0138646Y0095190D01*
X0138600Y0095257D01*
X0138556Y0095326D01*
X0138517Y0095397D01*
X0138480Y0095470D01*
X0138447Y0095544D01*
X0138418Y0095621D01*
X0138393Y0095698D01*
X0138371Y0095777D01*
X0138354Y0095856D01*
X0138340Y0095936D01*
X0138330Y0096017D01*
X0138324Y0096099D01*
X0138322Y0096180D01*
X0240061Y0094606D02*
X0240063Y0094690D01*
X0240069Y0094773D01*
X0240079Y0094856D01*
X0240093Y0094939D01*
X0240110Y0095021D01*
X0240132Y0095102D01*
X0240157Y0095181D01*
X0240186Y0095260D01*
X0240219Y0095337D01*
X0240255Y0095412D01*
X0240295Y0095486D01*
X0240338Y0095558D01*
X0240385Y0095627D01*
X0240435Y0095694D01*
X0240488Y0095759D01*
X0240544Y0095821D01*
X0240602Y0095881D01*
X0240664Y0095938D01*
X0240728Y0095991D01*
X0240795Y0096042D01*
X0240864Y0096089D01*
X0240935Y0096134D01*
X0241008Y0096174D01*
X0241083Y0096211D01*
X0241160Y0096245D01*
X0241238Y0096275D01*
X0241317Y0096301D01*
X0241398Y0096324D01*
X0241480Y0096342D01*
X0241562Y0096357D01*
X0241645Y0096368D01*
X0241728Y0096375D01*
X0241812Y0096378D01*
X0241896Y0096377D01*
X0241979Y0096372D01*
X0242063Y0096363D01*
X0242145Y0096350D01*
X0242227Y0096334D01*
X0242308Y0096313D01*
X0242389Y0096289D01*
X0242467Y0096261D01*
X0242545Y0096229D01*
X0242621Y0096193D01*
X0242695Y0096154D01*
X0242767Y0096112D01*
X0242837Y0096066D01*
X0242905Y0096017D01*
X0242970Y0095965D01*
X0243033Y0095910D01*
X0243093Y0095852D01*
X0243151Y0095791D01*
X0243205Y0095727D01*
X0243257Y0095661D01*
X0243305Y0095593D01*
X0243350Y0095522D01*
X0243391Y0095449D01*
X0243430Y0095375D01*
X0243464Y0095299D01*
X0243495Y0095221D01*
X0243522Y0095142D01*
X0243546Y0095061D01*
X0243565Y0094980D01*
X0243581Y0094898D01*
X0243593Y0094815D01*
X0243601Y0094731D01*
X0243605Y0094648D01*
X0243605Y0094564D01*
X0243601Y0094481D01*
X0243593Y0094397D01*
X0243581Y0094314D01*
X0243565Y0094232D01*
X0243546Y0094151D01*
X0243522Y0094070D01*
X0243495Y0093991D01*
X0243464Y0093913D01*
X0243430Y0093837D01*
X0243391Y0093763D01*
X0243350Y0093690D01*
X0243305Y0093619D01*
X0243257Y0093551D01*
X0243205Y0093485D01*
X0243151Y0093421D01*
X0243093Y0093360D01*
X0243033Y0093302D01*
X0242970Y0093247D01*
X0242905Y0093195D01*
X0242837Y0093146D01*
X0242767Y0093100D01*
X0242695Y0093058D01*
X0242621Y0093019D01*
X0242545Y0092983D01*
X0242467Y0092951D01*
X0242389Y0092923D01*
X0242308Y0092899D01*
X0242227Y0092878D01*
X0242145Y0092862D01*
X0242063Y0092849D01*
X0241979Y0092840D01*
X0241896Y0092835D01*
X0241812Y0092834D01*
X0241728Y0092837D01*
X0241645Y0092844D01*
X0241562Y0092855D01*
X0241480Y0092870D01*
X0241398Y0092888D01*
X0241317Y0092911D01*
X0241238Y0092937D01*
X0241160Y0092967D01*
X0241083Y0093001D01*
X0241008Y0093038D01*
X0240935Y0093078D01*
X0240864Y0093123D01*
X0240795Y0093170D01*
X0240728Y0093221D01*
X0240664Y0093274D01*
X0240602Y0093331D01*
X0240544Y0093391D01*
X0240488Y0093453D01*
X0240435Y0093518D01*
X0240385Y0093585D01*
X0240338Y0093654D01*
X0240295Y0093726D01*
X0240255Y0093800D01*
X0240219Y0093875D01*
X0240186Y0093952D01*
X0240157Y0094031D01*
X0240132Y0094110D01*
X0240110Y0094191D01*
X0240093Y0094273D01*
X0240079Y0094356D01*
X0240069Y0094439D01*
X0240063Y0094522D01*
X0240061Y0094606D01*
X0240061Y0082794D02*
X0240063Y0082878D01*
X0240069Y0082961D01*
X0240079Y0083044D01*
X0240093Y0083127D01*
X0240110Y0083209D01*
X0240132Y0083290D01*
X0240157Y0083369D01*
X0240186Y0083448D01*
X0240219Y0083525D01*
X0240255Y0083600D01*
X0240295Y0083674D01*
X0240338Y0083746D01*
X0240385Y0083815D01*
X0240435Y0083882D01*
X0240488Y0083947D01*
X0240544Y0084009D01*
X0240602Y0084069D01*
X0240664Y0084126D01*
X0240728Y0084179D01*
X0240795Y0084230D01*
X0240864Y0084277D01*
X0240935Y0084322D01*
X0241008Y0084362D01*
X0241083Y0084399D01*
X0241160Y0084433D01*
X0241238Y0084463D01*
X0241317Y0084489D01*
X0241398Y0084512D01*
X0241480Y0084530D01*
X0241562Y0084545D01*
X0241645Y0084556D01*
X0241728Y0084563D01*
X0241812Y0084566D01*
X0241896Y0084565D01*
X0241979Y0084560D01*
X0242063Y0084551D01*
X0242145Y0084538D01*
X0242227Y0084522D01*
X0242308Y0084501D01*
X0242389Y0084477D01*
X0242467Y0084449D01*
X0242545Y0084417D01*
X0242621Y0084381D01*
X0242695Y0084342D01*
X0242767Y0084300D01*
X0242837Y0084254D01*
X0242905Y0084205D01*
X0242970Y0084153D01*
X0243033Y0084098D01*
X0243093Y0084040D01*
X0243151Y0083979D01*
X0243205Y0083915D01*
X0243257Y0083849D01*
X0243305Y0083781D01*
X0243350Y0083710D01*
X0243391Y0083637D01*
X0243430Y0083563D01*
X0243464Y0083487D01*
X0243495Y0083409D01*
X0243522Y0083330D01*
X0243546Y0083249D01*
X0243565Y0083168D01*
X0243581Y0083086D01*
X0243593Y0083003D01*
X0243601Y0082919D01*
X0243605Y0082836D01*
X0243605Y0082752D01*
X0243601Y0082669D01*
X0243593Y0082585D01*
X0243581Y0082502D01*
X0243565Y0082420D01*
X0243546Y0082339D01*
X0243522Y0082258D01*
X0243495Y0082179D01*
X0243464Y0082101D01*
X0243430Y0082025D01*
X0243391Y0081951D01*
X0243350Y0081878D01*
X0243305Y0081807D01*
X0243257Y0081739D01*
X0243205Y0081673D01*
X0243151Y0081609D01*
X0243093Y0081548D01*
X0243033Y0081490D01*
X0242970Y0081435D01*
X0242905Y0081383D01*
X0242837Y0081334D01*
X0242767Y0081288D01*
X0242695Y0081246D01*
X0242621Y0081207D01*
X0242545Y0081171D01*
X0242467Y0081139D01*
X0242389Y0081111D01*
X0242308Y0081087D01*
X0242227Y0081066D01*
X0242145Y0081050D01*
X0242063Y0081037D01*
X0241979Y0081028D01*
X0241896Y0081023D01*
X0241812Y0081022D01*
X0241728Y0081025D01*
X0241645Y0081032D01*
X0241562Y0081043D01*
X0241480Y0081058D01*
X0241398Y0081076D01*
X0241317Y0081099D01*
X0241238Y0081125D01*
X0241160Y0081155D01*
X0241083Y0081189D01*
X0241008Y0081226D01*
X0240935Y0081266D01*
X0240864Y0081311D01*
X0240795Y0081358D01*
X0240728Y0081409D01*
X0240664Y0081462D01*
X0240602Y0081519D01*
X0240544Y0081579D01*
X0240488Y0081641D01*
X0240435Y0081706D01*
X0240385Y0081773D01*
X0240338Y0081842D01*
X0240295Y0081914D01*
X0240255Y0081988D01*
X0240219Y0082063D01*
X0240186Y0082140D01*
X0240157Y0082219D01*
X0240132Y0082298D01*
X0240110Y0082379D01*
X0240093Y0082461D01*
X0240079Y0082544D01*
X0240069Y0082627D01*
X0240063Y0082710D01*
X0240061Y0082794D01*
D12*
X0233959Y0079842D03*
X0233959Y0085747D03*
X0233959Y0097558D03*
D13*
X0237503Y0103070D03*
X0246164Y0103070D03*
X0246164Y0074330D03*
X0237503Y0074330D03*
M02*
