  0
SECTION
  2
HEADER
  9
$ACADVER
  1
AC1009
  9
$FILLMODE
 70
0
  9
$EXTMIN
 10
1.9820
 20
-8.8159
 30
0.0000
  9
$EXTMAX
 10
99.2566
 20
35.8661
 30
0.0000
  0
ENDSEC
  0
SECTION
  2
TABLES
  0
TABLE
  2
LTYPE
 70
1
  0
LTYPE
  2
CONTINUOUS
 70
64
  3
Solid line
 72
65
 73
0
 40
0
  0
ENDTAB
  0
TABLE
  2
LAYER
 70
255
  0
LAYER
  2
20
 70
64
 62
30
  6
CONTINUOUS
  0
LAYER
  2
21
 70
64
 62
253
  6
CONTINUOUS
  0
LAYER
  2
29
 70
64
 62
253
  6
CONTINUOUS
  0
LAYER
  2
31
 70
64
 62
253
  6
CONTINUOUS
  0
ENDTAB
  0
ENDSEC
  0
SECTION
  2
BLOCKS
  0
BLOCK
  8
0
  2
RECT
 70
64
 10
0.0000
 20
0.0000
 30
0.0000
  3
RECT
  0
SOLID
  8
0
 10
-0.5000
 20
-0.5000
 30
0.0000
 11
0.5000
 21
-0.5000
 31
0.0000
 12
-0.5000
 22
0.5000
 32
0.0000
 13
0.5000
 23
0.5000
 33
0.0000
  0
ENDBLK
  8
0
  0
BLOCK
  8
0
  2
PIE
 70
64
 10
0.0000
 20
0.0000
 30
0.0000
  3
PIE
  0
CIRCLE
  8
0
 10
0.0000
 20
0.0000
 30
0.0000
 40
0.5000
  0
ENDBLK
  8
0
  0
BLOCK
  8
0
  2
OCTAGONP
 70
64
 10
0.0000
 20
0.0000
 30
0.0000
  3
OCTAGONP
  0
POLYLINE
  8
0
 66
1
 10
0.0000
 20
0.0000
 30
0.0000
 40
0.0000
 41
0.0000
 70
1
  0
VERTEX
  8
0
 10
-0.5000
 20
-0.2071
 30
0.0000
  0
VERTEX
  8
0
 10
-0.5000
 20
0.2071
 30
0.0000
  0
VERTEX
  8
0
 10
-0.2071
 20
0.5000
 30
0.0000
  0
VERTEX
  8
0
 10
0.2071
 20
0.5000
 30
0.0000
  0
VERTEX
  8
0
 10
0.5000
 20
0.2071
 30
0.0000
  0
VERTEX
  8
0
 10
0.5000
 20
-0.2071
 30
0.0000
  0
VERTEX
  8
0
 10
0.2071
 20
-0.5000
 30
0.0000
  0
VERTEX
  8
0
 10
-0.2071
 20
-0.5000
 30
0.0000
  0
SEQEND
  8
0
  0
ENDBLK
  8
0
  0
BLOCK
  8
0
  2
SQUAREP
 70
64
 10
0.0000
 20
0.0000
 30
0.0000
  3
SQUAREP
  0
SOLID
  8
0
 10
-0.5000
 20
-0.5000
 30
0.0000
 11
0.5000
 21
-0.5000
 31
0.0000
 12
-0.5000
 22
0.5000
 32
0.0000
 13
0.5000
 23
0.5000
 33
0.0000
  0
ENDBLK
  8
0
  0
BLOCK
  8
0
  2
ROUNDP
 70
64
 10
0.0000
 20
0.0000
 30
0.0000
  3
ROUNDP
  0
CIRCLE
  8
0
 10
0.0000
 20
0.0000
 30
0.0000
 40
0.5000
  0
ENDBLK
  8
0
  0
BLOCK
  8
0
  2
ANNULUSP
 70
64
 10
0.0000
 20
0.0000
 30
0.0000
  3
ANNULUSP
  0
CIRCLE
  8
0
 10
0.0000
 20
0.0000
 30
0.0000
 40
0.5000
  0
ENDBLK
  8
0
  0
BLOCK
  8
0
  2
THERMALP
 70
64
 10
0.0000
 20
0.0000
 30
0.0000
  3
THERMALP
  0
LINE
  8
0
 10
-0.2379
 20
0.4500
 30
0.0000
 11
0.2379
 21
0.4500
 31
0.0000
  0
LINE
  8
0
 10
0.4500
 20
0.2379
 30
0.0000
 11
0.4500
 21
-0.2379
 31
0.0000
  0
LINE
  8
0
 10
0.2379
 20
-0.4500
 30
0.0000
 11
-0.2379
 21
-0.4500
 31
0.0000
  0
LINE
  8
0
 10
-0.4500
 20
-0.2379
 30
0.0000
 11
-0.4500
 21
0.2379
 31
0.0000
  0
ENDBLK
  8
0
  0
BLOCK
  8
0
  2
OCTAGONV
 70
64
 10
0.0000
 20
0.0000
 30
0.0000
  3
OCTAGONV
  0
POLYLINE
  8
0
 66
1
 10
0.0000
 20
0.0000
 30
0.0000
 40
0.0000
 41
0.0000
 70
1
  0
VERTEX
  8
0
 10
-0.5000
 20
-0.2071
 30
0.0000
  0
VERTEX
  8
0
 10
-0.5000
 20
0.2071
 30
0.0000
  0
VERTEX
  8
0
 10
-0.2071
 20
0.5000
 30
0.0000
  0
VERTEX
  8
0
 10
0.2071
 20
0.5000
 30
0.0000
  0
VERTEX
  8
0
 10
0.5000
 20
0.2071
 30
0.0000
  0
VERTEX
  8
0
 10
0.5000
 20
-0.2071
 30
0.0000
  0
VERTEX
  8
0
 10
0.2071
 20
-0.5000
 30
0.0000
  0
VERTEX
  8
0
 10
-0.2071
 20
-0.5000
 30
0.0000
  0
SEQEND
  8
0
  0
ENDBLK
  8
0
  0
BLOCK
  8
0
  2
SQUAREV
 70
64
 10
0.0000
 20
0.0000
 30
0.0000
  3
SQUAREV
  0
SOLID
  8
0
 10
-0.5000
 20
-0.5000
 30
0.0000
 11
0.5000
 21
-0.5000
 31
0.0000
 12
-0.5000
 22
0.5000
 32
0.0000
 13
0.5000
 23
0.5000
 33
0.0000
  0
ENDBLK
  8
0
  0
BLOCK
  8
0
  2
ROUNDV
 70
64
 10
0.0000
 20
0.0000
 30
0.0000
  3
ROUNDV
  0
CIRCLE
  8
0
 10
0.0000
 20
0.0000
 30
0.0000
 40
0.5000
  0
ENDBLK
  8
0
  0
BLOCK
  8
0
  2
ANNULUSV
 70
64
 10
0.0000
 20
0.0000
 30
0.0000
  3
ANNULUSV
  0
CIRCLE
  8
0
 10
0.0000
 20
0.0000
 30
0.0000
 40
0.5000
  0
ENDBLK
  8
0
  0
BLOCK
  8
0
  2
THERMALV
 70
64
 10
0.0000
 20
0.0000
 30
0.0000
  3
THERMALV
  0
LINE
  8
0
 10
-0.2379
 20
0.4500
 30
0.0000
 11
0.2379
 21
0.4500
 31
0.0000
  0
LINE
  8
0
 10
0.4500
 20
0.2379
 30
0.0000
 11
0.4500
 21
-0.2379
 31
0.0000
  0
LINE
  8
0
 10
0.2379
 20
-0.4500
 30
0.0000
 11
-0.2379
 21
-0.4500
 31
0.0000
  0
LINE
  8
0
 10
-0.4500
 20
-0.2379
 30
0.0000
 11
-0.4500
 21
0.2379
 31
0.0000
  0
ENDBLK
  8
0
  0
BLOCK
  8
0
  2
RECT158496X158496R25
 70
64
 10
0.0000
 20
0.0000
 30
0.0000
  3
RECT158496X158496R25
  0
POLYLINE
  8
0
 66
1
 10
0.0000
 20
0.0000
 30
0.0000
 40
0.0000
 41
0.0000
 70
1
  0
VERTEX
  8
0
 10
0.4953
 20
-0.3715
 30
0.0000
  0
VERTEX
  8
0
 10
0.4953
 20
0.3715
 30
0.0000
 42
0.4142
  0
VERTEX
  8
0
 10
0.3715
 20
0.4953
 30
0.0000
  0
VERTEX
  8
0
 10
-0.3715
 20
0.4953
 30
0.0000
 42
0.4142
  0
VERTEX
  8
0
 10
-0.4953
 20
0.3715
 30
0.0000
  0
VERTEX
  8
0
 10
-0.4953
 20
-0.3715
 30
0.0000
 42
0.4142
  0
VERTEX
  8
0
 10
-0.3715
 20
-0.4953
 30
0.0000
  0
VERTEX
  8
0
 10
0.3715
 20
-0.4953
 30
0.0000
 42
0.4142
  0
SEQEND
  8
0
  0
ENDBLK
  8
0
  0
BLOCK
  8
0
  2
RECT142240X142240R25
 70
64
 10
0.0000
 20
0.0000
 30
0.0000
  3
RECT142240X142240R25
  0
POLYLINE
  8
0
 66
1
 10
0.0000
 20
0.0000
 30
0.0000
 40
0.0000
 41
0.0000
 70
1
  0
VERTEX
  8
0
 10
0.4445
 20
-0.3334
 30
0.0000
  0
VERTEX
  8
0
 10
0.4445
 20
0.3334
 30
0.0000
 42
0.4142
  0
VERTEX
  8
0
 10
0.3334
 20
0.4445
 30
0.0000
  0
VERTEX
  8
0
 10
-0.3334
 20
0.4445
 30
0.0000
 42
0.4142
  0
VERTEX
  8
0
 10
-0.4445
 20
0.3334
 30
0.0000
  0
VERTEX
  8
0
 10
-0.4445
 20
-0.3334
 30
0.0000
 42
0.4142
  0
VERTEX
  8
0
 10
-0.3334
 20
-0.4445
 30
0.0000
  0
VERTEX
  8
0
 10
0.3334
 20
-0.4445
 30
0.0000
 42
0.4142
  0
SEQEND
  8
0
  0
ENDBLK
  8
0
  0
BLOCK
  8
0
  2
RECT144256X144256R100
 70
64
 10
0.0000
 20
0.0000
 30
0.0000
  3
RECT144256X144256R100
  0
POLYLINE
  8
0
 66
1
 10
0.0000
 20
0.0000
 30
0.0000
 40
0.0000
 41
0.0000
 70
1
  0
VERTEX
  8
0
 10
0.4508
 20
0.0000
 30
0.0000
  0
VERTEX
  8
0
 10
0.4508
 20
0.0000
 30
0.0000
 42
0.4142
  0
VERTEX
  8
0
 10
0.0000
 20
0.4508
 30
0.0000
  0
VERTEX
  8
0
 10
0.0000
 20
0.4508
 30
0.0000
 42
0.4142
  0
VERTEX
  8
0
 10
-0.4508
 20
0.0000
 30
0.0000
  0
VERTEX
  8
0
 10
-0.4508
 20
0.0000
 30
0.0000
 42
0.4142
  0
VERTEX
  8
0
 10
0.0000
 20
-0.4508
 30
0.0000
  0
VERTEX
  8
0
 10
0.0000
 20
-0.4508
 30
0.0000
 42
0.4142
  0
SEQEND
  8
0
  0
ENDBLK
  8
0
  0
BLOCK
  8
0
  2
RECT0X0R100
 70
64
 10
0.0000
 20
0.0000
 30
0.0000
  3
RECT0X0R100
  0
POLYLINE
  8
0
 66
1
 10
0.0000
 20
0.0000
 30
0.0000
 40
0.0000
 41
0.0000
 70
1
  0
VERTEX
  8
0
 10
0.0000
 20
0.0000
 30
0.0000
  0
VERTEX
  8
0
 10
0.0000
 20
0.0000
 30
0.0000
 42
0.4142
  0
VERTEX
  8
0
 10
0.0000
 20
0.0000
 30
0.0000
  0
VERTEX
  8
0
 10
0.0000
 20
0.0000
 30
0.0000
 42
0.4142
  0
VERTEX
  8
0
 10
0.0000
 20
0.0000
 30
0.0000
  0
VERTEX
  8
0
 10
0.0000
 20
0.0000
 30
0.0000
 42
0.4142
  0
VERTEX
  8
0
 10
0.0000
 20
0.0000
 30
0.0000
  0
VERTEX
  8
0
 10
0.0000
 20
0.0000
 30
0.0000
 42
0.4142
  0
SEQEND
  8
0
  0
ENDBLK
  8
0
  0
ENDSEC
  0
SECTION
  2
ENTITIES
  0
LINE
  8
20
 10
93.7546
 20
22.9161
 30
0.0000
 11
93.8245
 21
22.9175
 31
0.0000
  0
LINE
  8
20
 10
93.8245
 20
22.9175
 30
0.0000
 11
97.9417
 21
22.9147
 31
0.0000
  0
LINE
  8
20
 10
97.9417
 20
22.9147
 30
0.0000
 11
97.9417
 21
6.4431
 31
0.0000
  0
LINE
  8
20
 10
97.9417
 20
6.4431
 30
0.0000
 11
86.4625
 21
6.4431
 31
0.0000
  0
LINE
  8
20
 10
86.4625
 20
6.4431
 30
0.0000
 11
86.2110
 21
6.4004
 31
0.0000
  0
LINE
  8
20
 10
86.2110
 20
6.4004
 30
0.0000
 11
85.8911
 21
6.2769
 31
0.0000
  0
LINE
  8
20
 10
85.8911
 20
6.2769
 30
0.0000
 11
85.5342
 21
6.0789
 31
0.0000
  0
LINE
  8
20
 10
85.5342
 20
6.0789
 30
0.0000
 11
85.1718
 21
5.8131
 31
0.0000
  0
LINE
  8
20
 10
85.1718
 20
5.8131
 30
0.0000
 11
84.8352
 21
5.4860
 31
0.0000
  0
LINE
  8
20
 10
84.8352
 20
5.4860
 30
0.0000
 11
84.5559
 21
5.1042
 31
0.0000
  0
LINE
  8
20
 10
84.5559
 20
5.1042
 30
0.0000
 11
84.3653
 21
4.6742
 31
0.0000
  0
LINE
  8
20
 10
84.3653
 20
4.6742
 30
0.0000
 11
84.2947
 21
4.2026
 31
0.0000
  0
LINE
  8
20
 10
84.2947
 20
4.2026
 30
0.0000
 11
84.2947
 21
3.2137
 31
0.0000
  0
LINE
  8
20
 10
84.2947
 20
3.2137
 30
0.0000
 11
70.5259
 21
3.2137
 31
0.0000
  0
LINE
  8
20
 10
70.5259
 20
3.2137
 30
0.0000
 11
70.5259
 21
0.8048
 31
0.0000
  0
LINE
  8
20
 10
70.5259
 20
0.8048
 30
0.0000
 11
6.2246
 21
0.8048
 31
0.0000
  0
LINE
  8
20
 10
6.2246
 20
0.8048
 30
0.0000
 11
6.2246
 21
4.4093
 31
0.0000
  0
LINE
  8
20
 10
6.2246
 20
4.4093
 30
0.0000
 11
6.1661
 21
4.7028
 31
0.0000
  0
LINE
  8
20
 10
6.1661
 20
4.7028
 30
0.0000
 11
6.0017
 21
5.0299
 31
0.0000
  0
LINE
  8
20
 10
6.0017
 20
5.0299
 30
0.0000
 11
5.7479
 21
5.3683
 31
0.0000
  0
LINE
  8
20
 10
5.7479
 20
5.3683
 30
0.0000
 11
5.4211
 21
5.6954
 31
0.0000
  0
LINE
  8
20
 10
5.4211
 20
5.6954
 30
0.0000
 11
5.0380
 21
5.9889
 31
0.0000
  0
LINE
  8
20
 10
5.0380
 20
5.9889
 30
0.0000
 11
4.6151
 21
6.2263
 31
0.0000
  0
LINE
  8
20
 10
4.6151
 20
6.2263
 30
0.0000
 11
4.1688
 21
6.3852
 31
0.0000
  0
LINE
  8
20
 10
4.1688
 20
6.3852
 30
0.0000
 11
3.7157
 21
6.4431
 31
0.0000
  0
LINE
  8
20
 10
3.7157
 20
6.4431
 30
0.0000
 11
2.0582
 21
6.4431
 31
0.0000
  0
LINE
  8
20
 10
2.0582
 20
6.4431
 30
0.0000
 11
2.0582
 21
14.6244
 31
0.0000
  0
LINE
  8
20
 10
2.0582
 20
14.6244
 30
0.0000
 11
4.6461
 21
14.6444
 31
0.0000
  0
LINE
  8
20
 10
4.6461
 20
14.6444
 30
0.0000
 11
4.8726
 21
14.7667
 31
0.0000
  0
LINE
  8
20
 10
4.8726
 20
14.7667
 30
0.0000
 11
5.0340
 21
14.9584
 31
0.0000
  0
LINE
  8
20
 10
5.0340
 20
14.9584
 30
0.0000
 11
5.1304
 21
15.1962
 31
0.0000
  0
LINE
  8
20
 10
5.1304
 20
15.1962
 30
0.0000
 11
5.1620
 21
15.4567
 31
0.0000
  0
LINE
  8
20
 10
5.1620
 20
15.4567
 30
0.0000
 11
5.1292
 21
15.7166
 31
0.0000
  0
LINE
  8
20
 10
5.1292
 20
15.7166
 30
0.0000
 11
5.0321
 21
15.9525
 31
0.0000
  0
LINE
  8
20
 10
5.0321
 20
15.9525
 30
0.0000
 11
4.8710
 21
16.1410
 31
0.0000
  0
LINE
  8
20
 10
4.8710
 20
16.1410
 30
0.0000
 11
4.6461
 21
16.2589
 31
0.0000
  0
LINE
  8
20
 10
4.6461
 20
16.2589
 30
0.0000
 11
2.0582
 21
16.2627
 31
0.0000
  0
LINE
  8
20
 10
2.0582
 20
16.2627
 30
0.0000
 11
2.0582
 21
20.0900
 31
0.0000
  0
LINE
  8
20
 10
2.0582
 20
20.0900
 30
0.0000
 11
4.6461
 21
20.0900
 31
0.0000
  0
LINE
  8
20
 10
4.6461
 20
20.0900
 30
0.0000
 11
5.1954
 21
20.1629
 31
0.0000
  0
LINE
  8
20
 10
5.1954
 20
20.1629
 30
0.0000
 11
5.6614
 21
20.3653
 31
0.0000
  0
LINE
  8
20
 10
5.6614
 20
20.3653
 30
0.0000
 11
6.0472
 21
20.6724
 31
0.0000
  0
LINE
  8
20
 10
6.0472
 20
20.6724
 30
0.0000
 11
6.3559
 21
21.0596
 31
0.0000
  0
LINE
  8
20
 10
6.3559
 20
21.0596
 30
0.0000
 11
6.5906
 21
21.5020
 31
0.0000
  0
LINE
  8
20
 10
6.5906
 20
21.5020
 30
0.0000
 11
6.7544
 21
21.9752
 31
0.0000
  0
LINE
  8
20
 10
6.7544
 20
21.9752
 30
0.0000
 11
6.8505
 21
22.4543
 31
0.0000
  0
LINE
  8
20
 10
6.8505
 20
22.4543
 30
0.0000
 11
6.8818
 21
22.9147
 31
0.0000
  0
LINE
  8
20
 10
6.8818
 20
22.9147
 30
0.0000
 11
6.8818
 21
27.8772
 31
0.0000
  0
LINE
  8
20
 10
6.8818
 20
27.8772
 30
0.0000
 11
17.1616
 21
27.8772
 31
0.0000
  0
LINE
  8
20
 10
17.1616
 20
27.8772
 30
0.0000
 11
17.1616
 21
26.7473
 31
0.0000
  0
LINE
  8
20
 10
17.1616
 20
26.7473
 30
0.0000
 11
33.2692
 21
26.7857
 31
0.0000
  0
LINE
  8
20
 10
33.2692
 20
26.7857
 30
0.0000
 11
33.3355
 21
28.6663
 31
0.0000
  0
LINE
  8
20
 10
33.3355
 20
28.6663
 30
0.0000
 11
73.7652
 21
28.6663
 31
0.0000
  0
LINE
  8
20
 10
73.7652
 20
28.6663
 30
0.0000
 11
74.5760
 21
27.8772
 31
0.0000
  0
LINE
  8
20
 10
74.5760
 20
27.8772
 30
0.0000
 11
91.6056
 21
27.8772
 31
0.0000
  0
LINE
  8
20
 10
91.6056
 20
27.8772
 30
0.0000
 11
91.6116
 21
25.0125
 31
0.0000
  0
LINE
  8
20
 10
91.6116
 20
25.0125
 30
0.0000
 11
91.6704
 21
24.7043
 31
0.0000
  0
LINE
  8
20
 10
91.6704
 20
24.7043
 30
0.0000
 11
91.8137
 21
24.3643
 31
0.0000
  0
LINE
  8
20
 10
91.8137
 20
24.3643
 30
0.0000
 11
92.0291
 21
24.0151
 31
0.0000
  0
LINE
  8
20
 10
92.0291
 20
24.0151
 30
0.0000
 11
92.3042
 21
23.6790
 31
0.0000
  0
LINE
  8
20
 10
92.3042
 20
23.6790
 30
0.0000
 11
92.6267
 21
23.3785
 31
0.0000
  0
LINE
  8
20
 10
92.6267
 20
23.3785
 30
0.0000
 11
92.9842
 21
23.1363
 31
0.0000
  0
LINE
  8
20
 10
92.9842
 20
23.1363
 30
0.0000
 11
93.3643
 21
22.9746
 31
0.0000
  0
LINE
  8
20
 10
93.3643
 20
22.9746
 30
0.0000
 11
93.7546
 21
22.9161
 31
0.0000
  0
LINE
  8
20
 10
73.7814
 20
16.3488
 30
0.0000
 11
73.9426
 21
16.3325
 31
0.0000
  0
LINE
  8
20
 10
73.9426
 20
16.3325
 30
0.0000
 11
74.0928
 21
16.2859
 31
0.0000
  0
LINE
  8
20
 10
74.0928
 20
16.2859
 30
0.0000
 11
74.2287
 21
16.2122
 31
0.0000
  0
LINE
  8
20
 10
74.2287
 20
16.2122
 30
0.0000
 11
74.3471
 21
16.1145
 31
0.0000
  0
LINE
  8
20
 10
74.3471
 20
16.1145
 30
0.0000
 11
74.4448
 21
15.9961
 31
0.0000
  0
LINE
  8
20
 10
74.4448
 20
15.9961
 30
0.0000
 11
74.5185
 21
15.8602
 31
0.0000
  0
LINE
  8
20
 10
74.5185
 20
15.8602
 30
0.0000
 11
74.5651
 21
15.7100
 31
0.0000
  0
LINE
  8
20
 10
74.5651
 20
15.7100
 30
0.0000
 11
74.5814
 21
15.5488
 31
0.0000
  0
LINE
  8
20
 10
74.5814
 20
15.5488
 30
0.0000
 11
74.5651
 21
15.3876
 31
0.0000
  0
LINE
  8
20
 10
74.5651
 20
15.3876
 30
0.0000
 11
74.5185
 21
15.2374
 31
0.0000
  0
LINE
  8
20
 10
74.5185
 20
15.2374
 30
0.0000
 11
74.4448
 21
15.1015
 31
0.0000
  0
LINE
  8
20
 10
74.4448
 20
15.1015
 30
0.0000
 11
74.3471
 21
14.9831
 31
0.0000
  0
LINE
  8
20
 10
74.3471
 20
14.9831
 30
0.0000
 11
74.2287
 21
14.8854
 31
0.0000
  0
LINE
  8
20
 10
74.2287
 20
14.8854
 30
0.0000
 11
74.0928
 21
14.8117
 31
0.0000
  0
LINE
  8
20
 10
74.0928
 20
14.8117
 30
0.0000
 11
73.9426
 21
14.7651
 31
0.0000
  0
LINE
  8
20
 10
73.9426
 20
14.7651
 30
0.0000
 11
73.7814
 21
14.7488
 31
0.0000
  0
LINE
  8
20
 10
73.7814
 20
14.7488
 30
0.0000
 11
73.6202
 21
14.7651
 31
0.0000
  0
LINE
  8
20
 10
73.6202
 20
14.7651
 30
0.0000
 11
73.4700
 21
14.8117
 31
0.0000
  0
LINE
  8
20
 10
73.4700
 20
14.8117
 30
0.0000
 11
73.3341
 21
14.8854
 31
0.0000
  0
LINE
  8
20
 10
73.3341
 20
14.8854
 30
0.0000
 11
73.2157
 21
14.9831
 31
0.0000
  0
LINE
  8
20
 10
73.2157
 20
14.9831
 30
0.0000
 11
73.1180
 21
15.1015
 31
0.0000
  0
LINE
  8
20
 10
73.1180
 20
15.1015
 30
0.0000
 11
73.0443
 21
15.2374
 31
0.0000
  0
LINE
  8
20
 10
73.0443
 20
15.2374
 30
0.0000
 11
72.9977
 21
15.3876
 31
0.0000
  0
LINE
  8
20
 10
72.9977
 20
15.3876
 30
0.0000
 11
72.9814
 21
15.5488
 31
0.0000
  0
LINE
  8
20
 10
72.9814
 20
15.5488
 30
0.0000
 11
72.9977
 21
15.7100
 31
0.0000
  0
LINE
  8
20
 10
72.9977
 20
15.7100
 30
0.0000
 11
73.0443
 21
15.8602
 31
0.0000
  0
LINE
  8
20
 10
73.0443
 20
15.8602
 30
0.0000
 11
73.1180
 21
15.9961
 31
0.0000
  0
LINE
  8
20
 10
73.1180
 20
15.9961
 30
0.0000
 11
73.2157
 21
16.1145
 31
0.0000
  0
LINE
  8
20
 10
73.2157
 20
16.1145
 30
0.0000
 11
73.3341
 21
16.2122
 31
0.0000
  0
LINE
  8
20
 10
73.3341
 20
16.2122
 30
0.0000
 11
73.4700
 21
16.2859
 31
0.0000
  0
LINE
  8
20
 10
73.4700
 20
16.2859
 30
0.0000
 11
73.6202
 21
16.3325
 31
0.0000
  0
LINE
  8
20
 10
73.6202
 20
16.3325
 30
0.0000
 11
73.7814
 21
16.3488
 31
0.0000
  0
LINE
  8
20
 10
85.8183
 20
21.5721
 30
0.0000
 11
85.8183
 21
22.8616
 31
0.0000
  0
LINE
  8
20
 10
85.8183
 20
22.8616
 30
0.0000
 11
85.8251
 21
22.9284
 31
0.0000
  0
LINE
  8
20
 10
85.8251
 20
22.9284
 30
0.0000
 11
85.8445
 21
22.9906
 31
0.0000
  0
LINE
  8
20
 10
85.8445
 20
22.9906
 30
0.0000
 11
85.8752
 21
23.0471
 31
0.0000
  0
LINE
  8
20
 10
85.8752
 20
23.0471
 30
0.0000
 11
85.9159
 21
23.0963
 31
0.0000
  0
LINE
  8
20
 10
85.9159
 20
23.0963
 30
0.0000
 11
85.9651
 21
23.1370
 31
0.0000
  0
LINE
  8
20
 10
85.9651
 20
23.1370
 30
0.0000
 11
86.0216
 21
23.1677
 31
0.0000
  0
LINE
  8
20
 10
86.0216
 20
23.1677
 30
0.0000
 11
86.0838
 21
23.1871
 31
0.0000
  0
LINE
  8
20
 10
86.0838
 20
23.1871
 30
0.0000
 11
86.1506
 21
23.1939
 31
0.0000
  0
LINE
  8
20
 10
86.1506
 20
23.1939
 30
0.0000
 11
86.6291
 21
23.1939
 31
0.0000
  0
LINE
  8
20
 10
86.6291
 20
23.1939
 30
0.0000
 11
86.6959
 21
23.1871
 31
0.0000
  0
LINE
  8
20
 10
86.6959
 20
23.1871
 30
0.0000
 11
86.7582
 21
23.1677
 31
0.0000
  0
LINE
  8
20
 10
86.7582
 20
23.1677
 30
0.0000
 11
86.8146
 21
23.1370
 31
0.0000
  0
LINE
  8
20
 10
86.8146
 20
23.1370
 30
0.0000
 11
86.8639
 21
23.0963
 31
0.0000
  0
LINE
  8
20
 10
86.8639
 20
23.0963
 30
0.0000
 11
86.9046
 21
23.0471
 31
0.0000
  0
LINE
  8
20
 10
86.9046
 20
23.0471
 30
0.0000
 11
86.9353
 21
22.9906
 31
0.0000
  0
LINE
  8
20
 10
86.9353
 20
22.9906
 30
0.0000
 11
86.9547
 21
22.9284
 31
0.0000
  0
LINE
  8
20
 10
86.9547
 20
22.9284
 30
0.0000
 11
86.9615
 21
22.8616
 31
0.0000
  0
LINE
  8
20
 10
86.9615
 20
22.8616
 30
0.0000
 11
86.9615
 21
21.5721
 31
0.0000
  0
LINE
  8
20
 10
86.9615
 20
21.5721
 30
0.0000
 11
86.9547
 21
21.5054
 31
0.0000
  0
LINE
  8
20
 10
86.9547
 20
21.5054
 30
0.0000
 11
86.9353
 21
21.4431
 31
0.0000
  0
LINE
  8
20
 10
86.9353
 20
21.4431
 30
0.0000
 11
86.9046
 21
21.3867
 31
0.0000
  0
LINE
  8
20
 10
86.9046
 20
21.3867
 30
0.0000
 11
86.8639
 21
21.3375
 31
0.0000
  0
LINE
  8
20
 10
86.8639
 20
21.3375
 30
0.0000
 11
86.8146
 21
21.2968
 31
0.0000
  0
LINE
  8
20
 10
86.8146
 20
21.2968
 30
0.0000
 11
86.7582
 21
21.2661
 31
0.0000
  0
LINE
  8
20
 10
86.7582
 20
21.2661
 30
0.0000
 11
86.6959
 21
21.2467
 31
0.0000
  0
LINE
  8
20
 10
86.6959
 20
21.2467
 30
0.0000
 11
86.6291
 21
21.2399
 31
0.0000
  0
LINE
  8
20
 10
86.6291
 20
21.2399
 30
0.0000
 11
86.1506
 21
21.2399
 31
0.0000
  0
LINE
  8
20
 10
86.1506
 20
21.2399
 30
0.0000
 11
86.0838
 21
21.2467
 31
0.0000
  0
LINE
  8
20
 10
86.0838
 20
21.2467
 30
0.0000
 11
86.0216
 21
21.2661
 31
0.0000
  0
LINE
  8
20
 10
86.0216
 20
21.2661
 30
0.0000
 11
85.9651
 21
21.2968
 31
0.0000
  0
LINE
  8
20
 10
85.9651
 20
21.2968
 30
0.0000
 11
85.9159
 21
21.3375
 31
0.0000
  0
LINE
  8
20
 10
85.9159
 20
21.3375
 30
0.0000
 11
85.8752
 21
21.3867
 31
0.0000
  0
LINE
  8
20
 10
85.8752
 20
21.3867
 30
0.0000
 11
85.8445
 21
21.4431
 31
0.0000
  0
LINE
  8
20
 10
85.8445
 20
21.4431
 30
0.0000
 11
85.8251
 21
21.5054
 31
0.0000
  0
LINE
  8
20
 10
85.8251
 20
21.5054
 30
0.0000
 11
85.8183
 21
21.5721
 31
0.0000
  0
LINE
  8
20
 10
89.2465
 20
21.3299
 30
0.0000
 11
90.5359
 21
21.3299
 31
0.0000
  0
LINE
  8
20
 10
90.5359
 20
21.3299
 30
0.0000
 11
90.6027
 21
21.3231
 31
0.0000
  0
LINE
  8
20
 10
90.6027
 20
21.3231
 30
0.0000
 11
90.6649
 21
21.3037
 31
0.0000
  0
LINE
  8
20
 10
90.6649
 20
21.3037
 30
0.0000
 11
90.7214
 21
21.2729
 31
0.0000
  0
LINE
  8
20
 10
90.7214
 20
21.2729
 30
0.0000
 11
90.7706
 21
21.2323
 31
0.0000
  0
LINE
  8
20
 10
90.7706
 20
21.2323
 30
0.0000
 11
90.8113
 21
21.1830
 31
0.0000
  0
LINE
  8
20
 10
90.8113
 20
21.1830
 30
0.0000
 11
90.8420
 21
21.1266
 31
0.0000
  0
LINE
  8
20
 10
90.8420
 20
21.1266
 30
0.0000
 11
90.8614
 21
21.0643
 31
0.0000
  0
LINE
  8
20
 10
90.8614
 20
21.0643
 30
0.0000
 11
90.8682
 21
20.9976
 31
0.0000
  0
LINE
  8
20
 10
90.8682
 20
20.9976
 30
0.0000
 11
90.8682
 21
20.5190
 31
0.0000
  0
LINE
  8
20
 10
90.8682
 20
20.5190
 30
0.0000
 11
90.8614
 21
20.4522
 31
0.0000
  0
LINE
  8
20
 10
90.8614
 20
20.4522
 30
0.0000
 11
90.8420
 21
20.3899
 31
0.0000
  0
LINE
  8
20
 10
90.8420
 20
20.3899
 30
0.0000
 11
90.8113
 21
20.3335
 31
0.0000
  0
LINE
  8
20
 10
90.8113
 20
20.3335
 30
0.0000
 11
90.7706
 21
20.2842
 31
0.0000
  0
LINE
  8
20
 10
90.7706
 20
20.2842
 30
0.0000
 11
90.7214
 21
20.2435
 31
0.0000
  0
LINE
  8
20
 10
90.7214
 20
20.2435
 30
0.0000
 11
90.6649
 21
20.2128
 31
0.0000
  0
LINE
  8
20
 10
90.6649
 20
20.2128
 30
0.0000
 11
90.6027
 21
20.1934
 31
0.0000
  0
LINE
  8
20
 10
90.6027
 20
20.1934
 30
0.0000
 11
90.5359
 21
20.1866
 31
0.0000
  0
LINE
  8
20
 10
90.5359
 20
20.1866
 30
0.0000
 11
89.2465
 21
20.1866
 31
0.0000
  0
LINE
  8
20
 10
89.2465
 20
20.1866
 30
0.0000
 11
89.1797
 21
20.1934
 31
0.0000
  0
LINE
  8
20
 10
89.1797
 20
20.1934
 30
0.0000
 11
89.1175
 21
20.2128
 31
0.0000
  0
LINE
  8
20
 10
89.1175
 20
20.2128
 30
0.0000
 11
89.0610
 21
20.2435
 31
0.0000
  0
LINE
  8
20
 10
89.0610
 20
20.2435
 30
0.0000
 11
89.0118
 21
20.2842
 31
0.0000
  0
LINE
  8
20
 10
89.0118
 20
20.2842
 30
0.0000
 11
88.9711
 21
20.3335
 31
0.0000
  0
LINE
  8
20
 10
88.9711
 20
20.3335
 30
0.0000
 11
88.9404
 21
20.3899
 31
0.0000
  0
LINE
  8
20
 10
88.9404
 20
20.3899
 30
0.0000
 11
88.9210
 21
20.4522
 31
0.0000
  0
LINE
  8
20
 10
88.9210
 20
20.4522
 30
0.0000
 11
88.9142
 21
20.5190
 31
0.0000
  0
LINE
  8
20
 10
88.9142
 20
20.5190
 30
0.0000
 11
88.9142
 21
20.9976
 31
0.0000
  0
LINE
  8
20
 10
88.9142
 20
20.9976
 30
0.0000
 11
88.9210
 21
21.0643
 31
0.0000
  0
LINE
  8
20
 10
88.9210
 20
21.0643
 30
0.0000
 11
88.9404
 21
21.1266
 31
0.0000
  0
LINE
  8
20
 10
88.9404
 20
21.1266
 30
0.0000
 11
88.9711
 21
21.1830
 31
0.0000
  0
LINE
  8
20
 10
88.9711
 20
21.1830
 30
0.0000
 11
89.0118
 21
21.2323
 31
0.0000
  0
LINE
  8
20
 10
89.0118
 20
21.2323
 30
0.0000
 11
89.0610
 21
21.2729
 31
0.0000
  0
LINE
  8
20
 10
89.0610
 20
21.2729
 30
0.0000
 11
89.1175
 21
21.3037
 31
0.0000
  0
LINE
  8
20
 10
89.1175
 20
21.3037
 30
0.0000
 11
89.1797
 21
21.3231
 31
0.0000
  0
LINE
  8
20
 10
89.1797
 20
21.3231
 30
0.0000
 11
89.2465
 21
21.3299
 31
0.0000
  0
LINE
  8
20
 10
93.9007
 20
21.3299
 30
0.0000
 11
95.1902
 21
21.3299
 31
0.0000
  0
LINE
  8
20
 10
95.1902
 20
21.3299
 30
0.0000
 11
95.2569
 21
21.3231
 31
0.0000
  0
LINE
  8
20
 10
95.2569
 20
21.3231
 30
0.0000
 11
95.3192
 21
21.3037
 31
0.0000
  0
LINE
  8
20
 10
95.3192
 20
21.3037
 30
0.0000
 11
95.3756
 21
21.2729
 31
0.0000
  0
LINE
  8
20
 10
95.3756
 20
21.2729
 30
0.0000
 11
95.4248
 21
21.2323
 31
0.0000
  0
LINE
  8
20
 10
95.4248
 20
21.2323
 30
0.0000
 11
95.4655
 21
21.1830
 31
0.0000
  0
LINE
  8
20
 10
95.4655
 20
21.1830
 30
0.0000
 11
95.4962
 21
21.1266
 31
0.0000
  0
LINE
  8
20
 10
95.4962
 20
21.1266
 30
0.0000
 11
95.5156
 21
21.0643
 31
0.0000
  0
LINE
  8
20
 10
95.5156
 20
21.0643
 30
0.0000
 11
95.5224
 21
20.9976
 31
0.0000
  0
LINE
  8
20
 10
95.5224
 20
20.9976
 30
0.0000
 11
95.5224
 21
20.5190
 31
0.0000
  0
LINE
  8
20
 10
95.5224
 20
20.5190
 30
0.0000
 11
95.5156
 21
20.4522
 31
0.0000
  0
LINE
  8
20
 10
95.5156
 20
20.4522
 30
0.0000
 11
95.4962
 21
20.3899
 31
0.0000
  0
LINE
  8
20
 10
95.4962
 20
20.3899
 30
0.0000
 11
95.4655
 21
20.3335
 31
0.0000
  0
LINE
  8
20
 10
95.4655
 20
20.3335
 30
0.0000
 11
95.4248
 21
20.2842
 31
0.0000
  0
LINE
  8
20
 10
95.4248
 20
20.2842
 30
0.0000
 11
95.3756
 21
20.2435
 31
0.0000
  0
LINE
  8
20
 10
95.3756
 20
20.2435
 30
0.0000
 11
95.3192
 21
20.2128
 31
0.0000
  0
LINE
  8
20
 10
95.3192
 20
20.2128
 30
0.0000
 11
95.2569
 21
20.1934
 31
0.0000
  0
LINE
  8
20
 10
95.2569
 20
20.1934
 30
0.0000
 11
95.1902
 21
20.1866
 31
0.0000
  0
LINE
  8
20
 10
95.1902
 20
20.1866
 30
0.0000
 11
93.9007
 21
20.1866
 31
0.0000
  0
LINE
  8
20
 10
93.9007
 20
20.1866
 30
0.0000
 11
93.8339
 21
20.1934
 31
0.0000
  0
LINE
  8
20
 10
93.8339
 20
20.1934
 30
0.0000
 11
93.7717
 21
20.2128
 31
0.0000
  0
LINE
  8
20
 10
93.7717
 20
20.2128
 30
0.0000
 11
93.7152
 21
20.2435
 31
0.0000
  0
LINE
  8
20
 10
93.7152
 20
20.2435
 30
0.0000
 11
93.6660
 21
20.2842
 31
0.0000
  0
LINE
  8
20
 10
93.6660
 20
20.2842
 30
0.0000
 11
93.6253
 21
20.3335
 31
0.0000
  0
LINE
  8
20
 10
93.6253
 20
20.3335
 30
0.0000
 11
93.5946
 21
20.3899
 31
0.0000
  0
LINE
  8
20
 10
93.5946
 20
20.3899
 30
0.0000
 11
93.5752
 21
20.4522
 31
0.0000
  0
LINE
  8
20
 10
93.5752
 20
20.4522
 30
0.0000
 11
93.5684
 21
20.5190
 31
0.0000
  0
LINE
  8
20
 10
93.5684
 20
20.5190
 30
0.0000
 11
93.5684
 21
20.9976
 31
0.0000
  0
LINE
  8
20
 10
93.5684
 20
20.9976
 30
0.0000
 11
93.5752
 21
21.0643
 31
0.0000
  0
LINE
  8
20
 10
93.5752
 20
21.0643
 30
0.0000
 11
93.5946
 21
21.1266
 31
0.0000
  0
LINE
  8
20
 10
93.5946
 20
21.1266
 30
0.0000
 11
93.6253
 21
21.1830
 31
0.0000
  0
LINE
  8
20
 10
93.6253
 20
21.1830
 30
0.0000
 11
93.6660
 21
21.2323
 31
0.0000
  0
LINE
  8
20
 10
93.6660
 20
21.2323
 30
0.0000
 11
93.7152
 21
21.2729
 31
0.0000
  0
LINE
  8
20
 10
93.7152
 20
21.2729
 30
0.0000
 11
93.7717
 21
21.3037
 31
0.0000
  0
LINE
  8
20
 10
93.7717
 20
21.3037
 30
0.0000
 11
93.8339
 21
21.3231
 31
0.0000
  0
LINE
  8
20
 10
93.8339
 20
21.3231
 30
0.0000
 11
93.9007
 21
21.3299
 31
0.0000
  0
LINE
  8
20
 10
80.4150
 20
26.5110
 30
0.0000
 11
81.7045
 21
26.5110
 31
0.0000
  0
LINE
  8
20
 10
81.7045
 20
26.5110
 30
0.0000
 11
81.7713
 21
26.5042
 31
0.0000
  0
LINE
  8
20
 10
81.7713
 20
26.5042
 30
0.0000
 11
81.8335
 21
26.4848
 31
0.0000
  0
LINE
  8
20
 10
81.8335
 20
26.4848
 30
0.0000
 11
81.8900
 21
26.4541
 31
0.0000
  0
LINE
  8
20
 10
81.8900
 20
26.4541
 30
0.0000
 11
81.9392
 21
26.4134
 31
0.0000
  0
LINE
  8
20
 10
81.9392
 20
26.4134
 30
0.0000
 11
81.9799
 21
26.3642
 31
0.0000
  0
LINE
  8
20
 10
81.9799
 20
26.3642
 30
0.0000
 11
82.0106
 21
26.3077
 31
0.0000
  0
LINE
  8
20
 10
82.0106
 20
26.3077
 30
0.0000
 11
82.0300
 21
26.2455
 31
0.0000
  0
LINE
  8
20
 10
82.0300
 20
26.2455
 30
0.0000
 11
82.0368
 21
26.1787
 31
0.0000
  0
LINE
  8
20
 10
82.0368
 20
26.1787
 30
0.0000
 11
82.0368
 21
25.7001
 31
0.0000
  0
LINE
  8
20
 10
82.0368
 20
25.7001
 30
0.0000
 11
82.0300
 21
25.6333
 31
0.0000
  0
LINE
  8
20
 10
82.0300
 20
25.6333
 30
0.0000
 11
82.0106
 21
25.5711
 31
0.0000
  0
LINE
  8
20
 10
82.0106
 20
25.5711
 30
0.0000
 11
81.9799
 21
25.5146
 31
0.0000
  0
LINE
  8
20
 10
81.9799
 20
25.5146
 30
0.0000
 11
81.9392
 21
25.4654
 31
0.0000
  0
LINE
  8
20
 10
81.9392
 20
25.4654
 30
0.0000
 11
81.8900
 21
25.4247
 31
0.0000
  0
LINE
  8
20
 10
81.8900
 20
25.4247
 30
0.0000
 11
81.8335
 21
25.3940
 31
0.0000
  0
LINE
  8
20
 10
81.8335
 20
25.3940
 30
0.0000
 11
81.7713
 21
25.3746
 31
0.0000
  0
LINE
  8
20
 10
81.7713
 20
25.3746
 30
0.0000
 11
81.7045
 21
25.3678
 31
0.0000
  0
LINE
  8
20
 10
81.7045
 20
25.3678
 30
0.0000
 11
80.4150
 21
25.3678
 31
0.0000
  0
LINE
  8
20
 10
80.4150
 20
25.3678
 30
0.0000
 11
80.3483
 21
25.3746
 31
0.0000
  0
LINE
  8
20
 10
80.3483
 20
25.3746
 30
0.0000
 11
80.2860
 21
25.3940
 31
0.0000
  0
LINE
  8
20
 10
80.2860
 20
25.3940
 30
0.0000
 11
80.2296
 21
25.4247
 31
0.0000
  0
LINE
  8
20
 10
80.2296
 20
25.4247
 30
0.0000
 11
80.1804
 21
25.4654
 31
0.0000
  0
LINE
  8
20
 10
80.1804
 20
25.4654
 30
0.0000
 11
80.1397
 21
25.5146
 31
0.0000
  0
LINE
  8
20
 10
80.1397
 20
25.5146
 30
0.0000
 11
80.1090
 21
25.5711
 31
0.0000
  0
LINE
  8
20
 10
80.1090
 20
25.5711
 30
0.0000
 11
80.0896
 21
25.6333
 31
0.0000
  0
LINE
  8
20
 10
80.0896
 20
25.6333
 30
0.0000
 11
80.0828
 21
25.7001
 31
0.0000
  0
LINE
  8
20
 10
80.0828
 20
25.7001
 30
0.0000
 11
80.0828
 21
26.1787
 31
0.0000
  0
LINE
  8
20
 10
80.0828
 20
26.1787
 30
0.0000
 11
80.0896
 21
26.2455
 31
0.0000
  0
LINE
  8
20
 10
80.0896
 20
26.2455
 30
0.0000
 11
80.1090
 21
26.3077
 31
0.0000
  0
LINE
  8
20
 10
80.1090
 20
26.3077
 30
0.0000
 11
80.1397
 21
26.3642
 31
0.0000
  0
LINE
  8
20
 10
80.1397
 20
26.3642
 30
0.0000
 11
80.1804
 21
26.4134
 31
0.0000
  0
LINE
  8
20
 10
80.1804
 20
26.4134
 30
0.0000
 11
80.2296
 21
26.4541
 31
0.0000
  0
LINE
  8
20
 10
80.2296
 20
26.4541
 30
0.0000
 11
80.2860
 21
26.4848
 31
0.0000
  0
LINE
  8
20
 10
80.2860
 20
26.4848
 30
0.0000
 11
80.3483
 21
26.5042
 31
0.0000
  0
LINE
  8
20
 10
80.3483
 20
26.5042
 30
0.0000
 11
80.4150
 21
26.5110
 31
0.0000
  0
LINE
  8
20
 10
70.9286
 20
26.6419
 30
0.0000
 11
72.2181
 21
26.6419
 31
0.0000
  0
LINE
  8
20
 10
72.2181
 20
26.6419
 30
0.0000
 11
72.2849
 21
26.6351
 31
0.0000
  0
LINE
  8
20
 10
72.2849
 20
26.6351
 30
0.0000
 11
72.3471
 21
26.6157
 31
0.0000
  0
LINE
  8
20
 10
72.3471
 20
26.6157
 30
0.0000
 11
72.4036
 21
26.5850
 31
0.0000
  0
LINE
  8
20
 10
72.4036
 20
26.5850
 30
0.0000
 11
72.4528
 21
26.5443
 31
0.0000
  0
LINE
  8
20
 10
72.4528
 20
26.5443
 30
0.0000
 11
72.4935
 21
26.4951
 31
0.0000
  0
LINE
  8
20
 10
72.4935
 20
26.4951
 30
0.0000
 11
72.5242
 21
26.4386
 31
0.0000
  0
LINE
  8
20
 10
72.5242
 20
26.4386
 30
0.0000
 11
72.5436
 21
26.3764
 31
0.0000
  0
LINE
  8
20
 10
72.5436
 20
26.3764
 30
0.0000
 11
72.5504
 21
26.3096
 31
0.0000
  0
LINE
  8
20
 10
72.5504
 20
26.3096
 30
0.0000
 11
72.5504
 21
25.8310
 31
0.0000
  0
LINE
  8
20
 10
72.5504
 20
25.8310
 30
0.0000
 11
72.5436
 21
25.7642
 31
0.0000
  0
LINE
  8
20
 10
72.5436
 20
25.7642
 30
0.0000
 11
72.5242
 21
25.7019
 31
0.0000
  0
LINE
  8
20
 10
72.5242
 20
25.7019
 30
0.0000
 11
72.4935
 21
25.6455
 31
0.0000
  0
LINE
  8
20
 10
72.4935
 20
25.6455
 30
0.0000
 11
72.4528
 21
25.5962
 31
0.0000
  0
LINE
  8
20
 10
72.4528
 20
25.5962
 30
0.0000
 11
72.4036
 21
25.5555
 31
0.0000
  0
LINE
  8
20
 10
72.4036
 20
25.5555
 30
0.0000
 11
72.3471
 21
25.5248
 31
0.0000
  0
LINE
  8
20
 10
72.3471
 20
25.5248
 30
0.0000
 11
72.2849
 21
25.5054
 31
0.0000
  0
LINE
  8
20
 10
72.2849
 20
25.5054
 30
0.0000
 11
72.2181
 21
25.4986
 31
0.0000
  0
LINE
  8
20
 10
72.2181
 20
25.4986
 30
0.0000
 11
70.9286
 21
25.4986
 31
0.0000
  0
LINE
  8
20
 10
70.9286
 20
25.4986
 30
0.0000
 11
70.8619
 21
25.5054
 31
0.0000
  0
LINE
  8
20
 10
70.8619
 20
25.5054
 30
0.0000
 11
70.7996
 21
25.5248
 31
0.0000
  0
LINE
  8
20
 10
70.7996
 20
25.5248
 30
0.0000
 11
70.7432
 21
25.5555
 31
0.0000
  0
LINE
  8
20
 10
70.7432
 20
25.5555
 30
0.0000
 11
70.6940
 21
25.5962
 31
0.0000
  0
LINE
  8
20
 10
70.6940
 20
25.5962
 30
0.0000
 11
70.6533
 21
25.6455
 31
0.0000
  0
LINE
  8
20
 10
70.6533
 20
25.6455
 30
0.0000
 11
70.6226
 21
25.7019
 31
0.0000
  0
LINE
  8
20
 10
70.6226
 20
25.7019
 30
0.0000
 11
70.6032
 21
25.7642
 31
0.0000
  0
LINE
  8
20
 10
70.6032
 20
25.7642
 30
0.0000
 11
70.5964
 21
25.8310
 31
0.0000
  0
LINE
  8
20
 10
70.5964
 20
25.8310
 30
0.0000
 11
70.5964
 21
26.3096
 31
0.0000
  0
LINE
  8
20
 10
70.5964
 20
26.3096
 30
0.0000
 11
70.6032
 21
26.3764
 31
0.0000
  0
LINE
  8
20
 10
70.6032
 20
26.3764
 30
0.0000
 11
70.6226
 21
26.4386
 31
0.0000
  0
LINE
  8
20
 10
70.6226
 20
26.4386
 30
0.0000
 11
70.6533
 21
26.4951
 31
0.0000
  0
LINE
  8
20
 10
70.6533
 20
26.4951
 30
0.0000
 11
70.6940
 21
26.5443
 31
0.0000
  0
LINE
  8
20
 10
70.6940
 20
26.5443
 30
0.0000
 11
70.7432
 21
26.5850
 31
0.0000
  0
LINE
  8
20
 10
70.7432
 20
26.5850
 30
0.0000
 11
70.7996
 21
26.6157
 31
0.0000
  0
LINE
  8
20
 10
70.7996
 20
26.6157
 30
0.0000
 11
70.8619
 21
26.6351
 31
0.0000
  0
LINE
  8
20
 10
70.8619
 20
26.6351
 30
0.0000
 11
70.9286
 21
26.6419
 31
0.0000
  0
LINE
  8
20
 10
67.0100
 20
26.6419
 30
0.0000
 11
68.2994
 21
26.6419
 31
0.0000
  0
LINE
  8
20
 10
68.2994
 20
26.6419
 30
0.0000
 11
68.3662
 21
26.6351
 31
0.0000
  0
LINE
  8
20
 10
68.3662
 20
26.6351
 30
0.0000
 11
68.4284
 21
26.6157
 31
0.0000
  0
LINE
  8
20
 10
68.4284
 20
26.6157
 30
0.0000
 11
68.4849
 21
26.5850
 31
0.0000
  0
LINE
  8
20
 10
68.4849
 20
26.5850
 30
0.0000
 11
68.5341
 21
26.5443
 31
0.0000
  0
LINE
  8
20
 10
68.5341
 20
26.5443
 30
0.0000
 11
68.5748
 21
26.4951
 31
0.0000
  0
LINE
  8
20
 10
68.5748
 20
26.4951
 30
0.0000
 11
68.6055
 21
26.4386
 31
0.0000
  0
LINE
  8
20
 10
68.6055
 20
26.4386
 30
0.0000
 11
68.6249
 21
26.3764
 31
0.0000
  0
LINE
  8
20
 10
68.6249
 20
26.3764
 30
0.0000
 11
68.6317
 21
26.3096
 31
0.0000
  0
LINE
  8
20
 10
68.6317
 20
26.3096
 30
0.0000
 11
68.6317
 21
25.8310
 31
0.0000
  0
LINE
  8
20
 10
68.6317
 20
25.8310
 30
0.0000
 11
68.6249
 21
25.7642
 31
0.0000
  0
LINE
  8
20
 10
68.6249
 20
25.7642
 30
0.0000
 11
68.6055
 21
25.7019
 31
0.0000
  0
LINE
  8
20
 10
68.6055
 20
25.7019
 30
0.0000
 11
68.5748
 21
25.6455
 31
0.0000
  0
LINE
  8
20
 10
68.5748
 20
25.6455
 30
0.0000
 11
68.5341
 21
25.5962
 31
0.0000
  0
LINE
  8
20
 10
68.5341
 20
25.5962
 30
0.0000
 11
68.4849
 21
25.5555
 31
0.0000
  0
LINE
  8
20
 10
68.4849
 20
25.5555
 30
0.0000
 11
68.4284
 21
25.5248
 31
0.0000
  0
LINE
  8
20
 10
68.4284
 20
25.5248
 30
0.0000
 11
68.3662
 21
25.5054
 31
0.0000
  0
LINE
  8
20
 10
68.3662
 20
25.5054
 30
0.0000
 11
68.2994
 21
25.4986
 31
0.0000
  0
LINE
  8
20
 10
68.2994
 20
25.4986
 30
0.0000
 11
67.0100
 21
25.4986
 31
0.0000
  0
LINE
  8
20
 10
67.0100
 20
25.4986
 30
0.0000
 11
66.9432
 21
25.5054
 31
0.0000
  0
LINE
  8
20
 10
66.9432
 20
25.5054
 30
0.0000
 11
66.8810
 21
25.5248
 31
0.0000
  0
LINE
  8
20
 10
66.8810
 20
25.5248
 30
0.0000
 11
66.8245
 21
25.5555
 31
0.0000
  0
LINE
  8
20
 10
66.8245
 20
25.5555
 30
0.0000
 11
66.7753
 21
25.5962
 31
0.0000
  0
LINE
  8
20
 10
66.7753
 20
25.5962
 30
0.0000
 11
66.7346
 21
25.6455
 31
0.0000
  0
LINE
  8
20
 10
66.7346
 20
25.6455
 30
0.0000
 11
66.7039
 21
25.7019
 31
0.0000
  0
LINE
  8
20
 10
66.7039
 20
25.7019
 30
0.0000
 11
66.6845
 21
25.7642
 31
0.0000
  0
LINE
  8
20
 10
66.6845
 20
25.7642
 30
0.0000
 11
66.6777
 21
25.8310
 31
0.0000
  0
LINE
  8
20
 10
66.6777
 20
25.8310
 30
0.0000
 11
66.6777
 21
26.3096
 31
0.0000
  0
LINE
  8
20
 10
66.6777
 20
26.3096
 30
0.0000
 11
66.6845
 21
26.3764
 31
0.0000
  0
LINE
  8
20
 10
66.6845
 20
26.3764
 30
0.0000
 11
66.7039
 21
26.4386
 31
0.0000
  0
LINE
  8
20
 10
66.7039
 20
26.4386
 30
0.0000
 11
66.7346
 21
26.4951
 31
0.0000
  0
LINE
  8
20
 10
66.7346
 20
26.4951
 30
0.0000
 11
66.7753
 21
26.5443
 31
0.0000
  0
LINE
  8
20
 10
66.7753
 20
26.5443
 30
0.0000
 11
66.8245
 21
26.5850
 31
0.0000
  0
LINE
  8
20
 10
66.8245
 20
26.5850
 30
0.0000
 11
66.8810
 21
26.6157
 31
0.0000
  0
LINE
  8
20
 10
66.8810
 20
26.6157
 30
0.0000
 11
66.9432
 21
26.6351
 31
0.0000
  0
LINE
  8
20
 10
66.9432
 20
26.6351
 30
0.0000
 11
67.0100
 21
26.6419
 31
0.0000
  0
LINE
  8
20
 10
33.5808
 20
17.1521
 30
0.0000
 11
43.5544
 21
23.3391
 31
0.0000
  0
LINE
  8
20
 10
43.5544
 20
23.3391
 30
0.0000
 11
44.0692
 21
23.6252
 31
0.0000
  0
LINE
  8
20
 10
44.0692
 20
23.6252
 30
0.0000
 11
44.7999
 21
23.8356
 31
0.0000
  0
LINE
  8
20
 10
44.7999
 20
23.8356
 30
0.0000
 11
45.6803
 21
23.9672
 31
0.0000
  0
LINE
  8
20
 10
45.6803
 20
23.9672
 30
0.0000
 11
46.6443
 21
24.0170
 31
0.0000
  0
LINE
  8
20
 10
46.6443
 20
24.0170
 30
0.0000
 11
47.6258
 21
23.9821
 31
0.0000
  0
LINE
  8
20
 10
47.6258
 20
23.9821
 30
0.0000
 11
48.5585
 21
23.8595
 31
0.0000
  0
LINE
  8
20
 10
48.5585
 20
23.8595
 30
0.0000
 11
49.3764
 21
23.6462
 31
0.0000
  0
LINE
  8
20
 10
49.3764
 20
23.6462
 30
0.0000
 11
50.0134
 21
23.3391
 31
0.0000
  0
LINE
  8
20
 10
50.0134
 20
23.3391
 30
0.0000
 11
60.1057
 21
17.0338
 31
0.0000
  0
LINE
  8
20
 10
60.1057
 20
17.0338
 30
0.0000
 11
60.4673
 21
16.7047
 31
0.0000
  0
LINE
  8
20
 10
60.4673
 20
16.7047
 30
0.0000
 11
60.7025
 21
16.3106
 31
0.0000
  0
LINE
  8
20
 10
60.7025
 20
16.3106
 30
0.0000
 11
60.8233
 21
15.8739
 31
0.0000
  0
LINE
  8
20
 10
60.8233
 20
15.8739
 30
0.0000
 11
60.8412
 21
15.4167
 31
0.0000
  0
LINE
  8
20
 10
60.8412
 20
15.4167
 30
0.0000
 11
60.7682
 21
14.9615
 31
0.0000
  0
LINE
  8
20
 10
60.7682
 20
14.9615
 30
0.0000
 11
60.6161
 21
14.5305
 31
0.0000
  0
LINE
  8
20
 10
60.6161
 20
14.5305
 30
0.0000
 11
60.3965
 21
14.1461
 31
0.0000
  0
LINE
  8
20
 10
60.3965
 20
14.1461
 30
0.0000
 11
60.1213
 21
13.8305
 31
0.0000
  0
LINE
  8
20
 10
60.1213
 20
13.8305
 30
0.0000
 11
51.8393
 21
8.5697
 31
0.0000
  0
LINE
  8
20
 10
51.8393
 20
8.5697
 30
0.0000
 11
50.7700
 21
7.8565
 31
0.0000
  0
LINE
  8
20
 10
50.7700
 20
7.8565
 30
0.0000
 11
49.6313
 21
7.3177
 31
0.0000
  0
LINE
  8
20
 10
49.6313
 20
7.3177
 30
0.0000
 11
48.4336
 21
6.9624
 31
0.0000
  0
LINE
  8
20
 10
48.4336
 20
6.9624
 30
0.0000
 11
47.1875
 21
6.7994
 31
0.0000
  0
LINE
  8
20
 10
47.1875
 20
6.7994
 30
0.0000
 11
45.9033
 21
6.8377
 31
0.0000
  0
LINE
  8
20
 10
45.9033
 20
6.8377
 30
0.0000
 11
44.5916
 21
7.0863
 31
0.0000
  0
LINE
  8
20
 10
44.5916
 20
7.0863
 30
0.0000
 11
43.2628
 21
7.5541
 31
0.0000
  0
LINE
  8
20
 10
43.2628
 20
7.5541
 30
0.0000
 11
41.9273
 21
8.2501
 31
0.0000
  0
LINE
  8
20
 10
41.9273
 20
8.2501
 30
0.0000
 11
33.2812
 21
13.7350
 31
0.0000
  0
LINE
  8
20
 10
33.2812
 20
13.7350
 30
0.0000
 11
32.8912
 21
14.0354
 31
0.0000
  0
LINE
  8
20
 10
32.8912
 20
14.0354
 30
0.0000
 11
32.6047
 21
14.4216
 31
0.0000
  0
LINE
  8
20
 10
32.6047
 20
14.4216
 30
0.0000
 11
32.4309
 21
14.8687
 31
0.0000
  0
LINE
  8
20
 10
32.4309
 20
14.8687
 30
0.0000
 11
32.3793
 21
15.3521
 31
0.0000
  0
LINE
  8
20
 10
32.3793
 20
15.3521
 30
0.0000
 11
32.4592
 21
15.8468
 31
0.0000
  0
LINE
  8
20
 10
32.4592
 20
15.8468
 30
0.0000
 11
32.6798
 21
16.3283
 31
0.0000
  0
LINE
  8
20
 10
32.6798
 20
16.3283
 30
0.0000
 11
33.0506
 21
16.7716
 31
0.0000
  0
LINE
  8
20
 10
33.0506
 20
16.7716
 30
0.0000
 11
33.5808
 21
17.1521
 31
0.0000
  0
LINE
  8
20
 10
73.7814
 20
16.3488
 30
0.0000
 11
73.6253
 21
16.3334
 31
0.0000
  0
LINE
  8
20
 10
73.6253
 20
16.3334
 30
0.0000
 11
73.4753
 21
16.2879
 31
0.0000
  0
LINE
  8
20
 10
73.4753
 20
16.2879
 30
0.0000
 11
73.3369
 21
16.2140
 31
0.0000
  0
LINE
  8
20
 10
73.3369
 20
16.2140
 30
0.0000
 11
73.2157
 21
16.1145
 31
0.0000
  0
LINE
  8
20
 10
73.2157
 20
16.1145
 30
0.0000
 11
73.1162
 21
15.9933
 31
0.0000
  0
LINE
  8
20
 10
73.1162
 20
15.9933
 30
0.0000
 11
73.0423
 21
15.8550
 31
0.0000
  0
LINE
  8
20
 10
73.0423
 20
15.8550
 30
0.0000
 11
72.9968
 21
15.7049
 31
0.0000
  0
LINE
  8
20
 10
72.9968
 20
15.7049
 30
0.0000
 11
72.9814
 21
15.5488
 31
0.0000
  0
LINE
  8
20
 10
72.9814
 20
15.5488
 30
0.0000
 11
72.9968
 21
15.3927
 31
0.0000
  0
LINE
  8
20
 10
72.9968
 20
15.3927
 30
0.0000
 11
73.0423
 21
15.2427
 31
0.0000
  0
LINE
  8
20
 10
73.0423
 20
15.2427
 30
0.0000
 11
73.1162
 21
15.1043
 31
0.0000
  0
LINE
  8
20
 10
73.1162
 20
15.1043
 30
0.0000
 11
73.2157
 21
14.9831
 31
0.0000
  0
LINE
  8
20
 10
73.2157
 20
14.9831
 30
0.0000
 11
73.3369
 21
14.8836
 31
0.0000
  0
LINE
  8
20
 10
73.3369
 20
14.8836
 30
0.0000
 11
73.4753
 21
14.8097
 31
0.0000
  0
LINE
  8
20
 10
73.4753
 20
14.8097
 30
0.0000
 11
73.6253
 21
14.7642
 31
0.0000
  0
LINE
  8
20
 10
73.6253
 20
14.7642
 30
0.0000
 11
73.7814
 21
14.7488
 31
0.0000
  0
LINE
  8
20
 10
73.7814
 20
14.7488
 30
0.0000
 11
73.9375
 21
14.7642
 31
0.0000
  0
LINE
  8
20
 10
73.9375
 20
14.7642
 30
0.0000
 11
74.0876
 21
14.8097
 31
0.0000
  0
LINE
  8
20
 10
74.0876
 20
14.8097
 30
0.0000
 11
74.2259
 21
14.8836
 31
0.0000
  0
LINE
  8
20
 10
74.2259
 20
14.8836
 30
0.0000
 11
74.3471
 21
14.9831
 31
0.0000
  0
LINE
  8
20
 10
74.3471
 20
14.9831
 30
0.0000
 11
74.4466
 21
15.1043
 31
0.0000
  0
LINE
  8
20
 10
74.4466
 20
15.1043
 30
0.0000
 11
74.5205
 21
15.2427
 31
0.0000
  0
LINE
  8
20
 10
74.5205
 20
15.2427
 30
0.0000
 11
74.5660
 21
15.3927
 31
0.0000
  0
LINE
  8
20
 10
74.5660
 20
15.3927
 30
0.0000
 11
74.5814
 21
15.5488
 31
0.0000
  0
LINE
  8
20
 10
74.5814
 20
15.5488
 30
0.0000
 11
74.5660
 21
15.7049
 31
0.0000
  0
LINE
  8
20
 10
74.5660
 20
15.7049
 30
0.0000
 11
74.5205
 21
15.8550
 31
0.0000
  0
LINE
  8
20
 10
74.5205
 20
15.8550
 30
0.0000
 11
74.4466
 21
15.9933
 31
0.0000
  0
LINE
  8
20
 10
74.4466
 20
15.9933
 30
0.0000
 11
74.3471
 21
16.1145
 31
0.0000
  0
LINE
  8
20
 10
74.3471
 20
16.1145
 30
0.0000
 11
74.2259
 21
16.2140
 31
0.0000
  0
LINE
  8
20
 10
74.2259
 20
16.2140
 30
0.0000
 11
74.0876
 21
16.2879
 31
0.0000
  0
LINE
  8
20
 10
74.0876
 20
16.2879
 30
0.0000
 11
73.9375
 21
16.3334
 31
0.0000
  0
LINE
  8
20
 10
73.9375
 20
16.3334
 30
0.0000
 11
73.7814
 21
16.3488
 31
0.0000
  0
LINE
  8
21
 10
55.3720
 20
9.3980
 30
0.0000
 11
55.3720
 21
3.8100
 31
0.0000
  0
LINE
  8
21
 10
55.3720
 20
3.8100
 30
0.0000
 11
60.4520
 21
3.8100
 31
0.0000
  0
LINE
  8
21
 10
60.4520
 20
3.8100
 30
0.0000
 11
60.4520
 21
9.3980
 31
0.0000
  0
LINE
  8
21
 10
60.4520
 20
9.3980
 30
0.0000
 11
55.3720
 21
9.3980
 31
0.0000
  0
LINE
  8
21
 10
55.8800
 20
8.8900
 30
0.0000
 11
59.9440
 21
8.8900
 31
0.0000
  0
LINE
  8
21
 10
59.9440
 20
8.8900
 30
0.0000
 11
59.9440
 21
5.2070
 31
0.0000
  0
LINE
  8
21
 10
59.9440
 20
5.2070
 30
0.0000
 11
55.8800
 21
5.2070
 31
0.0000
  0
LINE
  8
21
 10
55.8800
 20
5.2070
 30
0.0000
 11
55.8800
 21
8.8900
 31
0.0000
  0
LINE
  8
21
 10
12.0650
 20
17.9070
 30
0.0000
 11
14.0970
 21
17.9070
 31
0.0000
  0
LINE
  8
21
 10
14.0970
 20
17.9070
 30
0.0000
 11
14.3510
 21
17.6530
 31
0.0000
  0
LINE
  8
21
 10
14.3510
 20
17.6530
 30
0.0000
 11
14.3510
 21
16.8910
 31
0.0000
  0
LINE
  8
21
 10
14.3510
 20
16.8910
 30
0.0000
 11
14.0970
 21
16.6370
 31
0.0000
  0
LINE
  8
21
 10
14.0970
 20
16.6370
 30
0.0000
 11
12.0650
 21
16.6370
 31
0.0000
  0
LINE
  8
21
 10
12.0650
 20
16.6370
 30
0.0000
 11
11.8110
 21
16.8910
 31
0.0000
  0
LINE
  8
21
 10
11.8110
 20
16.8910
 30
0.0000
 11
11.8110
 21
17.6530
 31
0.0000
  0
LINE
  8
21
 10
11.8110
 20
17.6530
 30
0.0000
 11
12.0650
 21
17.9070
 31
0.0000
  0
LINE
  8
21
 10
10.7378
 20
24.4856
 30
0.0000
 11
10.7378
 21
24.1935
 31
0.0000
  0
LINE
  8
21
 10
11.0490
 20
24.7650
 30
0.0000
 11
11.2395
 21
24.5110
 31
0.0000
  0
LINE
  8
21
 10
11.2395
 20
24.5110
 30
0.0000
 11
11.2395
 21
24.1935
 31
0.0000
  0
LINE
  8
21
 10
11.7666
 20
24.7650
 30
0.0000
 11
11.7666
 21
24.2189
 31
0.0000
  0
LINE
  8
21
 10
13.2334
 20
24.1872
 30
0.0000
 11
13.2334
 21
24.4602
 31
0.0000
  0
LINE
  8
21
 10
13.2334
 20
24.4602
 30
0.0000
 11
14.0335
 21
24.4602
 31
0.0000
  0
LINE
  8
21
 10
14.0335
 20
24.4602
 30
0.0000
 11
14.1097
 21
24.8539
 31
0.0000
  0
LINE
  8
21
 10
10.7378
 20
24.4856
 30
0.0000
 11
9.8425
 21
24.5745
 31
0.0000
  0
LINE
  8
21
 10
9.8425
 20
24.5745
 30
0.0000
 11
9.8425
 21
24.8285
 31
0.0000
  0
LINE
  8
21
 10
12.2555
 20
24.2126
 30
0.0000
 11
12.2555
 21
24.6380
 31
0.0000
  0
LINE
  8
21
 10
12.2555
 20
24.6380
 30
0.0000
 11
12.8905
 21
24.7015
 31
0.0000
  0
LINE
  8
21
 10
12.8905
 20
24.7015
 30
0.0000
 11
12.8905
 21
24.8920
 31
0.0000
  0
LINE
  8
21
 10
10.8585
 20
15.8115
 30
0.0000
 11
10.8585
 21
16.8910
 31
0.0000
  0
LINE
  8
21
 10
8.3820
 20
17.0180
 30
0.0000
 11
8.3820
 21
17.2720
 31
0.0000
  0
LINE
  8
21
 10
17.0815
 20
4.6355
 30
0.0000
 11
18.0340
 21
4.6355
 31
0.0000
  0
LINE
  8
20
 10
42.7087
 20
14.0462
 30
0.0000
 11
42.3474
 21
14.0462
 31
0.0000
  0
ARC
  8
20
 10
42.3474
 20
14.4074
 30
0.0000
 40
0.3612
 50
180.0000
 51
270.0000
  0
LINE
  8
20
 10
41.9862
 20
14.4074
 30
0.0000
 11
41.9862
 21
15.3106
 31
0.0000
  0
ARC
  8
20
 10
42.3474
 20
15.3106
 30
0.0000
 40
0.3612
 50
90.0005
 51
180.0000
  0
LINE
  8
20
 10
42.3474
 20
15.6718
 30
0.0000
 11
42.7087
 21
15.6718
 31
0.0000
  0
LINE
  8
20
 10
43.3449
 20
15.6718
 30
0.0000
 11
43.3449
 21
14.4978
 31
0.0000
  0
ARC
  8
20
 10
43.7964
 20
14.4978
 30
0.0000
 40
0.4516
 50
180.0000
 51
0.0000
  0
LINE
  8
20
 10
44.2480
 20
14.4978
 30
0.0000
 11
44.2480
 21
15.6718
 31
0.0000
  0
LINE
  8
20
 10
45.3074
 20
14.0462
 30
0.0000
 11
45.3074
 21
15.6718
 31
0.0000
  0
LINE
  8
20
 10
44.8559
 20
15.6718
 30
0.0000
 11
45.7590
 21
15.6718
 31
0.0000
  0
LINE
  8
20
 10
47.1485
 20
14.4978
 30
0.0000
 11
47.1485
 21
15.2202
 31
0.0000
  0
ARC
  8
20
 10
47.6000
 20
15.2202
 30
0.0000
 40
0.4516
 50
0.0000
 51
180.0000
  0
LINE
  8
20
 10
48.0516
 20
15.2202
 30
0.0000
 11
48.0516
 21
14.4978
 31
0.0000
  0
ARC
  8
20
 10
47.6000
 20
14.4978
 30
0.0000
 40
0.4516
 50
180.0000
 51
0.0000
  0
LINE
  8
20
 10
48.7637
 20
15.6718
 30
0.0000
 11
48.7637
 21
14.4978
 31
0.0000
  0
ARC
  8
20
 10
49.2152
 20
14.4978
 30
0.0000
 40
0.4516
 50
180.0000
 51
0.0000
  0
LINE
  8
20
 10
49.6668
 20
14.4978
 30
0.0000
 11
49.6668
 21
15.6718
 31
0.0000
  0
LINE
  8
20
 10
50.7263
 20
14.0462
 30
0.0000
 11
50.7263
 21
15.6718
 31
0.0000
  0
LINE
  8
20
 10
50.2747
 20
15.6718
 30
0.0000
 11
51.1778
 21
15.6718
 31
0.0000
  0
LINE
  8
20
 10
89.4983
 20
20.7010
 30
0.0000
 11
89.4532
 21
20.7010
 31
0.0000
  0
ARC
  8
20
 10
89.4532
 20
20.7462
 30
0.0000
 40
0.0452
 50
180.0000
 51
270.0000
  0
LINE
  8
20
 10
89.4080
 20
20.7462
 30
0.0000
 11
89.4080
 21
20.8590
 31
0.0000
  0
ARC
  8
20
 10
89.4532
 20
20.8590
 30
0.0000
 40
0.0452
 50
90.0040
 51
180.0000
  0
LINE
  8
20
 10
89.4532
 20
20.9042
 30
0.0000
 11
89.4983
 21
20.9042
 31
0.0000
  0
LINE
  8
20
 10
89.5668
 20
20.9042
 30
0.0000
 11
89.5668
 21
20.7574
 31
0.0000
  0
ARC
  8
20
 10
89.6232
 20
20.7574
 30
0.0000
 40
0.0564
 50
180.0000
 51
0.0000
  0
LINE
  8
20
 10
89.6796
 20
20.7574
 30
0.0000
 11
89.6796
 21
20.9042
 31
0.0000
  0
LINE
  8
20
 10
89.8000
 20
20.7010
 30
0.0000
 11
89.8000
 21
20.9042
 31
0.0000
  0
LINE
  8
20
 10
89.7435
 20
20.9042
 30
0.0000
 11
89.8564
 21
20.9042
 31
0.0000
  0
LINE
  8
20
 10
90.0118
 20
20.7574
 30
0.0000
 11
90.0118
 21
20.8478
 31
0.0000
  0
ARC
  8
20
 10
90.0682
 20
20.8478
 30
0.0000
 40
0.0564
 50
0.0000
 51
180.0000
  0
LINE
  8
20
 10
90.1246
 20
20.8478
 30
0.0000
 11
90.1246
 21
20.7574
 31
0.0000
  0
ARC
  8
20
 10
90.0682
 20
20.7574
 30
0.0000
 40
0.0564
 50
180.0000
 51
0.0000
  0
LINE
  8
20
 10
90.2007
 20
20.9042
 30
0.0000
 11
90.2007
 21
20.7574
 31
0.0000
  0
ARC
  8
20
 10
90.2572
 20
20.7574
 30
0.0000
 40
0.0564
 50
180.0000
 51
0.0000
  0
LINE
  8
20
 10
90.3136
 20
20.7574
 30
0.0000
 11
90.3136
 21
20.9042
 31
0.0000
  0
LINE
  8
20
 10
90.4340
 20
20.7010
 30
0.0000
 11
90.4340
 21
20.9042
 31
0.0000
  0
LINE
  8
20
 10
90.3775
 20
20.9042
 30
0.0000
 11
90.4904
 21
20.9042
 31
0.0000
  0
LINE
  8
20
 10
94.1973
 20
20.7010
 30
0.0000
 11
94.1522
 21
20.7010
 31
0.0000
  0
ARC
  8
20
 10
94.1522
 20
20.7462
 30
0.0000
 40
0.0452
 50
180.0000
 51
270.0000
  0
LINE
  8
20
 10
94.1070
 20
20.7462
 30
0.0000
 11
94.1070
 21
20.8590
 31
0.0000
  0
ARC
  8
20
 10
94.1522
 20
20.8590
 30
0.0000
 40
0.0452
 50
90.0040
 51
180.0000
  0
LINE
  8
20
 10
94.1522
 20
20.9042
 30
0.0000
 11
94.1973
 21
20.9042
 31
0.0000
  0
LINE
  8
20
 10
94.2658
 20
20.9042
 30
0.0000
 11
94.2658
 21
20.7574
 31
0.0000
  0
ARC
  8
20
 10
94.3222
 20
20.7574
 30
0.0000
 40
0.0564
 50
180.0000
 51
0.0000
  0
LINE
  8
20
 10
94.3786
 20
20.7574
 30
0.0000
 11
94.3786
 21
20.9042
 31
0.0000
  0
LINE
  8
20
 10
94.4990
 20
20.7010
 30
0.0000
 11
94.4990
 21
20.9042
 31
0.0000
  0
LINE
  8
20
 10
94.4425
 20
20.9042
 30
0.0000
 11
94.5554
 21
20.9042
 31
0.0000
  0
LINE
  8
20
 10
94.7108
 20
20.7574
 30
0.0000
 11
94.7108
 21
20.8478
 31
0.0000
  0
ARC
  8
20
 10
94.7672
 20
20.8478
 30
0.0000
 40
0.0564
 50
0.0000
 51
180.0000
  0
LINE
  8
20
 10
94.8236
 20
20.8478
 30
0.0000
 11
94.8236
 21
20.7574
 31
0.0000
  0
ARC
  8
20
 10
94.7672
 20
20.7574
 30
0.0000
 40
0.0564
 50
180.0000
 51
0.0000
  0
LINE
  8
20
 10
94.8997
 20
20.9042
 30
0.0000
 11
94.8997
 21
20.7574
 31
0.0000
  0
ARC
  8
20
 10
94.9562
 20
20.7574
 30
0.0000
 40
0.0564
 50
180.0000
 51
0.0000
  0
LINE
  8
20
 10
95.0126
 20
20.7574
 30
0.0000
 11
95.0126
 21
20.9042
 31
0.0000
  0
LINE
  8
20
 10
95.1330
 20
20.7010
 30
0.0000
 11
95.1330
 21
20.9042
 31
0.0000
  0
LINE
  8
20
 10
95.0765
 20
20.9042
 30
0.0000
 11
95.1894
 21
20.9042
 31
0.0000
  0
LINE
  8
20
 10
80.6083
 20
25.9080
 30
0.0000
 11
80.5632
 21
25.9080
 31
0.0000
  0
ARC
  8
20
 10
80.5632
 20
25.9532
 30
0.0000
 40
0.0452
 50
180.0000
 51
270.0000
  0
LINE
  8
20
 10
80.5180
 20
25.9532
 30
0.0000
 11
80.5180
 21
26.0660
 31
0.0000
  0
ARC
  8
20
 10
80.5632
 20
26.0660
 30
0.0000
 40
0.0452
 50
90.0040
 51
180.0000
  0
LINE
  8
20
 10
80.5632
 20
26.1112
 30
0.0000
 11
80.6083
 21
26.1112
 31
0.0000
  0
LINE
  8
20
 10
80.6768
 20
26.1112
 30
0.0000
 11
80.6768
 21
25.9644
 31
0.0000
  0
ARC
  8
20
 10
80.7332
 20
25.9644
 30
0.0000
 40
0.0564
 50
180.0000
 51
0.0000
  0
LINE
  8
20
 10
80.7896
 20
25.9644
 30
0.0000
 11
80.7896
 21
26.1112
 31
0.0000
  0
LINE
  8
20
 10
80.9100
 20
25.9080
 30
0.0000
 11
80.9100
 21
26.1112
 31
0.0000
  0
LINE
  8
20
 10
80.8535
 20
26.1112
 30
0.0000
 11
80.9664
 21
26.1112
 31
0.0000
  0
LINE
  8
20
 10
81.1218
 20
25.9644
 30
0.0000
 11
81.1218
 21
26.0548
 31
0.0000
  0
ARC
  8
20
 10
81.1782
 20
26.0548
 30
0.0000
 40
0.0564
 50
0.0000
 51
180.0000
  0
LINE
  8
20
 10
81.2346
 20
26.0548
 30
0.0000
 11
81.2346
 21
25.9644
 31
0.0000
  0
ARC
  8
20
 10
81.1782
 20
25.9644
 30
0.0000
 40
0.0564
 50
180.0000
 51
0.0000
  0
LINE
  8
20
 10
81.3107
 20
26.1112
 30
0.0000
 11
81.3107
 21
25.9644
 31
0.0000
  0
ARC
  8
20
 10
81.3672
 20
25.9644
 30
0.0000
 40
0.0564
 50
180.0000
 51
0.0000
  0
LINE
  8
20
 10
81.4236
 20
25.9644
 30
0.0000
 11
81.4236
 21
26.1112
 31
0.0000
  0
LINE
  8
20
 10
81.5440
 20
25.9080
 30
0.0000
 11
81.5440
 21
26.1112
 31
0.0000
  0
LINE
  8
20
 10
81.4875
 20
26.1112
 30
0.0000
 11
81.6004
 21
26.1112
 31
0.0000
  0
LINE
  8
20
 10
71.0833
 20
26.0350
 30
0.0000
 11
71.0382
 21
26.0350
 31
0.0000
  0
ARC
  8
20
 10
71.0382
 20
26.0802
 30
0.0000
 40
0.0452
 50
180.0000
 51
270.0000
  0
LINE
  8
20
 10
70.9930
 20
26.0802
 30
0.0000
 11
70.9930
 21
26.1930
 31
0.0000
  0
ARC
  8
20
 10
71.0382
 20
26.1930
 30
0.0000
 40
0.0452
 50
90.0040
 51
180.0000
  0
LINE
  8
20
 10
71.0382
 20
26.2382
 30
0.0000
 11
71.0833
 21
26.2382
 31
0.0000
  0
LINE
  8
20
 10
71.1518
 20
26.2382
 30
0.0000
 11
71.1518
 21
26.0914
 31
0.0000
  0
ARC
  8
20
 10
71.2082
 20
26.0914
 30
0.0000
 40
0.0564
 50
180.0000
 51
0.0000
  0
LINE
  8
20
 10
71.2646
 20
26.0914
 30
0.0000
 11
71.2646
 21
26.2382
 31
0.0000
  0
LINE
  8
20
 10
71.3850
 20
26.0350
 30
0.0000
 11
71.3850
 21
26.2382
 31
0.0000
  0
LINE
  8
20
 10
71.3285
 20
26.2382
 30
0.0000
 11
71.4414
 21
26.2382
 31
0.0000
  0
LINE
  8
20
 10
71.5968
 20
26.0914
 30
0.0000
 11
71.5968
 21
26.1818
 31
0.0000
  0
ARC
  8
20
 10
71.6532
 20
26.1818
 30
0.0000
 40
0.0564
 50
0.0000
 51
180.0000
  0
LINE
  8
20
 10
71.7096
 20
26.1818
 30
0.0000
 11
71.7096
 21
26.0914
 31
0.0000
  0
ARC
  8
20
 10
71.6532
 20
26.0914
 30
0.0000
 40
0.0564
 50
180.0000
 51
0.0000
  0
LINE
  8
20
 10
71.7857
 20
26.2382
 30
0.0000
 11
71.7857
 21
26.0914
 31
0.0000
  0
ARC
  8
20
 10
71.8422
 20
26.0914
 30
0.0000
 40
0.0564
 50
180.0000
 51
0.0000
  0
LINE
  8
20
 10
71.8986
 20
26.0914
 30
0.0000
 11
71.8986
 21
26.2382
 31
0.0000
  0
LINE
  8
20
 10
72.0190
 20
26.0350
 30
0.0000
 11
72.0190
 21
26.2382
 31
0.0000
  0
LINE
  8
20
 10
71.9625
 20
26.2382
 30
0.0000
 11
72.0754
 21
26.2382
 31
0.0000
  0
LINE
  8
20
 10
67.2733
 20
26.0350
 30
0.0000
 11
67.2282
 21
26.0350
 31
0.0000
  0
ARC
  8
20
 10
67.2282
 20
26.0802
 30
0.0000
 40
0.0452
 50
180.0000
 51
270.0000
  0
LINE
  8
20
 10
67.1830
 20
26.0802
 30
0.0000
 11
67.1830
 21
26.1930
 31
0.0000
  0
ARC
  8
20
 10
67.2282
 20
26.1930
 30
0.0000
 40
0.0452
 50
90.0040
 51
180.0000
  0
LINE
  8
20
 10
67.2282
 20
26.2382
 30
0.0000
 11
67.2733
 21
26.2382
 31
0.0000
  0
LINE
  8
20
 10
67.3418
 20
26.2382
 30
0.0000
 11
67.3418
 21
26.0914
 31
0.0000
  0
ARC
  8
20
 10
67.3982
 20
26.0914
 30
0.0000
 40
0.0564
 50
180.0000
 51
0.0000
  0
LINE
  8
20
 10
67.4546
 20
26.0914
 30
0.0000
 11
67.4546
 21
26.2382
 31
0.0000
  0
LINE
  8
20
 10
67.5750
 20
26.0350
 30
0.0000
 11
67.5750
 21
26.2382
 31
0.0000
  0
LINE
  8
20
 10
67.5185
 20
26.2382
 30
0.0000
 11
67.6314
 21
26.2382
 31
0.0000
  0
LINE
  8
20
 10
67.7868
 20
26.0914
 30
0.0000
 11
67.7868
 21
26.1818
 31
0.0000
  0
ARC
  8
20
 10
67.8432
 20
26.1818
 30
0.0000
 40
0.0564
 50
0.0000
 51
180.0000
  0
LINE
  8
20
 10
67.8996
 20
26.1818
 30
0.0000
 11
67.8996
 21
26.0914
 31
0.0000
  0
ARC
  8
20
 10
67.8432
 20
26.0914
 30
0.0000
 40
0.0564
 50
180.0000
 51
0.0000
  0
LINE
  8
20
 10
67.9757
 20
26.2382
 30
0.0000
 11
67.9757
 21
26.0914
 31
0.0000
  0
ARC
  8
20
 10
68.0322
 20
26.0914
 30
0.0000
 40
0.0564
 50
180.0000
 51
0.0000
  0
LINE
  8
20
 10
68.0886
 20
26.0914
 30
0.0000
 11
68.0886
 21
26.2382
 31
0.0000
  0
LINE
  8
20
 10
68.2090
 20
26.0350
 30
0.0000
 11
68.2090
 21
26.2382
 31
0.0000
  0
LINE
  8
20
 10
68.1525
 20
26.2382
 30
0.0000
 11
68.2654
 21
26.2382
 31
0.0000
  0
LINE
  8
20
 10
86.4870
 20
21.8073
 30
0.0000
 11
86.4870
 21
21.7622
 31
0.0000
  0
ARC
  8
20
 10
86.4418
 20
21.7622
 30
0.0000
 40
0.0452
 50
270.0040
 51
0.0000
  0
LINE
  8
20
 10
86.4418
 20
21.7170
 30
0.0000
 11
86.3290
 21
21.7170
 31
0.0000
  0
ARC
  8
20
 10
86.3290
 20
21.7622
 30
0.0000
 40
0.0452
 50
180.0040
 51
270.0000
  0
LINE
  8
20
 10
86.2838
 20
21.7622
 30
0.0000
 11
86.2838
 21
21.8073
 31
0.0000
  0
LINE
  8
20
 10
86.2838
 20
21.8758
 30
0.0000
 11
86.4306
 21
21.8758
 31
0.0000
  0
ARC
  8
20
 10
86.4306
 20
21.9322
 30
0.0000
 40
0.0564
 50
270.0000
 51
90.0000
  0
LINE
  8
20
 10
86.4306
 20
21.9886
 30
0.0000
 11
86.2838
 21
21.9886
 31
0.0000
  0
LINE
  8
20
 10
86.4870
 20
22.1090
 30
0.0000
 11
86.2838
 21
22.1090
 31
0.0000
  0
LINE
  8
20
 10
86.2838
 20
22.0525
 30
0.0000
 11
86.2838
 21
22.1654
 31
0.0000
  0
LINE
  8
20
 10
86.4306
 20
22.3208
 30
0.0000
 11
86.3402
 21
22.3208
 31
0.0000
  0
ARC
  8
20
 10
86.3402
 20
22.3772
 30
0.0000
 40
0.0564
 50
90.0000
 51
270.0000
  0
LINE
  8
20
 10
86.3402
 20
22.4336
 30
0.0000
 11
86.4306
 21
22.4336
 31
0.0000
  0
ARC
  8
20
 10
86.4306
 20
22.3772
 30
0.0000
 40
0.0564
 50
270.0000
 51
90.0000
  0
LINE
  8
20
 10
86.2838
 20
22.5097
 30
0.0000
 11
86.4306
 21
22.5097
 31
0.0000
  0
ARC
  8
20
 10
86.4306
 20
22.5662
 30
0.0000
 40
0.0564
 50
270.0000
 51
90.0000
  0
LINE
  8
20
 10
86.4306
 20
22.6226
 30
0.0000
 11
86.2838
 21
22.6226
 31
0.0000
  0
LINE
  8
20
 10
86.4870
 20
22.7430
 30
0.0000
 11
86.2838
 21
22.7430
 31
0.0000
  0
LINE
  8
20
 10
86.2838
 20
22.6865
 30
0.0000
 11
86.2838
 21
22.7994
 31
0.0000
  0
LINE
  8
20
 10
73.3029
 20
15.4178
 30
0.0000
 11
73.2578
 21
15.4178
 31
0.0000
  0
ARC
  8
20
 10
73.2578
 20
15.4630
 30
0.0000
 40
0.0452
 50
180.0000
 51
270.0000
  0
LINE
  8
20
 10
73.2126
 20
15.4630
 30
0.0000
 11
73.2126
 21
15.5758
 31
0.0000
  0
ARC
  8
20
 10
73.2578
 20
15.5758
 30
0.0000
 40
0.0452
 50
90.0040
 51
180.0000
  0
LINE
  8
20
 10
73.2578
 20
15.6210
 30
0.0000
 11
73.3029
 21
15.6210
 31
0.0000
  0
LINE
  8
20
 10
73.3714
 20
15.6210
 30
0.0000
 11
73.3714
 21
15.4742
 31
0.0000
  0
ARC
  8
20
 10
73.4278
 20
15.4742
 30
0.0000
 40
0.0564
 50
180.0000
 51
0.0000
  0
LINE
  8
20
 10
73.4842
 20
15.4742
 30
0.0000
 11
73.4842
 21
15.6210
 31
0.0000
  0
LINE
  8
20
 10
73.6046
 20
15.4178
 30
0.0000
 11
73.6046
 21
15.6210
 31
0.0000
  0
LINE
  8
20
 10
73.5481
 20
15.6210
 30
0.0000
 11
73.6610
 21
15.6210
 31
0.0000
  0
LINE
  8
20
 10
73.8164
 20
15.4742
 30
0.0000
 11
73.8164
 21
15.5646
 31
0.0000
  0
ARC
  8
20
 10
73.8728
 20
15.5646
 30
0.0000
 40
0.0564
 50
0.0000
 51
180.0000
  0
LINE
  8
20
 10
73.9292
 20
15.5646
 30
0.0000
 11
73.9292
 21
15.4742
 31
0.0000
  0
ARC
  8
20
 10
73.8728
 20
15.4742
 30
0.0000
 40
0.0564
 50
180.0000
 51
0.0000
  0
LINE
  8
20
 10
74.0053
 20
15.6210
 30
0.0000
 11
74.0053
 21
15.4742
 31
0.0000
  0
ARC
  8
20
 10
74.0618
 20
15.4742
 30
0.0000
 40
0.0564
 50
180.0000
 51
0.0000
  0
LINE
  8
20
 10
74.1182
 20
15.4742
 30
0.0000
 11
74.1182
 21
15.6210
 31
0.0000
  0
LINE
  8
20
 10
74.2386
 20
15.4178
 30
0.0000
 11
74.2386
 21
15.6210
 31
0.0000
  0
LINE
  8
20
 10
74.1821
 20
15.6210
 30
0.0000
 11
74.2950
 21
15.6210
 31
0.0000
  0
LINE
  8
21
 10
36.0172
 20
27.1166
 30
0.0000
 11
36.2924
 21
26.0160
 31
0.0000
  0
LINE
  8
21
 10
36.2924
 20
26.0160
 30
0.0000
 11
36.5675
 21
26.7497
 31
0.0000
  0
LINE
  8
21
 10
36.5675
 20
26.7497
 30
0.0000
 11
36.8427
 21
26.0160
 31
0.0000
  0
LINE
  8
21
 10
36.8427
 20
26.0160
 30
0.0000
 11
37.1179
 21
27.1166
 31
0.0000
  0
LINE
  8
21
 10
37.8039
 20
27.1166
 30
0.0000
 11
38.0791
 21
26.0160
 31
0.0000
  0
LINE
  8
21
 10
38.0791
 20
26.0160
 30
0.0000
 11
38.3542
 21
26.7497
 31
0.0000
  0
LINE
  8
21
 10
38.3542
 20
26.7497
 30
0.0000
 11
38.6294
 21
26.0160
 31
0.0000
  0
LINE
  8
21
 10
38.6294
 20
26.0160
 30
0.0000
 11
38.9046
 21
27.1166
 31
0.0000
  0
LINE
  8
21
 10
39.5906
 20
27.1166
 30
0.0000
 11
39.8658
 21
26.0160
 31
0.0000
  0
LINE
  8
21
 10
39.8658
 20
26.0160
 30
0.0000
 11
40.1410
 21
26.7497
 31
0.0000
  0
LINE
  8
21
 10
40.1410
 20
26.7497
 30
0.0000
 11
40.4161
 21
26.0160
 31
0.0000
  0
LINE
  8
21
 10
40.4161
 20
26.0160
 30
0.0000
 11
40.6913
 21
27.1166
 31
0.0000
  0
LINE
  8
21
 10
41.3235
 20
26.0160
 30
0.0000
 11
41.3235
 21
26.1077
 31
0.0000
  0
LINE
  8
21
 10
41.3235
 20
26.1077
 30
0.0000
 11
41.4152
 21
26.1077
 31
0.0000
  0
LINE
  8
21
 10
41.4152
 20
26.1077
 30
0.0000
 11
41.4152
 21
26.0160
 31
0.0000
  0
LINE
  8
21
 10
41.4152
 20
26.0160
 30
0.0000
 11
41.3235
 21
26.0160
 31
0.0000
  0
LINE
  8
21
 10
42.0633
 20
26.3828
 30
0.0000
 11
42.0633
 21
26.7497
 31
0.0000
  0
ARC
  8
21
 10
42.4302
 20
26.7497
 30
0.0000
 40
0.3669
 50
0.0000
 51
180.0000
  0
LINE
  8
21
 10
42.7971
 20
26.7497
 30
0.0000
 11
42.7971
 21
26.3828
 31
0.0000
  0
ARC
  8
21
 10
42.4302
 20
26.3828
 30
0.0000
 40
0.3669
 50
180.0000
 51
0.0000
  0
LINE
  8
21
 10
43.5814
 20
25.4656
 30
0.0000
 11
43.5814
 21
27.1166
 31
0.0000
  0
LINE
  8
21
 10
43.5814
 20
27.1166
 30
0.0000
 11
44.0400
 21
27.1166
 31
0.0000
  0
ARC
  8
21
 10
44.0400
 20
26.8415
 30
0.0000
 40
0.2752
 50
0.0000
 51
90.0000
  0
LINE
  8
21
 10
44.3152
 20
26.8415
 30
0.0000
 11
44.3152
 21
26.2911
 31
0.0000
  0
ARC
  8
21
 10
44.0400
 20
26.2911
 30
0.0000
 40
0.2752
 50
270.0007
 51
360.0000
  0
LINE
  8
21
 10
44.0400
 20
26.0160
 30
0.0000
 11
43.5814
 21
26.0160
 31
0.0000
  0
LINE
  8
21
 10
45.7563
 20
26.0160
 30
0.0000
 11
45.2977
 21
26.0160
 31
0.0000
  0
ARC
  8
21
 10
45.2977
 20
26.2911
 30
0.0000
 40
0.2752
 50
180.0000
 51
270.0000
  0
LINE
  8
21
 10
45.0226
 20
26.2911
 30
0.0000
 11
45.0226
 21
26.7497
 31
0.0000
  0
ARC
  8
21
 10
45.3894
 20
26.7497
 30
0.0000
 40
0.3669
 50
0.0000
 51
180.0000
  0
LINE
  8
21
 10
45.7563
 20
26.7497
 30
0.0000
 11
45.7563
 21
26.5663
 31
0.0000
  0
LINE
  8
21
 10
45.7563
 20
26.5663
 30
0.0000
 11
45.0226
 21
26.5663
 31
0.0000
  0
LINE
  8
21
 10
46.5301
 20
26.0160
 30
0.0000
 11
46.5301
 21
27.1166
 31
0.0000
  0
LINE
  8
21
 10
46.5301
 20
27.1166
 30
0.0000
 11
46.9887
 21
27.1166
 31
0.0000
  0
ARC
  8
21
 10
46.9887
 20
26.8415
 30
0.0000
 40
0.2752
 50
0.0000
 51
90.0000
  0
LINE
  8
21
 10
47.2639
 20
26.8415
 30
0.0000
 11
47.2639
 21
26.0160
 31
0.0000
  0
ARC
  8
21
 10
48.5521
 20
26.3828
 30
0.0000
 40
0.3669
 50
270.0000
 51
0.0000
  0
ARC
  8
21
 10
48.5521
 20
26.7910
 30
0.0000
 40
0.7751
 50
224.7605
 51
270.0000
  0
ARC
  8
21
 10
48.4145
 20
27.3001
 30
0.0000
 40
0.3669
 50
89.9995
 51
180.0000
  0
ARC
  8
21
 10
48.4145
 20
26.9790
 30
0.0000
 40
0.6879
 50
53.1304
 51
89.9995
  0
ARC
  8
21
 10
48.4202
 20
27.3001
 30
0.0000
 40
0.3726
 50
180.0001
 51
239.4894
  0
ARC
  8
21
 10
48.5463
 20
26.3828
 30
0.0000
 40
0.3726
 50
359.9999
 51
59.4904
  0
LINE
  8
21
 10
48.7355
 20
26.7039
 30
0.0000
 11
48.2310
 21
26.9790
 31
0.0000
  0
LINE
  8
21
 10
49.5292
 20
26.0160
 30
0.0000
 11
50.6299
 21
27.6669
 31
0.0000
  0
LINE
  8
21
 10
49.5292
 20
27.6669
 30
0.0000
 11
50.6299
 21
26.0160
 31
0.0000
  0
LINE
  8
21
 10
51.2960
 20
27.4835
 30
0.0000
 11
51.2960
 21
27.6669
 31
0.0000
  0
LINE
  8
21
 10
51.2960
 20
27.6669
 30
0.0000
 11
52.2132
 21
27.6669
 31
0.0000
  0
LINE
  8
21
 10
52.2132
 20
27.6669
 30
0.0000
 11
51.7546
 21
26.0160
 31
0.0000
  0
ARC
  8
21
 10
54.3316
 20
26.8415
 30
0.0000
 40
1.3606
 50
154.0111
 51
180.0000
  0
ARC
  8
21
 10
53.4296
 20
27.3276
 30
0.0000
 40
0.3394
 50
89.9999
 51
161.0750
  0
ARC
  8
21
 10
53.4296
 20
27.3276
 30
0.0000
 40
0.3394
 50
18.9240
 51
90.0000
  0
ARC
  8
21
 10
52.5277
 20
26.8415
 30
0.0000
 40
1.3605
 50
0.0000
 51
25.9894
  0
ARC
  8
21
 10
54.3316
 20
26.8415
 30
0.0000
 40
1.3606
 50
180.0001
 51
205.9887
  0
ARC
  8
21
 10
53.4296
 20
26.3553
 30
0.0000
 40
0.3394
 50
198.9254
 51
269.9999
  0
ARC
  8
21
 10
52.5277
 20
26.8415
 30
0.0000
 40
1.3606
 50
334.0108
 51
359.9999
  0
ARC
  8
21
 10
53.4296
 20
26.3553
 30
0.0000
 40
0.3394
 50
269.9999
 51
341.0754
  0
LINE
  8
21
 10
53.0628
 20
26.3828
 30
0.0000
 11
53.7965
 21
27.3001
 31
0.0000
  0
LINE
  8
21
 10
54.5563
 20
26.0160
 30
0.0000
 11
54.5563
 21
26.1077
 31
0.0000
  0
LINE
  8
21
 10
54.5563
 20
26.1077
 30
0.0000
 11
54.6480
 21
26.1077
 31
0.0000
  0
LINE
  8
21
 10
54.6480
 20
26.1077
 30
0.0000
 11
54.6480
 21
26.0160
 31
0.0000
  0
LINE
  8
21
 10
54.6480
 20
26.0160
 30
0.0000
 11
54.5563
 21
26.0160
 31
0.0000
  0
LINE
  8
21
 10
55.9408
 20
26.0160
 30
0.0000
 11
55.5739
 21
26.0160
 31
0.0000
  0
ARC
  8
21
 10
55.5739
 20
26.2911
 30
0.0000
 40
0.2752
 50
180.0000
 51
270.0000
  0
LINE
  8
21
 10
55.2988
 20
26.2911
 30
0.0000
 11
55.2988
 21
26.8415
 31
0.0000
  0
ARC
  8
21
 10
55.5739
 20
26.8415
 30
0.0000
 40
0.2752
 50
89.9993
 51
180.0000
  0
LINE
  8
21
 10
55.5739
 20
27.1166
 30
0.0000
 11
55.9408
 21
27.1166
 31
0.0000
  0
LINE
  8
21
 10
56.5804
 20
26.3828
 30
0.0000
 11
56.5804
 21
26.7497
 31
0.0000
  0
ARC
  8
21
 10
56.9472
 20
26.7497
 30
0.0000
 40
0.3669
 50
0.0000
 51
180.0000
  0
LINE
  8
21
 10
57.3141
 20
26.7497
 30
0.0000
 11
57.3141
 21
26.3828
 31
0.0000
  0
ARC
  8
21
 10
56.9472
 20
26.3828
 30
0.0000
 40
0.3669
 50
180.0000
 51
0.0000
  0
LINE
  8
21
 10
58.1278
 20
26.0160
 30
0.0000
 11
58.1278
 21
27.1166
 31
0.0000
  0
LINE
  8
21
 10
58.1278
 20
27.1166
 30
0.0000
 11
58.9533
 21
27.1166
 31
0.0000
  0
ARC
  8
21
 10
58.9533
 20
26.8415
 30
0.0000
 40
0.2752
 50
0.0000
 51
90.0000
  0
LINE
  8
21
 10
59.2285
 20
26.8415
 30
0.0000
 11
59.2285
 21
26.0160
 31
0.0000
  0
LINE
  8
21
 10
58.6781
 20
26.0160
 30
0.0000
 11
58.6781
 21
27.1166
 31
0.0000
  0
ARC
  8
21
 10
34.3930
 20
19.3581
 30
0.0000
 40
0.2667
 50
33.0011
 51
122.9987
  0
ARC
  8
21
 10
34.4344
 20
19.2944
 30
0.0000
 40
0.3426
 50
122.9987
 51
195.0563
  0
ARC
  8
21
 10
34.3764
 20
19.3474
 30
0.0000
 40
0.2865
 50
346.6042
 51
32.9987
  0
LINE
  8
21
 10
34.6551
 20
19.2810
 30
0.0000
 11
34.5554
 21
18.5096
 31
0.0000
  0
LINE
  8
21
 10
34.5554
 20
18.5096
 30
0.0000
 11
35.0525
 21
18.8324
 31
0.0000
  0
ARC
  8
21
 10
35.9608
 20
20.0582
 30
0.0000
 40
0.8791
 50
187.0107
 51
212.9997
  0
ARC
  8
21
 10
35.3009
 20
20.0043
 30
0.0000
 40
0.2193
 50
123.0012
 51
194.0747
  0
ARC
  8
21
 10
35.3009
 20
20.0043
 30
0.0000
 40
0.2193
 50
51.9254
 51
122.9989
  0
ARC
  8
21
 10
34.9833
 20
19.4235
 30
0.0000
 40
0.8790
 50
32.9989
 51
58.9912
  0
ARC
  8
21
 10
35.9608
 20
20.0583
 30
0.0000
 40
0.8792
 50
213.0004
 51
238.9884
  0
ARC
  8
21
 10
35.6431
 20
19.4774
 30
0.0000
 40
0.2193
 50
231.9247
 51
302.9995
  0
ARC
  8
21
 10
34.9835
 20
19.4235
 30
0.0000
 40
0.8789
 50
7.0072
 51
33.0029
  0
ARC
  8
21
 10
35.6431
 20
19.4774
 30
0.0000
 40
0.2193
 50
303.0007
 51
14.0757
  0
LINE
  8
21
 10
35.4346
 20
19.3632
 30
0.0000
 11
35.5094
 21
20.1185
 31
0.0000
  0
LINE
  8
21
 10
36.0207
 20
20.4505
 30
0.0000
 11
36.1401
 21
20.8107
 31
0.0000
  0
LINE
  8
21
 10
36.1401
 20
20.8107
 30
0.0000
 11
36.7211
 21
19.9160
 31
0.0000
  0
LINE
  8
21
 10
36.4726
 20
19.7546
 30
0.0000
 11
36.9696
 21
20.0774
 31
0.0000
  0
ARC
  8
21
 10
37.5183
 20
20.7870
 30
0.0000
 40
0.2963
 50
33.0000
 51
213.0005
  0
ARC
  8
21
 10
37.5183
 20
20.7870
 30
0.0000
 40
0.2963
 50
213.0005
 51
33.0000
  0
ARC
  8
21
 10
37.2278
 20
21.2344
 30
0.0000
 40
0.2371
 50
33.0004
 51
213.0001
  0
ARC
  8
21
 10
37.2278
 20
21.2344
 30
0.0000
 40
0.2371
 50
213.0004
 51
33.0006
  0
ARC
  8
21
 10
38.8366
 20
21.9258
 30
0.0000
 40
0.8791
 50
187.0107
 51
212.9997
  0
ARC
  8
21
 10
38.1767
 20
21.8718
 30
0.0000
 40
0.2193
 50
123.0012
 51
194.0747
  0
ARC
  8
21
 10
38.1767
 20
21.8718
 30
0.0000
 40
0.2193
 50
51.9254
 51
122.9989
  0
ARC
  8
21
 10
37.8591
 20
21.2911
 30
0.0000
 40
0.8790
 50
32.9989
 51
58.9912
  0
ARC
  8
21
 10
38.8366
 20
21.9258
 30
0.0000
 40
0.8792
 50
213.0004
 51
238.9884
  0
ARC
  8
21
 10
38.5189
 20
21.3449
 30
0.0000
 40
0.2193
 50
231.9247
 51
302.9995
  0
ARC
  8
21
 10
37.8592
 20
21.2911
 30
0.0000
 40
0.8789
 50
7.0072
 51
33.0029
  0
ARC
  8
21
 10
38.5189
 20
21.3449
 30
0.0000
 40
0.2193
 50
303.0007
 51
14.0757
  0
LINE
  8
21
 10
38.3104
 20
21.2307
 30
0.0000
 11
38.3852
 21
21.9860
 31
0.0000
  0
ARC
  8
21
 10
39.1860
 20
22.4707
 30
0.0000
 40
0.2667
 50
33.0011
 51
122.9987
  0
ARC
  8
21
 10
39.2273
 20
22.4070
 30
0.0000
 40
0.3426
 50
122.9987
 51
195.0563
  0
ARC
  8
21
 10
39.1694
 20
22.4600
 30
0.0000
 40
0.2865
 50
346.6042
 51
32.9987
  0
LINE
  8
21
 10
39.4481
 20
22.3936
 30
0.0000
 11
39.3484
 21
21.6222
 31
0.0000
  0
LINE
  8
21
 10
39.3484
 20
21.6222
 30
0.0000
 11
39.8454
 21
21.9450
 31
0.0000
  0
ARC
  8
21
 10
40.1446
 20
23.0932
 30
0.0000
 40
0.2667
 50
33.0011
 51
122.9987
  0
ARC
  8
21
 10
40.1859
 20
23.0296
 30
0.0000
 40
0.3426
 50
122.9987
 51
195.0563
  0
ARC
  8
21
 10
40.1280
 20
23.0825
 30
0.0000
 40
0.2865
 50
346.6042
 51
32.9987
  0
LINE
  8
21
 10
40.4067
 20
23.0161
 30
0.0000
 11
40.3070
 21
22.2447
 31
0.0000
  0
LINE
  8
21
 10
40.3070
 20
22.2447
 30
0.0000
 11
40.8040
 21
22.5675
 31
0.0000
  0
LINE
  8
21
 10
40.9428
 20
23.3643
 30
0.0000
 11
41.2410
 21
23.5579
 31
0.0000
  0
ARC
  8
21
 10
41.3701
 20
23.3591
 30
0.0000
 40
0.2371
 50
33.0002
 51
123.0002
  0
LINE
  8
21
 10
41.5689
 20
23.4882
 30
0.0000
 11
41.6012
 21
23.4385
 31
0.0000
  0
ARC
  8
21
 10
41.3527
 20
23.2771
 30
0.0000
 40
0.2963
 50
212.9991
 51
33.0013
  0
LINE
  8
21
 10
41.1042
 20
23.1157
 30
0.0000
 11
40.9428
 21
23.3643
 31
0.0000
  0
ARC
  8
21
 10
41.3404
 20
23.6225
 30
0.0000
 40
0.4741
 50
122.9998
 51
213.0003
  0
LINE
  8
21
 10
52.7118
 20
24.0193
 30
0.0000
 11
52.2407
 21
23.2654
 31
0.0000
  0
ARC
  8
21
 10
52.3915
 20
23.1711
 30
0.0000
 40
0.1778
 50
147.9999
 51
237.9980
  0
LINE
  8
21
 10
53.2750
 20
22.8986
 30
0.0000
 11
53.0489
 21
23.0399
 31
0.0000
  0
ARC
  8
21
 10
52.9389
 20
22.8640
 30
0.0000
 40
0.2074
 50
57.9994
 51
238.0001
  0
LINE
  8
21
 10
52.8290
 20
22.6881
 30
0.0000
 11
53.0552
 21
22.5467
 31
0.0000
  0
LINE
  8
21
 10
53.0552
 20
22.5467
 30
0.0000
 11
53.3378
 21
22.9991
 31
0.0000
  0
ARC
  8
21
 10
53.1871
 20
23.0933
 30
0.0000
 40
0.1778
 50
327.9997
 51
58.0002
  0
LINE
  8
21
 10
53.2813
 20
23.2441
 30
0.0000
 11
53.0802
 21
23.3697
 31
0.0000
  0
LINE
  8
21
 10
53.3122
 20
21.9668
 30
0.0000
 11
53.4127
 21
21.9040
 31
0.0000
  0
LINE
  8
21
 10
53.4127
 20
21.9040
 30
0.0000
 11
54.2796
 21
22.6203
 31
0.0000
  0
LINE
  8
21
 10
53.8775
 20
22.8715
 30
0.0000
 11
53.7017
 21
22.1427
 31
0.0000
  0
LINE
  8
21
 10
54.4340
 20
21.9647
 30
0.0000
 11
54.5597
 21
22.1657
 31
0.0000
  0
ARC
  8
21
 10
54.7607
 20
22.0401
 30
0.0000
 40
0.2371
 50
328.0000
 51
147.9996
  0
LINE
  8
21
 10
54.9618
 20
21.9145
 30
0.0000
 11
54.8361
 21
21.7134
 31
0.0000
  0
ARC
  8
21
 10
54.6351
 20
21.8390
 30
0.0000
 40
0.2371
 50
148.0000
 51
328.0004
  0
LINE
  8
21
 10
55.5577
 20
21.8216
 30
0.0000
 11
55.2750
 21
21.3693
 31
0.0000
  0
ARC
  8
21
 10
55.4258
 20
21.2751
 30
0.0000
 40
0.1778
 50
147.9999
 51
237.9994
  0
LINE
  8
21
 10
55.3316
 20
21.1243
 30
0.0000
 11
55.5829
 21
20.9672
 31
0.0000
  0
LINE
  8
21
 10
55.5829
 20
20.9672
 30
0.0000
 11
55.9598
 21
21.5704
 31
0.0000
  0
LINE
  8
21
 10
56.3393
 20
21.3332
 30
0.0000
 11
56.6409
 21
21.1448
 31
0.0000
  0
LINE
  8
21
 10
56.6283
 20
21.5719
 30
0.0000
 11
56.1572
 21
20.8180
 31
0.0000
  0
ARC
  8
21
 10
56.3080
 20
20.7238
 30
0.0000
 40
0.1778
 50
148.0005
 51
238.0005
  0
LINE
  8
21
 10
56.2138
 20
20.5730
 30
0.0000
 11
56.2640
 21
20.5416
 31
0.0000
  0
LINE
  8
21
 10
57.1984
 20
19.9577
 30
0.0000
 11
57.5000
 21
19.7693
 31
0.0000
  0
ARC
  8
21
 10
57.6256
 20
19.9703
 30
0.0000
 40
0.2371
 50
238.0000
 51
327.9994
  0
LINE
  8
21
 10
57.8266
 20
19.8447
 30
0.0000
 11
57.8895
 21
19.9452
 31
0.0000
  0
ARC
  8
21
 10
57.6884
 20
20.0709
 30
0.0000
 40
0.2371
 50
328.0007
 51
57.9997
  0
LINE
  8
21
 10
57.8140
 20
20.2719
 30
0.0000
 11
57.5125
 21
20.4603
 31
0.0000
  0
LINE
  8
21
 10
57.5125
 20
20.4603
 30
0.0000
 11
57.7637
 21
20.8624
 31
0.0000
  0
LINE
  8
21
 10
57.7637
 20
20.8624
 30
0.0000
 11
58.2663
 21
20.5484
 31
0.0000
  0
LINE
  8
21
 10
58.1031
 20
19.3924
 30
0.0000
 11
58.1345
 21
19.4427
 31
0.0000
  0
LINE
  8
21
 10
58.1345
 20
19.4427
 30
0.0000
 11
58.1848
 21
19.4113
 31
0.0000
  0
LINE
  8
21
 10
58.1848
 20
19.4113
 30
0.0000
 11
58.1534
 21
19.3610
 31
0.0000
  0
LINE
  8
21
 10
58.1534
 20
19.3610
 30
0.0000
 11
58.1031
 21
19.3924
 31
0.0000
  0
ARC
  8
21
 10
59.2559
 20
19.6155
 30
0.0000
 40
0.2667
 50
328.0006
 51
57.9987
  0
ARC
  8
21
 10
59.2156
 20
19.5512
 30
0.0000
 40
0.3426
 50
57.9986
 51
130.0566
  0
ARC
  8
21
 10
59.2391
 20
19.6260
 30
0.0000
 40
0.2865
 50
281.6035
 51
327.9984
  0
LINE
  8
21
 10
59.2967
 20
19.3454
 30
0.0000
 11
58.5555
 21
19.1098
 31
0.0000
  0
LINE
  8
21
 10
58.5555
 20
19.1098
 30
0.0000
 11
59.0581
 21
18.7957
 31
0.0000
  0
ARC
  8
21
 10
96.7528
 20
8.2557
 30
0.0000
 40
0.1468
 50
269.9988
 51
360.0000
  0
ARC
  8
21
 10
96.7528
 20
8.4190
 30
0.0000
 40
0.3100
 50
224.7611
 51
269.9989
  0
ARC
  8
21
 10
96.6978
 20
8.6226
 30
0.0000
 40
0.1468
 50
90.0000
 51
180.0000
  0
ARC
  8
21
 10
96.6978
 20
8.4942
 30
0.0000
 40
0.2752
 50
53.1296
 51
89.9998
  0
ARC
  8
21
 10
96.7001
 20
8.6226
 30
0.0000
 40
0.1491
 50
179.9999
 51
239.4896
  0
ARC
  8
21
 10
96.7505
 20
8.2557
 30
0.0000
 40
0.1491
 50
0.0004
 51
59.4891
  0
LINE
  8
21
 10
96.8262
 20
8.3841
 30
0.0000
 11
96.6244
 21
8.4942
 31
0.0000
  0
LINE
  8
21
 10
97.2398
 20
8.1090
 30
0.0000
 11
97.4600
 21
8.1090
 31
0.0000
  0
ARC
  8
21
 10
97.4600
 20
8.2557
 30
0.0000
 40
0.1468
 50
270.0000
 51
359.9988
  0
LINE
  8
21
 10
97.6067
 20
8.2557
 30
0.0000
 11
97.6067
 21
8.3291
 31
0.0000
  0
ARC
  8
21
 10
97.4600
 20
8.3291
 30
0.0000
 40
0.1468
 50
0.0000
 51
90.0000
  0
LINE
  8
21
 10
97.4600
 20
8.4758
 30
0.0000
 11
97.2398
 21
8.4758
 31
0.0000
  0
LINE
  8
21
 10
97.2398
 20
8.4758
 30
0.0000
 11
97.2398
 21
8.7694
 31
0.0000
  0
LINE
  8
21
 10
97.2398
 20
8.7694
 30
0.0000
 11
97.6067
 21
8.7694
 31
0.0000
  0
LINE
  8
21
 10
95.4243
 20
11.5556
 30
0.0000
 11
95.5343
 21
11.5556
 31
0.0000
  0
LINE
  8
21
 10
95.5343
 20
11.5556
 30
0.0000
 11
95.5343
 21
11.1887
 31
0.0000
  0
LINE
  8
21
 10
95.5343
 20
11.1887
 30
0.0000
 11
95.3142
 21
11.1887
 31
0.0000
  0
ARC
  8
21
 10
95.3142
 20
11.3355
 30
0.0000
 40
0.1468
 50
180.0000
 51
270.0000
  0
LINE
  8
21
 10
95.1675
 20
11.3355
 30
0.0000
 11
95.1675
 21
11.7023
 31
0.0000
  0
ARC
  8
21
 10
95.3142
 20
11.7023
 30
0.0000
 40
0.1468
 50
90.0012
 51
180.0000
  0
LINE
  8
21
 10
95.3142
 20
11.8491
 30
0.0000
 11
95.5343
 21
11.8491
 31
0.0000
  0
LINE
  8
21
 10
95.9477
 20
11.1887
 30
0.0000
 11
95.9477
 21
11.8491
 31
0.0000
  0
LINE
  8
21
 10
95.9477
 20
11.8491
 30
0.0000
 11
96.3146
 21
11.1887
 31
0.0000
  0
LINE
  8
21
 10
96.3146
 20
11.1887
 30
0.0000
 11
96.3146
 21
11.8491
 31
0.0000
  0
LINE
  8
21
 10
96.7280
 20
11.1887
 30
0.0000
 11
96.7280
 21
11.8491
 31
0.0000
  0
LINE
  8
21
 10
96.7280
 20
11.8491
 30
0.0000
 11
96.9115
 21
11.8491
 31
0.0000
  0
ARC
  8
21
 10
96.9115
 20
11.6657
 30
0.0000
 40
0.1834
 50
0.0000
 51
90.0000
  0
LINE
  8
21
 10
97.0949
 20
11.6657
 30
0.0000
 11
97.0949
 21
11.3721
 31
0.0000
  0
ARC
  8
21
 10
96.9115
 20
11.3721
 30
0.0000
 40
0.1834
 50
270.0000
 51
0.0000
  0
LINE
  8
21
 10
96.9115
 20
11.1887
 30
0.0000
 11
96.7280
 21
11.1887
 31
0.0000
  0
LINE
  8
21
 10
94.0880
 20
12.9032
 30
0.0000
 11
94.0880
 21
13.5636
 31
0.0000
  0
LINE
  8
21
 10
94.0880
 20
13.5636
 30
0.0000
 11
94.3081
 21
13.1967
 31
0.0000
  0
LINE
  8
21
 10
94.3081
 20
13.1967
 30
0.0000
 11
94.5282
 21
13.5636
 31
0.0000
  0
LINE
  8
21
 10
94.5282
 20
13.5636
 30
0.0000
 11
94.5282
 21
12.9032
 31
0.0000
  0
LINE
  8
21
 10
94.9293
 20
13.0866
 30
0.0000
 11
94.9293
 21
13.3802
 31
0.0000
  0
ARC
  8
21
 10
95.1128
 20
13.3802
 30
0.0000
 40
0.1834
 50
0.0000
 51
180.0000
  0
LINE
  8
21
 10
95.2962
 20
13.3802
 30
0.0000
 11
95.2962
 21
13.0866
 31
0.0000
  0
ARC
  8
21
 10
95.1128
 20
13.0866
 30
0.0000
 40
0.1834
 50
180.0000
 51
0.0000
  0
LINE
  8
21
 10
95.7955
 20
12.9032
 30
0.0000
 11
95.7955
 21
13.5636
 31
0.0000
  0
LINE
  8
21
 10
95.6121
 20
13.5636
 30
0.0000
 11
95.9789
 21
13.5636
 31
0.0000
  0
LINE
  8
21
 10
96.2948
 20
13.0866
 30
0.0000
 11
96.2948
 21
13.3802
 31
0.0000
  0
ARC
  8
21
 10
96.4783
 20
13.3802
 30
0.0000
 40
0.1834
 50
0.0000
 51
180.0000
  0
LINE
  8
21
 10
96.6617
 20
13.3802
 30
0.0000
 11
96.6617
 21
13.0866
 31
0.0000
  0
ARC
  8
21
 10
96.4783
 20
13.0866
 30
0.0000
 40
0.1834
 50
180.0000
 51
0.0000
  0
LINE
  8
21
 10
97.0586
 20
12.9032
 30
0.0000
 11
97.0586
 21
13.5636
 31
0.0000
  0
LINE
  8
21
 10
97.0586
 20
13.5636
 30
0.0000
 11
97.2420
 21
13.5636
 31
0.0000
  0
ARC
  8
21
 10
97.2420
 20
13.3802
 30
0.0000
 40
0.1834
 50
270.0000
 51
90.0000
  0
LINE
  8
21
 10
97.2420
 20
13.1967
 30
0.0000
 11
97.0586
 21
13.1967
 31
0.0000
  0
LINE
  8
21
 10
97.4255
 20
12.9032
 30
0.0000
 11
97.2787
 21
13.1967
 31
0.0000
  0
LINE
  8
21
 10
93.2942
 20
14.8971
 30
0.0000
 11
93.5143
 21
14.2367
 31
0.0000
  0
LINE
  8
21
 10
93.5143
 20
14.2367
 30
0.0000
 11
93.7345
 21
14.8971
 31
0.0000
  0
LINE
  8
21
 10
94.3524
 20
14.2367
 30
0.0000
 11
94.2056
 21
14.2367
 31
0.0000
  0
ARC
  8
21
 10
94.2056
 20
14.3835
 30
0.0000
 40
0.1468
 50
180.0000
 51
270.0000
  0
LINE
  8
21
 10
94.0589
 20
14.3835
 30
0.0000
 11
94.0589
 21
14.7503
 31
0.0000
  0
ARC
  8
21
 10
94.2056
 20
14.7503
 30
0.0000
 40
0.1468
 50
90.0012
 51
180.0000
  0
LINE
  8
21
 10
94.2056
 20
14.8971
 30
0.0000
 11
94.3524
 21
14.8971
 31
0.0000
  0
LINE
  8
21
 10
94.9620
 20
14.2367
 30
0.0000
 11
94.8152
 21
14.2367
 31
0.0000
  0
ARC
  8
21
 10
94.8152
 20
14.3835
 30
0.0000
 40
0.1468
 50
180.0000
 51
270.0000
  0
LINE
  8
21
 10
94.6685
 20
14.3835
 30
0.0000
 11
94.6685
 21
14.7503
 31
0.0000
  0
ARC
  8
21
 10
94.8152
 20
14.7503
 30
0.0000
 40
0.1468
 50
90.0012
 51
180.0000
  0
LINE
  8
21
 10
94.8152
 20
14.8971
 30
0.0000
 11
94.9620
 21
14.8971
 31
0.0000
  0
LINE
  8
21
 10
95.2937
 20
14.4935
 30
0.0000
 11
95.7339
 21
14.4935
 31
0.0000
  0
LINE
  8
21
 10
96.1107
 20
14.6036
 30
0.0000
 11
96.3308
 21
14.6036
 31
0.0000
  0
ARC
  8
21
 10
96.3308
 20
14.4568
 30
0.0000
 40
0.1468
 50
0.0000
 51
90.0000
  0
LINE
  8
21
 10
96.4775
 20
14.4568
 30
0.0000
 11
96.4775
 21
14.4201
 31
0.0000
  0
ARC
  8
21
 10
96.2941
 20
14.4201
 30
0.0000
 40
0.1834
 50
180.0000
 51
0.0000
  0
LINE
  8
21
 10
96.1107
 20
14.4201
 30
0.0000
 11
96.1107
 21
14.6036
 31
0.0000
  0
ARC
  8
21
 10
96.4042
 20
14.6036
 30
0.0000
 40
0.2935
 50
90.0006
 51
180.0000
  0
LINE
  8
21
 10
96.8055
 20
14.8971
 30
0.0000
 11
97.0256
 21
14.2367
 31
0.0000
  0
LINE
  8
21
 10
97.0256
 20
14.2367
 30
0.0000
 11
97.2457
 21
14.8971
 31
0.0000
  0
ARC
  8
21
 10
92.9746
 20
15.9392
 30
0.0000
 40
0.1468
 50
269.9988
 51
360.0000
  0
ARC
  8
21
 10
92.9746
 20
16.1025
 30
0.0000
 40
0.3100
 50
224.7611
 51
269.9989
  0
ARC
  8
21
 10
92.9196
 20
16.3061
 30
0.0000
 40
0.1468
 50
90.0000
 51
180.0000
  0
ARC
  8
21
 10
92.9196
 20
16.1777
 30
0.0000
 40
0.2752
 50
53.1296
 51
89.9998
  0
ARC
  8
21
 10
92.9218
 20
16.3061
 30
0.0000
 40
0.1491
 50
179.9999
 51
239.4896
  0
ARC
  8
21
 10
92.9723
 20
15.9392
 30
0.0000
 40
0.1491
 50
0.0004
 51
59.4891
  0
LINE
  8
21
 10
93.0480
 20
16.0676
 30
0.0000
 11
92.8462
 21
16.1777
 31
0.0000
  0
LINE
  8
21
 10
93.8285
 20
16.0860
 30
0.0000
 11
93.6083
 21
16.0860
 31
0.0000
  0
ARC
  8
21
 10
93.6083
 20
16.2327
 30
0.0000
 40
0.1468
 50
180.0000
 51
270.0000
  0
LINE
  8
21
 10
93.4616
 20
16.2327
 30
0.0000
 11
93.4616
 21
16.2694
 31
0.0000
  0
ARC
  8
21
 10
93.6450
 20
16.2694
 30
0.0000
 40
0.1834
 50
0.0000
 51
180.0000
  0
LINE
  8
21
 10
93.8285
 20
16.2694
 30
0.0000
 11
93.8285
 21
16.0860
 31
0.0000
  0
ARC
  8
21
 10
93.5350
 20
16.0860
 30
0.0000
 40
0.2935
 50
269.9994
 51
360.0000
  0
ARC
  8
21
 10
92.3078
 20
17.6537
 30
0.0000
 40
0.1468
 50
269.9988
 51
360.0000
  0
ARC
  8
21
 10
92.3078
 20
17.8170
 30
0.0000
 40
0.3100
 50
224.7611
 51
269.9989
  0
ARC
  8
21
 10
92.2528
 20
18.0206
 30
0.0000
 40
0.1468
 50
90.0000
 51
180.0000
  0
ARC
  8
21
 10
92.2528
 20
17.8922
 30
0.0000
 40
0.2752
 50
53.1296
 51
89.9998
  0
ARC
  8
21
 10
92.2551
 20
18.0206
 30
0.0000
 40
0.1491
 50
179.9999
 51
239.4896
  0
ARC
  8
21
 10
92.3055
 20
17.6537
 30
0.0000
 40
0.1491
 50
0.0004
 51
59.4891
  0
LINE
  8
21
 10
92.3812
 20
17.7821
 30
0.0000
 11
92.1794
 21
17.8922
 31
0.0000
  0
ARC
  8
21
 10
92.9783
 20
17.6904
 30
0.0000
 40
0.1834
 50
0.0000
 51
180.0000
  0
ARC
  8
21
 10
92.9783
 20
17.6904
 30
0.0000
 40
0.1834
 50
180.0000
 51
0.0000
  0
ARC
  8
21
 10
92.9783
 20
18.0206
 30
0.0000
 40
0.1468
 50
0.0000
 51
180.0000
  0
ARC
  8
21
 10
92.9783
 20
18.0206
 30
0.0000
 40
0.1468
 50
180.0000
 51
0.0000
  0
ARC
  8
21
 10
78.8980
 20
4.0111
 30
0.0000
 40
0.1468
 50
359.9988
 51
90.0000
  0
ARC
  8
21
 10
78.7348
 20
4.0111
 30
0.0000
 40
0.3100
 50
314.7614
 51
359.9987
  0
ARC
  8
21
 10
78.5312
 20
3.9561
 30
0.0000
 40
0.1468
 50
180.0000
 51
270.0000
  0
ARC
  8
21
 10
78.6596
 20
3.9561
 30
0.0000
 40
0.2752
 50
143.1295
 51
180.0000
  0
ARC
  8
21
 10
78.5312
 20
3.9583
 30
0.0000
 40
0.1491
 50
269.9999
 51
329.4896
  0
ARC
  8
21
 10
78.8980
 20
4.0088
 30
0.0000
 40
0.1491
 50
90.0004
 51
149.4891
  0
LINE
  8
21
 10
78.7696
 20
4.0845
 30
0.0000
 11
78.6596
 21
3.8827
 31
0.0000
  0
LINE
  8
21
 10
78.8614
 20
4.4981
 30
0.0000
 11
78.5678
 21
4.4981
 31
0.0000
  0
ARC
  8
21
 10
78.5678
 20
4.6815
 30
0.0000
 40
0.1834
 50
90.0000
 51
270.0000
  0
LINE
  8
21
 10
78.5678
 20
4.8650
 30
0.0000
 11
78.8614
 21
4.8650
 31
0.0000
  0
ARC
  8
21
 10
78.8614
 20
4.6815
 30
0.0000
 40
0.1834
 50
270.0000
 51
90.0000
  0
LINE
  8
21
 10
78.3844
 20
5.2564
 30
0.0000
 11
79.0448
 21
5.2564
 31
0.0000
  0
LINE
  8
21
 10
79.0448
 20
5.2564
 30
0.0000
 11
79.0448
 21
5.5499
 31
0.0000
  0
LINE
  8
21
 10
78.5312
 20
5.8636
 30
0.0000
 11
78.3844
 21
6.0470
 31
0.0000
  0
LINE
  8
21
 10
78.3844
 20
6.0470
 30
0.0000
 11
79.0448
 21
6.0470
 31
0.0000
  0
LINE
  8
21
 10
79.0448
 20
5.8636
 30
0.0000
 11
79.0448
 21
6.2305
 31
0.0000
  0
LINE
  8
21
 10
78.7880
 20
6.6072
 30
0.0000
 11
78.7880
 21
7.0474
 31
0.0000
  0
LINE
  8
21
 10
79.0081
 20
6.8273
 30
0.0000
 11
78.5678
 21
6.8273
 31
0.0000
  0
ARC
  8
21
 10
83.6923
 20
4.0428
 30
0.0000
 40
0.1468
 50
359.9988
 51
90.0000
  0
ARC
  8
21
 10
83.5290
 20
4.0428
 30
0.0000
 40
0.3100
 50
314.7614
 51
359.9987
  0
ARC
  8
21
 10
83.3254
 20
3.9878
 30
0.0000
 40
0.1468
 50
180.0000
 51
270.0000
  0
ARC
  8
21
 10
83.4538
 20
3.9878
 30
0.0000
 40
0.2752
 50
143.1295
 51
180.0000
  0
ARC
  8
21
 10
83.3254
 20
3.9901
 30
0.0000
 40
0.1491
 50
269.9999
 51
329.4896
  0
ARC
  8
21
 10
83.6923
 20
4.0405
 30
0.0000
 40
0.1491
 50
90.0004
 51
149.4891
  0
LINE
  8
21
 10
83.5639
 20
4.1162
 30
0.0000
 11
83.4538
 21
3.9144
 31
0.0000
  0
LINE
  8
21
 10
83.6556
 20
4.5298
 30
0.0000
 11
83.3621
 21
4.5298
 31
0.0000
  0
ARC
  8
21
 10
83.3621
 20
4.7133
 30
0.0000
 40
0.1834
 50
90.0000
 51
270.0000
  0
LINE
  8
21
 10
83.3621
 20
4.8967
 30
0.0000
 11
83.6556
 21
4.8967
 31
0.0000
  0
ARC
  8
21
 10
83.6556
 20
4.7133
 30
0.0000
 40
0.1834
 50
270.0000
 51
90.0000
  0
LINE
  8
21
 10
83.1787
 20
5.2882
 30
0.0000
 11
83.8391
 21
5.2882
 31
0.0000
  0
LINE
  8
21
 10
83.8391
 20
5.2882
 30
0.0000
 11
83.8391
 21
5.5817
 31
0.0000
  0
LINE
  8
21
 10
83.3254
 20
5.8953
 30
0.0000
 11
83.1787
 21
6.0788
 31
0.0000
  0
LINE
  8
21
 10
83.1787
 20
6.0788
 30
0.0000
 11
83.8391
 21
6.0788
 31
0.0000
  0
LINE
  8
21
 10
83.8391
 20
5.8953
 30
0.0000
 11
83.8391
 21
6.2622
 31
0.0000
  0
LINE
  8
21
 10
83.5822
 20
6.6389
 30
0.0000
 11
83.5822
 21
7.0792
 31
0.0000
  0
ARC
  8
21
 10
83.8828
 20
21.8863
 30
0.0000
 40
0.1468
 50
359.9988
 51
90.0000
  0
ARC
  8
21
 10
83.7195
 20
21.8863
 30
0.0000
 40
0.3100
 50
314.7614
 51
359.9987
  0
ARC
  8
21
 10
83.5159
 20
21.8313
 30
0.0000
 40
0.1468
 50
180.0000
 51
270.0000
  0
ARC
  8
21
 10
83.6443
 20
21.8313
 30
0.0000
 40
0.2752
 50
143.1295
 51
180.0000
  0
ARC
  8
21
 10
83.5159
 20
21.8336
 30
0.0000
 40
0.1491
 50
269.9999
 51
329.4896
  0
ARC
  8
21
 10
83.8828
 20
21.8840
 30
0.0000
 40
0.1491
 50
90.0004
 51
149.4891
  0
LINE
  8
21
 10
83.7544
 20
21.9597
 30
0.0000
 11
83.6443
 21
21.7579
 31
0.0000
  0
LINE
  8
21
 10
83.8461
 20
22.3733
 30
0.0000
 11
83.5526
 21
22.3733
 31
0.0000
  0
ARC
  8
21
 10
83.5526
 20
22.5568
 30
0.0000
 40
0.1834
 50
90.0000
 51
270.0000
  0
LINE
  8
21
 10
83.5526
 20
22.7402
 30
0.0000
 11
83.8461
 21
22.7402
 31
0.0000
  0
ARC
  8
21
 10
83.8461
 20
22.5568
 30
0.0000
 40
0.1834
 50
270.0000
 51
90.0000
  0
LINE
  8
21
 10
83.3692
 20
23.1317
 30
0.0000
 11
84.0296
 21
23.1317
 31
0.0000
  0
LINE
  8
21
 10
84.0296
 20
23.1317
 30
0.0000
 11
84.0296
 21
23.4252
 31
0.0000
  0
ARC
  8
21
 10
83.5343
 20
23.9406
 30
0.0000
 40
0.1651
 50
90.0000
 51
180.0000
  0
ARC
  8
21
 10
83.5813
 20
23.9406
 30
0.0000
 40
0.2121
 50
180.0001
 51
252.0553
  0
ARC
  8
21
 10
83.5343
 20
23.9284
 30
0.0000
 40
0.1773
 50
43.6026
 51
89.9999
  0
LINE
  8
21
 10
83.6627
 20
24.0507
 30
0.0000
 11
84.0296
 21
23.7388
 31
0.0000
  0
LINE
  8
21
 10
84.0296
 20
23.7388
 30
0.0000
 11
84.0296
 21
24.1057
 31
0.0000
  0
LINE
  8
21
 10
83.7727
 20
24.4824
 30
0.0000
 11
83.7727
 21
24.9227
 31
0.0000
  0
LINE
  8
21
 10
83.9929
 20
24.7026
 30
0.0000
 11
83.5526
 21
24.7026
 31
0.0000
  0
ARC
  8
21
 10
91.9155
 20
20.8386
 30
0.0000
 40
0.1468
 50
359.9988
 51
90.0000
  0
ARC
  8
21
 10
91.7523
 20
20.8386
 30
0.0000
 40
0.3100
 50
314.7614
 51
359.9987
  0
ARC
  8
21
 10
91.5487
 20
20.7836
 30
0.0000
 40
0.1468
 50
180.0000
 51
270.0000
  0
ARC
  8
21
 10
91.6771
 20
20.7836
 30
0.0000
 40
0.2752
 50
143.1295
 51
180.0000
  0
ARC
  8
21
 10
91.5487
 20
20.7858
 30
0.0000
 40
0.1491
 50
269.9999
 51
329.4896
  0
ARC
  8
21
 10
91.9155
 20
20.8363
 30
0.0000
 40
0.1491
 50
90.0004
 51
149.4891
  0
LINE
  8
21
 10
91.7871
 20
20.9120
 30
0.0000
 11
91.6771
 21
20.7102
 31
0.0000
  0
LINE
  8
21
 10
91.5487
 20
21.3256
 30
0.0000
 11
91.4019
 21
21.5090
 31
0.0000
  0
LINE
  8
21
 10
91.4019
 20
21.5090
 30
0.0000
 11
92.0623
 21
21.5090
 31
0.0000
  0
LINE
  8
21
 10
92.0623
 20
21.3256
 30
0.0000
 11
92.0623
 21
21.6925
 31
0.0000
  0
LINE
  8
21
 10
91.8055
 20
22.0692
 30
0.0000
 11
91.8055
 21
22.5094
 31
0.0000
  0
LINE
  8
21
 10
92.0256
 20
22.2893
 30
0.0000
 11
91.5853
 21
22.2893
 31
0.0000
  0
ARC
  8
21
 10
96.7733
 20
20.3941
 30
0.0000
 40
0.1468
 50
359.9988
 51
90.0000
  0
ARC
  8
21
 10
96.6100
 20
20.3941
 30
0.0000
 40
0.3100
 50
314.7614
 51
359.9987
  0
ARC
  8
21
 10
96.4064
 20
20.3391
 30
0.0000
 40
0.1468
 50
180.0000
 51
270.0000
  0
ARC
  8
21
 10
96.5348
 20
20.3391
 30
0.0000
 40
0.2752
 50
143.1295
 51
180.0000
  0
ARC
  8
21
 10
96.4064
 20
20.3413
 30
0.0000
 40
0.1491
 50
269.9999
 51
329.4896
  0
ARC
  8
21
 10
96.7733
 20
20.3918
 30
0.0000
 40
0.1491
 50
90.0004
 51
149.4891
  0
LINE
  8
21
 10
96.6449
 20
20.4675
 30
0.0000
 11
96.5348
 21
20.2657
 31
0.0000
  0
LINE
  8
21
 10
96.4064
 20
20.8811
 30
0.0000
 11
96.2597
 21
21.0645
 31
0.0000
  0
LINE
  8
21
 10
96.2597
 20
21.0645
 30
0.0000
 11
96.9201
 21
21.0645
 31
0.0000
  0
LINE
  8
21
 10
96.9201
 20
20.8811
 30
0.0000
 11
96.9201
 21
21.2480
 31
0.0000
  0
LINE
  8
21
 10
96.6632
 20
21.6247
 30
0.0000
 11
96.6632
 21
22.0649
 31
0.0000
  0
ARC
  8
21
 10
69.5953
 20
25.9821
 30
0.0000
 40
0.1468
 50
359.9988
 51
90.0000
  0
ARC
  8
21
 10
69.4320
 20
25.9821
 30
0.0000
 40
0.3100
 50
314.7614
 51
359.9987
  0
ARC
  8
21
 10
69.2284
 20
25.9271
 30
0.0000
 40
0.1468
 50
180.0000
 51
270.0000
  0
ARC
  8
21
 10
69.3568
 20
25.9271
 30
0.0000
 40
0.2752
 50
143.1295
 51
180.0000
  0
ARC
  8
21
 10
69.2284
 20
25.9293
 30
0.0000
 40
0.1491
 50
269.9999
 51
329.4896
  0
ARC
  8
21
 10
69.5953
 20
25.9798
 30
0.0000
 40
0.1491
 50
90.0004
 51
149.4891
  0
LINE
  8
21
 10
69.4669
 20
26.0555
 30
0.0000
 11
69.3568
 21
25.8537
 31
0.0000
  0
ARC
  8
21
 10
69.2468
 20
26.6709
 30
0.0000
 40
0.1651
 50
90.0000
 51
180.0000
  0
ARC
  8
21
 10
69.2938
 20
26.6709
 30
0.0000
 40
0.2121
 50
180.0001
 51
252.0553
  0
ARC
  8
21
 10
69.2468
 20
26.6586
 30
0.0000
 40
0.1773
 50
43.6026
 51
89.9999
  0
LINE
  8
21
 10
69.3752
 20
26.7809
 30
0.0000
 11
69.7421
 21
26.4691
 31
0.0000
  0
LINE
  8
21
 10
69.7421
 20
26.4691
 30
0.0000
 11
69.7421
 21
26.8360
 31
0.0000
  0
LINE
  8
21
 10
69.4852
 20
27.2127
 30
0.0000
 11
69.4852
 21
27.6529
 31
0.0000
  0
LINE
  8
21
 10
69.7054
 20
27.4328
 30
0.0000
 11
69.2651
 21
27.4328
 31
0.0000
  0
ARC
  8
21
 10
73.4370
 20
26.0456
 30
0.0000
 40
0.1468
 50
359.9988
 51
90.0000
  0
ARC
  8
21
 10
73.2738
 20
26.0456
 30
0.0000
 40
0.3100
 50
314.7614
 51
359.9987
  0
ARC
  8
21
 10
73.0702
 20
25.9906
 30
0.0000
 40
0.1468
 50
180.0000
 51
270.0000
  0
ARC
  8
21
 10
73.1986
 20
25.9906
 30
0.0000
 40
0.2752
 50
143.1295
 51
180.0000
  0
ARC
  8
21
 10
73.0702
 20
25.9928
 30
0.0000
 40
0.1491
 50
269.9999
 51
329.4896
  0
ARC
  8
21
 10
73.4370
 20
26.0433
 30
0.0000
 40
0.1491
 50
90.0004
 51
149.4891
  0
LINE
  8
21
 10
73.3086
 20
26.1190
 30
0.0000
 11
73.1986
 21
25.9172
 31
0.0000
  0
ARC
  8
21
 10
73.0885
 20
26.7344
 30
0.0000
 40
0.1651
 50
90.0000
 51
180.0000
  0
ARC
  8
21
 10
73.1355
 20
26.7344
 30
0.0000
 40
0.2121
 50
180.0001
 51
252.0553
  0
ARC
  8
21
 10
73.0885
 20
26.7221
 30
0.0000
 40
0.1773
 50
43.6026
 51
89.9999
  0
LINE
  8
21
 10
73.2169
 20
26.8444
 30
0.0000
 11
73.5838
 21
26.5326
 31
0.0000
  0
LINE
  8
21
 10
73.5838
 20
26.5326
 30
0.0000
 11
73.5838
 21
26.8995
 31
0.0000
  0
LINE
  8
21
 10
73.3270
 20
27.2762
 30
0.0000
 11
73.3270
 21
27.7164
 31
0.0000
  0
LINE
  8
21
 10
13.9383
 20
23.0823
 30
0.0000
 11
13.9383
 21
23.7681
 31
0.0000
  0
LINE
  8
21
 10
13.9383
 20
23.7681
 30
0.0000
 11
14.2431
 21
23.7681
 31
0.0000
  0
LINE
  8
21
 10
13.9383
 20
23.4633
 30
0.0000
 11
14.2431
 21
23.4633
 31
0.0000
  0
LINE
  8
21
 10
14.6874
 20
23.0823
 30
0.0000
 11
14.6874
 21
23.7681
 31
0.0000
  0
LINE
  8
21
 10
14.4969
 20
23.7681
 30
0.0000
 11
14.8779
 21
23.7681
 31
0.0000
  0
LINE
  8
21
 10
15.2041
 20
23.0823
 30
0.0000
 11
15.2041
 21
23.7681
 31
0.0000
  0
LINE
  8
21
 10
15.2041
 20
23.7681
 30
0.0000
 11
15.3946
 21
23.7681
 31
0.0000
  0
ARC
  8
21
 10
15.3946
 20
23.5776
 30
0.0000
 40
0.1905
 50
0.0000
 51
90.0000
  0
LINE
  8
21
 10
15.5851
 20
23.5776
 30
0.0000
 11
15.5851
 21
23.2728
 31
0.0000
  0
ARC
  8
21
 10
15.3946
 20
23.2728
 30
0.0000
 40
0.1905
 50
270.0000
 51
0.0000
  0
LINE
  8
21
 10
15.3946
 20
23.0823
 30
0.0000
 11
15.2041
 21
23.0823
 31
0.0000
  0
LINE
  8
21
 10
16.0042
 20
23.7681
 30
0.0000
 11
16.0042
 21
23.0823
 31
0.0000
  0
LINE
  8
21
 10
15.9280
 20
23.0823
 30
0.0000
 11
16.0804
 21
23.0823
 31
0.0000
  0
LINE
  8
21
 10
15.9280
 20
23.7681
 30
0.0000
 11
16.0804
 21
23.7681
 31
0.0000
  0
LINE
  8
21
 10
19.3421
 20
22.4863
 30
0.0000
 11
18.6817
 21
22.4863
 31
0.0000
  0
LINE
  8
21
 10
18.6817
 20
22.4863
 30
0.0000
 11
18.6817
 21
22.7798
 31
0.0000
  0
LINE
  8
21
 10
18.9752
 20
22.4863
 30
0.0000
 11
18.9752
 21
22.7798
 31
0.0000
  0
LINE
  8
21
 10
19.0853
 20
23.1055
 30
0.0000
 11
19.0853
 21
23.5458
 31
0.0000
  0
LINE
  8
21
 10
19.3054
 20
23.3257
 30
0.0000
 11
18.8651
 21
23.3257
 31
0.0000
  0
LINE
  8
21
 10
21.5646
 20
22.6183
 30
0.0000
 11
20.9042
 21
22.6183
 31
0.0000
  0
LINE
  8
21
 10
20.9042
 20
22.6183
 30
0.0000
 11
20.9042
 21
22.9118
 31
0.0000
  0
LINE
  8
21
 10
21.1977
 20
22.6183
 30
0.0000
 11
21.1977
 21
22.9118
 31
0.0000
  0
LINE
  8
21
 10
21.5646
 20
23.2523
 30
0.0000
 11
20.9042
 21
23.2523
 31
0.0000
  0
LINE
  8
21
 10
20.9042
 20
23.2523
 30
0.0000
 11
20.9042
 21
23.5458
 31
0.0000
  0
LINE
  8
21
 10
21.1977
 20
23.2523
 30
0.0000
 11
21.1977
 21
23.5458
 31
0.0000
  0
LINE
  8
21
 10
24.9301
 20
22.7403
 30
0.0000
 11
24.2697
 21
22.7403
 31
0.0000
  0
LINE
  8
21
 10
24.2697
 20
22.7403
 30
0.0000
 11
24.2697
 21
23.0338
 31
0.0000
  0
LINE
  8
21
 10
24.5632
 20
22.7403
 30
0.0000
 11
24.5632
 21
23.0338
 31
0.0000
  0
LINE
  8
21
 10
24.6733
 20
23.3595
 30
0.0000
 11
24.6733
 21
23.7998
 31
0.0000
  0
LINE
  8
21
 10
23.1521
 20
22.6840
 30
0.0000
 11
22.4917
 21
22.6840
 31
0.0000
  0
LINE
  8
21
 10
22.4917
 20
22.6840
 30
0.0000
 11
22.4917
 21
22.9775
 31
0.0000
  0
LINE
  8
21
 10
22.7852
 20
22.6840
 30
0.0000
 11
22.7852
 21
22.9775
 31
0.0000
  0
LINE
  8
21
 10
23.1521
 20
23.4259
 30
0.0000
 11
22.4917
 21
23.4259
 31
0.0000
  0
LINE
  8
21
 10
22.4917
 20
23.2424
 30
0.0000
 11
22.4917
 21
23.6093
 31
0.0000
  0
LINE
  8
21
 10
10.2489
 20
25.1206
 30
0.0000
 11
9.6139
 21
25.1206
 31
0.0000
  0
LINE
  8
21
 10
9.6139
 20
25.1206
 30
0.0000
 11
9.6139
 21
25.2970
 31
0.0000
  0
ARC
  8
21
 10
9.7903
 20
25.2970
 30
0.0000
 40
0.1764
 50
89.9990
 51
180.0000
  0
LINE
  8
21
 10
9.7903
 20
25.4734
 30
0.0000
 11
10.0725
 21
25.4734
 31
0.0000
  0
ARC
  8
21
 10
10.0725
 20
25.2970
 30
0.0000
 40
0.1764
 50
0.0000
 51
90.0000
  0
LINE
  8
21
 10
10.2489
 20
25.2970
 30
0.0000
 11
10.2489
 21
25.1206
 31
0.0000
  0
LINE
  8
21
 10
10.2489
 20
25.9157
 30
0.0000
 11
9.6139
 21
25.9157
 31
0.0000
  0
LINE
  8
21
 10
9.6139
 20
25.7393
 30
0.0000
 11
9.6139
 21
26.0921
 31
0.0000
  0
LINE
  8
21
 10
10.2489
 20
26.3629
 30
0.0000
 11
9.6139
 21
26.3629
 31
0.0000
  0
LINE
  8
21
 10
9.6139
 20
26.3629
 30
0.0000
 11
9.6139
 21
26.5393
 31
0.0000
  0
ARC
  8
21
 10
9.7903
 20
26.5393
 30
0.0000
 40
0.1764
 50
0.0000
 51
180.0000
  0
LINE
  8
21
 10
9.9667
 20
26.5393
 30
0.0000
 11
9.9667
 21
26.3629
 31
0.0000
  0
LINE
  8
21
 10
10.2489
 20
26.7157
 30
0.0000
 11
9.9667
 21
26.5746
 31
0.0000
  0
LINE
  8
21
 10
11.2332
 20
25.2335
 30
0.0000
 11
10.5982
 21
25.2335
 31
0.0000
  0
LINE
  8
21
 10
10.5982
 20
25.0571
 30
0.0000
 11
10.5982
 21
25.4099
 31
0.0000
  0
LINE
  8
21
 10
11.2332
 20
25.6192
 30
0.0000
 11
10.5982
 21
26.0426
 31
0.0000
  0
LINE
  8
21
 10
10.5982
 20
25.6192
 30
0.0000
 11
11.2332
 21
26.0426
 31
0.0000
  0
LINE
  8
21
 10
11.2332
 20
26.3159
 30
0.0000
 11
10.5982
 21
26.3159
 31
0.0000
  0
LINE
  8
21
 10
10.5982
 20
26.3159
 30
0.0000
 11
10.5982
 21
26.4923
 31
0.0000
  0
ARC
  8
21
 10
10.7745
 20
26.4923
 30
0.0000
 40
0.1764
 50
89.9990
 51
180.0000
  0
LINE
  8
21
 10
10.7745
 20
26.6687
 30
0.0000
 11
11.0568
 21
26.6687
 31
0.0000
  0
ARC
  8
21
 10
11.0568
 20
26.4923
 30
0.0000
 40
0.1764
 50
0.0000
 51
90.0000
  0
LINE
  8
21
 10
11.2332
 20
26.4923
 30
0.0000
 11
11.2332
 21
26.3159
 31
0.0000
  0
LINE
  8
21
 10
12.1222
 20
25.0253
 30
0.0000
 11
11.4871
 21
25.0253
 31
0.0000
  0
LINE
  8
21
 10
11.4871
 20
25.0253
 30
0.0000
 11
11.4871
 21
25.2017
 31
0.0000
  0
ARC
  8
21
 10
11.6635
 20
25.2017
 30
0.0000
 40
0.1764
 50
0.0000
 51
180.0000
  0
LINE
  8
21
 10
11.8399
 20
25.2017
 30
0.0000
 11
11.8399
 21
25.0253
 31
0.0000
  0
LINE
  8
21
 10
12.1222
 20
25.3781
 30
0.0000
 11
11.8399
 21
25.2370
 31
0.0000
  0
LINE
  8
21
 10
12.1222
 20
25.6253
 30
0.0000
 11
11.4871
 21
26.0487
 31
0.0000
  0
LINE
  8
21
 10
11.4871
 20
25.6253
 30
0.0000
 11
12.1222
 21
26.0487
 31
0.0000
  0
LINE
  8
21
 10
12.1222
 20
26.3220
 30
0.0000
 11
11.4871
 21
26.3220
 31
0.0000
  0
LINE
  8
21
 10
11.4871
 20
26.3220
 30
0.0000
 11
11.4871
 21
26.4984
 31
0.0000
  0
ARC
  8
21
 10
11.6635
 20
26.4984
 30
0.0000
 40
0.1764
 50
89.9990
 51
180.0000
  0
LINE
  8
21
 10
11.6635
 20
26.6748
 30
0.0000
 11
11.9458
 21
26.6748
 31
0.0000
  0
ARC
  8
21
 10
11.9458
 20
26.4984
 30
0.0000
 40
0.1764
 50
0.0000
 51
90.0000
  0
LINE
  8
21
 10
12.1222
 20
26.4984
 30
0.0000
 11
12.1222
 21
26.3220
 31
0.0000
  0
LINE
  8
21
 10
12.5667
 20
25.0889
 30
0.0000
 11
13.2017
 21
25.3005
 31
0.0000
  0
LINE
  8
21
 10
13.2017
 20
25.3005
 30
0.0000
 11
12.5667
 21
25.5122
 31
0.0000
  0
LINE
  8
21
 10
13.2017
 20
26.0443
 30
0.0000
 11
13.2017
 21
25.9031
 31
0.0000
  0
ARC
  8
21
 10
13.0605
 20
25.9031
 30
0.0000
 40
0.1411
 50
270.0013
 51
360.0000
  0
LINE
  8
21
 10
13.0605
 20
25.7620
 30
0.0000
 11
12.7078
 21
25.7620
 31
0.0000
  0
ARC
  8
21
 10
12.7078
 20
25.9031
 30
0.0000
 40
0.1411
 50
180.0013
 51
270.0000
  0
LINE
  8
21
 10
12.5667
 20
25.9031
 30
0.0000
 11
12.5667
 21
26.0443
 31
0.0000
  0
LINE
  8
21
 10
13.2017
 20
26.5776
 30
0.0000
 11
13.2017
 21
26.4365
 31
0.0000
  0
ARC
  8
21
 10
13.0605
 20
26.4365
 30
0.0000
 40
0.1411
 50
270.0013
 51
360.0000
  0
LINE
  8
21
 10
13.0605
 20
26.2954
 30
0.0000
 11
12.7078
 21
26.2954
 31
0.0000
  0
ARC
  8
21
 10
12.7078
 20
26.4365
 30
0.0000
 40
0.1411
 50
180.0013
 51
270.0000
  0
LINE
  8
21
 10
12.5667
 20
26.4365
 30
0.0000
 11
12.5667
 21
26.5776
 31
0.0000
  0
LINE
  8
21
 10
14.0871
 20
25.3358
 30
0.0000
 11
14.0871
 21
25.4416
 31
0.0000
  0
LINE
  8
21
 10
14.0871
 20
25.4416
 30
0.0000
 11
14.4399
 21
25.4416
 31
0.0000
  0
LINE
  8
21
 10
14.4399
 20
25.4416
 30
0.0000
 11
14.4399
 21
25.2300
 31
0.0000
  0
ARC
  8
21
 10
14.2988
 20
25.2300
 30
0.0000
 40
0.1411
 50
270.0013
 51
360.0000
  0
LINE
  8
21
 10
14.2988
 20
25.0889
 30
0.0000
 11
13.9460
 21
25.0889
 31
0.0000
  0
ARC
  8
21
 10
13.9460
 20
25.2300
 30
0.0000
 40
0.1411
 50
180.0013
 51
270.0000
  0
LINE
  8
21
 10
13.8049
 20
25.2300
 30
0.0000
 11
13.8049
 21
25.4416
 31
0.0000
  0
LINE
  8
21
 10
14.4399
 20
25.7716
 30
0.0000
 11
13.8049
 21
25.7716
 31
0.0000
  0
LINE
  8
21
 10
13.8049
 20
25.7716
 30
0.0000
 11
14.4399
 21
26.1244
 31
0.0000
  0
LINE
  8
21
 10
14.4399
 20
26.1244
 30
0.0000
 11
13.8049
 21
26.1244
 31
0.0000
  0
LINE
  8
21
 10
14.4399
 20
26.4544
 30
0.0000
 11
13.8049
 21
26.4544
 31
0.0000
  0
LINE
  8
21
 10
13.8049
 20
26.4544
 30
0.0000
 11
13.8049
 21
26.6307
 31
0.0000
  0
ARC
  8
21
 10
13.9813
 20
26.6307
 30
0.0000
 40
0.1764
 50
89.9990
 51
180.0000
  0
LINE
  8
21
 10
13.9813
 20
26.8071
 30
0.0000
 11
14.2635
 21
26.8071
 31
0.0000
  0
ARC
  8
21
 10
14.2635
 20
26.6307
 30
0.0000
 40
0.1764
 50
0.0000
 51
90.0000
  0
LINE
  8
21
 10
14.4399
 20
26.6307
 30
0.0000
 11
14.4399
 21
26.4544
 31
0.0000
  0
LINE
  8
21
 10
12.6697
 20
7.0640
 30
0.0000
 11
12.6697
 21
7.1741
 31
0.0000
  0
LINE
  8
21
 10
12.6697
 20
7.1741
 30
0.0000
 11
13.0366
 21
7.1741
 31
0.0000
  0
LINE
  8
21
 10
13.0366
 20
7.1741
 30
0.0000
 11
13.0366
 21
6.9540
 31
0.0000
  0
ARC
  8
21
 10
12.8898
 20
6.9540
 30
0.0000
 40
0.1468
 50
270.0012
 51
0.0000
  0
LINE
  8
21
 10
12.8898
 20
6.8072
 30
0.0000
 11
12.5229
 21
6.8072
 31
0.0000
  0
ARC
  8
21
 10
12.5229
 20
6.9540
 30
0.0000
 40
0.1468
 50
180.0012
 51
270.0000
  0
LINE
  8
21
 10
12.3762
 20
6.9540
 30
0.0000
 11
12.3762
 21
7.1741
 31
0.0000
  0
LINE
  8
21
 10
13.0366
 20
7.5875
 30
0.0000
 11
12.3762
 21
7.5875
 31
0.0000
  0
LINE
  8
21
 10
12.3762
 20
7.5875
 30
0.0000
 11
13.0366
 21
7.9544
 31
0.0000
  0
LINE
  8
21
 10
13.0366
 20
7.9544
 30
0.0000
 11
12.3762
 21
7.9544
 31
0.0000
  0
LINE
  8
21
 10
13.0366
 20
8.3678
 30
0.0000
 11
12.3762
 21
8.3678
 31
0.0000
  0
LINE
  8
21
 10
12.3762
 20
8.3678
 30
0.0000
 11
12.3762
 21
8.5512
 31
0.0000
  0
ARC
  8
21
 10
12.5596
 20
8.5512
 30
0.0000
 40
0.1834
 50
89.9990
 51
180.0000
  0
LINE
  8
21
 10
12.5596
 20
8.7347
 30
0.0000
 11
12.8531
 21
8.7347
 31
0.0000
  0
ARC
  8
21
 10
12.8531
 20
8.5512
 30
0.0000
 40
0.1834
 50
0.0000
 51
90.0000
  0
LINE
  8
21
 10
13.0366
 20
8.5512
 30
0.0000
 11
13.0366
 21
8.3678
 31
0.0000
  0
LINE
  8
21
 10
12.7332
 20
11.9507
 30
0.0000
 11
12.7332
 21
12.1708
 31
0.0000
  0
ARC
  8
21
 10
12.8799
 20
12.1708
 30
0.0000
 40
0.1468
 50
90.0000
 51
180.0000
  0
LINE
  8
21
 10
12.8799
 20
12.3176
 30
0.0000
 11
12.9166
 21
12.3176
 31
0.0000
  0
ARC
  8
21
 10
12.9166
 20
12.1341
 30
0.0000
 40
0.1834
 50
270.0000
 51
90.0000
  0
LINE
  8
21
 10
12.9166
 20
11.9507
 30
0.0000
 11
12.7332
 21
11.9507
 31
0.0000
  0
ARC
  8
21
 10
12.7332
 20
12.2442
 30
0.0000
 40
0.2935
 50
180.0006
 51
270.0000
  0
LINE
  8
21
 10
12.4397
 20
12.6455
 30
0.0000
 11
13.1001
 21
12.8657
 31
0.0000
  0
LINE
  8
21
 10
13.1001
 20
12.8657
 30
0.0000
 11
12.4397
 21
13.0858
 31
0.0000
  0
ARC
  8
21
 10
12.5412
 20
9.3902
 30
0.0000
 40
0.1651
 50
90.0000
 51
180.0000
  0
ARC
  8
21
 10
12.5883
 20
9.3902
 30
0.0000
 40
0.2121
 50
180.0001
 51
252.0553
  0
ARC
  8
21
 10
12.5412
 20
9.3780
 30
0.0000
 40
0.1773
 50
43.6026
 51
89.9999
  0
LINE
  8
21
 10
12.6697
 20
9.5003
 30
0.0000
 11
13.0366
 21
9.1884
 31
0.0000
  0
LINE
  8
21
 10
13.0366
 20
9.1884
 30
0.0000
 11
13.0366
 21
9.5553
 31
0.0000
  0
LINE
  8
21
 10
13.0366
 20
9.8656
 30
0.0000
 11
12.9999
 21
9.8656
 31
0.0000
  0
LINE
  8
21
 10
12.9999
 20
9.8656
 30
0.0000
 11
12.9999
 21
9.9023
 31
0.0000
  0
LINE
  8
21
 10
12.9999
 20
9.9023
 30
0.0000
 11
13.0366
 21
9.9023
 31
0.0000
  0
LINE
  8
21
 10
13.0366
 20
9.9023
 30
0.0000
 11
13.0366
 21
9.8656
 31
0.0000
  0
LINE
  8
21
 10
13.0366
 20
10.2126
 30
0.0000
 11
13.0366
 21
10.4327
 31
0.0000
  0
ARC
  8
21
 10
12.8898
 20
10.4327
 30
0.0000
 40
0.1468
 50
360.0000
 51
89.9976
  0
LINE
  8
21
 10
12.8898
 20
10.5795
 30
0.0000
 11
12.8164
 21
10.5795
 31
0.0000
  0
ARC
  8
21
 10
12.8164
 20
10.4327
 30
0.0000
 40
0.1468
 50
90.0000
 51
180.0000
  0
LINE
  8
21
 10
12.6697
 20
10.4327
 30
0.0000
 11
12.6697
 21
10.2126
 31
0.0000
  0
LINE
  8
21
 10
12.6697
 20
10.2126
 30
0.0000
 11
12.3762
 21
10.2126
 31
0.0000
  0
LINE
  8
21
 10
12.3762
 20
10.2126
 30
0.0000
 11
12.3762
 21
10.5795
 31
0.0000
  0
LINE
  8
21
 10
12.3762
 20
10.9074
 30
0.0000
 11
13.0366
 21
11.1275
 31
0.0000
  0
LINE
  8
21
 10
13.0366
 20
11.1275
 30
0.0000
 11
12.3762
 21
11.3477
 31
0.0000
  0
ARC
  8
21
 10
79.5013
 20
24.3628
 30
0.0000
 40
0.1468
 50
359.9988
 51
90.0000
  0
ARC
  8
21
 10
79.3380
 20
24.3628
 30
0.0000
 40
0.3100
 50
314.7614
 51
359.9987
  0
ARC
  8
21
 10
79.1344
 20
24.3078
 30
0.0000
 40
0.1468
 50
180.0000
 51
270.0000
  0
ARC
  8
21
 10
79.2628
 20
24.3078
 30
0.0000
 40
0.2752
 50
143.1295
 51
180.0000
  0
ARC
  8
21
 10
79.1344
 20
24.3101
 30
0.0000
 40
0.1491
 50
269.9999
 51
329.4896
  0
ARC
  8
21
 10
79.5013
 20
24.3605
 30
0.0000
 40
0.1491
 50
90.0004
 51
149.4891
  0
LINE
  8
21
 10
79.3729
 20
24.4362
 30
0.0000
 11
79.2628
 21
24.2344
 31
0.0000
  0
LINE
  8
21
 10
79.4646
 20
24.8498
 30
0.0000
 11
79.1711
 21
24.8498
 31
0.0000
  0
ARC
  8
21
 10
79.1711
 20
25.0333
 30
0.0000
 40
0.1834
 50
90.0000
 51
270.0000
  0
LINE
  8
21
 10
79.1711
 20
25.2167
 30
0.0000
 11
79.4646
 21
25.2167
 31
0.0000
  0
ARC
  8
21
 10
79.4646
 20
25.0333
 30
0.0000
 40
0.1834
 50
270.0000
 51
90.0000
  0
LINE
  8
21
 10
78.9877
 20
25.6082
 30
0.0000
 11
79.6480
 21
25.6082
 31
0.0000
  0
LINE
  8
21
 10
79.6480
 20
25.6082
 30
0.0000
 11
79.6480
 21
25.9017
 31
0.0000
  0
ARC
  8
21
 10
79.1527
 20
26.4171
 30
0.0000
 40
0.1651
 50
90.0000
 51
180.0000
  0
ARC
  8
21
 10
79.1998
 20
26.4171
 30
0.0000
 40
0.2121
 50
180.0001
 51
252.0553
  0
ARC
  8
21
 10
79.1527
 20
26.4049
 30
0.0000
 40
0.1773
 50
43.6026
 51
89.9999
  0
LINE
  8
21
 10
79.2812
 20
26.5272
 30
0.0000
 11
79.6480
 21
26.2153
 31
0.0000
  0
LINE
  8
21
 10
79.6480
 20
26.2153
 30
0.0000
 11
79.6480
 21
26.5822
 31
0.0000
  0
LINE
  8
21
 10
79.3912
 20
26.9589
 30
0.0000
 11
79.3912
 21
27.3992
 31
0.0000
  0
LINE
  8
21
 10
36.0172
 20
27.1166
 30
0.0000
 11
36.2924
 21
26.0160
 31
0.0000
  0
LINE
  8
21
 10
36.2924
 20
26.0160
 30
0.0000
 11
36.5675
 21
26.7497
 31
0.0000
  0
LINE
  8
21
 10
36.5675
 20
26.7497
 30
0.0000
 11
36.8427
 21
26.0160
 31
0.0000
  0
LINE
  8
21
 10
36.8427
 20
26.0160
 30
0.0000
 11
37.1179
 21
27.1166
 31
0.0000
  0
LINE
  8
21
 10
37.8039
 20
27.1166
 30
0.0000
 11
38.0791
 21
26.0160
 31
0.0000
  0
LINE
  8
21
 10
38.0791
 20
26.0160
 30
0.0000
 11
38.3542
 21
26.7497
 31
0.0000
  0
LINE
  8
21
 10
38.3542
 20
26.7497
 30
0.0000
 11
38.6294
 21
26.0160
 31
0.0000
  0
LINE
  8
21
 10
38.6294
 20
26.0160
 30
0.0000
 11
38.9046
 21
27.1166
 31
0.0000
  0
LINE
  8
21
 10
39.5906
 20
27.1166
 30
0.0000
 11
39.8658
 21
26.0160
 31
0.0000
  0
LINE
  8
21
 10
39.8658
 20
26.0160
 30
0.0000
 11
40.1410
 21
26.7497
 31
0.0000
  0
LINE
  8
21
 10
40.1410
 20
26.7497
 30
0.0000
 11
40.4161
 21
26.0160
 31
0.0000
  0
LINE
  8
21
 10
40.4161
 20
26.0160
 30
0.0000
 11
40.6913
 21
27.1166
 31
0.0000
  0
LINE
  8
21
 10
41.3235
 20
26.0160
 30
0.0000
 11
41.3235
 21
26.1077
 31
0.0000
  0
LINE
  8
21
 10
41.3235
 20
26.1077
 30
0.0000
 11
41.4152
 21
26.1077
 31
0.0000
  0
LINE
  8
21
 10
41.4152
 20
26.1077
 30
0.0000
 11
41.4152
 21
26.0160
 31
0.0000
  0
LINE
  8
21
 10
41.4152
 20
26.0160
 30
0.0000
 11
41.3235
 21
26.0160
 31
0.0000
  0
LINE
  8
21
 10
42.0633
 20
26.3828
 30
0.0000
 11
42.0633
 21
26.7497
 31
0.0000
  0
ARC
  8
21
 10
42.4302
 20
26.7497
 30
0.0000
 40
0.3669
 50
0.0000
 51
180.0000
  0
LINE
  8
21
 10
42.7971
 20
26.7497
 30
0.0000
 11
42.7971
 21
26.3828
 31
0.0000
  0
ARC
  8
21
 10
42.4302
 20
26.3828
 30
0.0000
 40
0.3669
 50
180.0000
 51
0.0000
  0
LINE
  8
21
 10
43.5814
 20
25.4656
 30
0.0000
 11
43.5814
 21
27.1166
 31
0.0000
  0
LINE
  8
21
 10
43.5814
 20
27.1166
 30
0.0000
 11
44.0400
 21
27.1166
 31
0.0000
  0
ARC
  8
21
 10
44.0400
 20
26.8415
 30
0.0000
 40
0.2752
 50
0.0000
 51
90.0000
  0
LINE
  8
21
 10
44.3152
 20
26.8415
 30
0.0000
 11
44.3152
 21
26.2911
 31
0.0000
  0
ARC
  8
21
 10
44.0400
 20
26.2911
 30
0.0000
 40
0.2752
 50
270.0007
 51
360.0000
  0
LINE
  8
21
 10
44.0400
 20
26.0160
 30
0.0000
 11
43.5814
 21
26.0160
 31
0.0000
  0
LINE
  8
21
 10
45.7563
 20
26.0160
 30
0.0000
 11
45.2977
 21
26.0160
 31
0.0000
  0
ARC
  8
21
 10
45.2977
 20
26.2911
 30
0.0000
 40
0.2752
 50
180.0000
 51
270.0000
  0
LINE
  8
21
 10
45.0226
 20
26.2911
 30
0.0000
 11
45.0226
 21
26.7497
 31
0.0000
  0
ARC
  8
21
 10
45.3894
 20
26.7497
 30
0.0000
 40
0.3669
 50
0.0000
 51
180.0000
  0
LINE
  8
21
 10
45.7563
 20
26.7497
 30
0.0000
 11
45.7563
 21
26.5663
 31
0.0000
  0
LINE
  8
21
 10
45.7563
 20
26.5663
 30
0.0000
 11
45.0226
 21
26.5663
 31
0.0000
  0
LINE
  8
21
 10
46.5301
 20
26.0160
 30
0.0000
 11
46.5301
 21
27.1166
 31
0.0000
  0
LINE
  8
21
 10
46.5301
 20
27.1166
 30
0.0000
 11
46.9887
 21
27.1166
 31
0.0000
  0
ARC
  8
21
 10
46.9887
 20
26.8415
 30
0.0000
 40
0.2752
 50
0.0000
 51
90.0000
  0
LINE
  8
21
 10
47.2639
 20
26.8415
 30
0.0000
 11
47.2639
 21
26.0160
 31
0.0000
  0
ARC
  8
21
 10
48.5521
 20
26.3828
 30
0.0000
 40
0.3669
 50
270.0000
 51
0.0000
  0
ARC
  8
21
 10
48.5521
 20
26.7910
 30
0.0000
 40
0.7751
 50
224.7605
 51
270.0000
  0
ARC
  8
21
 10
48.4145
 20
27.3001
 30
0.0000
 40
0.3669
 50
89.9995
 51
180.0000
  0
ARC
  8
21
 10
48.4145
 20
26.9790
 30
0.0000
 40
0.6879
 50
53.1304
 51
89.9995
  0
ARC
  8
21
 10
48.4202
 20
27.3001
 30
0.0000
 40
0.3726
 50
180.0001
 51
239.4894
  0
ARC
  8
21
 10
48.5463
 20
26.3828
 30
0.0000
 40
0.3726
 50
359.9999
 51
59.4904
  0
LINE
  8
21
 10
48.7355
 20
26.7039
 30
0.0000
 11
48.2310
 21
26.9790
 31
0.0000
  0
LINE
  8
21
 10
49.5292
 20
26.0160
 30
0.0000
 11
50.6299
 21
27.6669
 31
0.0000
  0
LINE
  8
21
 10
49.5292
 20
27.6669
 30
0.0000
 11
50.6299
 21
26.0160
 31
0.0000
  0
LINE
  8
21
 10
51.2960
 20
27.4835
 30
0.0000
 11
51.2960
 21
27.6669
 31
0.0000
  0
LINE
  8
21
 10
51.2960
 20
27.6669
 30
0.0000
 11
52.2132
 21
27.6669
 31
0.0000
  0
LINE
  8
21
 10
52.2132
 20
27.6669
 30
0.0000
 11
51.7546
 21
26.0160
 31
0.0000
  0
ARC
  8
21
 10
54.3316
 20
26.8415
 30
0.0000
 40
1.3606
 50
154.0111
 51
180.0000
  0
ARC
  8
21
 10
53.4296
 20
27.3276
 30
0.0000
 40
0.3394
 50
89.9999
 51
161.0750
  0
ARC
  8
21
 10
53.4296
 20
27.3276
 30
0.0000
 40
0.3394
 50
18.9240
 51
90.0000
  0
ARC
  8
21
 10
52.5277
 20
26.8415
 30
0.0000
 40
1.3605
 50
0.0000
 51
25.9894
  0
ARC
  8
21
 10
54.3316
 20
26.8415
 30
0.0000
 40
1.3606
 50
180.0001
 51
205.9887
  0
ARC
  8
21
 10
53.4296
 20
26.3553
 30
0.0000
 40
0.3394
 50
198.9254
 51
269.9999
  0
ARC
  8
21
 10
52.5277
 20
26.8415
 30
0.0000
 40
1.3606
 50
334.0108
 51
359.9999
  0
ARC
  8
21
 10
53.4296
 20
26.3553
 30
0.0000
 40
0.3394
 50
269.9999
 51
341.0754
  0
LINE
  8
21
 10
53.0628
 20
26.3828
 30
0.0000
 11
53.7965
 21
27.3001
 31
0.0000
  0
LINE
  8
21
 10
54.5563
 20
26.0160
 30
0.0000
 11
54.5563
 21
26.1077
 31
0.0000
  0
LINE
  8
21
 10
54.5563
 20
26.1077
 30
0.0000
 11
54.6480
 21
26.1077
 31
0.0000
  0
LINE
  8
21
 10
54.6480
 20
26.1077
 30
0.0000
 11
54.6480
 21
26.0160
 31
0.0000
  0
LINE
  8
21
 10
54.6480
 20
26.0160
 30
0.0000
 11
54.5563
 21
26.0160
 31
0.0000
  0
LINE
  8
21
 10
55.9408
 20
26.0160
 30
0.0000
 11
55.5739
 21
26.0160
 31
0.0000
  0
ARC
  8
21
 10
55.5739
 20
26.2911
 30
0.0000
 40
0.2752
 50
180.0000
 51
270.0000
  0
LINE
  8
21
 10
55.2988
 20
26.2911
 30
0.0000
 11
55.2988
 21
26.8415
 31
0.0000
  0
ARC
  8
21
 10
55.5739
 20
26.8415
 30
0.0000
 40
0.2752
 50
89.9993
 51
180.0000
  0
LINE
  8
21
 10
55.5739
 20
27.1166
 30
0.0000
 11
55.9408
 21
27.1166
 31
0.0000
  0
LINE
  8
21
 10
56.5804
 20
26.3828
 30
0.0000
 11
56.5804
 21
26.7497
 31
0.0000
  0
ARC
  8
21
 10
56.9472
 20
26.7497
 30
0.0000
 40
0.3669
 50
0.0000
 51
180.0000
  0
LINE
  8
21
 10
57.3141
 20
26.7497
 30
0.0000
 11
57.3141
 21
26.3828
 31
0.0000
  0
ARC
  8
21
 10
56.9472
 20
26.3828
 30
0.0000
 40
0.3669
 50
180.0000
 51
0.0000
  0
LINE
  8
21
 10
58.1278
 20
26.0160
 30
0.0000
 11
58.1278
 21
27.1166
 31
0.0000
  0
LINE
  8
21
 10
58.1278
 20
27.1166
 30
0.0000
 11
58.9533
 21
27.1166
 31
0.0000
  0
ARC
  8
21
 10
58.9533
 20
26.8415
 30
0.0000
 40
0.2752
 50
0.0000
 51
90.0000
  0
LINE
  8
21
 10
59.2285
 20
26.8415
 30
0.0000
 11
59.2285
 21
26.0160
 31
0.0000
  0
LINE
  8
21
 10
58.6781
 20
26.0160
 30
0.0000
 11
58.6781
 21
27.1166
 31
0.0000
  0
LINE
  8
21
 10
39.5351
 20
4.1212
 30
0.0000
 11
39.5351
 21
4.3582
 31
0.0000
  0
LINE
  8
21
 10
39.8314
 20
4.1212
 30
0.0000
 11
39.8314
 21
4.3582
 31
0.0000
  0
LINE
  8
21
 10
40.3428
 20
4.1212
 30
0.0000
 11
40.3428
 21
3.0544
 31
0.0000
  0
LINE
  8
21
 10
40.3428
 20
3.0544
 30
0.0000
 11
40.8169
 21
3.0544
 31
0.0000
  0
LINE
  8
21
 10
41.7491
 20
3.0544
 30
0.0000
 11
41.4528
 21
3.0544
 31
0.0000
  0
ARC
  8
21
 10
41.4528
 20
3.2322
 30
0.0000
 40
0.1778
 50
180.0000
 51
270.0000
  0
LINE
  8
21
 10
41.2750
 20
3.2322
 30
0.0000
 11
41.2750
 21
3.5285
 31
0.0000
  0
ARC
  8
21
 10
41.5121
 20
3.5285
 30
0.0000
 40
0.2371
 50
0.0000
 51
180.0000
  0
LINE
  8
21
 10
41.7491
 20
3.5285
 30
0.0000
 11
41.7491
 21
3.4100
 31
0.0000
  0
LINE
  8
21
 10
41.7491
 20
3.4100
 30
0.0000
 11
41.2750
 21
3.4100
 31
0.0000
  0
LINE
  8
21
 10
42.3037
 20
3.0544
 30
0.0000
 11
42.3037
 21
3.7656
 31
0.0000
  0
LINE
  8
21
 10
42.3037
 20
3.7656
 30
0.0000
 11
42.6000
 21
3.7656
 31
0.0000
  0
ARC
  8
21
 10
42.6000
 20
3.5878
 30
0.0000
 40
0.1778
 50
0.0000
 51
90.0000
  0
LINE
  8
21
 10
42.7778
 20
3.5878
 30
0.0000
 11
42.7778
 21
3.0544
 31
0.0000
  0
LINE
  8
21
 10
43.2266
 20
4.1212
 30
0.0000
 11
43.2266
 21
4.3582
 31
0.0000
  0
LINE
  8
21
 10
44.0224
 20
3.3507
 30
0.0000
 11
43.7261
 21
3.4692
 31
0.0000
  0
ARC
  8
21
 10
43.7832
 20
3.6119
 30
0.0000
 40
0.1537
 50
89.1809
 51
248.1984
  0
ARC
  8
21
 10
43.7757
 20
3.0926
 30
0.0000
 40
0.6731
 50
65.7606
 51
89.1809
  0
ARC
  8
21
 10
43.9654
 20
3.2080
 30
0.0000
 40
0.1537
 50
269.1820
 51
68.1984
  0
ARC
  8
21
 10
43.9775
 20
4.0593
 30
0.0000
 40
1.0051
 50
250.2087
 51
269.1820
  0
ARC
  8
21
 10
45.5464
 20
3.9466
 30
0.0000
 40
0.1745
 50
89.9997
 51
211.8910
  0
LINE
  8
21
 10
45.3983
 20
3.8544
 30
0.0000
 11
45.9020
 21
3.0544
 31
0.0000
  0
ARC
  8
21
 10
45.5464
 20
3.9466
 30
0.0000
 40
0.1745
 50
328.1090
 51
90.0003
  0
ARC
  8
21
 10
45.4872
 20
3.2322
 30
0.0000
 40
0.1778
 50
180.0000
 51
270.0000
  0
ARC
  8
21
 10
45.4575
 20
3.2322
 30
0.0000
 40
0.1482
 50
143.1325
 51
180.0000
  0
LINE
  8
21
 10
45.3390
 20
3.3211
 30
0.0000
 11
45.6946
 21
3.8544
 31
0.0000
  0
ARC
  8
21
 10
45.4872
 20
3.2025
 30
0.0000
 40
0.1482
 50
270.0000
 51
306.8675
  0
LINE
  8
21
 10
45.5761
 20
3.0840
 30
0.0000
 11
46.0206
 21
3.4100
 31
0.0000
  0
LINE
  8
21
 10
47.0704
 20
3.6470
 30
0.0000
 11
47.3668
 21
3.6470
 31
0.0000
  0
ARC
  8
21
 10
47.3668
 20
3.3507
 30
0.0000
 40
0.2963
 50
270.0000
 51
90.0000
  0
LINE
  8
21
 10
47.3668
 20
3.0544
 30
0.0000
 11
47.0704
 21
3.0544
 31
0.0000
  0
LINE
  8
21
 10
47.0704
 20
3.0544
 30
0.0000
 11
47.0704
 21
4.1212
 31
0.0000
  0
LINE
  8
21
 10
47.0704
 20
4.1212
 30
0.0000
 11
47.3668
 21
4.1212
 31
0.0000
  0
ARC
  8
21
 10
47.3668
 20
3.8841
 30
0.0000
 40
0.2371
 50
270.0000
 51
90.0000
  0
LINE
  8
21
 10
48.6071
 20
3.0544
 30
0.0000
 11
48.3108
 21
3.0544
 31
0.0000
  0
ARC
  8
21
 10
48.3108
 20
3.2322
 30
0.0000
 40
0.1778
 50
180.0000
 51
270.0000
  0
LINE
  8
21
 10
48.1330
 20
3.2322
 30
0.0000
 11
48.1330
 21
3.5285
 31
0.0000
  0
ARC
  8
21
 10
48.3701
 20
3.5285
 30
0.0000
 40
0.2371
 50
0.0000
 51
180.0000
  0
LINE
  8
21
 10
48.6071
 20
3.5285
 30
0.0000
 11
48.6071
 21
3.4100
 31
0.0000
  0
LINE
  8
21
 10
48.6071
 20
3.4100
 30
0.0000
 11
48.1330
 21
3.4100
 31
0.0000
  0
LINE
  8
21
 10
49.1270
 20
4.1212
 30
0.0000
 11
49.1270
 21
3.2322
 31
0.0000
  0
ARC
  8
21
 10
49.3048
 20
3.2322
 30
0.0000
 40
0.1778
 50
180.0000
 51
270.0000
  0
LINE
  8
21
 10
49.7366
 20
4.1212
 30
0.0000
 11
49.7366
 21
3.2322
 31
0.0000
  0
ARC
  8
21
 10
49.9144
 20
3.2322
 30
0.0000
 40
0.1778
 50
180.0000
 51
270.0000
  0
LINE
  8
21
 10
50.3428
 20
3.2914
 30
0.0000
 11
50.3428
 21
3.5285
 31
0.0000
  0
ARC
  8
21
 10
50.5799
 20
3.5285
 30
0.0000
 40
0.2371
 50
0.0000
 51
180.0000
  0
LINE
  8
21
 10
50.8169
 20
3.5285
 30
0.0000
 11
50.8169
 21
3.2914
 31
0.0000
  0
ARC
  8
21
 10
50.5799
 20
3.2914
 30
0.0000
 40
0.2371
 50
180.0000
 51
0.0000
  0
LINE
  8
21
 10
51.3292
 20
3.7656
 30
0.0000
 11
51.5070
 21
3.0544
 31
0.0000
  0
LINE
  8
21
 10
51.5070
 20
3.0544
 30
0.0000
 11
51.6848
 21
3.5285
 31
0.0000
  0
LINE
  8
21
 10
51.6848
 20
3.5285
 30
0.0000
 11
51.8626
 21
3.0544
 31
0.0000
  0
LINE
  8
21
 10
51.8626
 20
3.0544
 30
0.0000
 11
52.0404
 21
3.7656
 31
0.0000
  0
LINE
  8
21
 10
52.9378
 20
3.3507
 30
0.0000
 11
52.6415
 21
3.4692
 31
0.0000
  0
ARC
  8
21
 10
52.6986
 20
3.6119
 30
0.0000
 40
0.1537
 50
89.1809
 51
248.1984
  0
ARC
  8
21
 10
52.6911
 20
3.0926
 30
0.0000
 40
0.6731
 50
65.7606
 51
89.1809
  0
ARC
  8
21
 10
52.8807
 20
3.2080
 30
0.0000
 40
0.1537
 50
269.1820
 51
68.1984
  0
ARC
  8
21
 10
52.8929
 20
4.0593
 30
0.0000
 40
1.0051
 50
250.2087
 51
269.1820
  0
LINE
  8
21
 10
53.4797
 20
4.1212
 30
0.0000
 11
53.4797
 21
4.3582
 31
0.0000
  0
LINE
  8
21
 10
53.7760
 20
4.1212
 30
0.0000
 11
53.7760
 21
4.3582
 31
0.0000
  0
LINE
  8
21
 10
73.0695
 20
13.0620
 30
0.0000
 11
73.5097
 21
13.7224
 31
0.0000
  0
LINE
  8
21
 10
73.0695
 20
13.7224
 30
0.0000
 11
73.5097
 21
13.0620
 31
0.0000
  0
LINE
  8
21
 10
73.8377
 20
13.5756
 30
0.0000
 11
74.0211
 21
13.7224
 31
0.0000
  0
LINE
  8
21
 10
74.0211
 20
13.7224
 30
0.0000
 11
74.0211
 21
13.0620
 31
0.0000
  0
LINE
  8
21
 10
73.8377
 20
13.0620
 30
0.0000
 11
74.2045
 21
13.0620
 31
0.0000
  0
ARC
  8
21
 10
96.3083
 20
9.7797
 30
0.0000
 40
0.1468
 50
269.9988
 51
360.0000
  0
ARC
  8
21
 10
96.3083
 20
9.9430
 30
0.0000
 40
0.3100
 50
224.7611
 51
269.9989
  0
ARC
  8
21
 10
96.2533
 20
10.1466
 30
0.0000
 40
0.1468
 50
90.0000
 51
180.0000
  0
ARC
  8
21
 10
96.2533
 20
10.0182
 30
0.0000
 40
0.2752
 50
53.1296
 51
89.9998
  0
ARC
  8
21
 10
96.2556
 20
10.1466
 30
0.0000
 40
0.1491
 50
179.9999
 51
239.4896
  0
ARC
  8
21
 10
96.3060
 20
9.7797
 30
0.0000
 40
0.1491
 50
0.0004
 51
59.4891
  0
LINE
  8
21
 10
96.3817
 20
9.9081
 30
0.0000
 11
96.1799
 21
10.0182
 31
0.0000
  0
LINE
  8
21
 10
96.7953
 20
9.6330
 30
0.0000
 11
96.9788
 21
9.6330
 31
0.0000
  0
ARC
  8
21
 10
96.9788
 20
9.8164
 30
0.0000
 40
0.1834
 50
270.0000
 51
90.0000
  0
LINE
  8
21
 10
96.7953
 20
10.2934
 30
0.0000
 11
97.0155
 21
10.2934
 31
0.0000
  0
ARC
  8
21
 10
97.0155
 20
10.1466
 30
0.0000
 40
0.1468
 50
270.0000
 51
90.0000
  0
LINE
  8
21
 10
97.0155
 20
9.9998
 30
0.0000
 11
96.8687
 21
9.9998
 31
0.0000
  0
LINE
  8
21
 10
86.7537
 20
9.3719
 30
0.0000
 11
86.7537
 21
9.6654
 31
0.0000
  0
ARC
  8
21
 10
86.9371
 20
9.6654
 30
0.0000
 40
0.1834
 50
0.0000
 51
180.0000
  0
LINE
  8
21
 10
87.1206
 20
9.6654
 30
0.0000
 11
87.1206
 21
9.3719
 31
0.0000
  0
ARC
  8
21
 10
86.9371
 20
9.3719
 30
0.0000
 40
0.1834
 50
180.0000
 51
0.0000
  0
LINE
  8
21
 10
87.0472
 20
9.3352
 30
0.0000
 11
87.1940
 21
9.1884
 31
0.0000
  0
LINE
  8
21
 10
87.4382
 20
9.7021
 30
0.0000
 11
87.6217
 21
9.8489
 31
0.0000
  0
LINE
  8
21
 10
87.6217
 20
9.8489
 30
0.0000
 11
87.6217
 21
9.1884
 31
0.0000
  0
LINE
  8
21
 10
87.4382
 20
9.1884
 30
0.0000
 11
87.8051
 21
9.1884
 31
0.0000
  0
LINE
  8
21
 10
80.6577
 20
23.5959
 30
0.0000
 11
80.6577
 21
23.8894
 31
0.0000
  0
ARC
  8
21
 10
80.8411
 20
23.8894
 30
0.0000
 40
0.1834
 50
0.0000
 51
180.0000
  0
LINE
  8
21
 10
81.0246
 20
23.8894
 30
0.0000
 11
81.0246
 21
23.5959
 31
0.0000
  0
ARC
  8
21
 10
80.8411
 20
23.5959
 30
0.0000
 40
0.1834
 50
180.0000
 51
0.0000
  0
LINE
  8
21
 10
80.9512
 20
23.5592
 30
0.0000
 11
81.0980
 21
23.4124
 31
0.0000
  0
ARC
  8
21
 10
81.5440
 20
23.9078
 30
0.0000
 40
0.1651
 50
0.0000
 51
90.0000
  0
ARC
  8
21
 10
81.5440
 20
23.8607
 30
0.0000
 40
0.2121
 50
90.0001
 51
162.0553
  0
ARC
  8
21
 10
81.5318
 20
23.9078
 30
0.0000
 40
0.1773
 50
313.6026
 51
359.9999
  0
LINE
  8
21
 10
81.6541
 20
23.7793
 30
0.0000
 11
81.3422
 21
23.4124
 31
0.0000
  0
LINE
  8
21
 10
81.3422
 20
23.4124
 30
0.0000
 11
81.7091
 21
23.4124
 31
0.0000
  0
LINE
  8
21
 10
74.4347
 20
25.3810
 30
0.0000
 11
74.4347
 21
26.0414
 31
0.0000
  0
LINE
  8
21
 10
74.8016
 20
26.0414
 30
0.0000
 11
74.4347
 21
25.6378
 31
0.0000
  0
LINE
  8
21
 10
74.8016
 20
25.3810
 30
0.0000
 11
74.5815
 21
25.7845
 31
0.0000
  0
LINE
  8
21
 10
79.4512
 20
6.9024
 30
0.0000
 11
79.4512
 21
7.5629
 31
0.0000
  0
LINE
  8
21
 10
79.8181
 20
7.5629
 30
0.0000
 11
79.4512
 21
7.1593
 31
0.0000
  0
LINE
  8
21
 10
79.8181
 20
6.9024
 30
0.0000
 11
79.5980
 21
7.3060
 31
0.0000
  0
LINE
  8
21
 10
10.0344
 20
15.8242
 30
0.0000
 11
10.0344
 21
16.0443
 31
0.0000
  0
ARC
  8
21
 10
10.1812
 20
16.0443
 30
0.0000
 40
0.1468
 50
90.0000
 51
180.0000
  0
LINE
  8
21
 10
10.1812
 20
16.1911
 30
0.0000
 11
10.2179
 21
16.1911
 31
0.0000
  0
ARC
  8
21
 10
10.2179
 20
16.0076
 30
0.0000
 40
0.1834
 50
270.0000
 51
90.0000
  0
LINE
  8
21
 10
10.2179
 20
15.8242
 30
0.0000
 11
10.0344
 21
15.8242
 31
0.0000
  0
ARC
  8
21
 10
10.0344
 20
16.1177
 30
0.0000
 40
0.2935
 50
180.0006
 51
270.0000
  0
LINE
  8
21
 10
9.7409
 20
16.5190
 30
0.0000
 11
10.4013
 21
16.7392
 31
0.0000
  0
LINE
  8
21
 10
10.4013
 20
16.7392
 30
0.0000
 11
9.7409
 21
16.9593
 31
0.0000
  0
ARC
  8
21
 10
9.9060
 20
18.1215
 30
0.0000
 40
0.1651
 50
90.0000
 51
180.0000
  0
ARC
  8
21
 10
9.9530
 20
18.1215
 30
0.0000
 40
0.2121
 50
180.0001
 51
252.0553
  0
ARC
  8
21
 10
9.9060
 20
18.1093
 30
0.0000
 40
0.1773
 50
43.6026
 51
89.9999
  0
LINE
  8
21
 10
10.0344
 20
18.2316
 30
0.0000
 11
10.4013
 21
17.9197
 31
0.0000
  0
LINE
  8
21
 10
10.4013
 20
17.9197
 30
0.0000
 11
10.4013
 21
18.2866
 31
0.0000
  0
LINE
  8
21
 10
10.4013
 20
18.5969
 30
0.0000
 11
10.3646
 21
18.5969
 31
0.0000
  0
LINE
  8
21
 10
10.3646
 20
18.5969
 30
0.0000
 11
10.3646
 21
18.6335
 31
0.0000
  0
LINE
  8
21
 10
10.3646
 20
18.6335
 30
0.0000
 11
10.4013
 21
18.6335
 31
0.0000
  0
LINE
  8
21
 10
10.4013
 20
18.6335
 30
0.0000
 11
10.4013
 21
18.5969
 31
0.0000
  0
LINE
  8
21
 10
10.4013
 20
18.9438
 30
0.0000
 11
10.4013
 21
19.1640
 31
0.0000
  0
ARC
  8
21
 10
10.2545
 20
19.1640
 30
0.0000
 40
0.1468
 50
360.0000
 51
89.9976
  0
LINE
  8
21
 10
10.2545
 20
19.3107
 30
0.0000
 11
10.1812
 21
19.3107
 31
0.0000
  0
ARC
  8
21
 10
10.1812
 20
19.1640
 30
0.0000
 40
0.1468
 50
90.0000
 51
180.0000
  0
LINE
  8
21
 10
10.0344
 20
19.1640
 30
0.0000
 11
10.0344
 21
18.9438
 31
0.0000
  0
LINE
  8
21
 10
10.0344
 20
18.9438
 30
0.0000
 11
9.7409
 21
18.9438
 31
0.0000
  0
LINE
  8
21
 10
9.7409
 20
18.9438
 30
0.0000
 11
9.7409
 21
19.3107
 31
0.0000
  0
LINE
  8
21
 10
9.7409
 20
19.6387
 30
0.0000
 11
10.4013
 21
19.8588
 31
0.0000
  0
LINE
  8
21
 10
10.4013
 20
19.8588
 30
0.0000
 11
9.7409
 21
20.0789
 31
0.0000
  0
LINE
  8
21
 10
28.4861
 20
2.9914
 30
0.0000
 11
27.8257
 21
2.9914
 31
0.0000
  0
LINE
  8
21
 10
27.8257
 20
2.9914
 30
0.0000
 11
28.1926
 21
3.2115
 31
0.0000
  0
LINE
  8
21
 10
28.1926
 20
3.2115
 30
0.0000
 11
27.8257
 21
3.4317
 31
0.0000
  0
LINE
  8
21
 10
27.8257
 20
3.4317
 30
0.0000
 11
28.4861
 21
3.4317
 31
0.0000
  0
LINE
  8
21
 10
27.8257
 20
3.8699
 30
0.0000
 11
28.4861
 21
3.8699
 31
0.0000
  0
LINE
  8
21
 10
28.4861
 20
3.7965
 30
0.0000
 11
28.4861
 21
3.9433
 31
0.0000
  0
LINE
  8
21
 10
27.8257
 20
3.7965
 30
0.0000
 11
27.8257
 21
3.9433
 31
0.0000
  0
ARC
  8
21
 10
28.3393
 20
4.4674
 30
0.0000
 40
0.1468
 50
359.9988
 51
90.0000
  0
ARC
  8
21
 10
28.1761
 20
4.4674
 30
0.0000
 40
0.3100
 50
314.7614
 51
359.9987
  0
ARC
  8
21
 10
27.9725
 20
4.4124
 30
0.0000
 40
0.1468
 50
180.0000
 51
270.0000
  0
ARC
  8
21
 10
28.1009
 20
4.4124
 30
0.0000
 40
0.2752
 50
143.1295
 51
180.0000
  0
ARC
  8
21
 10
27.9725
 20
4.4147
 30
0.0000
 40
0.1491
 50
269.9999
 51
329.4896
  0
ARC
  8
21
 10
28.3393
 20
4.4651
 30
0.0000
 40
0.1491
 50
90.0004
 51
149.4891
  0
LINE
  8
21
 10
28.2109
 20
4.5408
 30
0.0000
 11
28.1009
 21
4.3390
 31
0.0000
  0
LINE
  8
21
 10
28.3027
 20
4.9544
 30
0.0000
 11
28.0091
 21
4.9544
 31
0.0000
  0
ARC
  8
21
 10
28.0091
 20
5.1379
 30
0.0000
 40
0.1834
 50
90.0000
 51
270.0000
  0
LINE
  8
21
 10
28.0091
 20
5.3213
 30
0.0000
 11
28.3027
 21
5.3213
 31
0.0000
  0
ARC
  8
21
 10
28.3027
 20
5.1379
 30
0.0000
 40
0.1834
 50
270.0000
 51
90.0000
  0
LINE
  8
21
 10
33.8201
 20
3.5333
 30
0.0000
 11
33.1597
 21
3.5333
 31
0.0000
  0
LINE
  8
21
 10
33.1597
 20
3.5333
 30
0.0000
 11
33.1597
 21
3.7167
 31
0.0000
  0
ARC
  8
21
 10
33.3431
 20
3.7167
 30
0.0000
 40
0.1834
 50
0.0000
 51
180.0000
  0
LINE
  8
21
 10
33.5266
 20
3.7167
 30
0.0000
 11
33.5266
 21
3.5333
 31
0.0000
  0
LINE
  8
21
 10
33.8201
 20
3.9002
 30
0.0000
 11
33.5266
 21
3.7534
 31
0.0000
  0
ARC
  8
21
 10
33.6733
 20
4.4527
 30
0.0000
 40
0.1468
 50
359.9988
 51
90.0000
  0
ARC
  8
21
 10
33.5101
 20
4.4527
 30
0.0000
 40
0.3100
 50
314.7614
 51
359.9987
  0
ARC
  8
21
 10
33.3065
 20
4.3976
 30
0.0000
 40
0.1468
 50
180.0000
 51
270.0000
  0
ARC
  8
21
 10
33.4349
 20
4.3976
 30
0.0000
 40
0.2752
 50
143.1295
 51
180.0000
  0
ARC
  8
21
 10
33.3065
 20
4.3999
 30
0.0000
 40
0.1491
 50
269.9999
 51
329.4896
  0
ARC
  8
21
 10
33.6733
 20
4.4504
 30
0.0000
 40
0.1491
 50
90.0004
 51
149.4891
  0
LINE
  8
21
 10
33.5449
 20
4.5261
 30
0.0000
 11
33.4349
 21
4.3243
 31
0.0000
  0
LINE
  8
21
 10
33.8201
 20
5.0744
 30
0.0000
 11
33.1597
 21
5.0744
 31
0.0000
  0
LINE
  8
21
 10
33.1597
 20
4.8909
 30
0.0000
 11
33.1597
 21
5.2578
 31
0.0000
  0
ARC
  8
21
 10
31.0063
 20
3.7518
 30
0.0000
 40
0.1468
 50
359.9988
 51
90.0000
  0
ARC
  8
21
 10
30.8431
 20
3.7518
 30
0.0000
 40
0.3100
 50
314.7614
 51
359.9987
  0
ARC
  8
21
 10
30.6395
 20
3.6968
 30
0.0000
 40
0.1468
 50
180.0000
 51
270.0000
  0
ARC
  8
21
 10
30.7679
 20
3.6968
 30
0.0000
 40
0.2752
 50
143.1295
 51
180.0000
  0
ARC
  8
21
 10
30.6395
 20
3.6991
 30
0.0000
 40
0.1491
 50
269.9999
 51
329.4896
  0
ARC
  8
21
 10
31.0063
 20
3.7495
 30
0.0000
 40
0.1491
 50
90.0004
 51
149.4891
  0
LINE
  8
21
 10
30.8779
 20
3.8252
 30
0.0000
 11
30.7679
 21
3.6234
 31
0.0000
  0
LINE
  8
21
 10
31.1531
 20
4.5288
 30
0.0000
 11
31.1531
 21
4.3820
 31
0.0000
  0
ARC
  8
21
 10
31.0063
 20
4.3820
 30
0.0000
 40
0.1468
 50
270.0012
 51
0.0000
  0
LINE
  8
21
 10
31.0063
 20
4.2353
 30
0.0000
 11
30.6395
 21
4.2353
 31
0.0000
  0
ARC
  8
21
 10
30.6395
 20
4.3820
 30
0.0000
 40
0.1468
 50
180.0012
 51
270.0000
  0
LINE
  8
21
 10
30.4927
 20
4.3820
 30
0.0000
 11
30.4927
 21
4.5288
 31
0.0000
  0
LINE
  8
21
 10
31.1531
 20
4.8909
 30
0.0000
 11
30.4927
 21
4.8909
 31
0.0000
  0
LINE
  8
21
 10
30.4927
 20
5.2578
 30
0.0000
 11
30.8963
 21
4.8909
 31
0.0000
  0
LINE
  8
21
 10
31.1531
 20
5.2578
 30
0.0000
 11
30.7495
 21
5.0377
 31
0.0000
  0
LINE
  8
21
 10
30.8483
 20
11.4427
 30
0.0000
 11
30.1879
 21
11.4427
 31
0.0000
  0
LINE
  8
21
 10
30.1879
 20
11.4427
 30
0.0000
 11
30.5548
 21
11.6628
 31
0.0000
  0
LINE
  8
21
 10
30.5548
 20
11.6628
 30
0.0000
 11
30.1879
 21
11.8830
 31
0.0000
  0
LINE
  8
21
 10
30.1879
 20
11.8830
 30
0.0000
 11
30.8483
 21
11.8830
 31
0.0000
  0
LINE
  8
21
 10
30.6649
 20
12.2841
 30
0.0000
 11
30.3713
 21
12.2841
 31
0.0000
  0
ARC
  8
21
 10
30.3713
 20
12.4675
 30
0.0000
 40
0.1834
 50
90.0000
 51
270.0000
  0
LINE
  8
21
 10
30.3713
 20
12.6509
 30
0.0000
 11
30.6649
 21
12.6509
 31
0.0000
  0
ARC
  8
21
 10
30.6649
 20
12.4675
 30
0.0000
 40
0.1834
 50
270.0000
 51
90.0000
  0
ARC
  8
21
 10
30.7015
 20
13.2113
 30
0.0000
 40
0.1468
 50
359.9988
 51
90.0000
  0
ARC
  8
21
 10
30.5383
 20
13.2113
 30
0.0000
 40
0.3100
 50
314.7614
 51
359.9987
  0
ARC
  8
21
 10
30.3347
 20
13.1563
 30
0.0000
 40
0.1468
 50
180.0000
 51
270.0000
  0
ARC
  8
21
 10
30.4631
 20
13.1563
 30
0.0000
 40
0.2752
 50
143.1295
 51
180.0000
  0
ARC
  8
21
 10
30.3347
 20
13.1586
 30
0.0000
 40
0.1491
 50
269.9999
 51
329.4896
  0
ARC
  8
21
 10
30.7015
 20
13.2090
 30
0.0000
 40
0.1491
 50
90.0004
 51
149.4891
  0
LINE
  8
21
 10
30.5731
 20
13.2847
 30
0.0000
 11
30.4631
 21
13.0829
 31
0.0000
  0
LINE
  8
21
 10
30.1879
 20
13.7355
 30
0.0000
 11
30.8483
 21
13.7355
 31
0.0000
  0
LINE
  8
21
 10
30.8483
 20
13.6621
 30
0.0000
 11
30.8483
 21
13.8088
 31
0.0000
  0
LINE
  8
21
 10
30.1879
 20
13.6621
 30
0.0000
 11
30.1879
 21
13.8088
 31
0.0000
  0
LINE
  8
21
 10
32.8309
 20
11.7630
 30
0.0000
 11
32.8309
 21
11.8731
 31
0.0000
  0
LINE
  8
21
 10
32.8309
 20
11.8731
 30
0.0000
 11
33.1978
 21
11.8731
 31
0.0000
  0
LINE
  8
21
 10
33.1978
 20
11.8731
 30
0.0000
 11
33.1978
 21
11.6530
 31
0.0000
  0
ARC
  8
21
 10
33.0510
 20
11.6530
 30
0.0000
 40
0.1468
 50
270.0012
 51
0.0000
  0
LINE
  8
21
 10
33.0510
 20
11.5062
 30
0.0000
 11
32.6842
 21
11.5062
 31
0.0000
  0
ARC
  8
21
 10
32.6842
 20
11.6530
 30
0.0000
 40
0.1468
 50
180.0012
 51
270.0000
  0
LINE
  8
21
 10
32.5374
 20
11.6530
 30
0.0000
 11
32.5374
 21
11.8731
 31
0.0000
  0
LINE
  8
21
 10
33.1978
 20
12.2865
 30
0.0000
 11
32.5374
 21
12.2865
 31
0.0000
  0
LINE
  8
21
 10
32.5374
 20
12.2865
 30
0.0000
 11
33.1978
 21
12.6534
 31
0.0000
  0
LINE
  8
21
 10
33.1978
 20
12.6534
 30
0.0000
 11
32.5374
 21
12.6534
 31
0.0000
  0
LINE
  8
21
 10
33.1978
 20
13.0668
 30
0.0000
 11
32.5374
 21
13.0668
 31
0.0000
  0
LINE
  8
21
 10
32.5374
 20
13.0668
 30
0.0000
 11
32.5374
 21
13.2502
 31
0.0000
  0
ARC
  8
21
 10
32.7208
 20
13.2502
 30
0.0000
 40
0.1834
 50
89.9990
 51
180.0000
  0
LINE
  8
21
 10
32.7208
 20
13.4337
 30
0.0000
 11
33.0144
 21
13.4337
 31
0.0000
  0
ARC
  8
21
 10
33.0144
 20
13.2502
 30
0.0000
 40
0.1834
 50
0.0000
 51
90.0000
  0
LINE
  8
21
 10
33.1978
 20
13.2502
 30
0.0000
 11
33.1978
 21
13.0668
 31
0.0000
  0
LINE
  8
21
 10
10.7198
 20
3.6625
 30
0.0000
 11
10.9032
 21
3.6625
 31
0.0000
  0
ARC
  8
21
 10
10.9032
 20
3.4791
 30
0.0000
 40
0.1834
 50
270.0000
 51
90.0000
  0
LINE
  8
21
 10
10.9032
 20
3.2957
 30
0.0000
 11
10.7198
 21
3.2957
 31
0.0000
  0
LINE
  8
21
 10
10.7198
 20
3.2957
 30
0.0000
 11
10.7198
 21
3.9561
 31
0.0000
  0
LINE
  8
21
 10
10.7198
 20
3.9561
 30
0.0000
 11
10.9032
 21
3.9561
 31
0.0000
  0
ARC
  8
21
 10
10.9032
 20
3.8093
 30
0.0000
 40
0.1468
 50
270.0000
 51
90.0000
  0
LINE
  8
21
 10
11.4332
 20
3.9561
 30
0.0000
 11
11.4332
 21
3.4791
 31
0.0000
  0
ARC
  8
21
 10
11.6166
 20
3.4791
 30
0.0000
 40
0.1834
 50
180.0000
 51
0.0000
  0
LINE
  8
21
 10
11.8001
 20
3.4791
 30
0.0000
 11
11.8001
 21
3.9561
 31
0.0000
  0
LINE
  8
21
 10
12.1647
 20
3.9561
 30
0.0000
 11
12.5316
 21
3.9561
 31
0.0000
  0
LINE
  8
21
 10
12.5316
 20
3.9561
 30
0.0000
 11
12.1647
 21
3.2957
 31
0.0000
  0
LINE
  8
21
 10
12.1647
 20
3.2957
 30
0.0000
 11
12.5316
 21
3.2957
 31
0.0000
  0
LINE
  8
21
 10
12.8475
 20
3.9561
 30
0.0000
 11
13.2144
 21
3.9561
 31
0.0000
  0
LINE
  8
21
 10
13.2144
 20
3.9561
 30
0.0000
 11
12.8475
 21
3.2957
 31
0.0000
  0
LINE
  8
21
 10
12.8475
 20
3.2957
 30
0.0000
 11
13.2144
 21
3.2957
 31
0.0000
  0
LINE
  8
21
 10
13.8749
 20
3.2957
 30
0.0000
 11
13.5814
 21
3.2957
 31
0.0000
  0
LINE
  8
21
 10
13.5814
 20
3.2957
 30
0.0000
 11
13.5814
 21
3.9561
 31
0.0000
  0
LINE
  8
21
 10
13.5814
 20
3.9561
 30
0.0000
 11
13.8749
 21
3.9561
 31
0.0000
  0
LINE
  8
21
 10
13.5814
 20
3.6625
 30
0.0000
 11
13.8015
 21
3.6625
 31
0.0000
  0
LINE
  8
21
 10
14.2208
 20
3.2957
 30
0.0000
 11
14.2208
 21
3.9561
 31
0.0000
  0
LINE
  8
21
 10
14.2208
 20
3.9561
 30
0.0000
 11
14.4043
 21
3.9561
 31
0.0000
  0
ARC
  8
21
 10
14.4043
 20
3.7726
 30
0.0000
 40
0.1834
 50
270.0000
 51
90.0000
  0
LINE
  8
21
 10
14.4043
 20
3.5892
 30
0.0000
 11
14.2208
 21
3.5892
 31
0.0000
  0
LINE
  8
21
 10
14.5877
 20
3.2957
 30
0.0000
 11
14.4410
 21
3.5892
 31
0.0000
  0
LINE
  8
21
 10
14.9566
 20
3.5525
 30
0.0000
 11
15.3968
 21
3.5525
 31
0.0000
  0
LINE
  8
21
 10
15.8160
 20
3.2957
 30
0.0000
 11
15.8160
 21
3.9561
 31
0.0000
  0
LINE
  8
21
 10
15.8160
 20
3.9561
 30
0.0000
 11
15.9995
 21
3.9561
 31
0.0000
  0
ARC
  8
21
 10
15.9995
 20
3.7726
 30
0.0000
 40
0.1834
 50
270.0000
 51
90.0000
  0
LINE
  8
21
 10
15.9995
 20
3.5892
 30
0.0000
 11
15.8160
 21
3.5892
 31
0.0000
  0
LINE
  8
21
 10
16.4925
 20
3.9561
 30
0.0000
 11
16.6393
 21
3.2957
 31
0.0000
  0
LINE
  8
21
 10
16.6393
 20
3.2957
 30
0.0000
 11
16.7860
 21
3.7359
 31
0.0000
  0
LINE
  8
21
 10
16.7860
 20
3.7359
 30
0.0000
 11
16.9328
 21
3.2957
 31
0.0000
  0
LINE
  8
21
 10
16.9328
 20
3.2957
 30
0.0000
 11
17.0796
 21
3.9561
 31
0.0000
  0
LINE
  8
21
 10
17.4639
 20
3.2957
 30
0.0000
 11
17.4639
 21
3.9561
 31
0.0000
  0
LINE
  8
21
 10
17.4639
 20
3.9561
 30
0.0000
 11
17.6474
 21
3.9561
 31
0.0000
  0
ARC
  8
21
 10
17.6474
 20
3.7726
 30
0.0000
 40
0.1834
 50
270.0000
 51
90.0000
  0
LINE
  8
21
 10
17.6474
 20
3.5892
 30
0.0000
 11
17.4639
 21
3.5892
 31
0.0000
  0
LINE
  8
21
 10
17.8308
 20
3.2957
 30
0.0000
 11
17.6840
 21
3.5892
 31
0.0000
  0
LINE
  8
21
 10
17.0767
 20
5.2818
 30
0.0000
 11
17.2968
 21
5.2818
 31
0.0000
  0
ARC
  8
21
 10
17.2968
 20
5.1350
 30
0.0000
 40
0.1468
 50
0.0000
 51
90.0000
  0
LINE
  8
21
 10
17.4436
 20
5.1350
 30
0.0000
 11
17.4436
 21
5.0983
 31
0.0000
  0
ARC
  8
21
 10
17.2601
 20
5.0983
 30
0.0000
 40
0.1834
 50
180.0000
 51
0.0000
  0
LINE
  8
21
 10
17.0767
 20
5.0983
 30
0.0000
 11
17.0767
 21
5.2818
 31
0.0000
  0
ARC
  8
21
 10
17.3702
 20
5.2818
 30
0.0000
 40
0.2935
 50
90.0006
 51
180.0000
  0
LINE
  8
21
 10
17.7715
 20
5.5753
 30
0.0000
 11
17.9917
 21
4.9149
 31
0.0000
  0
LINE
  8
21
 10
17.9917
 20
4.9149
 30
0.0000
 11
18.2118
 21
5.5753
 31
0.0000
  0
ARC
  8
21
 10
11.1109
 20
5.2832
 30
0.0000
 40
0.1651
 50
0.0000
 51
90.0000
  0
ARC
  8
21
 10
11.1109
 20
5.2362
 30
0.0000
 40
0.2121
 50
90.0001
 51
162.0553
  0
ARC
  8
21
 10
11.0986
 20
5.2832
 30
0.0000
 40
0.1773
 50
313.6026
 51
359.9999
  0
LINE
  8
21
 10
11.2209
 20
5.1548
 30
0.0000
 11
10.9091
 21
4.7879
 31
0.0000
  0
LINE
  8
21
 10
10.9091
 20
4.7879
 30
0.0000
 11
11.2760
 21
4.7879
 31
0.0000
  0
LINE
  8
21
 10
11.5862
 20
4.7879
 30
0.0000
 11
11.5862
 21
4.8246
 31
0.0000
  0
LINE
  8
21
 10
11.5862
 20
4.8246
 30
0.0000
 11
11.6229
 21
4.8246
 31
0.0000
  0
LINE
  8
21
 10
11.6229
 20
4.8246
 30
0.0000
 11
11.6229
 21
4.7879
 31
0.0000
  0
LINE
  8
21
 10
11.6229
 20
4.7879
 30
0.0000
 11
11.5862
 21
4.7879
 31
0.0000
  0
LINE
  8
21
 10
11.9332
 20
4.7879
 30
0.0000
 11
12.1533
 21
4.7879
 31
0.0000
  0
ARC
  8
21
 10
12.1533
 20
4.9347
 30
0.0000
 40
0.1468
 50
270.0000
 51
359.9988
  0
LINE
  8
21
 10
12.3001
 20
4.9347
 30
0.0000
 11
12.3001
 21
5.0080
 31
0.0000
  0
ARC
  8
21
 10
12.1533
 20
5.0080
 30
0.0000
 40
0.1468
 50
0.0000
 51
90.0000
  0
LINE
  8
21
 10
12.1533
 20
5.1548
 30
0.0000
 11
11.9332
 21
5.1548
 31
0.0000
  0
LINE
  8
21
 10
11.9332
 20
5.1548
 30
0.0000
 11
11.9332
 21
5.4483
 31
0.0000
  0
LINE
  8
21
 10
11.9332
 20
5.4483
 30
0.0000
 11
12.3001
 21
5.4483
 31
0.0000
  0
LINE
  8
21
 10
12.6280
 20
5.4483
 30
0.0000
 11
12.8482
 21
4.7879
 31
0.0000
  0
LINE
  8
21
 10
12.8482
 20
4.7879
 30
0.0000
 11
13.0683
 21
5.4483
 31
0.0000
  0
LINE
  8
21
 10
27.5209
 20
11.3792
 30
0.0000
 11
28.1813
 21
11.5993
 31
0.0000
  0
LINE
  8
21
 10
28.1813
 20
11.5993
 30
0.0000
 11
27.5209
 21
11.8195
 31
0.0000
  0
LINE
  8
21
 10
28.1813
 20
12.4374
 30
0.0000
 11
28.1813
 21
12.2906
 31
0.0000
  0
ARC
  8
21
 10
28.0345
 20
12.2906
 30
0.0000
 40
0.1468
 50
270.0012
 51
0.0000
  0
LINE
  8
21
 10
28.0345
 20
12.1439
 30
0.0000
 11
27.6677
 21
12.1439
 31
0.0000
  0
ARC
  8
21
 10
27.6677
 20
12.2906
 30
0.0000
 40
0.1468
 50
180.0012
 51
270.0000
  0
LINE
  8
21
 10
27.5209
 20
12.2906
 30
0.0000
 11
27.5209
 21
12.4374
 31
0.0000
  0
LINE
  8
21
 10
28.1813
 20
13.0470
 30
0.0000
 11
28.1813
 21
12.9002
 31
0.0000
  0
ARC
  8
21
 10
28.0345
 20
12.9002
 30
0.0000
 40
0.1468
 50
270.0012
 51
0.0000
  0
LINE
  8
21
 10
28.0345
 20
12.7535
 30
0.0000
 11
27.6677
 21
12.7535
 31
0.0000
  0
ARC
  8
21
 10
27.6677
 20
12.9002
 30
0.0000
 40
0.1468
 50
180.0012
 51
270.0000
  0
LINE
  8
21
 10
27.5209
 20
12.9002
 30
0.0000
 11
27.5209
 21
13.0470
 31
0.0000
  0
CIRCLE
  8
21
 10
26.4795
 20
6.7945
 30
0.0000
 40
0.1420
  0
LINE
  8
21
 10
16.8910
 20
7.4295
 30
0.0000
 11
14.0970
 21
7.4295
 31
0.0000
  0
LINE
  8
21
 10
14.0970
 20
7.4295
 30
0.0000
 11
14.0970
 21
8.6995
 31
0.0000
  0
LINE
  8
21
 10
14.0970
 20
8.6995
 30
0.0000
 11
16.8910
 21
8.6995
 31
0.0000
  0
LINE
  8
21
 10
16.8910
 20
8.6995
 30
0.0000
 11
16.8910
 21
7.4295
 31
0.0000
  0
INSERT
  8
29
  2
RECT158496X158496R25
 10
16.2560
 20
8.0645
 30
0.0000
 41
1.0000
 42
1.0000
 43
1.0000
 50
180.0000
  0
INSERT
  8
31
  2
RECT142240X142240R25
 10
16.2560
 20
8.0645
 30
0.0000
 41
1.0000
 42
1.0000
 43
1.0000
 50
180.0000
  0
INSERT
  8
29
  2
RECT158496X158496R25
 10
14.7320
 20
8.0645
 30
0.0000
 41
1.0000
 42
1.0000
 43
1.0000
 50
180.0000
  0
INSERT
  8
31
  2
RECT142240X142240R25
 10
14.7320
 20
8.0645
 30
0.0000
 41
1.0000
 42
1.0000
 43
1.0000
 50
180.0000
  0
LINE
  8
21
 10
16.8910
 20
13.3985
 30
0.0000
 11
14.0970
 21
13.3985
 31
0.0000
  0
LINE
  8
21
 10
14.0970
 20
13.3985
 30
0.0000
 11
14.0970
 21
14.6685
 31
0.0000
  0
LINE
  8
21
 10
14.0970
 20
14.6685
 30
0.0000
 11
16.8910
 21
14.6685
 31
0.0000
  0
LINE
  8
21
 10
16.8910
 20
14.6685
 30
0.0000
 11
16.8910
 21
13.3985
 31
0.0000
  0
INSERT
  8
29
  2
RECT158496X158496R25
 10
16.2560
 20
14.0335
 30
0.0000
 41
1.0000
 42
1.0000
 43
1.0000
 50
180.0000
  0
INSERT
  8
31
  2
RECT142240X142240R25
 10
16.2560
 20
14.0335
 30
0.0000
 41
1.0000
 42
1.0000
 43
1.0000
 50
180.0000
  0
INSERT
  8
29
  2
RECT158496X158496R25
 10
14.7320
 20
14.0335
 30
0.0000
 41
1.0000
 42
1.0000
 43
1.0000
 50
180.0000
  0
INSERT
  8
31
  2
RECT142240X142240R25
 10
14.7320
 20
14.0335
 30
0.0000
 41
1.0000
 42
1.0000
 43
1.0000
 50
180.0000
  0
LINE
  8
21
 10
71.4375
 20
15.9385
 30
0.0000
 11
71.4375
 21
18.7325
 31
0.0000
  0
LINE
  8
21
 10
71.4375
 20
18.7325
 30
0.0000
 11
72.7075
 21
18.7325
 31
0.0000
  0
LINE
  8
21
 10
72.7075
 20
18.7325
 30
0.0000
 11
72.7075
 21
15.9385
 31
0.0000
  0
LINE
  8
21
 10
72.7075
 20
15.9385
 30
0.0000
 11
71.4375
 21
15.9385
 31
0.0000
  0
INSERT
  8
29
  2
RECT158496X158496R25
 10
72.0725
 20
16.5735
 30
0.0000
 41
1.0000
 42
1.0000
 43
1.0000
 50
90.0000
  0
INSERT
  8
31
  2
RECT142240X142240R25
 10
72.0725
 20
16.5735
 30
0.0000
 41
1.0000
 42
1.0000
 43
1.0000
 50
90.0000
  0
INSERT
  8
29
  2
RECT158496X158496R25
 10
72.0725
 20
18.0975
 30
0.0000
 41
1.0000
 42
1.0000
 43
1.0000
 50
90.0000
  0
INSERT
  8
31
  2
RECT142240X142240R25
 10
72.0725
 20
18.0975
 30
0.0000
 41
1.0000
 42
1.0000
 43
1.0000
 50
90.0000
  0
LINE
  8
21
 10
69.4055
 20
18.2245
 30
0.0000
 11
69.4055
 21
21.0185
 31
0.0000
  0
LINE
  8
21
 10
69.4055
 20
21.0185
 30
0.0000
 11
70.6755
 21
21.0185
 31
0.0000
  0
LINE
  8
21
 10
70.6755
 20
21.0185
 30
0.0000
 11
70.6755
 21
18.2245
 31
0.0000
  0
LINE
  8
21
 10
70.6755
 20
18.2245
 30
0.0000
 11
69.4055
 21
18.2245
 31
0.0000
  0
INSERT
  8
29
  2
RECT158496X158496R25
 10
70.0405
 20
18.8595
 30
0.0000
 41
1.0000
 42
1.0000
 43
1.0000
 50
90.0000
  0
INSERT
  8
31
  2
RECT142240X142240R25
 10
70.0405
 20
18.8595
 30
0.0000
 41
1.0000
 42
1.0000
 43
1.0000
 50
90.0000
  0
INSERT
  8
29
  2
RECT158496X158496R25
 10
70.0405
 20
20.3835
 30
0.0000
 41
1.0000
 42
1.0000
 43
1.0000
 50
90.0000
  0
INSERT
  8
31
  2
RECT142240X142240R25
 10
70.0405
 20
20.3835
 30
0.0000
 41
1.0000
 42
1.0000
 43
1.0000
 50
90.0000
  0
LINE
  8
21
 10
81.0650
 20
7.8640
 30
0.0000
 11
82.7650
 21
7.8640
 31
0.0000
  0
LINE
  8
21
 10
81.0650
 20
6.6140
 30
0.0000
 11
82.7650
 21
6.6140
 31
0.0000
  0
LINE
  8
21
 10
83.8150
 20
7.9390
 30
0.0000
 11
83.8150
 21
7.7390
 31
0.0000
  0
LINE
  8
21
 10
83.7150
 20
7.8390
 30
0.0000
 11
83.9150
 21
7.8390
 31
0.0000
  0
INSERT
  8
21
  2
RECT
 10
81.5025
 20
7.2390
 30
0.0000
 41
0.4250
 42
1.2500
 43
1.0000
 50
0.0000
  0
INSERT
  8
29
  2
RECT
 10
83.3150
 20
7.2390
 30
0.0000
 41
1.1516
 42
0.7016
 43
1.0000
 50
0.0000
  0
INSERT
  8
31
  2
RECT
 10
83.3150
 20
7.2390
 30
0.0000
 41
1.0500
 42
0.6000
 43
1.0000
 50
0.0000
  0
INSERT
  8
29
  2
RECT
 10
80.5150
 20
7.2390
 30
0.0000
 41
1.1516
 42
0.7016
 43
1.0000
 50
0.0000
  0
INSERT
  8
31
  2
RECT
 10
80.5150
 20
7.2390
 30
0.0000
 41
1.0500
 42
0.6000
 43
1.0000
 50
0.0000
  0
LINE
  8
21
 10
75.8580
 20
27.1680
 30
0.0000
 11
77.5580
 21
27.1680
 31
0.0000
  0
LINE
  8
21
 10
75.8580
 20
25.9180
 30
0.0000
 11
77.5580
 21
25.9180
 31
0.0000
  0
LINE
  8
21
 10
78.6080
 20
27.2430
 30
0.0000
 11
78.6080
 21
27.0430
 31
0.0000
  0
LINE
  8
21
 10
78.5080
 20
27.1430
 30
0.0000
 11
78.7080
 21
27.1430
 31
0.0000
  0
INSERT
  8
21
  2
RECT
 10
76.2955
 20
26.5430
 30
0.0000
 41
0.4250
 42
1.2500
 43
1.0000
 50
0.0000
  0
INSERT
  8
29
  2
RECT
 10
78.1080
 20
26.5430
 30
0.0000
 41
1.1516
 42
0.7016
 43
1.0000
 50
0.0000
  0
INSERT
  8
31
  2
RECT
 10
78.1080
 20
26.5430
 30
0.0000
 41
1.0500
 42
0.6000
 43
1.0000
 50
0.0000
  0
INSERT
  8
29
  2
RECT
 10
75.3080
 20
26.5430
 30
0.0000
 41
1.1516
 42
0.7016
 43
1.0000
 50
0.0000
  0
INSERT
  8
31
  2
RECT
 10
75.3080
 20
26.5430
 30
0.0000
 41
1.0500
 42
0.6000
 43
1.0000
 50
0.0000
  0
LINE
  8
21
 10
26.9875
 20
5.9055
 30
0.0000
 11
26.9875
 21
10.9855
 31
0.0000
  0
LINE
  8
21
 10
26.9875
 20
10.9855
 30
0.0000
 11
34.6075
 21
10.9855
 31
0.0000
  0
LINE
  8
21
 10
34.6075
 20
10.9855
 30
0.0000
 11
34.6075
 21
5.9055
 31
0.0000
  0
LINE
  8
21
 10
34.6075
 20
5.9055
 30
0.0000
 11
26.9875
 21
5.9055
 31
0.0000
  0
INSERT
  8
29
  2
SQUAREP
 10
28.2575
 20
7.1755
 30
0.0000
 41
1.4986
 42
1.4986
 43
1.0000
 50
90.0000
  0
INSERT
  8
29
  2
ROUNDP
 10
30.7975
 20
7.1755
 30
0.0000
 41
1.4986
 42
1.4986
 43
1.0000
 50
90.0000
  0
INSERT
  8
29
  2
ROUNDP
 10
33.3375
 20
7.1755
 30
0.0000
 41
1.4986
 42
1.4986
 43
1.0000
 50
90.0000
  0
INSERT
  8
29
  2
ROUNDP
 10
33.3375
 20
9.7155
 30
0.0000
 41
1.4986
 42
1.4986
 43
1.0000
 50
90.0000
  0
INSERT
  8
29
  2
ROUNDP
 10
30.7975
 20
9.7155
 30
0.0000
 41
1.4986
 42
1.4986
 43
1.0000
 50
90.0000
  0
INSERT
  8
29
  2
ROUNDP
 10
28.2575
 20
9.7155
 30
0.0000
 41
1.4986
 42
1.4986
 43
1.0000
 50
90.0000
  0
LINE
  8
21
 10
16.3515
 20
26.3535
 30
0.0000
 11
16.3515
 21
27.6135
 31
0.0000
  0
LINE
  8
21
 10
16.3515
 20
27.6135
 30
0.0000
 11
7.6515
 21
27.6135
 31
0.0000
  0
LINE
  8
21
 10
7.6515
 20
27.6135
 30
0.0000
 11
7.6515
 21
26.3035
 31
0.0000
  0
LINE
  8
21
 10
13.6215
 20
23.8135
 30
0.0000
 11
16.3515
 21
23.8135
 31
0.0000
  0
LINE
  8
21
 10
16.3515
 20
23.8135
 30
0.0000
 11
16.3515
 21
24.5935
 31
0.0000
  0
LINE
  8
21
 10
10.4215
 20
23.8135
 30
0.0000
 11
7.6515
 21
23.8135
 31
0.0000
  0
LINE
  8
21
 10
7.6515
 20
23.8135
 30
0.0000
 11
7.6515
 21
24.5935
 31
0.0000
  0
CIRCLE
  8
21
 10
13.8015
 20
23.3635
 30
0.0000
 40
0.1000
  0
INSERT
  8
29
  2
RECT
 10
13.2515
 20
23.5635
 30
0.0000
 41
1.1016
 42
0.4016
 43
1.0000
 50
270.0000
  0
INSERT
  8
31
  2
RECT
 10
13.2515
 20
23.5635
 30
0.0000
 41
1.0000
 42
0.3000
 43
1.0000
 50
270.0000
  0
INSERT
  8
29
  2
RECT
 10
12.7515
 20
23.5635
 30
0.0000
 41
1.1016
 42
0.4016
 43
1.0000
 50
270.0000
  0
INSERT
  8
31
  2
RECT
 10
12.7515
 20
23.5635
 30
0.0000
 41
1.0000
 42
0.3000
 43
1.0000
 50
270.0000
  0
INSERT
  8
29
  2
RECT
 10
12.2515
 20
23.5635
 30
0.0000
 41
1.1016
 42
0.4016
 43
1.0000
 50
270.0000
  0
INSERT
  8
31
  2
RECT
 10
12.2515
 20
23.5635
 30
0.0000
 41
1.0000
 42
0.3000
 43
1.0000
 50
270.0000
  0
INSERT
  8
29
  2
RECT
 10
11.7515
 20
23.5635
 30
0.0000
 41
1.1016
 42
0.4016
 43
1.0000
 50
270.0000
  0
INSERT
  8
31
  2
RECT
 10
11.7515
 20
23.5635
 30
0.0000
 41
1.0000
 42
0.3000
 43
1.0000
 50
270.0000
  0
INSERT
  8
29
  2
RECT
 10
11.2515
 20
23.5635
 30
0.0000
 41
1.1016
 42
0.4016
 43
1.0000
 50
270.0000
  0
INSERT
  8
31
  2
RECT
 10
11.2515
 20
23.5635
 30
0.0000
 41
1.0000
 42
0.3000
 43
1.0000
 50
270.0000
  0
INSERT
  8
29
  2
RECT
 10
10.7515
 20
23.5635
 30
0.0000
 41
1.1016
 42
0.4016
 43
1.0000
 50
270.0000
  0
INSERT
  8
31
  2
RECT
 10
10.7515
 20
23.5635
 30
0.0000
 41
1.0000
 42
0.3000
 43
1.0000
 50
270.0000
  0
INSERT
  8
29
  2
RECT
 10
15.5265
 20
25.4635
 30
0.0000
 41
1.7516
 42
1.4016
 43
1.0000
 50
180.0000
  0
INSERT
  8
31
  2
RECT
 10
15.5265
 20
25.4635
 30
0.0000
 41
1.6500
 42
1.3000
 43
1.0000
 50
180.0000
  0
INSERT
  8
29
  2
RECT
 10
8.4765
 20
25.4635
 30
0.0000
 41
1.7516
 42
1.4016
 43
1.0000
 50
180.0000
  0
INSERT
  8
31
  2
RECT
 10
8.4765
 20
25.4635
 30
0.0000
 41
1.6500
 42
1.3000
 43
1.0000
 50
180.0000
  0
LINE
  8
29
 10
8.5090
 20
17.3355
 30
0.0000
 11
8.5090
 21
16.9545
 31
0.0000
  0
LINE
  8
29
 10
8.5090
 20
16.9545
 30
0.0000
 11
8.2550
 21
16.9545
 31
0.0000
  0
LINE
  8
29
 10
8.2550
 20
16.9545
 30
0.0000
 11
8.2550
 21
17.3355
 31
0.0000
  0
LINE
  8
29
 10
8.2550
 20
17.3355
 30
0.0000
 11
8.5090
 21
17.3355
 31
0.0000
  0
LINE
  8
29
 10
8.2550
 20
17.3355
 30
0.0000
 11
8.2550
 21
16.9545
 31
0.0000
  0
LINE
  8
29
 10
8.3820
 20
17.3355
 30
0.0000
 11
8.3820
 21
16.9545
 31
0.0000
  0
LINE
  8
21
 10
7.3660
 20
16.3830
 30
0.0000
 11
7.3660
 21
18.9230
 31
0.0000
  0
ARC
  8
21
 10
8.9408
 20
16.3830
 30
0.0000
 40
0.4572
 50
270.0000
 51
0.0000
  0
ARC
  8
21
 10
8.9408
 20
18.9230
 30
0.0000
 40
0.4572
 50
0.0000
 51
90.0000
  0
ARC
  8
21
 10
7.8232
 20
18.9230
 30
0.0000
 40
0.4572
 50
90.0000
 51
180.0000
  0
ARC
  8
21
 10
7.8232
 20
16.3830
 30
0.0000
 40
0.4572
 50
180.0000
 51
270.0000
  0
LINE
  8
21
 10
7.8232
 20
15.9258
 30
0.0000
 11
8.9408
 21
15.9258
 31
0.0000
  0
LINE
  8
21
 10
7.8232
 20
19.3802
 30
0.0000
 11
8.9408
 21
19.3802
 31
0.0000
  0
LINE
  8
21
 10
9.3980
 20
18.9230
 30
0.0000
 11
9.3980
 21
16.3830
 31
0.0000
  0
INSERT
  8
29
  2
RECT
 10
8.3820
 20
18.6690
 30
0.0000
 41
0.7366
 42
1.3716
 43
1.0000
 50
270.0000
  0
INSERT
  8
29
  2
RECT
 10
8.3820
 20
17.6530
 30
0.0000
 41
0.7366
 42
1.3716
 43
1.0000
 50
270.0000
  0
INSERT
  8
29
  2
RECT
 10
8.3820
 20
16.6370
 30
0.0000
 41
0.7366
 42
1.3716
 43
1.0000
 50
270.0000
  0
LINE
  8
29
 10
15.3670
 20
5.3975
 30
0.0000
 11
15.7480
 21
5.3975
 31
0.0000
  0
LINE
  8
29
 10
15.7480
 20
5.3975
 30
0.0000
 11
15.7480
 21
5.1435
 31
0.0000
  0
LINE
  8
29
 10
15.7480
 20
5.1435
 30
0.0000
 11
15.3670
 21
5.1435
 31
0.0000
  0
LINE
  8
29
 10
15.3670
 20
5.1435
 30
0.0000
 11
15.3670
 21
5.3975
 31
0.0000
  0
LINE
  8
29
 10
15.3670
 20
5.1435
 30
0.0000
 11
15.7480
 21
5.1435
 31
0.0000
  0
LINE
  8
29
 10
15.3670
 20
5.2705
 30
0.0000
 11
15.7480
 21
5.2705
 31
0.0000
  0
LINE
  8
21
 10
16.3195
 20
4.2545
 30
0.0000
 11
13.7795
 21
4.2545
 31
0.0000
  0
ARC
  8
21
 10
16.3195
 20
5.8293
 30
0.0000
 40
0.4572
 50
0.0000
 51
90.0000
  0
ARC
  8
21
 10
13.7795
 20
5.8293
 30
0.0000
 40
0.4572
 50
90.0000
 51
180.0000
  0
ARC
  8
21
 10
13.7795
 20
4.7117
 30
0.0000
 40
0.4572
 50
180.0000
 51
270.0000
  0
ARC
  8
21
 10
16.3195
 20
4.7117
 30
0.0000
 40
0.4572
 50
270.0000
 51
0.0000
  0
LINE
  8
21
 10
16.7767
 20
4.7117
 30
0.0000
 11
16.7767
 21
5.8293
 31
0.0000
  0
LINE
  8
21
 10
13.3223
 20
4.7117
 30
0.0000
 11
13.3223
 21
5.8293
 31
0.0000
  0
LINE
  8
21
 10
13.7795
 20
6.2865
 30
0.0000
 11
16.3195
 21
6.2865
 31
0.0000
  0
INSERT
  8
29
  2
RECT
 10
14.0335
 20
5.2705
 30
0.0000
 41
0.7366
 42
1.3716
 43
1.0000
 50
0.0000
  0
INSERT
  8
29
  2
RECT
 10
15.0495
 20
5.2705
 30
0.0000
 41
0.7366
 42
1.3716
 43
1.0000
 50
0.0000
  0
INSERT
  8
29
  2
RECT
 10
16.0655
 20
5.2705
 30
0.0000
 41
0.7366
 42
1.3716
 43
1.0000
 50
0.0000
  0
INSERT
  8
29
  2
RECT
 10
10.7188
 20
7.8486
 30
0.0000
 41
1.3208
 42
2.3368
 43
1.0000
 50
90.0000
  0
INSERT
  8
31
  2
RECT
 10
10.7188
 20
7.8486
 30
0.0000
 41
1.2192
 42
2.2352
 43
1.0000
 50
90.0000
  0
INSERT
  8
29
  2
RECT
 10
10.7188
 20
10.1600
 30
0.0000
 41
1.3208
 42
2.3368
 43
1.0000
 50
90.0000
  0
INSERT
  8
31
  2
RECT
 10
10.7188
 20
10.1600
 30
0.0000
 41
1.2192
 42
2.2352
 43
1.0000
 50
90.0000
  0
INSERT
  8
29
  2
RECT
 10
10.7188
 20
12.4714
 30
0.0000
 41
1.3208
 42
2.3368
 43
1.0000
 50
90.0000
  0
INSERT
  8
31
  2
RECT
 10
10.7188
 20
12.4714
 30
0.0000
 41
1.2192
 42
2.2352
 43
1.0000
 50
90.0000
  0
INSERT
  8
29
  2
RECT
 10
4.5210
 20
10.1600
 30
0.0000
 41
3.7016
 42
2.3016
 43
1.0000
 50
90.0000
  0
INSERT
  8
31
  2
RECT
 10
4.5210
 20
10.1600
 30
0.0000
 41
3.6000
 42
2.2000
 43
1.0000
 50
90.0000
  0
LINE
  8
21
 10
84.9899
 20
10.3885
 30
0.0000
 11
84.9899
 21
10.9885
 31
0.0000
  0
LINE
  8
21
 10
84.9899
 20
10.9885
 30
0.0000
 11
84.1899
 21
10.9885
 31
0.0000
  0
LINE
  8
21
 10
84.9899
 20
8.7885
 30
0.0000
 11
84.9899
 21
8.1885
 31
0.0000
  0
LINE
  8
21
 10
84.9899
 20
8.1885
 30
0.0000
 11
84.1899
 21
8.1885
 31
0.0000
  0
INSERT
  8
29
  2
RECT
 10
83.2899
 20
10.5385
 30
0.0000
 41
0.9016
 42
1.0016
 43
1.0000
 50
270.0000
  0
INSERT
  8
31
  2
RECT
 10
83.2899
 20
10.5385
 30
0.0000
 41
0.8000
 42
0.9000
 43
1.0000
 50
270.0000
  0
INSERT
  8
29
  2
RECT
 10
83.2899
 20
8.6385
 30
0.0000
 41
0.9016
 42
1.0016
 43
1.0000
 50
270.0000
  0
INSERT
  8
31
  2
RECT
 10
83.2899
 20
8.6385
 30
0.0000
 41
0.8000
 42
0.9000
 43
1.0000
 50
270.0000
  0
INSERT
  8
29
  2
RECT
 10
85.3899
 20
9.5885
 30
0.0000
 41
0.9016
 42
1.0016
 43
1.0000
 50
270.0000
  0
INSERT
  8
31
  2
RECT
 10
85.3899
 20
9.5885
 30
0.0000
 41
0.8000
 42
0.9000
 43
1.0000
 50
270.0000
  0
LINE
  8
21
 10
78.1700
 20
24.2950
 30
0.0000
 11
78.1700
 21
24.8950
 31
0.0000
  0
LINE
  8
21
 10
78.1700
 20
24.8950
 30
0.0000
 11
77.3700
 21
24.8950
 31
0.0000
  0
LINE
  8
21
 10
78.1700
 20
22.6950
 30
0.0000
 11
78.1700
 21
22.0950
 31
0.0000
  0
LINE
  8
21
 10
78.1700
 20
22.0950
 30
0.0000
 11
77.3700
 21
22.0950
 31
0.0000
  0
INSERT
  8
29
  2
RECT
 10
76.4700
 20
24.4450
 30
0.0000
 41
0.9016
 42
1.0016
 43
1.0000
 50
270.0000
  0
INSERT
  8
31
  2
RECT
 10
76.4700
 20
24.4450
 30
0.0000
 41
0.8000
 42
0.9000
 43
1.0000
 50
270.0000
  0
INSERT
  8
29
  2
RECT
 10
76.4700
 20
22.5450
 30
0.0000
 41
0.9016
 42
1.0016
 43
1.0000
 50
270.0000
  0
INSERT
  8
31
  2
RECT
 10
76.4700
 20
22.5450
 30
0.0000
 41
0.8000
 42
0.9000
 43
1.0000
 50
270.0000
  0
INSERT
  8
29
  2
RECT
 10
78.5700
 20
23.4950
 30
0.0000
 41
0.9016
 42
1.0016
 43
1.0000
 50
270.0000
  0
INSERT
  8
31
  2
RECT
 10
78.5700
 20
23.4950
 30
0.0000
 41
0.8000
 42
0.9000
 43
1.0000
 50
270.0000
  0
LINE
  8
21
 10
75.9460
 20
10.2235
 30
0.0000
 11
78.7400
 21
10.2235
 31
0.0000
  0
LINE
  8
21
 10
78.7400
 20
10.2235
 30
0.0000
 11
78.7400
 21
8.9535
 31
0.0000
  0
LINE
  8
21
 10
78.7400
 20
8.9535
 30
0.0000
 11
75.9460
 21
8.9535
 31
0.0000
  0
LINE
  8
21
 10
75.9460
 20
8.9535
 30
0.0000
 11
75.9460
 21
10.2235
 31
0.0000
  0
INSERT
  8
29
  2
RECT158496X158496R25
 10
76.5810
 20
9.5885
 30
0.0000
 41
1.0000
 42
1.0000
 43
1.0000
 50
0.0000
  0
INSERT
  8
31
  2
RECT142240X142240R25
 10
76.5810
 20
9.5885
 30
0.0000
 41
1.0000
 42
1.0000
 43
1.0000
 50
0.0000
  0
INSERT
  8
29
  2
RECT158496X158496R25
 10
78.1050
 20
9.5885
 30
0.0000
 41
1.0000
 42
1.0000
 43
1.0000
 50
0.0000
  0
INSERT
  8
31
  2
RECT142240X142240R25
 10
78.1050
 20
9.5885
 30
0.0000
 41
1.0000
 42
1.0000
 43
1.0000
 50
0.0000
  0
LINE
  8
21
 10
82.1754
 20
8.8265
 30
0.0000
 11
79.3813
 21
8.8265
 31
0.0000
  0
LINE
  8
21
 10
79.3813
 20
8.8265
 30
0.0000
 11
79.3813
 21
10.0965
 31
0.0000
  0
LINE
  8
21
 10
79.3813
 20
10.0965
 30
0.0000
 11
82.1754
 21
10.0965
 31
0.0000
  0
LINE
  8
21
 10
82.1754
 20
10.0965
 30
0.0000
 11
82.1754
 21
8.8265
 31
0.0000
  0
INSERT
  8
29
  2
RECT158496X158496R25
 10
81.5404
 20
9.4615
 30
0.0000
 41
1.0000
 42
1.0000
 43
1.0000
 50
180.0000
  0
INSERT
  8
31
  2
RECT142240X142240R25
 10
81.5404
 20
9.4615
 30
0.0000
 41
1.0000
 42
1.0000
 43
1.0000
 50
180.0000
  0
INSERT
  8
29
  2
RECT158496X158496R25
 10
80.0164
 20
9.4615
 30
0.0000
 41
1.0000
 42
1.0000
 43
1.0000
 50
180.0000
  0
INSERT
  8
31
  2
RECT142240X142240R25
 10
80.0164
 20
9.4615
 30
0.0000
 41
1.0000
 42
1.0000
 43
1.0000
 50
180.0000
  0
LINE
  8
21
 10
69.4690
 20
21.3360
 30
0.0000
 11
69.4690
 21
24.1300
 31
0.0000
  0
LINE
  8
21
 10
69.4690
 20
24.1300
 30
0.0000
 11
70.7390
 21
24.1300
 31
0.0000
  0
LINE
  8
21
 10
70.7390
 20
24.1300
 30
0.0000
 11
70.7390
 21
21.3360
 31
0.0000
  0
LINE
  8
21
 10
70.7390
 20
21.3360
 30
0.0000
 11
69.4690
 21
21.3360
 31
0.0000
  0
INSERT
  8
29
  2
RECT158496X158496R25
 10
70.1040
 20
21.9710
 30
0.0000
 41
1.0000
 42
1.0000
 43
1.0000
 50
90.0000
  0
INSERT
  8
31
  2
RECT142240X142240R25
 10
70.1040
 20
21.9710
 30
0.0000
 41
1.0000
 42
1.0000
 43
1.0000
 50
90.0000
  0
INSERT
  8
29
  2
RECT158496X158496R25
 10
70.1040
 20
23.4950
 30
0.0000
 41
1.0000
 42
1.0000
 43
1.0000
 50
90.0000
  0
INSERT
  8
31
  2
RECT142240X142240R25
 10
70.1040
 20
23.4950
 30
0.0000
 41
1.0000
 42
1.0000
 43
1.0000
 50
90.0000
  0
LINE
  8
21
 10
71.5645
 20
21.3995
 30
0.0000
 11
71.5645
 21
24.1935
 31
0.0000
  0
LINE
  8
21
 10
71.5645
 20
24.1935
 30
0.0000
 11
72.8345
 21
24.1935
 31
0.0000
  0
LINE
  8
21
 10
72.8345
 20
24.1935
 30
0.0000
 11
72.8345
 21
21.3995
 31
0.0000
  0
LINE
  8
21
 10
72.8345
 20
21.3995
 30
0.0000
 11
71.5645
 21
21.3995
 31
0.0000
  0
INSERT
  8
29
  2
RECT158496X158496R25
 10
72.1995
 20
22.0345
 30
0.0000
 41
1.0000
 42
1.0000
 43
1.0000
 50
90.0000
  0
INSERT
  8
31
  2
RECT142240X142240R25
 10
72.1995
 20
22.0345
 30
0.0000
 41
1.0000
 42
1.0000
 43
1.0000
 50
90.0000
  0
INSERT
  8
29
  2
RECT158496X158496R25
 10
72.1995
 20
23.5585
 30
0.0000
 41
1.0000
 42
1.0000
 43
1.0000
 50
90.0000
  0
INSERT
  8
31
  2
RECT142240X142240R25
 10
72.1995
 20
23.5585
 30
0.0000
 41
1.0000
 42
1.0000
 43
1.0000
 50
90.0000
  0
LINE
  8
21
 10
23.7490
 20
15.4305
 30
0.0000
 11
20.9550
 21
15.4305
 31
0.0000
  0
LINE
  8
21
 10
20.9550
 20
15.4305
 30
0.0000
 11
20.9550
 21
16.7005
 31
0.0000
  0
LINE
  8
21
 10
20.9550
 20
16.7005
 30
0.0000
 11
23.7490
 21
16.7005
 31
0.0000
  0
LINE
  8
21
 10
23.7490
 20
16.7005
 30
0.0000
 11
23.7490
 21
15.4305
 31
0.0000
  0
INSERT
  8
29
  2
RECT158496X158496R25
 10
23.1140
 20
16.0655
 30
0.0000
 41
1.0000
 42
1.0000
 43
1.0000
 50
180.0000
  0
INSERT
  8
31
  2
RECT142240X142240R25
 10
23.1140
 20
16.0655
 30
0.0000
 41
1.0000
 42
1.0000
 43
1.0000
 50
180.0000
  0
INSERT
  8
29
  2
RECT158496X158496R25
 10
21.5900
 20
16.0655
 30
0.0000
 41
1.0000
 42
1.0000
 43
1.0000
 50
180.0000
  0
INSERT
  8
31
  2
RECT142240X142240R25
 10
21.5900
 20
16.0655
 30
0.0000
 41
1.0000
 42
1.0000
 43
1.0000
 50
180.0000
  0
LINE
  8
21
 10
25.5905
 20
17.3990
 30
0.0000
 11
22.7965
 21
17.3990
 31
0.0000
  0
LINE
  8
21
 10
22.7965
 20
17.3990
 30
0.0000
 11
22.7965
 21
18.6690
 31
0.0000
  0
LINE
  8
21
 10
22.7965
 20
18.6690
 30
0.0000
 11
25.5905
 21
18.6690
 31
0.0000
  0
LINE
  8
21
 10
25.5905
 20
18.6690
 30
0.0000
 11
25.5905
 21
17.3990
 31
0.0000
  0
INSERT
  8
29
  2
RECT158496X158496R25
 10
24.9555
 20
18.0340
 30
0.0000
 41
1.0000
 42
1.0000
 43
1.0000
 50
180.0000
  0
INSERT
  8
31
  2
RECT142240X142240R25
 10
24.9555
 20
18.0340
 30
0.0000
 41
1.0000
 42
1.0000
 43
1.0000
 50
180.0000
  0
INSERT
  8
29
  2
RECT158496X158496R25
 10
23.4315
 20
18.0340
 30
0.0000
 41
1.0000
 42
1.0000
 43
1.0000
 50
180.0000
  0
INSERT
  8
31
  2
RECT142240X142240R25
 10
23.4315
 20
18.0340
 30
0.0000
 41
1.0000
 42
1.0000
 43
1.0000
 50
180.0000
  0
LINE
  8
21
 10
84.5185
 20
26.4160
 30
0.0000
 11
87.3125
 21
26.4160
 31
0.0000
  0
LINE
  8
21
 10
87.3125
 20
26.4160
 30
0.0000
 11
87.3125
 21
25.1460
 31
0.0000
  0
LINE
  8
21
 10
87.3125
 20
25.1460
 30
0.0000
 11
84.5185
 21
25.1460
 31
0.0000
  0
LINE
  8
21
 10
84.5185
 20
25.1460
 30
0.0000
 11
84.5185
 21
26.4160
 31
0.0000
  0
INSERT
  8
29
  2
RECT158496X158496R25
 10
85.1535
 20
25.7810
 30
0.0000
 41
1.0000
 42
1.0000
 43
1.0000
 50
0.0000
  0
INSERT
  8
31
  2
RECT142240X142240R25
 10
85.1535
 20
25.7810
 30
0.0000
 41
1.0000
 42
1.0000
 43
1.0000
 50
0.0000
  0
INSERT
  8
29
  2
RECT158496X158496R25
 10
86.6775
 20
25.7810
 30
0.0000
 41
1.0000
 42
1.0000
 43
1.0000
 50
0.0000
  0
INSERT
  8
31
  2
RECT142240X142240R25
 10
86.6775
 20
25.7810
 30
0.0000
 41
1.0000
 42
1.0000
 43
1.0000
 50
0.0000
  0
LINE
  8
21
 10
26.6700
 20
19.2405
 30
0.0000
 11
23.8760
 21
19.2405
 31
0.0000
  0
LINE
  8
21
 10
23.8760
 20
19.2405
 30
0.0000
 11
23.8760
 21
20.5105
 31
0.0000
  0
LINE
  8
21
 10
23.8760
 20
20.5105
 30
0.0000
 11
26.6700
 21
20.5105
 31
0.0000
  0
LINE
  8
21
 10
26.6700
 20
20.5105
 30
0.0000
 11
26.6700
 21
19.2405
 31
0.0000
  0
INSERT
  8
29
  2
RECT158496X158496R25
 10
26.0350
 20
19.8755
 30
0.0000
 41
1.0000
 42
1.0000
 43
1.0000
 50
180.0000
  0
INSERT
  8
31
  2
RECT142240X142240R25
 10
26.0350
 20
19.8755
 30
0.0000
 41
1.0000
 42
1.0000
 43
1.0000
 50
180.0000
  0
INSERT
  8
29
  2
RECT158496X158496R25
 10
24.5110
 20
19.8755
 30
0.0000
 41
1.0000
 42
1.0000
 43
1.0000
 50
180.0000
  0
INSERT
  8
31
  2
RECT142240X142240R25
 10
24.5110
 20
19.8755
 30
0.0000
 41
1.0000
 42
1.0000
 43
1.0000
 50
180.0000
  0
LINE
  8
21
 10
27.8130
 20
21.2725
 30
0.0000
 11
25.0190
 21
21.2725
 31
0.0000
  0
LINE
  8
21
 10
25.0190
 20
21.2725
 30
0.0000
 11
25.0190
 21
22.5425
 31
0.0000
  0
LINE
  8
21
 10
25.0190
 20
22.5425
 30
0.0000
 11
27.8130
 21
22.5425
 31
0.0000
  0
LINE
  8
21
 10
27.8130
 20
22.5425
 30
0.0000
 11
27.8130
 21
21.2725
 31
0.0000
  0
INSERT
  8
29
  2
RECT158496X158496R25
 10
27.1780
 20
21.9075
 30
0.0000
 41
1.0000
 42
1.0000
 43
1.0000
 50
180.0000
  0
INSERT
  8
31
  2
RECT142240X142240R25
 10
27.1780
 20
21.9075
 30
0.0000
 41
1.0000
 42
1.0000
 43
1.0000
 50
180.0000
  0
INSERT
  8
29
  2
RECT158496X158496R25
 10
25.6540
 20
21.9075
 30
0.0000
 41
1.0000
 42
1.0000
 43
1.0000
 50
180.0000
  0
INSERT
  8
31
  2
RECT142240X142240R25
 10
25.6540
 20
21.9075
 30
0.0000
 41
1.0000
 42
1.0000
 43
1.0000
 50
180.0000
  0
LINE
  8
21
 10
64.4525
 20
25.0190
 30
0.0000
 11
64.4525
 21
27.8130
 31
0.0000
  0
LINE
  8
21
 10
64.4525
 20
27.8130
 30
0.0000
 11
65.7225
 21
27.8130
 31
0.0000
  0
LINE
  8
21
 10
65.7225
 20
27.8130
 30
0.0000
 11
65.7225
 21
25.0190
 31
0.0000
  0
LINE
  8
21
 10
65.7225
 20
25.0190
 30
0.0000
 11
64.4525
 21
25.0190
 31
0.0000
  0
INSERT
  8
29
  2
RECT158496X158496R25
 10
65.0875
 20
25.6540
 30
0.0000
 41
1.0000
 42
1.0000
 43
1.0000
 50
90.0000
  0
INSERT
  8
31
  2
RECT142240X142240R25
 10
65.0875
 20
25.6540
 30
0.0000
 41
1.0000
 42
1.0000
 43
1.0000
 50
90.0000
  0
INSERT
  8
29
  2
RECT158496X158496R25
 10
65.0875
 20
27.1780
 30
0.0000
 41
1.0000
 42
1.0000
 43
1.0000
 50
90.0000
  0
INSERT
  8
31
  2
RECT142240X142240R25
 10
65.0875
 20
27.1780
 30
0.0000
 41
1.0000
 42
1.0000
 43
1.0000
 50
90.0000
  0
INSERT
  8
29
  2
RECT
 10
89.7890
 20
22.0320
 30
0.0000
 41
2.5146
 42
1.2446
 43
1.0000
 50
0.0000
  0
INSERT
  8
31
  2
RECT
 10
89.7890
 20
22.0320
 30
0.0000
 41
2.4130
 42
1.1430
 43
1.0000
 50
0.0000
  0
ARC
  8
21
 10
93.8176
 20
22.2197
 30
0.0000
 40
0.0677
 50
270.0000
 51
0.0000
  0
ARC
  8
21
 10
93.8176
 20
22.2951
 30
0.0000
 40
0.1431
 50
224.7621
 51
270.0001
  0
ARC
  8
21
 10
93.7922
 20
22.3891
 30
0.0000
 40
0.0677
 50
89.9974
 51
180.0000
  0
ARC
  8
21
 10
93.7922
 20
22.3298
 30
0.0000
 40
0.1270
 50
53.1329
 51
89.9972
  0
ARC
  8
21
 10
93.7933
 20
22.3891
 30
0.0000
 40
0.0688
 50
179.9999
 51
239.4892
  0
ARC
  8
21
 10
93.8165
 20
22.2197
 30
0.0000
 40
0.0688
 50
0.0002
 51
59.4863
  0
LINE
  8
21
 10
93.8515
 20
22.2790
 30
0.0000
 11
93.7583
 21
22.3298
 31
0.0000
  0
LINE
  8
21
 10
93.9812
 20
22.3891
 30
0.0000
 11
94.0658
 21
22.4568
 31
0.0000
  0
LINE
  8
21
 10
94.0658
 20
22.4568
 30
0.0000
 11
94.0658
 21
22.1520
 31
0.0000
  0
LINE
  8
21
 10
93.9812
 20
22.1520
 30
0.0000
 11
94.1505
 21
22.1520
 31
0.0000
  0
LINE
  8
21
 10
94.2568
 20
22.2705
 30
0.0000
 11
94.4600
 21
22.2705
 31
0.0000
  0
INSERT
  8
29
  2
RECT
 10
94.4880
 20
21.9850
 30
0.0000
 41
2.5146
 42
1.2446
 43
1.0000
 50
0.0000
  0
INSERT
  8
31
  2
RECT
 10
94.4880
 20
21.9850
 30
0.0000
 41
2.4130
 42
1.1430
 43
1.0000
 50
0.0000
  0
INSERT
  8
29
  2
RECT
 10
67.6910
 20
27.3520
 30
0.0000
 41
2.5146
 42
1.2446
 43
1.0000
 50
0.0000
  0
INSERT
  8
31
  2
RECT
 10
67.6910
 20
27.3520
 30
0.0000
 41
2.4130
 42
1.1430
 43
1.0000
 50
0.0000
  0
INSERT
  8
29
  2
RECT
 10
71.6280
 20
27.3990
 30
0.0000
 41
2.5146
 42
1.2446
 43
1.0000
 50
0.0000
  0
INSERT
  8
31
  2
RECT
 10
71.6280
 20
27.3990
 30
0.0000
 41
2.4130
 42
1.1430
 43
1.0000
 50
0.0000
  0
INSERT
  8
29
  2
PIE
 10
13.7160
 20
17.2720
 30
0.0000
 41
0.9016
 42
0.9016
 43
1.0000
 50
0.0000
  0
INSERT
  8
29
  2
PIE
 10
12.4460
 20
17.2720
 30
0.0000
 41
0.9016
 42
0.9016
 43
1.0000
 50
0.0000
  0
INSERT
  8
29
  2
RECT
 10
80.2640
 20
4.9810
 30
0.0000
 41
1.4732
 42
2.6416
 43
1.0000
 50
0.0000
  0
INSERT
  8
31
  2
RECT
 10
80.2640
 20
4.9810
 30
0.0000
 41
1.3716
 42
2.5400
 43
1.0000
 50
0.0000
  0
INSERT
  8
29
  2
RECT
 10
82.0420
 20
4.9810
 30
0.0000
 41
1.4732
 42
2.6416
 43
1.0000
 50
0.0000
  0
INSERT
  8
31
  2
RECT
 10
82.0420
 20
4.9810
 30
0.0000
 41
1.3716
 42
2.5400
 43
1.0000
 50
0.0000
  0
INSERT
  8
29
  2
RECT
 10
85.1090
 20
22.0980
 30
0.0000
 41
2.5146
 42
1.2446
 43
1.0000
 50
90.0000
  0
INSERT
  8
31
  2
RECT
 10
85.1090
 20
22.0980
 30
0.0000
 41
2.4130
 42
1.1430
 43
1.0000
 50
90.0000
  0
ARC
  8
21
 10
84.8743
 20
21.4276
 30
0.0000
 40
0.0677
 50
0.0000
 51
90.0000
  0
ARC
  8
21
 10
84.7989
 20
21.4276
 30
0.0000
 40
0.1431
 50
314.7621
 51
0.0001
  0
ARC
  8
21
 10
84.7049
 20
21.4022
 30
0.0000
 40
0.0677
 50
180.0000
 51
270.0000
  0
ARC
  8
21
 10
84.7642
 20
21.4022
 30
0.0000
 40
0.1270
 50
143.1301
 51
180.0000
  0
ARC
  8
21
 10
84.7049
 20
21.4033
 30
0.0000
 40
0.0688
 50
269.9988
 51
329.4903
  0
ARC
  8
21
 10
84.8743
 20
21.4265
 30
0.0000
 40
0.0688
 50
90.0002
 51
149.4863
  0
LINE
  8
21
 10
84.8150
 20
21.4615
 30
0.0000
 11
84.7642
 21
21.3683
 31
0.0000
  0
LINE
  8
21
 10
84.8573
 20
21.5912
 30
0.0000
 11
84.7219
 21
21.5912
 31
0.0000
  0
ARC
  8
21
 10
84.7219
 20
21.6758
 30
0.0000
 40
0.0847
 50
90.0000
 51
270.0000
  0
LINE
  8
21
 10
84.7219
 20
21.7605
 30
0.0000
 11
84.8573
 21
21.7605
 31
0.0000
  0
ARC
  8
21
 10
84.8573
 20
21.6758
 30
0.0000
 40
0.0847
 50
270.0000
 51
90.0000
  0
LINE
  8
21
 10
84.6372
 20
21.8749
 30
0.0000
 11
84.9420
 21
21.8749
 31
0.0000
  0
LINE
  8
21
 10
84.9420
 20
21.8749
 30
0.0000
 11
84.9420
 21
22.0104
 31
0.0000
  0
ARC
  8
21
 10
84.7134
 20
22.1964
 30
0.0000
 40
0.0762
 50
90.0000
 51
180.0000
  0
ARC
  8
21
 10
84.7351
 20
22.1964
 30
0.0000
 40
0.0979
 50
179.9995
 51
252.0573
  0
ARC
  8
21
 10
84.7134
 20
22.1907
 30
0.0000
 40
0.0819
 50
43.6045
 51
89.9998
  0
LINE
  8
21
 10
84.7727
 20
22.2472
 30
0.0000
 11
84.9420
 21
22.1032
 31
0.0000
  0
LINE
  8
21
 10
84.9420
 20
22.1032
 30
0.0000
 11
84.9420
 21
22.2726
 31
0.0000
  0
LINE
  8
21
 10
84.8235
 20
22.3789
 30
0.0000
 11
84.8235
 21
22.5821
 31
0.0000
  0
LINE
  8
21
 10
84.9251
 20
22.4805
 30
0.0000
 11
84.7219
 21
22.4805
 31
0.0000
  0
INSERT
  8
29
  2
RECT
 10
81.0260
 20
27.0790
 30
0.0000
 41
2.5146
 42
1.2446
 43
1.0000
 50
0.0000
  0
INSERT
  8
31
  2
RECT
 10
81.0260
 20
27.0790
 30
0.0000
 41
2.4130
 42
1.1430
 43
1.0000
 50
0.0000
  0
INSERT
  8
29
  2
RECT
 10
93.8276
 20
10.7823
 30
0.0000
 41
1.4116
 42
2.0316
 43
1.0000
 50
296.0000
  0
INSERT
  8
31
  2
RECT
 10
93.8276
 20
10.7823
 30
0.0000
 41
1.3100
 42
1.9300
 43
1.0000
 50
296.0000
  0
INSERT
  8
29
  2
RECT
 10
93.0783
 20
12.3571
 30
0.0000
 41
1.4116
 42
2.0316
 43
1.0000
 50
296.0000
  0
INSERT
  8
31
  2
RECT
 10
93.0783
 20
12.3571
 30
0.0000
 41
1.3100
 42
1.9300
 43
1.0000
 50
296.0000
  0
INSERT
  8
29
  2
RECT
 10
94.6277
 20
9.2202
 30
0.0000
 41
1.4116
 42
2.0316
 43
1.0000
 50
296.0000
  0
INSERT
  8
31
  2
RECT
 10
94.6277
 20
9.2202
 30
0.0000
 41
1.3100
 42
1.9300
 43
1.0000
 50
296.0000
  0
INSERT
  8
29
  2
RECT
 10
95.4405
 20
7.6962
 30
0.0000
 41
1.4116
 42
2.0316
 43
1.0000
 50
296.0000
  0
INSERT
  8
31
  2
RECT
 10
95.4405
 20
7.6962
 30
0.0000
 41
1.3100
 42
1.9300
 43
1.0000
 50
296.0000
  0
INSERT
  8
29
  2
RECT
 10
90.7796
 20
17.0942
 30
0.0000
 41
1.4116
 42
2.0316
 43
1.0000
 50
296.0000
  0
INSERT
  8
31
  2
RECT
 10
90.7796
 20
17.0942
 30
0.0000
 41
1.3100
 42
1.9300
 43
1.0000
 50
296.0000
  0
INSERT
  8
29
  2
RECT
 10
91.5416
 20
15.5194
 30
0.0000
 41
1.4116
 42
2.0316
 43
1.0000
 50
296.0000
  0
INSERT
  8
31
  2
RECT
 10
91.5416
 20
15.5194
 30
0.0000
 41
1.3100
 42
1.9300
 43
1.0000
 50
296.0000
  0
INSERT
  8
29
  2
RECT
 10
92.3036
 20
13.9446
 30
0.0000
 41
1.4116
 42
2.0316
 43
1.0000
 50
296.0000
  0
INSERT
  8
31
  2
RECT
 10
92.3036
 20
13.9446
 30
0.0000
 41
1.3100
 42
1.9300
 43
1.0000
 50
296.0000
  0
INSERT
  8
29
  2
RECT
 10
18.8214
 20
25.1333
 30
0.0000
 41
2.0516
 42
2.0516
 43
1.0000
 50
0.0000
  0
INSERT
  8
31
  2
RECT
 10
18.8214
 20
25.1333
 30
0.0000
 41
1.9500
 42
1.9500
 43
1.0000
 50
0.0000
  0
INSERT
  8
29
  2
RECT
 10
24.9682
 20
25.1460
 30
0.0000
 41
2.0516
 42
2.0516
 43
1.0000
 50
0.0000
  0
INSERT
  8
31
  2
RECT
 10
24.9682
 20
25.1460
 30
0.0000
 41
1.9500
 42
1.9500
 43
1.0000
 50
0.0000
  0
INSERT
  8
29
  2
RECT
 10
21.1836
 20
25.1460
 30
0.0000
 41
1.1516
 42
2.0516
 43
1.0000
 50
0.0000
  0
INSERT
  8
31
  2
RECT
 10
21.1836
 20
25.1460
 30
0.0000
 41
1.0500
 42
1.9500
 43
1.0000
 50
0.0000
  0
INSERT
  8
29
  2
RECT
 10
22.8346
 20
25.1714
 30
0.0000
 41
1.1516
 42
2.0516
 43
1.0000
 50
0.0000
  0
INSERT
  8
31
  2
RECT
 10
22.8346
 20
25.1714
 30
0.0000
 41
1.0500
 42
1.9500
 43
1.0000
 50
0.0000
  0
LINE
  8
21
 10
80.8990
 20
21.5303
 30
0.0000
 11
85.8558
 21
16.5735
 31
0.0000
  0
LINE
  8
21
 10
85.8558
 20
16.5735
 30
0.0000
 11
80.8990
 21
11.6167
 31
0.0000
  0
LINE
  8
21
 10
80.8990
 20
11.6167
 30
0.0000
 11
76.1932
 21
16.3225
 31
0.0000
  0
LINE
  8
21
 10
76.1932
 20
16.8245
 30
0.0000
 11
80.8990
 21
21.5303
 31
0.0000
  0
LINE
  8
21
 10
76.1932
 20
16.8245
 30
0.0000
 11
76.1932
 21
16.3225
 31
0.0000
  0
CIRCLE
  8
21
 10
75.7084
 20
16.5915
 30
0.0000
 40
0.1524
  0
INSERT
  8
29
  2
RECT
 10
75.8838
 20
15.5181
 30
0.0000
 41
1.3716
 42
0.6604
 43
1.0000
 50
45.0000
  0
INSERT
  8
31
  2
RECT
 10
75.8838
 20
15.5181
 30
0.0000
 41
1.2700
 42
0.5588
 43
1.0000
 50
45.0000
  0
INSERT
  8
29
  2
RECT
 10
76.4495
 20
14.9524
 30
0.0000
 41
1.3716
 42
0.6604
 43
1.0000
 50
45.0000
  0
INSERT
  8
31
  2
RECT
 10
76.4495
 20
14.9524
 30
0.0000
 41
1.2700
 42
0.5588
 43
1.0000
 50
45.0000
  0
INSERT
  8
29
  2
RECT
 10
77.0151
 20
14.3867
 30
0.0000
 41
1.3716
 42
0.6604
 43
1.0000
 50
45.0000
  0
INSERT
  8
31
  2
RECT
 10
77.0151
 20
14.3867
 30
0.0000
 41
1.2700
 42
0.5588
 43
1.0000
 50
45.0000
  0
INSERT
  8
29
  2
RECT
 10
77.5808
 20
13.8210
 30
0.0000
 41
1.3716
 42
0.6604
 43
1.0000
 50
45.0000
  0
INSERT
  8
31
  2
RECT
 10
77.5808
 20
13.8210
 30
0.0000
 41
1.2700
 42
0.5588
 43
1.0000
 50
45.0000
  0
INSERT
  8
29
  2
RECT
 10
78.1465
 20
13.2553
 30
0.0000
 41
1.3716
 42
0.6604
 43
1.0000
 50
45.0000
  0
INSERT
  8
31
  2
RECT
 10
78.1465
 20
13.2553
 30
0.0000
 41
1.2700
 42
0.5588
 43
1.0000
 50
45.0000
  0
INSERT
  8
29
  2
RECT
 10
78.7122
 20
12.6896
 30
0.0000
 41
1.3716
 42
0.6604
 43
1.0000
 50
45.0000
  0
INSERT
  8
31
  2
RECT
 10
78.7122
 20
12.6896
 30
0.0000
 41
1.2700
 42
0.5588
 43
1.0000
 50
45.0000
  0
INSERT
  8
29
  2
RECT
 10
79.2779
 20
12.1240
 30
0.0000
 41
1.3716
 42
0.6604
 43
1.0000
 50
45.0000
  0
INSERT
  8
31
  2
RECT
 10
79.2779
 20
12.1240
 30
0.0000
 41
1.2700
 42
0.5588
 43
1.0000
 50
45.0000
  0
INSERT
  8
29
  2
RECT
 10
79.8436
 20
11.5583
 30
0.0000
 41
1.3716
 42
0.6604
 43
1.0000
 50
45.0000
  0
INSERT
  8
31
  2
RECT
 10
79.8436
 20
11.5583
 30
0.0000
 41
1.2700
 42
0.5588
 43
1.0000
 50
45.0000
  0
INSERT
  8
29
  2
RECT
 10
81.9544
 20
11.5583
 30
0.0000
 41
0.6604
 42
1.3716
 43
1.0000
 50
45.0000
  0
INSERT
  8
31
  2
RECT
 10
81.9544
 20
11.5583
 30
0.0000
 41
0.5588
 42
1.2700
 43
1.0000
 50
45.0000
  0
INSERT
  8
29
  2
RECT
 10
82.5201
 20
12.1240
 30
0.0000
 41
0.6604
 42
1.3716
 43
1.0000
 50
45.0000
  0
INSERT
  8
31
  2
RECT
 10
82.5201
 20
12.1240
 30
0.0000
 41
0.5588
 42
1.2700
 43
1.0000
 50
45.0000
  0
INSERT
  8
29
  2
RECT
 10
83.0858
 20
12.6896
 30
0.0000
 41
0.6604
 42
1.3716
 43
1.0000
 50
45.0000
  0
INSERT
  8
31
  2
RECT
 10
83.0858
 20
12.6896
 30
0.0000
 41
0.5588
 42
1.2700
 43
1.0000
 50
45.0000
  0
INSERT
  8
29
  2
RECT
 10
83.6515
 20
13.2553
 30
0.0000
 41
0.6604
 42
1.3716
 43
1.0000
 50
45.0000
  0
INSERT
  8
31
  2
RECT
 10
83.6515
 20
13.2553
 30
0.0000
 41
0.5588
 42
1.2700
 43
1.0000
 50
45.0000
  0
INSERT
  8
29
  2
RECT
 10
84.2172
 20
13.8210
 30
0.0000
 41
0.6604
 42
1.3716
 43
1.0000
 50
45.0000
  0
INSERT
  8
31
  2
RECT
 10
84.2172
 20
13.8210
 30
0.0000
 41
0.5588
 42
1.2700
 43
1.0000
 50
45.0000
  0
INSERT
  8
29
  2
RECT
 10
84.7829
 20
14.3867
 30
0.0000
 41
0.6604
 42
1.3716
 43
1.0000
 50
45.0000
  0
INSERT
  8
31
  2
RECT
 10
84.7829
 20
14.3867
 30
0.0000
 41
0.5588
 42
1.2700
 43
1.0000
 50
45.0000
  0
INSERT
  8
29
  2
RECT
 10
85.3485
 20
14.9524
 30
0.0000
 41
0.6604
 42
1.3716
 43
1.0000
 50
45.0000
  0
INSERT
  8
31
  2
RECT
 10
85.3485
 20
14.9524
 30
0.0000
 41
0.5588
 42
1.2700
 43
1.0000
 50
45.0000
  0
INSERT
  8
29
  2
RECT
 10
85.9142
 20
15.5181
 30
0.0000
 41
0.6604
 42
1.3716
 43
1.0000
 50
45.0000
  0
INSERT
  8
31
  2
RECT
 10
85.9142
 20
15.5181
 30
0.0000
 41
0.5588
 42
1.2700
 43
1.0000
 50
45.0000
  0
INSERT
  8
29
  2
RECT
 10
85.9142
 20
17.6289
 30
0.0000
 41
1.3716
 42
0.6604
 43
1.0000
 50
45.0000
  0
INSERT
  8
31
  2
RECT
 10
85.9142
 20
17.6289
 30
0.0000
 41
1.2700
 42
0.5588
 43
1.0000
 50
45.0000
  0
INSERT
  8
29
  2
RECT
 10
85.3485
 20
18.1946
 30
0.0000
 41
1.3716
 42
0.6604
 43
1.0000
 50
45.0000
  0
INSERT
  8
31
  2
RECT
 10
85.3485
 20
18.1946
 30
0.0000
 41
1.2700
 42
0.5588
 43
1.0000
 50
45.0000
  0
INSERT
  8
29
  2
RECT
 10
84.7829
 20
18.7603
 30
0.0000
 41
1.3716
 42
0.6604
 43
1.0000
 50
45.0000
  0
INSERT
  8
31
  2
RECT
 10
84.7829
 20
18.7603
 30
0.0000
 41
1.2700
 42
0.5588
 43
1.0000
 50
45.0000
  0
INSERT
  8
29
  2
RECT
 10
84.2172
 20
19.3260
 30
0.0000
 41
1.3716
 42
0.6604
 43
1.0000
 50
45.0000
  0
INSERT
  8
31
  2
RECT
 10
84.2172
 20
19.3260
 30
0.0000
 41
1.2700
 42
0.5588
 43
1.0000
 50
45.0000
  0
INSERT
  8
29
  2
RECT
 10
83.6515
 20
19.8917
 30
0.0000
 41
1.3716
 42
0.6604
 43
1.0000
 50
45.0000
  0
INSERT
  8
31
  2
RECT
 10
83.6515
 20
19.8917
 30
0.0000
 41
1.2700
 42
0.5588
 43
1.0000
 50
45.0000
  0
INSERT
  8
29
  2
RECT
 10
83.0858
 20
20.4574
 30
0.0000
 41
1.3716
 42
0.6604
 43
1.0000
 50
45.0000
  0
INSERT
  8
31
  2
RECT
 10
83.0858
 20
20.4574
 30
0.0000
 41
1.2700
 42
0.5588
 43
1.0000
 50
45.0000
  0
INSERT
  8
29
  2
RECT
 10
82.5201
 20
21.0230
 30
0.0000
 41
1.3716
 42
0.6604
 43
1.0000
 50
45.0000
  0
INSERT
  8
31
  2
RECT
 10
82.5201
 20
21.0230
 30
0.0000
 41
1.2700
 42
0.5588
 43
1.0000
 50
45.0000
  0
INSERT
  8
29
  2
RECT
 10
81.9544
 20
21.5887
 30
0.0000
 41
1.3716
 42
0.6604
 43
1.0000
 50
45.0000
  0
INSERT
  8
31
  2
RECT
 10
81.9544
 20
21.5887
 30
0.0000
 41
1.2700
 42
0.5588
 43
1.0000
 50
45.0000
  0
INSERT
  8
29
  2
RECT
 10
79.8436
 20
21.5887
 30
0.0000
 41
0.6604
 42
1.3716
 43
1.0000
 50
45.0000
  0
INSERT
  8
31
  2
RECT
 10
79.8436
 20
21.5887
 30
0.0000
 41
0.5588
 42
1.2700
 43
1.0000
 50
45.0000
  0
INSERT
  8
29
  2
RECT
 10
79.2779
 20
21.0230
 30
0.0000
 41
0.6604
 42
1.3716
 43
1.0000
 50
45.0000
  0
INSERT
  8
31
  2
RECT
 10
79.2779
 20
21.0230
 30
0.0000
 41
0.5588
 42
1.2700
 43
1.0000
 50
45.0000
  0
INSERT
  8
29
  2
RECT
 10
78.7122
 20
20.4574
 30
0.0000
 41
0.6604
 42
1.3716
 43
1.0000
 50
45.0000
  0
INSERT
  8
31
  2
RECT
 10
78.7122
 20
20.4574
 30
0.0000
 41
0.5588
 42
1.2700
 43
1.0000
 50
45.0000
  0
INSERT
  8
29
  2
RECT
 10
78.1465
 20
19.8917
 30
0.0000
 41
0.6604
 42
1.3716
 43
1.0000
 50
45.0000
  0
INSERT
  8
31
  2
RECT
 10
78.1465
 20
19.8917
 30
0.0000
 41
0.5588
 42
1.2700
 43
1.0000
 50
45.0000
  0
INSERT
  8
29
  2
RECT
 10
77.5808
 20
19.3260
 30
0.0000
 41
0.6604
 42
1.3716
 43
1.0000
 50
45.0000
  0
INSERT
  8
31
  2
RECT
 10
77.5808
 20
19.3260
 30
0.0000
 41
0.5588
 42
1.2700
 43
1.0000
 50
45.0000
  0
INSERT
  8
29
  2
RECT
 10
77.0151
 20
18.7603
 30
0.0000
 41
0.6604
 42
1.3716
 43
1.0000
 50
45.0000
  0
INSERT
  8
31
  2
RECT
 10
77.0151
 20
18.7603
 30
0.0000
 41
0.5588
 42
1.2700
 43
1.0000
 50
45.0000
  0
INSERT
  8
29
  2
RECT
 10
76.4495
 20
18.1946
 30
0.0000
 41
0.6604
 42
1.3716
 43
1.0000
 50
45.0000
  0
INSERT
  8
31
  2
RECT
 10
76.4495
 20
18.1946
 30
0.0000
 41
0.5588
 42
1.2700
 43
1.0000
 50
45.0000
  0
INSERT
  8
29
  2
RECT
 10
75.8838
 20
17.6289
 30
0.0000
 41
0.6604
 42
1.3716
 43
1.0000
 50
45.0000
  0
INSERT
  8
31
  2
RECT
 10
75.8838
 20
17.6289
 30
0.0000
 41
0.5588
 42
1.2700
 43
1.0000
 50
45.0000
  0
INSERT
  8
29
  2
RECT
 10
75.1686
 20
12.1542
 30
0.0000
 41
1.7016
 42
0.4016
 43
1.0000
 50
0.0000
  0
INSERT
  8
31
  2
RECT
 10
75.1686
 20
12.1542
 30
0.0000
 41
1.6000
 42
0.3000
 43
1.0000
 50
0.0000
  0
INSERT
  8
29
  2
RECT
 10
75.1706
 20
13.1042
 30
0.0000
 41
1.7016
 42
0.4016
 43
1.0000
 50
0.0000
  0
INSERT
  8
31
  2
RECT
 10
75.1706
 20
13.1042
 30
0.0000
 41
1.6000
 42
0.3000
 43
1.0000
 50
0.0000
  0
INSERT
  8
29
  2
RECT
 10
75.1676
 20
11.2002
 30
0.0000
 41
1.7016
 42
0.4016
 43
1.0000
 50
0.0000
  0
INSERT
  8
31
  2
RECT
 10
75.1676
 20
11.2002
 30
0.0000
 41
1.6000
 42
0.3000
 43
1.0000
 50
0.0000
  0
ENDSEC
  0
EOF
