G75*
%MOIN*%
%OFA0B0*%
%FSLAX25Y25*%
%IPPOS*%
%LPD*%
%AMOC8*
5,1,8,0,0,1.08239X$1,22.5*
%
%ADD10C,0.00600*%
%ADD11C,0.00500*%
%ADD12C,0.00800*%
%ADD13C,0.00000*%
%ADD14C,0.01100*%
%ADD15R,0.00787X0.00787*%
%ADD16C,0.01200*%
D10*
X0017703Y0038877D02*
X0017703Y0053068D01*
X0017473Y0054223D01*
X0016826Y0055511D01*
X0015826Y0056843D01*
X0014540Y0058131D01*
X0013031Y0059287D01*
X0011367Y0060221D01*
X0009609Y0060847D01*
X0007826Y0061075D01*
X0001300Y0061075D01*
X0001300Y0093285D01*
X0011489Y0093363D01*
X0012380Y0093845D01*
X0013016Y0094600D01*
X0013395Y0095536D01*
X0013520Y0096561D01*
X0013391Y0097585D01*
X0013008Y0098513D01*
X0012374Y0099256D01*
X0011489Y0099720D01*
X0001300Y0099735D01*
X0001300Y0114803D02*
X0011489Y0114803D01*
X0013651Y0115090D01*
X0015486Y0115887D01*
X0017005Y0117096D01*
X0018220Y0118620D01*
X0019144Y0120362D01*
X0019789Y0122225D01*
X0020167Y0124111D01*
X0020291Y0125924D01*
X0020291Y0145461D01*
X0045202Y0128078D02*
X0045592Y0128199D01*
X0046011Y0128242D01*
X0078563Y0128242D01*
X0078982Y0128199D01*
X0079372Y0128078D01*
X0079726Y0127885D01*
X0080035Y0127630D01*
X0080289Y0127321D01*
X0080482Y0126968D01*
X0080604Y0126577D01*
X0080646Y0126159D01*
X0080646Y0105976D01*
X0080604Y0105558D01*
X0080482Y0105167D01*
X0080289Y0104813D01*
X0080035Y0104505D01*
X0079726Y0104250D01*
X0079372Y0104057D01*
X0078982Y0103935D01*
X0078563Y0103893D01*
X0046011Y0103893D01*
X0045592Y0103935D01*
X0045202Y0104057D01*
X0044848Y0104250D01*
X0044539Y0104505D01*
X0044285Y0104813D01*
X0044092Y0105167D01*
X0043970Y0105558D01*
X0043928Y0105976D01*
X0043928Y0126159D01*
X0043970Y0126577D01*
X0044092Y0126968D01*
X0044285Y0127321D01*
X0044539Y0127630D01*
X0044848Y0127885D01*
X0045202Y0128078D01*
X0042272Y0124858D02*
X0041550Y0124858D01*
X0042272Y0124858D02*
X0042272Y0122258D01*
X0042272Y0123414D02*
X0041550Y0123414D01*
X0041405Y0123414D02*
X0040827Y0122258D01*
X0039423Y0122258D02*
X0037978Y0122258D01*
X0038701Y0122258D02*
X0038701Y0124858D01*
X0039423Y0124281D01*
X0041550Y0124858D02*
X0041497Y0124856D01*
X0041445Y0124850D01*
X0041393Y0124841D01*
X0041342Y0124827D01*
X0041292Y0124810D01*
X0041244Y0124790D01*
X0041197Y0124766D01*
X0041152Y0124738D01*
X0041109Y0124707D01*
X0041068Y0124674D01*
X0041030Y0124637D01*
X0040995Y0124598D01*
X0040963Y0124556D01*
X0040934Y0124512D01*
X0040908Y0124466D01*
X0040886Y0124418D01*
X0040867Y0124369D01*
X0040851Y0124319D01*
X0040840Y0124267D01*
X0040832Y0124215D01*
X0040828Y0124162D01*
X0040828Y0124110D01*
X0040832Y0124057D01*
X0040840Y0124005D01*
X0040851Y0123953D01*
X0040867Y0123903D01*
X0040886Y0123854D01*
X0040908Y0123806D01*
X0040934Y0123760D01*
X0040963Y0123716D01*
X0040995Y0123674D01*
X0041030Y0123635D01*
X0041068Y0123598D01*
X0041109Y0123565D01*
X0041152Y0123534D01*
X0041197Y0123506D01*
X0041244Y0123482D01*
X0041292Y0123462D01*
X0041342Y0123445D01*
X0041393Y0123431D01*
X0041445Y0123422D01*
X0041497Y0123416D01*
X0041550Y0123414D01*
X0036543Y0122836D02*
X0035965Y0124858D01*
X0035532Y0123414D02*
X0035532Y0122258D01*
X0035098Y0122836D02*
X0036543Y0122836D01*
X0036543Y0117483D02*
X0035676Y0117483D01*
X0035676Y0117484D02*
X0035629Y0117482D01*
X0035583Y0117477D01*
X0035538Y0117467D01*
X0035493Y0117454D01*
X0035449Y0117438D01*
X0035407Y0117418D01*
X0035367Y0117395D01*
X0035329Y0117368D01*
X0035293Y0117339D01*
X0035259Y0117306D01*
X0035228Y0117272D01*
X0035200Y0117234D01*
X0035175Y0117195D01*
X0035154Y0117154D01*
X0035136Y0117111D01*
X0035121Y0117067D01*
X0035110Y0117022D01*
X0035102Y0116976D01*
X0035098Y0116929D01*
X0035098Y0116883D01*
X0035102Y0116836D01*
X0035110Y0116790D01*
X0035121Y0116745D01*
X0035136Y0116701D01*
X0035154Y0116658D01*
X0035175Y0116617D01*
X0035200Y0116578D01*
X0035228Y0116540D01*
X0035259Y0116506D01*
X0035293Y0116473D01*
X0035329Y0116444D01*
X0035367Y0116417D01*
X0035407Y0116394D01*
X0035449Y0116374D01*
X0035493Y0116358D01*
X0035538Y0116345D01*
X0035583Y0116335D01*
X0035629Y0116330D01*
X0035676Y0116328D01*
X0036254Y0116328D01*
X0035821Y0116328D02*
X0035768Y0116326D01*
X0035716Y0116320D01*
X0035664Y0116311D01*
X0035613Y0116297D01*
X0035563Y0116280D01*
X0035515Y0116260D01*
X0035468Y0116236D01*
X0035423Y0116208D01*
X0035380Y0116177D01*
X0035339Y0116144D01*
X0035301Y0116107D01*
X0035266Y0116068D01*
X0035234Y0116026D01*
X0035205Y0115982D01*
X0035179Y0115936D01*
X0035157Y0115888D01*
X0035138Y0115839D01*
X0035122Y0115789D01*
X0035111Y0115737D01*
X0035103Y0115685D01*
X0035099Y0115632D01*
X0035099Y0115580D01*
X0035103Y0115527D01*
X0035111Y0115475D01*
X0035122Y0115423D01*
X0035138Y0115373D01*
X0035157Y0115324D01*
X0035179Y0115276D01*
X0035205Y0115230D01*
X0035234Y0115186D01*
X0035266Y0115144D01*
X0035301Y0115105D01*
X0035339Y0115068D01*
X0035380Y0115035D01*
X0035423Y0115004D01*
X0035468Y0114976D01*
X0035515Y0114952D01*
X0035563Y0114932D01*
X0035613Y0114915D01*
X0035664Y0114901D01*
X0035716Y0114892D01*
X0035768Y0114886D01*
X0035821Y0114884D01*
X0035821Y0114883D02*
X0036543Y0114883D01*
X0037978Y0114883D02*
X0039423Y0114883D01*
X0038701Y0114883D02*
X0038701Y0117483D01*
X0039423Y0116906D01*
X0041550Y0117483D02*
X0041497Y0117481D01*
X0041445Y0117475D01*
X0041393Y0117466D01*
X0041342Y0117452D01*
X0041292Y0117435D01*
X0041244Y0117415D01*
X0041197Y0117391D01*
X0041152Y0117363D01*
X0041109Y0117332D01*
X0041068Y0117299D01*
X0041030Y0117262D01*
X0040995Y0117223D01*
X0040963Y0117181D01*
X0040934Y0117137D01*
X0040908Y0117091D01*
X0040886Y0117043D01*
X0040867Y0116994D01*
X0040851Y0116944D01*
X0040840Y0116892D01*
X0040832Y0116840D01*
X0040828Y0116787D01*
X0040828Y0116735D01*
X0040832Y0116682D01*
X0040840Y0116630D01*
X0040851Y0116578D01*
X0040867Y0116528D01*
X0040886Y0116479D01*
X0040908Y0116431D01*
X0040934Y0116385D01*
X0040963Y0116341D01*
X0040995Y0116299D01*
X0041030Y0116260D01*
X0041068Y0116223D01*
X0041109Y0116190D01*
X0041152Y0116159D01*
X0041197Y0116131D01*
X0041244Y0116107D01*
X0041292Y0116087D01*
X0041342Y0116070D01*
X0041393Y0116056D01*
X0041445Y0116047D01*
X0041497Y0116041D01*
X0041550Y0116039D01*
X0042272Y0116039D01*
X0041405Y0116039D02*
X0040827Y0114883D01*
X0042272Y0114883D02*
X0042272Y0117483D01*
X0041550Y0117483D01*
X0041846Y0109733D02*
X0042423Y0109733D01*
X0042423Y0109734D02*
X0042471Y0109732D01*
X0042518Y0109726D01*
X0042565Y0109716D01*
X0042611Y0109703D01*
X0042655Y0109685D01*
X0042698Y0109664D01*
X0042739Y0109640D01*
X0042778Y0109612D01*
X0042814Y0109581D01*
X0042848Y0109547D01*
X0042879Y0109511D01*
X0042907Y0109472D01*
X0042931Y0109431D01*
X0042952Y0109388D01*
X0042970Y0109344D01*
X0042983Y0109298D01*
X0042993Y0109251D01*
X0042999Y0109204D01*
X0043001Y0109156D01*
X0043001Y0107711D01*
X0042999Y0107666D01*
X0042994Y0107621D01*
X0042985Y0107576D01*
X0042973Y0107532D01*
X0042957Y0107490D01*
X0042938Y0107449D01*
X0042916Y0107409D01*
X0042891Y0107371D01*
X0042863Y0107336D01*
X0042832Y0107302D01*
X0042798Y0107271D01*
X0042763Y0107243D01*
X0042725Y0107218D01*
X0042685Y0107196D01*
X0042644Y0107177D01*
X0042602Y0107161D01*
X0042558Y0107149D01*
X0042513Y0107140D01*
X0042468Y0107135D01*
X0042423Y0107133D01*
X0041846Y0107133D01*
X0040587Y0107133D02*
X0039720Y0107133D01*
X0039672Y0107135D01*
X0039625Y0107141D01*
X0039578Y0107151D01*
X0039532Y0107164D01*
X0039488Y0107182D01*
X0039445Y0107203D01*
X0039404Y0107227D01*
X0039365Y0107255D01*
X0039329Y0107286D01*
X0039295Y0107320D01*
X0039264Y0107356D01*
X0039236Y0107395D01*
X0039212Y0107436D01*
X0039191Y0107479D01*
X0039173Y0107523D01*
X0039160Y0107569D01*
X0039150Y0107616D01*
X0039144Y0107663D01*
X0039142Y0107711D01*
X0039143Y0107711D02*
X0039143Y0108000D01*
X0039142Y0108000D02*
X0039144Y0108045D01*
X0039149Y0108090D01*
X0039158Y0108135D01*
X0039170Y0108179D01*
X0039186Y0108221D01*
X0039205Y0108262D01*
X0039227Y0108302D01*
X0039252Y0108340D01*
X0039280Y0108375D01*
X0039311Y0108409D01*
X0039345Y0108440D01*
X0039380Y0108468D01*
X0039418Y0108493D01*
X0039458Y0108515D01*
X0039499Y0108534D01*
X0039541Y0108550D01*
X0039585Y0108562D01*
X0039630Y0108571D01*
X0039675Y0108576D01*
X0039720Y0108578D01*
X0040587Y0108578D01*
X0040587Y0109733D01*
X0039143Y0109733D01*
X0081775Y0109758D02*
X0082353Y0110914D01*
X0082497Y0110914D02*
X0083219Y0110914D01*
X0082497Y0110914D02*
X0082444Y0110916D01*
X0082392Y0110922D01*
X0082340Y0110931D01*
X0082289Y0110945D01*
X0082239Y0110962D01*
X0082191Y0110982D01*
X0082144Y0111006D01*
X0082099Y0111034D01*
X0082056Y0111065D01*
X0082015Y0111098D01*
X0081977Y0111135D01*
X0081942Y0111174D01*
X0081910Y0111216D01*
X0081881Y0111260D01*
X0081855Y0111306D01*
X0081833Y0111354D01*
X0081814Y0111403D01*
X0081798Y0111453D01*
X0081787Y0111505D01*
X0081779Y0111557D01*
X0081775Y0111610D01*
X0081775Y0111662D01*
X0081779Y0111715D01*
X0081787Y0111767D01*
X0081798Y0111819D01*
X0081814Y0111869D01*
X0081833Y0111918D01*
X0081855Y0111966D01*
X0081881Y0112012D01*
X0081910Y0112056D01*
X0081942Y0112098D01*
X0081977Y0112137D01*
X0082015Y0112174D01*
X0082056Y0112207D01*
X0082099Y0112238D01*
X0082144Y0112266D01*
X0082191Y0112290D01*
X0082239Y0112310D01*
X0082289Y0112327D01*
X0082340Y0112341D01*
X0082392Y0112350D01*
X0082444Y0112356D01*
X0082497Y0112358D01*
X0083219Y0112358D01*
X0083219Y0109758D01*
X0084581Y0109758D02*
X0085737Y0109758D01*
X0085737Y0112358D01*
X0084581Y0112358D01*
X0084870Y0111203D02*
X0085737Y0111203D01*
X0087086Y0112358D02*
X0088530Y0112358D01*
X0087808Y0112358D02*
X0087808Y0109758D01*
X0089573Y0109758D02*
X0090729Y0109758D01*
X0090729Y0112358D01*
X0089573Y0112358D01*
X0089862Y0111203D02*
X0090729Y0111203D01*
X0092414Y0112358D02*
X0093280Y0110914D01*
X0094147Y0112358D01*
X0094147Y0109758D01*
X0092414Y0109758D02*
X0092414Y0112358D01*
X0091899Y0114558D02*
X0091321Y0114558D01*
X0091610Y0114558D02*
X0091610Y0117158D01*
X0091899Y0117158D02*
X0091321Y0117158D01*
X0089932Y0116581D02*
X0089932Y0115136D01*
X0089933Y0115136D02*
X0089931Y0115091D01*
X0089926Y0115046D01*
X0089917Y0115001D01*
X0089905Y0114957D01*
X0089889Y0114915D01*
X0089870Y0114874D01*
X0089848Y0114834D01*
X0089823Y0114796D01*
X0089795Y0114761D01*
X0089764Y0114727D01*
X0089730Y0114696D01*
X0089695Y0114668D01*
X0089657Y0114643D01*
X0089617Y0114621D01*
X0089576Y0114602D01*
X0089534Y0114586D01*
X0089490Y0114574D01*
X0089445Y0114565D01*
X0089400Y0114560D01*
X0089355Y0114558D01*
X0088488Y0114558D01*
X0088488Y0116003D01*
X0088921Y0116003D01*
X0089933Y0116581D02*
X0089931Y0116629D01*
X0089925Y0116676D01*
X0089915Y0116723D01*
X0089902Y0116769D01*
X0089884Y0116813D01*
X0089863Y0116856D01*
X0089839Y0116897D01*
X0089811Y0116936D01*
X0089780Y0116972D01*
X0089746Y0117006D01*
X0089710Y0117037D01*
X0089671Y0117065D01*
X0089630Y0117089D01*
X0089587Y0117110D01*
X0089543Y0117128D01*
X0089497Y0117141D01*
X0089450Y0117151D01*
X0089403Y0117157D01*
X0089355Y0117159D01*
X0089355Y0117158D02*
X0088488Y0117158D01*
X0086860Y0117158D02*
X0086860Y0114558D01*
X0085416Y0114558D02*
X0085416Y0117158D01*
X0085416Y0116003D02*
X0086860Y0116003D01*
X0084076Y0117158D02*
X0082632Y0117158D01*
X0083354Y0117158D02*
X0083354Y0114558D01*
X0092991Y0114558D02*
X0094147Y0114558D01*
X0094147Y0117158D01*
X0121857Y0099993D02*
X0123317Y0101738D01*
X0125405Y0103236D01*
X0164671Y0127595D01*
X0166698Y0128721D01*
X0169574Y0129549D01*
X0173041Y0130067D01*
X0176836Y0130263D01*
X0180700Y0130126D01*
X0184372Y0129643D01*
X0187592Y0128804D01*
X0190100Y0127595D01*
X0229833Y0102771D01*
X0231257Y0101475D01*
X0232183Y0099923D01*
X0232659Y0098204D01*
X0232729Y0096404D01*
X0232442Y0094612D01*
X0231843Y0092915D01*
X0230978Y0091402D01*
X0229895Y0090159D01*
X0197289Y0069447D01*
X0193079Y0066639D01*
X0188596Y0064518D01*
X0183880Y0063119D01*
X0178974Y0062478D01*
X0173919Y0062628D01*
X0168754Y0063607D01*
X0163523Y0065449D01*
X0158265Y0068189D01*
X0124225Y0089783D01*
X0122690Y0090966D01*
X0121562Y0092486D01*
X0120878Y0094247D01*
X0120674Y0096150D01*
X0120989Y0098097D01*
X0121857Y0099993D01*
X0158497Y0095986D02*
X0158497Y0092431D01*
X0158499Y0092357D01*
X0158505Y0092282D01*
X0158515Y0092209D01*
X0158528Y0092135D01*
X0158545Y0092063D01*
X0158567Y0091992D01*
X0158591Y0091921D01*
X0158620Y0091853D01*
X0158652Y0091785D01*
X0158688Y0091720D01*
X0158726Y0091657D01*
X0158769Y0091595D01*
X0158814Y0091536D01*
X0158862Y0091479D01*
X0158913Y0091425D01*
X0158967Y0091374D01*
X0159024Y0091326D01*
X0159083Y0091281D01*
X0159145Y0091238D01*
X0159208Y0091200D01*
X0159273Y0091164D01*
X0159341Y0091132D01*
X0159409Y0091103D01*
X0159480Y0091079D01*
X0159551Y0091057D01*
X0159623Y0091040D01*
X0159697Y0091027D01*
X0159770Y0091017D01*
X0159845Y0091011D01*
X0159919Y0091009D01*
X0159919Y0091008D02*
X0161341Y0091008D01*
X0163846Y0092786D02*
X0163846Y0097408D01*
X0161341Y0097408D02*
X0159919Y0097408D01*
X0159845Y0097406D01*
X0159770Y0097400D01*
X0159697Y0097390D01*
X0159623Y0097377D01*
X0159551Y0097360D01*
X0159480Y0097338D01*
X0159409Y0097314D01*
X0159341Y0097285D01*
X0159273Y0097253D01*
X0159208Y0097217D01*
X0159145Y0097179D01*
X0159083Y0097136D01*
X0159024Y0097091D01*
X0158967Y0097043D01*
X0158913Y0096992D01*
X0158862Y0096937D01*
X0158814Y0096881D01*
X0158769Y0096822D01*
X0158726Y0096760D01*
X0158688Y0096697D01*
X0158652Y0096632D01*
X0158620Y0096564D01*
X0158591Y0096496D01*
X0158567Y0096425D01*
X0158545Y0096354D01*
X0158528Y0096282D01*
X0158515Y0096208D01*
X0158505Y0096135D01*
X0158499Y0096060D01*
X0158497Y0095986D01*
X0163846Y0092786D02*
X0163848Y0092703D01*
X0163854Y0092620D01*
X0163864Y0092537D01*
X0163877Y0092454D01*
X0163895Y0092373D01*
X0163916Y0092292D01*
X0163941Y0092213D01*
X0163970Y0092135D01*
X0164002Y0092058D01*
X0164038Y0091983D01*
X0164077Y0091909D01*
X0164120Y0091838D01*
X0164166Y0091768D01*
X0164216Y0091701D01*
X0164268Y0091636D01*
X0164323Y0091574D01*
X0164382Y0091514D01*
X0164443Y0091457D01*
X0164506Y0091403D01*
X0164572Y0091352D01*
X0164641Y0091305D01*
X0164711Y0091260D01*
X0164784Y0091219D01*
X0164858Y0091182D01*
X0164934Y0091147D01*
X0165012Y0091117D01*
X0165090Y0091090D01*
X0165171Y0091067D01*
X0165252Y0091047D01*
X0165334Y0091032D01*
X0165416Y0091020D01*
X0165499Y0091012D01*
X0165582Y0091008D01*
X0165666Y0091008D01*
X0165749Y0091012D01*
X0165832Y0091020D01*
X0165914Y0091032D01*
X0165996Y0091047D01*
X0166077Y0091067D01*
X0166158Y0091090D01*
X0166236Y0091117D01*
X0166314Y0091147D01*
X0166390Y0091182D01*
X0166464Y0091219D01*
X0166537Y0091260D01*
X0166607Y0091305D01*
X0166676Y0091352D01*
X0166742Y0091403D01*
X0166805Y0091457D01*
X0166866Y0091514D01*
X0166925Y0091574D01*
X0166980Y0091636D01*
X0167032Y0091701D01*
X0167082Y0091768D01*
X0167128Y0091838D01*
X0167171Y0091909D01*
X0167210Y0091983D01*
X0167246Y0092058D01*
X0167278Y0092135D01*
X0167307Y0092213D01*
X0167332Y0092292D01*
X0167353Y0092373D01*
X0167371Y0092454D01*
X0167384Y0092537D01*
X0167394Y0092620D01*
X0167400Y0092703D01*
X0167402Y0092786D01*
X0167401Y0092786D02*
X0167401Y0097408D01*
X0169795Y0097408D02*
X0173350Y0097408D01*
X0171573Y0097408D02*
X0171573Y0091008D01*
X0178821Y0092786D02*
X0178821Y0095631D01*
X0178820Y0095631D02*
X0178822Y0095714D01*
X0178828Y0095797D01*
X0178838Y0095880D01*
X0178851Y0095963D01*
X0178869Y0096044D01*
X0178890Y0096125D01*
X0178915Y0096204D01*
X0178944Y0096282D01*
X0178976Y0096359D01*
X0179012Y0096434D01*
X0179051Y0096508D01*
X0179094Y0096579D01*
X0179140Y0096649D01*
X0179190Y0096716D01*
X0179242Y0096781D01*
X0179297Y0096843D01*
X0179356Y0096903D01*
X0179417Y0096960D01*
X0179480Y0097014D01*
X0179546Y0097065D01*
X0179615Y0097112D01*
X0179685Y0097157D01*
X0179758Y0097198D01*
X0179832Y0097235D01*
X0179908Y0097270D01*
X0179986Y0097300D01*
X0180064Y0097327D01*
X0180145Y0097350D01*
X0180226Y0097370D01*
X0180308Y0097385D01*
X0180390Y0097397D01*
X0180473Y0097405D01*
X0180556Y0097409D01*
X0180640Y0097409D01*
X0180723Y0097405D01*
X0180806Y0097397D01*
X0180888Y0097385D01*
X0180970Y0097370D01*
X0181051Y0097350D01*
X0181132Y0097327D01*
X0181210Y0097300D01*
X0181288Y0097270D01*
X0181364Y0097235D01*
X0181438Y0097198D01*
X0181511Y0097157D01*
X0181581Y0097112D01*
X0181650Y0097065D01*
X0181716Y0097014D01*
X0181779Y0096960D01*
X0181840Y0096903D01*
X0181899Y0096843D01*
X0181954Y0096781D01*
X0182006Y0096716D01*
X0182056Y0096649D01*
X0182102Y0096579D01*
X0182145Y0096508D01*
X0182184Y0096434D01*
X0182220Y0096359D01*
X0182252Y0096282D01*
X0182281Y0096204D01*
X0182306Y0096125D01*
X0182327Y0096044D01*
X0182345Y0095963D01*
X0182358Y0095880D01*
X0182368Y0095797D01*
X0182374Y0095714D01*
X0182376Y0095631D01*
X0182376Y0092786D01*
X0182374Y0092703D01*
X0182368Y0092620D01*
X0182358Y0092537D01*
X0182345Y0092454D01*
X0182327Y0092373D01*
X0182306Y0092292D01*
X0182281Y0092213D01*
X0182252Y0092135D01*
X0182220Y0092058D01*
X0182184Y0091983D01*
X0182145Y0091909D01*
X0182102Y0091838D01*
X0182056Y0091768D01*
X0182006Y0091701D01*
X0181954Y0091636D01*
X0181899Y0091574D01*
X0181840Y0091514D01*
X0181779Y0091457D01*
X0181716Y0091403D01*
X0181650Y0091352D01*
X0181581Y0091305D01*
X0181511Y0091260D01*
X0181438Y0091219D01*
X0181364Y0091182D01*
X0181288Y0091147D01*
X0181210Y0091117D01*
X0181132Y0091090D01*
X0181051Y0091067D01*
X0180970Y0091047D01*
X0180888Y0091032D01*
X0180806Y0091020D01*
X0180723Y0091012D01*
X0180640Y0091008D01*
X0180556Y0091008D01*
X0180473Y0091012D01*
X0180390Y0091020D01*
X0180308Y0091032D01*
X0180226Y0091047D01*
X0180145Y0091067D01*
X0180064Y0091090D01*
X0179986Y0091117D01*
X0179908Y0091147D01*
X0179832Y0091182D01*
X0179758Y0091219D01*
X0179685Y0091260D01*
X0179615Y0091305D01*
X0179546Y0091352D01*
X0179480Y0091403D01*
X0179417Y0091457D01*
X0179356Y0091514D01*
X0179297Y0091574D01*
X0179242Y0091636D01*
X0179190Y0091701D01*
X0179140Y0091768D01*
X0179094Y0091838D01*
X0179051Y0091909D01*
X0179012Y0091983D01*
X0178976Y0092058D01*
X0178944Y0092135D01*
X0178915Y0092213D01*
X0178890Y0092292D01*
X0178869Y0092373D01*
X0178851Y0092454D01*
X0178838Y0092537D01*
X0178828Y0092620D01*
X0178822Y0092703D01*
X0178820Y0092786D01*
X0185180Y0092786D02*
X0185180Y0097408D01*
X0188735Y0097408D02*
X0188735Y0092786D01*
X0188736Y0092786D02*
X0188734Y0092703D01*
X0188728Y0092620D01*
X0188718Y0092537D01*
X0188705Y0092454D01*
X0188687Y0092373D01*
X0188666Y0092292D01*
X0188641Y0092213D01*
X0188612Y0092135D01*
X0188580Y0092058D01*
X0188544Y0091983D01*
X0188505Y0091909D01*
X0188462Y0091838D01*
X0188416Y0091768D01*
X0188366Y0091701D01*
X0188314Y0091636D01*
X0188259Y0091574D01*
X0188200Y0091514D01*
X0188139Y0091457D01*
X0188076Y0091403D01*
X0188010Y0091352D01*
X0187941Y0091305D01*
X0187871Y0091260D01*
X0187798Y0091219D01*
X0187724Y0091182D01*
X0187648Y0091147D01*
X0187570Y0091117D01*
X0187492Y0091090D01*
X0187411Y0091067D01*
X0187330Y0091047D01*
X0187248Y0091032D01*
X0187166Y0091020D01*
X0187083Y0091012D01*
X0187000Y0091008D01*
X0186916Y0091008D01*
X0186833Y0091012D01*
X0186750Y0091020D01*
X0186668Y0091032D01*
X0186586Y0091047D01*
X0186505Y0091067D01*
X0186424Y0091090D01*
X0186346Y0091117D01*
X0186268Y0091147D01*
X0186192Y0091182D01*
X0186118Y0091219D01*
X0186045Y0091260D01*
X0185975Y0091305D01*
X0185906Y0091352D01*
X0185840Y0091403D01*
X0185777Y0091457D01*
X0185716Y0091514D01*
X0185657Y0091574D01*
X0185602Y0091636D01*
X0185550Y0091701D01*
X0185500Y0091768D01*
X0185454Y0091838D01*
X0185411Y0091909D01*
X0185372Y0091983D01*
X0185336Y0092058D01*
X0185304Y0092135D01*
X0185275Y0092213D01*
X0185250Y0092292D01*
X0185229Y0092373D01*
X0185211Y0092454D01*
X0185198Y0092537D01*
X0185188Y0092620D01*
X0185182Y0092703D01*
X0185180Y0092786D01*
X0191129Y0097408D02*
X0194684Y0097408D01*
X0192907Y0097408D02*
X0192907Y0091008D01*
X0280525Y0096924D02*
X0280586Y0096310D01*
X0280765Y0095719D01*
X0281056Y0095174D01*
X0281448Y0094697D01*
X0281925Y0094305D01*
X0282469Y0094014D01*
X0283060Y0093835D01*
X0283675Y0093774D01*
X0284289Y0093835D01*
X0284880Y0094014D01*
X0285425Y0094305D01*
X0285902Y0094697D01*
X0286294Y0095174D01*
X0286585Y0095719D01*
X0286764Y0096310D01*
X0286824Y0096924D01*
X0286764Y0097539D01*
X0286585Y0098129D01*
X0286294Y0098674D01*
X0285902Y0099151D01*
X0285425Y0099543D01*
X0284880Y0099834D01*
X0284289Y0100013D01*
X0283675Y0100074D01*
X0283060Y0100013D01*
X0282469Y0099834D01*
X0281925Y0099543D01*
X0281448Y0099151D01*
X0281056Y0098674D01*
X0280765Y0098129D01*
X0280586Y0097539D01*
X0280525Y0096924D01*
X0280589Y0097559D01*
X0280773Y0098150D01*
X0281063Y0098685D01*
X0281448Y0099151D01*
X0281914Y0099536D01*
X0282449Y0099826D01*
X0283040Y0100010D01*
X0283675Y0100074D01*
X0284309Y0100010D01*
X0284901Y0099826D01*
X0285436Y0099536D01*
X0285902Y0099151D01*
X0286287Y0098685D01*
X0286577Y0098150D01*
X0286760Y0097559D01*
X0286824Y0096924D01*
X0286760Y0096289D01*
X0286577Y0095698D01*
X0286287Y0095163D01*
X0285902Y0094697D01*
X0285436Y0094312D01*
X0284901Y0094022D01*
X0284309Y0093839D01*
X0283675Y0093774D01*
X0283040Y0093839D01*
X0282449Y0094022D01*
X0281914Y0094312D01*
X0281448Y0094697D01*
X0281063Y0095163D01*
X0280773Y0095698D01*
X0280589Y0096289D01*
X0280525Y0096924D01*
X0331167Y0120130D02*
X0331091Y0120375D01*
X0331064Y0120638D01*
X0331064Y0125715D01*
X0331091Y0125978D01*
X0331167Y0126223D01*
X0331288Y0126445D01*
X0331448Y0126639D01*
X0331642Y0126799D01*
X0331865Y0126920D01*
X0332109Y0126996D01*
X0332372Y0127023D01*
X0334256Y0127023D01*
X0334519Y0126996D01*
X0334765Y0126920D01*
X0334987Y0126799D01*
X0335181Y0126639D01*
X0335341Y0126445D01*
X0335462Y0126223D01*
X0335538Y0125978D01*
X0335565Y0125715D01*
X0335565Y0120638D01*
X0335538Y0120375D01*
X0335462Y0120130D01*
X0335341Y0119908D01*
X0335181Y0119714D01*
X0334987Y0119554D01*
X0334765Y0119433D01*
X0334519Y0119357D01*
X0334256Y0119330D01*
X0332372Y0119330D01*
X0332109Y0119357D01*
X0331865Y0119433D01*
X0331642Y0119554D01*
X0331448Y0119714D01*
X0331288Y0119908D01*
X0331167Y0120130D01*
X0343280Y0118639D02*
X0343356Y0118884D01*
X0343477Y0119106D01*
X0343637Y0119300D01*
X0343831Y0119460D01*
X0344053Y0119581D01*
X0344298Y0119658D01*
X0344561Y0119684D01*
X0349637Y0119684D01*
X0349900Y0119658D01*
X0350145Y0119581D01*
X0350368Y0119460D01*
X0350561Y0119300D01*
X0350722Y0119106D01*
X0350843Y0118884D01*
X0350919Y0118639D01*
X0350946Y0118376D01*
X0350946Y0116492D01*
X0350919Y0116229D01*
X0350843Y0115984D01*
X0350722Y0115761D01*
X0350561Y0115567D01*
X0350368Y0115407D01*
X0350145Y0115286D01*
X0349900Y0115210D01*
X0349637Y0115183D01*
X0344561Y0115183D01*
X0344298Y0115210D01*
X0344053Y0115286D01*
X0343831Y0115407D01*
X0343637Y0115567D01*
X0343477Y0115761D01*
X0343356Y0115984D01*
X0343280Y0116229D01*
X0343253Y0116492D01*
X0343253Y0118376D01*
X0343280Y0118639D01*
X0359276Y0126796D02*
X0360773Y0126160D01*
X0362309Y0125929D01*
X0362585Y0125935D01*
X0378794Y0125924D01*
X0378794Y0061075D01*
X0333600Y0061075D01*
X0332610Y0060907D01*
X0331351Y0060421D01*
X0329946Y0059641D01*
X0328519Y0058595D01*
X0327194Y0057307D01*
X0326094Y0055804D01*
X0325344Y0054111D01*
X0325066Y0052254D01*
X0325066Y0048361D01*
X0270858Y0048361D01*
X0270858Y0038877D01*
X0017703Y0038877D01*
X0037965Y0046008D02*
X0037965Y0047381D01*
X0037098Y0048608D01*
X0037965Y0047381D02*
X0038831Y0048608D01*
X0040266Y0048608D02*
X0041133Y0047164D01*
X0041999Y0048608D01*
X0041999Y0046008D01*
X0043722Y0046008D02*
X0043722Y0048608D01*
X0044589Y0047164D01*
X0045455Y0048608D01*
X0045455Y0046008D01*
X0047130Y0046731D02*
X0047130Y0048608D01*
X0048575Y0048608D02*
X0048575Y0046731D01*
X0048573Y0046678D01*
X0048567Y0046626D01*
X0048558Y0046574D01*
X0048544Y0046523D01*
X0048527Y0046473D01*
X0048507Y0046425D01*
X0048483Y0046378D01*
X0048455Y0046333D01*
X0048424Y0046290D01*
X0048391Y0046249D01*
X0048354Y0046211D01*
X0048315Y0046176D01*
X0048273Y0046144D01*
X0048229Y0046115D01*
X0048183Y0046089D01*
X0048135Y0046067D01*
X0048086Y0046048D01*
X0048036Y0046032D01*
X0047984Y0046021D01*
X0047932Y0046013D01*
X0047879Y0046009D01*
X0047827Y0046009D01*
X0047774Y0046013D01*
X0047722Y0046021D01*
X0047670Y0046032D01*
X0047620Y0046048D01*
X0047571Y0046067D01*
X0047523Y0046089D01*
X0047477Y0046115D01*
X0047433Y0046144D01*
X0047391Y0046176D01*
X0047352Y0046211D01*
X0047315Y0046249D01*
X0047282Y0046290D01*
X0047251Y0046333D01*
X0047223Y0046378D01*
X0047199Y0046425D01*
X0047179Y0046473D01*
X0047162Y0046523D01*
X0047148Y0046574D01*
X0047139Y0046626D01*
X0047133Y0046678D01*
X0047131Y0046731D01*
X0050202Y0046731D02*
X0050202Y0047886D01*
X0050203Y0047886D02*
X0050205Y0047938D01*
X0050210Y0047989D01*
X0050219Y0048039D01*
X0050232Y0048089D01*
X0050249Y0048138D01*
X0050268Y0048186D01*
X0050291Y0048232D01*
X0050318Y0048276D01*
X0050347Y0048319D01*
X0050379Y0048359D01*
X0050414Y0048397D01*
X0050452Y0048432D01*
X0050492Y0048464D01*
X0050535Y0048493D01*
X0050579Y0048520D01*
X0050625Y0048543D01*
X0050673Y0048562D01*
X0050722Y0048579D01*
X0050772Y0048592D01*
X0050822Y0048601D01*
X0050873Y0048606D01*
X0050925Y0048608D01*
X0051647Y0048608D01*
X0051647Y0046008D01*
X0050925Y0046008D01*
X0050925Y0046009D02*
X0050873Y0046011D01*
X0050822Y0046016D01*
X0050772Y0046025D01*
X0050722Y0046038D01*
X0050673Y0046055D01*
X0050625Y0046074D01*
X0050579Y0046097D01*
X0050535Y0046124D01*
X0050492Y0046153D01*
X0050452Y0046185D01*
X0050414Y0046220D01*
X0050379Y0046258D01*
X0050347Y0046298D01*
X0050318Y0046341D01*
X0050291Y0046385D01*
X0050268Y0046431D01*
X0050249Y0046479D01*
X0050232Y0046528D01*
X0050219Y0046578D01*
X0050210Y0046628D01*
X0050205Y0046679D01*
X0050203Y0046731D01*
X0040266Y0046008D02*
X0040266Y0048608D01*
X0039850Y0055383D02*
X0041006Y0055383D01*
X0041006Y0057983D01*
X0039850Y0057983D01*
X0040139Y0056828D02*
X0041006Y0056828D01*
X0042451Y0057983D02*
X0043895Y0055383D01*
X0042451Y0055383D01*
X0042451Y0057983D02*
X0043895Y0057983D01*
X0045139Y0057983D02*
X0046583Y0055383D01*
X0045139Y0055383D01*
X0045139Y0057983D02*
X0046583Y0057983D01*
X0048019Y0057983D02*
X0048019Y0056106D01*
X0048021Y0056053D01*
X0048027Y0056001D01*
X0048036Y0055949D01*
X0048050Y0055898D01*
X0048067Y0055848D01*
X0048087Y0055800D01*
X0048111Y0055753D01*
X0048139Y0055708D01*
X0048170Y0055665D01*
X0048203Y0055624D01*
X0048240Y0055586D01*
X0048279Y0055551D01*
X0048321Y0055519D01*
X0048365Y0055490D01*
X0048411Y0055464D01*
X0048459Y0055442D01*
X0048508Y0055423D01*
X0048558Y0055407D01*
X0048610Y0055396D01*
X0048662Y0055388D01*
X0048715Y0055384D01*
X0048767Y0055384D01*
X0048820Y0055388D01*
X0048872Y0055396D01*
X0048924Y0055407D01*
X0048974Y0055423D01*
X0049023Y0055442D01*
X0049071Y0055464D01*
X0049117Y0055490D01*
X0049161Y0055519D01*
X0049203Y0055551D01*
X0049242Y0055586D01*
X0049279Y0055624D01*
X0049312Y0055665D01*
X0049343Y0055708D01*
X0049371Y0055753D01*
X0049395Y0055800D01*
X0049415Y0055848D01*
X0049432Y0055898D01*
X0049446Y0055949D01*
X0049455Y0056001D01*
X0049461Y0056053D01*
X0049463Y0056106D01*
X0049463Y0057983D01*
X0051550Y0057983D02*
X0052272Y0057983D01*
X0052272Y0055383D01*
X0051550Y0055383D01*
X0051550Y0055384D02*
X0051497Y0055386D01*
X0051445Y0055392D01*
X0051393Y0055401D01*
X0051342Y0055415D01*
X0051292Y0055432D01*
X0051244Y0055452D01*
X0051197Y0055476D01*
X0051152Y0055504D01*
X0051109Y0055535D01*
X0051068Y0055568D01*
X0051030Y0055605D01*
X0050995Y0055644D01*
X0050963Y0055686D01*
X0050934Y0055730D01*
X0050908Y0055776D01*
X0050886Y0055824D01*
X0050867Y0055873D01*
X0050851Y0055923D01*
X0050840Y0055975D01*
X0050832Y0056027D01*
X0050828Y0056080D01*
X0050828Y0056132D01*
X0050832Y0056185D01*
X0050840Y0056237D01*
X0050851Y0056289D01*
X0050867Y0056339D01*
X0050886Y0056388D01*
X0050908Y0056436D01*
X0050934Y0056482D01*
X0050963Y0056526D01*
X0050995Y0056568D01*
X0051030Y0056607D01*
X0051068Y0056644D01*
X0051109Y0056677D01*
X0051152Y0056708D01*
X0051197Y0056736D01*
X0051244Y0056760D01*
X0051292Y0056780D01*
X0051342Y0056797D01*
X0051393Y0056811D01*
X0051445Y0056820D01*
X0051497Y0056826D01*
X0051550Y0056828D01*
X0052272Y0056828D01*
X0051550Y0056828D02*
X0051503Y0056830D01*
X0051457Y0056835D01*
X0051412Y0056845D01*
X0051367Y0056858D01*
X0051323Y0056874D01*
X0051281Y0056894D01*
X0051241Y0056917D01*
X0051203Y0056944D01*
X0051167Y0056973D01*
X0051133Y0057006D01*
X0051102Y0057040D01*
X0051074Y0057078D01*
X0051049Y0057117D01*
X0051028Y0057158D01*
X0051010Y0057201D01*
X0050995Y0057245D01*
X0050984Y0057290D01*
X0050976Y0057336D01*
X0050972Y0057383D01*
X0050972Y0057429D01*
X0050976Y0057476D01*
X0050984Y0057522D01*
X0050995Y0057567D01*
X0051010Y0057611D01*
X0051028Y0057654D01*
X0051049Y0057695D01*
X0051074Y0057734D01*
X0051102Y0057772D01*
X0051133Y0057806D01*
X0051167Y0057839D01*
X0051203Y0057868D01*
X0051241Y0057895D01*
X0051281Y0057918D01*
X0051323Y0057938D01*
X0051367Y0057954D01*
X0051412Y0057967D01*
X0051457Y0057977D01*
X0051503Y0057982D01*
X0051550Y0057984D01*
X0054781Y0064758D02*
X0055503Y0064758D01*
X0055503Y0067358D01*
X0054781Y0067358D01*
X0054729Y0067356D01*
X0054678Y0067351D01*
X0054628Y0067342D01*
X0054578Y0067329D01*
X0054529Y0067312D01*
X0054481Y0067293D01*
X0054435Y0067270D01*
X0054391Y0067243D01*
X0054348Y0067214D01*
X0054308Y0067182D01*
X0054270Y0067147D01*
X0054235Y0067109D01*
X0054203Y0067069D01*
X0054174Y0067026D01*
X0054147Y0066982D01*
X0054124Y0066936D01*
X0054105Y0066888D01*
X0054088Y0066839D01*
X0054075Y0066789D01*
X0054066Y0066739D01*
X0054061Y0066688D01*
X0054059Y0066636D01*
X0054058Y0066636D02*
X0054058Y0065481D01*
X0054059Y0065481D02*
X0054061Y0065429D01*
X0054066Y0065378D01*
X0054075Y0065328D01*
X0054088Y0065278D01*
X0054105Y0065229D01*
X0054124Y0065181D01*
X0054147Y0065135D01*
X0054174Y0065091D01*
X0054203Y0065048D01*
X0054235Y0065008D01*
X0054270Y0064970D01*
X0054308Y0064935D01*
X0054348Y0064903D01*
X0054391Y0064874D01*
X0054435Y0064847D01*
X0054481Y0064824D01*
X0054529Y0064805D01*
X0054578Y0064788D01*
X0054628Y0064775D01*
X0054678Y0064766D01*
X0054729Y0064761D01*
X0054781Y0064759D01*
X0057130Y0064758D02*
X0057130Y0067358D01*
X0058575Y0067358D02*
X0057130Y0064758D01*
X0058575Y0064758D02*
X0058575Y0067358D01*
X0060202Y0067358D02*
X0061069Y0067358D01*
X0061069Y0067359D02*
X0061117Y0067357D01*
X0061164Y0067351D01*
X0061211Y0067341D01*
X0061257Y0067328D01*
X0061301Y0067310D01*
X0061344Y0067289D01*
X0061385Y0067265D01*
X0061424Y0067237D01*
X0061460Y0067206D01*
X0061494Y0067172D01*
X0061525Y0067136D01*
X0061553Y0067097D01*
X0061577Y0067056D01*
X0061598Y0067013D01*
X0061616Y0066969D01*
X0061629Y0066923D01*
X0061639Y0066876D01*
X0061645Y0066829D01*
X0061647Y0066781D01*
X0061647Y0065336D01*
X0061645Y0065291D01*
X0061640Y0065246D01*
X0061631Y0065201D01*
X0061619Y0065157D01*
X0061603Y0065115D01*
X0061584Y0065074D01*
X0061562Y0065034D01*
X0061537Y0064996D01*
X0061509Y0064961D01*
X0061478Y0064927D01*
X0061444Y0064896D01*
X0061409Y0064868D01*
X0061371Y0064843D01*
X0061331Y0064821D01*
X0061290Y0064802D01*
X0061248Y0064786D01*
X0061204Y0064774D01*
X0061159Y0064765D01*
X0061114Y0064760D01*
X0061069Y0064758D01*
X0060202Y0064758D01*
X0060202Y0066203D01*
X0060636Y0066203D01*
X0068497Y0076031D02*
X0068499Y0075978D01*
X0068505Y0075926D01*
X0068514Y0075874D01*
X0068528Y0075823D01*
X0068545Y0075773D01*
X0068565Y0075725D01*
X0068589Y0075678D01*
X0068617Y0075633D01*
X0068648Y0075590D01*
X0068681Y0075549D01*
X0068718Y0075511D01*
X0068757Y0075476D01*
X0068799Y0075444D01*
X0068843Y0075415D01*
X0068889Y0075389D01*
X0068937Y0075367D01*
X0068986Y0075348D01*
X0069036Y0075332D01*
X0069088Y0075321D01*
X0069140Y0075313D01*
X0069193Y0075309D01*
X0069245Y0075309D01*
X0069298Y0075313D01*
X0069350Y0075321D01*
X0069402Y0075332D01*
X0069452Y0075348D01*
X0069501Y0075367D01*
X0069549Y0075389D01*
X0069595Y0075415D01*
X0069639Y0075444D01*
X0069681Y0075476D01*
X0069720Y0075511D01*
X0069757Y0075549D01*
X0069790Y0075590D01*
X0069821Y0075633D01*
X0069849Y0075678D01*
X0069873Y0075725D01*
X0069893Y0075773D01*
X0069910Y0075823D01*
X0069924Y0075874D01*
X0069933Y0075926D01*
X0069939Y0075978D01*
X0069941Y0076031D01*
X0069939Y0076084D01*
X0069933Y0076136D01*
X0069924Y0076188D01*
X0069910Y0076239D01*
X0069893Y0076289D01*
X0069873Y0076337D01*
X0069849Y0076384D01*
X0069821Y0076429D01*
X0069790Y0076472D01*
X0069757Y0076513D01*
X0069720Y0076551D01*
X0069681Y0076586D01*
X0069639Y0076618D01*
X0069595Y0076647D01*
X0069549Y0076673D01*
X0069501Y0076695D01*
X0069452Y0076714D01*
X0069402Y0076730D01*
X0069350Y0076741D01*
X0069298Y0076749D01*
X0069245Y0076753D01*
X0069193Y0076753D01*
X0069140Y0076749D01*
X0069088Y0076741D01*
X0069036Y0076730D01*
X0068986Y0076714D01*
X0068937Y0076695D01*
X0068889Y0076673D01*
X0068843Y0076647D01*
X0068799Y0076618D01*
X0068757Y0076586D01*
X0068718Y0076551D01*
X0068681Y0076513D01*
X0068648Y0076472D01*
X0068617Y0076429D01*
X0068589Y0076384D01*
X0068565Y0076337D01*
X0068545Y0076289D01*
X0068528Y0076239D01*
X0068514Y0076188D01*
X0068505Y0076136D01*
X0068499Y0076084D01*
X0068497Y0076031D01*
X0068641Y0077331D02*
X0068643Y0077284D01*
X0068648Y0077238D01*
X0068658Y0077193D01*
X0068671Y0077148D01*
X0068687Y0077104D01*
X0068707Y0077062D01*
X0068730Y0077022D01*
X0068757Y0076984D01*
X0068786Y0076948D01*
X0068819Y0076914D01*
X0068853Y0076883D01*
X0068891Y0076855D01*
X0068930Y0076830D01*
X0068971Y0076809D01*
X0069014Y0076791D01*
X0069058Y0076776D01*
X0069103Y0076765D01*
X0069149Y0076757D01*
X0069196Y0076753D01*
X0069242Y0076753D01*
X0069289Y0076757D01*
X0069335Y0076765D01*
X0069380Y0076776D01*
X0069424Y0076791D01*
X0069467Y0076809D01*
X0069508Y0076830D01*
X0069547Y0076855D01*
X0069585Y0076883D01*
X0069619Y0076914D01*
X0069652Y0076948D01*
X0069681Y0076984D01*
X0069708Y0077022D01*
X0069731Y0077062D01*
X0069751Y0077104D01*
X0069767Y0077148D01*
X0069780Y0077193D01*
X0069790Y0077238D01*
X0069795Y0077284D01*
X0069797Y0077331D01*
X0069795Y0077378D01*
X0069790Y0077424D01*
X0069780Y0077469D01*
X0069767Y0077514D01*
X0069751Y0077558D01*
X0069731Y0077600D01*
X0069708Y0077640D01*
X0069681Y0077678D01*
X0069652Y0077714D01*
X0069619Y0077748D01*
X0069585Y0077779D01*
X0069547Y0077807D01*
X0069508Y0077832D01*
X0069467Y0077853D01*
X0069424Y0077871D01*
X0069380Y0077886D01*
X0069335Y0077897D01*
X0069289Y0077905D01*
X0069242Y0077909D01*
X0069196Y0077909D01*
X0069149Y0077905D01*
X0069103Y0077897D01*
X0069058Y0077886D01*
X0069014Y0077871D01*
X0068971Y0077853D01*
X0068930Y0077832D01*
X0068891Y0077807D01*
X0068853Y0077779D01*
X0068819Y0077748D01*
X0068786Y0077714D01*
X0068757Y0077678D01*
X0068730Y0077640D01*
X0068707Y0077600D01*
X0068687Y0077558D01*
X0068671Y0077514D01*
X0068658Y0077469D01*
X0068648Y0077424D01*
X0068643Y0077378D01*
X0068641Y0077331D01*
X0071346Y0075308D02*
X0071924Y0076464D01*
X0072068Y0076464D02*
X0072790Y0076464D01*
X0072068Y0076464D02*
X0072015Y0076466D01*
X0071963Y0076472D01*
X0071911Y0076481D01*
X0071860Y0076495D01*
X0071810Y0076512D01*
X0071762Y0076532D01*
X0071715Y0076556D01*
X0071670Y0076584D01*
X0071627Y0076615D01*
X0071586Y0076648D01*
X0071548Y0076685D01*
X0071513Y0076724D01*
X0071481Y0076766D01*
X0071452Y0076810D01*
X0071426Y0076856D01*
X0071404Y0076904D01*
X0071385Y0076953D01*
X0071369Y0077003D01*
X0071358Y0077055D01*
X0071350Y0077107D01*
X0071346Y0077160D01*
X0071346Y0077212D01*
X0071350Y0077265D01*
X0071358Y0077317D01*
X0071369Y0077369D01*
X0071385Y0077419D01*
X0071404Y0077468D01*
X0071426Y0077516D01*
X0071452Y0077562D01*
X0071481Y0077606D01*
X0071513Y0077648D01*
X0071548Y0077687D01*
X0071586Y0077724D01*
X0071627Y0077757D01*
X0071670Y0077788D01*
X0071715Y0077816D01*
X0071762Y0077840D01*
X0071810Y0077860D01*
X0071860Y0077877D01*
X0071911Y0077891D01*
X0071963Y0077900D01*
X0072015Y0077906D01*
X0072068Y0077908D01*
X0072790Y0077908D01*
X0072790Y0075308D01*
X0077717Y0079347D02*
X0077684Y0039347D01*
X0072897Y0041633D02*
X0071741Y0041633D01*
X0072897Y0041633D02*
X0072897Y0044233D01*
X0070401Y0044233D02*
X0070401Y0041633D01*
X0069245Y0041633D01*
X0067914Y0041633D02*
X0067192Y0041633D01*
X0067914Y0041633D02*
X0067914Y0044233D01*
X0067192Y0044233D01*
X0067140Y0044231D01*
X0067089Y0044226D01*
X0067039Y0044217D01*
X0066989Y0044204D01*
X0066940Y0044187D01*
X0066892Y0044168D01*
X0066846Y0044145D01*
X0066802Y0044118D01*
X0066759Y0044089D01*
X0066719Y0044057D01*
X0066681Y0044022D01*
X0066646Y0043984D01*
X0066614Y0043944D01*
X0066585Y0043901D01*
X0066558Y0043857D01*
X0066535Y0043811D01*
X0066516Y0043763D01*
X0066499Y0043714D01*
X0066486Y0043664D01*
X0066477Y0043614D01*
X0066472Y0043563D01*
X0066470Y0043511D01*
X0066470Y0042356D01*
X0066472Y0042304D01*
X0066477Y0042253D01*
X0066486Y0042203D01*
X0066499Y0042153D01*
X0066516Y0042104D01*
X0066535Y0042056D01*
X0066558Y0042010D01*
X0066585Y0041966D01*
X0066614Y0041923D01*
X0066646Y0041883D01*
X0066681Y0041845D01*
X0066719Y0041810D01*
X0066759Y0041778D01*
X0066802Y0041749D01*
X0066846Y0041722D01*
X0066892Y0041699D01*
X0066940Y0041680D01*
X0066989Y0041663D01*
X0067039Y0041650D01*
X0067089Y0041641D01*
X0067140Y0041636D01*
X0067192Y0041634D01*
X0069534Y0043078D02*
X0070401Y0043078D01*
X0070401Y0044233D02*
X0069245Y0044233D01*
X0075833Y0049528D02*
X0075833Y0051261D01*
X0074967Y0050394D02*
X0076700Y0050394D01*
X0078255Y0050033D02*
X0079555Y0050033D01*
X0079772Y0049383D02*
X0078905Y0051983D01*
X0078039Y0049383D01*
X0038488Y0055383D02*
X0038488Y0057983D01*
X0037766Y0057983D01*
X0037713Y0057981D01*
X0037661Y0057975D01*
X0037609Y0057966D01*
X0037558Y0057952D01*
X0037508Y0057935D01*
X0037460Y0057915D01*
X0037413Y0057891D01*
X0037368Y0057863D01*
X0037325Y0057832D01*
X0037284Y0057799D01*
X0037246Y0057762D01*
X0037211Y0057723D01*
X0037179Y0057681D01*
X0037150Y0057637D01*
X0037124Y0057591D01*
X0037102Y0057543D01*
X0037083Y0057494D01*
X0037067Y0057444D01*
X0037056Y0057392D01*
X0037048Y0057340D01*
X0037044Y0057287D01*
X0037044Y0057235D01*
X0037048Y0057182D01*
X0037056Y0057130D01*
X0037067Y0057078D01*
X0037083Y0057028D01*
X0037102Y0056979D01*
X0037124Y0056931D01*
X0037150Y0056885D01*
X0037179Y0056841D01*
X0037211Y0056799D01*
X0037246Y0056760D01*
X0037284Y0056723D01*
X0037325Y0056690D01*
X0037368Y0056659D01*
X0037413Y0056631D01*
X0037460Y0056607D01*
X0037508Y0056587D01*
X0037558Y0056570D01*
X0037609Y0056556D01*
X0037661Y0056547D01*
X0037713Y0056541D01*
X0037766Y0056539D01*
X0038488Y0056539D01*
X0037622Y0056539D02*
X0037044Y0055383D01*
X0039050Y0067383D02*
X0039772Y0067383D01*
X0039772Y0069983D01*
X0039050Y0069983D01*
X0039050Y0069984D02*
X0039003Y0069982D01*
X0038957Y0069977D01*
X0038912Y0069967D01*
X0038867Y0069954D01*
X0038823Y0069938D01*
X0038781Y0069918D01*
X0038741Y0069895D01*
X0038703Y0069868D01*
X0038667Y0069839D01*
X0038633Y0069806D01*
X0038602Y0069772D01*
X0038574Y0069734D01*
X0038549Y0069695D01*
X0038528Y0069654D01*
X0038510Y0069611D01*
X0038495Y0069567D01*
X0038484Y0069522D01*
X0038476Y0069476D01*
X0038472Y0069429D01*
X0038472Y0069383D01*
X0038476Y0069336D01*
X0038484Y0069290D01*
X0038495Y0069245D01*
X0038510Y0069201D01*
X0038528Y0069158D01*
X0038549Y0069117D01*
X0038574Y0069078D01*
X0038602Y0069040D01*
X0038633Y0069006D01*
X0038667Y0068973D01*
X0038703Y0068944D01*
X0038741Y0068917D01*
X0038781Y0068894D01*
X0038823Y0068874D01*
X0038867Y0068858D01*
X0038912Y0068845D01*
X0038957Y0068835D01*
X0039003Y0068830D01*
X0039050Y0068828D01*
X0039772Y0068828D01*
X0039050Y0068828D02*
X0038997Y0068826D01*
X0038945Y0068820D01*
X0038893Y0068811D01*
X0038842Y0068797D01*
X0038792Y0068780D01*
X0038744Y0068760D01*
X0038697Y0068736D01*
X0038652Y0068708D01*
X0038609Y0068677D01*
X0038568Y0068644D01*
X0038530Y0068607D01*
X0038495Y0068568D01*
X0038463Y0068526D01*
X0038434Y0068482D01*
X0038408Y0068436D01*
X0038386Y0068388D01*
X0038367Y0068339D01*
X0038351Y0068289D01*
X0038340Y0068237D01*
X0038332Y0068185D01*
X0038328Y0068132D01*
X0038328Y0068080D01*
X0038332Y0068027D01*
X0038340Y0067975D01*
X0038351Y0067923D01*
X0038367Y0067873D01*
X0038386Y0067824D01*
X0038408Y0067776D01*
X0038434Y0067730D01*
X0038463Y0067686D01*
X0038495Y0067644D01*
X0038530Y0067605D01*
X0038568Y0067568D01*
X0038609Y0067535D01*
X0038652Y0067504D01*
X0038697Y0067476D01*
X0038744Y0067452D01*
X0038792Y0067432D01*
X0038842Y0067415D01*
X0038893Y0067401D01*
X0038945Y0067392D01*
X0038997Y0067386D01*
X0039050Y0067384D01*
X0037012Y0068394D02*
X0035278Y0068394D01*
X0036145Y0067528D02*
X0036145Y0069261D01*
X0004443Y0061576D02*
X0004409Y0079347D01*
X0077717Y0079347D01*
X0060762Y0141013D02*
X0124178Y0141164D01*
X0124439Y0148568D01*
X0283611Y0148568D01*
X0286803Y0145461D01*
X0353849Y0145461D01*
X0353872Y0134183D01*
X0354104Y0132969D01*
X0354668Y0131631D01*
X0355516Y0130256D01*
X0356599Y0128933D01*
X0357869Y0127750D01*
X0359276Y0126796D01*
X0362377Y0119581D02*
X0362622Y0119658D01*
X0362885Y0119684D01*
X0367961Y0119684D01*
X0368224Y0119658D01*
X0368469Y0119581D01*
X0368691Y0119460D01*
X0368885Y0119300D01*
X0369045Y0119106D01*
X0369166Y0118884D01*
X0369243Y0118639D01*
X0369269Y0118376D01*
X0369269Y0116492D01*
X0369243Y0116229D01*
X0369166Y0115984D01*
X0369045Y0115761D01*
X0368885Y0115567D01*
X0368691Y0115407D01*
X0368469Y0115286D01*
X0368224Y0115210D01*
X0367961Y0115183D01*
X0362885Y0115183D01*
X0362622Y0115210D01*
X0362377Y0115286D01*
X0362154Y0115407D01*
X0361961Y0115567D01*
X0361800Y0115761D01*
X0361680Y0115984D01*
X0361603Y0116229D01*
X0361576Y0116492D01*
X0361576Y0118376D01*
X0361603Y0118639D01*
X0361680Y0118884D01*
X0361800Y0119106D01*
X0361961Y0119300D01*
X0362154Y0119460D01*
X0362377Y0119581D01*
X0316073Y0136382D02*
X0315952Y0136160D01*
X0315792Y0135966D01*
X0315598Y0135806D01*
X0315376Y0135685D01*
X0315131Y0135608D01*
X0314868Y0135582D01*
X0309791Y0135582D01*
X0309529Y0135608D01*
X0309283Y0135685D01*
X0309061Y0135806D01*
X0308868Y0135966D01*
X0308707Y0136160D01*
X0308587Y0136382D01*
X0308510Y0136627D01*
X0308483Y0136890D01*
X0308483Y0138774D01*
X0308510Y0139037D01*
X0308587Y0139282D01*
X0308707Y0139504D01*
X0308868Y0139698D01*
X0309061Y0139858D01*
X0309283Y0139979D01*
X0309529Y0140056D01*
X0309791Y0140082D01*
X0314868Y0140082D01*
X0315131Y0140056D01*
X0315376Y0139979D01*
X0315598Y0139858D01*
X0315792Y0139698D01*
X0315952Y0139504D01*
X0316073Y0139282D01*
X0316150Y0139037D01*
X0316176Y0138774D01*
X0316176Y0136890D01*
X0316150Y0136627D01*
X0316073Y0136382D01*
X0278828Y0137405D02*
X0278802Y0137142D01*
X0278725Y0136897D01*
X0278604Y0136675D01*
X0278444Y0136481D01*
X0278250Y0136321D01*
X0278028Y0136200D01*
X0277783Y0136123D01*
X0277520Y0136097D01*
X0272443Y0136097D01*
X0272181Y0136123D01*
X0271935Y0136200D01*
X0271713Y0136321D01*
X0271520Y0136481D01*
X0271359Y0136675D01*
X0271239Y0136897D01*
X0271162Y0137142D01*
X0271135Y0137405D01*
X0271135Y0139289D01*
X0271162Y0139552D01*
X0271239Y0139797D01*
X0271359Y0140020D01*
X0271520Y0140213D01*
X0271713Y0140374D01*
X0271935Y0140495D01*
X0272181Y0140571D01*
X0272443Y0140598D01*
X0277520Y0140598D01*
X0277783Y0140571D01*
X0278028Y0140495D01*
X0278250Y0140374D01*
X0278444Y0140213D01*
X0278604Y0140020D01*
X0278725Y0139797D01*
X0278802Y0139552D01*
X0278828Y0139289D01*
X0278828Y0137405D01*
X0263400Y0137405D02*
X0263374Y0137142D01*
X0263297Y0136897D01*
X0263176Y0136675D01*
X0263016Y0136481D01*
X0262822Y0136321D01*
X0262600Y0136200D01*
X0262355Y0136123D01*
X0262092Y0136097D01*
X0257016Y0136097D01*
X0256753Y0136123D01*
X0256508Y0136200D01*
X0256285Y0136321D01*
X0256092Y0136481D01*
X0255931Y0136675D01*
X0255811Y0136897D01*
X0255734Y0137142D01*
X0255707Y0137405D01*
X0255707Y0139289D01*
X0255734Y0139552D01*
X0255811Y0139797D01*
X0255931Y0140020D01*
X0256092Y0140213D01*
X0256285Y0140374D01*
X0256508Y0140495D01*
X0256753Y0140571D01*
X0257016Y0140598D01*
X0262092Y0140598D01*
X0262355Y0140571D01*
X0262600Y0140495D01*
X0262822Y0140374D01*
X0263016Y0140213D01*
X0263176Y0140020D01*
X0263297Y0139797D01*
X0263374Y0139552D01*
X0263400Y0139289D01*
X0263400Y0137405D01*
X0060762Y0141013D02*
X0060762Y0145461D01*
D11*
X0063154Y0119252D02*
X0063154Y0112165D01*
X0070240Y0112165D01*
X0070240Y0119252D01*
X0063154Y0119252D01*
X0001300Y0114803D02*
X0001300Y0099735D01*
X0027811Y0070350D02*
X0034341Y0076852D01*
X0055555Y0076852D01*
X0062065Y0070335D01*
X0062070Y0065404D01*
X0062080Y0070321D02*
X0062065Y0070335D01*
X0062080Y0070321D02*
X0062080Y0049085D01*
X0055211Y0042656D01*
X0034305Y0042656D01*
X0027832Y0049083D01*
X0027811Y0070350D01*
X0027816Y0065369D01*
X0027811Y0070350D02*
X0027811Y0070350D01*
X0037793Y0073232D02*
X0042523Y0072500D01*
X0052098Y0072500D01*
X0052098Y0073964D01*
X0042523Y0073964D01*
X0037793Y0073232D01*
X0036678Y0050068D02*
X0053214Y0050068D01*
X0053214Y0042769D01*
X0036678Y0042769D01*
X0036678Y0050068D01*
D12*
X0127066Y0111697D02*
X0127104Y0111640D01*
X0127145Y0111586D01*
X0127189Y0111534D01*
X0127236Y0111485D01*
X0127285Y0111439D01*
X0127338Y0111395D01*
X0127392Y0111355D01*
X0127449Y0111318D01*
X0127508Y0111285D01*
X0127569Y0111254D01*
X0127631Y0111228D01*
X0127695Y0111205D01*
X0127761Y0111186D01*
X0127827Y0111171D01*
X0127894Y0111159D01*
X0127961Y0111152D01*
X0128029Y0111148D01*
X0128097Y0111149D01*
X0128164Y0111153D01*
X0128232Y0111161D01*
X0128299Y0111174D01*
X0128365Y0111190D01*
X0128430Y0111209D01*
X0128493Y0111233D01*
X0128555Y0111260D01*
X0128616Y0111291D01*
X0128674Y0111325D01*
X0128731Y0111363D01*
X0128785Y0111404D01*
X0128837Y0111448D01*
X0128886Y0111495D01*
X0128932Y0111544D01*
X0128976Y0111597D01*
X0129016Y0111651D01*
X0129053Y0111708D01*
X0129086Y0111767D01*
X0129117Y0111828D01*
X0129143Y0111890D01*
X0129166Y0111954D01*
X0129185Y0112020D01*
X0129200Y0112086D01*
X0129212Y0112153D01*
X0129219Y0112220D01*
X0129223Y0112288D01*
X0129222Y0112356D01*
X0129218Y0112423D01*
X0129210Y0112491D01*
X0129198Y0112558D01*
X0129181Y0112624D01*
X0129162Y0112688D01*
X0129138Y0112752D01*
X0129111Y0112814D01*
X0129080Y0112875D01*
X0129046Y0112933D01*
X0129009Y0112989D01*
X0128969Y0113042D01*
X0128926Y0113093D01*
X0128880Y0113141D01*
X0128831Y0113187D01*
X0128780Y0113230D01*
X0128727Y0113270D01*
X0128671Y0113307D01*
X0128614Y0113340D01*
X0128554Y0113370D01*
X0128493Y0113397D01*
X0128431Y0113420D01*
X0128367Y0113440D01*
X0128302Y0113456D01*
X0128237Y0113468D01*
X0128171Y0113476D01*
X0128104Y0113481D01*
X0128037Y0113482D01*
X0127971Y0113479D01*
X0127905Y0113472D01*
X0127839Y0113462D01*
X0127774Y0113447D01*
X0127709Y0113429D01*
X0127646Y0113408D01*
X0127585Y0113383D01*
X0127525Y0113354D01*
X0127466Y0113322D01*
X0127410Y0113287D01*
X0127355Y0113248D01*
X0127303Y0113207D01*
X0127253Y0113162D01*
X0127206Y0113115D01*
X0127162Y0113065D01*
X0127121Y0113013D01*
X0127082Y0112958D01*
X0127047Y0112902D01*
X0127015Y0112843D01*
X0126987Y0112783D01*
X0126962Y0112721D01*
X0126941Y0112658D01*
X0126923Y0112594D01*
X0126909Y0112529D01*
X0126898Y0112463D01*
X0126892Y0112396D01*
X0126889Y0112330D01*
X0126890Y0112263D01*
X0126895Y0112197D01*
X0126904Y0112131D01*
X0126916Y0112065D01*
X0126932Y0112000D01*
X0126952Y0111937D01*
X0126975Y0111874D01*
X0127002Y0111813D01*
X0127033Y0111754D01*
X0127066Y0111697D01*
X0131123Y0113131D02*
X0131247Y0112933D01*
X0131444Y0113056D01*
X0131321Y0113254D01*
X0131123Y0113131D01*
X0134017Y0114664D02*
X0135006Y0115282D01*
X0134017Y0114663D02*
X0133960Y0114630D01*
X0133901Y0114599D01*
X0133840Y0114572D01*
X0133777Y0114549D01*
X0133714Y0114529D01*
X0133649Y0114513D01*
X0133583Y0114501D01*
X0133517Y0114492D01*
X0133451Y0114487D01*
X0133384Y0114486D01*
X0133318Y0114489D01*
X0133251Y0114495D01*
X0133185Y0114506D01*
X0133120Y0114520D01*
X0133056Y0114538D01*
X0132993Y0114559D01*
X0132931Y0114584D01*
X0132871Y0114612D01*
X0132812Y0114644D01*
X0132756Y0114679D01*
X0132701Y0114718D01*
X0132649Y0114759D01*
X0132599Y0114803D01*
X0132552Y0114850D01*
X0132507Y0114900D01*
X0132466Y0114952D01*
X0132427Y0115007D01*
X0132392Y0115063D01*
X0132360Y0115122D01*
X0132331Y0115182D01*
X0132306Y0115243D01*
X0132285Y0115307D01*
X0132267Y0115371D01*
X0132252Y0115436D01*
X0132242Y0115502D01*
X0132235Y0115568D01*
X0132232Y0115634D01*
X0132233Y0115701D01*
X0132238Y0115768D01*
X0132246Y0115834D01*
X0132258Y0115899D01*
X0132274Y0115964D01*
X0132294Y0116028D01*
X0132317Y0116090D01*
X0132344Y0116151D01*
X0132374Y0116211D01*
X0132407Y0116268D01*
X0132444Y0116324D01*
X0132484Y0116377D01*
X0132527Y0116428D01*
X0132573Y0116477D01*
X0132621Y0116523D01*
X0132672Y0116566D01*
X0132725Y0116606D01*
X0132781Y0116643D01*
X0132583Y0116519D02*
X0133374Y0117014D01*
X0132582Y0116519D02*
X0132531Y0116489D01*
X0132477Y0116462D01*
X0132422Y0116439D01*
X0132366Y0116419D01*
X0132308Y0116403D01*
X0132249Y0116391D01*
X0132190Y0116383D01*
X0132131Y0116378D01*
X0132071Y0116377D01*
X0132011Y0116380D01*
X0131952Y0116387D01*
X0131893Y0116398D01*
X0131835Y0116412D01*
X0131778Y0116430D01*
X0131722Y0116452D01*
X0131668Y0116477D01*
X0131615Y0116506D01*
X0131565Y0116538D01*
X0131516Y0116573D01*
X0131470Y0116611D01*
X0131427Y0116652D01*
X0131386Y0116696D01*
X0131348Y0116742D01*
X0131313Y0116790D01*
X0131281Y0116841D01*
X0131253Y0116894D01*
X0131228Y0116948D01*
X0131207Y0117004D01*
X0131189Y0117061D01*
X0131175Y0117119D01*
X0131164Y0117178D01*
X0131158Y0117238D01*
X0131155Y0117297D01*
X0131156Y0117357D01*
X0131161Y0117417D01*
X0131170Y0117476D01*
X0131182Y0117534D01*
X0131199Y0117592D01*
X0131219Y0117648D01*
X0131242Y0117703D01*
X0131269Y0117757D01*
X0131299Y0117808D01*
X0131333Y0117858D01*
X0131369Y0117905D01*
X0131409Y0117950D01*
X0131451Y0117992D01*
X0131496Y0118032D01*
X0131544Y0118068D01*
X0131594Y0118101D01*
X0131593Y0118102D02*
X0132781Y0118844D01*
X0137201Y0119955D02*
X0138388Y0120697D01*
X0137251Y0121637D02*
X0139106Y0118669D01*
X0139131Y0118626D01*
X0139152Y0118581D01*
X0139171Y0118534D01*
X0139186Y0118487D01*
X0139198Y0118438D01*
X0139206Y0118389D01*
X0139211Y0118339D01*
X0139212Y0118289D01*
X0139210Y0118239D01*
X0139204Y0118190D01*
X0139194Y0118141D01*
X0139181Y0118092D01*
X0139165Y0118045D01*
X0139145Y0117999D01*
X0139122Y0117955D01*
X0139096Y0117912D01*
X0139067Y0117871D01*
X0139035Y0117833D01*
X0139001Y0117797D01*
X0138964Y0117763D01*
X0138924Y0117732D01*
X0138883Y0117704D01*
X0138685Y0117581D01*
X0141367Y0119257D02*
X0139883Y0121631D01*
X0141466Y0122620D02*
X0142579Y0120839D01*
X0142605Y0120794D01*
X0142627Y0120746D01*
X0142646Y0120698D01*
X0142662Y0120647D01*
X0142673Y0120596D01*
X0142681Y0120545D01*
X0142685Y0120492D01*
X0142684Y0120440D01*
X0142680Y0120388D01*
X0142672Y0120336D01*
X0142661Y0120285D01*
X0142645Y0120235D01*
X0142626Y0120186D01*
X0142603Y0120139D01*
X0142577Y0120094D01*
X0142547Y0120051D01*
X0142514Y0120010D01*
X0142479Y0119972D01*
X0142440Y0119936D01*
X0142399Y0119904D01*
X0142356Y0119874D01*
X0142356Y0119875D02*
X0141367Y0119257D01*
X0144307Y0122194D02*
X0143812Y0122986D01*
X0143782Y0123037D01*
X0143755Y0123091D01*
X0143732Y0123146D01*
X0143712Y0123202D01*
X0143696Y0123260D01*
X0143684Y0123319D01*
X0143676Y0123378D01*
X0143671Y0123437D01*
X0143670Y0123497D01*
X0143673Y0123557D01*
X0143680Y0123616D01*
X0143691Y0123675D01*
X0143705Y0123733D01*
X0143723Y0123790D01*
X0143745Y0123846D01*
X0143770Y0123900D01*
X0143799Y0123953D01*
X0143831Y0124003D01*
X0143866Y0124052D01*
X0143904Y0124098D01*
X0143945Y0124141D01*
X0143989Y0124182D01*
X0144035Y0124220D01*
X0144083Y0124255D01*
X0144134Y0124287D01*
X0144187Y0124315D01*
X0144241Y0124340D01*
X0144297Y0124361D01*
X0144354Y0124379D01*
X0144412Y0124393D01*
X0144471Y0124404D01*
X0144531Y0124410D01*
X0144590Y0124413D01*
X0144650Y0124412D01*
X0144710Y0124407D01*
X0144769Y0124398D01*
X0144827Y0124386D01*
X0144885Y0124369D01*
X0144941Y0124349D01*
X0144996Y0124326D01*
X0145050Y0124299D01*
X0145101Y0124269D01*
X0145151Y0124235D01*
X0145198Y0124199D01*
X0145243Y0124159D01*
X0145285Y0124117D01*
X0145325Y0124072D01*
X0145361Y0124024D01*
X0145394Y0123974D01*
X0145395Y0123975D02*
X0145890Y0123183D01*
X0145889Y0123183D02*
X0145920Y0123131D01*
X0145947Y0123076D01*
X0145970Y0123020D01*
X0145990Y0122962D01*
X0146006Y0122903D01*
X0146018Y0122843D01*
X0146026Y0122782D01*
X0146030Y0122722D01*
X0146031Y0122661D01*
X0146027Y0122600D01*
X0146019Y0122539D01*
X0146007Y0122479D01*
X0145991Y0122420D01*
X0145972Y0122362D01*
X0145949Y0122306D01*
X0145922Y0122251D01*
X0145891Y0122198D01*
X0145858Y0122147D01*
X0145821Y0122099D01*
X0145780Y0122053D01*
X0145737Y0122009D01*
X0145691Y0121969D01*
X0145643Y0121932D01*
X0145592Y0121898D01*
X0145540Y0121867D01*
X0145485Y0121840D01*
X0145429Y0121817D01*
X0145371Y0121797D01*
X0145312Y0121781D01*
X0145252Y0121769D01*
X0145191Y0121761D01*
X0145131Y0121757D01*
X0145070Y0121756D01*
X0145009Y0121760D01*
X0144948Y0121768D01*
X0144888Y0121780D01*
X0144829Y0121796D01*
X0144771Y0121815D01*
X0144715Y0121838D01*
X0144660Y0121865D01*
X0144607Y0121896D01*
X0144556Y0121929D01*
X0144508Y0121966D01*
X0144462Y0122007D01*
X0144418Y0122050D01*
X0144378Y0122096D01*
X0144341Y0122144D01*
X0144307Y0122195D01*
X0148773Y0123885D02*
X0148081Y0126754D01*
X0146498Y0125764D02*
X0149910Y0122945D01*
X0150306Y0123192D01*
X0151318Y0125475D02*
X0150205Y0127256D01*
X0150453Y0126860D02*
X0151343Y0127417D01*
X0150205Y0127256D02*
X0150180Y0127299D01*
X0150159Y0127344D01*
X0150140Y0127391D01*
X0150125Y0127438D01*
X0150113Y0127487D01*
X0150105Y0127536D01*
X0150100Y0127586D01*
X0150099Y0127636D01*
X0150101Y0127686D01*
X0150107Y0127735D01*
X0150117Y0127784D01*
X0150130Y0127833D01*
X0150146Y0127880D01*
X0150166Y0127926D01*
X0150189Y0127970D01*
X0150215Y0128013D01*
X0150244Y0128054D01*
X0150276Y0128092D01*
X0150310Y0128128D01*
X0150347Y0128162D01*
X0150387Y0128193D01*
X0150428Y0128221D01*
X0151220Y0128715D01*
X0151343Y0127417D02*
X0151392Y0127445D01*
X0151444Y0127470D01*
X0151497Y0127492D01*
X0151551Y0127509D01*
X0151606Y0127523D01*
X0151662Y0127533D01*
X0151719Y0127539D01*
X0151776Y0127541D01*
X0151833Y0127539D01*
X0151890Y0127533D01*
X0151946Y0127523D01*
X0152001Y0127509D01*
X0152055Y0127492D01*
X0152108Y0127470D01*
X0152160Y0127445D01*
X0152209Y0127417D01*
X0152256Y0127385D01*
X0152301Y0127350D01*
X0152344Y0127312D01*
X0152383Y0127271D01*
X0152420Y0127227D01*
X0152453Y0127181D01*
X0152484Y0127133D01*
X0152510Y0127082D01*
X0152534Y0127030D01*
X0152553Y0126976D01*
X0152569Y0126922D01*
X0152581Y0126866D01*
X0152589Y0126809D01*
X0152593Y0126753D01*
X0152593Y0126695D01*
X0152589Y0126639D01*
X0152581Y0126582D01*
X0152569Y0126526D01*
X0152553Y0126472D01*
X0152534Y0126418D01*
X0152510Y0126366D01*
X0152484Y0126316D01*
X0152453Y0126267D01*
X0152420Y0126221D01*
X0152383Y0126177D01*
X0152344Y0126136D01*
X0152301Y0126098D01*
X0152256Y0126063D01*
X0152209Y0126031D01*
X0151318Y0125475D01*
X0154302Y0127339D02*
X0154345Y0127369D01*
X0154386Y0127401D01*
X0154425Y0127437D01*
X0154460Y0127475D01*
X0154493Y0127516D01*
X0154523Y0127559D01*
X0154549Y0127604D01*
X0154572Y0127651D01*
X0154591Y0127700D01*
X0154607Y0127750D01*
X0154618Y0127801D01*
X0154626Y0127853D01*
X0154630Y0127905D01*
X0154631Y0127957D01*
X0154627Y0128010D01*
X0154619Y0128061D01*
X0154608Y0128112D01*
X0154592Y0128163D01*
X0154573Y0128211D01*
X0154551Y0128259D01*
X0154525Y0128304D01*
X0152670Y0131272D01*
X0127734Y0114590D02*
X0127764Y0114539D01*
X0127791Y0114485D01*
X0127814Y0114430D01*
X0127834Y0114374D01*
X0127850Y0114316D01*
X0127862Y0114257D01*
X0127870Y0114198D01*
X0127875Y0114139D01*
X0127876Y0114079D01*
X0127873Y0114019D01*
X0127866Y0113960D01*
X0127855Y0113901D01*
X0127841Y0113843D01*
X0127823Y0113786D01*
X0127801Y0113730D01*
X0127776Y0113676D01*
X0127747Y0113623D01*
X0127715Y0113573D01*
X0127680Y0113524D01*
X0127642Y0113478D01*
X0127601Y0113435D01*
X0127557Y0113394D01*
X0127511Y0113356D01*
X0127463Y0113321D01*
X0127412Y0113289D01*
X0127359Y0113261D01*
X0127305Y0113236D01*
X0127249Y0113215D01*
X0127192Y0113197D01*
X0127134Y0113183D01*
X0127075Y0113172D01*
X0127015Y0113166D01*
X0126956Y0113163D01*
X0126896Y0113164D01*
X0126836Y0113169D01*
X0126777Y0113178D01*
X0126719Y0113190D01*
X0126661Y0113207D01*
X0126605Y0113227D01*
X0126550Y0113250D01*
X0126496Y0113277D01*
X0126445Y0113307D01*
X0126395Y0113341D01*
X0126348Y0113377D01*
X0126303Y0113417D01*
X0126261Y0113459D01*
X0126221Y0113504D01*
X0126185Y0113552D01*
X0126152Y0113602D01*
X0126121Y0113654D01*
X0126094Y0113709D01*
X0126071Y0113765D01*
X0126051Y0113823D01*
X0126035Y0113882D01*
X0126023Y0113942D01*
X0126015Y0114003D01*
X0126011Y0114063D01*
X0126010Y0114124D01*
X0126014Y0114185D01*
X0126022Y0114246D01*
X0126034Y0114306D01*
X0126050Y0114365D01*
X0126069Y0114423D01*
X0126092Y0114479D01*
X0126119Y0114534D01*
X0126150Y0114587D01*
X0126183Y0114638D01*
X0126220Y0114686D01*
X0126261Y0114732D01*
X0126304Y0114776D01*
X0126350Y0114816D01*
X0126398Y0114853D01*
X0126449Y0114887D01*
X0126501Y0114918D01*
X0126556Y0114945D01*
X0126612Y0114968D01*
X0126670Y0114988D01*
X0126729Y0115004D01*
X0126789Y0115016D01*
X0126850Y0115024D01*
X0126910Y0115028D01*
X0126971Y0115029D01*
X0127032Y0115025D01*
X0127093Y0115017D01*
X0127153Y0115005D01*
X0127212Y0114989D01*
X0127270Y0114970D01*
X0127326Y0114947D01*
X0127381Y0114920D01*
X0127434Y0114889D01*
X0127485Y0114856D01*
X0127533Y0114819D01*
X0127579Y0114778D01*
X0127623Y0114735D01*
X0127663Y0114689D01*
X0127700Y0114641D01*
X0127734Y0114590D01*
X0060762Y0145461D02*
X0020291Y0145461D01*
X0200074Y0131282D02*
X0200569Y0132074D01*
X0201558Y0131455D02*
X0201064Y0130664D01*
X0201590Y0127858D02*
X0200478Y0126078D01*
X0202061Y0125088D02*
X0203544Y0127463D01*
X0202555Y0128081D01*
X0202510Y0128107D01*
X0202462Y0128129D01*
X0202414Y0128148D01*
X0202363Y0128164D01*
X0202312Y0128175D01*
X0202261Y0128183D01*
X0202208Y0128187D01*
X0202156Y0128186D01*
X0202104Y0128182D01*
X0202052Y0128174D01*
X0202001Y0128163D01*
X0201951Y0128147D01*
X0201902Y0128128D01*
X0201855Y0128105D01*
X0201810Y0128079D01*
X0201767Y0128049D01*
X0201726Y0128016D01*
X0201688Y0127981D01*
X0201652Y0127942D01*
X0201620Y0127901D01*
X0201590Y0127858D01*
X0205297Y0126368D02*
X0203813Y0123993D01*
X0205595Y0122880D02*
X0206585Y0122261D01*
X0206628Y0122236D01*
X0206673Y0122215D01*
X0206720Y0122196D01*
X0206767Y0122181D01*
X0206816Y0122169D01*
X0206865Y0122161D01*
X0206915Y0122156D01*
X0206965Y0122155D01*
X0207015Y0122157D01*
X0207064Y0122163D01*
X0207113Y0122173D01*
X0207162Y0122186D01*
X0207209Y0122202D01*
X0207255Y0122222D01*
X0207299Y0122245D01*
X0207342Y0122271D01*
X0207383Y0122300D01*
X0207421Y0122332D01*
X0207457Y0122366D01*
X0207491Y0122403D01*
X0207522Y0122443D01*
X0207550Y0122484D01*
X0207549Y0122484D02*
X0208291Y0123671D01*
X0208316Y0123714D01*
X0208337Y0123759D01*
X0208356Y0123806D01*
X0208371Y0123853D01*
X0208383Y0123902D01*
X0208391Y0123951D01*
X0208396Y0124001D01*
X0208397Y0124051D01*
X0208395Y0124101D01*
X0208389Y0124150D01*
X0208379Y0124199D01*
X0208366Y0124248D01*
X0208350Y0124295D01*
X0208330Y0124341D01*
X0208307Y0124385D01*
X0208281Y0124428D01*
X0208252Y0124469D01*
X0208220Y0124507D01*
X0208186Y0124543D01*
X0208149Y0124577D01*
X0208109Y0124608D01*
X0208068Y0124636D01*
X0207079Y0125254D01*
X0207821Y0126441D02*
X0205595Y0122880D01*
X0209030Y0120733D02*
X0211255Y0124295D01*
X0210514Y0123108D02*
X0211503Y0122490D01*
X0211544Y0122462D01*
X0211584Y0122431D01*
X0211621Y0122397D01*
X0211655Y0122361D01*
X0211687Y0122323D01*
X0211716Y0122282D01*
X0211742Y0122239D01*
X0211765Y0122195D01*
X0211785Y0122149D01*
X0211801Y0122102D01*
X0211814Y0122053D01*
X0211824Y0122004D01*
X0211830Y0121955D01*
X0211832Y0121905D01*
X0211831Y0121855D01*
X0211826Y0121805D01*
X0211818Y0121756D01*
X0211806Y0121707D01*
X0211791Y0121660D01*
X0211772Y0121613D01*
X0211751Y0121568D01*
X0211726Y0121525D01*
X0210984Y0120338D01*
X0210956Y0120297D01*
X0210925Y0120257D01*
X0210891Y0120220D01*
X0210855Y0120186D01*
X0210817Y0120154D01*
X0210776Y0120125D01*
X0210733Y0120099D01*
X0210689Y0120076D01*
X0210643Y0120056D01*
X0210596Y0120040D01*
X0210547Y0120027D01*
X0210498Y0120017D01*
X0210449Y0120011D01*
X0210399Y0120009D01*
X0210349Y0120010D01*
X0210299Y0120015D01*
X0210250Y0120023D01*
X0210201Y0120035D01*
X0210154Y0120050D01*
X0210107Y0120069D01*
X0210062Y0120090D01*
X0210019Y0120115D01*
X0209030Y0120733D01*
X0212464Y0118587D02*
X0213577Y0120368D01*
X0213330Y0119972D02*
X0214220Y0119416D01*
X0213577Y0120368D02*
X0213605Y0120409D01*
X0213636Y0120449D01*
X0213670Y0120486D01*
X0213706Y0120520D01*
X0213744Y0120552D01*
X0213785Y0120581D01*
X0213828Y0120607D01*
X0213872Y0120630D01*
X0213918Y0120650D01*
X0213965Y0120666D01*
X0214014Y0120679D01*
X0214063Y0120689D01*
X0214112Y0120695D01*
X0214162Y0120697D01*
X0214212Y0120696D01*
X0214262Y0120691D01*
X0214311Y0120683D01*
X0214360Y0120671D01*
X0214407Y0120656D01*
X0214454Y0120637D01*
X0214499Y0120616D01*
X0214542Y0120591D01*
X0215333Y0120096D01*
X0214221Y0119416D02*
X0214267Y0119385D01*
X0214311Y0119350D01*
X0214353Y0119313D01*
X0214392Y0119273D01*
X0214428Y0119231D01*
X0214461Y0119186D01*
X0214491Y0119139D01*
X0214518Y0119090D01*
X0214541Y0119039D01*
X0214561Y0118987D01*
X0214577Y0118934D01*
X0214590Y0118880D01*
X0214599Y0118824D01*
X0214604Y0118769D01*
X0214605Y0118713D01*
X0214602Y0118657D01*
X0214596Y0118602D01*
X0214586Y0118547D01*
X0214572Y0118493D01*
X0214554Y0118440D01*
X0214533Y0118388D01*
X0214509Y0118338D01*
X0214481Y0118290D01*
X0214450Y0118244D01*
X0214415Y0118200D01*
X0214378Y0118158D01*
X0214338Y0118119D01*
X0214296Y0118083D01*
X0214251Y0118050D01*
X0214204Y0118020D01*
X0214155Y0117993D01*
X0214104Y0117970D01*
X0214052Y0117950D01*
X0213999Y0117934D01*
X0213945Y0117921D01*
X0213889Y0117912D01*
X0213834Y0117907D01*
X0213778Y0117906D01*
X0213722Y0117909D01*
X0213667Y0117915D01*
X0213612Y0117925D01*
X0213558Y0117939D01*
X0213505Y0117957D01*
X0213453Y0117978D01*
X0213403Y0118002D01*
X0213355Y0118030D01*
X0213355Y0118031D02*
X0212464Y0118587D01*
X0215448Y0116722D02*
X0215491Y0116697D01*
X0215536Y0116676D01*
X0215583Y0116657D01*
X0215630Y0116642D01*
X0215679Y0116630D01*
X0215728Y0116622D01*
X0215778Y0116617D01*
X0215828Y0116616D01*
X0215878Y0116618D01*
X0215927Y0116624D01*
X0215976Y0116634D01*
X0216025Y0116647D01*
X0216072Y0116663D01*
X0216118Y0116683D01*
X0216162Y0116706D01*
X0216205Y0116732D01*
X0216246Y0116761D01*
X0216284Y0116793D01*
X0216320Y0116827D01*
X0216354Y0116864D01*
X0216385Y0116904D01*
X0216413Y0116945D01*
X0218268Y0119914D01*
X0223226Y0116815D02*
X0223720Y0117607D01*
X0224710Y0116989D02*
X0224215Y0116197D01*
X0220803Y0116678D02*
X0220012Y0117173D01*
X0219969Y0117198D01*
X0219924Y0117219D01*
X0219877Y0117238D01*
X0219830Y0117253D01*
X0219781Y0117265D01*
X0219732Y0117273D01*
X0219682Y0117278D01*
X0219632Y0117279D01*
X0219582Y0117277D01*
X0219533Y0117271D01*
X0219484Y0117261D01*
X0219435Y0117248D01*
X0219388Y0117232D01*
X0219342Y0117212D01*
X0219298Y0117189D01*
X0219255Y0117163D01*
X0219214Y0117134D01*
X0219176Y0117102D01*
X0219140Y0117068D01*
X0219106Y0117031D01*
X0219075Y0116991D01*
X0219047Y0116950D01*
X0217934Y0115169D01*
X0218825Y0114613D01*
X0218824Y0114612D02*
X0218872Y0114584D01*
X0218922Y0114560D01*
X0218974Y0114539D01*
X0219027Y0114521D01*
X0219081Y0114507D01*
X0219136Y0114497D01*
X0219191Y0114491D01*
X0219247Y0114488D01*
X0219303Y0114489D01*
X0219358Y0114494D01*
X0219414Y0114503D01*
X0219468Y0114516D01*
X0219521Y0114532D01*
X0219573Y0114552D01*
X0219624Y0114575D01*
X0219673Y0114602D01*
X0219720Y0114632D01*
X0219765Y0114665D01*
X0219807Y0114701D01*
X0219847Y0114740D01*
X0219884Y0114782D01*
X0219919Y0114826D01*
X0219950Y0114872D01*
X0219978Y0114920D01*
X0220002Y0114970D01*
X0220023Y0115022D01*
X0220041Y0115075D01*
X0220055Y0115129D01*
X0220065Y0115184D01*
X0220071Y0115239D01*
X0220074Y0115295D01*
X0220073Y0115351D01*
X0220068Y0115406D01*
X0220059Y0115462D01*
X0220046Y0115516D01*
X0220030Y0115569D01*
X0220010Y0115621D01*
X0219987Y0115672D01*
X0219960Y0115721D01*
X0219930Y0115768D01*
X0219897Y0115813D01*
X0219861Y0115855D01*
X0219822Y0115895D01*
X0219780Y0115932D01*
X0219736Y0115967D01*
X0219690Y0115998D01*
X0218800Y0116554D01*
X0206014Y0127295D02*
X0205816Y0127419D01*
X0205940Y0127617D01*
X0206138Y0127493D01*
X0206014Y0127295D01*
D13*
X0257697Y0138386D02*
X0257697Y0138831D01*
X0257699Y0138856D01*
X0257704Y0138881D01*
X0257713Y0138905D01*
X0257725Y0138927D01*
X0257740Y0138948D01*
X0257758Y0138966D01*
X0257779Y0138981D01*
X0257801Y0138993D01*
X0257825Y0139002D01*
X0257850Y0139007D01*
X0257875Y0139009D01*
X0257875Y0139008D02*
X0258052Y0139008D01*
X0258322Y0139008D02*
X0258322Y0138431D01*
X0258324Y0138402D01*
X0258330Y0138374D01*
X0258339Y0138346D01*
X0258352Y0138320D01*
X0258368Y0138296D01*
X0258387Y0138274D01*
X0258409Y0138255D01*
X0258433Y0138239D01*
X0258459Y0138226D01*
X0258487Y0138217D01*
X0258515Y0138211D01*
X0258544Y0138209D01*
X0258573Y0138211D01*
X0258601Y0138217D01*
X0258629Y0138226D01*
X0258655Y0138239D01*
X0258679Y0138255D01*
X0258701Y0138274D01*
X0258720Y0138296D01*
X0258736Y0138320D01*
X0258749Y0138346D01*
X0258758Y0138374D01*
X0258764Y0138402D01*
X0258766Y0138431D01*
X0258766Y0139008D01*
X0259018Y0139008D02*
X0259462Y0139008D01*
X0259240Y0139008D02*
X0259240Y0138208D01*
X0260074Y0138431D02*
X0260074Y0138786D01*
X0260076Y0138815D01*
X0260082Y0138843D01*
X0260091Y0138871D01*
X0260104Y0138897D01*
X0260120Y0138921D01*
X0260139Y0138943D01*
X0260161Y0138962D01*
X0260185Y0138978D01*
X0260211Y0138991D01*
X0260239Y0139000D01*
X0260267Y0139006D01*
X0260296Y0139008D01*
X0260325Y0139006D01*
X0260353Y0139000D01*
X0260381Y0138991D01*
X0260407Y0138978D01*
X0260431Y0138962D01*
X0260453Y0138943D01*
X0260472Y0138921D01*
X0260488Y0138897D01*
X0260501Y0138871D01*
X0260510Y0138843D01*
X0260516Y0138815D01*
X0260518Y0138786D01*
X0260518Y0138431D01*
X0260516Y0138402D01*
X0260510Y0138374D01*
X0260501Y0138346D01*
X0260488Y0138320D01*
X0260472Y0138296D01*
X0260453Y0138274D01*
X0260431Y0138255D01*
X0260407Y0138239D01*
X0260381Y0138226D01*
X0260353Y0138217D01*
X0260325Y0138211D01*
X0260296Y0138209D01*
X0260267Y0138211D01*
X0260239Y0138217D01*
X0260211Y0138226D01*
X0260185Y0138239D01*
X0260161Y0138255D01*
X0260139Y0138274D01*
X0260120Y0138296D01*
X0260104Y0138320D01*
X0260091Y0138346D01*
X0260082Y0138374D01*
X0260076Y0138402D01*
X0260074Y0138431D01*
X0260818Y0138431D02*
X0260818Y0139008D01*
X0261262Y0139008D02*
X0261262Y0138431D01*
X0261260Y0138402D01*
X0261254Y0138374D01*
X0261245Y0138346D01*
X0261232Y0138320D01*
X0261216Y0138296D01*
X0261197Y0138274D01*
X0261175Y0138255D01*
X0261151Y0138239D01*
X0261125Y0138226D01*
X0261097Y0138217D01*
X0261069Y0138211D01*
X0261040Y0138209D01*
X0261011Y0138211D01*
X0260983Y0138217D01*
X0260955Y0138226D01*
X0260929Y0138239D01*
X0260905Y0138255D01*
X0260883Y0138274D01*
X0260864Y0138296D01*
X0260848Y0138320D01*
X0260835Y0138346D01*
X0260826Y0138374D01*
X0260820Y0138402D01*
X0260818Y0138431D01*
X0261514Y0139008D02*
X0261958Y0139008D01*
X0261736Y0139008D02*
X0261736Y0138208D01*
X0258052Y0138208D02*
X0257875Y0138208D01*
X0257850Y0138210D01*
X0257825Y0138215D01*
X0257801Y0138224D01*
X0257779Y0138236D01*
X0257758Y0138251D01*
X0257740Y0138269D01*
X0257725Y0138290D01*
X0257713Y0138312D01*
X0257704Y0138336D01*
X0257699Y0138361D01*
X0257697Y0138386D01*
X0272697Y0138386D02*
X0272697Y0138831D01*
X0272699Y0138856D01*
X0272704Y0138881D01*
X0272713Y0138905D01*
X0272725Y0138927D01*
X0272740Y0138948D01*
X0272758Y0138966D01*
X0272779Y0138981D01*
X0272801Y0138993D01*
X0272825Y0139002D01*
X0272850Y0139007D01*
X0272875Y0139009D01*
X0272875Y0139008D02*
X0273052Y0139008D01*
X0273322Y0139008D02*
X0273322Y0138431D01*
X0273324Y0138402D01*
X0273330Y0138374D01*
X0273339Y0138346D01*
X0273352Y0138320D01*
X0273368Y0138296D01*
X0273387Y0138274D01*
X0273409Y0138255D01*
X0273433Y0138239D01*
X0273459Y0138226D01*
X0273487Y0138217D01*
X0273515Y0138211D01*
X0273544Y0138209D01*
X0273573Y0138211D01*
X0273601Y0138217D01*
X0273629Y0138226D01*
X0273655Y0138239D01*
X0273679Y0138255D01*
X0273701Y0138274D01*
X0273720Y0138296D01*
X0273736Y0138320D01*
X0273749Y0138346D01*
X0273758Y0138374D01*
X0273764Y0138402D01*
X0273766Y0138431D01*
X0273766Y0139008D01*
X0274018Y0139008D02*
X0274462Y0139008D01*
X0274240Y0139008D02*
X0274240Y0138208D01*
X0275074Y0138431D02*
X0275074Y0138786D01*
X0275076Y0138815D01*
X0275082Y0138843D01*
X0275091Y0138871D01*
X0275104Y0138897D01*
X0275120Y0138921D01*
X0275139Y0138943D01*
X0275161Y0138962D01*
X0275185Y0138978D01*
X0275211Y0138991D01*
X0275239Y0139000D01*
X0275267Y0139006D01*
X0275296Y0139008D01*
X0275325Y0139006D01*
X0275353Y0139000D01*
X0275381Y0138991D01*
X0275407Y0138978D01*
X0275431Y0138962D01*
X0275453Y0138943D01*
X0275472Y0138921D01*
X0275488Y0138897D01*
X0275501Y0138871D01*
X0275510Y0138843D01*
X0275516Y0138815D01*
X0275518Y0138786D01*
X0275518Y0138431D01*
X0275516Y0138402D01*
X0275510Y0138374D01*
X0275501Y0138346D01*
X0275488Y0138320D01*
X0275472Y0138296D01*
X0275453Y0138274D01*
X0275431Y0138255D01*
X0275407Y0138239D01*
X0275381Y0138226D01*
X0275353Y0138217D01*
X0275325Y0138211D01*
X0275296Y0138209D01*
X0275267Y0138211D01*
X0275239Y0138217D01*
X0275211Y0138226D01*
X0275185Y0138239D01*
X0275161Y0138255D01*
X0275139Y0138274D01*
X0275120Y0138296D01*
X0275104Y0138320D01*
X0275091Y0138346D01*
X0275082Y0138374D01*
X0275076Y0138402D01*
X0275074Y0138431D01*
X0275818Y0138431D02*
X0275818Y0139008D01*
X0276262Y0139008D02*
X0276262Y0138431D01*
X0276260Y0138402D01*
X0276254Y0138374D01*
X0276245Y0138346D01*
X0276232Y0138320D01*
X0276216Y0138296D01*
X0276197Y0138274D01*
X0276175Y0138255D01*
X0276151Y0138239D01*
X0276125Y0138226D01*
X0276097Y0138217D01*
X0276069Y0138211D01*
X0276040Y0138209D01*
X0276011Y0138211D01*
X0275983Y0138217D01*
X0275955Y0138226D01*
X0275929Y0138239D01*
X0275905Y0138255D01*
X0275883Y0138274D01*
X0275864Y0138296D01*
X0275848Y0138320D01*
X0275835Y0138346D01*
X0275826Y0138374D01*
X0275820Y0138402D01*
X0275818Y0138431D01*
X0276514Y0139008D02*
X0276958Y0139008D01*
X0276736Y0139008D02*
X0276736Y0138208D01*
X0273052Y0138208D02*
X0272875Y0138208D01*
X0272850Y0138210D01*
X0272825Y0138215D01*
X0272801Y0138224D01*
X0272779Y0138236D01*
X0272758Y0138251D01*
X0272740Y0138269D01*
X0272725Y0138290D01*
X0272713Y0138312D01*
X0272704Y0138336D01*
X0272699Y0138361D01*
X0272697Y0138386D01*
X0310197Y0138331D02*
X0310197Y0137886D01*
X0310199Y0137861D01*
X0310204Y0137836D01*
X0310213Y0137812D01*
X0310225Y0137790D01*
X0310240Y0137769D01*
X0310258Y0137751D01*
X0310279Y0137736D01*
X0310301Y0137724D01*
X0310325Y0137715D01*
X0310350Y0137710D01*
X0310375Y0137708D01*
X0310552Y0137708D01*
X0310822Y0137931D02*
X0310822Y0138508D01*
X0310552Y0138508D02*
X0310375Y0138508D01*
X0310375Y0138509D02*
X0310350Y0138507D01*
X0310325Y0138502D01*
X0310301Y0138493D01*
X0310279Y0138481D01*
X0310258Y0138466D01*
X0310240Y0138448D01*
X0310225Y0138427D01*
X0310213Y0138405D01*
X0310204Y0138381D01*
X0310199Y0138356D01*
X0310197Y0138331D01*
X0310822Y0137931D02*
X0310824Y0137902D01*
X0310830Y0137874D01*
X0310839Y0137846D01*
X0310852Y0137820D01*
X0310868Y0137796D01*
X0310887Y0137774D01*
X0310909Y0137755D01*
X0310933Y0137739D01*
X0310959Y0137726D01*
X0310987Y0137717D01*
X0311015Y0137711D01*
X0311044Y0137709D01*
X0311073Y0137711D01*
X0311101Y0137717D01*
X0311129Y0137726D01*
X0311155Y0137739D01*
X0311179Y0137755D01*
X0311201Y0137774D01*
X0311220Y0137796D01*
X0311236Y0137820D01*
X0311249Y0137846D01*
X0311258Y0137874D01*
X0311264Y0137902D01*
X0311266Y0137931D01*
X0311266Y0138508D01*
X0311518Y0138508D02*
X0311962Y0138508D01*
X0311740Y0138508D02*
X0311740Y0137708D01*
X0312574Y0137931D02*
X0312574Y0138286D01*
X0312576Y0138315D01*
X0312582Y0138343D01*
X0312591Y0138371D01*
X0312604Y0138397D01*
X0312620Y0138421D01*
X0312639Y0138443D01*
X0312661Y0138462D01*
X0312685Y0138478D01*
X0312711Y0138491D01*
X0312739Y0138500D01*
X0312767Y0138506D01*
X0312796Y0138508D01*
X0312825Y0138506D01*
X0312853Y0138500D01*
X0312881Y0138491D01*
X0312907Y0138478D01*
X0312931Y0138462D01*
X0312953Y0138443D01*
X0312972Y0138421D01*
X0312988Y0138397D01*
X0313001Y0138371D01*
X0313010Y0138343D01*
X0313016Y0138315D01*
X0313018Y0138286D01*
X0313018Y0137931D01*
X0313016Y0137902D01*
X0313010Y0137874D01*
X0313001Y0137846D01*
X0312988Y0137820D01*
X0312972Y0137796D01*
X0312953Y0137774D01*
X0312931Y0137755D01*
X0312907Y0137739D01*
X0312881Y0137726D01*
X0312853Y0137717D01*
X0312825Y0137711D01*
X0312796Y0137709D01*
X0312767Y0137711D01*
X0312739Y0137717D01*
X0312711Y0137726D01*
X0312685Y0137739D01*
X0312661Y0137755D01*
X0312639Y0137774D01*
X0312620Y0137796D01*
X0312604Y0137820D01*
X0312591Y0137846D01*
X0312582Y0137874D01*
X0312576Y0137902D01*
X0312574Y0137931D01*
X0313318Y0137931D02*
X0313318Y0138508D01*
X0313762Y0138508D02*
X0313762Y0137931D01*
X0313760Y0137902D01*
X0313754Y0137874D01*
X0313745Y0137846D01*
X0313732Y0137820D01*
X0313716Y0137796D01*
X0313697Y0137774D01*
X0313675Y0137755D01*
X0313651Y0137739D01*
X0313625Y0137726D01*
X0313597Y0137717D01*
X0313569Y0137711D01*
X0313540Y0137709D01*
X0313511Y0137711D01*
X0313483Y0137717D01*
X0313455Y0137726D01*
X0313429Y0137739D01*
X0313405Y0137755D01*
X0313383Y0137774D01*
X0313364Y0137796D01*
X0313348Y0137820D01*
X0313335Y0137846D01*
X0313326Y0137874D01*
X0313320Y0137902D01*
X0313318Y0137931D01*
X0314014Y0138508D02*
X0314458Y0138508D01*
X0314236Y0138508D02*
X0314236Y0137708D01*
X0332897Y0125470D02*
X0332897Y0125025D01*
X0332897Y0125248D02*
X0333697Y0125248D01*
X0333475Y0124774D02*
X0332897Y0124774D01*
X0332897Y0124329D02*
X0333475Y0124329D01*
X0333475Y0124330D02*
X0333504Y0124332D01*
X0333532Y0124338D01*
X0333560Y0124347D01*
X0333586Y0124360D01*
X0333610Y0124376D01*
X0333632Y0124395D01*
X0333651Y0124417D01*
X0333667Y0124441D01*
X0333680Y0124467D01*
X0333689Y0124495D01*
X0333695Y0124523D01*
X0333697Y0124552D01*
X0333695Y0124581D01*
X0333689Y0124609D01*
X0333680Y0124637D01*
X0333667Y0124663D01*
X0333651Y0124687D01*
X0333632Y0124709D01*
X0333610Y0124728D01*
X0333586Y0124744D01*
X0333560Y0124757D01*
X0333532Y0124766D01*
X0333504Y0124772D01*
X0333475Y0124774D01*
X0333475Y0124030D02*
X0333119Y0124030D01*
X0333090Y0124028D01*
X0333062Y0124022D01*
X0333034Y0124013D01*
X0333008Y0124000D01*
X0332984Y0123984D01*
X0332962Y0123965D01*
X0332943Y0123943D01*
X0332927Y0123919D01*
X0332914Y0123893D01*
X0332905Y0123865D01*
X0332899Y0123837D01*
X0332897Y0123808D01*
X0332899Y0123779D01*
X0332905Y0123751D01*
X0332914Y0123723D01*
X0332927Y0123697D01*
X0332943Y0123673D01*
X0332962Y0123651D01*
X0332984Y0123632D01*
X0333008Y0123616D01*
X0333034Y0123603D01*
X0333062Y0123594D01*
X0333090Y0123588D01*
X0333119Y0123586D01*
X0333119Y0123585D02*
X0333475Y0123585D01*
X0333475Y0123586D02*
X0333504Y0123588D01*
X0333532Y0123594D01*
X0333560Y0123603D01*
X0333586Y0123616D01*
X0333610Y0123632D01*
X0333632Y0123651D01*
X0333651Y0123673D01*
X0333667Y0123697D01*
X0333680Y0123723D01*
X0333689Y0123751D01*
X0333695Y0123779D01*
X0333697Y0123808D01*
X0333695Y0123837D01*
X0333689Y0123865D01*
X0333680Y0123893D01*
X0333667Y0123919D01*
X0333651Y0123943D01*
X0333632Y0123965D01*
X0333610Y0123984D01*
X0333586Y0124000D01*
X0333560Y0124013D01*
X0333532Y0124022D01*
X0333504Y0124028D01*
X0333475Y0124030D01*
X0332897Y0122974D02*
X0332897Y0122529D01*
X0332897Y0122752D02*
X0333697Y0122752D01*
X0333475Y0122278D02*
X0332897Y0122278D01*
X0332897Y0121833D02*
X0333475Y0121833D01*
X0333475Y0121834D02*
X0333504Y0121836D01*
X0333532Y0121842D01*
X0333560Y0121851D01*
X0333586Y0121864D01*
X0333610Y0121880D01*
X0333632Y0121899D01*
X0333651Y0121921D01*
X0333667Y0121945D01*
X0333680Y0121971D01*
X0333689Y0121999D01*
X0333695Y0122027D01*
X0333697Y0122056D01*
X0333695Y0122085D01*
X0333689Y0122113D01*
X0333680Y0122141D01*
X0333667Y0122167D01*
X0333651Y0122191D01*
X0333632Y0122213D01*
X0333610Y0122232D01*
X0333586Y0122248D01*
X0333560Y0122261D01*
X0333532Y0122270D01*
X0333504Y0122276D01*
X0333475Y0122278D01*
X0333697Y0121564D02*
X0333697Y0121386D01*
X0333695Y0121361D01*
X0333690Y0121336D01*
X0333681Y0121312D01*
X0333669Y0121290D01*
X0333654Y0121269D01*
X0333636Y0121251D01*
X0333615Y0121236D01*
X0333593Y0121224D01*
X0333569Y0121215D01*
X0333544Y0121210D01*
X0333519Y0121208D01*
X0333075Y0121208D01*
X0333050Y0121210D01*
X0333025Y0121215D01*
X0333001Y0121224D01*
X0332979Y0121236D01*
X0332958Y0121251D01*
X0332940Y0121269D01*
X0332925Y0121290D01*
X0332913Y0121312D01*
X0332904Y0121336D01*
X0332899Y0121361D01*
X0332897Y0121386D01*
X0332897Y0121564D01*
X0345197Y0117831D02*
X0345197Y0117386D01*
X0345199Y0117361D01*
X0345204Y0117336D01*
X0345213Y0117312D01*
X0345225Y0117290D01*
X0345240Y0117269D01*
X0345258Y0117251D01*
X0345279Y0117236D01*
X0345301Y0117224D01*
X0345325Y0117215D01*
X0345350Y0117210D01*
X0345375Y0117208D01*
X0345552Y0117208D01*
X0345822Y0117431D02*
X0345822Y0118008D01*
X0345552Y0118008D02*
X0345375Y0118008D01*
X0345375Y0118009D02*
X0345350Y0118007D01*
X0345325Y0118002D01*
X0345301Y0117993D01*
X0345279Y0117981D01*
X0345258Y0117966D01*
X0345240Y0117948D01*
X0345225Y0117927D01*
X0345213Y0117905D01*
X0345204Y0117881D01*
X0345199Y0117856D01*
X0345197Y0117831D01*
X0345822Y0117431D02*
X0345824Y0117402D01*
X0345830Y0117374D01*
X0345839Y0117346D01*
X0345852Y0117320D01*
X0345868Y0117296D01*
X0345887Y0117274D01*
X0345909Y0117255D01*
X0345933Y0117239D01*
X0345959Y0117226D01*
X0345987Y0117217D01*
X0346015Y0117211D01*
X0346044Y0117209D01*
X0346073Y0117211D01*
X0346101Y0117217D01*
X0346129Y0117226D01*
X0346155Y0117239D01*
X0346179Y0117255D01*
X0346201Y0117274D01*
X0346220Y0117296D01*
X0346236Y0117320D01*
X0346249Y0117346D01*
X0346258Y0117374D01*
X0346264Y0117402D01*
X0346266Y0117431D01*
X0346266Y0118008D01*
X0346518Y0118008D02*
X0346962Y0118008D01*
X0346740Y0118008D02*
X0346740Y0117208D01*
X0347574Y0117431D02*
X0347574Y0117786D01*
X0347576Y0117815D01*
X0347582Y0117843D01*
X0347591Y0117871D01*
X0347604Y0117897D01*
X0347620Y0117921D01*
X0347639Y0117943D01*
X0347661Y0117962D01*
X0347685Y0117978D01*
X0347711Y0117991D01*
X0347739Y0118000D01*
X0347767Y0118006D01*
X0347796Y0118008D01*
X0347825Y0118006D01*
X0347853Y0118000D01*
X0347881Y0117991D01*
X0347907Y0117978D01*
X0347931Y0117962D01*
X0347953Y0117943D01*
X0347972Y0117921D01*
X0347988Y0117897D01*
X0348001Y0117871D01*
X0348010Y0117843D01*
X0348016Y0117815D01*
X0348018Y0117786D01*
X0348018Y0117431D01*
X0348016Y0117402D01*
X0348010Y0117374D01*
X0348001Y0117346D01*
X0347988Y0117320D01*
X0347972Y0117296D01*
X0347953Y0117274D01*
X0347931Y0117255D01*
X0347907Y0117239D01*
X0347881Y0117226D01*
X0347853Y0117217D01*
X0347825Y0117211D01*
X0347796Y0117209D01*
X0347767Y0117211D01*
X0347739Y0117217D01*
X0347711Y0117226D01*
X0347685Y0117239D01*
X0347661Y0117255D01*
X0347639Y0117274D01*
X0347620Y0117296D01*
X0347604Y0117320D01*
X0347591Y0117346D01*
X0347582Y0117374D01*
X0347576Y0117402D01*
X0347574Y0117431D01*
X0348318Y0117431D02*
X0348318Y0118008D01*
X0348762Y0118008D02*
X0348762Y0117431D01*
X0348760Y0117402D01*
X0348754Y0117374D01*
X0348745Y0117346D01*
X0348732Y0117320D01*
X0348716Y0117296D01*
X0348697Y0117274D01*
X0348675Y0117255D01*
X0348651Y0117239D01*
X0348625Y0117226D01*
X0348597Y0117217D01*
X0348569Y0117211D01*
X0348540Y0117209D01*
X0348511Y0117211D01*
X0348483Y0117217D01*
X0348455Y0117226D01*
X0348429Y0117239D01*
X0348405Y0117255D01*
X0348383Y0117274D01*
X0348364Y0117296D01*
X0348348Y0117320D01*
X0348335Y0117346D01*
X0348326Y0117374D01*
X0348320Y0117402D01*
X0348318Y0117431D01*
X0349014Y0118008D02*
X0349458Y0118008D01*
X0349236Y0118008D02*
X0349236Y0117208D01*
X0363697Y0117386D02*
X0363697Y0117831D01*
X0363699Y0117856D01*
X0363704Y0117881D01*
X0363713Y0117905D01*
X0363725Y0117927D01*
X0363740Y0117948D01*
X0363758Y0117966D01*
X0363779Y0117981D01*
X0363801Y0117993D01*
X0363825Y0118002D01*
X0363850Y0118007D01*
X0363875Y0118009D01*
X0363875Y0118008D02*
X0364052Y0118008D01*
X0364322Y0118008D02*
X0364322Y0117431D01*
X0364324Y0117402D01*
X0364330Y0117374D01*
X0364339Y0117346D01*
X0364352Y0117320D01*
X0364368Y0117296D01*
X0364387Y0117274D01*
X0364409Y0117255D01*
X0364433Y0117239D01*
X0364459Y0117226D01*
X0364487Y0117217D01*
X0364515Y0117211D01*
X0364544Y0117209D01*
X0364573Y0117211D01*
X0364601Y0117217D01*
X0364629Y0117226D01*
X0364655Y0117239D01*
X0364679Y0117255D01*
X0364701Y0117274D01*
X0364720Y0117296D01*
X0364736Y0117320D01*
X0364749Y0117346D01*
X0364758Y0117374D01*
X0364764Y0117402D01*
X0364766Y0117431D01*
X0364766Y0118008D01*
X0365018Y0118008D02*
X0365462Y0118008D01*
X0365240Y0118008D02*
X0365240Y0117208D01*
X0366074Y0117431D02*
X0366074Y0117786D01*
X0366076Y0117815D01*
X0366082Y0117843D01*
X0366091Y0117871D01*
X0366104Y0117897D01*
X0366120Y0117921D01*
X0366139Y0117943D01*
X0366161Y0117962D01*
X0366185Y0117978D01*
X0366211Y0117991D01*
X0366239Y0118000D01*
X0366267Y0118006D01*
X0366296Y0118008D01*
X0366325Y0118006D01*
X0366353Y0118000D01*
X0366381Y0117991D01*
X0366407Y0117978D01*
X0366431Y0117962D01*
X0366453Y0117943D01*
X0366472Y0117921D01*
X0366488Y0117897D01*
X0366501Y0117871D01*
X0366510Y0117843D01*
X0366516Y0117815D01*
X0366518Y0117786D01*
X0366518Y0117431D01*
X0366516Y0117402D01*
X0366510Y0117374D01*
X0366501Y0117346D01*
X0366488Y0117320D01*
X0366472Y0117296D01*
X0366453Y0117274D01*
X0366431Y0117255D01*
X0366407Y0117239D01*
X0366381Y0117226D01*
X0366353Y0117217D01*
X0366325Y0117211D01*
X0366296Y0117209D01*
X0366267Y0117211D01*
X0366239Y0117217D01*
X0366211Y0117226D01*
X0366185Y0117239D01*
X0366161Y0117255D01*
X0366139Y0117274D01*
X0366120Y0117296D01*
X0366104Y0117320D01*
X0366091Y0117346D01*
X0366082Y0117374D01*
X0366076Y0117402D01*
X0366074Y0117431D01*
X0366818Y0117431D02*
X0366818Y0118008D01*
X0367262Y0118008D02*
X0367262Y0117431D01*
X0367260Y0117402D01*
X0367254Y0117374D01*
X0367245Y0117346D01*
X0367232Y0117320D01*
X0367216Y0117296D01*
X0367197Y0117274D01*
X0367175Y0117255D01*
X0367151Y0117239D01*
X0367125Y0117226D01*
X0367097Y0117217D01*
X0367069Y0117211D01*
X0367040Y0117209D01*
X0367011Y0117211D01*
X0366983Y0117217D01*
X0366955Y0117226D01*
X0366929Y0117239D01*
X0366905Y0117255D01*
X0366883Y0117274D01*
X0366864Y0117296D01*
X0366848Y0117320D01*
X0366835Y0117346D01*
X0366826Y0117374D01*
X0366820Y0117402D01*
X0366818Y0117431D01*
X0367514Y0118008D02*
X0367958Y0118008D01*
X0367736Y0118008D02*
X0367736Y0117208D01*
X0364052Y0117208D02*
X0363875Y0117208D01*
X0363850Y0117210D01*
X0363825Y0117215D01*
X0363801Y0117224D01*
X0363779Y0117236D01*
X0363758Y0117251D01*
X0363740Y0117269D01*
X0363725Y0117290D01*
X0363713Y0117312D01*
X0363704Y0117336D01*
X0363699Y0117361D01*
X0363697Y0117386D01*
X0285697Y0097208D02*
X0285252Y0097208D01*
X0285475Y0097208D02*
X0285475Y0096408D01*
X0285001Y0096631D02*
X0285001Y0097208D01*
X0284556Y0097208D02*
X0284556Y0096631D01*
X0284557Y0096631D02*
X0284559Y0096602D01*
X0284565Y0096574D01*
X0284574Y0096546D01*
X0284587Y0096520D01*
X0284603Y0096496D01*
X0284622Y0096474D01*
X0284644Y0096455D01*
X0284668Y0096439D01*
X0284694Y0096426D01*
X0284722Y0096417D01*
X0284750Y0096411D01*
X0284779Y0096409D01*
X0284808Y0096411D01*
X0284836Y0096417D01*
X0284864Y0096426D01*
X0284890Y0096439D01*
X0284914Y0096455D01*
X0284936Y0096474D01*
X0284955Y0096496D01*
X0284971Y0096520D01*
X0284984Y0096546D01*
X0284993Y0096574D01*
X0284999Y0096602D01*
X0285001Y0096631D01*
X0284257Y0096631D02*
X0284257Y0096986D01*
X0284255Y0097015D01*
X0284249Y0097043D01*
X0284240Y0097071D01*
X0284227Y0097097D01*
X0284211Y0097121D01*
X0284192Y0097143D01*
X0284170Y0097162D01*
X0284146Y0097178D01*
X0284120Y0097191D01*
X0284092Y0097200D01*
X0284064Y0097206D01*
X0284035Y0097208D01*
X0284006Y0097206D01*
X0283978Y0097200D01*
X0283950Y0097191D01*
X0283924Y0097178D01*
X0283900Y0097162D01*
X0283878Y0097143D01*
X0283859Y0097121D01*
X0283843Y0097097D01*
X0283830Y0097071D01*
X0283821Y0097043D01*
X0283815Y0097015D01*
X0283813Y0096986D01*
X0283812Y0096986D02*
X0283812Y0096631D01*
X0283813Y0096631D02*
X0283815Y0096602D01*
X0283821Y0096574D01*
X0283830Y0096546D01*
X0283843Y0096520D01*
X0283859Y0096496D01*
X0283878Y0096474D01*
X0283900Y0096455D01*
X0283924Y0096439D01*
X0283950Y0096426D01*
X0283978Y0096417D01*
X0284006Y0096411D01*
X0284035Y0096409D01*
X0284064Y0096411D01*
X0284092Y0096417D01*
X0284120Y0096426D01*
X0284146Y0096439D01*
X0284170Y0096455D01*
X0284192Y0096474D01*
X0284211Y0096496D01*
X0284227Y0096520D01*
X0284240Y0096546D01*
X0284249Y0096574D01*
X0284255Y0096602D01*
X0284257Y0096631D01*
X0283201Y0097208D02*
X0282756Y0097208D01*
X0282979Y0097208D02*
X0282979Y0096408D01*
X0282505Y0096631D02*
X0282505Y0097208D01*
X0282060Y0097208D02*
X0282060Y0096631D01*
X0282061Y0096631D02*
X0282063Y0096602D01*
X0282069Y0096574D01*
X0282078Y0096546D01*
X0282091Y0096520D01*
X0282107Y0096496D01*
X0282126Y0096474D01*
X0282148Y0096455D01*
X0282172Y0096439D01*
X0282198Y0096426D01*
X0282226Y0096417D01*
X0282254Y0096411D01*
X0282283Y0096409D01*
X0282312Y0096411D01*
X0282340Y0096417D01*
X0282368Y0096426D01*
X0282394Y0096439D01*
X0282418Y0096455D01*
X0282440Y0096474D01*
X0282459Y0096496D01*
X0282475Y0096520D01*
X0282488Y0096546D01*
X0282497Y0096574D01*
X0282503Y0096602D01*
X0282505Y0096631D01*
X0281791Y0096408D02*
X0281613Y0096408D01*
X0281588Y0096410D01*
X0281563Y0096415D01*
X0281539Y0096424D01*
X0281517Y0096436D01*
X0281496Y0096451D01*
X0281478Y0096469D01*
X0281463Y0096490D01*
X0281451Y0096512D01*
X0281442Y0096536D01*
X0281437Y0096561D01*
X0281435Y0096586D01*
X0281435Y0097031D01*
X0281437Y0097056D01*
X0281442Y0097081D01*
X0281451Y0097105D01*
X0281463Y0097127D01*
X0281478Y0097148D01*
X0281496Y0097166D01*
X0281517Y0097181D01*
X0281539Y0097193D01*
X0281563Y0097202D01*
X0281588Y0097207D01*
X0281613Y0097209D01*
X0281613Y0097208D02*
X0281791Y0097208D01*
D14*
X0197616Y0135467D02*
X0197616Y0141967D01*
X0195811Y0141967D01*
X0195811Y0141966D02*
X0195746Y0141964D01*
X0195680Y0141958D01*
X0195616Y0141948D01*
X0195552Y0141935D01*
X0195489Y0141917D01*
X0195427Y0141896D01*
X0195367Y0141871D01*
X0195308Y0141842D01*
X0195251Y0141810D01*
X0195196Y0141774D01*
X0195143Y0141736D01*
X0195093Y0141694D01*
X0195045Y0141649D01*
X0195000Y0141601D01*
X0194958Y0141551D01*
X0194920Y0141498D01*
X0194884Y0141443D01*
X0194852Y0141386D01*
X0194823Y0141327D01*
X0194798Y0141267D01*
X0194777Y0141205D01*
X0194759Y0141142D01*
X0194746Y0141078D01*
X0194736Y0141014D01*
X0194730Y0140948D01*
X0194728Y0140883D01*
X0194728Y0138717D01*
X0194730Y0138654D01*
X0194735Y0138591D01*
X0194744Y0138529D01*
X0194757Y0138467D01*
X0194773Y0138406D01*
X0194793Y0138347D01*
X0194817Y0138288D01*
X0194843Y0138231D01*
X0194873Y0138176D01*
X0194906Y0138122D01*
X0194942Y0138070D01*
X0194981Y0138021D01*
X0195023Y0137974D01*
X0195068Y0137929D01*
X0195115Y0137887D01*
X0195164Y0137848D01*
X0195216Y0137812D01*
X0195270Y0137779D01*
X0195325Y0137749D01*
X0195382Y0137723D01*
X0195441Y0137699D01*
X0195500Y0137679D01*
X0195561Y0137663D01*
X0195623Y0137650D01*
X0195685Y0137641D01*
X0195748Y0137636D01*
X0195811Y0137634D01*
X0195811Y0137633D02*
X0197616Y0137633D01*
X0200704Y0139078D02*
X0200704Y0140522D01*
X0200705Y0140522D02*
X0200707Y0140598D01*
X0200713Y0140673D01*
X0200723Y0140748D01*
X0200737Y0140822D01*
X0200754Y0140896D01*
X0200776Y0140968D01*
X0200801Y0141039D01*
X0200830Y0141109D01*
X0200862Y0141178D01*
X0200898Y0141244D01*
X0200938Y0141308D01*
X0200981Y0141371D01*
X0201027Y0141431D01*
X0201076Y0141488D01*
X0201128Y0141543D01*
X0201183Y0141595D01*
X0201240Y0141644D01*
X0201300Y0141690D01*
X0201363Y0141733D01*
X0201427Y0141773D01*
X0201493Y0141809D01*
X0201562Y0141841D01*
X0201632Y0141870D01*
X0201703Y0141895D01*
X0201775Y0141917D01*
X0201849Y0141934D01*
X0201923Y0141948D01*
X0201998Y0141958D01*
X0202073Y0141964D01*
X0202149Y0141966D01*
X0202225Y0141964D01*
X0202300Y0141958D01*
X0202375Y0141948D01*
X0202449Y0141934D01*
X0202523Y0141917D01*
X0202595Y0141895D01*
X0202666Y0141870D01*
X0202736Y0141841D01*
X0202805Y0141809D01*
X0202871Y0141773D01*
X0202935Y0141733D01*
X0202998Y0141690D01*
X0203058Y0141644D01*
X0203115Y0141595D01*
X0203170Y0141543D01*
X0203222Y0141488D01*
X0203271Y0141431D01*
X0203317Y0141371D01*
X0203360Y0141308D01*
X0203400Y0141244D01*
X0203436Y0141178D01*
X0203468Y0141109D01*
X0203497Y0141039D01*
X0203522Y0140968D01*
X0203544Y0140896D01*
X0203561Y0140822D01*
X0203575Y0140748D01*
X0203585Y0140673D01*
X0203591Y0140598D01*
X0203593Y0140522D01*
X0203593Y0139078D01*
X0203591Y0139002D01*
X0203585Y0138927D01*
X0203575Y0138852D01*
X0203561Y0138778D01*
X0203544Y0138704D01*
X0203522Y0138632D01*
X0203497Y0138561D01*
X0203468Y0138491D01*
X0203436Y0138422D01*
X0203400Y0138356D01*
X0203360Y0138292D01*
X0203317Y0138229D01*
X0203271Y0138169D01*
X0203222Y0138112D01*
X0203170Y0138057D01*
X0203115Y0138005D01*
X0203058Y0137956D01*
X0202998Y0137910D01*
X0202935Y0137867D01*
X0202871Y0137827D01*
X0202805Y0137791D01*
X0202736Y0137759D01*
X0202666Y0137730D01*
X0202595Y0137705D01*
X0202523Y0137683D01*
X0202449Y0137666D01*
X0202375Y0137652D01*
X0202300Y0137642D01*
X0202225Y0137636D01*
X0202149Y0137634D01*
X0202073Y0137636D01*
X0201998Y0137642D01*
X0201923Y0137652D01*
X0201849Y0137666D01*
X0201775Y0137683D01*
X0201703Y0137705D01*
X0201632Y0137730D01*
X0201562Y0137759D01*
X0201493Y0137791D01*
X0201427Y0137827D01*
X0201363Y0137867D01*
X0201300Y0137910D01*
X0201240Y0137956D01*
X0201183Y0138005D01*
X0201128Y0138057D01*
X0201076Y0138112D01*
X0201027Y0138169D01*
X0200981Y0138229D01*
X0200938Y0138292D01*
X0200898Y0138356D01*
X0200862Y0138422D01*
X0200830Y0138491D01*
X0200801Y0138561D01*
X0200776Y0138632D01*
X0200754Y0138704D01*
X0200737Y0138778D01*
X0200723Y0138852D01*
X0200713Y0138927D01*
X0200707Y0139002D01*
X0200705Y0139078D01*
X0206145Y0137994D02*
X0206145Y0137633D01*
X0206506Y0137633D01*
X0206506Y0137994D01*
X0206145Y0137994D01*
X0210078Y0137633D02*
X0211162Y0140522D01*
X0212245Y0137633D01*
X0213328Y0141967D01*
X0216029Y0141967D02*
X0217113Y0137633D01*
X0218196Y0140522D01*
X0219279Y0137633D01*
X0220363Y0141967D01*
X0223064Y0141967D02*
X0224147Y0137633D01*
X0225230Y0140522D01*
X0226314Y0137633D01*
X0227397Y0141967D01*
X0210078Y0137633D02*
X0208995Y0141967D01*
X0191943Y0140522D02*
X0191943Y0138717D01*
X0191943Y0139800D02*
X0189054Y0139800D01*
X0189054Y0140522D01*
X0189056Y0140598D01*
X0189062Y0140673D01*
X0189072Y0140748D01*
X0189086Y0140822D01*
X0189103Y0140896D01*
X0189125Y0140968D01*
X0189150Y0141039D01*
X0189179Y0141109D01*
X0189211Y0141178D01*
X0189247Y0141244D01*
X0189287Y0141308D01*
X0189330Y0141371D01*
X0189376Y0141431D01*
X0189425Y0141488D01*
X0189477Y0141543D01*
X0189532Y0141595D01*
X0189589Y0141644D01*
X0189649Y0141690D01*
X0189712Y0141733D01*
X0189776Y0141773D01*
X0189842Y0141809D01*
X0189911Y0141841D01*
X0189981Y0141870D01*
X0190052Y0141895D01*
X0190124Y0141917D01*
X0190198Y0141934D01*
X0190272Y0141948D01*
X0190347Y0141958D01*
X0190422Y0141964D01*
X0190498Y0141966D01*
X0190574Y0141964D01*
X0190649Y0141958D01*
X0190724Y0141948D01*
X0190798Y0141934D01*
X0190872Y0141917D01*
X0190944Y0141895D01*
X0191015Y0141870D01*
X0191085Y0141841D01*
X0191154Y0141809D01*
X0191220Y0141773D01*
X0191284Y0141733D01*
X0191347Y0141690D01*
X0191407Y0141644D01*
X0191464Y0141595D01*
X0191519Y0141543D01*
X0191571Y0141488D01*
X0191620Y0141431D01*
X0191666Y0141371D01*
X0191709Y0141308D01*
X0191749Y0141244D01*
X0191785Y0141178D01*
X0191817Y0141109D01*
X0191846Y0141039D01*
X0191871Y0140968D01*
X0191893Y0140896D01*
X0191910Y0140822D01*
X0191924Y0140748D01*
X0191934Y0140673D01*
X0191940Y0140598D01*
X0191942Y0140522D01*
X0191942Y0138717D02*
X0191940Y0138654D01*
X0191935Y0138591D01*
X0191926Y0138529D01*
X0191913Y0138467D01*
X0191897Y0138406D01*
X0191877Y0138347D01*
X0191853Y0138288D01*
X0191827Y0138231D01*
X0191797Y0138176D01*
X0191764Y0138122D01*
X0191728Y0138070D01*
X0191689Y0138021D01*
X0191647Y0137974D01*
X0191602Y0137929D01*
X0191555Y0137887D01*
X0191506Y0137848D01*
X0191454Y0137812D01*
X0191401Y0137779D01*
X0191345Y0137749D01*
X0191288Y0137723D01*
X0191229Y0137699D01*
X0191170Y0137679D01*
X0191109Y0137663D01*
X0191047Y0137650D01*
X0190985Y0137641D01*
X0190922Y0137636D01*
X0190859Y0137634D01*
X0190859Y0137633D02*
X0189054Y0137633D01*
X0186008Y0137633D02*
X0186008Y0141967D01*
X0184202Y0141967D01*
X0184202Y0141966D02*
X0184137Y0141964D01*
X0184071Y0141958D01*
X0184007Y0141948D01*
X0183943Y0141935D01*
X0183880Y0141917D01*
X0183818Y0141896D01*
X0183758Y0141871D01*
X0183699Y0141842D01*
X0183642Y0141810D01*
X0183587Y0141774D01*
X0183534Y0141736D01*
X0183484Y0141694D01*
X0183436Y0141649D01*
X0183391Y0141601D01*
X0183349Y0141551D01*
X0183311Y0141498D01*
X0183275Y0141443D01*
X0183243Y0141386D01*
X0183214Y0141327D01*
X0183189Y0141267D01*
X0183168Y0141205D01*
X0183150Y0141142D01*
X0183137Y0141078D01*
X0183127Y0141014D01*
X0183121Y0140948D01*
X0183119Y0140883D01*
X0183119Y0137633D01*
X0177324Y0140342D02*
X0177260Y0140302D01*
X0177197Y0140258D01*
X0177137Y0140211D01*
X0177080Y0140161D01*
X0177025Y0140108D01*
X0176973Y0140053D01*
X0176924Y0139995D01*
X0176878Y0139934D01*
X0176835Y0139871D01*
X0176795Y0139806D01*
X0176759Y0139739D01*
X0176727Y0139670D01*
X0176698Y0139599D01*
X0176673Y0139528D01*
X0176651Y0139455D01*
X0176634Y0139380D01*
X0176620Y0139306D01*
X0176610Y0139230D01*
X0176604Y0139154D01*
X0176602Y0139078D01*
X0176603Y0139078D02*
X0176605Y0139005D01*
X0176610Y0138932D01*
X0176620Y0138859D01*
X0176633Y0138787D01*
X0176649Y0138716D01*
X0176669Y0138646D01*
X0176693Y0138576D01*
X0176720Y0138509D01*
X0176751Y0138442D01*
X0176784Y0138377D01*
X0176822Y0138314D01*
X0176862Y0138253D01*
X0176905Y0138194D01*
X0176951Y0138137D01*
X0177000Y0138083D01*
X0177052Y0138031D01*
X0177106Y0137982D01*
X0177163Y0137936D01*
X0177222Y0137893D01*
X0177283Y0137853D01*
X0177346Y0137815D01*
X0177411Y0137782D01*
X0177478Y0137751D01*
X0177546Y0137724D01*
X0177615Y0137700D01*
X0177685Y0137680D01*
X0177756Y0137664D01*
X0177828Y0137651D01*
X0177901Y0137641D01*
X0177974Y0137636D01*
X0178047Y0137634D01*
X0177325Y0140342D02*
X0179311Y0141425D01*
X0178589Y0144133D02*
X0178487Y0144131D01*
X0178384Y0144125D01*
X0178282Y0144116D01*
X0178181Y0144102D01*
X0178080Y0144085D01*
X0177979Y0144063D01*
X0177880Y0144038D01*
X0177781Y0144010D01*
X0177684Y0143977D01*
X0177588Y0143941D01*
X0177494Y0143902D01*
X0177401Y0143858D01*
X0177310Y0143812D01*
X0177220Y0143762D01*
X0177133Y0143708D01*
X0177047Y0143651D01*
X0176964Y0143591D01*
X0179311Y0141425D02*
X0179375Y0141465D01*
X0179438Y0141509D01*
X0179498Y0141556D01*
X0179555Y0141606D01*
X0179610Y0141659D01*
X0179662Y0141714D01*
X0179711Y0141772D01*
X0179757Y0141833D01*
X0179800Y0141896D01*
X0179840Y0141961D01*
X0179876Y0142028D01*
X0179908Y0142097D01*
X0179937Y0142168D01*
X0179962Y0142239D01*
X0179984Y0142312D01*
X0180001Y0142387D01*
X0180015Y0142461D01*
X0180025Y0142537D01*
X0180031Y0142613D01*
X0180033Y0142689D01*
X0180031Y0142765D01*
X0180025Y0142840D01*
X0180015Y0142915D01*
X0180001Y0142989D01*
X0179984Y0143063D01*
X0179962Y0143135D01*
X0179937Y0143206D01*
X0179908Y0143276D01*
X0179876Y0143345D01*
X0179840Y0143411D01*
X0179800Y0143475D01*
X0179757Y0143538D01*
X0179711Y0143598D01*
X0179662Y0143655D01*
X0179610Y0143710D01*
X0179555Y0143762D01*
X0179498Y0143811D01*
X0179438Y0143857D01*
X0179375Y0143900D01*
X0179311Y0143940D01*
X0179245Y0143976D01*
X0179176Y0144008D01*
X0179106Y0144037D01*
X0179035Y0144062D01*
X0178963Y0144084D01*
X0178889Y0144101D01*
X0178815Y0144115D01*
X0178740Y0144125D01*
X0178665Y0144131D01*
X0178589Y0144133D01*
X0174200Y0144133D02*
X0169867Y0137633D01*
X0174200Y0137633D02*
X0169867Y0144133D01*
X0167244Y0144133D02*
X0167244Y0143411D01*
X0167244Y0144133D02*
X0163633Y0144133D01*
X0165439Y0137633D01*
X0157580Y0138536D02*
X0157519Y0138665D01*
X0157461Y0138796D01*
X0157407Y0138928D01*
X0157357Y0139062D01*
X0157310Y0139197D01*
X0157267Y0139333D01*
X0157228Y0139471D01*
X0157192Y0139609D01*
X0157160Y0139748D01*
X0157131Y0139888D01*
X0157107Y0140029D01*
X0157086Y0140170D01*
X0157068Y0140312D01*
X0157055Y0140455D01*
X0157046Y0140597D01*
X0157040Y0140740D01*
X0157038Y0140883D01*
X0160650Y0140883D02*
X0160648Y0141026D01*
X0160642Y0141169D01*
X0160633Y0141311D01*
X0160620Y0141454D01*
X0160602Y0141596D01*
X0160581Y0141737D01*
X0160557Y0141878D01*
X0160528Y0142018D01*
X0160496Y0142157D01*
X0160460Y0142295D01*
X0160421Y0142433D01*
X0160378Y0142569D01*
X0160331Y0142704D01*
X0160281Y0142838D01*
X0160227Y0142970D01*
X0160169Y0143101D01*
X0160108Y0143230D01*
X0158844Y0144133D02*
X0158772Y0144131D01*
X0158700Y0144125D01*
X0158629Y0144116D01*
X0158558Y0144102D01*
X0158488Y0144085D01*
X0158419Y0144064D01*
X0158352Y0144039D01*
X0158285Y0144011D01*
X0158221Y0143979D01*
X0158158Y0143943D01*
X0158097Y0143905D01*
X0158038Y0143863D01*
X0157982Y0143818D01*
X0157928Y0143770D01*
X0157877Y0143719D01*
X0157829Y0143666D01*
X0157784Y0143610D01*
X0157741Y0143551D01*
X0157702Y0143491D01*
X0157667Y0143428D01*
X0157634Y0143364D01*
X0157605Y0143298D01*
X0157580Y0143230D01*
X0157399Y0142689D02*
X0160288Y0139078D01*
X0158844Y0137633D02*
X0158772Y0137635D01*
X0158700Y0137641D01*
X0158629Y0137650D01*
X0158558Y0137664D01*
X0158488Y0137681D01*
X0158419Y0137702D01*
X0158352Y0137727D01*
X0158285Y0137755D01*
X0158221Y0137787D01*
X0158158Y0137823D01*
X0158097Y0137861D01*
X0158038Y0137903D01*
X0157982Y0137948D01*
X0157928Y0137996D01*
X0157877Y0138047D01*
X0157829Y0138100D01*
X0157784Y0138156D01*
X0157741Y0138215D01*
X0157702Y0138275D01*
X0157667Y0138338D01*
X0157634Y0138402D01*
X0157605Y0138468D01*
X0157580Y0138536D01*
X0158844Y0137633D02*
X0158916Y0137635D01*
X0158988Y0137641D01*
X0159059Y0137650D01*
X0159130Y0137664D01*
X0159200Y0137681D01*
X0159269Y0137702D01*
X0159337Y0137727D01*
X0159403Y0137755D01*
X0159467Y0137787D01*
X0159530Y0137823D01*
X0159591Y0137861D01*
X0159650Y0137903D01*
X0159706Y0137948D01*
X0159760Y0137996D01*
X0159811Y0138047D01*
X0159859Y0138100D01*
X0159904Y0138156D01*
X0159947Y0138215D01*
X0159986Y0138275D01*
X0160021Y0138338D01*
X0160054Y0138402D01*
X0160083Y0138468D01*
X0160108Y0138536D01*
X0154408Y0137994D02*
X0154047Y0137994D01*
X0154047Y0137633D01*
X0154408Y0137633D01*
X0154408Y0137994D01*
X0151485Y0138717D02*
X0151485Y0140883D01*
X0151483Y0140946D01*
X0151478Y0141009D01*
X0151469Y0141071D01*
X0151456Y0141133D01*
X0151440Y0141194D01*
X0151420Y0141253D01*
X0151396Y0141312D01*
X0151370Y0141369D01*
X0151340Y0141425D01*
X0151307Y0141478D01*
X0151271Y0141530D01*
X0151232Y0141579D01*
X0151190Y0141626D01*
X0151145Y0141671D01*
X0151098Y0141713D01*
X0151049Y0141752D01*
X0150997Y0141788D01*
X0150944Y0141821D01*
X0150888Y0141851D01*
X0150831Y0141877D01*
X0150772Y0141901D01*
X0150713Y0141921D01*
X0150652Y0141937D01*
X0150590Y0141950D01*
X0150528Y0141959D01*
X0150465Y0141964D01*
X0150402Y0141966D01*
X0150402Y0141967D02*
X0148957Y0141967D01*
X0146440Y0140522D02*
X0146440Y0139078D01*
X0146439Y0139078D02*
X0146437Y0139002D01*
X0146431Y0138927D01*
X0146421Y0138852D01*
X0146407Y0138778D01*
X0146390Y0138704D01*
X0146368Y0138632D01*
X0146343Y0138561D01*
X0146314Y0138491D01*
X0146282Y0138422D01*
X0146246Y0138356D01*
X0146206Y0138292D01*
X0146163Y0138229D01*
X0146117Y0138169D01*
X0146068Y0138112D01*
X0146016Y0138057D01*
X0145961Y0138005D01*
X0145904Y0137956D01*
X0145844Y0137910D01*
X0145781Y0137867D01*
X0145717Y0137827D01*
X0145651Y0137791D01*
X0145582Y0137759D01*
X0145512Y0137730D01*
X0145441Y0137705D01*
X0145369Y0137683D01*
X0145295Y0137666D01*
X0145221Y0137652D01*
X0145146Y0137642D01*
X0145071Y0137636D01*
X0144995Y0137634D01*
X0144919Y0137636D01*
X0144844Y0137642D01*
X0144769Y0137652D01*
X0144695Y0137666D01*
X0144621Y0137683D01*
X0144549Y0137705D01*
X0144478Y0137730D01*
X0144408Y0137759D01*
X0144339Y0137791D01*
X0144273Y0137827D01*
X0144209Y0137867D01*
X0144146Y0137910D01*
X0144086Y0137956D01*
X0144029Y0138005D01*
X0143974Y0138057D01*
X0143922Y0138112D01*
X0143873Y0138169D01*
X0143827Y0138229D01*
X0143784Y0138292D01*
X0143744Y0138356D01*
X0143708Y0138422D01*
X0143676Y0138491D01*
X0143647Y0138561D01*
X0143622Y0138632D01*
X0143600Y0138704D01*
X0143583Y0138778D01*
X0143569Y0138852D01*
X0143559Y0138927D01*
X0143553Y0139002D01*
X0143551Y0139078D01*
X0143551Y0140522D01*
X0143553Y0140598D01*
X0143559Y0140673D01*
X0143569Y0140748D01*
X0143583Y0140822D01*
X0143600Y0140896D01*
X0143622Y0140968D01*
X0143647Y0141039D01*
X0143676Y0141109D01*
X0143708Y0141178D01*
X0143744Y0141244D01*
X0143784Y0141308D01*
X0143827Y0141371D01*
X0143873Y0141431D01*
X0143922Y0141488D01*
X0143974Y0141543D01*
X0144029Y0141595D01*
X0144086Y0141644D01*
X0144146Y0141690D01*
X0144209Y0141733D01*
X0144273Y0141773D01*
X0144339Y0141809D01*
X0144408Y0141841D01*
X0144478Y0141870D01*
X0144549Y0141895D01*
X0144621Y0141917D01*
X0144695Y0141934D01*
X0144769Y0141948D01*
X0144844Y0141958D01*
X0144919Y0141964D01*
X0144995Y0141966D01*
X0145071Y0141964D01*
X0145146Y0141958D01*
X0145221Y0141948D01*
X0145295Y0141934D01*
X0145369Y0141917D01*
X0145441Y0141895D01*
X0145512Y0141870D01*
X0145582Y0141841D01*
X0145651Y0141809D01*
X0145717Y0141773D01*
X0145781Y0141733D01*
X0145844Y0141690D01*
X0145904Y0141644D01*
X0145961Y0141595D01*
X0146016Y0141543D01*
X0146068Y0141488D01*
X0146117Y0141431D01*
X0146163Y0141371D01*
X0146206Y0141308D01*
X0146246Y0141244D01*
X0146282Y0141178D01*
X0146314Y0141109D01*
X0146343Y0141039D01*
X0146368Y0140968D01*
X0146390Y0140896D01*
X0146407Y0140822D01*
X0146421Y0140748D01*
X0146431Y0140673D01*
X0146437Y0140598D01*
X0146439Y0140522D01*
X0148957Y0137633D02*
X0150402Y0137633D01*
X0150402Y0137634D02*
X0150465Y0137636D01*
X0150528Y0137641D01*
X0150590Y0137650D01*
X0150652Y0137663D01*
X0150713Y0137679D01*
X0150772Y0137699D01*
X0150831Y0137723D01*
X0150888Y0137749D01*
X0150944Y0137779D01*
X0150997Y0137812D01*
X0151049Y0137848D01*
X0151098Y0137887D01*
X0151145Y0137929D01*
X0151190Y0137974D01*
X0151232Y0138021D01*
X0151271Y0138070D01*
X0151307Y0138122D01*
X0151340Y0138176D01*
X0151370Y0138231D01*
X0151396Y0138288D01*
X0151420Y0138347D01*
X0151440Y0138406D01*
X0151456Y0138467D01*
X0151469Y0138529D01*
X0151478Y0138591D01*
X0151483Y0138654D01*
X0151485Y0138717D01*
X0160108Y0138536D02*
X0160169Y0138665D01*
X0160227Y0138796D01*
X0160281Y0138928D01*
X0160331Y0139062D01*
X0160378Y0139197D01*
X0160421Y0139333D01*
X0160460Y0139471D01*
X0160496Y0139609D01*
X0160528Y0139748D01*
X0160557Y0139888D01*
X0160582Y0140029D01*
X0160602Y0140170D01*
X0160620Y0140312D01*
X0160633Y0140455D01*
X0160642Y0140597D01*
X0160648Y0140740D01*
X0160650Y0140883D01*
X0157039Y0140883D02*
X0157041Y0141026D01*
X0157047Y0141169D01*
X0157056Y0141311D01*
X0157069Y0141454D01*
X0157087Y0141595D01*
X0157107Y0141737D01*
X0157132Y0141878D01*
X0157161Y0142018D01*
X0157193Y0142157D01*
X0157229Y0142295D01*
X0157268Y0142433D01*
X0157311Y0142569D01*
X0157358Y0142704D01*
X0157408Y0142838D01*
X0157462Y0142970D01*
X0157520Y0143101D01*
X0157581Y0143230D01*
X0158844Y0144133D02*
X0158916Y0144131D01*
X0158988Y0144125D01*
X0159059Y0144116D01*
X0159130Y0144102D01*
X0159200Y0144085D01*
X0159269Y0144064D01*
X0159337Y0144039D01*
X0159403Y0144011D01*
X0159467Y0143979D01*
X0159530Y0143943D01*
X0159591Y0143905D01*
X0159650Y0143863D01*
X0159706Y0143818D01*
X0159760Y0143770D01*
X0159811Y0143719D01*
X0159859Y0143666D01*
X0159904Y0143610D01*
X0159947Y0143551D01*
X0159986Y0143491D01*
X0160021Y0143428D01*
X0160054Y0143364D01*
X0160083Y0143298D01*
X0160108Y0143230D01*
X0178047Y0137634D02*
X0178156Y0137636D01*
X0178266Y0137642D01*
X0178375Y0137652D01*
X0178484Y0137665D01*
X0178592Y0137683D01*
X0178699Y0137704D01*
X0178805Y0137730D01*
X0178911Y0137759D01*
X0179015Y0137792D01*
X0179119Y0137828D01*
X0179220Y0137869D01*
X0179321Y0137913D01*
X0179419Y0137960D01*
X0179516Y0138011D01*
X0179611Y0138066D01*
X0179704Y0138123D01*
X0179795Y0138184D01*
X0179884Y0138249D01*
X0179970Y0138316D01*
X0180054Y0138387D01*
X0180135Y0138460D01*
X0180213Y0138537D01*
X0140347Y0137633D02*
X0140347Y0141967D01*
X0137097Y0141967D01*
X0138181Y0141967D02*
X0138181Y0137633D01*
X0136014Y0137633D02*
X0136014Y0140883D01*
X0136016Y0140948D01*
X0136022Y0141014D01*
X0136032Y0141078D01*
X0136045Y0141142D01*
X0136063Y0141205D01*
X0136084Y0141267D01*
X0136109Y0141327D01*
X0136138Y0141386D01*
X0136170Y0141443D01*
X0136206Y0141498D01*
X0136244Y0141551D01*
X0136286Y0141601D01*
X0136331Y0141649D01*
X0136379Y0141694D01*
X0136429Y0141736D01*
X0136482Y0141774D01*
X0136537Y0141810D01*
X0136594Y0141842D01*
X0136653Y0141871D01*
X0136713Y0141896D01*
X0136775Y0141917D01*
X0136838Y0141935D01*
X0136902Y0141948D01*
X0136966Y0141958D01*
X0137032Y0141964D01*
X0137097Y0141966D01*
D15*
X0070697Y0053602D03*
D16*
X0062563Y0121220D02*
X0062565Y0121247D01*
X0062571Y0121274D01*
X0062580Y0121300D01*
X0062593Y0121324D01*
X0062609Y0121347D01*
X0062628Y0121366D01*
X0062650Y0121383D01*
X0062674Y0121397D01*
X0062699Y0121407D01*
X0062726Y0121414D01*
X0062753Y0121417D01*
X0062781Y0121416D01*
X0062808Y0121411D01*
X0062834Y0121403D01*
X0062858Y0121391D01*
X0062881Y0121375D01*
X0062902Y0121357D01*
X0062919Y0121336D01*
X0062934Y0121312D01*
X0062945Y0121287D01*
X0062953Y0121261D01*
X0062957Y0121234D01*
X0062957Y0121206D01*
X0062953Y0121179D01*
X0062945Y0121153D01*
X0062934Y0121128D01*
X0062919Y0121104D01*
X0062902Y0121083D01*
X0062881Y0121065D01*
X0062859Y0121049D01*
X0062834Y0121037D01*
X0062808Y0121029D01*
X0062781Y0121024D01*
X0062753Y0121023D01*
X0062726Y0121026D01*
X0062699Y0121033D01*
X0062674Y0121043D01*
X0062650Y0121057D01*
X0062628Y0121074D01*
X0062609Y0121093D01*
X0062593Y0121116D01*
X0062580Y0121140D01*
X0062571Y0121166D01*
X0062565Y0121193D01*
X0062563Y0121220D01*
M02*
