%
M48
M72
T01C0.01378
T02C0.04000
%
T01
X22697Y66708
X80697Y63208
X85697Y53208
X81947Y46666
X237197Y94708
X252197Y98708
X261447Y97258
X267409Y99671
X262197Y103708
X278197Y104708
X299572Y100083
X303822Y104833
X308822Y105708
X313947Y110083
X319322Y104458
X315947Y98083
X325822Y95583
X319447Y93208
X310697Y88208
X315435Y83970
X305197Y92458
X288197Y105083
X284197Y108833
X276697Y112083
X273197Y115208
X282697Y120708
X288355Y116241
X293197Y115669
X302197Y120708
X310697Y122708
X320697Y130958
X347072Y112083
X353197Y111208
X358197Y108208
X360197Y100958
X363197Y95708
X342447Y106458
X340197Y102708
X336947Y96958
X331197Y113708
X349197Y137208
X339572Y137333
X284572Y139958
X258197Y129458
X240697Y125208
X230072Y132958
X234347Y142658
X243197Y115708
X255197Y115208
X252272Y85858
X260447Y85083
X253697Y79208
X248947Y75583
X240697Y78208
X256197Y68708
X266697Y72208
X273197Y80208
X271697Y86208
X284697Y71708
X295197Y65708
X276326Y60079
X266197Y60208
X283772Y52508
X303197Y54650
X335197Y78208
X353447Y78583
X370697Y82708
X221197Y65708
X202697Y56208
X198072Y64708
X103197Y107208
X80697Y112708
X80697Y123208
X100697Y130208
X108197Y124458
X118197Y124458
X134072Y129169
X70697Y101208
X60197Y96708
X41947Y128208
X29697Y134208
T02
X106947Y55708
X116947Y55708
X126947Y55708
X136947Y55708
X146947Y55708
X156947Y55708
M30
