G04 EAGLE Gerber RS-274X export*
G75*
%MOMM*%
%FSLAX34Y34*%
%LPD*%
%INSolder Mask bottom*%
%IPPOS*%
%AMOC8*
5,1,8,0,0,1.08239X$1,22.5*%
G01*
%ADD10C,0.152400*%
%ADD11C,0.127000*%
%ADD12C,0.203200*%
%ADD13C,0.000000*%
%ADD14R,1.498600X1.498600*%
%ADD15C,1.498600*%
%ADD16R,1.601600X1.901600*%


D10*
X937546Y229161D02*
X938245Y229175D01*
X979417Y229147D01*
X979417Y64431D01*
X864625Y64431D01*
X862110Y64004D01*
X858911Y62769D01*
X855342Y60789D01*
X851718Y58131D01*
X848352Y54860D01*
X845559Y51042D01*
X843653Y46742D01*
X842947Y42026D01*
X842947Y32137D01*
X705259Y32137D01*
X705259Y8048D01*
X62246Y8048D01*
X62246Y44093D01*
X61661Y47028D01*
X60017Y50299D01*
X57479Y53683D01*
X54211Y56954D01*
X50380Y59889D01*
X46151Y62263D01*
X41688Y63852D01*
X37157Y64431D01*
X20582Y64431D01*
X20582Y146244D01*
X46461Y146444D01*
X48726Y147667D01*
X50340Y149584D01*
X51304Y151962D01*
X51620Y154567D01*
X51292Y157166D01*
X50321Y159525D01*
X48710Y161410D01*
X46461Y162589D01*
X20582Y162627D01*
D11*
X20582Y200900D01*
D10*
X46461Y200900D01*
X51954Y201629D01*
X56614Y203653D01*
X60472Y206724D01*
X63559Y210596D01*
X65906Y215020D01*
X67544Y219752D01*
X68505Y224543D01*
X68818Y229147D01*
X68818Y278772D01*
D12*
X171616Y278772D01*
D10*
X171616Y267473D01*
X294142Y267557D01*
X294805Y286363D01*
X737652Y286663D01*
X745760Y278772D01*
X916056Y278772D01*
X916116Y250125D01*
X916704Y247043D01*
X918137Y243643D01*
X920291Y240151D01*
X923042Y236790D01*
X926267Y233785D01*
X929842Y231363D01*
X933643Y229746D01*
X937546Y229161D01*
X739426Y163325D02*
X737814Y163488D01*
X739426Y163325D02*
X740928Y162859D01*
X742287Y162122D01*
X743471Y161145D01*
X744448Y159961D01*
X745185Y158602D01*
X745651Y157100D01*
X745814Y155488D01*
X745651Y153876D01*
X745185Y152374D01*
X744448Y151015D01*
X743471Y149831D01*
X742287Y148854D01*
X740928Y148117D01*
X739426Y147651D01*
X737814Y147488D01*
X736202Y147651D01*
X734700Y148117D01*
X733341Y148854D01*
X732157Y149831D01*
X731180Y151015D01*
X730443Y152374D01*
X729977Y153876D01*
X729814Y155488D01*
X729977Y157100D01*
X730443Y158602D01*
X731180Y159961D01*
X732157Y161145D01*
X733341Y162122D01*
X734700Y162859D01*
X736202Y163325D01*
X737814Y163488D01*
X858183Y215721D02*
X858183Y228616D01*
X858251Y229284D01*
X858445Y229906D01*
X858752Y230471D01*
X859159Y230963D01*
X859651Y231370D01*
X860216Y231677D01*
X860838Y231871D01*
X861506Y231939D01*
X866291Y231939D01*
X866959Y231871D01*
X867582Y231677D01*
X868146Y231370D01*
X868639Y230963D01*
X869046Y230471D01*
X869353Y229906D01*
X869547Y229284D01*
X869615Y228616D01*
X869615Y215721D01*
X869547Y215054D01*
X869353Y214431D01*
X869046Y213867D01*
X868639Y213375D01*
X868146Y212968D01*
X867582Y212661D01*
X866959Y212467D01*
X866291Y212399D01*
X861506Y212399D01*
X860838Y212467D01*
X860216Y212661D01*
X859651Y212968D01*
X859159Y213375D01*
X858752Y213867D01*
X858445Y214431D01*
X858251Y215054D01*
X858183Y215721D01*
X892465Y213299D02*
X905359Y213299D01*
X906027Y213231D01*
X906649Y213037D01*
X907214Y212729D01*
X907706Y212323D01*
X908113Y211830D01*
X908420Y211266D01*
X908614Y210643D01*
X908682Y209976D01*
X908682Y205190D01*
X908614Y204522D01*
X908420Y203899D01*
X908113Y203335D01*
X907706Y202842D01*
X907214Y202435D01*
X906649Y202128D01*
X906027Y201934D01*
X905359Y201866D01*
X892465Y201866D01*
X891797Y201934D01*
X891175Y202128D01*
X890610Y202435D01*
X890118Y202842D01*
X889711Y203335D01*
X889404Y203899D01*
X889210Y204522D01*
X889142Y205190D01*
X889142Y209976D01*
X889210Y210643D01*
X889404Y211266D01*
X889711Y211830D01*
X890118Y212323D01*
X890610Y212729D01*
X891175Y213037D01*
X891797Y213231D01*
X892465Y213299D01*
X939007Y213299D02*
X951902Y213299D01*
X952569Y213231D01*
X953192Y213037D01*
X953756Y212729D01*
X954248Y212323D01*
X954655Y211830D01*
X954962Y211266D01*
X955156Y210643D01*
X955224Y209976D01*
X955224Y205190D01*
X955156Y204522D01*
X954962Y203899D01*
X954655Y203335D01*
X954248Y202842D01*
X953756Y202435D01*
X953192Y202128D01*
X952569Y201934D01*
X951902Y201866D01*
X939007Y201866D01*
X938339Y201934D01*
X937717Y202128D01*
X937152Y202435D01*
X936660Y202842D01*
X936253Y203335D01*
X935946Y203899D01*
X935752Y204522D01*
X935684Y205190D01*
X935684Y209976D01*
X935752Y210643D01*
X935946Y211266D01*
X936253Y211830D01*
X936660Y212323D01*
X937152Y212729D01*
X937717Y213037D01*
X938339Y213231D01*
X939007Y213299D01*
X817045Y265110D02*
X804150Y265110D01*
X817045Y265110D02*
X817713Y265042D01*
X818335Y264848D01*
X818900Y264541D01*
X819392Y264134D01*
X819799Y263642D01*
X820106Y263077D01*
X820300Y262455D01*
X820368Y261787D01*
X820368Y257001D01*
X820300Y256333D01*
X820106Y255711D01*
X819799Y255146D01*
X819392Y254654D01*
X818900Y254247D01*
X818335Y253940D01*
X817713Y253746D01*
X817045Y253678D01*
X804150Y253678D01*
X803483Y253746D01*
X802860Y253940D01*
X802296Y254247D01*
X801804Y254654D01*
X801397Y255146D01*
X801090Y255711D01*
X800896Y256333D01*
X800828Y257001D01*
X800828Y261787D01*
X800896Y262455D01*
X801090Y263077D01*
X801397Y263642D01*
X801804Y264134D01*
X802296Y264541D01*
X802860Y264848D01*
X803483Y265042D01*
X804150Y265110D01*
X722181Y266419D02*
X709286Y266419D01*
X722181Y266419D02*
X722849Y266351D01*
X723471Y266157D01*
X724036Y265850D01*
X724528Y265443D01*
X724935Y264951D01*
X725242Y264386D01*
X725436Y263764D01*
X725504Y263096D01*
X725504Y258310D01*
X725436Y257642D01*
X725242Y257019D01*
X724935Y256455D01*
X724528Y255962D01*
X724036Y255555D01*
X723471Y255248D01*
X722849Y255054D01*
X722181Y254986D01*
X709286Y254986D01*
X708619Y255054D01*
X707996Y255248D01*
X707432Y255555D01*
X706940Y255962D01*
X706533Y256455D01*
X706226Y257019D01*
X706032Y257642D01*
X705964Y258310D01*
X705964Y263096D01*
X706032Y263764D01*
X706226Y264386D01*
X706533Y264951D01*
X706940Y265443D01*
X707432Y265850D01*
X707996Y266157D01*
X708619Y266351D01*
X709286Y266419D01*
X682994Y266419D02*
X670100Y266419D01*
X682994Y266419D02*
X683662Y266351D01*
X684284Y266157D01*
X684849Y265850D01*
X685341Y265443D01*
X685748Y264951D01*
X686055Y264386D01*
X686249Y263764D01*
X686317Y263096D01*
X686317Y258310D01*
X686249Y257642D01*
X686055Y257019D01*
X685748Y256455D01*
X685341Y255962D01*
X684849Y255555D01*
X684284Y255248D01*
X683662Y255054D01*
X682994Y254986D01*
X670100Y254986D01*
X669432Y255054D01*
X668810Y255248D01*
X668245Y255555D01*
X667753Y255962D01*
X667346Y256455D01*
X667039Y257019D01*
X666845Y257642D01*
X666777Y258310D01*
X666777Y263096D01*
X666845Y263764D01*
X667039Y264386D01*
X667346Y264951D01*
X667753Y265443D01*
X668245Y265850D01*
X668810Y266157D01*
X669432Y266351D01*
X670100Y266419D01*
X435544Y233391D02*
X335808Y171521D01*
X435544Y233391D02*
X440692Y236252D01*
X447999Y238356D01*
X456803Y239672D01*
X466443Y240170D01*
X476258Y239821D01*
X485585Y238595D01*
X493764Y236462D01*
X500134Y233391D01*
X601057Y170338D01*
X604673Y167047D01*
X607025Y163106D01*
X608233Y158739D01*
X608412Y154167D01*
X607682Y149615D01*
X606161Y145305D01*
X603965Y141461D01*
X601213Y138305D01*
X518393Y85697D01*
X507700Y78565D01*
X496313Y73177D01*
X484336Y69624D01*
X471875Y67994D01*
X459033Y68377D01*
X445916Y70863D01*
X432628Y75541D01*
X419273Y82501D01*
X332812Y137350D01*
X328912Y140354D01*
X326047Y144216D01*
X324309Y148687D01*
X323793Y153521D01*
X324592Y158468D01*
X326798Y163283D01*
X330506Y167716D01*
X335808Y171521D01*
X736253Y163334D02*
X737814Y163488D01*
X736253Y163334D02*
X734753Y162879D01*
X733369Y162140D01*
X732157Y161145D01*
X731162Y159933D01*
X730423Y158550D01*
X729968Y157049D01*
X729814Y155488D01*
X729968Y153927D01*
X730423Y152427D01*
X731162Y151043D01*
X732157Y149831D01*
X733369Y148836D01*
X734753Y148097D01*
X736253Y147642D01*
X737814Y147488D01*
X739375Y147642D01*
X740876Y148097D01*
X742259Y148836D01*
X743471Y149831D01*
X744466Y151043D01*
X745205Y152427D01*
X745660Y153927D01*
X745814Y155488D01*
X745660Y157049D01*
X745205Y158550D01*
X744466Y159933D01*
X743471Y161145D01*
X742259Y162140D01*
X740876Y162879D01*
X739375Y163334D01*
X737814Y163488D01*
X427087Y140462D02*
X423474Y140462D01*
X423356Y140464D01*
X423238Y140470D01*
X423120Y140479D01*
X423003Y140493D01*
X422886Y140510D01*
X422769Y140531D01*
X422654Y140556D01*
X422539Y140585D01*
X422425Y140618D01*
X422313Y140654D01*
X422202Y140694D01*
X422092Y140737D01*
X421983Y140784D01*
X421876Y140834D01*
X421771Y140889D01*
X421668Y140946D01*
X421567Y141007D01*
X421467Y141071D01*
X421370Y141138D01*
X421275Y141208D01*
X421183Y141282D01*
X421092Y141358D01*
X421005Y141438D01*
X420920Y141520D01*
X420838Y141605D01*
X420758Y141692D01*
X420682Y141783D01*
X420608Y141875D01*
X420538Y141970D01*
X420471Y142067D01*
X420407Y142167D01*
X420346Y142268D01*
X420289Y142371D01*
X420234Y142476D01*
X420184Y142583D01*
X420137Y142692D01*
X420094Y142802D01*
X420054Y142913D01*
X420018Y143025D01*
X419985Y143139D01*
X419956Y143254D01*
X419931Y143369D01*
X419910Y143486D01*
X419893Y143603D01*
X419879Y143720D01*
X419870Y143838D01*
X419864Y143956D01*
X419862Y144074D01*
X419862Y153106D01*
X419864Y153224D01*
X419870Y153342D01*
X419879Y153460D01*
X419893Y153577D01*
X419910Y153694D01*
X419931Y153811D01*
X419956Y153926D01*
X419985Y154041D01*
X420018Y154155D01*
X420054Y154267D01*
X420094Y154378D01*
X420137Y154488D01*
X420184Y154597D01*
X420234Y154704D01*
X420288Y154809D01*
X420346Y154912D01*
X420407Y155013D01*
X420471Y155113D01*
X420538Y155210D01*
X420608Y155305D01*
X420682Y155397D01*
X420758Y155488D01*
X420838Y155575D01*
X420920Y155660D01*
X421005Y155742D01*
X421092Y155822D01*
X421183Y155898D01*
X421275Y155972D01*
X421370Y156042D01*
X421467Y156109D01*
X421567Y156173D01*
X421668Y156234D01*
X421771Y156291D01*
X421876Y156345D01*
X421983Y156396D01*
X422092Y156443D01*
X422202Y156486D01*
X422313Y156526D01*
X422425Y156562D01*
X422539Y156595D01*
X422654Y156624D01*
X422769Y156649D01*
X422886Y156670D01*
X423003Y156687D01*
X423120Y156701D01*
X423238Y156710D01*
X423356Y156716D01*
X423474Y156718D01*
X427087Y156718D01*
X433449Y156718D02*
X433449Y144978D01*
X433448Y144978D02*
X433450Y144845D01*
X433456Y144713D01*
X433466Y144581D01*
X433479Y144449D01*
X433497Y144317D01*
X433518Y144187D01*
X433543Y144056D01*
X433572Y143927D01*
X433605Y143799D01*
X433641Y143671D01*
X433681Y143545D01*
X433725Y143420D01*
X433773Y143296D01*
X433824Y143174D01*
X433879Y143053D01*
X433937Y142934D01*
X433999Y142816D01*
X434064Y142701D01*
X434133Y142587D01*
X434204Y142476D01*
X434280Y142367D01*
X434358Y142260D01*
X434439Y142155D01*
X434524Y142053D01*
X434611Y141953D01*
X434701Y141856D01*
X434794Y141761D01*
X434890Y141670D01*
X434988Y141581D01*
X435089Y141495D01*
X435193Y141412D01*
X435299Y141332D01*
X435407Y141256D01*
X435517Y141182D01*
X435630Y141112D01*
X435744Y141045D01*
X435861Y140982D01*
X435979Y140922D01*
X436099Y140865D01*
X436221Y140812D01*
X436344Y140763D01*
X436468Y140717D01*
X436594Y140675D01*
X436721Y140637D01*
X436849Y140602D01*
X436978Y140571D01*
X437107Y140544D01*
X437238Y140521D01*
X437369Y140501D01*
X437501Y140486D01*
X437633Y140474D01*
X437765Y140466D01*
X437898Y140462D01*
X438030Y140462D01*
X438163Y140466D01*
X438295Y140474D01*
X438427Y140486D01*
X438559Y140501D01*
X438690Y140521D01*
X438821Y140544D01*
X438950Y140571D01*
X439079Y140602D01*
X439207Y140637D01*
X439334Y140675D01*
X439460Y140717D01*
X439584Y140763D01*
X439707Y140812D01*
X439829Y140865D01*
X439949Y140922D01*
X440067Y140982D01*
X440184Y141045D01*
X440298Y141112D01*
X440411Y141182D01*
X440521Y141256D01*
X440629Y141332D01*
X440735Y141412D01*
X440839Y141495D01*
X440940Y141581D01*
X441038Y141670D01*
X441134Y141761D01*
X441227Y141856D01*
X441317Y141953D01*
X441404Y142053D01*
X441489Y142155D01*
X441570Y142260D01*
X441648Y142367D01*
X441724Y142476D01*
X441795Y142587D01*
X441864Y142701D01*
X441929Y142816D01*
X441991Y142934D01*
X442049Y143053D01*
X442104Y143174D01*
X442155Y143296D01*
X442203Y143420D01*
X442247Y143545D01*
X442287Y143671D01*
X442323Y143799D01*
X442356Y143927D01*
X442385Y144056D01*
X442410Y144187D01*
X442431Y144317D01*
X442449Y144449D01*
X442462Y144581D01*
X442472Y144713D01*
X442478Y144845D01*
X442480Y144978D01*
X442480Y156718D01*
X453074Y156718D02*
X453074Y140462D01*
X448559Y156718D02*
X457590Y156718D01*
X471485Y152202D02*
X471485Y144978D01*
X471484Y152202D02*
X471486Y152335D01*
X471492Y152467D01*
X471502Y152599D01*
X471515Y152731D01*
X471533Y152863D01*
X471554Y152993D01*
X471579Y153124D01*
X471608Y153253D01*
X471641Y153381D01*
X471677Y153509D01*
X471717Y153635D01*
X471761Y153760D01*
X471809Y153884D01*
X471860Y154006D01*
X471915Y154127D01*
X471973Y154246D01*
X472035Y154364D01*
X472100Y154479D01*
X472169Y154593D01*
X472240Y154704D01*
X472316Y154813D01*
X472394Y154920D01*
X472475Y155025D01*
X472560Y155127D01*
X472647Y155227D01*
X472737Y155324D01*
X472830Y155419D01*
X472926Y155510D01*
X473024Y155599D01*
X473125Y155685D01*
X473229Y155768D01*
X473335Y155848D01*
X473443Y155924D01*
X473553Y155998D01*
X473666Y156068D01*
X473780Y156135D01*
X473897Y156198D01*
X474015Y156258D01*
X474135Y156315D01*
X474257Y156368D01*
X474380Y156417D01*
X474504Y156463D01*
X474630Y156505D01*
X474757Y156543D01*
X474885Y156578D01*
X475014Y156609D01*
X475143Y156636D01*
X475274Y156659D01*
X475405Y156679D01*
X475537Y156694D01*
X475669Y156706D01*
X475801Y156714D01*
X475934Y156718D01*
X476066Y156718D01*
X476199Y156714D01*
X476331Y156706D01*
X476463Y156694D01*
X476595Y156679D01*
X476726Y156659D01*
X476857Y156636D01*
X476986Y156609D01*
X477115Y156578D01*
X477243Y156543D01*
X477370Y156505D01*
X477496Y156463D01*
X477620Y156417D01*
X477743Y156368D01*
X477865Y156315D01*
X477985Y156258D01*
X478103Y156198D01*
X478220Y156135D01*
X478334Y156068D01*
X478447Y155998D01*
X478557Y155924D01*
X478665Y155848D01*
X478771Y155768D01*
X478875Y155685D01*
X478976Y155599D01*
X479074Y155510D01*
X479170Y155419D01*
X479263Y155324D01*
X479353Y155227D01*
X479440Y155127D01*
X479525Y155025D01*
X479606Y154920D01*
X479684Y154813D01*
X479760Y154704D01*
X479831Y154593D01*
X479900Y154479D01*
X479965Y154364D01*
X480027Y154246D01*
X480085Y154127D01*
X480140Y154006D01*
X480191Y153884D01*
X480239Y153760D01*
X480283Y153635D01*
X480323Y153509D01*
X480359Y153381D01*
X480392Y153253D01*
X480421Y153124D01*
X480446Y152993D01*
X480467Y152863D01*
X480485Y152731D01*
X480498Y152599D01*
X480508Y152467D01*
X480514Y152335D01*
X480516Y152202D01*
X480516Y144978D01*
X480514Y144845D01*
X480508Y144713D01*
X480498Y144581D01*
X480485Y144449D01*
X480467Y144317D01*
X480446Y144187D01*
X480421Y144056D01*
X480392Y143927D01*
X480359Y143799D01*
X480323Y143671D01*
X480283Y143545D01*
X480239Y143420D01*
X480191Y143296D01*
X480140Y143174D01*
X480085Y143053D01*
X480027Y142934D01*
X479965Y142816D01*
X479900Y142701D01*
X479831Y142587D01*
X479760Y142476D01*
X479684Y142367D01*
X479606Y142260D01*
X479525Y142155D01*
X479440Y142053D01*
X479353Y141953D01*
X479263Y141856D01*
X479170Y141761D01*
X479074Y141670D01*
X478976Y141581D01*
X478875Y141495D01*
X478771Y141412D01*
X478665Y141332D01*
X478557Y141256D01*
X478447Y141182D01*
X478334Y141112D01*
X478220Y141045D01*
X478103Y140982D01*
X477985Y140922D01*
X477865Y140865D01*
X477743Y140812D01*
X477620Y140763D01*
X477496Y140717D01*
X477370Y140675D01*
X477243Y140637D01*
X477115Y140602D01*
X476986Y140571D01*
X476857Y140544D01*
X476726Y140521D01*
X476595Y140501D01*
X476463Y140486D01*
X476331Y140474D01*
X476199Y140466D01*
X476066Y140462D01*
X475934Y140462D01*
X475801Y140466D01*
X475669Y140474D01*
X475537Y140486D01*
X475405Y140501D01*
X475274Y140521D01*
X475143Y140544D01*
X475014Y140571D01*
X474885Y140602D01*
X474757Y140637D01*
X474630Y140675D01*
X474504Y140717D01*
X474380Y140763D01*
X474257Y140812D01*
X474135Y140865D01*
X474015Y140922D01*
X473897Y140982D01*
X473780Y141045D01*
X473666Y141112D01*
X473553Y141182D01*
X473443Y141256D01*
X473335Y141332D01*
X473229Y141412D01*
X473125Y141495D01*
X473024Y141581D01*
X472926Y141670D01*
X472830Y141761D01*
X472737Y141856D01*
X472647Y141953D01*
X472560Y142053D01*
X472475Y142155D01*
X472394Y142260D01*
X472316Y142367D01*
X472240Y142476D01*
X472169Y142587D01*
X472100Y142701D01*
X472035Y142816D01*
X471973Y142934D01*
X471915Y143053D01*
X471860Y143174D01*
X471809Y143296D01*
X471761Y143420D01*
X471717Y143545D01*
X471677Y143671D01*
X471641Y143799D01*
X471608Y143927D01*
X471579Y144056D01*
X471554Y144187D01*
X471533Y144317D01*
X471515Y144449D01*
X471502Y144581D01*
X471492Y144713D01*
X471486Y144845D01*
X471484Y144978D01*
X487637Y144978D02*
X487637Y156718D01*
X487636Y144978D02*
X487638Y144845D01*
X487644Y144713D01*
X487654Y144581D01*
X487667Y144449D01*
X487685Y144317D01*
X487706Y144187D01*
X487731Y144056D01*
X487760Y143927D01*
X487793Y143799D01*
X487829Y143671D01*
X487869Y143545D01*
X487913Y143420D01*
X487961Y143296D01*
X488012Y143174D01*
X488067Y143053D01*
X488125Y142934D01*
X488187Y142816D01*
X488252Y142701D01*
X488321Y142587D01*
X488392Y142476D01*
X488468Y142367D01*
X488546Y142260D01*
X488627Y142155D01*
X488712Y142053D01*
X488799Y141953D01*
X488889Y141856D01*
X488982Y141761D01*
X489078Y141670D01*
X489176Y141581D01*
X489277Y141495D01*
X489381Y141412D01*
X489487Y141332D01*
X489595Y141256D01*
X489705Y141182D01*
X489818Y141112D01*
X489932Y141045D01*
X490049Y140982D01*
X490167Y140922D01*
X490287Y140865D01*
X490409Y140812D01*
X490532Y140763D01*
X490656Y140717D01*
X490782Y140675D01*
X490909Y140637D01*
X491037Y140602D01*
X491166Y140571D01*
X491295Y140544D01*
X491426Y140521D01*
X491557Y140501D01*
X491689Y140486D01*
X491821Y140474D01*
X491953Y140466D01*
X492086Y140462D01*
X492218Y140462D01*
X492351Y140466D01*
X492483Y140474D01*
X492615Y140486D01*
X492747Y140501D01*
X492878Y140521D01*
X493009Y140544D01*
X493138Y140571D01*
X493267Y140602D01*
X493395Y140637D01*
X493522Y140675D01*
X493648Y140717D01*
X493772Y140763D01*
X493895Y140812D01*
X494017Y140865D01*
X494137Y140922D01*
X494255Y140982D01*
X494372Y141045D01*
X494486Y141112D01*
X494599Y141182D01*
X494709Y141256D01*
X494817Y141332D01*
X494923Y141412D01*
X495027Y141495D01*
X495128Y141581D01*
X495226Y141670D01*
X495322Y141761D01*
X495415Y141856D01*
X495505Y141953D01*
X495592Y142053D01*
X495677Y142155D01*
X495758Y142260D01*
X495836Y142367D01*
X495912Y142476D01*
X495983Y142587D01*
X496052Y142701D01*
X496117Y142816D01*
X496179Y142934D01*
X496237Y143053D01*
X496292Y143174D01*
X496343Y143296D01*
X496391Y143420D01*
X496435Y143545D01*
X496475Y143671D01*
X496511Y143799D01*
X496544Y143927D01*
X496573Y144056D01*
X496598Y144187D01*
X496619Y144317D01*
X496637Y144449D01*
X496650Y144581D01*
X496660Y144713D01*
X496666Y144845D01*
X496668Y144978D01*
X496668Y156718D01*
X507263Y156718D02*
X507263Y140462D01*
X502747Y156718D02*
X511778Y156718D01*
D13*
X894532Y207010D02*
X894983Y207010D01*
X894532Y207010D02*
X894490Y207012D01*
X894449Y207018D01*
X894408Y207027D01*
X894369Y207041D01*
X894331Y207057D01*
X894294Y207078D01*
X894260Y207101D01*
X894227Y207128D01*
X894198Y207157D01*
X894171Y207190D01*
X894148Y207224D01*
X894127Y207261D01*
X894111Y207299D01*
X894097Y207338D01*
X894088Y207379D01*
X894082Y207420D01*
X894080Y207462D01*
X894080Y208590D01*
X894082Y208632D01*
X894088Y208673D01*
X894097Y208714D01*
X894111Y208753D01*
X894127Y208791D01*
X894148Y208828D01*
X894171Y208862D01*
X894198Y208894D01*
X894227Y208924D01*
X894260Y208951D01*
X894294Y208974D01*
X894331Y208995D01*
X894369Y209011D01*
X894408Y209025D01*
X894449Y209034D01*
X894490Y209040D01*
X894532Y209042D01*
X894983Y209042D01*
X895668Y209042D02*
X895668Y207574D01*
X895670Y207527D01*
X895676Y207481D01*
X895685Y207436D01*
X895699Y207391D01*
X895716Y207347D01*
X895736Y207306D01*
X895760Y207266D01*
X895787Y207228D01*
X895817Y207192D01*
X895850Y207159D01*
X895886Y207129D01*
X895924Y207102D01*
X895964Y207078D01*
X896005Y207058D01*
X896049Y207041D01*
X896094Y207027D01*
X896139Y207018D01*
X896185Y207012D01*
X896232Y207010D01*
X896279Y207012D01*
X896325Y207018D01*
X896370Y207027D01*
X896415Y207041D01*
X896459Y207058D01*
X896500Y207078D01*
X896540Y207102D01*
X896578Y207129D01*
X896614Y207159D01*
X896647Y207192D01*
X896677Y207228D01*
X896704Y207266D01*
X896728Y207306D01*
X896748Y207347D01*
X896765Y207391D01*
X896779Y207436D01*
X896788Y207481D01*
X896794Y207527D01*
X896796Y207574D01*
X896796Y209042D01*
X898000Y209042D02*
X898000Y207010D01*
X898564Y209042D02*
X897435Y209042D01*
X900118Y208478D02*
X900118Y207574D01*
X900118Y208478D02*
X900120Y208525D01*
X900126Y208571D01*
X900135Y208616D01*
X900149Y208661D01*
X900166Y208705D01*
X900186Y208746D01*
X900210Y208786D01*
X900237Y208824D01*
X900267Y208860D01*
X900300Y208893D01*
X900336Y208923D01*
X900374Y208950D01*
X900414Y208974D01*
X900455Y208994D01*
X900499Y209011D01*
X900544Y209025D01*
X900589Y209034D01*
X900635Y209040D01*
X900682Y209042D01*
X900729Y209040D01*
X900775Y209034D01*
X900820Y209025D01*
X900865Y209011D01*
X900909Y208994D01*
X900950Y208974D01*
X900990Y208950D01*
X901028Y208923D01*
X901064Y208893D01*
X901097Y208860D01*
X901127Y208824D01*
X901154Y208786D01*
X901178Y208746D01*
X901198Y208705D01*
X901215Y208661D01*
X901229Y208616D01*
X901238Y208571D01*
X901244Y208525D01*
X901246Y208478D01*
X901246Y207574D01*
X901244Y207527D01*
X901238Y207481D01*
X901229Y207436D01*
X901215Y207391D01*
X901198Y207347D01*
X901178Y207306D01*
X901154Y207266D01*
X901127Y207228D01*
X901097Y207192D01*
X901064Y207159D01*
X901028Y207129D01*
X900990Y207102D01*
X900950Y207078D01*
X900909Y207058D01*
X900865Y207041D01*
X900820Y207027D01*
X900775Y207018D01*
X900729Y207012D01*
X900682Y207010D01*
X900635Y207012D01*
X900589Y207018D01*
X900544Y207027D01*
X900499Y207041D01*
X900455Y207058D01*
X900414Y207078D01*
X900374Y207102D01*
X900336Y207129D01*
X900300Y207159D01*
X900267Y207192D01*
X900237Y207228D01*
X900210Y207266D01*
X900186Y207306D01*
X900166Y207347D01*
X900149Y207391D01*
X900135Y207436D01*
X900126Y207481D01*
X900120Y207527D01*
X900118Y207574D01*
X902007Y207574D02*
X902007Y209042D01*
X902008Y207574D02*
X902010Y207527D01*
X902016Y207481D01*
X902025Y207436D01*
X902039Y207391D01*
X902056Y207347D01*
X902076Y207306D01*
X902100Y207266D01*
X902127Y207228D01*
X902157Y207192D01*
X902190Y207159D01*
X902226Y207129D01*
X902264Y207102D01*
X902304Y207078D01*
X902345Y207058D01*
X902389Y207041D01*
X902434Y207027D01*
X902479Y207018D01*
X902525Y207012D01*
X902572Y207010D01*
X902619Y207012D01*
X902665Y207018D01*
X902710Y207027D01*
X902755Y207041D01*
X902799Y207058D01*
X902840Y207078D01*
X902880Y207102D01*
X902918Y207129D01*
X902954Y207159D01*
X902987Y207192D01*
X903017Y207228D01*
X903044Y207266D01*
X903068Y207306D01*
X903088Y207347D01*
X903105Y207391D01*
X903119Y207436D01*
X903128Y207481D01*
X903134Y207527D01*
X903136Y207574D01*
X903136Y209042D01*
X904340Y209042D02*
X904340Y207010D01*
X904904Y209042D02*
X903775Y209042D01*
X941522Y207010D02*
X941973Y207010D01*
X941522Y207010D02*
X941480Y207012D01*
X941439Y207018D01*
X941398Y207027D01*
X941359Y207041D01*
X941321Y207057D01*
X941284Y207078D01*
X941250Y207101D01*
X941217Y207128D01*
X941188Y207157D01*
X941161Y207190D01*
X941138Y207224D01*
X941117Y207261D01*
X941101Y207299D01*
X941087Y207338D01*
X941078Y207379D01*
X941072Y207420D01*
X941070Y207462D01*
X941070Y208590D01*
X941072Y208632D01*
X941078Y208673D01*
X941087Y208714D01*
X941101Y208753D01*
X941117Y208791D01*
X941138Y208828D01*
X941161Y208862D01*
X941188Y208894D01*
X941217Y208924D01*
X941250Y208951D01*
X941284Y208974D01*
X941321Y208995D01*
X941359Y209011D01*
X941398Y209025D01*
X941439Y209034D01*
X941480Y209040D01*
X941522Y209042D01*
X941973Y209042D01*
X942658Y209042D02*
X942658Y207574D01*
X942660Y207527D01*
X942666Y207481D01*
X942675Y207436D01*
X942689Y207391D01*
X942706Y207347D01*
X942726Y207306D01*
X942750Y207266D01*
X942777Y207228D01*
X942807Y207192D01*
X942840Y207159D01*
X942876Y207129D01*
X942914Y207102D01*
X942954Y207078D01*
X942995Y207058D01*
X943039Y207041D01*
X943084Y207027D01*
X943129Y207018D01*
X943175Y207012D01*
X943222Y207010D01*
X943269Y207012D01*
X943315Y207018D01*
X943360Y207027D01*
X943405Y207041D01*
X943449Y207058D01*
X943490Y207078D01*
X943530Y207102D01*
X943568Y207129D01*
X943604Y207159D01*
X943637Y207192D01*
X943667Y207228D01*
X943694Y207266D01*
X943718Y207306D01*
X943738Y207347D01*
X943755Y207391D01*
X943769Y207436D01*
X943778Y207481D01*
X943784Y207527D01*
X943786Y207574D01*
X943786Y209042D01*
X944990Y209042D02*
X944990Y207010D01*
X945554Y209042D02*
X944425Y209042D01*
X947108Y208478D02*
X947108Y207574D01*
X947108Y208478D02*
X947110Y208525D01*
X947116Y208571D01*
X947125Y208616D01*
X947139Y208661D01*
X947156Y208705D01*
X947176Y208746D01*
X947200Y208786D01*
X947227Y208824D01*
X947257Y208860D01*
X947290Y208893D01*
X947326Y208923D01*
X947364Y208950D01*
X947404Y208974D01*
X947445Y208994D01*
X947489Y209011D01*
X947534Y209025D01*
X947579Y209034D01*
X947625Y209040D01*
X947672Y209042D01*
X947719Y209040D01*
X947765Y209034D01*
X947810Y209025D01*
X947855Y209011D01*
X947899Y208994D01*
X947940Y208974D01*
X947980Y208950D01*
X948018Y208923D01*
X948054Y208893D01*
X948087Y208860D01*
X948117Y208824D01*
X948144Y208786D01*
X948168Y208746D01*
X948188Y208705D01*
X948205Y208661D01*
X948219Y208616D01*
X948228Y208571D01*
X948234Y208525D01*
X948236Y208478D01*
X948236Y207574D01*
X948234Y207527D01*
X948228Y207481D01*
X948219Y207436D01*
X948205Y207391D01*
X948188Y207347D01*
X948168Y207306D01*
X948144Y207266D01*
X948117Y207228D01*
X948087Y207192D01*
X948054Y207159D01*
X948018Y207129D01*
X947980Y207102D01*
X947940Y207078D01*
X947899Y207058D01*
X947855Y207041D01*
X947810Y207027D01*
X947765Y207018D01*
X947719Y207012D01*
X947672Y207010D01*
X947625Y207012D01*
X947579Y207018D01*
X947534Y207027D01*
X947489Y207041D01*
X947445Y207058D01*
X947404Y207078D01*
X947364Y207102D01*
X947326Y207129D01*
X947290Y207159D01*
X947257Y207192D01*
X947227Y207228D01*
X947200Y207266D01*
X947176Y207306D01*
X947156Y207347D01*
X947139Y207391D01*
X947125Y207436D01*
X947116Y207481D01*
X947110Y207527D01*
X947108Y207574D01*
X948997Y207574D02*
X948997Y209042D01*
X948998Y207574D02*
X949000Y207527D01*
X949006Y207481D01*
X949015Y207436D01*
X949029Y207391D01*
X949046Y207347D01*
X949066Y207306D01*
X949090Y207266D01*
X949117Y207228D01*
X949147Y207192D01*
X949180Y207159D01*
X949216Y207129D01*
X949254Y207102D01*
X949294Y207078D01*
X949335Y207058D01*
X949379Y207041D01*
X949424Y207027D01*
X949469Y207018D01*
X949515Y207012D01*
X949562Y207010D01*
X949609Y207012D01*
X949655Y207018D01*
X949700Y207027D01*
X949745Y207041D01*
X949789Y207058D01*
X949830Y207078D01*
X949870Y207102D01*
X949908Y207129D01*
X949944Y207159D01*
X949977Y207192D01*
X950007Y207228D01*
X950034Y207266D01*
X950058Y207306D01*
X950078Y207347D01*
X950095Y207391D01*
X950109Y207436D01*
X950118Y207481D01*
X950124Y207527D01*
X950126Y207574D01*
X950126Y209042D01*
X951330Y209042D02*
X951330Y207010D01*
X951894Y209042D02*
X950765Y209042D01*
X806083Y259080D02*
X805632Y259080D01*
X805590Y259082D01*
X805549Y259088D01*
X805508Y259097D01*
X805469Y259111D01*
X805431Y259127D01*
X805394Y259148D01*
X805360Y259171D01*
X805327Y259198D01*
X805298Y259227D01*
X805271Y259260D01*
X805248Y259294D01*
X805227Y259331D01*
X805211Y259369D01*
X805197Y259408D01*
X805188Y259449D01*
X805182Y259490D01*
X805180Y259532D01*
X805180Y260660D01*
X805182Y260702D01*
X805188Y260743D01*
X805197Y260784D01*
X805211Y260823D01*
X805227Y260861D01*
X805248Y260898D01*
X805271Y260932D01*
X805298Y260964D01*
X805327Y260994D01*
X805360Y261021D01*
X805394Y261044D01*
X805431Y261065D01*
X805469Y261081D01*
X805508Y261095D01*
X805549Y261104D01*
X805590Y261110D01*
X805632Y261112D01*
X806083Y261112D01*
X806768Y261112D02*
X806768Y259644D01*
X806770Y259597D01*
X806776Y259551D01*
X806785Y259506D01*
X806799Y259461D01*
X806816Y259417D01*
X806836Y259376D01*
X806860Y259336D01*
X806887Y259298D01*
X806917Y259262D01*
X806950Y259229D01*
X806986Y259199D01*
X807024Y259172D01*
X807064Y259148D01*
X807105Y259128D01*
X807149Y259111D01*
X807194Y259097D01*
X807239Y259088D01*
X807285Y259082D01*
X807332Y259080D01*
X807379Y259082D01*
X807425Y259088D01*
X807470Y259097D01*
X807515Y259111D01*
X807559Y259128D01*
X807600Y259148D01*
X807640Y259172D01*
X807678Y259199D01*
X807714Y259229D01*
X807747Y259262D01*
X807777Y259298D01*
X807804Y259336D01*
X807828Y259376D01*
X807848Y259417D01*
X807865Y259461D01*
X807879Y259506D01*
X807888Y259551D01*
X807894Y259597D01*
X807896Y259644D01*
X807896Y261112D01*
X809100Y261112D02*
X809100Y259080D01*
X809664Y261112D02*
X808535Y261112D01*
X811218Y260548D02*
X811218Y259644D01*
X811218Y260548D02*
X811220Y260595D01*
X811226Y260641D01*
X811235Y260686D01*
X811249Y260731D01*
X811266Y260775D01*
X811286Y260816D01*
X811310Y260856D01*
X811337Y260894D01*
X811367Y260930D01*
X811400Y260963D01*
X811436Y260993D01*
X811474Y261020D01*
X811514Y261044D01*
X811555Y261064D01*
X811599Y261081D01*
X811644Y261095D01*
X811689Y261104D01*
X811735Y261110D01*
X811782Y261112D01*
X811829Y261110D01*
X811875Y261104D01*
X811920Y261095D01*
X811965Y261081D01*
X812009Y261064D01*
X812050Y261044D01*
X812090Y261020D01*
X812128Y260993D01*
X812164Y260963D01*
X812197Y260930D01*
X812227Y260894D01*
X812254Y260856D01*
X812278Y260816D01*
X812298Y260775D01*
X812315Y260731D01*
X812329Y260686D01*
X812338Y260641D01*
X812344Y260595D01*
X812346Y260548D01*
X812346Y259644D01*
X812344Y259597D01*
X812338Y259551D01*
X812329Y259506D01*
X812315Y259461D01*
X812298Y259417D01*
X812278Y259376D01*
X812254Y259336D01*
X812227Y259298D01*
X812197Y259262D01*
X812164Y259229D01*
X812128Y259199D01*
X812090Y259172D01*
X812050Y259148D01*
X812009Y259128D01*
X811965Y259111D01*
X811920Y259097D01*
X811875Y259088D01*
X811829Y259082D01*
X811782Y259080D01*
X811735Y259082D01*
X811689Y259088D01*
X811644Y259097D01*
X811599Y259111D01*
X811555Y259128D01*
X811514Y259148D01*
X811474Y259172D01*
X811436Y259199D01*
X811400Y259229D01*
X811367Y259262D01*
X811337Y259298D01*
X811310Y259336D01*
X811286Y259376D01*
X811266Y259417D01*
X811249Y259461D01*
X811235Y259506D01*
X811226Y259551D01*
X811220Y259597D01*
X811218Y259644D01*
X813107Y259644D02*
X813107Y261112D01*
X813108Y259644D02*
X813110Y259597D01*
X813116Y259551D01*
X813125Y259506D01*
X813139Y259461D01*
X813156Y259417D01*
X813176Y259376D01*
X813200Y259336D01*
X813227Y259298D01*
X813257Y259262D01*
X813290Y259229D01*
X813326Y259199D01*
X813364Y259172D01*
X813404Y259148D01*
X813445Y259128D01*
X813489Y259111D01*
X813534Y259097D01*
X813579Y259088D01*
X813625Y259082D01*
X813672Y259080D01*
X813719Y259082D01*
X813765Y259088D01*
X813810Y259097D01*
X813855Y259111D01*
X813899Y259128D01*
X813940Y259148D01*
X813980Y259172D01*
X814018Y259199D01*
X814054Y259229D01*
X814087Y259262D01*
X814117Y259298D01*
X814144Y259336D01*
X814168Y259376D01*
X814188Y259417D01*
X814205Y259461D01*
X814219Y259506D01*
X814228Y259551D01*
X814234Y259597D01*
X814236Y259644D01*
X814236Y261112D01*
X815440Y261112D02*
X815440Y259080D01*
X816004Y261112D02*
X814875Y261112D01*
X710833Y260350D02*
X710382Y260350D01*
X710340Y260352D01*
X710299Y260358D01*
X710258Y260367D01*
X710219Y260381D01*
X710181Y260397D01*
X710144Y260418D01*
X710110Y260441D01*
X710077Y260468D01*
X710048Y260497D01*
X710021Y260530D01*
X709998Y260564D01*
X709977Y260601D01*
X709961Y260639D01*
X709947Y260678D01*
X709938Y260719D01*
X709932Y260760D01*
X709930Y260802D01*
X709930Y261930D01*
X709932Y261972D01*
X709938Y262013D01*
X709947Y262054D01*
X709961Y262093D01*
X709977Y262131D01*
X709998Y262168D01*
X710021Y262202D01*
X710048Y262234D01*
X710077Y262264D01*
X710110Y262291D01*
X710144Y262314D01*
X710181Y262335D01*
X710219Y262351D01*
X710258Y262365D01*
X710299Y262374D01*
X710340Y262380D01*
X710382Y262382D01*
X710833Y262382D01*
X711518Y262382D02*
X711518Y260914D01*
X711520Y260867D01*
X711526Y260821D01*
X711535Y260776D01*
X711549Y260731D01*
X711566Y260687D01*
X711586Y260646D01*
X711610Y260606D01*
X711637Y260568D01*
X711667Y260532D01*
X711700Y260499D01*
X711736Y260469D01*
X711774Y260442D01*
X711814Y260418D01*
X711855Y260398D01*
X711899Y260381D01*
X711944Y260367D01*
X711989Y260358D01*
X712035Y260352D01*
X712082Y260350D01*
X712129Y260352D01*
X712175Y260358D01*
X712220Y260367D01*
X712265Y260381D01*
X712309Y260398D01*
X712350Y260418D01*
X712390Y260442D01*
X712428Y260469D01*
X712464Y260499D01*
X712497Y260532D01*
X712527Y260568D01*
X712554Y260606D01*
X712578Y260646D01*
X712598Y260687D01*
X712615Y260731D01*
X712629Y260776D01*
X712638Y260821D01*
X712644Y260867D01*
X712646Y260914D01*
X712646Y262382D01*
X713850Y262382D02*
X713850Y260350D01*
X714414Y262382D02*
X713285Y262382D01*
X715968Y261818D02*
X715968Y260914D01*
X715968Y261818D02*
X715970Y261865D01*
X715976Y261911D01*
X715985Y261956D01*
X715999Y262001D01*
X716016Y262045D01*
X716036Y262086D01*
X716060Y262126D01*
X716087Y262164D01*
X716117Y262200D01*
X716150Y262233D01*
X716186Y262263D01*
X716224Y262290D01*
X716264Y262314D01*
X716305Y262334D01*
X716349Y262351D01*
X716394Y262365D01*
X716439Y262374D01*
X716485Y262380D01*
X716532Y262382D01*
X716579Y262380D01*
X716625Y262374D01*
X716670Y262365D01*
X716715Y262351D01*
X716759Y262334D01*
X716800Y262314D01*
X716840Y262290D01*
X716878Y262263D01*
X716914Y262233D01*
X716947Y262200D01*
X716977Y262164D01*
X717004Y262126D01*
X717028Y262086D01*
X717048Y262045D01*
X717065Y262001D01*
X717079Y261956D01*
X717088Y261911D01*
X717094Y261865D01*
X717096Y261818D01*
X717096Y260914D01*
X717094Y260867D01*
X717088Y260821D01*
X717079Y260776D01*
X717065Y260731D01*
X717048Y260687D01*
X717028Y260646D01*
X717004Y260606D01*
X716977Y260568D01*
X716947Y260532D01*
X716914Y260499D01*
X716878Y260469D01*
X716840Y260442D01*
X716800Y260418D01*
X716759Y260398D01*
X716715Y260381D01*
X716670Y260367D01*
X716625Y260358D01*
X716579Y260352D01*
X716532Y260350D01*
X716485Y260352D01*
X716439Y260358D01*
X716394Y260367D01*
X716349Y260381D01*
X716305Y260398D01*
X716264Y260418D01*
X716224Y260442D01*
X716186Y260469D01*
X716150Y260499D01*
X716117Y260532D01*
X716087Y260568D01*
X716060Y260606D01*
X716036Y260646D01*
X716016Y260687D01*
X715999Y260731D01*
X715985Y260776D01*
X715976Y260821D01*
X715970Y260867D01*
X715968Y260914D01*
X717857Y260914D02*
X717857Y262382D01*
X717858Y260914D02*
X717860Y260867D01*
X717866Y260821D01*
X717875Y260776D01*
X717889Y260731D01*
X717906Y260687D01*
X717926Y260646D01*
X717950Y260606D01*
X717977Y260568D01*
X718007Y260532D01*
X718040Y260499D01*
X718076Y260469D01*
X718114Y260442D01*
X718154Y260418D01*
X718195Y260398D01*
X718239Y260381D01*
X718284Y260367D01*
X718329Y260358D01*
X718375Y260352D01*
X718422Y260350D01*
X718469Y260352D01*
X718515Y260358D01*
X718560Y260367D01*
X718605Y260381D01*
X718649Y260398D01*
X718690Y260418D01*
X718730Y260442D01*
X718768Y260469D01*
X718804Y260499D01*
X718837Y260532D01*
X718867Y260568D01*
X718894Y260606D01*
X718918Y260646D01*
X718938Y260687D01*
X718955Y260731D01*
X718969Y260776D01*
X718978Y260821D01*
X718984Y260867D01*
X718986Y260914D01*
X718986Y262382D01*
X720190Y262382D02*
X720190Y260350D01*
X720754Y262382D02*
X719625Y262382D01*
X672733Y260350D02*
X672282Y260350D01*
X672240Y260352D01*
X672199Y260358D01*
X672158Y260367D01*
X672119Y260381D01*
X672081Y260397D01*
X672044Y260418D01*
X672010Y260441D01*
X671977Y260468D01*
X671948Y260497D01*
X671921Y260530D01*
X671898Y260564D01*
X671877Y260601D01*
X671861Y260639D01*
X671847Y260678D01*
X671838Y260719D01*
X671832Y260760D01*
X671830Y260802D01*
X671830Y261930D01*
X671832Y261972D01*
X671838Y262013D01*
X671847Y262054D01*
X671861Y262093D01*
X671877Y262131D01*
X671898Y262168D01*
X671921Y262202D01*
X671948Y262234D01*
X671977Y262264D01*
X672010Y262291D01*
X672044Y262314D01*
X672081Y262335D01*
X672119Y262351D01*
X672158Y262365D01*
X672199Y262374D01*
X672240Y262380D01*
X672282Y262382D01*
X672733Y262382D01*
X673418Y262382D02*
X673418Y260914D01*
X673420Y260867D01*
X673426Y260821D01*
X673435Y260776D01*
X673449Y260731D01*
X673466Y260687D01*
X673486Y260646D01*
X673510Y260606D01*
X673537Y260568D01*
X673567Y260532D01*
X673600Y260499D01*
X673636Y260469D01*
X673674Y260442D01*
X673714Y260418D01*
X673755Y260398D01*
X673799Y260381D01*
X673844Y260367D01*
X673889Y260358D01*
X673935Y260352D01*
X673982Y260350D01*
X674029Y260352D01*
X674075Y260358D01*
X674120Y260367D01*
X674165Y260381D01*
X674209Y260398D01*
X674250Y260418D01*
X674290Y260442D01*
X674328Y260469D01*
X674364Y260499D01*
X674397Y260532D01*
X674427Y260568D01*
X674454Y260606D01*
X674478Y260646D01*
X674498Y260687D01*
X674515Y260731D01*
X674529Y260776D01*
X674538Y260821D01*
X674544Y260867D01*
X674546Y260914D01*
X674546Y262382D01*
X675750Y262382D02*
X675750Y260350D01*
X676314Y262382D02*
X675185Y262382D01*
X677868Y261818D02*
X677868Y260914D01*
X677868Y261818D02*
X677870Y261865D01*
X677876Y261911D01*
X677885Y261956D01*
X677899Y262001D01*
X677916Y262045D01*
X677936Y262086D01*
X677960Y262126D01*
X677987Y262164D01*
X678017Y262200D01*
X678050Y262233D01*
X678086Y262263D01*
X678124Y262290D01*
X678164Y262314D01*
X678205Y262334D01*
X678249Y262351D01*
X678294Y262365D01*
X678339Y262374D01*
X678385Y262380D01*
X678432Y262382D01*
X678479Y262380D01*
X678525Y262374D01*
X678570Y262365D01*
X678615Y262351D01*
X678659Y262334D01*
X678700Y262314D01*
X678740Y262290D01*
X678778Y262263D01*
X678814Y262233D01*
X678847Y262200D01*
X678877Y262164D01*
X678904Y262126D01*
X678928Y262086D01*
X678948Y262045D01*
X678965Y262001D01*
X678979Y261956D01*
X678988Y261911D01*
X678994Y261865D01*
X678996Y261818D01*
X678996Y260914D01*
X678994Y260867D01*
X678988Y260821D01*
X678979Y260776D01*
X678965Y260731D01*
X678948Y260687D01*
X678928Y260646D01*
X678904Y260606D01*
X678877Y260568D01*
X678847Y260532D01*
X678814Y260499D01*
X678778Y260469D01*
X678740Y260442D01*
X678700Y260418D01*
X678659Y260398D01*
X678615Y260381D01*
X678570Y260367D01*
X678525Y260358D01*
X678479Y260352D01*
X678432Y260350D01*
X678385Y260352D01*
X678339Y260358D01*
X678294Y260367D01*
X678249Y260381D01*
X678205Y260398D01*
X678164Y260418D01*
X678124Y260442D01*
X678086Y260469D01*
X678050Y260499D01*
X678017Y260532D01*
X677987Y260568D01*
X677960Y260606D01*
X677936Y260646D01*
X677916Y260687D01*
X677899Y260731D01*
X677885Y260776D01*
X677876Y260821D01*
X677870Y260867D01*
X677868Y260914D01*
X679757Y260914D02*
X679757Y262382D01*
X679758Y260914D02*
X679760Y260867D01*
X679766Y260821D01*
X679775Y260776D01*
X679789Y260731D01*
X679806Y260687D01*
X679826Y260646D01*
X679850Y260606D01*
X679877Y260568D01*
X679907Y260532D01*
X679940Y260499D01*
X679976Y260469D01*
X680014Y260442D01*
X680054Y260418D01*
X680095Y260398D01*
X680139Y260381D01*
X680184Y260367D01*
X680229Y260358D01*
X680275Y260352D01*
X680322Y260350D01*
X680369Y260352D01*
X680415Y260358D01*
X680460Y260367D01*
X680505Y260381D01*
X680549Y260398D01*
X680590Y260418D01*
X680630Y260442D01*
X680668Y260469D01*
X680704Y260499D01*
X680737Y260532D01*
X680767Y260568D01*
X680794Y260606D01*
X680818Y260646D01*
X680838Y260687D01*
X680855Y260731D01*
X680869Y260776D01*
X680878Y260821D01*
X680884Y260867D01*
X680886Y260914D01*
X680886Y262382D01*
X682090Y262382D02*
X682090Y260350D01*
X682654Y262382D02*
X681525Y262382D01*
X864870Y218073D02*
X864870Y217622D01*
X864868Y217580D01*
X864862Y217539D01*
X864853Y217498D01*
X864839Y217459D01*
X864823Y217421D01*
X864802Y217384D01*
X864779Y217350D01*
X864752Y217318D01*
X864723Y217288D01*
X864690Y217261D01*
X864656Y217238D01*
X864619Y217217D01*
X864581Y217201D01*
X864542Y217187D01*
X864501Y217178D01*
X864460Y217172D01*
X864418Y217170D01*
X863290Y217170D01*
X863248Y217172D01*
X863207Y217178D01*
X863166Y217187D01*
X863127Y217201D01*
X863089Y217217D01*
X863052Y217238D01*
X863018Y217261D01*
X862986Y217288D01*
X862956Y217317D01*
X862929Y217350D01*
X862906Y217384D01*
X862885Y217421D01*
X862869Y217459D01*
X862855Y217498D01*
X862846Y217539D01*
X862840Y217580D01*
X862838Y217622D01*
X862838Y218073D01*
X862838Y218758D02*
X864306Y218758D01*
X864353Y218760D01*
X864399Y218766D01*
X864444Y218775D01*
X864489Y218789D01*
X864533Y218806D01*
X864574Y218826D01*
X864614Y218850D01*
X864652Y218877D01*
X864688Y218907D01*
X864721Y218940D01*
X864751Y218976D01*
X864778Y219014D01*
X864802Y219054D01*
X864822Y219095D01*
X864839Y219139D01*
X864853Y219184D01*
X864862Y219229D01*
X864868Y219275D01*
X864870Y219322D01*
X864868Y219369D01*
X864862Y219415D01*
X864853Y219460D01*
X864839Y219505D01*
X864822Y219549D01*
X864802Y219590D01*
X864778Y219630D01*
X864751Y219668D01*
X864721Y219704D01*
X864688Y219737D01*
X864652Y219767D01*
X864614Y219794D01*
X864574Y219818D01*
X864533Y219838D01*
X864489Y219855D01*
X864444Y219869D01*
X864399Y219878D01*
X864353Y219884D01*
X864306Y219886D01*
X862838Y219886D01*
X862838Y221090D02*
X864870Y221090D01*
X862838Y221654D02*
X862838Y220525D01*
X863402Y223208D02*
X864306Y223208D01*
X863402Y223208D02*
X863355Y223210D01*
X863309Y223216D01*
X863264Y223225D01*
X863219Y223239D01*
X863175Y223256D01*
X863134Y223276D01*
X863094Y223300D01*
X863056Y223327D01*
X863020Y223357D01*
X862987Y223390D01*
X862957Y223426D01*
X862930Y223464D01*
X862906Y223504D01*
X862886Y223545D01*
X862869Y223589D01*
X862855Y223634D01*
X862846Y223679D01*
X862840Y223725D01*
X862838Y223772D01*
X862840Y223819D01*
X862846Y223865D01*
X862855Y223910D01*
X862869Y223955D01*
X862886Y223999D01*
X862906Y224040D01*
X862930Y224080D01*
X862957Y224118D01*
X862987Y224154D01*
X863020Y224187D01*
X863056Y224217D01*
X863094Y224244D01*
X863134Y224268D01*
X863175Y224288D01*
X863219Y224305D01*
X863264Y224319D01*
X863309Y224328D01*
X863355Y224334D01*
X863402Y224336D01*
X864306Y224336D01*
X864353Y224334D01*
X864399Y224328D01*
X864444Y224319D01*
X864489Y224305D01*
X864533Y224288D01*
X864574Y224268D01*
X864614Y224244D01*
X864652Y224217D01*
X864688Y224187D01*
X864721Y224154D01*
X864751Y224118D01*
X864778Y224080D01*
X864802Y224040D01*
X864822Y223999D01*
X864839Y223955D01*
X864853Y223910D01*
X864862Y223865D01*
X864868Y223819D01*
X864870Y223772D01*
X864868Y223725D01*
X864862Y223679D01*
X864853Y223634D01*
X864839Y223589D01*
X864822Y223545D01*
X864802Y223504D01*
X864778Y223464D01*
X864751Y223426D01*
X864721Y223390D01*
X864688Y223357D01*
X864652Y223327D01*
X864614Y223300D01*
X864574Y223276D01*
X864533Y223256D01*
X864489Y223239D01*
X864444Y223225D01*
X864399Y223216D01*
X864353Y223210D01*
X864306Y223208D01*
X864306Y225097D02*
X862838Y225097D01*
X864306Y225098D02*
X864353Y225100D01*
X864399Y225106D01*
X864444Y225115D01*
X864489Y225129D01*
X864533Y225146D01*
X864574Y225166D01*
X864614Y225190D01*
X864652Y225217D01*
X864688Y225247D01*
X864721Y225280D01*
X864751Y225316D01*
X864778Y225354D01*
X864802Y225394D01*
X864822Y225435D01*
X864839Y225479D01*
X864853Y225524D01*
X864862Y225569D01*
X864868Y225615D01*
X864870Y225662D01*
X864868Y225709D01*
X864862Y225755D01*
X864853Y225800D01*
X864839Y225845D01*
X864822Y225889D01*
X864802Y225930D01*
X864778Y225970D01*
X864751Y226008D01*
X864721Y226044D01*
X864688Y226077D01*
X864652Y226107D01*
X864614Y226134D01*
X864574Y226158D01*
X864533Y226178D01*
X864489Y226195D01*
X864444Y226209D01*
X864399Y226218D01*
X864353Y226224D01*
X864306Y226226D01*
X862838Y226226D01*
X862838Y227430D02*
X864870Y227430D01*
X862838Y227994D02*
X862838Y226865D01*
X733029Y154178D02*
X732578Y154178D01*
X732536Y154180D01*
X732495Y154186D01*
X732454Y154195D01*
X732415Y154209D01*
X732377Y154225D01*
X732340Y154246D01*
X732306Y154269D01*
X732273Y154296D01*
X732244Y154325D01*
X732217Y154358D01*
X732194Y154392D01*
X732173Y154429D01*
X732157Y154467D01*
X732143Y154506D01*
X732134Y154547D01*
X732128Y154588D01*
X732126Y154630D01*
X732126Y155758D01*
X732128Y155800D01*
X732134Y155841D01*
X732143Y155882D01*
X732157Y155921D01*
X732173Y155959D01*
X732194Y155996D01*
X732217Y156030D01*
X732244Y156062D01*
X732273Y156092D01*
X732306Y156119D01*
X732340Y156142D01*
X732377Y156163D01*
X732415Y156179D01*
X732454Y156193D01*
X732495Y156202D01*
X732536Y156208D01*
X732578Y156210D01*
X733029Y156210D01*
X733714Y156210D02*
X733714Y154742D01*
X733716Y154695D01*
X733722Y154649D01*
X733731Y154604D01*
X733745Y154559D01*
X733762Y154515D01*
X733782Y154474D01*
X733806Y154434D01*
X733833Y154396D01*
X733863Y154360D01*
X733896Y154327D01*
X733932Y154297D01*
X733970Y154270D01*
X734010Y154246D01*
X734051Y154226D01*
X734095Y154209D01*
X734140Y154195D01*
X734185Y154186D01*
X734231Y154180D01*
X734278Y154178D01*
X734325Y154180D01*
X734371Y154186D01*
X734416Y154195D01*
X734461Y154209D01*
X734505Y154226D01*
X734546Y154246D01*
X734586Y154270D01*
X734624Y154297D01*
X734660Y154327D01*
X734693Y154360D01*
X734723Y154396D01*
X734750Y154434D01*
X734774Y154474D01*
X734794Y154515D01*
X734811Y154559D01*
X734825Y154604D01*
X734834Y154649D01*
X734840Y154695D01*
X734842Y154742D01*
X734842Y156210D01*
X736046Y156210D02*
X736046Y154178D01*
X736610Y156210D02*
X735481Y156210D01*
X738164Y155646D02*
X738164Y154742D01*
X738164Y155646D02*
X738166Y155693D01*
X738172Y155739D01*
X738181Y155784D01*
X738195Y155829D01*
X738212Y155873D01*
X738232Y155914D01*
X738256Y155954D01*
X738283Y155992D01*
X738313Y156028D01*
X738346Y156061D01*
X738382Y156091D01*
X738420Y156118D01*
X738460Y156142D01*
X738501Y156162D01*
X738545Y156179D01*
X738590Y156193D01*
X738635Y156202D01*
X738681Y156208D01*
X738728Y156210D01*
X738775Y156208D01*
X738821Y156202D01*
X738866Y156193D01*
X738911Y156179D01*
X738955Y156162D01*
X738996Y156142D01*
X739036Y156118D01*
X739074Y156091D01*
X739110Y156061D01*
X739143Y156028D01*
X739173Y155992D01*
X739200Y155954D01*
X739224Y155914D01*
X739244Y155873D01*
X739261Y155829D01*
X739275Y155784D01*
X739284Y155739D01*
X739290Y155693D01*
X739292Y155646D01*
X739292Y154742D01*
X739290Y154695D01*
X739284Y154649D01*
X739275Y154604D01*
X739261Y154559D01*
X739244Y154515D01*
X739224Y154474D01*
X739200Y154434D01*
X739173Y154396D01*
X739143Y154360D01*
X739110Y154327D01*
X739074Y154297D01*
X739036Y154270D01*
X738996Y154246D01*
X738955Y154226D01*
X738911Y154209D01*
X738866Y154195D01*
X738821Y154186D01*
X738775Y154180D01*
X738728Y154178D01*
X738681Y154180D01*
X738635Y154186D01*
X738590Y154195D01*
X738545Y154209D01*
X738501Y154226D01*
X738460Y154246D01*
X738420Y154270D01*
X738382Y154297D01*
X738346Y154327D01*
X738313Y154360D01*
X738283Y154396D01*
X738256Y154434D01*
X738232Y154474D01*
X738212Y154515D01*
X738195Y154559D01*
X738181Y154604D01*
X738172Y154649D01*
X738166Y154695D01*
X738164Y154742D01*
X740053Y154742D02*
X740053Y156210D01*
X740054Y154742D02*
X740056Y154695D01*
X740062Y154649D01*
X740071Y154604D01*
X740085Y154559D01*
X740102Y154515D01*
X740122Y154474D01*
X740146Y154434D01*
X740173Y154396D01*
X740203Y154360D01*
X740236Y154327D01*
X740272Y154297D01*
X740310Y154270D01*
X740350Y154246D01*
X740391Y154226D01*
X740435Y154209D01*
X740480Y154195D01*
X740525Y154186D01*
X740571Y154180D01*
X740618Y154178D01*
X740665Y154180D01*
X740711Y154186D01*
X740756Y154195D01*
X740801Y154209D01*
X740845Y154226D01*
X740886Y154246D01*
X740926Y154270D01*
X740964Y154297D01*
X741000Y154327D01*
X741033Y154360D01*
X741063Y154396D01*
X741090Y154434D01*
X741114Y154474D01*
X741134Y154515D01*
X741151Y154559D01*
X741165Y154604D01*
X741174Y154649D01*
X741180Y154695D01*
X741182Y154742D01*
X741182Y156210D01*
X742386Y156210D02*
X742386Y154178D01*
X742950Y156210D02*
X741821Y156210D01*
D14*
X282575Y71755D03*
D15*
X307975Y71755D03*
X333375Y71755D03*
X333375Y97155D03*
X307975Y97155D03*
X282575Y97155D03*
D16*
X154900Y205500D03*
X213900Y205500D03*
M02*
