M48
;GenerationSoftware,Autodesk,EAGLE,9.2.0*%
;CreationDate,2018-11-03T13:06:09Z*%
FMAT,2
ICI,OFF
METRIC,TZ,000.000
T2C0.350
T1C0.635
%
G90
M71
T1
X28257Y9716
X28257Y7175
X30797Y7175
X33338Y7175
X33338Y9716
X30797Y9716
T2
X73806Y4267
X28805Y24090
X67310Y23812
X85058Y16542
X62121Y24510
X30416Y24148
X76979Y16786
X62630Y22768
X72644Y19399
X66104Y20574
X17570Y22290
X66104Y24460
X74613Y17748
X9929Y22551
X28086Y12952
X50165Y5969
X67120Y16523
X78804Y15176
X60892Y27670
X83820Y16510
X70739Y12827
X7667Y17812
X63679Y20058
X86995Y10541
X80899Y10795
X83312Y15367
X77597Y7366
X73406Y9398
X82931Y17399
X34290Y23368
X69596Y25273
X74676Y22733
X32131Y20955
X22987Y20447
X21717Y8128
X71374Y11430
X63754Y11430
X81534Y15494
X33147Y18288
X10287Y14478
X14986Y22987
X40894Y5080
X61595Y14351
X93789Y14986
X77216Y4811
X74009Y26479
X89090Y24003
X14733Y12454
X81883Y17907
X76200Y20310
X73876Y18574
X28417Y18217
X81026Y18802
X72454Y20193
X28825Y21363
X74970Y20455
X87979Y25813
X88709Y17971
X69650Y16246
X28778Y4686
X6540Y19971
X7083Y10103
X68580Y9017
X62865Y15113
X92456Y18288
X71214Y5587
X93218Y16574
X72295Y6001
X64095Y17075
X28670Y16210
X80518Y22161
X83185Y24193
X89884Y19399
X32591Y3283
X19820Y20675
X82445Y14240
X19820Y15910
X24890Y12250
X69850Y7620
X32235Y18190
X79662Y18160
X30165Y17670
X79745Y17115
X31055Y18505
X80836Y14827
X62865Y23904
X36010Y23385
X79935Y13560
X68580Y12152
X64863Y16051
X59308Y24738
X87820Y15875
X34974Y8452
X36408Y6019
X69850Y6350
X91503Y10890
X66744Y22991
M30