G75*
%MOIN*%
%OFA0B0*%
%FSLAX25Y25*%
%IPPOS*%
%LPD*%
%AMOC8*
5,1,8,0,0,1.08239X$1,22.5*
%
%ADD10C,0.00600*%
%ADD11C,0.00500*%
%ADD12C,0.00800*%
%ADD13C,0.00000*%
%ADD14R,0.04737X0.05131*%
%ADD15R,0.05052X0.04934*%
%ADD16R,0.05131X0.04737*%
%ADD17C,0.08200*%
%ADD18R,0.09600X0.05600*%
%ADD19R,0.09461X0.14973*%
%ADD20R,0.04343X0.03950*%
%ADD21R,0.10300X0.05300*%
%ADD22R,0.06200X0.10800*%
%ADD23R,0.05300X0.10300*%
%ADD24R,0.05957X0.08398*%
%ADD25R,0.04934X0.08477*%
%ADD26R,0.08477X0.08477*%
%ADD27R,0.05800X0.03000*%
%ADD28R,0.03000X0.05800*%
%ADD29R,0.07099X0.01981*%
%ADD30R,0.04737X0.03162*%
%ADD31R,0.03300X0.05800*%
%ADD32C,0.03950*%
D10*
X0017703Y0038877D02*
X0017703Y0053068D01*
X0017473Y0054223D01*
X0016826Y0055511D01*
X0015826Y0056843D01*
X0014540Y0058131D01*
X0013031Y0059287D01*
X0011367Y0060221D01*
X0009609Y0060847D01*
X0007826Y0061075D01*
X0001300Y0061075D01*
X0001300Y0093285D01*
X0011489Y0093363D01*
X0012380Y0093845D01*
X0013016Y0094600D01*
X0013395Y0095536D01*
X0013520Y0096561D01*
X0013391Y0097585D01*
X0013008Y0098513D01*
X0012374Y0099256D01*
X0011489Y0099720D01*
X0001300Y0099735D01*
X0001300Y0114803D02*
X0011489Y0114803D01*
X0013651Y0115090D01*
X0015486Y0115887D01*
X0017005Y0117096D01*
X0018220Y0118620D01*
X0019144Y0120362D01*
X0019789Y0122225D01*
X0020167Y0124111D01*
X0020291Y0125924D01*
X0020291Y0145461D01*
X0060762Y0145461D02*
X0060762Y0141013D01*
X0124178Y0141164D01*
X0124439Y0148568D01*
X0283611Y0148568D01*
X0286803Y0145461D01*
X0353849Y0145461D01*
X0353872Y0134183D01*
X0354104Y0132969D01*
X0354668Y0131631D01*
X0355516Y0130256D01*
X0356599Y0128933D01*
X0357869Y0127750D01*
X0359276Y0126796D01*
X0360773Y0126160D01*
X0362309Y0125929D01*
X0362585Y0125935D01*
X0378794Y0125924D01*
X0378794Y0061075D01*
X0333600Y0061075D01*
X0332610Y0060907D01*
X0331351Y0060421D01*
X0329946Y0059641D01*
X0328519Y0058595D01*
X0327194Y0057307D01*
X0326094Y0055804D01*
X0325344Y0054111D01*
X0325066Y0052254D01*
X0325066Y0048361D01*
X0270858Y0048361D01*
X0270858Y0038877D01*
X0017703Y0038877D01*
X0122690Y0090966D02*
X0124225Y0089783D01*
X0158265Y0068189D01*
X0163523Y0065449D01*
X0168754Y0063607D01*
X0173919Y0062628D01*
X0178974Y0062478D01*
X0183880Y0063119D01*
X0188596Y0064518D01*
X0193079Y0066639D01*
X0197289Y0069447D01*
X0229895Y0090159D01*
X0230978Y0091402D01*
X0231843Y0092915D01*
X0232442Y0094612D01*
X0232729Y0096404D01*
X0232659Y0098204D01*
X0232183Y0099923D01*
X0231257Y0101475D01*
X0229833Y0102771D01*
X0190100Y0127595D01*
X0187592Y0128804D01*
X0184372Y0129643D01*
X0180700Y0130126D01*
X0176836Y0130263D01*
X0173041Y0130067D01*
X0169574Y0129549D01*
X0166698Y0128721D01*
X0164671Y0127595D01*
X0125405Y0103236D01*
X0123317Y0101738D01*
X0121857Y0099993D01*
X0120989Y0098097D01*
X0120674Y0096150D01*
X0120878Y0094247D01*
X0121562Y0092486D01*
X0122690Y0090966D01*
X0158497Y0092431D02*
X0158497Y0095986D01*
X0158499Y0096060D01*
X0158505Y0096135D01*
X0158515Y0096208D01*
X0158528Y0096282D01*
X0158545Y0096354D01*
X0158567Y0096425D01*
X0158591Y0096496D01*
X0158620Y0096564D01*
X0158652Y0096632D01*
X0158688Y0096697D01*
X0158726Y0096760D01*
X0158769Y0096822D01*
X0158814Y0096881D01*
X0158862Y0096937D01*
X0158913Y0096992D01*
X0158967Y0097043D01*
X0159024Y0097091D01*
X0159083Y0097136D01*
X0159145Y0097179D01*
X0159208Y0097217D01*
X0159273Y0097253D01*
X0159341Y0097285D01*
X0159409Y0097314D01*
X0159480Y0097338D01*
X0159551Y0097360D01*
X0159623Y0097377D01*
X0159697Y0097390D01*
X0159770Y0097400D01*
X0159845Y0097406D01*
X0159919Y0097408D01*
X0161341Y0097408D01*
X0163846Y0097408D02*
X0163846Y0092786D01*
X0163848Y0092703D01*
X0163854Y0092620D01*
X0163864Y0092537D01*
X0163877Y0092454D01*
X0163895Y0092373D01*
X0163916Y0092292D01*
X0163941Y0092213D01*
X0163970Y0092135D01*
X0164002Y0092058D01*
X0164038Y0091983D01*
X0164077Y0091909D01*
X0164120Y0091838D01*
X0164166Y0091768D01*
X0164216Y0091701D01*
X0164268Y0091636D01*
X0164323Y0091574D01*
X0164382Y0091514D01*
X0164443Y0091457D01*
X0164506Y0091403D01*
X0164572Y0091352D01*
X0164641Y0091305D01*
X0164711Y0091260D01*
X0164784Y0091219D01*
X0164858Y0091182D01*
X0164934Y0091147D01*
X0165012Y0091117D01*
X0165090Y0091090D01*
X0165171Y0091067D01*
X0165252Y0091047D01*
X0165334Y0091032D01*
X0165416Y0091020D01*
X0165499Y0091012D01*
X0165582Y0091008D01*
X0165666Y0091008D01*
X0165749Y0091012D01*
X0165832Y0091020D01*
X0165914Y0091032D01*
X0165996Y0091047D01*
X0166077Y0091067D01*
X0166158Y0091090D01*
X0166236Y0091117D01*
X0166314Y0091147D01*
X0166390Y0091182D01*
X0166464Y0091219D01*
X0166537Y0091260D01*
X0166607Y0091305D01*
X0166676Y0091352D01*
X0166742Y0091403D01*
X0166805Y0091457D01*
X0166866Y0091514D01*
X0166925Y0091574D01*
X0166980Y0091636D01*
X0167032Y0091701D01*
X0167082Y0091768D01*
X0167128Y0091838D01*
X0167171Y0091909D01*
X0167210Y0091983D01*
X0167246Y0092058D01*
X0167278Y0092135D01*
X0167307Y0092213D01*
X0167332Y0092292D01*
X0167353Y0092373D01*
X0167371Y0092454D01*
X0167384Y0092537D01*
X0167394Y0092620D01*
X0167400Y0092703D01*
X0167402Y0092786D01*
X0167401Y0092786D02*
X0167401Y0097408D01*
X0169795Y0097408D02*
X0173350Y0097408D01*
X0171573Y0097408D02*
X0171573Y0091008D01*
X0178821Y0092786D02*
X0178821Y0095631D01*
X0178820Y0095631D02*
X0178822Y0095714D01*
X0178828Y0095797D01*
X0178838Y0095880D01*
X0178851Y0095963D01*
X0178869Y0096044D01*
X0178890Y0096125D01*
X0178915Y0096204D01*
X0178944Y0096282D01*
X0178976Y0096359D01*
X0179012Y0096434D01*
X0179051Y0096508D01*
X0179094Y0096579D01*
X0179140Y0096649D01*
X0179190Y0096716D01*
X0179242Y0096781D01*
X0179297Y0096843D01*
X0179356Y0096903D01*
X0179417Y0096960D01*
X0179480Y0097014D01*
X0179546Y0097065D01*
X0179615Y0097112D01*
X0179685Y0097157D01*
X0179758Y0097198D01*
X0179832Y0097235D01*
X0179908Y0097270D01*
X0179986Y0097300D01*
X0180064Y0097327D01*
X0180145Y0097350D01*
X0180226Y0097370D01*
X0180308Y0097385D01*
X0180390Y0097397D01*
X0180473Y0097405D01*
X0180556Y0097409D01*
X0180640Y0097409D01*
X0180723Y0097405D01*
X0180806Y0097397D01*
X0180888Y0097385D01*
X0180970Y0097370D01*
X0181051Y0097350D01*
X0181132Y0097327D01*
X0181210Y0097300D01*
X0181288Y0097270D01*
X0181364Y0097235D01*
X0181438Y0097198D01*
X0181511Y0097157D01*
X0181581Y0097112D01*
X0181650Y0097065D01*
X0181716Y0097014D01*
X0181779Y0096960D01*
X0181840Y0096903D01*
X0181899Y0096843D01*
X0181954Y0096781D01*
X0182006Y0096716D01*
X0182056Y0096649D01*
X0182102Y0096579D01*
X0182145Y0096508D01*
X0182184Y0096434D01*
X0182220Y0096359D01*
X0182252Y0096282D01*
X0182281Y0096204D01*
X0182306Y0096125D01*
X0182327Y0096044D01*
X0182345Y0095963D01*
X0182358Y0095880D01*
X0182368Y0095797D01*
X0182374Y0095714D01*
X0182376Y0095631D01*
X0182376Y0092786D01*
X0182374Y0092703D01*
X0182368Y0092620D01*
X0182358Y0092537D01*
X0182345Y0092454D01*
X0182327Y0092373D01*
X0182306Y0092292D01*
X0182281Y0092213D01*
X0182252Y0092135D01*
X0182220Y0092058D01*
X0182184Y0091983D01*
X0182145Y0091909D01*
X0182102Y0091838D01*
X0182056Y0091768D01*
X0182006Y0091701D01*
X0181954Y0091636D01*
X0181899Y0091574D01*
X0181840Y0091514D01*
X0181779Y0091457D01*
X0181716Y0091403D01*
X0181650Y0091352D01*
X0181581Y0091305D01*
X0181511Y0091260D01*
X0181438Y0091219D01*
X0181364Y0091182D01*
X0181288Y0091147D01*
X0181210Y0091117D01*
X0181132Y0091090D01*
X0181051Y0091067D01*
X0180970Y0091047D01*
X0180888Y0091032D01*
X0180806Y0091020D01*
X0180723Y0091012D01*
X0180640Y0091008D01*
X0180556Y0091008D01*
X0180473Y0091012D01*
X0180390Y0091020D01*
X0180308Y0091032D01*
X0180226Y0091047D01*
X0180145Y0091067D01*
X0180064Y0091090D01*
X0179986Y0091117D01*
X0179908Y0091147D01*
X0179832Y0091182D01*
X0179758Y0091219D01*
X0179685Y0091260D01*
X0179615Y0091305D01*
X0179546Y0091352D01*
X0179480Y0091403D01*
X0179417Y0091457D01*
X0179356Y0091514D01*
X0179297Y0091574D01*
X0179242Y0091636D01*
X0179190Y0091701D01*
X0179140Y0091768D01*
X0179094Y0091838D01*
X0179051Y0091909D01*
X0179012Y0091983D01*
X0178976Y0092058D01*
X0178944Y0092135D01*
X0178915Y0092213D01*
X0178890Y0092292D01*
X0178869Y0092373D01*
X0178851Y0092454D01*
X0178838Y0092537D01*
X0178828Y0092620D01*
X0178822Y0092703D01*
X0178820Y0092786D01*
X0185180Y0092786D02*
X0185180Y0097408D01*
X0188735Y0097408D02*
X0188735Y0092786D01*
X0188736Y0092786D02*
X0188734Y0092703D01*
X0188728Y0092620D01*
X0188718Y0092537D01*
X0188705Y0092454D01*
X0188687Y0092373D01*
X0188666Y0092292D01*
X0188641Y0092213D01*
X0188612Y0092135D01*
X0188580Y0092058D01*
X0188544Y0091983D01*
X0188505Y0091909D01*
X0188462Y0091838D01*
X0188416Y0091768D01*
X0188366Y0091701D01*
X0188314Y0091636D01*
X0188259Y0091574D01*
X0188200Y0091514D01*
X0188139Y0091457D01*
X0188076Y0091403D01*
X0188010Y0091352D01*
X0187941Y0091305D01*
X0187871Y0091260D01*
X0187798Y0091219D01*
X0187724Y0091182D01*
X0187648Y0091147D01*
X0187570Y0091117D01*
X0187492Y0091090D01*
X0187411Y0091067D01*
X0187330Y0091047D01*
X0187248Y0091032D01*
X0187166Y0091020D01*
X0187083Y0091012D01*
X0187000Y0091008D01*
X0186916Y0091008D01*
X0186833Y0091012D01*
X0186750Y0091020D01*
X0186668Y0091032D01*
X0186586Y0091047D01*
X0186505Y0091067D01*
X0186424Y0091090D01*
X0186346Y0091117D01*
X0186268Y0091147D01*
X0186192Y0091182D01*
X0186118Y0091219D01*
X0186045Y0091260D01*
X0185975Y0091305D01*
X0185906Y0091352D01*
X0185840Y0091403D01*
X0185777Y0091457D01*
X0185716Y0091514D01*
X0185657Y0091574D01*
X0185602Y0091636D01*
X0185550Y0091701D01*
X0185500Y0091768D01*
X0185454Y0091838D01*
X0185411Y0091909D01*
X0185372Y0091983D01*
X0185336Y0092058D01*
X0185304Y0092135D01*
X0185275Y0092213D01*
X0185250Y0092292D01*
X0185229Y0092373D01*
X0185211Y0092454D01*
X0185198Y0092537D01*
X0185188Y0092620D01*
X0185182Y0092703D01*
X0185180Y0092786D01*
X0191129Y0097408D02*
X0194684Y0097408D01*
X0192907Y0097408D02*
X0192907Y0091008D01*
X0161341Y0091008D02*
X0159919Y0091008D01*
X0159919Y0091009D02*
X0159845Y0091011D01*
X0159770Y0091017D01*
X0159697Y0091027D01*
X0159623Y0091040D01*
X0159551Y0091057D01*
X0159480Y0091079D01*
X0159409Y0091103D01*
X0159341Y0091132D01*
X0159273Y0091164D01*
X0159208Y0091200D01*
X0159145Y0091238D01*
X0159083Y0091281D01*
X0159024Y0091326D01*
X0158967Y0091374D01*
X0158913Y0091425D01*
X0158862Y0091479D01*
X0158814Y0091536D01*
X0158769Y0091595D01*
X0158726Y0091657D01*
X0158688Y0091720D01*
X0158652Y0091785D01*
X0158620Y0091853D01*
X0158591Y0091921D01*
X0158567Y0091992D01*
X0158545Y0092063D01*
X0158528Y0092135D01*
X0158515Y0092209D01*
X0158505Y0092282D01*
X0158499Y0092357D01*
X0158497Y0092431D01*
X0255811Y0136897D02*
X0255734Y0137142D01*
X0255707Y0137405D01*
X0255707Y0139289D01*
X0255734Y0139552D01*
X0255811Y0139797D01*
X0255931Y0140020D01*
X0256092Y0140213D01*
X0256285Y0140374D01*
X0256508Y0140495D01*
X0256753Y0140571D01*
X0257016Y0140598D01*
X0262092Y0140598D01*
X0262355Y0140571D01*
X0262600Y0140495D01*
X0262822Y0140374D01*
X0263016Y0140213D01*
X0263176Y0140020D01*
X0263297Y0139797D01*
X0263374Y0139552D01*
X0263400Y0139289D01*
X0263400Y0137405D01*
X0263374Y0137142D01*
X0263297Y0136897D01*
X0263176Y0136675D01*
X0263016Y0136481D01*
X0262822Y0136321D01*
X0262600Y0136200D01*
X0262355Y0136123D01*
X0262092Y0136097D01*
X0257016Y0136097D01*
X0256753Y0136123D01*
X0256508Y0136200D01*
X0256285Y0136321D01*
X0256092Y0136481D01*
X0255931Y0136675D01*
X0255811Y0136897D01*
X0271135Y0137405D02*
X0271135Y0139289D01*
X0271162Y0139552D01*
X0271239Y0139797D01*
X0271359Y0140020D01*
X0271520Y0140213D01*
X0271713Y0140374D01*
X0271935Y0140495D01*
X0272181Y0140571D01*
X0272443Y0140598D01*
X0277520Y0140598D01*
X0277783Y0140571D01*
X0278028Y0140495D01*
X0278250Y0140374D01*
X0278444Y0140213D01*
X0278604Y0140020D01*
X0278725Y0139797D01*
X0278802Y0139552D01*
X0278828Y0139289D01*
X0278828Y0137405D01*
X0278802Y0137142D01*
X0278725Y0136897D01*
X0278604Y0136675D01*
X0278444Y0136481D01*
X0278250Y0136321D01*
X0278028Y0136200D01*
X0277783Y0136123D01*
X0277520Y0136097D01*
X0272443Y0136097D01*
X0272181Y0136123D01*
X0271935Y0136200D01*
X0271713Y0136321D01*
X0271520Y0136481D01*
X0271359Y0136675D01*
X0271239Y0136897D01*
X0271162Y0137142D01*
X0271135Y0137405D01*
X0308483Y0136890D02*
X0308483Y0138774D01*
X0308510Y0139037D01*
X0308587Y0139282D01*
X0308707Y0139504D01*
X0308868Y0139698D01*
X0309061Y0139858D01*
X0309283Y0139979D01*
X0309529Y0140056D01*
X0309791Y0140082D01*
X0314868Y0140082D01*
X0315131Y0140056D01*
X0315376Y0139979D01*
X0315598Y0139858D01*
X0315792Y0139698D01*
X0315952Y0139504D01*
X0316073Y0139282D01*
X0316150Y0139037D01*
X0316176Y0138774D01*
X0316176Y0136890D01*
X0316150Y0136627D01*
X0316073Y0136382D01*
X0315952Y0136160D01*
X0315792Y0135966D01*
X0315598Y0135806D01*
X0315376Y0135685D01*
X0315131Y0135608D01*
X0314868Y0135582D01*
X0309791Y0135582D01*
X0309529Y0135608D01*
X0309283Y0135685D01*
X0309061Y0135806D01*
X0308868Y0135966D01*
X0308707Y0136160D01*
X0308587Y0136382D01*
X0308510Y0136627D01*
X0308483Y0136890D01*
X0331167Y0126223D02*
X0331288Y0126445D01*
X0331448Y0126639D01*
X0331642Y0126799D01*
X0331865Y0126920D01*
X0332109Y0126996D01*
X0332372Y0127023D01*
X0334256Y0127023D01*
X0334519Y0126996D01*
X0334765Y0126920D01*
X0334987Y0126799D01*
X0335181Y0126639D01*
X0335341Y0126445D01*
X0335462Y0126223D01*
X0335538Y0125978D01*
X0335565Y0125715D01*
X0335565Y0120638D01*
X0335538Y0120375D01*
X0335462Y0120130D01*
X0335341Y0119908D01*
X0335181Y0119714D01*
X0334987Y0119554D01*
X0334765Y0119433D01*
X0334519Y0119357D01*
X0334256Y0119330D01*
X0332372Y0119330D01*
X0332109Y0119357D01*
X0331865Y0119433D01*
X0331642Y0119554D01*
X0331448Y0119714D01*
X0331288Y0119908D01*
X0331167Y0120130D01*
X0331091Y0120375D01*
X0331064Y0120638D01*
X0331064Y0125715D01*
X0331091Y0125978D01*
X0331167Y0126223D01*
X0343477Y0119106D02*
X0343637Y0119300D01*
X0343831Y0119460D01*
X0344053Y0119581D01*
X0344298Y0119658D01*
X0344561Y0119684D01*
X0349637Y0119684D01*
X0349900Y0119658D01*
X0350145Y0119581D01*
X0350368Y0119460D01*
X0350561Y0119300D01*
X0350722Y0119106D01*
X0350843Y0118884D01*
X0350919Y0118639D01*
X0350946Y0118376D01*
X0350946Y0116492D01*
X0350919Y0116229D01*
X0350843Y0115984D01*
X0350722Y0115761D01*
X0350561Y0115567D01*
X0350368Y0115407D01*
X0350145Y0115286D01*
X0349900Y0115210D01*
X0349637Y0115183D01*
X0344561Y0115183D01*
X0344298Y0115210D01*
X0344053Y0115286D01*
X0343831Y0115407D01*
X0343637Y0115567D01*
X0343477Y0115761D01*
X0343356Y0115984D01*
X0343280Y0116229D01*
X0343253Y0116492D01*
X0343253Y0118376D01*
X0343280Y0118639D01*
X0343356Y0118884D01*
X0343477Y0119106D01*
X0361576Y0118376D02*
X0361576Y0116492D01*
X0361603Y0116229D01*
X0361680Y0115984D01*
X0361800Y0115761D01*
X0361961Y0115567D01*
X0362154Y0115407D01*
X0362377Y0115286D01*
X0362622Y0115210D01*
X0362885Y0115183D01*
X0367961Y0115183D01*
X0368224Y0115210D01*
X0368469Y0115286D01*
X0368691Y0115407D01*
X0368885Y0115567D01*
X0369045Y0115761D01*
X0369166Y0115984D01*
X0369243Y0116229D01*
X0369269Y0116492D01*
X0369269Y0118376D01*
X0369243Y0118639D01*
X0369166Y0118884D01*
X0369045Y0119106D01*
X0368885Y0119300D01*
X0368691Y0119460D01*
X0368469Y0119581D01*
X0368224Y0119658D01*
X0367961Y0119684D01*
X0362885Y0119684D01*
X0362622Y0119658D01*
X0362377Y0119581D01*
X0362154Y0119460D01*
X0361961Y0119300D01*
X0361800Y0119106D01*
X0361680Y0118884D01*
X0361603Y0118639D01*
X0361576Y0118376D01*
X0286760Y0097559D02*
X0286824Y0096924D01*
X0286764Y0097539D01*
X0286585Y0098129D01*
X0286294Y0098674D01*
X0285902Y0099151D01*
X0285425Y0099543D01*
X0284880Y0099834D01*
X0284289Y0100013D01*
X0283675Y0100074D01*
X0283060Y0100013D01*
X0282469Y0099834D01*
X0281925Y0099543D01*
X0281448Y0099151D01*
X0281056Y0098674D01*
X0280765Y0098129D01*
X0280586Y0097539D01*
X0280525Y0096924D01*
X0280586Y0096310D01*
X0280765Y0095719D01*
X0281056Y0095174D01*
X0281448Y0094697D01*
X0281925Y0094305D01*
X0282469Y0094014D01*
X0283060Y0093835D01*
X0283675Y0093774D01*
X0284289Y0093835D01*
X0284880Y0094014D01*
X0285425Y0094305D01*
X0285902Y0094697D01*
X0286294Y0095174D01*
X0286585Y0095719D01*
X0286764Y0096310D01*
X0286824Y0096924D01*
X0286760Y0096289D01*
X0286577Y0095698D01*
X0286287Y0095163D01*
X0285902Y0094697D01*
X0285436Y0094312D01*
X0284901Y0094022D01*
X0284309Y0093839D01*
X0283675Y0093774D01*
X0283040Y0093839D01*
X0282449Y0094022D01*
X0281914Y0094312D01*
X0281448Y0094697D01*
X0281063Y0095163D01*
X0280773Y0095698D01*
X0280589Y0096289D01*
X0280525Y0096924D01*
X0280589Y0097559D01*
X0280773Y0098150D01*
X0281063Y0098685D01*
X0281448Y0099151D01*
X0281914Y0099536D01*
X0282449Y0099826D01*
X0283040Y0100010D01*
X0283675Y0100074D01*
X0284309Y0100010D01*
X0284901Y0099826D01*
X0285436Y0099536D01*
X0285902Y0099151D01*
X0286287Y0098685D01*
X0286577Y0098150D01*
X0286760Y0097559D01*
D11*
X0114947Y0077208D02*
X0114947Y0076208D01*
X0113447Y0076208D01*
X0113447Y0077208D01*
X0114947Y0077208D01*
X0114947Y0077085D02*
X0113447Y0077085D01*
X0113447Y0076586D02*
X0114947Y0076586D01*
X0001300Y0099735D02*
X0001300Y0114803D01*
D12*
X0020291Y0145461D02*
X0060762Y0145461D01*
D13*
X0257697Y0138831D02*
X0257697Y0138386D01*
X0257699Y0138361D01*
X0257704Y0138336D01*
X0257713Y0138312D01*
X0257725Y0138290D01*
X0257740Y0138269D01*
X0257758Y0138251D01*
X0257779Y0138236D01*
X0257801Y0138224D01*
X0257825Y0138215D01*
X0257850Y0138210D01*
X0257875Y0138208D01*
X0258052Y0138208D01*
X0258322Y0138431D02*
X0258322Y0139008D01*
X0258052Y0139008D02*
X0257875Y0139008D01*
X0257875Y0139009D02*
X0257850Y0139007D01*
X0257825Y0139002D01*
X0257801Y0138993D01*
X0257779Y0138981D01*
X0257758Y0138966D01*
X0257740Y0138948D01*
X0257725Y0138927D01*
X0257713Y0138905D01*
X0257704Y0138881D01*
X0257699Y0138856D01*
X0257697Y0138831D01*
X0258322Y0138431D02*
X0258324Y0138402D01*
X0258330Y0138374D01*
X0258339Y0138346D01*
X0258352Y0138320D01*
X0258368Y0138296D01*
X0258387Y0138274D01*
X0258409Y0138255D01*
X0258433Y0138239D01*
X0258459Y0138226D01*
X0258487Y0138217D01*
X0258515Y0138211D01*
X0258544Y0138209D01*
X0258573Y0138211D01*
X0258601Y0138217D01*
X0258629Y0138226D01*
X0258655Y0138239D01*
X0258679Y0138255D01*
X0258701Y0138274D01*
X0258720Y0138296D01*
X0258736Y0138320D01*
X0258749Y0138346D01*
X0258758Y0138374D01*
X0258764Y0138402D01*
X0258766Y0138431D01*
X0258766Y0139008D01*
X0259018Y0139008D02*
X0259462Y0139008D01*
X0259240Y0139008D02*
X0259240Y0138208D01*
X0260074Y0138431D02*
X0260074Y0138786D01*
X0260076Y0138815D01*
X0260082Y0138843D01*
X0260091Y0138871D01*
X0260104Y0138897D01*
X0260120Y0138921D01*
X0260139Y0138943D01*
X0260161Y0138962D01*
X0260185Y0138978D01*
X0260211Y0138991D01*
X0260239Y0139000D01*
X0260267Y0139006D01*
X0260296Y0139008D01*
X0260325Y0139006D01*
X0260353Y0139000D01*
X0260381Y0138991D01*
X0260407Y0138978D01*
X0260431Y0138962D01*
X0260453Y0138943D01*
X0260472Y0138921D01*
X0260488Y0138897D01*
X0260501Y0138871D01*
X0260510Y0138843D01*
X0260516Y0138815D01*
X0260518Y0138786D01*
X0260518Y0138431D01*
X0260516Y0138402D01*
X0260510Y0138374D01*
X0260501Y0138346D01*
X0260488Y0138320D01*
X0260472Y0138296D01*
X0260453Y0138274D01*
X0260431Y0138255D01*
X0260407Y0138239D01*
X0260381Y0138226D01*
X0260353Y0138217D01*
X0260325Y0138211D01*
X0260296Y0138209D01*
X0260267Y0138211D01*
X0260239Y0138217D01*
X0260211Y0138226D01*
X0260185Y0138239D01*
X0260161Y0138255D01*
X0260139Y0138274D01*
X0260120Y0138296D01*
X0260104Y0138320D01*
X0260091Y0138346D01*
X0260082Y0138374D01*
X0260076Y0138402D01*
X0260074Y0138431D01*
X0260818Y0138431D02*
X0260818Y0139008D01*
X0261262Y0139008D02*
X0261262Y0138431D01*
X0261260Y0138402D01*
X0261254Y0138374D01*
X0261245Y0138346D01*
X0261232Y0138320D01*
X0261216Y0138296D01*
X0261197Y0138274D01*
X0261175Y0138255D01*
X0261151Y0138239D01*
X0261125Y0138226D01*
X0261097Y0138217D01*
X0261069Y0138211D01*
X0261040Y0138209D01*
X0261011Y0138211D01*
X0260983Y0138217D01*
X0260955Y0138226D01*
X0260929Y0138239D01*
X0260905Y0138255D01*
X0260883Y0138274D01*
X0260864Y0138296D01*
X0260848Y0138320D01*
X0260835Y0138346D01*
X0260826Y0138374D01*
X0260820Y0138402D01*
X0260818Y0138431D01*
X0261514Y0139008D02*
X0261958Y0139008D01*
X0261736Y0139008D02*
X0261736Y0138208D01*
X0272697Y0138386D02*
X0272697Y0138831D01*
X0272699Y0138856D01*
X0272704Y0138881D01*
X0272713Y0138905D01*
X0272725Y0138927D01*
X0272740Y0138948D01*
X0272758Y0138966D01*
X0272779Y0138981D01*
X0272801Y0138993D01*
X0272825Y0139002D01*
X0272850Y0139007D01*
X0272875Y0139009D01*
X0272875Y0139008D02*
X0273052Y0139008D01*
X0273322Y0139008D02*
X0273322Y0138431D01*
X0273324Y0138402D01*
X0273330Y0138374D01*
X0273339Y0138346D01*
X0273352Y0138320D01*
X0273368Y0138296D01*
X0273387Y0138274D01*
X0273409Y0138255D01*
X0273433Y0138239D01*
X0273459Y0138226D01*
X0273487Y0138217D01*
X0273515Y0138211D01*
X0273544Y0138209D01*
X0273573Y0138211D01*
X0273601Y0138217D01*
X0273629Y0138226D01*
X0273655Y0138239D01*
X0273679Y0138255D01*
X0273701Y0138274D01*
X0273720Y0138296D01*
X0273736Y0138320D01*
X0273749Y0138346D01*
X0273758Y0138374D01*
X0273764Y0138402D01*
X0273766Y0138431D01*
X0273766Y0139008D01*
X0274018Y0139008D02*
X0274462Y0139008D01*
X0274240Y0139008D02*
X0274240Y0138208D01*
X0275074Y0138431D02*
X0275074Y0138786D01*
X0275076Y0138815D01*
X0275082Y0138843D01*
X0275091Y0138871D01*
X0275104Y0138897D01*
X0275120Y0138921D01*
X0275139Y0138943D01*
X0275161Y0138962D01*
X0275185Y0138978D01*
X0275211Y0138991D01*
X0275239Y0139000D01*
X0275267Y0139006D01*
X0275296Y0139008D01*
X0275325Y0139006D01*
X0275353Y0139000D01*
X0275381Y0138991D01*
X0275407Y0138978D01*
X0275431Y0138962D01*
X0275453Y0138943D01*
X0275472Y0138921D01*
X0275488Y0138897D01*
X0275501Y0138871D01*
X0275510Y0138843D01*
X0275516Y0138815D01*
X0275518Y0138786D01*
X0275518Y0138431D01*
X0275516Y0138402D01*
X0275510Y0138374D01*
X0275501Y0138346D01*
X0275488Y0138320D01*
X0275472Y0138296D01*
X0275453Y0138274D01*
X0275431Y0138255D01*
X0275407Y0138239D01*
X0275381Y0138226D01*
X0275353Y0138217D01*
X0275325Y0138211D01*
X0275296Y0138209D01*
X0275267Y0138211D01*
X0275239Y0138217D01*
X0275211Y0138226D01*
X0275185Y0138239D01*
X0275161Y0138255D01*
X0275139Y0138274D01*
X0275120Y0138296D01*
X0275104Y0138320D01*
X0275091Y0138346D01*
X0275082Y0138374D01*
X0275076Y0138402D01*
X0275074Y0138431D01*
X0275818Y0138431D02*
X0275818Y0139008D01*
X0276262Y0139008D02*
X0276262Y0138431D01*
X0276260Y0138402D01*
X0276254Y0138374D01*
X0276245Y0138346D01*
X0276232Y0138320D01*
X0276216Y0138296D01*
X0276197Y0138274D01*
X0276175Y0138255D01*
X0276151Y0138239D01*
X0276125Y0138226D01*
X0276097Y0138217D01*
X0276069Y0138211D01*
X0276040Y0138209D01*
X0276011Y0138211D01*
X0275983Y0138217D01*
X0275955Y0138226D01*
X0275929Y0138239D01*
X0275905Y0138255D01*
X0275883Y0138274D01*
X0275864Y0138296D01*
X0275848Y0138320D01*
X0275835Y0138346D01*
X0275826Y0138374D01*
X0275820Y0138402D01*
X0275818Y0138431D01*
X0276514Y0139008D02*
X0276958Y0139008D01*
X0276736Y0139008D02*
X0276736Y0138208D01*
X0273052Y0138208D02*
X0272875Y0138208D01*
X0272850Y0138210D01*
X0272825Y0138215D01*
X0272801Y0138224D01*
X0272779Y0138236D01*
X0272758Y0138251D01*
X0272740Y0138269D01*
X0272725Y0138290D01*
X0272713Y0138312D01*
X0272704Y0138336D01*
X0272699Y0138361D01*
X0272697Y0138386D01*
X0310197Y0138331D02*
X0310197Y0137886D01*
X0310199Y0137861D01*
X0310204Y0137836D01*
X0310213Y0137812D01*
X0310225Y0137790D01*
X0310240Y0137769D01*
X0310258Y0137751D01*
X0310279Y0137736D01*
X0310301Y0137724D01*
X0310325Y0137715D01*
X0310350Y0137710D01*
X0310375Y0137708D01*
X0310552Y0137708D01*
X0310822Y0137931D02*
X0310822Y0138508D01*
X0310552Y0138508D02*
X0310375Y0138508D01*
X0310375Y0138509D02*
X0310350Y0138507D01*
X0310325Y0138502D01*
X0310301Y0138493D01*
X0310279Y0138481D01*
X0310258Y0138466D01*
X0310240Y0138448D01*
X0310225Y0138427D01*
X0310213Y0138405D01*
X0310204Y0138381D01*
X0310199Y0138356D01*
X0310197Y0138331D01*
X0310822Y0137931D02*
X0310824Y0137902D01*
X0310830Y0137874D01*
X0310839Y0137846D01*
X0310852Y0137820D01*
X0310868Y0137796D01*
X0310887Y0137774D01*
X0310909Y0137755D01*
X0310933Y0137739D01*
X0310959Y0137726D01*
X0310987Y0137717D01*
X0311015Y0137711D01*
X0311044Y0137709D01*
X0311073Y0137711D01*
X0311101Y0137717D01*
X0311129Y0137726D01*
X0311155Y0137739D01*
X0311179Y0137755D01*
X0311201Y0137774D01*
X0311220Y0137796D01*
X0311236Y0137820D01*
X0311249Y0137846D01*
X0311258Y0137874D01*
X0311264Y0137902D01*
X0311266Y0137931D01*
X0311266Y0138508D01*
X0311518Y0138508D02*
X0311962Y0138508D01*
X0311740Y0138508D02*
X0311740Y0137708D01*
X0312574Y0137931D02*
X0312574Y0138286D01*
X0312576Y0138315D01*
X0312582Y0138343D01*
X0312591Y0138371D01*
X0312604Y0138397D01*
X0312620Y0138421D01*
X0312639Y0138443D01*
X0312661Y0138462D01*
X0312685Y0138478D01*
X0312711Y0138491D01*
X0312739Y0138500D01*
X0312767Y0138506D01*
X0312796Y0138508D01*
X0312825Y0138506D01*
X0312853Y0138500D01*
X0312881Y0138491D01*
X0312907Y0138478D01*
X0312931Y0138462D01*
X0312953Y0138443D01*
X0312972Y0138421D01*
X0312988Y0138397D01*
X0313001Y0138371D01*
X0313010Y0138343D01*
X0313016Y0138315D01*
X0313018Y0138286D01*
X0313018Y0137931D01*
X0313016Y0137902D01*
X0313010Y0137874D01*
X0313001Y0137846D01*
X0312988Y0137820D01*
X0312972Y0137796D01*
X0312953Y0137774D01*
X0312931Y0137755D01*
X0312907Y0137739D01*
X0312881Y0137726D01*
X0312853Y0137717D01*
X0312825Y0137711D01*
X0312796Y0137709D01*
X0312767Y0137711D01*
X0312739Y0137717D01*
X0312711Y0137726D01*
X0312685Y0137739D01*
X0312661Y0137755D01*
X0312639Y0137774D01*
X0312620Y0137796D01*
X0312604Y0137820D01*
X0312591Y0137846D01*
X0312582Y0137874D01*
X0312576Y0137902D01*
X0312574Y0137931D01*
X0313318Y0137931D02*
X0313318Y0138508D01*
X0313762Y0138508D02*
X0313762Y0137931D01*
X0313760Y0137902D01*
X0313754Y0137874D01*
X0313745Y0137846D01*
X0313732Y0137820D01*
X0313716Y0137796D01*
X0313697Y0137774D01*
X0313675Y0137755D01*
X0313651Y0137739D01*
X0313625Y0137726D01*
X0313597Y0137717D01*
X0313569Y0137711D01*
X0313540Y0137709D01*
X0313511Y0137711D01*
X0313483Y0137717D01*
X0313455Y0137726D01*
X0313429Y0137739D01*
X0313405Y0137755D01*
X0313383Y0137774D01*
X0313364Y0137796D01*
X0313348Y0137820D01*
X0313335Y0137846D01*
X0313326Y0137874D01*
X0313320Y0137902D01*
X0313318Y0137931D01*
X0314014Y0138508D02*
X0314458Y0138508D01*
X0314236Y0138508D02*
X0314236Y0137708D01*
X0332897Y0125470D02*
X0332897Y0125025D01*
X0332897Y0125248D02*
X0333697Y0125248D01*
X0333475Y0124774D02*
X0332897Y0124774D01*
X0332897Y0124329D02*
X0333475Y0124329D01*
X0333475Y0124330D02*
X0333504Y0124332D01*
X0333532Y0124338D01*
X0333560Y0124347D01*
X0333586Y0124360D01*
X0333610Y0124376D01*
X0333632Y0124395D01*
X0333651Y0124417D01*
X0333667Y0124441D01*
X0333680Y0124467D01*
X0333689Y0124495D01*
X0333695Y0124523D01*
X0333697Y0124552D01*
X0333695Y0124581D01*
X0333689Y0124609D01*
X0333680Y0124637D01*
X0333667Y0124663D01*
X0333651Y0124687D01*
X0333632Y0124709D01*
X0333610Y0124728D01*
X0333586Y0124744D01*
X0333560Y0124757D01*
X0333532Y0124766D01*
X0333504Y0124772D01*
X0333475Y0124774D01*
X0333475Y0124030D02*
X0333119Y0124030D01*
X0333090Y0124028D01*
X0333062Y0124022D01*
X0333034Y0124013D01*
X0333008Y0124000D01*
X0332984Y0123984D01*
X0332962Y0123965D01*
X0332943Y0123943D01*
X0332927Y0123919D01*
X0332914Y0123893D01*
X0332905Y0123865D01*
X0332899Y0123837D01*
X0332897Y0123808D01*
X0332899Y0123779D01*
X0332905Y0123751D01*
X0332914Y0123723D01*
X0332927Y0123697D01*
X0332943Y0123673D01*
X0332962Y0123651D01*
X0332984Y0123632D01*
X0333008Y0123616D01*
X0333034Y0123603D01*
X0333062Y0123594D01*
X0333090Y0123588D01*
X0333119Y0123586D01*
X0333119Y0123585D02*
X0333475Y0123585D01*
X0333475Y0123586D02*
X0333504Y0123588D01*
X0333532Y0123594D01*
X0333560Y0123603D01*
X0333586Y0123616D01*
X0333610Y0123632D01*
X0333632Y0123651D01*
X0333651Y0123673D01*
X0333667Y0123697D01*
X0333680Y0123723D01*
X0333689Y0123751D01*
X0333695Y0123779D01*
X0333697Y0123808D01*
X0333695Y0123837D01*
X0333689Y0123865D01*
X0333680Y0123893D01*
X0333667Y0123919D01*
X0333651Y0123943D01*
X0333632Y0123965D01*
X0333610Y0123984D01*
X0333586Y0124000D01*
X0333560Y0124013D01*
X0333532Y0124022D01*
X0333504Y0124028D01*
X0333475Y0124030D01*
X0332897Y0122974D02*
X0332897Y0122529D01*
X0332897Y0122752D02*
X0333697Y0122752D01*
X0333475Y0122278D02*
X0332897Y0122278D01*
X0332897Y0121833D02*
X0333475Y0121833D01*
X0333475Y0121834D02*
X0333504Y0121836D01*
X0333532Y0121842D01*
X0333560Y0121851D01*
X0333586Y0121864D01*
X0333610Y0121880D01*
X0333632Y0121899D01*
X0333651Y0121921D01*
X0333667Y0121945D01*
X0333680Y0121971D01*
X0333689Y0121999D01*
X0333695Y0122027D01*
X0333697Y0122056D01*
X0333695Y0122085D01*
X0333689Y0122113D01*
X0333680Y0122141D01*
X0333667Y0122167D01*
X0333651Y0122191D01*
X0333632Y0122213D01*
X0333610Y0122232D01*
X0333586Y0122248D01*
X0333560Y0122261D01*
X0333532Y0122270D01*
X0333504Y0122276D01*
X0333475Y0122278D01*
X0333697Y0121564D02*
X0333697Y0121386D01*
X0333695Y0121361D01*
X0333690Y0121336D01*
X0333681Y0121312D01*
X0333669Y0121290D01*
X0333654Y0121269D01*
X0333636Y0121251D01*
X0333615Y0121236D01*
X0333593Y0121224D01*
X0333569Y0121215D01*
X0333544Y0121210D01*
X0333519Y0121208D01*
X0333075Y0121208D01*
X0333050Y0121210D01*
X0333025Y0121215D01*
X0333001Y0121224D01*
X0332979Y0121236D01*
X0332958Y0121251D01*
X0332940Y0121269D01*
X0332925Y0121290D01*
X0332913Y0121312D01*
X0332904Y0121336D01*
X0332899Y0121361D01*
X0332897Y0121386D01*
X0332897Y0121564D01*
X0345197Y0117831D02*
X0345197Y0117386D01*
X0345199Y0117361D01*
X0345204Y0117336D01*
X0345213Y0117312D01*
X0345225Y0117290D01*
X0345240Y0117269D01*
X0345258Y0117251D01*
X0345279Y0117236D01*
X0345301Y0117224D01*
X0345325Y0117215D01*
X0345350Y0117210D01*
X0345375Y0117208D01*
X0345552Y0117208D01*
X0345822Y0117431D02*
X0345822Y0118008D01*
X0345552Y0118008D02*
X0345375Y0118008D01*
X0345375Y0118009D02*
X0345350Y0118007D01*
X0345325Y0118002D01*
X0345301Y0117993D01*
X0345279Y0117981D01*
X0345258Y0117966D01*
X0345240Y0117948D01*
X0345225Y0117927D01*
X0345213Y0117905D01*
X0345204Y0117881D01*
X0345199Y0117856D01*
X0345197Y0117831D01*
X0345822Y0117431D02*
X0345824Y0117402D01*
X0345830Y0117374D01*
X0345839Y0117346D01*
X0345852Y0117320D01*
X0345868Y0117296D01*
X0345887Y0117274D01*
X0345909Y0117255D01*
X0345933Y0117239D01*
X0345959Y0117226D01*
X0345987Y0117217D01*
X0346015Y0117211D01*
X0346044Y0117209D01*
X0346073Y0117211D01*
X0346101Y0117217D01*
X0346129Y0117226D01*
X0346155Y0117239D01*
X0346179Y0117255D01*
X0346201Y0117274D01*
X0346220Y0117296D01*
X0346236Y0117320D01*
X0346249Y0117346D01*
X0346258Y0117374D01*
X0346264Y0117402D01*
X0346266Y0117431D01*
X0346266Y0118008D01*
X0346518Y0118008D02*
X0346962Y0118008D01*
X0346740Y0118008D02*
X0346740Y0117208D01*
X0347574Y0117431D02*
X0347574Y0117786D01*
X0347576Y0117815D01*
X0347582Y0117843D01*
X0347591Y0117871D01*
X0347604Y0117897D01*
X0347620Y0117921D01*
X0347639Y0117943D01*
X0347661Y0117962D01*
X0347685Y0117978D01*
X0347711Y0117991D01*
X0347739Y0118000D01*
X0347767Y0118006D01*
X0347796Y0118008D01*
X0347825Y0118006D01*
X0347853Y0118000D01*
X0347881Y0117991D01*
X0347907Y0117978D01*
X0347931Y0117962D01*
X0347953Y0117943D01*
X0347972Y0117921D01*
X0347988Y0117897D01*
X0348001Y0117871D01*
X0348010Y0117843D01*
X0348016Y0117815D01*
X0348018Y0117786D01*
X0348018Y0117431D01*
X0348016Y0117402D01*
X0348010Y0117374D01*
X0348001Y0117346D01*
X0347988Y0117320D01*
X0347972Y0117296D01*
X0347953Y0117274D01*
X0347931Y0117255D01*
X0347907Y0117239D01*
X0347881Y0117226D01*
X0347853Y0117217D01*
X0347825Y0117211D01*
X0347796Y0117209D01*
X0347767Y0117211D01*
X0347739Y0117217D01*
X0347711Y0117226D01*
X0347685Y0117239D01*
X0347661Y0117255D01*
X0347639Y0117274D01*
X0347620Y0117296D01*
X0347604Y0117320D01*
X0347591Y0117346D01*
X0347582Y0117374D01*
X0347576Y0117402D01*
X0347574Y0117431D01*
X0348318Y0117431D02*
X0348318Y0118008D01*
X0348762Y0118008D02*
X0348762Y0117431D01*
X0348760Y0117402D01*
X0348754Y0117374D01*
X0348745Y0117346D01*
X0348732Y0117320D01*
X0348716Y0117296D01*
X0348697Y0117274D01*
X0348675Y0117255D01*
X0348651Y0117239D01*
X0348625Y0117226D01*
X0348597Y0117217D01*
X0348569Y0117211D01*
X0348540Y0117209D01*
X0348511Y0117211D01*
X0348483Y0117217D01*
X0348455Y0117226D01*
X0348429Y0117239D01*
X0348405Y0117255D01*
X0348383Y0117274D01*
X0348364Y0117296D01*
X0348348Y0117320D01*
X0348335Y0117346D01*
X0348326Y0117374D01*
X0348320Y0117402D01*
X0348318Y0117431D01*
X0349014Y0118008D02*
X0349458Y0118008D01*
X0349236Y0118008D02*
X0349236Y0117208D01*
X0363697Y0117386D02*
X0363697Y0117831D01*
X0363699Y0117856D01*
X0363704Y0117881D01*
X0363713Y0117905D01*
X0363725Y0117927D01*
X0363740Y0117948D01*
X0363758Y0117966D01*
X0363779Y0117981D01*
X0363801Y0117993D01*
X0363825Y0118002D01*
X0363850Y0118007D01*
X0363875Y0118009D01*
X0363875Y0118008D02*
X0364052Y0118008D01*
X0364322Y0118008D02*
X0364322Y0117431D01*
X0364324Y0117402D01*
X0364330Y0117374D01*
X0364339Y0117346D01*
X0364352Y0117320D01*
X0364368Y0117296D01*
X0364387Y0117274D01*
X0364409Y0117255D01*
X0364433Y0117239D01*
X0364459Y0117226D01*
X0364487Y0117217D01*
X0364515Y0117211D01*
X0364544Y0117209D01*
X0364573Y0117211D01*
X0364601Y0117217D01*
X0364629Y0117226D01*
X0364655Y0117239D01*
X0364679Y0117255D01*
X0364701Y0117274D01*
X0364720Y0117296D01*
X0364736Y0117320D01*
X0364749Y0117346D01*
X0364758Y0117374D01*
X0364764Y0117402D01*
X0364766Y0117431D01*
X0364766Y0118008D01*
X0365018Y0118008D02*
X0365462Y0118008D01*
X0365240Y0118008D02*
X0365240Y0117208D01*
X0366074Y0117431D02*
X0366074Y0117786D01*
X0366076Y0117815D01*
X0366082Y0117843D01*
X0366091Y0117871D01*
X0366104Y0117897D01*
X0366120Y0117921D01*
X0366139Y0117943D01*
X0366161Y0117962D01*
X0366185Y0117978D01*
X0366211Y0117991D01*
X0366239Y0118000D01*
X0366267Y0118006D01*
X0366296Y0118008D01*
X0366325Y0118006D01*
X0366353Y0118000D01*
X0366381Y0117991D01*
X0366407Y0117978D01*
X0366431Y0117962D01*
X0366453Y0117943D01*
X0366472Y0117921D01*
X0366488Y0117897D01*
X0366501Y0117871D01*
X0366510Y0117843D01*
X0366516Y0117815D01*
X0366518Y0117786D01*
X0366518Y0117431D01*
X0366516Y0117402D01*
X0366510Y0117374D01*
X0366501Y0117346D01*
X0366488Y0117320D01*
X0366472Y0117296D01*
X0366453Y0117274D01*
X0366431Y0117255D01*
X0366407Y0117239D01*
X0366381Y0117226D01*
X0366353Y0117217D01*
X0366325Y0117211D01*
X0366296Y0117209D01*
X0366267Y0117211D01*
X0366239Y0117217D01*
X0366211Y0117226D01*
X0366185Y0117239D01*
X0366161Y0117255D01*
X0366139Y0117274D01*
X0366120Y0117296D01*
X0366104Y0117320D01*
X0366091Y0117346D01*
X0366082Y0117374D01*
X0366076Y0117402D01*
X0366074Y0117431D01*
X0366818Y0117431D02*
X0366818Y0118008D01*
X0367262Y0118008D02*
X0367262Y0117431D01*
X0367260Y0117402D01*
X0367254Y0117374D01*
X0367245Y0117346D01*
X0367232Y0117320D01*
X0367216Y0117296D01*
X0367197Y0117274D01*
X0367175Y0117255D01*
X0367151Y0117239D01*
X0367125Y0117226D01*
X0367097Y0117217D01*
X0367069Y0117211D01*
X0367040Y0117209D01*
X0367011Y0117211D01*
X0366983Y0117217D01*
X0366955Y0117226D01*
X0366929Y0117239D01*
X0366905Y0117255D01*
X0366883Y0117274D01*
X0366864Y0117296D01*
X0366848Y0117320D01*
X0366835Y0117346D01*
X0366826Y0117374D01*
X0366820Y0117402D01*
X0366818Y0117431D01*
X0367514Y0118008D02*
X0367958Y0118008D01*
X0367736Y0118008D02*
X0367736Y0117208D01*
X0364052Y0117208D02*
X0363875Y0117208D01*
X0363850Y0117210D01*
X0363825Y0117215D01*
X0363801Y0117224D01*
X0363779Y0117236D01*
X0363758Y0117251D01*
X0363740Y0117269D01*
X0363725Y0117290D01*
X0363713Y0117312D01*
X0363704Y0117336D01*
X0363699Y0117361D01*
X0363697Y0117386D01*
X0285697Y0097208D02*
X0285252Y0097208D01*
X0285475Y0097208D02*
X0285475Y0096408D01*
X0285001Y0096631D02*
X0285001Y0097208D01*
X0284556Y0097208D02*
X0284556Y0096631D01*
X0284557Y0096631D02*
X0284559Y0096602D01*
X0284565Y0096574D01*
X0284574Y0096546D01*
X0284587Y0096520D01*
X0284603Y0096496D01*
X0284622Y0096474D01*
X0284644Y0096455D01*
X0284668Y0096439D01*
X0284694Y0096426D01*
X0284722Y0096417D01*
X0284750Y0096411D01*
X0284779Y0096409D01*
X0284808Y0096411D01*
X0284836Y0096417D01*
X0284864Y0096426D01*
X0284890Y0096439D01*
X0284914Y0096455D01*
X0284936Y0096474D01*
X0284955Y0096496D01*
X0284971Y0096520D01*
X0284984Y0096546D01*
X0284993Y0096574D01*
X0284999Y0096602D01*
X0285001Y0096631D01*
X0284257Y0096631D02*
X0284257Y0096986D01*
X0284255Y0097015D01*
X0284249Y0097043D01*
X0284240Y0097071D01*
X0284227Y0097097D01*
X0284211Y0097121D01*
X0284192Y0097143D01*
X0284170Y0097162D01*
X0284146Y0097178D01*
X0284120Y0097191D01*
X0284092Y0097200D01*
X0284064Y0097206D01*
X0284035Y0097208D01*
X0284006Y0097206D01*
X0283978Y0097200D01*
X0283950Y0097191D01*
X0283924Y0097178D01*
X0283900Y0097162D01*
X0283878Y0097143D01*
X0283859Y0097121D01*
X0283843Y0097097D01*
X0283830Y0097071D01*
X0283821Y0097043D01*
X0283815Y0097015D01*
X0283813Y0096986D01*
X0283812Y0096986D02*
X0283812Y0096631D01*
X0283813Y0096631D02*
X0283815Y0096602D01*
X0283821Y0096574D01*
X0283830Y0096546D01*
X0283843Y0096520D01*
X0283859Y0096496D01*
X0283878Y0096474D01*
X0283900Y0096455D01*
X0283924Y0096439D01*
X0283950Y0096426D01*
X0283978Y0096417D01*
X0284006Y0096411D01*
X0284035Y0096409D01*
X0284064Y0096411D01*
X0284092Y0096417D01*
X0284120Y0096426D01*
X0284146Y0096439D01*
X0284170Y0096455D01*
X0284192Y0096474D01*
X0284211Y0096496D01*
X0284227Y0096520D01*
X0284240Y0096546D01*
X0284249Y0096574D01*
X0284255Y0096602D01*
X0284257Y0096631D01*
X0283201Y0097208D02*
X0282756Y0097208D01*
X0282979Y0097208D02*
X0282979Y0096408D01*
X0282505Y0096631D02*
X0282505Y0097208D01*
X0282060Y0097208D02*
X0282060Y0096631D01*
X0282061Y0096631D02*
X0282063Y0096602D01*
X0282069Y0096574D01*
X0282078Y0096546D01*
X0282091Y0096520D01*
X0282107Y0096496D01*
X0282126Y0096474D01*
X0282148Y0096455D01*
X0282172Y0096439D01*
X0282198Y0096426D01*
X0282226Y0096417D01*
X0282254Y0096411D01*
X0282283Y0096409D01*
X0282312Y0096411D01*
X0282340Y0096417D01*
X0282368Y0096426D01*
X0282394Y0096439D01*
X0282418Y0096455D01*
X0282440Y0096474D01*
X0282459Y0096496D01*
X0282475Y0096520D01*
X0282488Y0096546D01*
X0282497Y0096574D01*
X0282503Y0096602D01*
X0282505Y0096631D01*
X0281791Y0096408D02*
X0281613Y0096408D01*
X0281588Y0096410D01*
X0281563Y0096415D01*
X0281539Y0096424D01*
X0281517Y0096436D01*
X0281496Y0096451D01*
X0281478Y0096469D01*
X0281463Y0096490D01*
X0281451Y0096512D01*
X0281442Y0096536D01*
X0281437Y0096561D01*
X0281435Y0096586D01*
X0281435Y0097031D01*
X0281437Y0097056D01*
X0281442Y0097081D01*
X0281451Y0097105D01*
X0281463Y0097127D01*
X0281478Y0097148D01*
X0281496Y0097166D01*
X0281517Y0097181D01*
X0281539Y0097193D01*
X0281563Y0097202D01*
X0281588Y0097207D01*
X0281613Y0097209D01*
X0281613Y0097208D02*
X0281791Y0097208D01*
D14*
X0299850Y0071208D03*
X0306543Y0071208D03*
X0314850Y0070708D03*
X0321543Y0070708D03*
X0326850Y0137208D03*
X0333543Y0137208D03*
G36*
X0247820Y0142016D02*
X0250736Y0138285D01*
X0246694Y0135126D01*
X0243778Y0138857D01*
X0247820Y0142016D01*
G37*
G36*
X0243700Y0147290D02*
X0246616Y0143559D01*
X0242574Y0140400D01*
X0239658Y0144131D01*
X0243700Y0147290D01*
G37*
X0100293Y0121208D03*
X0093600Y0121208D03*
X0094793Y0112458D03*
X0088100Y0112458D03*
X0087543Y0101958D03*
X0080850Y0101958D03*
X0079043Y0091708D03*
X0072350Y0091708D03*
X0050697Y0076555D03*
X0050697Y0069862D03*
D15*
X0050697Y0084763D03*
X0050697Y0091653D03*
D16*
X0263447Y0121862D03*
X0275197Y0121862D03*
X0275197Y0128555D03*
X0263447Y0128555D03*
G36*
X0265173Y0116824D02*
X0268332Y0112782D01*
X0264601Y0109866D01*
X0261442Y0113908D01*
X0265173Y0116824D01*
G37*
G36*
X0269293Y0111550D02*
X0272452Y0107508D01*
X0268721Y0104592D01*
X0265562Y0108634D01*
X0269293Y0111550D01*
G37*
G36*
X0274673Y0101574D02*
X0277832Y0097532D01*
X0274101Y0094616D01*
X0270942Y0098658D01*
X0274673Y0101574D01*
G37*
G36*
X0278793Y0096300D02*
X0281952Y0092258D01*
X0278221Y0089342D01*
X0275062Y0093384D01*
X0278793Y0096300D01*
G37*
D17*
X0156947Y0055708D03*
X0146947Y0055708D03*
X0136947Y0055708D03*
X0126947Y0055708D03*
X0116947Y0055708D03*
X0106947Y0055708D03*
D18*
X0035397Y0066608D03*
X0035397Y0075708D03*
X0035397Y0084808D03*
D19*
X0010996Y0075708D03*
D20*
X0294260Y0124468D03*
X0302528Y0128208D03*
X0294260Y0131948D03*
X0327510Y0075198D03*
X0335778Y0071458D03*
X0327510Y0067718D03*
D21*
X0346697Y0122448D03*
X0365197Y0122263D03*
X0312197Y0142319D03*
X0275197Y0143578D03*
X0259697Y0143393D03*
D22*
X0309197Y0055319D03*
X0316197Y0055319D03*
D23*
X0328272Y0122708D03*
X0057854Y0051748D03*
X0049354Y0051748D03*
X0040854Y0051748D03*
D24*
G36*
X0348129Y0098491D02*
X0345518Y0103843D01*
X0353065Y0107525D01*
X0355676Y0102173D01*
X0348129Y0098491D01*
G37*
G36*
X0351129Y0092291D02*
X0348518Y0097643D01*
X0356065Y0101325D01*
X0358676Y0095973D01*
X0351129Y0092291D01*
G37*
G36*
X0354129Y0086091D02*
X0351518Y0091443D01*
X0359065Y0095125D01*
X0361676Y0089773D01*
X0354129Y0086091D01*
G37*
G36*
X0357179Y0079841D02*
X0354568Y0085193D01*
X0362115Y0088875D01*
X0364726Y0083523D01*
X0357179Y0079841D01*
G37*
G36*
X0360129Y0073641D02*
X0357518Y0078993D01*
X0365065Y0082675D01*
X0367676Y0077323D01*
X0360129Y0073641D01*
G37*
G36*
X0363279Y0067491D02*
X0360668Y0072843D01*
X0368215Y0076525D01*
X0370826Y0071173D01*
X0363279Y0067491D01*
G37*
G36*
X0366479Y0061491D02*
X0363868Y0066843D01*
X0371415Y0070525D01*
X0374026Y0065173D01*
X0366479Y0061491D01*
G37*
D25*
X0083097Y0134808D03*
X0076597Y0134708D03*
D26*
X0067297Y0134658D03*
X0091497Y0134708D03*
D27*
G36*
X0296063Y0094542D02*
X0291963Y0090442D01*
X0289841Y0092564D01*
X0293941Y0096664D01*
X0296063Y0094542D01*
G37*
G36*
X0298290Y0092315D02*
X0294190Y0088215D01*
X0292068Y0090337D01*
X0296168Y0094437D01*
X0298290Y0092315D01*
G37*
G36*
X0300517Y0090088D02*
X0296417Y0085988D01*
X0294295Y0088110D01*
X0298395Y0092210D01*
X0300517Y0090088D01*
G37*
G36*
X0302744Y0087861D02*
X0298644Y0083761D01*
X0296522Y0085883D01*
X0300622Y0089983D01*
X0302744Y0087861D01*
G37*
G36*
X0304971Y0085634D02*
X0300871Y0081534D01*
X0298749Y0083656D01*
X0302849Y0087756D01*
X0304971Y0085634D01*
G37*
G36*
X0307198Y0083407D02*
X0303098Y0079307D01*
X0300976Y0081429D01*
X0305076Y0085529D01*
X0307198Y0083407D01*
G37*
G36*
X0309426Y0081179D02*
X0305326Y0077079D01*
X0303204Y0079201D01*
X0307304Y0083301D01*
X0309426Y0081179D01*
G37*
G36*
X0311653Y0078952D02*
X0307553Y0074852D01*
X0305431Y0076974D01*
X0309531Y0081074D01*
X0311653Y0078952D01*
G37*
G36*
X0335553Y0102853D02*
X0331453Y0098753D01*
X0329331Y0100875D01*
X0333431Y0104975D01*
X0335553Y0102853D01*
G37*
G36*
X0333326Y0105080D02*
X0329226Y0100980D01*
X0327104Y0103102D01*
X0331204Y0107202D01*
X0333326Y0105080D01*
G37*
G36*
X0331099Y0107307D02*
X0326999Y0103207D01*
X0324877Y0105329D01*
X0328977Y0109429D01*
X0331099Y0107307D01*
G37*
G36*
X0328872Y0109534D02*
X0324772Y0105434D01*
X0322650Y0107556D01*
X0326750Y0111656D01*
X0328872Y0109534D01*
G37*
G36*
X0326644Y0111761D02*
X0322544Y0107661D01*
X0320422Y0109783D01*
X0324522Y0113883D01*
X0326644Y0111761D01*
G37*
G36*
X0324417Y0113988D02*
X0320317Y0109888D01*
X0318195Y0112010D01*
X0322295Y0116110D01*
X0324417Y0113988D01*
G37*
G36*
X0322190Y0116215D02*
X0318090Y0112115D01*
X0315968Y0114237D01*
X0320068Y0118337D01*
X0322190Y0116215D01*
G37*
G36*
X0319963Y0118442D02*
X0315863Y0114342D01*
X0313741Y0116464D01*
X0317841Y0120564D01*
X0319963Y0118442D01*
G37*
D28*
G36*
X0311653Y0116464D02*
X0309531Y0114342D01*
X0305431Y0118442D01*
X0307553Y0120564D01*
X0311653Y0116464D01*
G37*
G36*
X0309426Y0114237D02*
X0307304Y0112115D01*
X0303204Y0116215D01*
X0305326Y0118337D01*
X0309426Y0114237D01*
G37*
G36*
X0307198Y0112010D02*
X0305076Y0109888D01*
X0300976Y0113988D01*
X0303098Y0116110D01*
X0307198Y0112010D01*
G37*
G36*
X0304971Y0109783D02*
X0302849Y0107661D01*
X0298749Y0111761D01*
X0300871Y0113883D01*
X0304971Y0109783D01*
G37*
G36*
X0302744Y0107556D02*
X0300622Y0105434D01*
X0296522Y0109534D01*
X0298644Y0111656D01*
X0302744Y0107556D01*
G37*
G36*
X0300517Y0105329D02*
X0298395Y0103207D01*
X0294295Y0107307D01*
X0296417Y0109429D01*
X0300517Y0105329D01*
G37*
G36*
X0298290Y0103102D02*
X0296168Y0100980D01*
X0292068Y0105080D01*
X0294190Y0107202D01*
X0298290Y0103102D01*
G37*
G36*
X0296063Y0100875D02*
X0293941Y0098753D01*
X0289841Y0102853D01*
X0291963Y0104975D01*
X0296063Y0100875D01*
G37*
G36*
X0328872Y0085883D02*
X0326750Y0083761D01*
X0322650Y0087861D01*
X0324772Y0089983D01*
X0328872Y0085883D01*
G37*
G36*
X0326644Y0083656D02*
X0324522Y0081534D01*
X0320422Y0085634D01*
X0322544Y0087756D01*
X0326644Y0083656D01*
G37*
G36*
X0324417Y0081429D02*
X0322295Y0079307D01*
X0318195Y0083407D01*
X0320317Y0085529D01*
X0324417Y0081429D01*
G37*
G36*
X0322190Y0079201D02*
X0320068Y0077079D01*
X0315968Y0081179D01*
X0318090Y0083301D01*
X0322190Y0079201D01*
G37*
G36*
X0319963Y0076974D02*
X0317841Y0074852D01*
X0313741Y0078952D01*
X0315863Y0081074D01*
X0319963Y0076974D01*
G37*
G36*
X0331099Y0088110D02*
X0328977Y0085988D01*
X0324877Y0090088D01*
X0326999Y0092210D01*
X0331099Y0088110D01*
G37*
G36*
X0333326Y0090337D02*
X0331204Y0088215D01*
X0327104Y0092315D01*
X0329226Y0094437D01*
X0333326Y0090337D01*
G37*
G36*
X0335553Y0092564D02*
X0333431Y0090442D01*
X0329331Y0094542D01*
X0331453Y0096664D01*
X0335553Y0092564D01*
G37*
D29*
G36*
X0291047Y0081457D02*
X0285454Y0077088D01*
X0284235Y0078649D01*
X0289828Y0083018D01*
X0291047Y0081457D01*
G37*
G36*
X0288738Y0084420D02*
X0283145Y0080051D01*
X0281926Y0081612D01*
X0287519Y0085981D01*
X0288738Y0084420D01*
G37*
G36*
X0286441Y0087372D02*
X0280848Y0083003D01*
X0279629Y0084564D01*
X0285222Y0088933D01*
X0286441Y0087372D01*
G37*
D30*
X0313366Y0064208D03*
X0322028Y0064208D03*
X0299528Y0140208D03*
X0290866Y0140208D03*
D31*
X0116197Y0076708D03*
X0112197Y0076708D03*
X0108197Y0076708D03*
D32*
X0047197Y0103708D03*
X0042197Y0103708D03*
X0334197Y0087708D03*
X0340197Y0093708D03*
X0334697Y0110708D03*
M02*
