%
M48
M72
T01C0.01378
T02C0.02000
%
T01
X74447Y42791
X77197Y61708
X240697Y78208
X248947Y75583
X253697Y79208
X260447Y85083
X252272Y85858
X271697Y86208
X273197Y80208
X288197Y105083
X284197Y108833
X276697Y112083
X273197Y115208
X288355Y116241
X293197Y115669
X310697Y122708
X320697Y130958
X347072Y112083
X342447Y106458
X358197Y108208
X360197Y100958
X363197Y95708
X336947Y96958
X325822Y95583
X319447Y93208
X315947Y98083
X319322Y104458
X313947Y110083
X308822Y105708
X303822Y104833
X299572Y100083
X305197Y92458
X315435Y83970
X353447Y78583
X303197Y54650
X283772Y52508
X276326Y60079
X256197Y68708
X198072Y64708
X259447Y98758
X267409Y99671
X255197Y115208
X243197Y115708
X240697Y125208
X230072Y132958
X234347Y142658
X284572Y139958
X258197Y129458
X339572Y137333
X134072Y129169
X118197Y124458
X108197Y124458
X70697Y101208
X60197Y96708
X38447Y112208
X27197Y92208
T02
X57997Y65708
X24447Y73208
X64497Y82208
X91497Y77708
X103197Y77583
X94997Y64708
X106497Y54158
X131597Y60508
X137997Y66708
X251497Y99208
X262497Y103708
X309197Y86908
X332397Y78108
X356397Y74908
X282797Y76508
X318797Y122908
X298797Y120508
X285997Y120508
X218997Y127208
X348397Y134908
X81997Y127708
X71497Y116708
X75697Y105083
X61322Y105083
X31697Y125083
X35997Y135208
X18947Y114333
X8497Y107708
M30
