  0
SECTION
  2
HEADER
  9
$ACADVER
  1
AC1002
  9
$INSBASE
 10
0.0
 20
0.0
  9
$EXTMIN
 10
-42.8182
 20
-11.385
  9
$EXTMAX
 10
46.2378
 20
11.6096
  9
$LIMMIN
 10
0.0
 20
0.0
  9
$LIMMAX
 10
12.0
 20
9.0
  9
$ORTHOMODE
 70
     0
  9
$REGENMODE
 70
     1
  9
$FILLMODE
 70
     1
  9
$QTEXTMODE
 70
     0
  9
$DRAGMODE
 70
     2
  9
$LTSCALE
 40
1.0
  9
$OSMODE
 70
    37
  9
$ATTMODE
 70
     1
  9
$TEXTSIZE
 40
0.2
  9
$TRACEWID
 40
0.05
  9
$TEXTSTYLE
  7
STANDARD
  9
$CLAYER
  8
0
  9
$CELTYPE
  6
BYLAYER
  9
$CECOLOR
 62
   256
  9
$DIMSCALE
 40
1.0
  9
$DIMASZ
 40
0.18
  9
$DIMEXO
 40
0.0625
  9
$DIMDLI
 40
0.38
  9
$DIMRND
 40
0.0
  9
$DIMDLE
 40
0.0
  9
$DIMEXE
 40
0.18
  9
$DIMTP
 40
0.0
  9
$DIMTM
 40
0.0
  9
$DIMTXT
 40
0.18
  9
$DIMCEN
 40
0.09
  9
$DIMTSZ
 40
0.0
  9
$DIMTOL
 70
     0
  9
$DIMLIM
 70
     0
  9
$DIMTIH
 70
     1
  9
$DIMTOH
 70
     1
  9
$DIMSE1
 70
     0
  9
$DIMSE2
 70
     0
  9
$DIMTAD
 70
     0
  9
$DIMZIN
 70
     0
  9
$DIMBLK
  1

  9
$LUNITS
 70
     2
  9
$LUPREC
 70
     4
  9
$SKETCHINC
 40
0.1
  9
$FILLETRAD
 40
0.5
  9
$AUNITS
 70
     0
  9
$AUPREC
 70
     0
  9
$MENU
  1
.
  9
$ELEVATION
 40
0.0
  9
$THICKNESS
 40
0.0
  9
$LIMCHECK
 70
     0
  9
$CHAMFERA
 40
0.0
  9
$CHAMFERB
 40
0.0
  9
$SKPOLY
 70
     0
  9
$TDCREATE
 40
2458047.623496018
  9
$TDUPDATE
 40
2458047.623496134
  9
$TDINDWG
 40
0.0000000116
  9
$TDUSRTIMER
 40
0.0000000116
  9
$USRTIMER
 70
     1
  9
$ANGBASE
 50
0.0
  9
$ANGDIR
 70
     0
  9
$PDMODE
 70
     0
  9
$PDSIZE
 40
0.0
  9
$PLINEWID
 40
0.0
  9
$COORDS
 70
     1
  9
$SURFTAB1
 70
     6
  9
$SURFTAB2
 70
     6
  9
$SURFTYPE
 70
     6
  9
$SURFU
 70
     6
  9
$SURFV
 70
     6
  9
$UCSNAME
  2

  9
$UCSORG
 10
0.0
 20
0.0
 30
0.0
  9
$UCSXDIR
 10
1.0
 20
0.0
 30
0.0
  9
$UCSYDIR
 10
0.0
 20
1.0
 30
0.0
  9
$USERI1
 70
     0
  9
$USERI2
 70
     0
  9
$USERI3
 70
     0
  9
$USERI4
 70
     0
  9
$USERI5
 70
     0
  9
$USERR1
 40
0.0
  9
$USERR2
 40
0.0
  9
$USERR3
 40
0.0
  9
$USERR4
 40
0.0
  9
$USERR5
 40
0.0
  0
ENDSEC
  0
SECTION
  2
TABLES
  0
TABLE
  2
LTYPE
 70
     1
  0
LTYPE
  2
CONTINUOUS
 70
     0
  3
Solid line
 72
    65
 73
     0
 40
0.0
  0
ENDTAB
  0
TABLE
  2
LAYER
 70
     2
  0
LAYER
  2
0
 70
     0
 62
     7
  6
CONTINUOUS
  0
LAYER
  2
CAPA_1
 70
     0
 62
     7
  6
CONTINUOUS
  0
ENDTAB
  0
TABLE
  2
STYLE
 70
     1
  0
STYLE
  2
STANDARD
 70
     0
 40
0.0
 41
1.0
 50
0.0
 71
     0
 42
0.2
  3
txt
  4

  0
ENDTAB
  0
TABLE
  2
VIEW
 70
     0
  0
ENDTAB
  0
ENDSEC
  0
SECTION
  2
BLOCKS
  0
ENDSEC
  0
SECTION
  2
ENTITIES
  0
POLYLINE
  8
CAPA_1
 62
   251
 66
     1
 70
     1
  0
VERTEX
  8
CAPA_1
 62
   251
 10
36.3856
 20
11.4465
  0
VERTEX
  8
CAPA_1
 62
   251
 10
36.474
 20
11.4376
  0
VERTEX
  8
CAPA_1
 62
   251
 10
36.5563
 20
11.412
  0
VERTEX
  8
CAPA_1
 62
   251
 10
36.6308
 20
11.3716
  0
VERTEX
  8
CAPA_1
 62
   251
 10
36.6958
 20
11.318
  0
VERTEX
  8
CAPA_1
 62
   251
 10
36.7494
 20
11.2531
  0
VERTEX
  8
CAPA_1
 62
   251
 10
36.7898
 20
11.1786
  0
VERTEX
  8
CAPA_1
 62
   251
 10
36.8154
 20
11.0962
  0
VERTEX
  8
CAPA_1
 62
   251
 10
36.8243
 20
11.0078
  0
VERTEX
  8
CAPA_1
 62
   251
 10
36.8154
 20
10.9194
  0
VERTEX
  8
CAPA_1
 62
   251
 10
36.7898
 20
10.8371
  0
VERTEX
  8
CAPA_1
 62
   251
 10
36.7494
 20
10.7626
  0
VERTEX
  8
CAPA_1
 62
   251
 10
36.6958
 20
10.6977
  0
VERTEX
  8
CAPA_1
 62
   251
 10
36.6308
 20
10.6441
  0
VERTEX
  8
CAPA_1
 62
   251
 10
36.5563
 20
10.6037
  0
VERTEX
  8
CAPA_1
 62
   251
 10
36.474
 20
10.5781
  0
VERTEX
  8
CAPA_1
 62
   251
 10
36.3856
 20
10.5692
  0
VERTEX
  8
CAPA_1
 62
   251
 10
36.2972
 20
10.5781
  0
VERTEX
  8
CAPA_1
 62
   251
 10
36.2149
 20
10.6037
  0
VERTEX
  8
CAPA_1
 62
   251
 10
36.1404
 20
10.6441
  0
VERTEX
  8
CAPA_1
 62
   251
 10
36.0754
 20
10.6977
  0
VERTEX
  8
CAPA_1
 62
   251
 10
36.0218
 20
10.7626
  0
VERTEX
  8
CAPA_1
 62
   251
 10
35.9814
 20
10.8371
  0
VERTEX
  8
CAPA_1
 62
   251
 10
35.9558
 20
10.9194
  0
VERTEX
  8
CAPA_1
 62
   251
 10
35.9469
 20
11.0078
  0
VERTEX
  8
CAPA_1
 62
   251
 10
35.9558
 20
11.0962
  0
VERTEX
  8
CAPA_1
 62
   251
 10
35.9814
 20
11.1786
  0
VERTEX
  8
CAPA_1
 62
   251
 10
36.0218
 20
11.2531
  0
VERTEX
  8
CAPA_1
 62
   251
 10
36.0754
 20
11.318
  0
VERTEX
  8
CAPA_1
 62
   251
 10
36.1404
 20
11.3716
  0
VERTEX
  8
CAPA_1
 62
   251
 10
36.2149
 20
11.412
  0
VERTEX
  8
CAPA_1
 62
   251
 10
36.2972
 20
11.4376
  0
VERTEX
  8
CAPA_1
 62
   251
 10
36.3856
 20
11.4465
  0
SEQEND
  8
CAPA_1
 62
   251
  0
POLYLINE
  8
CAPA_1
 62
   251
 66
     1
 70
     1
  0
VERTEX
  8
CAPA_1
 62
   251
 10
39.3965
 20
11.3535
  0
VERTEX
  8
CAPA_1
 62
   251
 10
39.4849
 20
11.3446
  0
VERTEX
  8
CAPA_1
 62
   251
 10
39.5672
 20
11.319
  0
VERTEX
  8
CAPA_1
 62
   251
 10
39.6417
 20
11.2786
  0
VERTEX
  8
CAPA_1
 62
   251
 10
39.7067
 20
11.225
  0
VERTEX
  8
CAPA_1
 62
   251
 10
39.7603
 20
11.16
  0
VERTEX
  8
CAPA_1
 62
   251
 10
39.8007
 20
11.0855
  0
VERTEX
  8
CAPA_1
 62
   251
 10
39.8263
 20
11.0032
  0
VERTEX
  8
CAPA_1
 62
   251
 10
39.8352
 20
10.9148
  0
VERTEX
  8
CAPA_1
 62
   251
 10
39.8263
 20
10.8264
  0
VERTEX
  8
CAPA_1
 62
   251
 10
39.8007
 20
10.7441
  0
VERTEX
  8
CAPA_1
 62
   251
 10
39.7603
 20
10.6696
  0
VERTEX
  8
CAPA_1
 62
   251
 10
39.7067
 20
10.6046
  0
VERTEX
  8
CAPA_1
 62
   251
 10
39.6417
 20
10.551
  0
VERTEX
  8
CAPA_1
 62
   251
 10
39.5672
 20
10.5106
  0
VERTEX
  8
CAPA_1
 62
   251
 10
39.4849
 20
10.485
  0
VERTEX
  8
CAPA_1
 62
   251
 10
39.3965
 20
10.4761
  0
VERTEX
  8
CAPA_1
 62
   251
 10
39.3081
 20
10.485
  0
VERTEX
  8
CAPA_1
 62
   251
 10
39.2257
 20
10.5106
  0
VERTEX
  8
CAPA_1
 62
   251
 10
39.1512
 20
10.551
  0
VERTEX
  8
CAPA_1
 62
   251
 10
39.0863
 20
10.6046
  0
VERTEX
  8
CAPA_1
 62
   251
 10
39.0327
 20
10.6696
  0
VERTEX
  8
CAPA_1
 62
   251
 10
38.9923
 20
10.7441
  0
VERTEX
  8
CAPA_1
 62
   251
 10
38.9667
 20
10.8264
  0
VERTEX
  8
CAPA_1
 62
   251
 10
38.9578
 20
10.9148
  0
VERTEX
  8
CAPA_1
 62
   251
 10
38.9667
 20
11.0032
  0
VERTEX
  8
CAPA_1
 62
   251
 10
38.9923
 20
11.0855
  0
VERTEX
  8
CAPA_1
 62
   251
 10
39.0327
 20
11.16
  0
VERTEX
  8
CAPA_1
 62
   251
 10
39.0863
 20
11.225
  0
VERTEX
  8
CAPA_1
 62
   251
 10
39.1512
 20
11.2786
  0
VERTEX
  8
CAPA_1
 62
   251
 10
39.2257
 20
11.319
  0
VERTEX
  8
CAPA_1
 62
   251
 10
39.3081
 20
11.3446
  0
VERTEX
  8
CAPA_1
 62
   251
 10
39.3965
 20
11.3535
  0
SEQEND
  8
CAPA_1
 62
   251
  0
POLYLINE
  8
CAPA_1
 62
   251
 66
     1
 70
     1
  0
VERTEX
  8
CAPA_1
 62
   251
 10
-32.2253
 20
11.1365
  0
VERTEX
  8
CAPA_1
 62
   251
 10
-30.2426
 20
11.1365
  0
VERTEX
  8
CAPA_1
 62
   251
 10
-30.2426
 20
9.1869
  0
VERTEX
  8
CAPA_1
 62
   251
 10
-32.2253
 20
9.1869
  0
VERTEX
  8
CAPA_1
 62
   251
 10
-32.2253
 20
11.1365
  0
SEQEND
  8
CAPA_1
 62
   251
  0
POLYLINE
  8
CAPA_1
 62
   251
 66
     1
 70
     1
  0
VERTEX
  8
CAPA_1
 62
   251
 10
-27.728
 20
11.1365
  0
VERTEX
  8
CAPA_1
 62
   251
 10
-26.6758
 20
11.1365
  0
VERTEX
  8
CAPA_1
 62
   251
 10
-26.6758
 20
9.1869
  0
VERTEX
  8
CAPA_1
 62
   251
 10
-27.728
 20
9.1869
  0
VERTEX
  8
CAPA_1
 62
   251
 10
-27.728
 20
11.1365
  0
SEQEND
  8
CAPA_1
 62
   251
  0
POLYLINE
  8
CAPA_1
 62
   251
 66
     1
 70
     1
  0
VERTEX
  8
CAPA_1
 62
   251
 10
-26.0597
 20
11.1365
  0
VERTEX
  8
CAPA_1
 62
   251
 10
-24.0726
 20
11.1365
  0
VERTEX
  8
CAPA_1
 62
   251
 10
-24.0726
 20
9.1869
  0
VERTEX
  8
CAPA_1
 62
   251
 10
-26.0597
 20
9.1869
  0
VERTEX
  8
CAPA_1
 62
   251
 10
-26.0597
 20
11.1365
  0
SEQEND
  8
CAPA_1
 62
   251
  0
POLYLINE
  8
CAPA_1
 62
   251
 66
     1
 70
     1
  0
VERTEX
  8
CAPA_1
 62
   251
 10
-29.3619
 20
11.1365
  0
VERTEX
  8
CAPA_1
 62
   251
 10
-28.3097
 20
11.1365
  0
VERTEX
  8
CAPA_1
 62
   251
 10
-28.3097
 20
9.1869
  0
VERTEX
  8
CAPA_1
 62
   251
 10
-29.3619
 20
9.1869
  0
VERTEX
  8
CAPA_1
 62
   251
 10
-29.3619
 20
11.1365
  0
SEQEND
  8
CAPA_1
 62
   251
  0
POLYLINE
  8
CAPA_1
 62
   251
 66
     1
 70
     1
  0
VERTEX
  8
CAPA_1
 62
   251
 10
25.9639
 20
-8.7867
  0
VERTEX
  8
CAPA_1
 62
   251
 10
27.3463
 20
-8.7867
  0
VERTEX
  8
CAPA_1
 62
   251
 10
27.3463
 20
-11.3256
  0
VERTEX
  8
CAPA_1
 62
   251
 10
25.9639
 20
-11.3256
  0
VERTEX
  8
CAPA_1
 62
   251
 10
25.9639
 20
-8.7867
  0
SEQEND
  8
CAPA_1
 62
   251
  0
POLYLINE
  8
CAPA_1
 62
   251
 66
     1
 70
     1
  0
VERTEX
  8
CAPA_1
 62
   251
 10
27.8116
 20
-8.7933
  0
VERTEX
  8
CAPA_1
 62
   251
 10
29.194
 20
-8.7933
  0
VERTEX
  8
CAPA_1
 62
   251
 10
29.194
 20
-11.3322
  0
VERTEX
  8
CAPA_1
 62
   251
 10
27.8116
 20
-11.3322
  0
VERTEX
  8
CAPA_1
 62
   251
 10
27.8116
 20
-8.7933
  0
SEQEND
  8
CAPA_1
 62
   251
  0
POLYLINE
  8
CAPA_1
 62
   251
 66
     1
 70
     1
  0
VERTEX
  8
CAPA_1
 62
   251
 10
25.9639
 20
-8.7867
  0
VERTEX
  8
CAPA_1
 62
   251
 10
27.3463
 20
-8.7867
  0
VERTEX
  8
CAPA_1
 62
   251
 10
27.3463
 20
-11.3256
  0
VERTEX
  8
CAPA_1
 62
   251
 10
25.9639
 20
-11.3256
  0
VERTEX
  8
CAPA_1
 62
   251
 10
25.9639
 20
-8.7867
  0
SEQEND
  8
CAPA_1
 62
   251
  0
POLYLINE
  8
CAPA_1
 62
   251
 66
     1
 70
     1
  0
VERTEX
  8
CAPA_1
 62
   251
 10
27.8116
 20
-8.7933
  0
VERTEX
  8
CAPA_1
 62
   251
 10
29.194
 20
-8.7933
  0
VERTEX
  8
CAPA_1
 62
   251
 10
29.194
 20
-11.3322
  0
VERTEX
  8
CAPA_1
 62
   251
 10
27.8116
 20
-11.3322
  0
VERTEX
  8
CAPA_1
 62
   251
 10
27.8116
 20
-8.7933
  0
SEQEND
  8
CAPA_1
 62
   251
  0
POLYLINE
  8
CAPA_1
 62
   251
 66
     1
 70
     1
  0
VERTEX
  8
CAPA_1
 62
   251
 10
29.5759
 20
-8.8037
  0
VERTEX
  8
CAPA_1
 62
   251
 10
30.9583
 20
-8.8037
  0
VERTEX
  8
CAPA_1
 62
   251
 10
30.9583
 20
-11.3426
  0
VERTEX
  8
CAPA_1
 62
   251
 10
29.5759
 20
-11.3426
  0
VERTEX
  8
CAPA_1
 62
   251
 10
29.5759
 20
-8.8037
  0
SEQEND
  8
CAPA_1
 62
   251
  0
POLYLINE
  8
CAPA_1
 62
   251
 66
     1
 70
     1
  0
VERTEX
  8
CAPA_1
 62
   251
 10
31.3448
 20
-8.8008
  0
VERTEX
  8
CAPA_1
 62
   251
 10
32.7272
 20
-8.8008
  0
VERTEX
  8
CAPA_1
 62
   251
 10
32.7272
 20
-11.3397
  0
VERTEX
  8
CAPA_1
 62
   251
 10
31.3448
 20
-11.3397
  0
VERTEX
  8
CAPA_1
 62
   251
 10
31.3448
 20
-8.8008
  0
SEQEND
  8
CAPA_1
 62
   251
  0
POLYLINE
  8
CAPA_1
 62
   251
 66
     1
 70
     1
  0
VERTEX
  8
CAPA_1
 62
   251
 10
45.6085
 20
-6.5059
  0
VERTEX
  8
CAPA_1
 62
   251
 10
46.1811
 20
-7.6799
  0
VERTEX
  8
CAPA_1
 62
   251
 10
45.0071
 20
-8.2525
  0
VERTEX
  8
CAPA_1
 62
   251
 10
44.4345
 20
-7.0785
  0
VERTEX
  8
CAPA_1
 62
   251
 10
45.6085
 20
-6.5059
  0
SEQEND
  8
CAPA_1
 62
   251
  0
POLYLINE
  8
CAPA_1
 62
   251
 66
     1
 70
     1
  0
VERTEX
  8
CAPA_1
 62
   251
 10
41.7285
 20
1.3456
  0
VERTEX
  8
CAPA_1
 62
   251
 10
42.3011
 20
0.1715
  0
VERTEX
  8
CAPA_1
 62
   251
 10
41.127
 20
-0.4011
  0
VERTEX
  8
CAPA_1
 62
   251
 10
40.5544
 20
0.7729
  0
VERTEX
  8
CAPA_1
 62
   251
 10
41.7285
 20
1.3456
  0
SEQEND
  8
CAPA_1
 62
   251
  0
POLYLINE
  8
CAPA_1
 62
   251
 66
     1
 70
     1
  0
VERTEX
  8
CAPA_1
 62
   251
 10
40.9607
 20
2.9197
  0
VERTEX
  8
CAPA_1
 62
   251
 10
41.5333
 20
1.7457
  0
VERTEX
  8
CAPA_1
 62
   251
 10
40.3593
 20
1.173
  0
VERTEX
  8
CAPA_1
 62
   251
 10
39.7867
 20
2.3471
  0
VERTEX
  8
CAPA_1
 62
   251
 10
40.9607
 20
2.9197
  0
SEQEND
  8
CAPA_1
 62
   251
  0
POLYLINE
  8
CAPA_1
 62
   251
 66
     1
 70
     1
  0
VERTEX
  8
CAPA_1
 62
   251
 10
42.4962
 20
-0.2285
  0
VERTEX
  8
CAPA_1
 62
   251
 10
43.0688
 20
-1.4025
  0
VERTEX
  8
CAPA_1
 62
   251
 10
41.8948
 20
-1.9751
  0
VERTEX
  8
CAPA_1
 62
   251
 10
41.3222
 20
-0.8011
  0
VERTEX
  8
CAPA_1
 62
   251
 10
42.4962
 20
-0.2285
  0
SEQEND
  8
CAPA_1
 62
   251
  0
POLYLINE
  8
CAPA_1
 62
   251
 66
     1
 70
     1
  0
VERTEX
  8
CAPA_1
 62
   251
 10
43.264
 20
-1.8025
  0
VERTEX
  8
CAPA_1
 62
   251
 10
43.8366
 20
-2.9766
  0
VERTEX
  8
CAPA_1
 62
   251
 10
42.6625
 20
-3.5492
  0
VERTEX
  8
CAPA_1
 62
   251
 10
42.0899
 20
-2.3752
  0
VERTEX
  8
CAPA_1
 62
   251
 10
43.264
 20
-1.8025
  0
SEQEND
  8
CAPA_1
 62
   251
  0
POLYLINE
  8
CAPA_1
 62
   251
 66
     1
 70
     1
  0
VERTEX
  8
CAPA_1
 62
   251
 10
44.0316
 20
-3.3765
  0
VERTEX
  8
CAPA_1
 62
   251
 10
44.6042
 20
-4.5506
  0
VERTEX
  8
CAPA_1
 62
   251
 10
43.4302
 20
-5.1232
  0
VERTEX
  8
CAPA_1
 62
   251
 10
42.8576
 20
-3.9491
  0
VERTEX
  8
CAPA_1
 62
   251
 10
44.0316
 20
-3.3765
  0
SEQEND
  8
CAPA_1
 62
   251
  0
POLYLINE
  8
CAPA_1
 62
   251
 66
     1
 70
     1
  0
VERTEX
  8
CAPA_1
 62
   251
 10
44.7994
 20
-4.9507
  0
VERTEX
  8
CAPA_1
 62
   251
 10
45.372
 20
-6.1247
  0
VERTEX
  8
CAPA_1
 62
   251
 10
44.1979
 20
-6.6973
  0
VERTEX
  8
CAPA_1
 62
   251
 10
43.6253
 20
-5.5233
  0
VERTEX
  8
CAPA_1
 62
   251
 10
44.7994
 20
-4.9507
  0
SEQEND
  8
CAPA_1
 62
   251
  0
POLYLINE
  8
CAPA_1
 62
   251
 66
     1
 70
     1
  0
VERTEX
  8
CAPA_1
 62
   251
 10
44.7994
 20
-4.9507
  0
VERTEX
  8
CAPA_1
 62
   251
 10
45.372
 20
-6.1247
  0
VERTEX
  8
CAPA_1
 62
   251
 10
44.1979
 20
-6.6973
  0
VERTEX
  8
CAPA_1
 62
   251
 10
43.6253
 20
-5.5233
  0
VERTEX
  8
CAPA_1
 62
   251
 10
44.7994
 20
-4.9507
  0
SEQEND
  8
CAPA_1
 62
   251
  0
POLYLINE
  8
CAPA_1
 62
   251
 66
     1
 70
     1
  0
VERTEX
  8
CAPA_1
 62
   251
 10
41.7285
 20
1.3456
  0
VERTEX
  8
CAPA_1
 62
   251
 10
42.3011
 20
0.1715
  0
VERTEX
  8
CAPA_1
 62
   251
 10
41.127
 20
-0.4011
  0
VERTEX
  8
CAPA_1
 62
   251
 10
40.5544
 20
0.7729
  0
VERTEX
  8
CAPA_1
 62
   251
 10
41.7285
 20
1.3456
  0
SEQEND
  8
CAPA_1
 62
   251
  0
POLYLINE
  8
CAPA_1
 62
   251
 66
     1
 70
     1
  0
VERTEX
  8
CAPA_1
 62
   251
 10
40.9607
 20
2.9197
  0
VERTEX
  8
CAPA_1
 62
   251
 10
41.5333
 20
1.7457
  0
VERTEX
  8
CAPA_1
 62
   251
 10
40.3593
 20
1.173
  0
VERTEX
  8
CAPA_1
 62
   251
 10
39.7867
 20
2.3471
  0
VERTEX
  8
CAPA_1
 62
   251
 10
40.9607
 20
2.9197
  0
SEQEND
  8
CAPA_1
 62
   251
  0
POLYLINE
  8
CAPA_1
 62
   251
 66
     1
 70
     1
  0
VERTEX
  8
CAPA_1
 62
   251
 10
42.4962
 20
-0.2285
  0
VERTEX
  8
CAPA_1
 62
   251
 10
43.0688
 20
-1.4025
  0
VERTEX
  8
CAPA_1
 62
   251
 10
41.8948
 20
-1.9751
  0
VERTEX
  8
CAPA_1
 62
   251
 10
41.3222
 20
-0.8011
  0
VERTEX
  8
CAPA_1
 62
   251
 10
42.4962
 20
-0.2285
  0
SEQEND
  8
CAPA_1
 62
   251
  0
POLYLINE
  8
CAPA_1
 62
   251
 66
     1
 70
     1
  0
VERTEX
  8
CAPA_1
 62
   251
 10
43.264
 20
-1.8025
  0
VERTEX
  8
CAPA_1
 62
   251
 10
43.8366
 20
-2.9766
  0
VERTEX
  8
CAPA_1
 62
   251
 10
42.6625
 20
-3.5492
  0
VERTEX
  8
CAPA_1
 62
   251
 10
42.0899
 20
-2.3752
  0
VERTEX
  8
CAPA_1
 62
   251
 10
43.264
 20
-1.8025
  0
SEQEND
  8
CAPA_1
 62
   251
  0
POLYLINE
  8
CAPA_1
 62
   251
 66
     1
 70
     1
  0
VERTEX
  8
CAPA_1
 62
   251
 10
44.0316
 20
-3.3765
  0
VERTEX
  8
CAPA_1
 62
   251
 10
44.6042
 20
-4.5506
  0
VERTEX
  8
CAPA_1
 62
   251
 10
43.4302
 20
-5.1232
  0
VERTEX
  8
CAPA_1
 62
   251
 10
42.8576
 20
-3.9491
  0
VERTEX
  8
CAPA_1
 62
   251
 10
44.0316
 20
-3.3765
  0
SEQEND
  8
CAPA_1
 62
   251
  0
POLYLINE
  8
CAPA_1
 62
   251
 66
     1
 70
     1
  0
VERTEX
  8
CAPA_1
 62
   251
 10
45.6085
 20
-6.5059
  0
VERTEX
  8
CAPA_1
 62
   251
 10
46.1811
 20
-7.6799
  0
VERTEX
  8
CAPA_1
 62
   251
 10
45.0071
 20
-8.2525
  0
VERTEX
  8
CAPA_1
 62
   251
 10
44.4345
 20
-7.0785
  0
VERTEX
  8
CAPA_1
 62
   251
 10
45.6085
 20
-6.5059
  0
SEQEND
  8
CAPA_1
 62
   251
  0
POLYLINE
  8
CAPA_1
 66
     1
 70
     1
  0
VERTEX
  8
CAPA_1
 10
18.8575
 20
3.5623
  0
VERTEX
  8
CAPA_1
 10
19.7402
 20
4.2036
  0
VERTEX
  8
CAPA_1
 10
20.8479
 20
2.679
  0
VERTEX
  8
CAPA_1
 10
19.9652
 20
2.0376
  0
VERTEX
  8
CAPA_1
 10
18.8575
 20
3.5623
  0
SEQEND
  8
CAPA_1
  0
POLYLINE
  8
CAPA_1
 66
     1
 70
     1
  0
VERTEX
  8
CAPA_1
 10
20.1469
 20
4.5708
  0
VERTEX
  8
CAPA_1
 10
21.0296
 20
5.2122
  0
VERTEX
  8
CAPA_1
 10
22.1373
 20
3.6875
  0
VERTEX
  8
CAPA_1
 10
21.2546
 20
3.0462
  0
VERTEX
  8
CAPA_1
 10
20.1469
 20
4.5708
  0
SEQEND
  8
CAPA_1
  0
POLYLINE
  8
CAPA_1
 66
     1
 70
     1
  0
VERTEX
  8
CAPA_1
 10
21.4198
 20
5.5792
  0
VERTEX
  8
CAPA_1
 10
22.3026
 20
6.2206
  0
VERTEX
  8
CAPA_1
 10
23.4103
 20
4.6959
  0
VERTEX
  8
CAPA_1
 10
22.5276
 20
4.0546
  0
VERTEX
  8
CAPA_1
 10
21.4198
 20
5.5792
  0
SEQEND
  8
CAPA_1
  0
POLYLINE
  8
CAPA_1
 66
     1
 70
     1
  0
VERTEX
  8
CAPA_1
 10
22.7094
 20
6.5547
  0
VERTEX
  8
CAPA_1
 10
23.5921
 20
7.196
  0
VERTEX
  8
CAPA_1
 10
24.6998
 20
5.6713
  0
VERTEX
  8
CAPA_1
 10
23.8171
 20
5.03
  0
VERTEX
  8
CAPA_1
 10
22.7094
 20
6.5547
  0
SEQEND
  8
CAPA_1
  0
POLYLINE
  8
CAPA_1
 66
     1
 70
     1
  0
VERTEX
  8
CAPA_1
 10
23.9823
 20
7.4473
  0
VERTEX
  8
CAPA_1
 10
24.8651
 20
8.0886
  0
VERTEX
  8
CAPA_1
 10
25.9728
 20
6.564
  0
VERTEX
  8
CAPA_1
 10
25.0901
 20
5.9227
  0
VERTEX
  8
CAPA_1
 10
23.9823
 20
7.4473
  0
SEQEND
  8
CAPA_1
  0
POLYLINE
  8
CAPA_1
 66
     1
 70
     1
  0
VERTEX
  8
CAPA_1
 10
25.2719
 20
8.3897
  0
VERTEX
  8
CAPA_1
 10
26.1546
 20
9.031
  0
VERTEX
  8
CAPA_1
 10
27.2623
 20
7.5063
  0
VERTEX
  8
CAPA_1
 10
26.3796
 20
6.865
  0
VERTEX
  8
CAPA_1
 10
25.2719
 20
8.3897
  0
SEQEND
  8
CAPA_1
  0
POLYLINE
  8
CAPA_1
 66
     1
 70
     1
  0
VERTEX
  8
CAPA_1
 10
26.5613
 20
9.3467
  0
VERTEX
  8
CAPA_1
 10
27.444
 20
9.988
  0
VERTEX
  8
CAPA_1
 10
28.5518
 20
8.4634
  0
VERTEX
  8
CAPA_1
 10
27.669
 20
7.822
  0
VERTEX
  8
CAPA_1
 10
26.5613
 20
9.3467
  0
SEQEND
  8
CAPA_1
  0
POLYLINE
  8
CAPA_1
 66
     1
 70
     1
  0
VERTEX
  8
CAPA_1
 10
27.7682
 20
10.3405
  0
VERTEX
  8
CAPA_1
 10
28.6509
 20
10.9818
  0
VERTEX
  8
CAPA_1
 10
29.7586
 20
9.4572
  0
VERTEX
  8
CAPA_1
 10
28.8759
 20
8.8159
  0
VERTEX
  8
CAPA_1
 10
27.7682
 20
10.3405
  0
SEQEND
  8
CAPA_1
  0
POLYLINE
  8
CAPA_1
 66
     1
 70
     1
  0
VERTEX
  8
CAPA_1
 10
-42.7758
 20
11.5472
  0
VERTEX
  8
CAPA_1
 10
-40.6591
 20
11.5472
  0
VERTEX
  8
CAPA_1
 10
-40.6591
 20
9.2718
  0
VERTEX
  8
CAPA_1
 10
-42.7758
 20
9.2718
  0
VERTEX
  8
CAPA_1
 10
-42.7758
 20
11.5472
  0
SEQEND
  8
CAPA_1
  0
POLYLINE
  8
CAPA_1
 66
     1
 70
     1
  0
VERTEX
  8
CAPA_1
 10
-39.9845
 20
9.2553
  0
VERTEX
  8
CAPA_1
 10
-36.2275
 20
9.2553
  0
VERTEX
  8
CAPA_1
 10
-36.2275
 20
11.5671
  0
VERTEX
  8
CAPA_1
 10
-39.9845
 20
11.5671
  0
VERTEX
  8
CAPA_1
 10
-39.9845
 20
9.2553
  0
SEQEND
  8
CAPA_1
  0
POLYLINE
  8
CAPA_1
 66
     1
 70
     1
  0
VERTEX
  8
CAPA_1
 10
-36.7729
 20
2.7299
  0
VERTEX
  8
CAPA_1
 10
-29.2059
 20
2.7299
  0
VERTEX
  8
CAPA_1
 10
-29.2059
 20
7.7041
  0
VERTEX
  8
CAPA_1
 10
-36.7729
 20
7.7041
  0
VERTEX
  8
CAPA_1
 10
-36.7729
 20
2.7299
  0
SEQEND
  8
CAPA_1
  0
POLYLINE
  8
CAPA_1
 66
     1
 70
     1
  0
VERTEX
  8
CAPA_1
 10
-21.6229
 20
9.1519
  0
VERTEX
  8
CAPA_1
 10
-17.8659
 20
9.1519
  0
VERTEX
  8
CAPA_1
 10
-17.8659
 20
11.3215
  0
VERTEX
  8
CAPA_1
 10
-21.6229
 20
11.3215
  0
VERTEX
  8
CAPA_1
 10
-21.6229
 20
9.1519
  0
SEQEND
  8
CAPA_1
  0
ENDSEC
  0
EOF
