  0
SECTION
  2
HEADER
  9
$ACADVER
  1
AC1002
  9
$INSBASE
 10
0.0
 20
0.0
  9
$EXTMIN
 10
-47.9842
 20
-14.2376
  9
$EXTMAX
 10
47.9841
 20
13.7087
  9
$LIMMIN
 10
0.0
 20
0.0
  9
$LIMMAX
 10
12.0
 20
9.0
  9
$ORTHOMODE
 70
     0
  9
$REGENMODE
 70
     1
  9
$FILLMODE
 70
     1
  9
$QTEXTMODE
 70
     0
  9
$DRAGMODE
 70
     2
  9
$LTSCALE
 40
1.0
  9
$OSMODE
 70
    37
  9
$ATTMODE
 70
     1
  9
$TEXTSIZE
 40
0.2
  9
$TRACEWID
 40
0.05
  9
$TEXTSTYLE
  7
STANDARD
  9
$CLAYER
  8
0
  9
$CELTYPE
  6
BYLAYER
  9
$CECOLOR
 62
   256
  9
$DIMSCALE
 40
1.0
  9
$DIMASZ
 40
0.18
  9
$DIMEXO
 40
0.0625
  9
$DIMDLI
 40
0.38
  9
$DIMRND
 40
0.0
  9
$DIMDLE
 40
0.0
  9
$DIMEXE
 40
0.18
  9
$DIMTP
 40
0.0
  9
$DIMTM
 40
0.0
  9
$DIMTXT
 40
0.18
  9
$DIMCEN
 40
0.09
  9
$DIMTSZ
 40
0.0
  9
$DIMTOL
 70
     0
  9
$DIMLIM
 70
     0
  9
$DIMTIH
 70
     1
  9
$DIMTOH
 70
     1
  9
$DIMSE1
 70
     0
  9
$DIMSE2
 70
     0
  9
$DIMTAD
 70
     0
  9
$DIMZIN
 70
     0
  9
$DIMBLK
  1

  9
$LUNITS
 70
     2
  9
$LUPREC
 70
     4
  9
$SKETCHINC
 40
0.1
  9
$FILLETRAD
 40
0.5
  9
$AUNITS
 70
     0
  9
$AUPREC
 70
     0
  9
$MENU
  1
.
  9
$ELEVATION
 40
0.0
  9
$THICKNESS
 40
0.0
  9
$LIMCHECK
 70
     0
  9
$CHAMFERA
 40
0.0
  9
$CHAMFERB
 40
0.0
  9
$SKPOLY
 70
     0
  9
$TDCREATE
 40
2458080.718926007
  9
$TDUPDATE
 40
2458080.718926447
  9
$TDINDWG
 40
0.0000000116
  9
$TDUSRTIMER
 40
0.0000000116
  9
$USRTIMER
 70
     1
  9
$ANGBASE
 50
0.0
  9
$ANGDIR
 70
     0
  9
$PDMODE
 70
     0
  9
$PDSIZE
 40
0.0
  9
$PLINEWID
 40
0.0
  9
$COORDS
 70
     1
  9
$SURFTAB1
 70
     6
  9
$SURFTAB2
 70
     6
  9
$SURFTYPE
 70
     6
  9
$SURFU
 70
     6
  9
$SURFV
 70
     6
  9
$UCSNAME
  2

  9
$UCSORG
 10
0.0
 20
0.0
 30
0.0
  9
$UCSXDIR
 10
1.0
 20
0.0
 30
0.0
  9
$UCSYDIR
 10
0.0
 20
1.0
 30
0.0
  9
$USERI1
 70
     0
  9
$USERI2
 70
     0
  9
$USERI3
 70
     0
  9
$USERI4
 70
     0
  9
$USERI5
 70
     0
  9
$USERR1
 40
0.0
  9
$USERR2
 40
0.0
  9
$USERR3
 40
0.0
  9
$USERR4
 40
0.0
  9
$USERR5
 40
0.0
  0
ENDSEC
  0
SECTION
  2
TABLES
  0
TABLE
  2
LTYPE
 70
     1
  0
LTYPE
  2
CONTINUOUS
 70
     0
  3
Solid line
 72
    65
 73
     0
 40
0.0
  0
ENDTAB
  0
TABLE
  2
LAYER
 70
     2
  0
LAYER
  2
0
 70
     0
 62
     7
  6
CONTINUOUS
  0
LAYER
  2
CAPA_1
 70
     0
 62
     7
  6
CONTINUOUS
  0
ENDTAB
  0
TABLE
  2
STYLE
 70
     1
  0
STYLE
  2
STANDARD
 70
     0
 40
0.0
 41
1.0
 50
0.0
 71
     0
 42
0.2
  3
txt
  4

  0
ENDTAB
  0
TABLE
  2
VIEW
 70
     0
  0
ENDTAB
  0
ENDSEC
  0
SECTION
  2
BLOCKS
  0
ENDSEC
  0
SECTION
  2
ENTITIES
  0
POLYLINE
  8
CAPA_1
 62
   251
 66
     1
 70
     1
  0
VERTEX
  8
CAPA_1
 62
   251
 10
43.7546
 20
7.9161
  0
VERTEX
  8
CAPA_1
 62
   251
 10
43.8245
 20
7.9175
  0
VERTEX
  8
CAPA_1
 62
   251
 10
47.9417
 20
7.9147
  0
VERTEX
  8
CAPA_1
 62
   251
 10
47.9417
 20
-8.5569
  0
VERTEX
  8
CAPA_1
 62
   251
 10
36.4625
 20
-8.5569
  0
VERTEX
  8
CAPA_1
 62
   251
 10
36.211
 20
-8.5996
  0
VERTEX
  8
CAPA_1
 62
   251
 10
35.8911
 20
-8.7231
  0
VERTEX
  8
CAPA_1
 62
   251
 10
35.5342
 20
-8.9211
  0
VERTEX
  8
CAPA_1
 62
   251
 10
35.1718
 20
-9.1869
  0
VERTEX
  8
CAPA_1
 62
   251
 10
34.8352
 20
-9.514
  0
VERTEX
  8
CAPA_1
 62
   251
 10
34.5559
 20
-9.8958
  0
VERTEX
  8
CAPA_1
 62
   251
 10
34.3653
 20
-10.3258
  0
VERTEX
  8
CAPA_1
 62
   251
 10
34.2947
 20
-10.7974
  0
VERTEX
  8
CAPA_1
 62
   251
 10
34.2947
 20
-11.7863
  0
VERTEX
  8
CAPA_1
 62
   251
 10
20.5259
 20
-11.7863
  0
VERTEX
  8
CAPA_1
 62
   251
 10
20.5259
 20
-14.1952
  0
VERTEX
  8
CAPA_1
 62
   251
 10
-43.7754
 20
-14.1952
  0
VERTEX
  8
CAPA_1
 62
   251
 10
-43.7754
 20
-10.5907
  0
VERTEX
  8
CAPA_1
 62
   251
 10
-43.8339
 20
-10.2972
  0
VERTEX
  8
CAPA_1
 62
   251
 10
-43.9983
 20
-9.9701
  0
VERTEX
  8
CAPA_1
 62
   251
 10
-44.2521
 20
-9.6317
  0
VERTEX
  8
CAPA_1
 62
   251
 10
-44.5789
 20
-9.3046
  0
VERTEX
  8
CAPA_1
 62
   251
 10
-44.962
 20
-9.0111
  0
VERTEX
  8
CAPA_1
 62
   251
 10
-45.3849
 20
-8.7737
  0
VERTEX
  8
CAPA_1
 62
   251
 10
-45.8312
 20
-8.6148
  0
VERTEX
  8
CAPA_1
 62
   251
 10
-46.2843
 20
-8.5569
  0
VERTEX
  8
CAPA_1
 62
   251
 10
-47.9418
 20
-8.5569
  0
VERTEX
  8
CAPA_1
 62
   251
 10
-47.9418
 20
-0.3756
  0
VERTEX
  8
CAPA_1
 62
   251
 10
-45.3539
 20
-0.3556
  0
VERTEX
  8
CAPA_1
 62
   251
 10
-45.1274
 20
-0.2333
  0
VERTEX
  8
CAPA_1
 62
   251
 10
-44.966
 20
-0.0416
  0
VERTEX
  8
CAPA_1
 62
   251
 10
-44.8696
 20
0.1962
  0
VERTEX
  8
CAPA_1
 62
   251
 10
-44.838
 20
0.4567
  0
VERTEX
  8
CAPA_1
 62
   251
 10
-44.8708
 20
0.7166
  0
VERTEX
  8
CAPA_1
 62
   251
 10
-44.9679
 20
0.9525
  0
VERTEX
  8
CAPA_1
 62
   251
 10
-45.129
 20
1.141
  0
VERTEX
  8
CAPA_1
 62
   251
 10
-45.3539
 20
1.2589
  0
VERTEX
  8
CAPA_1
 62
   251
 10
-47.9418
 20
1.2627
  0
VERTEX
  8
CAPA_1
 62
   251
 10
-47.9418
 20
5.09
  0
VERTEX
  8
CAPA_1
 62
   251
 10
-45.3539
 20
5.09
  0
VERTEX
  8
CAPA_1
 62
   251
 10
-44.8046
 20
5.1629
  0
VERTEX
  8
CAPA_1
 62
   251
 10
-44.3386
 20
5.3653
  0
VERTEX
  8
CAPA_1
 62
   251
 10
-43.9528
 20
5.6724
  0
VERTEX
  8
CAPA_1
 62
   251
 10
-43.6441
 20
6.0596
  0
VERTEX
  8
CAPA_1
 62
   251
 10
-43.4094
 20
6.502
  0
VERTEX
  8
CAPA_1
 62
   251
 10
-43.2456
 20
6.9752
  0
VERTEX
  8
CAPA_1
 62
   251
 10
-43.1495
 20
7.4543
  0
VERTEX
  8
CAPA_1
 62
   251
 10
-43.1182
 20
7.9147
  0
VERTEX
  8
CAPA_1
 62
   251
 10
-43.1182
 20
12.8772
  0
VERTEX
  8
CAPA_1
 62
   251
 10
-32.8384
 20
12.8772
  0
VERTEX
  8
CAPA_1
 62
   251
 10
-32.8384
 20
11.7473
  0
VERTEX
  8
CAPA_1
 62
   251
 10
-16.7308
 20
11.9127
  0
VERTEX
  8
CAPA_1
 62
   251
 10
-16.6645
 20
13.6663
  0
VERTEX
  8
CAPA_1
 62
   251
 10
23.7652
 20
13.6663
  0
VERTEX
  8
CAPA_1
 62
   251
 10
24.576
 20
12.8772
  0
VERTEX
  8
CAPA_1
 62
   251
 10
41.6056
 20
12.8772
  0
VERTEX
  8
CAPA_1
 62
   251
 10
41.6116
 20
10.0125
  0
VERTEX
  8
CAPA_1
 62
   251
 10
41.6704
 20
9.7043
  0
VERTEX
  8
CAPA_1
 62
   251
 10
41.8137
 20
9.3643
  0
VERTEX
  8
CAPA_1
 62
   251
 10
42.0291
 20
9.0151
  0
VERTEX
  8
CAPA_1
 62
   251
 10
42.3042
 20
8.679
  0
VERTEX
  8
CAPA_1
 62
   251
 10
42.6267
 20
8.3785
  0
VERTEX
  8
CAPA_1
 62
   251
 10
42.9842
 20
8.1363
  0
VERTEX
  8
CAPA_1
 62
   251
 10
43.3643
 20
7.9746
  0
VERTEX
  8
CAPA_1
 62
   251
 10
43.7546
 20
7.9161
  0
SEQEND
  8
CAPA_1
 62
   251
  0
POLYLINE
  8
CAPA_1
 62
   251
 66
     1
 70
     1
  0
VERTEX
  8
CAPA_1
 62
   251
 10
23.7814
 20
1.3488
  0
VERTEX
  8
CAPA_1
 62
   251
 10
23.9426
 20
1.3325
  0
VERTEX
  8
CAPA_1
 62
   251
 10
24.0928
 20
1.2859
  0
VERTEX
  8
CAPA_1
 62
   251
 10
24.2287
 20
1.2122
  0
VERTEX
  8
CAPA_1
 62
   251
 10
24.3471
 20
1.1145
  0
VERTEX
  8
CAPA_1
 62
   251
 10
24.4448
 20
0.9961
  0
VERTEX
  8
CAPA_1
 62
   251
 10
24.5185
 20
0.8602
  0
VERTEX
  8
CAPA_1
 62
   251
 10
24.5651
 20
0.71
  0
VERTEX
  8
CAPA_1
 62
   251
 10
24.5814
 20
0.5488
  0
VERTEX
  8
CAPA_1
 62
   251
 10
24.5651
 20
0.3876
  0
VERTEX
  8
CAPA_1
 62
   251
 10
24.5185
 20
0.2374
  0
VERTEX
  8
CAPA_1
 62
   251
 10
24.4448
 20
0.1015
  0
VERTEX
  8
CAPA_1
 62
   251
 10
24.3471
 20
-0.0169
  0
VERTEX
  8
CAPA_1
 62
   251
 10
24.2287
 20
-0.1146
  0
VERTEX
  8
CAPA_1
 62
   251
 10
24.0928
 20
-0.1883
  0
VERTEX
  8
CAPA_1
 62
   251
 10
23.9426
 20
-0.2349
  0
VERTEX
  8
CAPA_1
 62
   251
 10
23.7814
 20
-0.2512
  0
VERTEX
  8
CAPA_1
 62
   251
 10
23.6202
 20
-0.2349
  0
VERTEX
  8
CAPA_1
 62
   251
 10
23.47
 20
-0.1883
  0
VERTEX
  8
CAPA_1
 62
   251
 10
23.3341
 20
-0.1146
  0
VERTEX
  8
CAPA_1
 62
   251
 10
23.2157
 20
-0.0169
  0
VERTEX
  8
CAPA_1
 62
   251
 10
23.118
 20
0.1015
  0
VERTEX
  8
CAPA_1
 62
   251
 10
23.0443
 20
0.2374
  0
VERTEX
  8
CAPA_1
 62
   251
 10
22.9977
 20
0.3876
  0
VERTEX
  8
CAPA_1
 62
   251
 10
22.9814
 20
0.5488
  0
VERTEX
  8
CAPA_1
 62
   251
 10
22.9977
 20
0.71
  0
VERTEX
  8
CAPA_1
 62
   251
 10
23.0443
 20
0.8602
  0
VERTEX
  8
CAPA_1
 62
   251
 10
23.118
 20
0.9961
  0
VERTEX
  8
CAPA_1
 62
   251
 10
23.2157
 20
1.1145
  0
VERTEX
  8
CAPA_1
 62
   251
 10
23.3341
 20
1.2122
  0
VERTEX
  8
CAPA_1
 62
   251
 10
23.47
 20
1.2859
  0
VERTEX
  8
CAPA_1
 62
   251
 10
23.6202
 20
1.3325
  0
VERTEX
  8
CAPA_1
 62
   251
 10
23.7814
 20
1.3488
  0
SEQEND
  8
CAPA_1
 62
   251
  0
POLYLINE
  8
CAPA_1
 62
   251
 66
     1
 70
     1
  0
VERTEX
  8
CAPA_1
 62
   251
 10
35.8183
 20
6.5721
  0
VERTEX
  8
CAPA_1
 62
   251
 10
35.8183
 20
7.8616
  0
VERTEX
  8
CAPA_1
 62
   251
 10
35.8251
 20
7.9284
  0
VERTEX
  8
CAPA_1
 62
   251
 10
35.8445
 20
7.9906
  0
VERTEX
  8
CAPA_1
 62
   251
 10
35.8752
 20
8.0471
  0
VERTEX
  8
CAPA_1
 62
   251
 10
35.9159
 20
8.0963
  0
VERTEX
  8
CAPA_1
 62
   251
 10
35.9651
 20
8.137
  0
VERTEX
  8
CAPA_1
 62
   251
 10
36.0216
 20
8.1677
  0
VERTEX
  8
CAPA_1
 62
   251
 10
36.0838
 20
8.1871
  0
VERTEX
  8
CAPA_1
 62
   251
 10
36.1506
 20
8.1939
  0
VERTEX
  8
CAPA_1
 62
   251
 10
36.6291
 20
8.1939
  0
VERTEX
  8
CAPA_1
 62
   251
 10
36.6959
 20
8.1871
  0
VERTEX
  8
CAPA_1
 62
   251
 10
36.7582
 20
8.1677
  0
VERTEX
  8
CAPA_1
 62
   251
 10
36.8146
 20
8.137
  0
VERTEX
  8
CAPA_1
 62
   251
 10
36.8639
 20
8.0963
  0
VERTEX
  8
CAPA_1
 62
   251
 10
36.9046
 20
8.0471
  0
VERTEX
  8
CAPA_1
 62
   251
 10
36.9353
 20
7.9906
  0
VERTEX
  8
CAPA_1
 62
   251
 10
36.9547
 20
7.9284
  0
VERTEX
  8
CAPA_1
 62
   251
 10
36.9615
 20
7.8616
  0
VERTEX
  8
CAPA_1
 62
   251
 10
36.9615
 20
6.5721
  0
VERTEX
  8
CAPA_1
 62
   251
 10
36.9547
 20
6.5054
  0
VERTEX
  8
CAPA_1
 62
   251
 10
36.9353
 20
6.4431
  0
VERTEX
  8
CAPA_1
 62
   251
 10
36.9046
 20
6.3867
  0
VERTEX
  8
CAPA_1
 62
   251
 10
36.8639
 20
6.3375
  0
VERTEX
  8
CAPA_1
 62
   251
 10
36.8146
 20
6.2968
  0
VERTEX
  8
CAPA_1
 62
   251
 10
36.7582
 20
6.2661
  0
VERTEX
  8
CAPA_1
 62
   251
 10
36.6959
 20
6.2467
  0
VERTEX
  8
CAPA_1
 62
   251
 10
36.6291
 20
6.2399
  0
VERTEX
  8
CAPA_1
 62
   251
 10
36.1506
 20
6.2399
  0
VERTEX
  8
CAPA_1
 62
   251
 10
36.0838
 20
6.2467
  0
VERTEX
  8
CAPA_1
 62
   251
 10
36.0216
 20
6.2661
  0
VERTEX
  8
CAPA_1
 62
   251
 10
35.9651
 20
6.2968
  0
VERTEX
  8
CAPA_1
 62
   251
 10
35.9159
 20
6.3375
  0
VERTEX
  8
CAPA_1
 62
   251
 10
35.8752
 20
6.3867
  0
VERTEX
  8
CAPA_1
 62
   251
 10
35.8445
 20
6.4431
  0
VERTEX
  8
CAPA_1
 62
   251
 10
35.8251
 20
6.5054
  0
VERTEX
  8
CAPA_1
 62
   251
 10
35.8183
 20
6.5721
  0
SEQEND
  8
CAPA_1
 62
   251
  0
POLYLINE
  8
CAPA_1
 62
   251
 66
     1
 70
     1
  0
VERTEX
  8
CAPA_1
 62
   251
 10
39.2465
 20
6.3299
  0
VERTEX
  8
CAPA_1
 62
   251
 10
40.5359
 20
6.3299
  0
VERTEX
  8
CAPA_1
 62
   251
 10
40.6027
 20
6.3231
  0
VERTEX
  8
CAPA_1
 62
   251
 10
40.6649
 20
6.3037
  0
VERTEX
  8
CAPA_1
 62
   251
 10
40.7214
 20
6.2729
  0
VERTEX
  8
CAPA_1
 62
   251
 10
40.7706
 20
6.2323
  0
VERTEX
  8
CAPA_1
 62
   251
 10
40.8113
 20
6.183
  0
VERTEX
  8
CAPA_1
 62
   251
 10
40.842
 20
6.1266
  0
VERTEX
  8
CAPA_1
 62
   251
 10
40.8614
 20
6.0643
  0
VERTEX
  8
CAPA_1
 62
   251
 10
40.8682
 20
5.9976
  0
VERTEX
  8
CAPA_1
 62
   251
 10
40.8682
 20
5.519
  0
VERTEX
  8
CAPA_1
 62
   251
 10
40.8614
 20
5.4522
  0
VERTEX
  8
CAPA_1
 62
   251
 10
40.842
 20
5.3899
  0
VERTEX
  8
CAPA_1
 62
   251
 10
40.8113
 20
5.3335
  0
VERTEX
  8
CAPA_1
 62
   251
 10
40.7706
 20
5.2842
  0
VERTEX
  8
CAPA_1
 62
   251
 10
40.7214
 20
5.2435
  0
VERTEX
  8
CAPA_1
 62
   251
 10
40.6649
 20
5.2128
  0
VERTEX
  8
CAPA_1
 62
   251
 10
40.6027
 20
5.1934
  0
VERTEX
  8
CAPA_1
 62
   251
 10
40.5359
 20
5.1866
  0
VERTEX
  8
CAPA_1
 62
   251
 10
39.2465
 20
5.1866
  0
VERTEX
  8
CAPA_1
 62
   251
 10
39.1797
 20
5.1934
  0
VERTEX
  8
CAPA_1
 62
   251
 10
39.1175
 20
5.2128
  0
VERTEX
  8
CAPA_1
 62
   251
 10
39.061
 20
5.2435
  0
VERTEX
  8
CAPA_1
 62
   251
 10
39.0118
 20
5.2842
  0
VERTEX
  8
CAPA_1
 62
   251
 10
38.9711
 20
5.3335
  0
VERTEX
  8
CAPA_1
 62
   251
 10
38.9404
 20
5.3899
  0
VERTEX
  8
CAPA_1
 62
   251
 10
38.921
 20
5.4522
  0
VERTEX
  8
CAPA_1
 62
   251
 10
38.9142
 20
5.519
  0
VERTEX
  8
CAPA_1
 62
   251
 10
38.9142
 20
5.9976
  0
VERTEX
  8
CAPA_1
 62
   251
 10
38.921
 20
6.0643
  0
VERTEX
  8
CAPA_1
 62
   251
 10
38.9404
 20
6.1266
  0
VERTEX
  8
CAPA_1
 62
   251
 10
38.9711
 20
6.183
  0
VERTEX
  8
CAPA_1
 62
   251
 10
39.0118
 20
6.2323
  0
VERTEX
  8
CAPA_1
 62
   251
 10
39.061
 20
6.2729
  0
VERTEX
  8
CAPA_1
 62
   251
 10
39.1175
 20
6.3037
  0
VERTEX
  8
CAPA_1
 62
   251
 10
39.1797
 20
6.3231
  0
VERTEX
  8
CAPA_1
 62
   251
 10
39.2465
 20
6.3299
  0
SEQEND
  8
CAPA_1
 62
   251
  0
POLYLINE
  8
CAPA_1
 62
   251
 66
     1
 70
     1
  0
VERTEX
  8
CAPA_1
 62
   251
 10
43.9007
 20
6.3299
  0
VERTEX
  8
CAPA_1
 62
   251
 10
45.1902
 20
6.3299
  0
VERTEX
  8
CAPA_1
 62
   251
 10
45.2569
 20
6.3231
  0
VERTEX
  8
CAPA_1
 62
   251
 10
45.3192
 20
6.3037
  0
VERTEX
  8
CAPA_1
 62
   251
 10
45.3756
 20
6.2729
  0
VERTEX
  8
CAPA_1
 62
   251
 10
45.4248
 20
6.2323
  0
VERTEX
  8
CAPA_1
 62
   251
 10
45.4655
 20
6.183
  0
VERTEX
  8
CAPA_1
 62
   251
 10
45.4962
 20
6.1266
  0
VERTEX
  8
CAPA_1
 62
   251
 10
45.5156
 20
6.0643
  0
VERTEX
  8
CAPA_1
 62
   251
 10
45.5224
 20
5.9976
  0
VERTEX
  8
CAPA_1
 62
   251
 10
45.5224
 20
5.519
  0
VERTEX
  8
CAPA_1
 62
   251
 10
45.5156
 20
5.4522
  0
VERTEX
  8
CAPA_1
 62
   251
 10
45.4962
 20
5.3899
  0
VERTEX
  8
CAPA_1
 62
   251
 10
45.4655
 20
5.3335
  0
VERTEX
  8
CAPA_1
 62
   251
 10
45.4248
 20
5.2842
  0
VERTEX
  8
CAPA_1
 62
   251
 10
45.3756
 20
5.2435
  0
VERTEX
  8
CAPA_1
 62
   251
 10
45.3192
 20
5.2128
  0
VERTEX
  8
CAPA_1
 62
   251
 10
45.2569
 20
5.1934
  0
VERTEX
  8
CAPA_1
 62
   251
 10
45.1902
 20
5.1866
  0
VERTEX
  8
CAPA_1
 62
   251
 10
43.9007
 20
5.1866
  0
VERTEX
  8
CAPA_1
 62
   251
 10
43.8339
 20
5.1934
  0
VERTEX
  8
CAPA_1
 62
   251
 10
43.7717
 20
5.2128
  0
VERTEX
  8
CAPA_1
 62
   251
 10
43.7152
 20
5.2435
  0
VERTEX
  8
CAPA_1
 62
   251
 10
43.666
 20
5.2842
  0
VERTEX
  8
CAPA_1
 62
   251
 10
43.6253
 20
5.3335
  0
VERTEX
  8
CAPA_1
 62
   251
 10
43.5946
 20
5.3899
  0
VERTEX
  8
CAPA_1
 62
   251
 10
43.5752
 20
5.4522
  0
VERTEX
  8
CAPA_1
 62
   251
 10
43.5684
 20
5.519
  0
VERTEX
  8
CAPA_1
 62
   251
 10
43.5684
 20
5.9976
  0
VERTEX
  8
CAPA_1
 62
   251
 10
43.5752
 20
6.0643
  0
VERTEX
  8
CAPA_1
 62
   251
 10
43.5946
 20
6.1266
  0
VERTEX
  8
CAPA_1
 62
   251
 10
43.6253
 20
6.183
  0
VERTEX
  8
CAPA_1
 62
   251
 10
43.666
 20
6.2323
  0
VERTEX
  8
CAPA_1
 62
   251
 10
43.7152
 20
6.2729
  0
VERTEX
  8
CAPA_1
 62
   251
 10
43.7717
 20
6.3037
  0
VERTEX
  8
CAPA_1
 62
   251
 10
43.8339
 20
6.3231
  0
VERTEX
  8
CAPA_1
 62
   251
 10
43.9007
 20
6.3299
  0
SEQEND
  8
CAPA_1
 62
   251
  0
POLYLINE
  8
CAPA_1
 62
   251
 66
     1
 70
     1
  0
VERTEX
  8
CAPA_1
 62
   251
 10
30.415
 20
11.511
  0
VERTEX
  8
CAPA_1
 62
   251
 10
31.7045
 20
11.511
  0
VERTEX
  8
CAPA_1
 62
   251
 10
31.7713
 20
11.5042
  0
VERTEX
  8
CAPA_1
 62
   251
 10
31.8335
 20
11.4848
  0
VERTEX
  8
CAPA_1
 62
   251
 10
31.89
 20
11.4541
  0
VERTEX
  8
CAPA_1
 62
   251
 10
31.9392
 20
11.4134
  0
VERTEX
  8
CAPA_1
 62
   251
 10
31.9799
 20
11.3642
  0
VERTEX
  8
CAPA_1
 62
   251
 10
32.0106
 20
11.3077
  0
VERTEX
  8
CAPA_1
 62
   251
 10
32.03
 20
11.2455
  0
VERTEX
  8
CAPA_1
 62
   251
 10
32.0368
 20
11.1787
  0
VERTEX
  8
CAPA_1
 62
   251
 10
32.0368
 20
10.7001
  0
VERTEX
  8
CAPA_1
 62
   251
 10
32.03
 20
10.6333
  0
VERTEX
  8
CAPA_1
 62
   251
 10
32.0106
 20
10.5711
  0
VERTEX
  8
CAPA_1
 62
   251
 10
31.9799
 20
10.5146
  0
VERTEX
  8
CAPA_1
 62
   251
 10
31.9392
 20
10.4654
  0
VERTEX
  8
CAPA_1
 62
   251
 10
31.89
 20
10.4247
  0
VERTEX
  8
CAPA_1
 62
   251
 10
31.8335
 20
10.394
  0
VERTEX
  8
CAPA_1
 62
   251
 10
31.7713
 20
10.3746
  0
VERTEX
  8
CAPA_1
 62
   251
 10
31.7045
 20
10.3678
  0
VERTEX
  8
CAPA_1
 62
   251
 10
30.415
 20
10.3678
  0
VERTEX
  8
CAPA_1
 62
   251
 10
30.3483
 20
10.3746
  0
VERTEX
  8
CAPA_1
 62
   251
 10
30.286
 20
10.394
  0
VERTEX
  8
CAPA_1
 62
   251
 10
30.2296
 20
10.4247
  0
VERTEX
  8
CAPA_1
 62
   251
 10
30.1804
 20
10.4654
  0
VERTEX
  8
CAPA_1
 62
   251
 10
30.1397
 20
10.5146
  0
VERTEX
  8
CAPA_1
 62
   251
 10
30.109
 20
10.5711
  0
VERTEX
  8
CAPA_1
 62
   251
 10
30.0896
 20
10.6333
  0
VERTEX
  8
CAPA_1
 62
   251
 10
30.0828
 20
10.7001
  0
VERTEX
  8
CAPA_1
 62
   251
 10
30.0828
 20
11.1787
  0
VERTEX
  8
CAPA_1
 62
   251
 10
30.0896
 20
11.2455
  0
VERTEX
  8
CAPA_1
 62
   251
 10
30.109
 20
11.3077
  0
VERTEX
  8
CAPA_1
 62
   251
 10
30.1397
 20
11.3642
  0
VERTEX
  8
CAPA_1
 62
   251
 10
30.1804
 20
11.4134
  0
VERTEX
  8
CAPA_1
 62
   251
 10
30.2296
 20
11.4541
  0
VERTEX
  8
CAPA_1
 62
   251
 10
30.286
 20
11.4848
  0
VERTEX
  8
CAPA_1
 62
   251
 10
30.3483
 20
11.5042
  0
VERTEX
  8
CAPA_1
 62
   251
 10
30.415
 20
11.511
  0
SEQEND
  8
CAPA_1
 62
   251
  0
POLYLINE
  8
CAPA_1
 62
   251
 66
     1
 70
     1
  0
VERTEX
  8
CAPA_1
 62
   251
 10
20.9286
 20
11.6419
  0
VERTEX
  8
CAPA_1
 62
   251
 10
22.2181
 20
11.6419
  0
VERTEX
  8
CAPA_1
 62
   251
 10
22.2849
 20
11.6351
  0
VERTEX
  8
CAPA_1
 62
   251
 10
22.3471
 20
11.6157
  0
VERTEX
  8
CAPA_1
 62
   251
 10
22.4036
 20
11.585
  0
VERTEX
  8
CAPA_1
 62
   251
 10
22.4528
 20
11.5443
  0
VERTEX
  8
CAPA_1
 62
   251
 10
22.4935
 20
11.4951
  0
VERTEX
  8
CAPA_1
 62
   251
 10
22.5242
 20
11.4386
  0
VERTEX
  8
CAPA_1
 62
   251
 10
22.5436
 20
11.3764
  0
VERTEX
  8
CAPA_1
 62
   251
 10
22.5504
 20
11.3096
  0
VERTEX
  8
CAPA_1
 62
   251
 10
22.5504
 20
10.831
  0
VERTEX
  8
CAPA_1
 62
   251
 10
22.5436
 20
10.7642
  0
VERTEX
  8
CAPA_1
 62
   251
 10
22.5242
 20
10.7019
  0
VERTEX
  8
CAPA_1
 62
   251
 10
22.4935
 20
10.6455
  0
VERTEX
  8
CAPA_1
 62
   251
 10
22.4528
 20
10.5962
  0
VERTEX
  8
CAPA_1
 62
   251
 10
22.4036
 20
10.5555
  0
VERTEX
  8
CAPA_1
 62
   251
 10
22.3471
 20
10.5248
  0
VERTEX
  8
CAPA_1
 62
   251
 10
22.2849
 20
10.5054
  0
VERTEX
  8
CAPA_1
 62
   251
 10
22.2181
 20
10.4986
  0
VERTEX
  8
CAPA_1
 62
   251
 10
20.9286
 20
10.4986
  0
VERTEX
  8
CAPA_1
 62
   251
 10
20.8619
 20
10.5054
  0
VERTEX
  8
CAPA_1
 62
   251
 10
20.7996
 20
10.5248
  0
VERTEX
  8
CAPA_1
 62
   251
 10
20.7432
 20
10.5555
  0
VERTEX
  8
CAPA_1
 62
   251
 10
20.694
 20
10.5962
  0
VERTEX
  8
CAPA_1
 62
   251
 10
20.6533
 20
10.6455
  0
VERTEX
  8
CAPA_1
 62
   251
 10
20.6226
 20
10.7019
  0
VERTEX
  8
CAPA_1
 62
   251
 10
20.6032
 20
10.7642
  0
VERTEX
  8
CAPA_1
 62
   251
 10
20.5964
 20
10.831
  0
VERTEX
  8
CAPA_1
 62
   251
 10
20.5964
 20
11.3096
  0
VERTEX
  8
CAPA_1
 62
   251
 10
20.6032
 20
11.3764
  0
VERTEX
  8
CAPA_1
 62
   251
 10
20.6226
 20
11.4386
  0
VERTEX
  8
CAPA_1
 62
   251
 10
20.6533
 20
11.4951
  0
VERTEX
  8
CAPA_1
 62
   251
 10
20.694
 20
11.5443
  0
VERTEX
  8
CAPA_1
 62
   251
 10
20.7432
 20
11.585
  0
VERTEX
  8
CAPA_1
 62
   251
 10
20.7996
 20
11.6157
  0
VERTEX
  8
CAPA_1
 62
   251
 10
20.8619
 20
11.6351
  0
VERTEX
  8
CAPA_1
 62
   251
 10
20.9286
 20
11.6419
  0
SEQEND
  8
CAPA_1
 62
   251
  0
POLYLINE
  8
CAPA_1
 62
   251
 66
     1
 70
     1
  0
VERTEX
  8
CAPA_1
 62
   251
 10
17.01
 20
11.6419
  0
VERTEX
  8
CAPA_1
 62
   251
 10
18.2994
 20
11.6419
  0
VERTEX
  8
CAPA_1
 62
   251
 10
18.3662
 20
11.6351
  0
VERTEX
  8
CAPA_1
 62
   251
 10
18.4284
 20
11.6157
  0
VERTEX
  8
CAPA_1
 62
   251
 10
18.4849
 20
11.585
  0
VERTEX
  8
CAPA_1
 62
   251
 10
18.5341
 20
11.5443
  0
VERTEX
  8
CAPA_1
 62
   251
 10
18.5748
 20
11.4951
  0
VERTEX
  8
CAPA_1
 62
   251
 10
18.6055
 20
11.4386
  0
VERTEX
  8
CAPA_1
 62
   251
 10
18.6249
 20
11.3764
  0
VERTEX
  8
CAPA_1
 62
   251
 10
18.6317
 20
11.3096
  0
VERTEX
  8
CAPA_1
 62
   251
 10
18.6317
 20
10.831
  0
VERTEX
  8
CAPA_1
 62
   251
 10
18.6249
 20
10.7642
  0
VERTEX
  8
CAPA_1
 62
   251
 10
18.6055
 20
10.7019
  0
VERTEX
  8
CAPA_1
 62
   251
 10
18.5748
 20
10.6455
  0
VERTEX
  8
CAPA_1
 62
   251
 10
18.5341
 20
10.5962
  0
VERTEX
  8
CAPA_1
 62
   251
 10
18.4849
 20
10.5555
  0
VERTEX
  8
CAPA_1
 62
   251
 10
18.4284
 20
10.5248
  0
VERTEX
  8
CAPA_1
 62
   251
 10
18.3662
 20
10.5054
  0
VERTEX
  8
CAPA_1
 62
   251
 10
18.2994
 20
10.4986
  0
VERTEX
  8
CAPA_1
 62
   251
 10
17.01
 20
10.4986
  0
VERTEX
  8
CAPA_1
 62
   251
 10
16.9432
 20
10.5054
  0
VERTEX
  8
CAPA_1
 62
   251
 10
16.881
 20
10.5248
  0
VERTEX
  8
CAPA_1
 62
   251
 10
16.8245
 20
10.5555
  0
VERTEX
  8
CAPA_1
 62
   251
 10
16.7753
 20
10.5962
  0
VERTEX
  8
CAPA_1
 62
   251
 10
16.7346
 20
10.6455
  0
VERTEX
  8
CAPA_1
 62
   251
 10
16.7039
 20
10.7019
  0
VERTEX
  8
CAPA_1
 62
   251
 10
16.6845
 20
10.7642
  0
VERTEX
  8
CAPA_1
 62
   251
 10
16.6777
 20
10.831
  0
VERTEX
  8
CAPA_1
 62
   251
 10
16.6777
 20
11.3096
  0
VERTEX
  8
CAPA_1
 62
   251
 10
16.6845
 20
11.3764
  0
VERTEX
  8
CAPA_1
 62
   251
 10
16.7039
 20
11.4386
  0
VERTEX
  8
CAPA_1
 62
   251
 10
16.7346
 20
11.4951
  0
VERTEX
  8
CAPA_1
 62
   251
 10
16.7753
 20
11.5443
  0
VERTEX
  8
CAPA_1
 62
   251
 10
16.8245
 20
11.585
  0
VERTEX
  8
CAPA_1
 62
   251
 10
16.881
 20
11.6157
  0
VERTEX
  8
CAPA_1
 62
   251
 10
16.9432
 20
11.6351
  0
VERTEX
  8
CAPA_1
 62
   251
 10
17.01
 20
11.6419
  0
SEQEND
  8
CAPA_1
 62
   251
  0
POLYLINE
  8
CAPA_1
 62
   251
 66
     1
 70
     1
  0
VERTEX
  8
CAPA_1
 62
   251
 10
-16.4192
 20
2.1521
  0
VERTEX
  8
CAPA_1
 62
   251
 10
-6.4456
 20
8.3391
  0
VERTEX
  8
CAPA_1
 62
   251
 10
-5.9308
 20
8.6252
  0
VERTEX
  8
CAPA_1
 62
   251
 10
-5.2001
 20
8.8356
  0
VERTEX
  8
CAPA_1
 62
   251
 10
-4.3197
 20
8.9672
  0
VERTEX
  8
CAPA_1
 62
   251
 10
-3.3557
 20
9.017
  0
VERTEX
  8
CAPA_1
 62
   251
 10
-2.3742
 20
8.9821
  0
VERTEX
  8
CAPA_1
 62
   251
 10
-1.4415
 20
8.8595
  0
VERTEX
  8
CAPA_1
 62
   251
 10
-0.6236
 20
8.6462
  0
VERTEX
  8
CAPA_1
 62
   251
 10
0.0134
 20
8.3391
  0
VERTEX
  8
CAPA_1
 62
   251
 10
10.1057
 20
2.0338
  0
VERTEX
  8
CAPA_1
 62
   251
 10
10.4673
 20
1.7047
  0
VERTEX
  8
CAPA_1
 62
   251
 10
10.7025
 20
1.3106
  0
VERTEX
  8
CAPA_1
 62
   251
 10
10.8233
 20
0.8739
  0
VERTEX
  8
CAPA_1
 62
   251
 10
10.8412
 20
0.4167
  0
VERTEX
  8
CAPA_1
 62
   251
 10
10.7682
 20
-0.0385
  0
VERTEX
  8
CAPA_1
 62
   251
 10
10.6161
 20
-0.4695
  0
VERTEX
  8
CAPA_1
 62
   251
 10
10.3965
 20
-0.8539
  0
VERTEX
  8
CAPA_1
 62
   251
 10
10.1213
 20
-1.1695
  0
VERTEX
  8
CAPA_1
 62
   251
 10
1.8393
 20
-6.4303
  0
VERTEX
  8
CAPA_1
 62
   251
 10
0.77
 20
-7.1435
  0
VERTEX
  8
CAPA_1
 62
   251
 10
-0.3687
 20
-7.6823
  0
VERTEX
  8
CAPA_1
 62
   251
 10
-1.5664
 20
-8.0376
  0
VERTEX
  8
CAPA_1
 62
   251
 10
-2.8125
 20
-8.2006
  0
VERTEX
  8
CAPA_1
 62
   251
 10
-4.0967
 20
-8.1623
  0
VERTEX
  8
CAPA_1
 62
   251
 10
-5.4084
 20
-7.9137
  0
VERTEX
  8
CAPA_1
 62
   251
 10
-6.7372
 20
-7.4459
  0
VERTEX
  8
CAPA_1
 62
   251
 10
-8.0727
 20
-6.7499
  0
VERTEX
  8
CAPA_1
 62
   251
 10
-16.7188
 20
-1.265
  0
VERTEX
  8
CAPA_1
 62
   251
 10
-17.1088
 20
-0.9646
  0
VERTEX
  8
CAPA_1
 62
   251
 10
-17.3953
 20
-0.5784
  0
VERTEX
  8
CAPA_1
 62
   251
 10
-17.5691
 20
-0.1313
  0
VERTEX
  8
CAPA_1
 62
   251
 10
-17.6207
 20
0.3521
  0
VERTEX
  8
CAPA_1
 62
   251
 10
-17.5408
 20
0.8468
  0
VERTEX
  8
CAPA_1
 62
   251
 10
-17.3202
 20
1.3283
  0
VERTEX
  8
CAPA_1
 62
   251
 10
-16.9494
 20
1.7716
  0
VERTEX
  8
CAPA_1
 62
   251
 10
-16.4192
 20
2.1521
  0
SEQEND
  8
CAPA_1
 62
   251
  0
POLYLINE
  8
CAPA_1
 66
     1
 70
     1
  0
VERTEX
  8
CAPA_1
 10
23.7814
 20
1.3488
  0
VERTEX
  8
CAPA_1
 10
23.6253277423871
 20
1.333428224322584
  0
VERTEX
  8
CAPA_1
 10
23.47525325410793
 20
1.28790362600903
  0
VERTEX
  8
CAPA_1
 10
23.33694381358432
 20
1.213975689842036
  0
VERTEX
  8
CAPA_1
 10
23.21571457505076
 20
1.114485424949238
  0
VERTEX
  8
CAPA_1
 10
23.11622431015796
 20
0.9932561864156818
  0
VERTEX
  8
CAPA_1
 10
23.04229637399097
 20
0.8549467458920719
  0
VERTEX
  8
CAPA_1
 10
22.99677177567742
 20
0.7048722576129026
  0
VERTEX
  8
CAPA_1
 10
22.9814
 20
0.5488
  0
VERTEX
  8
CAPA_1
 10
22.99677177567742
 20
0.3927277423870974
  0
VERTEX
  8
CAPA_1
 10
23.04229637399097
 20
0.2426532541079282
  0
VERTEX
  8
CAPA_1
 10
23.11622431015796
 20
0.1043438135843184
  0
VERTEX
  8
CAPA_1
 10
23.21571457505076
 20
-0.0168854249492381
  0
VERTEX
  8
CAPA_1
 10
23.33694381358432
 20
-0.1163756898420364
  0
VERTEX
  8
CAPA_1
 10
23.47525325410793
 20
-0.1903036260090296
  0
VERTEX
  8
CAPA_1
 10
23.6253277423871
 20
-0.2358282243225845
  0
VERTEX
  8
CAPA_1
 10
23.7814
 20
-0.2512000000000001
  0
VERTEX
  8
CAPA_1
 10
23.9374722576129
 20
-0.2358282243225842
  0
VERTEX
  8
CAPA_1
 10
24.08754674589207
 20
-0.1903036260090292
  0
VERTEX
  8
CAPA_1
 10
24.22585618641568
 20
-0.1163756898420356
  0
VERTEX
  8
CAPA_1
 10
24.34708542494924
 20
-0.0168854249492372
  0
VERTEX
  8
CAPA_1
 10
24.44657568984204
 20
0.1043438135843193
  0
VERTEX
  8
CAPA_1
 10
24.52050362600903
 20
0.2426532541079296
  0
VERTEX
  8
CAPA_1
 10
24.56602822432259
 20
0.3927277423870991
  0
VERTEX
  8
CAPA_1
 10
24.5814
 20
0.548800000000002
  0
VERTEX
  8
CAPA_1
 10
24.56602822432259
 20
0.7048722576129047
  0
VERTEX
  8
CAPA_1
 10
24.52050362600903
 20
0.8549467458920739
  0
VERTEX
  8
CAPA_1
 10
24.44657568984204
 20
0.9932561864156839
  0
VERTEX
  8
CAPA_1
 10
24.34708542494924
 20
1.11448542494924
  0
VERTEX
  8
CAPA_1
 10
24.22585618641568
 20
1.213975689842038
  0
VERTEX
  8
CAPA_1
 10
24.08754674589207
 20
1.28790362600903
  0
VERTEX
  8
CAPA_1
 10
23.9374722576129
 20
1.333428224322585
  0
SEQEND
  8
CAPA_1
  0
ENDSEC
  0
EOF
