G75*
%MOIN*%
%OFA0B0*%
%FSLAX25Y25*%
%IPPOS*%
%LPD*%
%AMOC8*
5,1,8,0,0,1.08239X$1,22.5*
%
%ADD10C,0.00600*%
%ADD11C,0.00500*%
%ADD12C,0.00800*%
%ADD13C,0.00000*%
%ADD14C,0.00875*%
%ADD15R,0.01181X0.02765*%
%ADD16R,0.00984X0.02765*%
%ADD17R,0.05500X0.05500*%
%ADD18C,0.05500*%
%ADD19C,0.02578*%
%ADD20C,0.01000*%
%ADD21C,0.01200*%
%ADD22C,0.01600*%
%ADD23C,0.03200*%
%ADD24C,0.04000*%
%ADD25C,0.02400*%
D10*
X0021423Y0038877D02*
X0021423Y0053068D01*
X0021193Y0054223D01*
X0020546Y0055511D01*
X0019546Y0056843D01*
X0018260Y0058131D01*
X0016751Y0059287D01*
X0015086Y0060221D01*
X0013329Y0060847D01*
X0011546Y0061075D01*
X0005020Y0061075D01*
X0005020Y0093285D01*
X0015209Y0093363D01*
X0016100Y0093845D01*
X0016736Y0094600D01*
X0017115Y0095536D01*
X0017240Y0096561D01*
X0017110Y0097585D01*
X0016728Y0098513D01*
X0016094Y0099256D01*
X0015209Y0099720D01*
X0005020Y0099735D01*
X0006770Y0101532D02*
X0006770Y0113003D01*
X0014599Y0113003D01*
X0014706Y0112920D01*
X0015327Y0113003D01*
X0015954Y0113003D01*
X0016050Y0113099D01*
X0017145Y0113244D01*
X0017404Y0113142D01*
X0017857Y0113339D01*
X0018347Y0113404D01*
X0018516Y0113625D01*
X0019481Y0114044D01*
X0019743Y0114014D01*
X0019878Y0114121D01*
X0019878Y0113779D01*
X0020302Y0112753D01*
X0021087Y0111969D01*
X0022112Y0111544D01*
X0022417Y0111544D01*
X0022417Y0077710D01*
X0022366Y0077652D01*
X0022417Y0076892D01*
X0022417Y0076130D01*
X0022471Y0076075D01*
X0022476Y0075999D01*
X0023050Y0075497D01*
X0023588Y0074958D01*
X0023628Y0074958D01*
X0023628Y0074654D01*
X0024052Y0073628D01*
X0024837Y0072844D01*
X0025862Y0072419D01*
X0026972Y0072419D01*
X0027997Y0072844D01*
X0028781Y0073628D01*
X0029206Y0074654D01*
X0029206Y0075763D01*
X0028781Y0076788D01*
X0027997Y0077573D01*
X0026972Y0077997D01*
X0026417Y0077997D01*
X0026417Y0088380D01*
X0027292Y0087505D01*
X0028463Y0086333D01*
X0038794Y0086333D01*
X0038855Y0086281D01*
X0039611Y0086333D01*
X0040370Y0086333D01*
X0040427Y0086390D01*
X0040507Y0086396D01*
X0041005Y0086968D01*
X0041542Y0087505D01*
X0041542Y0087585D01*
X0043501Y0089839D01*
X0044037Y0090368D01*
X0044037Y0090455D01*
X0044095Y0090521D01*
X0044042Y0091272D01*
X0044107Y0102186D01*
X0044237Y0102060D01*
X0045667Y0100630D01*
X0046838Y0099458D01*
X0063268Y0099458D01*
X0062337Y0099073D01*
X0061552Y0098288D01*
X0061128Y0097263D01*
X0061128Y0096154D01*
X0061552Y0095128D01*
X0062337Y0094344D01*
X0063362Y0093919D01*
X0064472Y0093919D01*
X0065497Y0094344D01*
X0065861Y0094708D01*
X0066389Y0094708D01*
X0066491Y0090449D01*
X0066461Y0089684D01*
X0066510Y0089630D01*
X0066512Y0089557D01*
X0067066Y0089029D01*
X0103917Y0049175D01*
X0103917Y0049130D01*
X0104475Y0048572D01*
X0105011Y0047992D01*
X0105056Y0047991D01*
X0105088Y0047958D01*
X0105878Y0047958D01*
X0106666Y0047927D01*
X0106700Y0047958D01*
X0214854Y0047958D01*
X0215483Y0047839D01*
X0215658Y0047958D01*
X0215870Y0047958D01*
X0216323Y0048411D01*
X0252125Y0072794D01*
X0253222Y0072794D01*
X0254247Y0073219D01*
X0255031Y0074003D01*
X0255456Y0075029D01*
X0255456Y0076138D01*
X0255031Y0077163D01*
X0254247Y0077948D01*
X0253222Y0078372D01*
X0252112Y0078372D01*
X0251087Y0077948D01*
X0250302Y0077163D01*
X0249878Y0076138D01*
X0249878Y0076104D01*
X0214425Y0051958D01*
X0212259Y0051958D01*
X0254535Y0080833D01*
X0255098Y0080833D01*
X0255052Y0080788D01*
X0254628Y0079763D01*
X0254628Y0078654D01*
X0255052Y0077628D01*
X0255837Y0076844D01*
X0256862Y0076419D01*
X0257406Y0076419D01*
X0272346Y0063259D01*
X0272914Y0062691D01*
X0272958Y0062691D01*
X0272990Y0062661D01*
X0273023Y0062663D01*
X0273049Y0062640D01*
X0273850Y0062691D01*
X0279064Y0062691D01*
X0278466Y0062444D01*
X0277682Y0061659D01*
X0277257Y0060634D01*
X0277257Y0059524D01*
X0277682Y0058499D01*
X0278466Y0057715D01*
X0279491Y0057290D01*
X0280601Y0057290D01*
X0281241Y0057555D01*
X0280446Y0056761D01*
X0275911Y0056761D01*
X0275497Y0056827D01*
X0275221Y0056761D01*
X0274938Y0056761D01*
X0274551Y0056600D01*
X0274143Y0056503D01*
X0273913Y0056336D01*
X0273651Y0056228D01*
X0273355Y0055932D01*
X0268667Y0052532D01*
X0268643Y0052526D01*
X0268104Y0052124D01*
X0267560Y0051729D01*
X0267547Y0051708D01*
X0261516Y0047208D01*
X0098505Y0047208D01*
X0072659Y0076742D01*
X0071411Y0077359D01*
X0070022Y0077452D01*
X0068703Y0077005D01*
X0067655Y0076088D01*
X0067038Y0074840D01*
X0066945Y0073451D01*
X0067391Y0072132D01*
X0093904Y0041837D01*
X0093950Y0041726D01*
X0094360Y0041316D01*
X0094741Y0040879D01*
X0094849Y0040826D01*
X0094934Y0040741D01*
X0095090Y0040677D01*
X0079997Y0040677D01*
X0080531Y0041211D01*
X0080956Y0042236D01*
X0080956Y0043346D01*
X0080531Y0044371D01*
X0079747Y0045155D01*
X0078722Y0045580D01*
X0078555Y0045580D01*
X0071996Y0053316D01*
X0071996Y0053913D01*
X0071572Y0054939D01*
X0070787Y0055723D01*
X0069762Y0056148D01*
X0068653Y0056148D01*
X0067627Y0055723D01*
X0066843Y0054939D01*
X0066418Y0053913D01*
X0066418Y0052804D01*
X0066843Y0051779D01*
X0067627Y0050994D01*
X0068653Y0050570D01*
X0068819Y0050570D01*
X0075378Y0042833D01*
X0075378Y0042236D01*
X0075802Y0041211D01*
X0076337Y0040677D01*
X0023223Y0040677D01*
X0023223Y0052522D01*
X0023334Y0052688D01*
X0023223Y0053245D01*
X0023223Y0053813D01*
X0023082Y0053955D01*
X0023051Y0054109D01*
X0023136Y0054365D01*
X0022910Y0054814D01*
X0022812Y0055306D01*
X0022588Y0055456D01*
X0022407Y0055815D01*
X0022433Y0055995D01*
X0022082Y0056463D01*
X0021819Y0056986D01*
X0021647Y0057043D01*
X0021347Y0057443D01*
X0021347Y0057588D01*
X0020910Y0058025D01*
X0020539Y0058520D01*
X0020395Y0058540D01*
X0019964Y0058972D01*
X0019946Y0059107D01*
X0019449Y0059488D01*
X0019006Y0059931D01*
X0018870Y0059931D01*
X0018322Y0060351D01*
X0018283Y0060491D01*
X0017744Y0060794D01*
X0017254Y0061169D01*
X0017110Y0061150D01*
X0016467Y0061511D01*
X0016393Y0061667D01*
X0015834Y0061866D01*
X0015317Y0062156D01*
X0015151Y0062109D01*
X0014430Y0062366D01*
X0014297Y0062538D01*
X0013750Y0062608D01*
X0013231Y0062793D01*
X0013034Y0062699D01*
X0012384Y0062782D01*
X0012291Y0062875D01*
X0011660Y0062875D01*
X0011034Y0062955D01*
X0010931Y0062875D01*
X0006820Y0062875D01*
X0006820Y0091499D01*
X0014952Y0091561D01*
X0015408Y0091425D01*
X0015670Y0091567D01*
X0015968Y0091569D01*
X0016301Y0091908D01*
X0016627Y0092084D01*
X0016997Y0092115D01*
X0017257Y0092424D01*
X0017612Y0092615D01*
X0017718Y0092972D01*
X0017835Y0093110D01*
X0018124Y0093232D01*
X0018297Y0093659D01*
X0018593Y0094011D01*
X0018566Y0094323D01*
X0018603Y0094415D01*
X0018812Y0094579D01*
X0018873Y0095081D01*
X0019063Y0095551D01*
X0018960Y0095795D01*
X0018967Y0095851D01*
X0019119Y0096047D01*
X0019053Y0096566D01*
X0019116Y0097085D01*
X0018963Y0097280D01*
X0018956Y0097335D01*
X0019059Y0097580D01*
X0018866Y0098048D01*
X0018803Y0098550D01*
X0018593Y0098713D01*
X0018556Y0098801D01*
X0018581Y0099116D01*
X0018283Y0099464D01*
X0018109Y0099888D01*
X0017817Y0100010D01*
X0017702Y0100144D01*
X0017590Y0100504D01*
X0017237Y0100689D01*
X0016978Y0100992D01*
X0016603Y0101021D01*
X0016288Y0101186D01*
X0015957Y0101519D01*
X0015653Y0101519D01*
X0015384Y0101660D01*
X0014935Y0101520D01*
X0006770Y0101532D01*
X0006770Y0101545D02*
X0015014Y0101545D01*
X0015604Y0101545D02*
X0022417Y0101545D01*
X0022417Y0102143D02*
X0006770Y0102143D01*
X0006770Y0102742D02*
X0022417Y0102742D01*
X0022417Y0103340D02*
X0006770Y0103340D01*
X0006770Y0103939D02*
X0022417Y0103939D01*
X0022417Y0104537D02*
X0006770Y0104537D01*
X0006770Y0105136D02*
X0022417Y0105136D01*
X0022417Y0105734D02*
X0006770Y0105734D01*
X0006770Y0106333D02*
X0022417Y0106333D01*
X0022417Y0106931D02*
X0006770Y0106931D01*
X0006770Y0107530D02*
X0022417Y0107530D01*
X0022417Y0108128D02*
X0006770Y0108128D01*
X0006770Y0108727D02*
X0022417Y0108727D01*
X0022417Y0109325D02*
X0006770Y0109325D01*
X0006770Y0109924D02*
X0022417Y0109924D01*
X0022417Y0110522D02*
X0006770Y0110522D01*
X0006770Y0111121D02*
X0022417Y0111121D01*
X0021690Y0111719D02*
X0006770Y0111719D01*
X0006770Y0112318D02*
X0020738Y0112318D01*
X0020235Y0112916D02*
X0006770Y0112916D01*
X0005020Y0114803D02*
X0015209Y0114803D01*
X0017371Y0115090D01*
X0019206Y0115887D01*
X0020725Y0117096D01*
X0021940Y0118620D01*
X0022864Y0120362D01*
X0023509Y0122225D01*
X0023887Y0124111D01*
X0024010Y0125924D01*
X0024010Y0145461D01*
X0033017Y0133971D02*
X0035998Y0137108D01*
X0056807Y0137108D01*
X0059159Y0133675D01*
X0059274Y0133400D01*
X0059504Y0133171D01*
X0059688Y0132903D01*
X0059937Y0132740D01*
X0060149Y0132530D01*
X0060449Y0132407D01*
X0060721Y0132230D01*
X0061014Y0132175D01*
X0061290Y0132062D01*
X0061614Y0132063D01*
X0061933Y0132003D01*
X0062225Y0132065D01*
X0076249Y0132108D01*
X0087517Y0132108D01*
X0087517Y0121495D01*
X0085130Y0119108D01*
X0081630Y0119108D01*
X0080517Y0117995D01*
X0078130Y0115608D01*
X0075447Y0115608D01*
X0073702Y0118260D01*
X0073707Y0118449D01*
X0073281Y0118899D01*
X0072941Y0119416D01*
X0072755Y0119455D01*
X0072625Y0119592D01*
X0072160Y0119605D01*
X0072198Y0119615D01*
X0072495Y0119786D01*
X0072737Y0120028D01*
X0072908Y0120325D01*
X0072996Y0120655D01*
X0072996Y0122209D01*
X0071228Y0122209D01*
X0071228Y0122209D01*
X0072996Y0122209D01*
X0072996Y0123763D01*
X0072908Y0124094D01*
X0072737Y0124390D01*
X0072495Y0124632D01*
X0072198Y0124803D01*
X0071867Y0124892D01*
X0071204Y0124892D01*
X0071136Y0124892D01*
X0071136Y0125033D01*
X0070903Y0125266D01*
X0070476Y0126583D01*
X0070476Y0127070D01*
X0070243Y0127303D01*
X0070142Y0127617D01*
X0069708Y0127839D01*
X0069363Y0128183D01*
X0069034Y0128183D01*
X0068740Y0128333D01*
X0068276Y0128183D01*
X0065102Y0128183D01*
X0064841Y0128327D01*
X0064344Y0128183D01*
X0063827Y0128183D01*
X0063616Y0127972D01*
X0063329Y0127889D01*
X0063079Y0127436D01*
X0062714Y0127070D01*
X0062714Y0126772D01*
X0062316Y0126049D01*
X0061460Y0126905D01*
X0057230Y0126905D01*
X0056162Y0125837D01*
X0056048Y0126035D01*
X0055724Y0126358D01*
X0055328Y0126587D01*
X0054886Y0126705D01*
X0053645Y0126705D01*
X0053645Y0123955D01*
X0053045Y0123955D01*
X0053045Y0123355D01*
X0050295Y0123355D01*
X0050295Y0122114D01*
X0050413Y0121672D01*
X0050642Y0121276D01*
X0050966Y0120952D01*
X0051362Y0120724D01*
X0051804Y0120605D01*
X0052531Y0120605D01*
X0052169Y0120242D01*
X0052169Y0120047D01*
X0051999Y0119799D01*
X0051230Y0119799D01*
X0050095Y0118664D01*
X0050095Y0114434D01*
X0051230Y0113299D01*
X0055460Y0113299D01*
X0056345Y0114184D01*
X0057230Y0113299D01*
X0057354Y0113299D01*
X0057354Y0112602D01*
X0057302Y0112602D01*
X0056234Y0111534D01*
X0056120Y0111731D01*
X0055796Y0112055D01*
X0055400Y0112284D01*
X0054958Y0112402D01*
X0053717Y0112402D01*
X0053717Y0109652D01*
X0053117Y0109652D01*
X0053117Y0112402D01*
X0051876Y0112402D01*
X0051434Y0112284D01*
X0051037Y0112055D01*
X0050714Y0111731D01*
X0050485Y0111335D01*
X0050367Y0110893D01*
X0050367Y0109652D01*
X0053117Y0109652D01*
X0053117Y0109052D01*
X0053717Y0109052D01*
X0053717Y0106302D01*
X0054958Y0106302D01*
X0055400Y0106420D01*
X0055796Y0106649D01*
X0056120Y0106973D01*
X0056234Y0107170D01*
X0057302Y0106102D01*
X0061532Y0106102D01*
X0062667Y0107237D01*
X0062667Y0111467D01*
X0061532Y0112602D01*
X0061154Y0112602D01*
X0061154Y0113299D01*
X0061460Y0113299D01*
X0062595Y0114434D01*
X0062595Y0114766D01*
X0064856Y0114853D01*
X0064889Y0114821D01*
X0064891Y0114788D01*
X0065449Y0114274D01*
X0065992Y0113744D01*
X0066025Y0113744D01*
X0066133Y0113645D01*
X0065275Y0112786D01*
X0065275Y0111525D01*
X0065236Y0111486D01*
X0065236Y0110495D01*
X0065201Y0110357D01*
X0065236Y0110300D01*
X0065236Y0107872D01*
X0064487Y0107872D01*
X0063462Y0107448D01*
X0062677Y0106663D01*
X0062253Y0105638D01*
X0062253Y0104529D01*
X0062677Y0103503D01*
X0062723Y0103458D01*
X0048495Y0103458D01*
X0047632Y0104322D01*
X0047501Y0114935D01*
X0047522Y0114957D01*
X0047491Y0115759D01*
X0047481Y0116561D01*
X0047460Y0116582D01*
X0047459Y0116613D01*
X0046870Y0117158D01*
X0046296Y0117718D01*
X0046265Y0117718D01*
X0038796Y0124636D01*
X0038796Y0125048D01*
X0038372Y0126073D01*
X0037587Y0126857D01*
X0036562Y0127282D01*
X0035453Y0127282D01*
X0034427Y0126857D01*
X0033643Y0126073D01*
X0033218Y0125048D01*
X0033218Y0123938D01*
X0033643Y0122913D01*
X0034427Y0122128D01*
X0035453Y0121704D01*
X0036075Y0121704D01*
X0043502Y0114825D01*
X0043504Y0114673D01*
X0042722Y0114997D01*
X0041612Y0114997D01*
X0040587Y0114573D01*
X0039802Y0113788D01*
X0039378Y0112763D01*
X0039378Y0111654D01*
X0039802Y0110628D01*
X0040155Y0110276D01*
X0040046Y0091961D01*
X0038631Y0090333D01*
X0033423Y0090333D01*
X0033930Y0091253D01*
X0034066Y0092479D01*
X0033723Y0093663D01*
X0033017Y0094546D01*
X0033017Y0133971D01*
X0033017Y0133864D02*
X0059029Y0133864D01*
X0059409Y0133266D02*
X0033017Y0133266D01*
X0033017Y0132667D02*
X0060011Y0132667D01*
X0061273Y0132069D02*
X0033017Y0132069D01*
X0033017Y0131470D02*
X0087517Y0131470D01*
X0087517Y0130872D02*
X0033017Y0130872D01*
X0033017Y0130273D02*
X0087517Y0130273D01*
X0087517Y0129675D02*
X0033017Y0129675D01*
X0033017Y0129076D02*
X0087517Y0129076D01*
X0087517Y0128478D02*
X0033017Y0128478D01*
X0033017Y0127879D02*
X0063323Y0127879D01*
X0062924Y0127281D02*
X0036565Y0127281D01*
X0035450Y0127281D02*
X0033017Y0127281D01*
X0033017Y0126682D02*
X0034252Y0126682D01*
X0033654Y0126084D02*
X0033017Y0126084D01*
X0033017Y0125485D02*
X0033400Y0125485D01*
X0033218Y0124887D02*
X0033017Y0124887D01*
X0033017Y0124288D02*
X0033218Y0124288D01*
X0033321Y0123689D02*
X0033017Y0123689D01*
X0033017Y0123091D02*
X0033569Y0123091D01*
X0034063Y0122492D02*
X0033017Y0122492D01*
X0033017Y0121894D02*
X0034993Y0121894D01*
X0036516Y0121295D02*
X0033017Y0121295D01*
X0033017Y0120697D02*
X0037162Y0120697D01*
X0037809Y0120098D02*
X0033017Y0120098D01*
X0033017Y0119500D02*
X0038455Y0119500D01*
X0039101Y0118901D02*
X0033017Y0118901D01*
X0033017Y0118303D02*
X0039747Y0118303D01*
X0040393Y0117704D02*
X0033017Y0117704D01*
X0033017Y0117106D02*
X0041040Y0117106D01*
X0041686Y0116507D02*
X0033017Y0116507D01*
X0033017Y0115909D02*
X0042332Y0115909D01*
X0042978Y0115310D02*
X0033017Y0115310D01*
X0033017Y0114712D02*
X0040923Y0114712D01*
X0040128Y0114113D02*
X0033017Y0114113D01*
X0033017Y0113515D02*
X0039689Y0113515D01*
X0039441Y0112916D02*
X0033017Y0112916D01*
X0033017Y0112318D02*
X0039378Y0112318D01*
X0039378Y0111719D02*
X0033017Y0111719D01*
X0033017Y0111121D02*
X0039598Y0111121D01*
X0039909Y0110522D02*
X0033017Y0110522D01*
X0033017Y0109924D02*
X0040153Y0109924D01*
X0040150Y0109325D02*
X0033017Y0109325D01*
X0033017Y0108727D02*
X0040146Y0108727D01*
X0040142Y0108128D02*
X0033017Y0108128D01*
X0033017Y0107530D02*
X0040139Y0107530D01*
X0040135Y0106931D02*
X0033017Y0106931D01*
X0033017Y0106333D02*
X0040132Y0106333D01*
X0040128Y0105734D02*
X0033017Y0105734D01*
X0033017Y0105136D02*
X0040125Y0105136D01*
X0040121Y0104537D02*
X0033017Y0104537D01*
X0033017Y0103939D02*
X0040118Y0103939D01*
X0040114Y0103340D02*
X0033017Y0103340D01*
X0033017Y0102742D02*
X0040110Y0102742D01*
X0040107Y0102143D02*
X0033017Y0102143D01*
X0033017Y0101545D02*
X0040103Y0101545D01*
X0040100Y0100946D02*
X0033017Y0100946D01*
X0033017Y0100348D02*
X0040096Y0100348D01*
X0040093Y0099749D02*
X0033017Y0099749D01*
X0033017Y0099151D02*
X0040089Y0099151D01*
X0040085Y0098552D02*
X0033017Y0098552D01*
X0033017Y0097954D02*
X0040082Y0097954D01*
X0040078Y0097355D02*
X0033017Y0097355D01*
X0033017Y0096756D02*
X0040075Y0096756D01*
X0040071Y0096158D02*
X0033017Y0096158D01*
X0033017Y0095559D02*
X0040068Y0095559D01*
X0040064Y0094961D02*
X0033017Y0094961D01*
X0033163Y0094362D02*
X0040061Y0094362D01*
X0040057Y0093764D02*
X0033642Y0093764D01*
X0033867Y0093165D02*
X0040053Y0093165D01*
X0040050Y0092567D02*
X0034040Y0092567D01*
X0034009Y0091968D02*
X0040046Y0091968D01*
X0039532Y0091370D02*
X0033943Y0091370D01*
X0033664Y0090771D02*
X0039011Y0090771D01*
X0042751Y0088976D02*
X0067115Y0088976D01*
X0067669Y0088377D02*
X0042230Y0088377D01*
X0041710Y0087779D02*
X0068222Y0087779D01*
X0068776Y0087180D02*
X0041217Y0087180D01*
X0040669Y0086582D02*
X0069329Y0086582D01*
X0069883Y0085983D02*
X0026417Y0085983D01*
X0026417Y0085385D02*
X0070436Y0085385D01*
X0070989Y0084786D02*
X0026417Y0084786D01*
X0026417Y0084188D02*
X0071543Y0084188D01*
X0072096Y0083589D02*
X0026417Y0083589D01*
X0026417Y0082991D02*
X0072650Y0082991D01*
X0073203Y0082392D02*
X0026417Y0082392D01*
X0026417Y0081794D02*
X0073756Y0081794D01*
X0074310Y0081195D02*
X0026417Y0081195D01*
X0026417Y0080597D02*
X0074863Y0080597D01*
X0075417Y0079998D02*
X0026417Y0079998D01*
X0026417Y0079400D02*
X0075970Y0079400D01*
X0076523Y0078801D02*
X0026417Y0078801D01*
X0026417Y0078203D02*
X0077077Y0078203D01*
X0077630Y0077604D02*
X0027921Y0077604D01*
X0028564Y0077006D02*
X0068703Y0077006D01*
X0068019Y0076407D02*
X0028939Y0076407D01*
X0029187Y0075809D02*
X0067516Y0075809D01*
X0067221Y0075210D02*
X0029206Y0075210D01*
X0029188Y0074612D02*
X0067022Y0074612D01*
X0066983Y0074013D02*
X0028940Y0074013D01*
X0028567Y0073415D02*
X0066957Y0073415D01*
X0067160Y0072816D02*
X0027929Y0072816D01*
X0024904Y0072816D02*
X0006820Y0072816D01*
X0006820Y0072218D02*
X0067362Y0072218D01*
X0067840Y0071619D02*
X0006820Y0071619D01*
X0006820Y0071020D02*
X0068364Y0071020D01*
X0068888Y0070422D02*
X0006820Y0070422D01*
X0006820Y0069823D02*
X0069412Y0069823D01*
X0069935Y0069225D02*
X0006820Y0069225D01*
X0006820Y0068626D02*
X0070459Y0068626D01*
X0070983Y0068028D02*
X0006820Y0068028D01*
X0006820Y0067429D02*
X0071507Y0067429D01*
X0072030Y0066831D02*
X0006820Y0066831D01*
X0006820Y0066232D02*
X0072554Y0066232D01*
X0073078Y0065634D02*
X0006820Y0065634D01*
X0006820Y0065035D02*
X0073602Y0065035D01*
X0074126Y0064437D02*
X0006820Y0064437D01*
X0006820Y0063838D02*
X0074649Y0063838D01*
X0075173Y0063240D02*
X0006820Y0063240D01*
X0013656Y0062641D02*
X0075697Y0062641D01*
X0076221Y0062043D02*
X0015519Y0062043D01*
X0016585Y0061444D02*
X0076744Y0061444D01*
X0077268Y0060846D02*
X0017676Y0060846D01*
X0018457Y0060247D02*
X0077792Y0060247D01*
X0078316Y0059649D02*
X0019288Y0059649D01*
X0019954Y0059050D02*
X0078840Y0059050D01*
X0079363Y0058452D02*
X0020590Y0058452D01*
X0021082Y0057853D02*
X0079887Y0057853D01*
X0080411Y0057255D02*
X0021488Y0057255D01*
X0021985Y0056656D02*
X0080935Y0056656D01*
X0081458Y0056058D02*
X0069979Y0056058D01*
X0071051Y0055459D02*
X0081982Y0055459D01*
X0082506Y0054861D02*
X0071604Y0054861D01*
X0071852Y0054262D02*
X0083030Y0054262D01*
X0083554Y0053664D02*
X0071996Y0053664D01*
X0072209Y0053065D02*
X0084077Y0053065D01*
X0084601Y0052467D02*
X0072717Y0052467D01*
X0073224Y0051868D02*
X0085125Y0051868D01*
X0085649Y0051270D02*
X0073732Y0051270D01*
X0074239Y0050671D02*
X0086172Y0050671D01*
X0086696Y0050073D02*
X0074746Y0050073D01*
X0075254Y0049474D02*
X0087220Y0049474D01*
X0087744Y0048876D02*
X0075761Y0048876D01*
X0076269Y0048277D02*
X0088268Y0048277D01*
X0088791Y0047679D02*
X0076776Y0047679D01*
X0077283Y0047080D02*
X0089315Y0047080D01*
X0089839Y0046482D02*
X0077791Y0046482D01*
X0078298Y0045883D02*
X0090363Y0045883D01*
X0090886Y0045285D02*
X0079434Y0045285D01*
X0080216Y0044686D02*
X0091410Y0044686D01*
X0091934Y0044087D02*
X0080648Y0044087D01*
X0080896Y0043489D02*
X0092458Y0043489D01*
X0092982Y0042890D02*
X0080956Y0042890D01*
X0080956Y0042292D02*
X0093505Y0042292D01*
X0093982Y0041693D02*
X0080731Y0041693D01*
X0080415Y0041095D02*
X0094553Y0041095D01*
X0098093Y0047679D02*
X0243761Y0047679D01*
X0244118Y0047563D02*
X0244118Y0047563D01*
X0245751Y0048093D01*
X0246136Y0047708D01*
X0247943Y0047708D01*
X0248067Y0047832D01*
X0248571Y0048123D01*
X0248986Y0047708D01*
X0250793Y0047708D01*
X0250917Y0047832D01*
X0251810Y0048348D01*
X0251967Y0048131D01*
X0251967Y0048131D01*
X0251967Y0048131D01*
X0253718Y0047563D01*
X0255469Y0048131D01*
X0255469Y0048131D01*
X0255603Y0048315D01*
X0256440Y0047832D01*
X0256563Y0047708D01*
X0259304Y0047708D01*
X0260417Y0048821D01*
X0260417Y0053195D01*
X0260417Y0054595D01*
X0259304Y0055708D01*
X0257730Y0055708D01*
X0256617Y0054595D01*
X0256617Y0054308D01*
X0256563Y0054308D01*
X0256440Y0054185D01*
X0255603Y0053702D01*
X0255469Y0053885D01*
X0253718Y0054454D01*
X0252606Y0054093D01*
X0252606Y0054595D01*
X0251493Y0055708D01*
X0249919Y0055708D01*
X0249281Y0055070D01*
X0248643Y0055708D01*
X0247069Y0055708D01*
X0245956Y0054595D01*
X0245956Y0054129D01*
X0245751Y0053924D01*
X0244118Y0054454D01*
X0242367Y0053885D01*
X0242246Y0053718D01*
X0241655Y0054308D01*
X0237981Y0054308D01*
X0237858Y0054185D01*
X0236865Y0053612D01*
X0236865Y0053612D01*
X0236865Y0053612D01*
X0236292Y0052619D01*
X0236168Y0052495D01*
X0236168Y0048821D01*
X0237281Y0047708D01*
X0241655Y0047708D01*
X0242246Y0048299D01*
X0242367Y0048131D01*
X0244118Y0047563D01*
X0244475Y0047679D02*
X0253361Y0047679D01*
X0253718Y0047563D02*
X0253718Y0047563D01*
X0254075Y0047679D02*
X0262146Y0047679D01*
X0262948Y0048277D02*
X0259873Y0048277D01*
X0260417Y0048876D02*
X0263750Y0048876D01*
X0264552Y0049474D02*
X0260417Y0049474D01*
X0260417Y0050073D02*
X0265355Y0050073D01*
X0266157Y0050671D02*
X0260417Y0050671D01*
X0260417Y0051270D02*
X0266959Y0051270D01*
X0267751Y0051868D02*
X0260417Y0051868D01*
X0260417Y0052467D02*
X0268563Y0052467D01*
X0269402Y0053065D02*
X0260417Y0053065D01*
X0260417Y0053664D02*
X0270227Y0053664D01*
X0271053Y0054262D02*
X0260417Y0054262D01*
X0260151Y0054861D02*
X0271878Y0054861D01*
X0272704Y0055459D02*
X0259553Y0055459D01*
X0259865Y0056403D02*
X0259924Y0056454D01*
X0260003Y0056454D01*
X0260543Y0056989D01*
X0266248Y0061919D01*
X0266972Y0061919D01*
X0267997Y0062344D01*
X0268781Y0063128D01*
X0269206Y0064154D01*
X0269206Y0065263D01*
X0268781Y0066288D01*
X0267997Y0067073D01*
X0266972Y0067497D01*
X0265862Y0067497D01*
X0264837Y0067073D01*
X0264052Y0066288D01*
X0263628Y0065263D01*
X0263628Y0064941D01*
X0258444Y0060461D01*
X0255784Y0060474D01*
X0255497Y0060762D01*
X0254472Y0061186D01*
X0253362Y0061186D01*
X0252337Y0060762D01*
X0251552Y0059977D01*
X0251128Y0058952D01*
X0251128Y0057843D01*
X0251552Y0056817D01*
X0252337Y0056033D01*
X0253362Y0055608D01*
X0254472Y0055608D01*
X0255497Y0056033D01*
X0255937Y0056474D01*
X0259106Y0056458D01*
X0259865Y0056403D01*
X0260207Y0056656D02*
X0274686Y0056656D01*
X0273481Y0056058D02*
X0255521Y0056058D01*
X0256882Y0054861D02*
X0252341Y0054861D01*
X0252606Y0054262D02*
X0253128Y0054262D01*
X0253718Y0054454D02*
X0253718Y0054454D01*
X0254309Y0054262D02*
X0256517Y0054262D01*
X0255469Y0053885D02*
X0255469Y0053885D01*
X0255469Y0053885D01*
X0257481Y0055459D02*
X0251742Y0055459D01*
X0252312Y0056058D02*
X0227550Y0056058D01*
X0226672Y0055459D02*
X0246820Y0055459D01*
X0246222Y0054861D02*
X0225793Y0054861D01*
X0224914Y0054262D02*
X0237935Y0054262D01*
X0236955Y0053664D02*
X0224035Y0053664D01*
X0223156Y0053065D02*
X0236549Y0053065D01*
X0236168Y0052467D02*
X0222278Y0052467D01*
X0221399Y0051868D02*
X0236168Y0051868D01*
X0236168Y0051270D02*
X0220520Y0051270D01*
X0219641Y0050671D02*
X0236168Y0050671D01*
X0236168Y0050073D02*
X0218762Y0050073D01*
X0217884Y0049474D02*
X0236168Y0049474D01*
X0236168Y0048876D02*
X0217005Y0048876D01*
X0216189Y0048277D02*
X0236713Y0048277D01*
X0242224Y0048277D02*
X0242261Y0048277D01*
X0242367Y0048131D02*
X0242367Y0048131D01*
X0242367Y0048131D01*
X0251688Y0048277D02*
X0251861Y0048277D01*
X0255575Y0048277D02*
X0255668Y0048277D01*
X0245956Y0054262D02*
X0244709Y0054262D01*
X0244118Y0054454D02*
X0244118Y0054454D01*
X0243528Y0054262D02*
X0241701Y0054262D01*
X0242367Y0053885D02*
X0242367Y0053885D01*
X0248892Y0055459D02*
X0249670Y0055459D01*
X0251714Y0056656D02*
X0228429Y0056656D01*
X0229308Y0057255D02*
X0251371Y0057255D01*
X0251128Y0057853D02*
X0230187Y0057853D01*
X0231066Y0058452D02*
X0251128Y0058452D01*
X0251168Y0059050D02*
X0231944Y0059050D01*
X0232823Y0059649D02*
X0251416Y0059649D01*
X0251823Y0060247D02*
X0233702Y0060247D01*
X0234581Y0060846D02*
X0252540Y0060846D01*
X0255294Y0060846D02*
X0258889Y0060846D01*
X0259581Y0061444D02*
X0235460Y0061444D01*
X0236338Y0062043D02*
X0260274Y0062043D01*
X0260966Y0062641D02*
X0237217Y0062641D01*
X0238096Y0063240D02*
X0261659Y0063240D01*
X0262351Y0063838D02*
X0238975Y0063838D01*
X0239853Y0064437D02*
X0263044Y0064437D01*
X0263628Y0065035D02*
X0240732Y0065035D01*
X0241611Y0065634D02*
X0263781Y0065634D01*
X0264029Y0066232D02*
X0242490Y0066232D01*
X0243369Y0066831D02*
X0264595Y0066831D01*
X0265698Y0067429D02*
X0244247Y0067429D01*
X0245126Y0068028D02*
X0266932Y0068028D01*
X0267135Y0067429D02*
X0267612Y0067429D01*
X0268238Y0066831D02*
X0268291Y0066831D01*
X0268804Y0066232D02*
X0268971Y0066232D01*
X0269052Y0065634D02*
X0269650Y0065634D01*
X0269206Y0065035D02*
X0270330Y0065035D01*
X0271009Y0064437D02*
X0269206Y0064437D01*
X0269075Y0063838D02*
X0271689Y0063838D01*
X0272365Y0063240D02*
X0268827Y0063240D01*
X0268294Y0062641D02*
X0273047Y0062641D01*
X0273065Y0062641D02*
X0278944Y0062641D01*
X0278065Y0062043D02*
X0267270Y0062043D01*
X0265699Y0061444D02*
X0277593Y0061444D01*
X0277345Y0060846D02*
X0265006Y0060846D01*
X0264313Y0060247D02*
X0277257Y0060247D01*
X0277257Y0059649D02*
X0263621Y0059649D01*
X0262928Y0059050D02*
X0277453Y0059050D01*
X0277729Y0058452D02*
X0262236Y0058452D01*
X0261543Y0057853D02*
X0278328Y0057853D01*
X0280940Y0057255D02*
X0260851Y0057255D01*
X0274578Y0048361D02*
X0274578Y0038877D01*
X0021423Y0038877D01*
X0023223Y0041095D02*
X0075918Y0041095D01*
X0075603Y0041693D02*
X0023223Y0041693D01*
X0023223Y0042292D02*
X0075378Y0042292D01*
X0075329Y0042890D02*
X0023223Y0042890D01*
X0023223Y0043489D02*
X0074822Y0043489D01*
X0074314Y0044087D02*
X0023223Y0044087D01*
X0023223Y0044686D02*
X0073807Y0044686D01*
X0073299Y0045285D02*
X0023223Y0045285D01*
X0023223Y0045883D02*
X0072792Y0045883D01*
X0072285Y0046482D02*
X0023223Y0046482D01*
X0023223Y0047080D02*
X0071777Y0047080D01*
X0071270Y0047679D02*
X0023223Y0047679D01*
X0023223Y0048277D02*
X0070762Y0048277D01*
X0070255Y0048876D02*
X0023223Y0048876D01*
X0023223Y0049474D02*
X0069748Y0049474D01*
X0069240Y0050073D02*
X0023223Y0050073D01*
X0023223Y0050671D02*
X0068408Y0050671D01*
X0067352Y0051270D02*
X0023223Y0051270D01*
X0023223Y0051868D02*
X0066806Y0051868D01*
X0066558Y0052467D02*
X0023223Y0052467D01*
X0023259Y0053065D02*
X0066418Y0053065D01*
X0066418Y0053664D02*
X0023223Y0053664D01*
X0023102Y0054262D02*
X0066563Y0054262D01*
X0066811Y0054861D02*
X0022901Y0054861D01*
X0022586Y0055459D02*
X0067364Y0055459D01*
X0068435Y0056058D02*
X0022386Y0056058D01*
X0024266Y0073415D02*
X0006820Y0073415D01*
X0006820Y0074013D02*
X0023893Y0074013D01*
X0023645Y0074612D02*
X0006820Y0074612D01*
X0006820Y0075210D02*
X0023337Y0075210D01*
X0022694Y0075809D02*
X0006820Y0075809D01*
X0006820Y0076407D02*
X0022417Y0076407D01*
X0022409Y0077006D02*
X0006820Y0077006D01*
X0006820Y0077604D02*
X0022369Y0077604D01*
X0022417Y0078203D02*
X0006820Y0078203D01*
X0006820Y0078801D02*
X0022417Y0078801D01*
X0022417Y0079400D02*
X0006820Y0079400D01*
X0006820Y0079998D02*
X0022417Y0079998D01*
X0022417Y0080597D02*
X0006820Y0080597D01*
X0006820Y0081195D02*
X0022417Y0081195D01*
X0022417Y0081794D02*
X0006820Y0081794D01*
X0006820Y0082392D02*
X0022417Y0082392D01*
X0022417Y0082991D02*
X0006820Y0082991D01*
X0006820Y0083589D02*
X0022417Y0083589D01*
X0022417Y0084188D02*
X0006820Y0084188D01*
X0006820Y0084786D02*
X0022417Y0084786D01*
X0022417Y0085385D02*
X0006820Y0085385D01*
X0006820Y0085983D02*
X0022417Y0085983D01*
X0022417Y0086582D02*
X0006820Y0086582D01*
X0006820Y0087180D02*
X0022417Y0087180D01*
X0022417Y0087779D02*
X0006820Y0087779D01*
X0006820Y0088377D02*
X0022417Y0088377D01*
X0022417Y0088976D02*
X0006820Y0088976D01*
X0006820Y0089574D02*
X0022417Y0089574D01*
X0022417Y0090173D02*
X0006820Y0090173D01*
X0006820Y0090771D02*
X0022417Y0090771D01*
X0022417Y0091370D02*
X0006820Y0091370D01*
X0016413Y0091968D02*
X0022417Y0091968D01*
X0022417Y0092567D02*
X0017522Y0092567D01*
X0017965Y0093165D02*
X0022417Y0093165D01*
X0022417Y0093764D02*
X0018385Y0093764D01*
X0018582Y0094362D02*
X0022417Y0094362D01*
X0022417Y0094961D02*
X0018859Y0094961D01*
X0019060Y0095559D02*
X0022417Y0095559D01*
X0022417Y0096158D02*
X0019105Y0096158D01*
X0019076Y0096756D02*
X0022417Y0096756D01*
X0022417Y0097355D02*
X0018965Y0097355D01*
X0018905Y0097954D02*
X0022417Y0097954D01*
X0022417Y0098552D02*
X0018800Y0098552D01*
X0018552Y0099151D02*
X0022417Y0099151D01*
X0022417Y0099749D02*
X0018166Y0099749D01*
X0017639Y0100348D02*
X0022417Y0100348D01*
X0022417Y0100946D02*
X0017017Y0100946D01*
X0043271Y0089574D02*
X0066512Y0089574D01*
X0066480Y0090173D02*
X0043839Y0090173D01*
X0044077Y0090771D02*
X0066483Y0090771D01*
X0066469Y0091370D02*
X0044043Y0091370D01*
X0044046Y0091968D02*
X0066455Y0091968D01*
X0066440Y0092567D02*
X0044050Y0092567D01*
X0044053Y0093165D02*
X0066426Y0093165D01*
X0066412Y0093764D02*
X0044057Y0093764D01*
X0044061Y0094362D02*
X0062318Y0094362D01*
X0061720Y0094961D02*
X0044064Y0094961D01*
X0044068Y0095559D02*
X0061374Y0095559D01*
X0061128Y0096158D02*
X0044071Y0096158D01*
X0044075Y0096756D02*
X0061128Y0096756D01*
X0061166Y0097355D02*
X0044078Y0097355D01*
X0044082Y0097954D02*
X0061414Y0097954D01*
X0061816Y0098552D02*
X0044086Y0098552D01*
X0044089Y0099151D02*
X0062525Y0099151D01*
X0065515Y0094362D02*
X0066397Y0094362D01*
X0070398Y0094362D02*
X0087561Y0094362D01*
X0088175Y0093764D02*
X0070413Y0093764D01*
X0070427Y0093165D02*
X0088790Y0093165D01*
X0089405Y0092567D02*
X0070441Y0092567D01*
X0070456Y0091968D02*
X0090019Y0091968D01*
X0090634Y0091370D02*
X0070470Y0091370D01*
X0070473Y0091236D02*
X0070342Y0096730D01*
X0070352Y0102176D01*
X0070376Y0102152D01*
X0070448Y0102152D01*
X0071628Y0101112D01*
X0071628Y0100654D01*
X0072052Y0099628D01*
X0072837Y0098844D01*
X0073862Y0098419D01*
X0074972Y0098419D01*
X0075997Y0098844D01*
X0076781Y0099628D01*
X0077206Y0100654D01*
X0077206Y0101763D01*
X0076781Y0102788D01*
X0075997Y0103573D01*
X0074972Y0103997D01*
X0074403Y0103997D01*
X0073204Y0105055D01*
X0073204Y0111611D01*
X0073196Y0111619D01*
X0073196Y0112116D01*
X0073268Y0112006D01*
X0073482Y0111962D01*
X0073636Y0111808D01*
X0074229Y0111808D01*
X0074810Y0111689D01*
X0074992Y0111808D01*
X0079704Y0111808D01*
X0083204Y0115308D01*
X0086704Y0115308D01*
X0087817Y0116421D01*
X0090204Y0118808D01*
X0091317Y0119921D01*
X0091317Y0132108D01*
X0101373Y0132108D01*
X0101052Y0131788D01*
X0100628Y0130763D01*
X0100628Y0129654D01*
X0101052Y0128628D01*
X0101837Y0127844D01*
X0102862Y0127419D01*
X0103377Y0127419D01*
X0106928Y0123869D01*
X0106928Y0122392D01*
X0108099Y0121220D01*
X0108679Y0120641D01*
X0109850Y0119469D01*
X0118327Y0119469D01*
X0123128Y0114669D01*
X0123128Y0114154D01*
X0123552Y0113128D01*
X0124337Y0112344D01*
X0125362Y0111919D01*
X0126472Y0111919D01*
X0127497Y0112344D01*
X0128281Y0113128D01*
X0128706Y0114154D01*
X0128706Y0115263D01*
X0128281Y0116288D01*
X0127497Y0117073D01*
X0126472Y0117497D01*
X0125956Y0117497D01*
X0121784Y0121669D01*
X0122472Y0121669D01*
X0123497Y0122094D01*
X0124281Y0122878D01*
X0124625Y0123708D01*
X0140995Y0123708D01*
X0145167Y0127880D01*
X0145167Y0129400D01*
X0148824Y0133057D01*
X0227503Y0132960D01*
X0227503Y0132904D01*
X0227927Y0131878D01*
X0228712Y0131094D01*
X0229737Y0130669D01*
X0230847Y0130669D01*
X0231872Y0131094D01*
X0232234Y0131456D01*
X0232388Y0125810D01*
X0232305Y0125139D01*
X0232410Y0125003D01*
X0232415Y0124830D01*
X0232907Y0124365D01*
X0237671Y0118242D01*
X0237671Y0118094D01*
X0238168Y0117603D01*
X0238597Y0117051D01*
X0238744Y0117033D01*
X0238849Y0116929D01*
X0239548Y0116933D01*
X0240241Y0116846D01*
X0240358Y0116937D01*
X0244080Y0116958D01*
X0243830Y0116390D01*
X0243804Y0115157D01*
X0244252Y0114008D01*
X0261356Y0096168D01*
X0262155Y0095817D01*
X0257062Y0095788D01*
X0254733Y0097820D01*
X0254195Y0098358D01*
X0254117Y0098358D01*
X0254058Y0098410D01*
X0253299Y0098358D01*
X0241988Y0098358D01*
X0237977Y0094347D01*
X0238107Y0094716D01*
X0238028Y0094882D01*
X0238140Y0095582D01*
X0238277Y0095729D01*
X0238255Y0096296D01*
X0238344Y0096855D01*
X0238226Y0097018D01*
X0238197Y0097762D01*
X0238312Y0097965D01*
X0238169Y0098483D01*
X0238148Y0099019D01*
X0237977Y0099178D01*
X0237765Y0099944D01*
X0237831Y0100206D01*
X0237573Y0100637D01*
X0237439Y0101122D01*
X0237205Y0101255D01*
X0236754Y0102010D01*
X0236740Y0102304D01*
X0236386Y0102626D01*
X0236141Y0103038D01*
X0235855Y0103110D01*
X0235181Y0103723D01*
X0235139Y0103902D01*
X0234645Y0104211D01*
X0234214Y0104604D01*
X0234030Y0104595D01*
X0195310Y0128786D01*
X0195273Y0128892D01*
X0194690Y0129173D01*
X0194141Y0129516D01*
X0194032Y0129491D01*
X0192588Y0130187D01*
X0192488Y0130357D01*
X0191936Y0130501D01*
X0191422Y0130749D01*
X0191236Y0130684D01*
X0189144Y0131229D01*
X0189066Y0131331D01*
X0188438Y0131413D01*
X0187825Y0131573D01*
X0187714Y0131508D01*
X0185296Y0131826D01*
X0185229Y0131898D01*
X0184570Y0131922D01*
X0183915Y0132008D01*
X0183837Y0131948D01*
X0181275Y0132039D01*
X0181207Y0132100D01*
X0180541Y0132065D01*
X0179875Y0132089D01*
X0179809Y0132027D01*
X0177312Y0131898D01*
X0177232Y0131958D01*
X0176581Y0131860D01*
X0175923Y0131827D01*
X0175856Y0131752D01*
X0173631Y0131420D01*
X0173513Y0131485D01*
X0172911Y0131312D01*
X0172291Y0131219D01*
X0172210Y0131110D01*
X0170415Y0130593D01*
X0170195Y0130656D01*
X0169722Y0130394D01*
X0169203Y0130244D01*
X0169092Y0130044D01*
X0168124Y0129506D01*
X0168076Y0129517D01*
X0167479Y0129147D01*
X0166865Y0128806D01*
X0166851Y0128758D01*
X0128750Y0105122D01*
X0128681Y0105133D01*
X0128124Y0104734D01*
X0127542Y0104373D01*
X0127526Y0104305D01*
X0126387Y0103487D01*
X0126135Y0103465D01*
X0125803Y0103068D01*
X0125382Y0102766D01*
X0125341Y0102516D01*
X0124503Y0101514D01*
X0124252Y0101421D01*
X0124042Y0100962D01*
X0123718Y0100576D01*
X0123742Y0100309D01*
X0123270Y0099279D01*
X0123051Y0099120D01*
X0122971Y0098625D01*
X0122762Y0098169D01*
X0122856Y0097915D01*
X0122694Y0096908D01*
X0122525Y0096700D01*
X0122579Y0096198D01*
X0122498Y0095701D01*
X0122655Y0095484D01*
X0122757Y0094533D01*
X0122650Y0094289D01*
X0122833Y0093817D01*
X0122887Y0093314D01*
X0123094Y0093147D01*
X0123431Y0092279D01*
X0123392Y0092013D01*
X0123692Y0091608D01*
X0123874Y0091139D01*
X0124120Y0091031D01*
X0124685Y0090270D01*
X0124721Y0089995D01*
X0125113Y0089692D01*
X0125408Y0089295D01*
X0125682Y0089254D01*
X0126331Y0088755D01*
X0126351Y0088663D01*
X0126912Y0088307D01*
X0127437Y0087902D01*
X0127531Y0087914D01*
X0160465Y0067021D01*
X0160492Y0066937D01*
X0161085Y0066628D01*
X0161650Y0066270D01*
X0161736Y0066289D01*
X0165879Y0064130D01*
X0165942Y0063999D01*
X0166524Y0063794D01*
X0167072Y0063508D01*
X0167211Y0063552D01*
X0171319Y0062105D01*
X0171407Y0061977D01*
X0172005Y0061864D01*
X0172580Y0061662D01*
X0172719Y0061729D01*
X0176729Y0060969D01*
X0176840Y0060851D01*
X0177443Y0060833D01*
X0178036Y0060721D01*
X0178169Y0060812D01*
X0182059Y0060696D01*
X0182189Y0060596D01*
X0182785Y0060674D01*
X0183386Y0060656D01*
X0183505Y0060768D01*
X0187255Y0061259D01*
X0187397Y0061182D01*
X0187975Y0061353D01*
X0188573Y0061431D01*
X0188672Y0061560D01*
X0192263Y0062625D01*
X0192412Y0062572D01*
X0192960Y0062832D01*
X0193542Y0063005D01*
X0193617Y0063143D01*
X0197030Y0064758D01*
X0197177Y0064728D01*
X0197688Y0065069D01*
X0198242Y0065331D01*
X0198293Y0065472D01*
X0201990Y0067939D01*
X0234194Y0088395D01*
X0234481Y0088414D01*
X0234800Y0088780D01*
X0235209Y0089039D01*
X0235272Y0089321D01*
X0235697Y0089808D01*
X0235891Y0089861D01*
X0236167Y0090343D01*
X0236167Y0088995D01*
X0190783Y0056959D01*
X0158575Y0056983D01*
X0158140Y0056987D01*
X0158781Y0057628D01*
X0159206Y0058654D01*
X0159206Y0059763D01*
X0158781Y0060788D01*
X0157997Y0061573D01*
X0156972Y0061997D01*
X0155929Y0061997D01*
X0145706Y0069191D01*
X0145706Y0069263D01*
X0145281Y0070288D01*
X0144497Y0071073D01*
X0143472Y0071497D01*
X0142362Y0071497D01*
X0141337Y0071073D01*
X0140552Y0070288D01*
X0140128Y0069263D01*
X0140128Y0068154D01*
X0140552Y0067128D01*
X0141337Y0066344D01*
X0142362Y0065919D01*
X0143405Y0065919D01*
X0153628Y0058725D01*
X0153628Y0058654D01*
X0154052Y0057628D01*
X0154665Y0057016D01*
X0132516Y0057199D01*
X0132285Y0057439D01*
X0131892Y0057992D01*
X0131725Y0058020D01*
X0131607Y0058143D01*
X0130928Y0058155D01*
X0130259Y0058269D01*
X0130120Y0058170D01*
X0128860Y0058193D01*
X0128845Y0058208D01*
X0128035Y0058208D01*
X0127225Y0058223D01*
X0127210Y0058208D01*
X0126547Y0058208D01*
X0126385Y0058322D01*
X0125742Y0058208D01*
X0125088Y0058208D01*
X0124948Y0058068D01*
X0124753Y0058034D01*
X0124379Y0057499D01*
X0123917Y0057037D01*
X0123917Y0056839D01*
X0123473Y0056205D01*
X0112154Y0056165D01*
X0111797Y0056523D01*
X0110772Y0056947D01*
X0109662Y0056947D01*
X0108637Y0056523D01*
X0107852Y0055738D01*
X0107428Y0054713D01*
X0107428Y0053604D01*
X0107852Y0052578D01*
X0108473Y0051958D01*
X0106791Y0051958D01*
X0070473Y0091236D01*
X0070903Y0090771D02*
X0091249Y0090771D01*
X0091863Y0090173D02*
X0071457Y0090173D01*
X0072010Y0089574D02*
X0092478Y0089574D01*
X0093093Y0088976D02*
X0072563Y0088976D01*
X0073117Y0088377D02*
X0093707Y0088377D01*
X0094322Y0087779D02*
X0073670Y0087779D01*
X0074224Y0087180D02*
X0094937Y0087180D01*
X0095551Y0086582D02*
X0074777Y0086582D01*
X0075330Y0085983D02*
X0095647Y0085983D01*
X0095628Y0086029D02*
X0096052Y0085003D01*
X0096837Y0084219D01*
X0097862Y0083794D01*
X0098972Y0083794D01*
X0099997Y0084219D01*
X0100781Y0085003D01*
X0101206Y0086029D01*
X0101206Y0087138D01*
X0100781Y0088163D01*
X0099997Y0088948D01*
X0098972Y0089372D01*
X0098419Y0089372D01*
X0082206Y0105159D01*
X0082206Y0105638D01*
X0081781Y0106663D01*
X0080997Y0107448D01*
X0079972Y0107872D01*
X0078862Y0107872D01*
X0077837Y0107448D01*
X0077052Y0106663D01*
X0076628Y0105638D01*
X0076628Y0104529D01*
X0077052Y0103503D01*
X0077837Y0102719D01*
X0078862Y0102294D01*
X0079414Y0102294D01*
X0095628Y0086507D01*
X0095628Y0086029D01*
X0095894Y0085385D02*
X0075884Y0085385D01*
X0076437Y0084786D02*
X0096270Y0084786D01*
X0096912Y0084188D02*
X0076991Y0084188D01*
X0077544Y0083589D02*
X0111622Y0083589D01*
X0111629Y0082991D02*
X0078097Y0082991D01*
X0078651Y0082392D02*
X0111635Y0082392D01*
X0111642Y0081794D02*
X0079204Y0081794D01*
X0079758Y0081195D02*
X0111649Y0081195D01*
X0111655Y0080597D02*
X0080311Y0080597D01*
X0080865Y0079998D02*
X0111662Y0079998D01*
X0111669Y0079400D02*
X0081418Y0079400D01*
X0081971Y0078801D02*
X0111676Y0078801D01*
X0111682Y0078203D02*
X0109026Y0078203D01*
X0109012Y0078208D02*
X0107321Y0078208D01*
X0105759Y0077561D01*
X0104564Y0076366D01*
X0103917Y0074804D01*
X0103917Y0073113D01*
X0104564Y0071551D01*
X0105759Y0070355D01*
X0107321Y0069708D01*
X0109012Y0069708D01*
X0110574Y0070355D01*
X0111770Y0071551D01*
X0112417Y0073113D01*
X0112417Y0074804D01*
X0111788Y0076321D01*
X0112220Y0075899D01*
X0112236Y0075757D01*
X0112944Y0075191D01*
X0113065Y0075073D01*
X0113092Y0075073D01*
X0113917Y0074413D01*
X0113917Y0073113D01*
X0114564Y0071551D01*
X0115759Y0070355D01*
X0117321Y0069708D01*
X0119012Y0069708D01*
X0120574Y0070355D01*
X0121770Y0071551D01*
X0122417Y0073113D01*
X0122417Y0074804D01*
X0121770Y0076366D01*
X0120574Y0077561D01*
X0119012Y0078208D01*
X0117321Y0078208D01*
X0116804Y0077994D01*
X0116280Y0078413D01*
X0116110Y0093533D01*
X0116156Y0093578D01*
X0116581Y0094604D01*
X0116581Y0095713D01*
X0116156Y0096738D01*
X0115372Y0097523D01*
X0114347Y0097947D01*
X0113237Y0097947D01*
X0112212Y0097523D01*
X0111427Y0096738D01*
X0111003Y0095713D01*
X0111003Y0094604D01*
X0111427Y0093578D01*
X0111510Y0093496D01*
X0111702Y0076433D01*
X0110574Y0077561D01*
X0109012Y0078208D01*
X0110471Y0077604D02*
X0111689Y0077604D01*
X0111696Y0077006D02*
X0111130Y0077006D01*
X0112001Y0075809D02*
X0112230Y0075809D01*
X0112248Y0075210D02*
X0112920Y0075210D01*
X0112417Y0074612D02*
X0113668Y0074612D01*
X0113917Y0074013D02*
X0112417Y0074013D01*
X0112417Y0073415D02*
X0113917Y0073415D01*
X0114040Y0072816D02*
X0112294Y0072816D01*
X0112046Y0072218D02*
X0114288Y0072218D01*
X0114536Y0071619D02*
X0111798Y0071619D01*
X0111239Y0071020D02*
X0115094Y0071020D01*
X0115693Y0070422D02*
X0110641Y0070422D01*
X0109290Y0069823D02*
X0117043Y0069823D01*
X0117321Y0068208D02*
X0115759Y0067561D01*
X0114564Y0066366D01*
X0113917Y0064804D01*
X0113917Y0063113D01*
X0114564Y0061551D01*
X0115759Y0060355D01*
X0117321Y0059708D01*
X0119012Y0059708D01*
X0120574Y0060355D01*
X0121770Y0061551D01*
X0122417Y0063113D01*
X0122417Y0064804D01*
X0121770Y0066366D01*
X0120574Y0067561D01*
X0119012Y0068208D01*
X0117321Y0068208D01*
X0116886Y0068028D02*
X0111718Y0068028D01*
X0111538Y0068208D02*
X0112417Y0067330D01*
X0112417Y0060587D01*
X0111538Y0059708D01*
X0104795Y0059708D01*
X0103917Y0060587D01*
X0103917Y0067330D01*
X0104795Y0068208D01*
X0111538Y0068208D01*
X0112317Y0067429D02*
X0115627Y0067429D01*
X0115029Y0066831D02*
X0112417Y0066831D01*
X0112417Y0066232D02*
X0114509Y0066232D01*
X0114261Y0065634D02*
X0112417Y0065634D01*
X0112417Y0065035D02*
X0114013Y0065035D01*
X0113917Y0064437D02*
X0112417Y0064437D01*
X0112417Y0063838D02*
X0113917Y0063838D01*
X0113917Y0063240D02*
X0112417Y0063240D01*
X0112417Y0062641D02*
X0114112Y0062641D01*
X0114360Y0062043D02*
X0112417Y0062043D01*
X0112417Y0061444D02*
X0114670Y0061444D01*
X0115269Y0060846D02*
X0112417Y0060846D01*
X0112077Y0060247D02*
X0116020Y0060247D01*
X0120313Y0060247D02*
X0126020Y0060247D01*
X0125759Y0060355D02*
X0127321Y0059708D01*
X0129012Y0059708D01*
X0130574Y0060355D01*
X0131770Y0061551D01*
X0132417Y0063113D01*
X0132417Y0064804D01*
X0131770Y0066366D01*
X0130574Y0067561D01*
X0129012Y0068208D01*
X0127321Y0068208D01*
X0125759Y0067561D01*
X0124564Y0066366D01*
X0123917Y0064804D01*
X0123917Y0063113D01*
X0124564Y0061551D01*
X0125759Y0060355D01*
X0125269Y0060846D02*
X0121065Y0060846D01*
X0121663Y0061444D02*
X0124670Y0061444D01*
X0124360Y0062043D02*
X0121973Y0062043D01*
X0122221Y0062641D02*
X0124112Y0062641D01*
X0123917Y0063240D02*
X0122417Y0063240D01*
X0122417Y0063838D02*
X0123917Y0063838D01*
X0123917Y0064437D02*
X0122417Y0064437D01*
X0122321Y0065035D02*
X0124013Y0065035D01*
X0124261Y0065634D02*
X0122073Y0065634D01*
X0121825Y0066232D02*
X0124509Y0066232D01*
X0125029Y0066831D02*
X0121305Y0066831D01*
X0120706Y0067429D02*
X0125627Y0067429D01*
X0126886Y0068028D02*
X0119448Y0068028D01*
X0119290Y0069823D02*
X0140360Y0069823D01*
X0140128Y0069225D02*
X0090826Y0069225D01*
X0091379Y0068626D02*
X0140128Y0068626D01*
X0140180Y0068028D02*
X0129448Y0068028D01*
X0130706Y0067429D02*
X0140428Y0067429D01*
X0140850Y0066831D02*
X0131305Y0066831D01*
X0131825Y0066232D02*
X0141606Y0066232D01*
X0143810Y0065634D02*
X0132073Y0065634D01*
X0132321Y0065035D02*
X0144661Y0065035D01*
X0145511Y0064437D02*
X0132417Y0064437D01*
X0132417Y0063838D02*
X0146362Y0063838D01*
X0147213Y0063240D02*
X0132417Y0063240D01*
X0132221Y0062641D02*
X0148063Y0062641D01*
X0148914Y0062043D02*
X0131973Y0062043D01*
X0131663Y0061444D02*
X0149764Y0061444D01*
X0150615Y0060846D02*
X0131065Y0060846D01*
X0130313Y0060247D02*
X0151465Y0060247D01*
X0152316Y0059649D02*
X0099680Y0059649D01*
X0099127Y0060247D02*
X0104256Y0060247D01*
X0103917Y0060846D02*
X0098574Y0060846D01*
X0098020Y0061444D02*
X0103917Y0061444D01*
X0103917Y0062043D02*
X0097467Y0062043D01*
X0096913Y0062641D02*
X0103917Y0062641D01*
X0103917Y0063240D02*
X0096360Y0063240D01*
X0095807Y0063838D02*
X0103917Y0063838D01*
X0103917Y0064437D02*
X0095253Y0064437D01*
X0094700Y0065035D02*
X0103917Y0065035D01*
X0103917Y0065634D02*
X0094146Y0065634D01*
X0093593Y0066232D02*
X0103917Y0066232D01*
X0103917Y0066831D02*
X0093040Y0066831D01*
X0092486Y0067429D02*
X0104017Y0067429D01*
X0104615Y0068028D02*
X0091933Y0068028D01*
X0090273Y0069823D02*
X0107043Y0069823D01*
X0105693Y0070422D02*
X0089719Y0070422D01*
X0089166Y0071020D02*
X0105094Y0071020D01*
X0104536Y0071619D02*
X0088612Y0071619D01*
X0088059Y0072218D02*
X0104288Y0072218D01*
X0104040Y0072816D02*
X0087505Y0072816D01*
X0086952Y0073415D02*
X0103917Y0073415D01*
X0103917Y0074013D02*
X0086399Y0074013D01*
X0085845Y0074612D02*
X0103917Y0074612D01*
X0104085Y0075210D02*
X0085292Y0075210D01*
X0084738Y0075809D02*
X0104333Y0075809D01*
X0104605Y0076407D02*
X0084185Y0076407D01*
X0083632Y0077006D02*
X0105204Y0077006D01*
X0105863Y0077604D02*
X0083078Y0077604D01*
X0082525Y0078203D02*
X0107308Y0078203D01*
X0113992Y0077383D02*
X0114417Y0076958D01*
X0116543Y0078203D02*
X0117308Y0078203D01*
X0116276Y0078801D02*
X0141896Y0078801D01*
X0140953Y0079400D02*
X0116269Y0079400D01*
X0116262Y0079998D02*
X0140009Y0079998D01*
X0139066Y0080597D02*
X0116256Y0080597D01*
X0116249Y0081195D02*
X0138123Y0081195D01*
X0137179Y0081794D02*
X0116242Y0081794D01*
X0116236Y0082392D02*
X0136236Y0082392D01*
X0135292Y0082991D02*
X0116229Y0082991D01*
X0116222Y0083589D02*
X0134349Y0083589D01*
X0133405Y0084188D02*
X0116215Y0084188D01*
X0116209Y0084786D02*
X0132462Y0084786D01*
X0131518Y0085385D02*
X0116202Y0085385D01*
X0116195Y0085983D02*
X0130575Y0085983D01*
X0129631Y0086582D02*
X0116188Y0086582D01*
X0116182Y0087180D02*
X0128688Y0087180D01*
X0127744Y0087779D02*
X0116175Y0087779D01*
X0116168Y0088377D02*
X0126801Y0088377D01*
X0126043Y0088976D02*
X0116161Y0088976D01*
X0116155Y0089574D02*
X0125201Y0089574D01*
X0124698Y0090173D02*
X0116148Y0090173D01*
X0116141Y0090771D02*
X0124313Y0090771D01*
X0123784Y0091370D02*
X0116135Y0091370D01*
X0116128Y0091968D02*
X0123425Y0091968D01*
X0123319Y0092567D02*
X0116121Y0092567D01*
X0116114Y0093165D02*
X0123071Y0093165D01*
X0122839Y0093764D02*
X0116233Y0093764D01*
X0116481Y0094362D02*
X0122682Y0094362D01*
X0122711Y0094961D02*
X0116581Y0094961D01*
X0116581Y0095559D02*
X0122600Y0095559D01*
X0122572Y0096158D02*
X0116396Y0096158D01*
X0116138Y0096756D02*
X0122571Y0096756D01*
X0122766Y0097355D02*
X0115539Y0097355D01*
X0112044Y0097355D02*
X0090221Y0097355D01*
X0090836Y0096756D02*
X0111446Y0096756D01*
X0111187Y0096158D02*
X0091450Y0096158D01*
X0092065Y0095559D02*
X0111003Y0095559D01*
X0111003Y0094961D02*
X0092680Y0094961D01*
X0093294Y0094362D02*
X0111103Y0094362D01*
X0111351Y0093764D02*
X0093909Y0093764D01*
X0094524Y0093165D02*
X0111514Y0093165D01*
X0111521Y0092567D02*
X0095138Y0092567D01*
X0095753Y0091968D02*
X0111528Y0091968D01*
X0111534Y0091370D02*
X0096368Y0091370D01*
X0096982Y0090771D02*
X0111541Y0090771D01*
X0111548Y0090173D02*
X0097597Y0090173D01*
X0098212Y0089574D02*
X0111554Y0089574D01*
X0111561Y0088976D02*
X0099929Y0088976D01*
X0100567Y0088377D02*
X0111568Y0088377D01*
X0111575Y0087779D02*
X0100940Y0087779D01*
X0101188Y0087180D02*
X0111581Y0087180D01*
X0111588Y0086582D02*
X0101206Y0086582D01*
X0101187Y0085983D02*
X0111595Y0085983D01*
X0111602Y0085385D02*
X0100939Y0085385D01*
X0100564Y0084786D02*
X0111608Y0084786D01*
X0111615Y0084188D02*
X0099921Y0084188D01*
X0119026Y0078203D02*
X0142840Y0078203D01*
X0143783Y0077604D02*
X0129948Y0077604D01*
X0130085Y0077547D02*
X0129348Y0077853D01*
X0128566Y0078008D01*
X0128467Y0078008D01*
X0128467Y0074258D01*
X0132217Y0074258D01*
X0132217Y0074357D01*
X0132061Y0075140D01*
X0131756Y0075877D01*
X0131313Y0076540D01*
X0130748Y0077104D01*
X0130085Y0077547D01*
X0130847Y0077006D02*
X0144727Y0077006D01*
X0145670Y0076407D02*
X0131401Y0076407D01*
X0131784Y0075809D02*
X0146614Y0075809D01*
X0147557Y0075210D02*
X0132032Y0075210D01*
X0132166Y0074612D02*
X0148501Y0074612D01*
X0149444Y0074013D02*
X0128467Y0074013D01*
X0128467Y0074258D02*
X0128467Y0073658D01*
X0128467Y0069908D01*
X0128566Y0069908D01*
X0129348Y0070064D01*
X0130085Y0070369D01*
X0130748Y0070812D01*
X0131313Y0071377D01*
X0131756Y0072040D01*
X0132061Y0072777D01*
X0132217Y0073559D01*
X0132217Y0073658D01*
X0128467Y0073658D01*
X0127867Y0073658D01*
X0127867Y0069908D01*
X0127768Y0069908D01*
X0126985Y0070064D01*
X0126248Y0070369D01*
X0125585Y0070812D01*
X0125021Y0071377D01*
X0124578Y0072040D01*
X0124272Y0072777D01*
X0124117Y0073559D01*
X0124117Y0073658D01*
X0127867Y0073658D01*
X0127867Y0074258D01*
X0124117Y0074258D01*
X0124117Y0074357D01*
X0124272Y0075140D01*
X0124578Y0075877D01*
X0125021Y0076540D01*
X0125585Y0077104D01*
X0126248Y0077547D01*
X0126985Y0077853D01*
X0127768Y0078008D01*
X0127867Y0078008D01*
X0127867Y0074258D01*
X0128467Y0074258D01*
X0128467Y0074612D02*
X0127867Y0074612D01*
X0127867Y0075210D02*
X0128467Y0075210D01*
X0128467Y0075809D02*
X0127867Y0075809D01*
X0127867Y0076407D02*
X0128467Y0076407D01*
X0128467Y0077006D02*
X0127867Y0077006D01*
X0127867Y0077604D02*
X0128467Y0077604D01*
X0126385Y0077604D02*
X0120471Y0077604D01*
X0121130Y0077006D02*
X0125487Y0077006D01*
X0124932Y0076407D02*
X0121728Y0076407D01*
X0122001Y0075809D02*
X0124550Y0075809D01*
X0124302Y0075210D02*
X0122248Y0075210D01*
X0122417Y0074612D02*
X0124167Y0074612D01*
X0124146Y0073415D02*
X0122417Y0073415D01*
X0122417Y0074013D02*
X0127867Y0074013D01*
X0127867Y0073415D02*
X0128467Y0073415D01*
X0128467Y0072816D02*
X0127867Y0072816D01*
X0127867Y0072218D02*
X0128467Y0072218D01*
X0128467Y0071619D02*
X0127867Y0071619D01*
X0127867Y0071020D02*
X0128467Y0071020D01*
X0128467Y0070422D02*
X0127867Y0070422D01*
X0126169Y0070422D02*
X0120641Y0070422D01*
X0121239Y0071020D02*
X0125377Y0071020D01*
X0124859Y0071619D02*
X0121798Y0071619D01*
X0122046Y0072218D02*
X0124504Y0072218D01*
X0124265Y0072816D02*
X0122294Y0072816D01*
X0130164Y0070422D02*
X0140686Y0070422D01*
X0141285Y0071020D02*
X0130957Y0071020D01*
X0131475Y0071619D02*
X0153218Y0071619D01*
X0154161Y0071020D02*
X0144549Y0071020D01*
X0145147Y0070422D02*
X0155105Y0070422D01*
X0156048Y0069823D02*
X0145474Y0069823D01*
X0145706Y0069225D02*
X0156992Y0069225D01*
X0157935Y0068626D02*
X0146508Y0068626D01*
X0147359Y0068028D02*
X0158879Y0068028D01*
X0159822Y0067429D02*
X0148209Y0067429D01*
X0149060Y0066831D02*
X0160696Y0066831D01*
X0161845Y0066232D02*
X0149910Y0066232D01*
X0150761Y0065634D02*
X0162993Y0065634D01*
X0164141Y0065035D02*
X0151611Y0065035D01*
X0152462Y0064437D02*
X0165290Y0064437D01*
X0166397Y0063838D02*
X0153313Y0063838D01*
X0154163Y0063240D02*
X0168097Y0063240D01*
X0169797Y0062641D02*
X0155014Y0062641D01*
X0155864Y0062043D02*
X0171362Y0062043D01*
X0172474Y0063607D02*
X0167243Y0065449D01*
X0161985Y0068189D01*
X0127945Y0089783D01*
X0126410Y0090966D01*
X0125282Y0092486D01*
X0124597Y0094247D01*
X0124394Y0096150D01*
X0124709Y0098097D01*
X0125577Y0099993D01*
X0127037Y0101738D01*
X0129125Y0103236D01*
X0168391Y0127595D01*
X0170418Y0128721D01*
X0173294Y0129549D01*
X0176760Y0130067D01*
X0180556Y0130263D01*
X0184420Y0130126D01*
X0188092Y0129643D01*
X0191312Y0128804D01*
X0193820Y0127595D01*
X0233553Y0102771D01*
X0234977Y0101475D01*
X0235903Y0099923D01*
X0236379Y0098204D01*
X0236449Y0096404D01*
X0236162Y0094612D01*
X0235563Y0092915D01*
X0234698Y0091402D01*
X0233615Y0090159D01*
X0201009Y0069447D01*
X0196799Y0066639D01*
X0192316Y0064518D01*
X0187600Y0063119D01*
X0182694Y0062478D01*
X0177638Y0062628D01*
X0172474Y0063607D01*
X0172891Y0065157D02*
X0167881Y0066920D01*
X0162785Y0069577D01*
X0128864Y0091095D01*
X0127562Y0092098D01*
X0126695Y0093267D01*
X0126166Y0094628D01*
X0126008Y0096106D01*
X0126254Y0097628D01*
X0126943Y0099131D01*
X0128135Y0100556D01*
X0130014Y0101905D01*
X0169202Y0126215D01*
X0171035Y0127234D01*
X0173635Y0127982D01*
X0176920Y0128474D01*
X0180569Y0128662D01*
X0184287Y0128530D01*
X0187785Y0128070D01*
X0190758Y0127295D01*
X0193046Y0126191D01*
X0232583Y0101490D01*
X0233725Y0100451D01*
X0234418Y0099289D01*
X0234787Y0097956D01*
X0234844Y0096500D01*
X0234605Y0095008D01*
X0234102Y0093583D01*
X0233388Y0092333D01*
X0232561Y0091385D01*
X0200692Y0071142D01*
X0200672Y0071146D01*
X0200135Y0070788D01*
X0199591Y0070443D01*
X0199587Y0070422D01*
X0196008Y0068036D01*
X0191743Y0066017D01*
X0187267Y0064689D01*
X0182614Y0064081D01*
X0177812Y0064224D01*
X0172891Y0065157D01*
X0173531Y0065035D02*
X0188433Y0065035D01*
X0190451Y0065634D02*
X0171535Y0065634D01*
X0169835Y0066232D02*
X0192198Y0066232D01*
X0193463Y0066831D02*
X0168135Y0066831D01*
X0166904Y0067429D02*
X0194727Y0067429D01*
X0195992Y0068028D02*
X0165756Y0068028D01*
X0164608Y0068626D02*
X0196894Y0068626D01*
X0197792Y0069225D02*
X0163459Y0069225D01*
X0162395Y0069823D02*
X0198689Y0069823D01*
X0199586Y0070422D02*
X0161452Y0070422D01*
X0160508Y0071020D02*
X0200484Y0071020D01*
X0201443Y0071619D02*
X0159565Y0071619D01*
X0158621Y0072218D02*
X0202386Y0072218D01*
X0203328Y0072816D02*
X0157678Y0072816D01*
X0156734Y0073415D02*
X0204270Y0073415D01*
X0205212Y0074013D02*
X0155791Y0074013D01*
X0154848Y0074612D02*
X0206155Y0074612D01*
X0207097Y0075210D02*
X0153904Y0075210D01*
X0152961Y0075809D02*
X0208039Y0075809D01*
X0208981Y0076407D02*
X0152017Y0076407D01*
X0151074Y0077006D02*
X0209923Y0077006D01*
X0210866Y0077604D02*
X0150130Y0077604D01*
X0149187Y0078203D02*
X0211808Y0078203D01*
X0212750Y0078801D02*
X0148243Y0078801D01*
X0147300Y0079400D02*
X0213692Y0079400D01*
X0214635Y0079998D02*
X0146356Y0079998D01*
X0145413Y0080597D02*
X0215577Y0080597D01*
X0216519Y0081195D02*
X0144470Y0081195D01*
X0143526Y0081794D02*
X0217461Y0081794D01*
X0218403Y0082392D02*
X0142583Y0082392D01*
X0141639Y0082991D02*
X0219346Y0082991D01*
X0220288Y0083589D02*
X0140696Y0083589D01*
X0139752Y0084188D02*
X0221230Y0084188D01*
X0222172Y0084786D02*
X0138809Y0084786D01*
X0137865Y0085385D02*
X0223115Y0085385D01*
X0224057Y0085983D02*
X0136922Y0085983D01*
X0135978Y0086582D02*
X0224999Y0086582D01*
X0225941Y0087180D02*
X0135035Y0087180D01*
X0134091Y0087779D02*
X0226884Y0087779D01*
X0227826Y0088377D02*
X0133148Y0088377D01*
X0132205Y0088976D02*
X0228768Y0088976D01*
X0229710Y0089574D02*
X0197455Y0089574D01*
X0197289Y0089408D02*
X0198226Y0090346D01*
X0198226Y0095808D01*
X0199067Y0095808D01*
X0200004Y0096746D01*
X0200004Y0098071D01*
X0199067Y0099008D01*
X0194186Y0099008D01*
X0193652Y0098474D01*
X0193118Y0099008D01*
X0191793Y0099008D01*
X0190855Y0098071D01*
X0190855Y0093449D01*
X0190855Y0092786D01*
X0190849Y0092740D01*
X0190803Y0092660D01*
X0190724Y0092614D01*
X0190632Y0092614D01*
X0190552Y0092660D01*
X0190506Y0092740D01*
X0190500Y0092786D01*
X0190500Y0098071D01*
X0189563Y0099008D01*
X0188237Y0099008D01*
X0187300Y0098071D01*
X0187300Y0097222D01*
X0186791Y0098103D01*
X0185223Y0099008D01*
X0183413Y0099008D01*
X0181846Y0098103D01*
X0180941Y0096536D01*
X0180941Y0093449D01*
X0180941Y0093449D01*
X0180941Y0091881D01*
X0181846Y0090313D01*
X0183413Y0089408D01*
X0185223Y0089408D01*
X0186791Y0090313D01*
X0186791Y0090313D01*
X0187498Y0091538D01*
X0188205Y0090313D01*
X0189772Y0089408D01*
X0191583Y0089408D01*
X0193150Y0090313D01*
X0194055Y0091881D01*
X0194055Y0092123D01*
X0194055Y0092123D01*
X0194055Y0095939D01*
X0194186Y0095808D01*
X0195026Y0095808D01*
X0195026Y0090346D01*
X0195964Y0089408D01*
X0197289Y0089408D01*
X0198054Y0090173D02*
X0230652Y0090173D01*
X0231595Y0090771D02*
X0198226Y0090771D01*
X0198226Y0091370D02*
X0232537Y0091370D01*
X0233070Y0091968D02*
X0198226Y0091968D01*
X0198226Y0092567D02*
X0233521Y0092567D01*
X0233863Y0093165D02*
X0198226Y0093165D01*
X0198226Y0093764D02*
X0234166Y0093764D01*
X0234377Y0094362D02*
X0198226Y0094362D01*
X0198226Y0094961D02*
X0234588Y0094961D01*
X0234693Y0095559D02*
X0198226Y0095559D01*
X0199417Y0096158D02*
X0234789Y0096158D01*
X0234834Y0096756D02*
X0200004Y0096756D01*
X0200004Y0097355D02*
X0234811Y0097355D01*
X0234787Y0097954D02*
X0200004Y0097954D01*
X0199523Y0098552D02*
X0234622Y0098552D01*
X0234457Y0099151D02*
X0126959Y0099151D01*
X0126677Y0098552D02*
X0162039Y0098552D01*
X0161427Y0098199D02*
X0161427Y0098199D01*
X0162829Y0099008D01*
X0162976Y0099008D01*
X0162976Y0099008D01*
X0165724Y0099008D01*
X0166314Y0098419D01*
X0166903Y0099008D01*
X0168229Y0099008D01*
X0169166Y0098071D01*
X0169166Y0092786D01*
X0169172Y0092740D01*
X0169218Y0092660D01*
X0169298Y0092614D01*
X0169390Y0092614D01*
X0169469Y0092660D01*
X0169515Y0092740D01*
X0169521Y0092786D01*
X0169521Y0093449D01*
X0169521Y0093449D01*
X0169521Y0098071D01*
X0170459Y0099008D01*
X0171784Y0099008D01*
X0172318Y0098474D01*
X0172852Y0099008D01*
X0177733Y0099008D01*
X0178670Y0098071D01*
X0178670Y0096746D01*
X0177733Y0095808D01*
X0176892Y0095808D01*
X0176892Y0090346D01*
X0175955Y0089408D01*
X0174630Y0089408D01*
X0173692Y0090346D01*
X0173692Y0095808D01*
X0172852Y0095808D01*
X0172721Y0095939D01*
X0172721Y0092123D01*
X0172721Y0092123D01*
X0172721Y0091881D01*
X0171816Y0090313D01*
X0171816Y0090313D01*
X0170249Y0089408D01*
X0168439Y0089408D01*
X0166871Y0090313D01*
X0166871Y0090313D01*
X0166661Y0090677D01*
X0166661Y0090346D01*
X0165724Y0089408D01*
X0162829Y0089408D01*
X0161427Y0090218D01*
X0161427Y0090218D01*
X0161427Y0090218D01*
X0160617Y0091621D01*
X0160617Y0096796D01*
X0161427Y0098198D01*
X0161427Y0098199D01*
X0161285Y0097954D02*
X0126403Y0097954D01*
X0126210Y0097355D02*
X0160940Y0097355D01*
X0160617Y0096756D02*
X0126113Y0096756D01*
X0126016Y0096158D02*
X0160617Y0096158D01*
X0160617Y0095559D02*
X0126066Y0095559D01*
X0126130Y0094961D02*
X0160617Y0094961D01*
X0160617Y0094362D02*
X0126269Y0094362D01*
X0126502Y0093764D02*
X0160617Y0093764D01*
X0160617Y0093165D02*
X0126770Y0093165D01*
X0127214Y0092567D02*
X0160617Y0092567D01*
X0160617Y0091968D02*
X0127730Y0091968D01*
X0128507Y0091370D02*
X0160762Y0091370D01*
X0161107Y0090771D02*
X0129374Y0090771D01*
X0130318Y0090173D02*
X0161505Y0090173D01*
X0162542Y0089574D02*
X0131261Y0089574D01*
X0122842Y0097954D02*
X0089606Y0097954D01*
X0088991Y0098552D02*
X0122937Y0098552D01*
X0123093Y0099151D02*
X0088377Y0099151D01*
X0087762Y0099749D02*
X0123486Y0099749D01*
X0123739Y0100348D02*
X0087147Y0100348D01*
X0086533Y0100946D02*
X0124028Y0100946D01*
X0124529Y0101545D02*
X0085918Y0101545D01*
X0085303Y0102143D02*
X0125029Y0102143D01*
X0125378Y0102742D02*
X0084689Y0102742D01*
X0084074Y0103340D02*
X0126030Y0103340D01*
X0127016Y0103939D02*
X0083459Y0103939D01*
X0082845Y0104537D02*
X0127807Y0104537D01*
X0128772Y0105136D02*
X0082230Y0105136D01*
X0082166Y0105734D02*
X0129737Y0105734D01*
X0130702Y0106333D02*
X0081918Y0106333D01*
X0081513Y0106931D02*
X0131666Y0106931D01*
X0132631Y0107530D02*
X0080799Y0107530D01*
X0078035Y0107530D02*
X0073204Y0107530D01*
X0073204Y0108128D02*
X0133596Y0108128D01*
X0134561Y0108727D02*
X0073204Y0108727D01*
X0073204Y0109325D02*
X0135526Y0109325D01*
X0136490Y0109924D02*
X0073204Y0109924D01*
X0073204Y0110522D02*
X0137455Y0110522D01*
X0138420Y0111121D02*
X0073204Y0111121D01*
X0073196Y0111719D02*
X0074661Y0111719D01*
X0074856Y0111719D02*
X0139385Y0111719D01*
X0140350Y0112318D02*
X0127433Y0112318D01*
X0128069Y0112916D02*
X0141314Y0112916D01*
X0142279Y0113515D02*
X0128441Y0113515D01*
X0128689Y0114113D02*
X0143244Y0114113D01*
X0144209Y0114712D02*
X0128706Y0114712D01*
X0128686Y0115310D02*
X0145174Y0115310D01*
X0146139Y0115909D02*
X0128438Y0115909D01*
X0128062Y0116507D02*
X0147103Y0116507D01*
X0148068Y0117106D02*
X0127417Y0117106D01*
X0125749Y0117704D02*
X0149033Y0117704D01*
X0149998Y0118303D02*
X0125151Y0118303D01*
X0124552Y0118901D02*
X0150963Y0118901D01*
X0151927Y0119500D02*
X0123954Y0119500D01*
X0123355Y0120098D02*
X0152892Y0120098D01*
X0153857Y0120697D02*
X0122757Y0120697D01*
X0122158Y0121295D02*
X0154822Y0121295D01*
X0155787Y0121894D02*
X0123014Y0121894D01*
X0123895Y0122492D02*
X0156752Y0122492D01*
X0157716Y0123091D02*
X0124369Y0123091D01*
X0124617Y0123689D02*
X0158681Y0123689D01*
X0159646Y0124288D02*
X0141575Y0124288D01*
X0142173Y0124887D02*
X0160611Y0124887D01*
X0161576Y0125485D02*
X0142772Y0125485D01*
X0143370Y0126084D02*
X0162540Y0126084D01*
X0163505Y0126682D02*
X0143969Y0126682D01*
X0144567Y0127281D02*
X0164470Y0127281D01*
X0165435Y0127879D02*
X0145166Y0127879D01*
X0145167Y0128478D02*
X0166400Y0128478D01*
X0167351Y0129076D02*
X0145167Y0129076D01*
X0145441Y0129675D02*
X0168428Y0129675D01*
X0169303Y0130273D02*
X0146040Y0130273D01*
X0146638Y0130872D02*
X0171382Y0130872D01*
X0173460Y0131470D02*
X0147237Y0131470D01*
X0147835Y0132069D02*
X0179853Y0132069D01*
X0180441Y0132069D02*
X0180610Y0132069D01*
X0181242Y0132069D02*
X0227849Y0132069D01*
X0227601Y0132667D02*
X0148434Y0132667D01*
X0164166Y0123091D02*
X0198009Y0123091D01*
X0198967Y0122492D02*
X0163201Y0122492D01*
X0162236Y0121894D02*
X0199925Y0121894D01*
X0200883Y0121295D02*
X0161272Y0121295D01*
X0160307Y0120697D02*
X0201841Y0120697D01*
X0202799Y0120098D02*
X0159342Y0120098D01*
X0158377Y0119500D02*
X0203757Y0119500D01*
X0204715Y0118901D02*
X0157412Y0118901D01*
X0156448Y0118303D02*
X0205673Y0118303D01*
X0206630Y0117704D02*
X0155483Y0117704D01*
X0154518Y0117106D02*
X0207588Y0117106D01*
X0208546Y0116507D02*
X0153553Y0116507D01*
X0152588Y0115909D02*
X0209504Y0115909D01*
X0210462Y0115310D02*
X0151624Y0115310D01*
X0150659Y0114712D02*
X0211420Y0114712D01*
X0212378Y0114113D02*
X0149694Y0114113D01*
X0148729Y0113515D02*
X0213336Y0113515D01*
X0214294Y0112916D02*
X0147764Y0112916D01*
X0146799Y0112318D02*
X0215252Y0112318D01*
X0216210Y0111719D02*
X0145835Y0111719D01*
X0144870Y0111121D02*
X0217168Y0111121D01*
X0218126Y0110522D02*
X0143905Y0110522D01*
X0142940Y0109924D02*
X0219084Y0109924D01*
X0220042Y0109325D02*
X0141975Y0109325D01*
X0141011Y0108727D02*
X0221000Y0108727D01*
X0221958Y0108128D02*
X0140046Y0108128D01*
X0139081Y0107530D02*
X0222916Y0107530D01*
X0223874Y0106931D02*
X0138116Y0106931D01*
X0137151Y0106333D02*
X0224832Y0106333D01*
X0225790Y0105734D02*
X0136186Y0105734D01*
X0135222Y0105136D02*
X0226748Y0105136D01*
X0227706Y0104537D02*
X0134257Y0104537D01*
X0133292Y0103939D02*
X0228664Y0103939D01*
X0229622Y0103340D02*
X0132327Y0103340D01*
X0131362Y0102742D02*
X0230580Y0102742D01*
X0231538Y0102143D02*
X0130398Y0102143D01*
X0129512Y0101545D02*
X0232496Y0101545D01*
X0233181Y0100946D02*
X0128678Y0100946D01*
X0127960Y0100348D02*
X0233787Y0100348D01*
X0234144Y0099749D02*
X0127459Y0099749D01*
X0124400Y0112318D02*
X0080213Y0112318D01*
X0080812Y0112916D02*
X0123765Y0112916D01*
X0123392Y0113515D02*
X0081410Y0113515D01*
X0082009Y0114113D02*
X0123144Y0114113D01*
X0123085Y0114712D02*
X0082607Y0114712D01*
X0079627Y0117106D02*
X0074461Y0117106D01*
X0074067Y0117704D02*
X0080226Y0117704D01*
X0080824Y0118303D02*
X0073703Y0118303D01*
X0073279Y0118901D02*
X0081423Y0118901D01*
X0079029Y0116507D02*
X0074855Y0116507D01*
X0075249Y0115909D02*
X0078430Y0115909D01*
X0072712Y0119500D02*
X0085521Y0119500D01*
X0086120Y0120098D02*
X0072777Y0120098D01*
X0072996Y0120697D02*
X0086718Y0120697D01*
X0087317Y0121295D02*
X0072996Y0121295D01*
X0072996Y0121894D02*
X0087517Y0121894D01*
X0087517Y0122492D02*
X0072996Y0122492D01*
X0072996Y0123091D02*
X0087517Y0123091D01*
X0087517Y0123689D02*
X0072996Y0123689D01*
X0072795Y0124288D02*
X0087517Y0124288D01*
X0087517Y0124887D02*
X0071887Y0124887D01*
X0071204Y0124887D02*
X0071204Y0124887D01*
X0071204Y0124892D02*
X0071204Y0124334D01*
X0071204Y0124334D01*
X0071204Y0124892D01*
X0070832Y0125485D02*
X0087517Y0125485D01*
X0087517Y0126084D02*
X0070638Y0126084D01*
X0070476Y0126682D02*
X0087517Y0126682D01*
X0087517Y0127281D02*
X0070266Y0127281D01*
X0069667Y0127879D02*
X0087517Y0127879D01*
X0091317Y0127879D02*
X0101802Y0127879D01*
X0101203Y0128478D02*
X0091317Y0128478D01*
X0091317Y0129076D02*
X0100867Y0129076D01*
X0100628Y0129675D02*
X0091317Y0129675D01*
X0091317Y0130273D02*
X0100628Y0130273D01*
X0100673Y0130872D02*
X0091317Y0130872D01*
X0091317Y0131470D02*
X0100921Y0131470D01*
X0101333Y0132069D02*
X0091317Y0132069D01*
X0087517Y0132069D02*
X0063494Y0132069D01*
X0058619Y0134463D02*
X0033484Y0134463D01*
X0034053Y0135061D02*
X0058209Y0135061D01*
X0057799Y0135660D02*
X0034621Y0135660D01*
X0035190Y0136258D02*
X0057389Y0136258D01*
X0056980Y0136857D02*
X0035759Y0136857D01*
X0037762Y0126682D02*
X0051717Y0126682D01*
X0051804Y0126705D02*
X0051362Y0126587D01*
X0050966Y0126358D01*
X0050642Y0126035D01*
X0050413Y0125638D01*
X0050295Y0125196D01*
X0050295Y0123955D01*
X0053045Y0123955D01*
X0053045Y0126705D01*
X0051804Y0126705D01*
X0053045Y0126682D02*
X0053645Y0126682D01*
X0053645Y0126084D02*
X0053045Y0126084D01*
X0053045Y0125485D02*
X0053645Y0125485D01*
X0053645Y0124887D02*
X0053045Y0124887D01*
X0053045Y0124288D02*
X0053645Y0124288D01*
X0053045Y0123689D02*
X0039818Y0123689D01*
X0040464Y0123091D02*
X0050295Y0123091D01*
X0050295Y0122492D02*
X0041110Y0122492D01*
X0041757Y0121894D02*
X0050354Y0121894D01*
X0050631Y0121295D02*
X0042403Y0121295D01*
X0043049Y0120697D02*
X0051461Y0120697D01*
X0052169Y0120098D02*
X0043695Y0120098D01*
X0044341Y0119500D02*
X0050931Y0119500D01*
X0050332Y0118901D02*
X0044988Y0118901D01*
X0045634Y0118303D02*
X0050095Y0118303D01*
X0050095Y0117704D02*
X0046310Y0117704D01*
X0046926Y0117106D02*
X0050095Y0117106D01*
X0050095Y0116507D02*
X0047482Y0116507D01*
X0047489Y0115909D02*
X0050095Y0115909D01*
X0050095Y0115310D02*
X0047508Y0115310D01*
X0047504Y0114712D02*
X0050095Y0114712D01*
X0050415Y0114113D02*
X0047512Y0114113D01*
X0047519Y0113515D02*
X0051014Y0113515D01*
X0051561Y0112318D02*
X0047534Y0112318D01*
X0047526Y0112916D02*
X0057354Y0112916D01*
X0057018Y0112318D02*
X0055272Y0112318D01*
X0056127Y0111719D02*
X0056419Y0111719D01*
X0057014Y0113515D02*
X0055676Y0113515D01*
X0056274Y0114113D02*
X0056415Y0114113D01*
X0053717Y0112318D02*
X0053117Y0112318D01*
X0053117Y0111719D02*
X0053717Y0111719D01*
X0053717Y0111121D02*
X0053117Y0111121D01*
X0053117Y0110522D02*
X0053717Y0110522D01*
X0053717Y0109924D02*
X0053117Y0109924D01*
X0053117Y0109325D02*
X0047570Y0109325D01*
X0047578Y0108727D02*
X0050367Y0108727D01*
X0050367Y0109052D02*
X0050367Y0107811D01*
X0050485Y0107369D01*
X0050714Y0106973D01*
X0051037Y0106649D01*
X0051434Y0106420D01*
X0051876Y0106302D01*
X0053117Y0106302D01*
X0053117Y0109052D01*
X0050367Y0109052D01*
X0050367Y0109924D02*
X0047563Y0109924D01*
X0047556Y0110522D02*
X0050367Y0110522D01*
X0050428Y0111121D02*
X0047548Y0111121D01*
X0047541Y0111719D02*
X0050707Y0111719D01*
X0053117Y0108727D02*
X0053717Y0108727D01*
X0053717Y0108128D02*
X0053117Y0108128D01*
X0053117Y0107530D02*
X0053717Y0107530D01*
X0053717Y0106931D02*
X0053117Y0106931D01*
X0053117Y0106333D02*
X0053717Y0106333D01*
X0055072Y0106333D02*
X0057071Y0106333D01*
X0056473Y0106931D02*
X0056078Y0106931D01*
X0051761Y0106333D02*
X0047607Y0106333D01*
X0047600Y0106931D02*
X0050755Y0106931D01*
X0050442Y0107530D02*
X0047592Y0107530D01*
X0047585Y0108128D02*
X0050367Y0108128D01*
X0047614Y0105734D02*
X0062293Y0105734D01*
X0062253Y0105136D02*
X0047622Y0105136D01*
X0047629Y0104537D02*
X0062253Y0104537D01*
X0062497Y0103939D02*
X0048015Y0103939D01*
X0044752Y0101545D02*
X0044103Y0101545D01*
X0044107Y0102143D02*
X0044152Y0102143D01*
X0044100Y0100946D02*
X0045351Y0100946D01*
X0045949Y0100348D02*
X0044096Y0100348D01*
X0044093Y0099749D02*
X0046548Y0099749D01*
X0061762Y0106333D02*
X0062541Y0106333D01*
X0062361Y0106931D02*
X0062945Y0106931D01*
X0062667Y0107530D02*
X0063660Y0107530D01*
X0062667Y0108128D02*
X0065236Y0108128D01*
X0065236Y0108727D02*
X0062667Y0108727D01*
X0062667Y0109325D02*
X0065236Y0109325D01*
X0065236Y0109924D02*
X0062667Y0109924D01*
X0062667Y0110522D02*
X0065236Y0110522D01*
X0065236Y0111121D02*
X0062667Y0111121D01*
X0062415Y0111719D02*
X0065275Y0111719D01*
X0065275Y0112318D02*
X0061816Y0112318D01*
X0061154Y0112916D02*
X0065405Y0112916D01*
X0066004Y0113515D02*
X0061676Y0113515D01*
X0062274Y0114113D02*
X0065614Y0114113D01*
X0064974Y0114712D02*
X0062595Y0114712D01*
X0073204Y0106931D02*
X0077320Y0106931D01*
X0076916Y0106333D02*
X0073204Y0106333D01*
X0073204Y0105734D02*
X0076668Y0105734D01*
X0076628Y0105136D02*
X0073204Y0105136D01*
X0073791Y0104537D02*
X0076628Y0104537D01*
X0076872Y0103939D02*
X0075113Y0103939D01*
X0076229Y0103340D02*
X0077216Y0103340D01*
X0076800Y0102742D02*
X0077814Y0102742D01*
X0077048Y0102143D02*
X0079570Y0102143D01*
X0080184Y0101545D02*
X0077206Y0101545D01*
X0077206Y0100946D02*
X0080799Y0100946D01*
X0081414Y0100348D02*
X0077079Y0100348D01*
X0076831Y0099749D02*
X0082028Y0099749D01*
X0082643Y0099151D02*
X0076303Y0099151D01*
X0075292Y0098552D02*
X0083258Y0098552D01*
X0083872Y0097954D02*
X0070344Y0097954D01*
X0070345Y0098552D02*
X0073542Y0098552D01*
X0072530Y0099151D02*
X0070347Y0099151D01*
X0070348Y0099749D02*
X0072002Y0099749D01*
X0071755Y0100348D02*
X0070349Y0100348D01*
X0070350Y0100946D02*
X0071628Y0100946D01*
X0071137Y0101545D02*
X0070351Y0101545D01*
X0070352Y0102143D02*
X0070459Y0102143D01*
X0070343Y0097355D02*
X0084487Y0097355D01*
X0085102Y0096756D02*
X0070342Y0096756D01*
X0070355Y0096158D02*
X0085716Y0096158D01*
X0086331Y0095559D02*
X0070370Y0095559D01*
X0070384Y0094961D02*
X0086946Y0094961D01*
X0078184Y0077006D02*
X0072126Y0077006D01*
X0072952Y0076407D02*
X0078737Y0076407D01*
X0079291Y0075809D02*
X0073476Y0075809D01*
X0074000Y0075210D02*
X0079844Y0075210D01*
X0080397Y0074612D02*
X0074523Y0074612D01*
X0075047Y0074013D02*
X0080951Y0074013D01*
X0081504Y0073415D02*
X0075571Y0073415D01*
X0076095Y0072816D02*
X0082058Y0072816D01*
X0082611Y0072218D02*
X0076619Y0072218D01*
X0077142Y0071619D02*
X0083164Y0071619D01*
X0083718Y0071020D02*
X0077666Y0071020D01*
X0078190Y0070422D02*
X0084271Y0070422D01*
X0084825Y0069823D02*
X0078714Y0069823D01*
X0079237Y0069225D02*
X0085378Y0069225D01*
X0085931Y0068626D02*
X0079761Y0068626D01*
X0080285Y0068028D02*
X0086485Y0068028D01*
X0087038Y0067429D02*
X0080809Y0067429D01*
X0081332Y0066831D02*
X0087592Y0066831D01*
X0088145Y0066232D02*
X0081856Y0066232D01*
X0082380Y0065634D02*
X0088698Y0065634D01*
X0089252Y0065035D02*
X0082904Y0065035D01*
X0083428Y0064437D02*
X0089805Y0064437D01*
X0090359Y0063838D02*
X0083951Y0063838D01*
X0084475Y0063240D02*
X0090912Y0063240D01*
X0091466Y0062641D02*
X0084999Y0062641D01*
X0085523Y0062043D02*
X0092019Y0062043D01*
X0092572Y0061444D02*
X0086046Y0061444D01*
X0086570Y0060846D02*
X0093126Y0060846D01*
X0093679Y0060247D02*
X0087094Y0060247D01*
X0087618Y0059649D02*
X0094233Y0059649D01*
X0094786Y0059050D02*
X0088142Y0059050D01*
X0088665Y0058452D02*
X0095339Y0058452D01*
X0095893Y0057853D02*
X0089189Y0057853D01*
X0089713Y0057255D02*
X0096446Y0057255D01*
X0097000Y0056656D02*
X0090237Y0056656D01*
X0090760Y0056058D02*
X0097553Y0056058D01*
X0098106Y0055459D02*
X0091284Y0055459D01*
X0091808Y0054861D02*
X0098660Y0054861D01*
X0099213Y0054262D02*
X0092332Y0054262D01*
X0092856Y0053664D02*
X0099767Y0053664D01*
X0100320Y0053065D02*
X0093379Y0053065D01*
X0093903Y0052467D02*
X0100874Y0052467D01*
X0101427Y0051868D02*
X0094427Y0051868D01*
X0094951Y0051270D02*
X0101980Y0051270D01*
X0102534Y0050671D02*
X0095474Y0050671D01*
X0095998Y0050073D02*
X0103087Y0050073D01*
X0103641Y0049474D02*
X0096522Y0049474D01*
X0097046Y0048876D02*
X0104171Y0048876D01*
X0104747Y0048277D02*
X0097570Y0048277D01*
X0105768Y0053065D02*
X0107651Y0053065D01*
X0107428Y0053664D02*
X0105215Y0053664D01*
X0104661Y0054262D02*
X0107428Y0054262D01*
X0107489Y0054861D02*
X0104108Y0054861D01*
X0103554Y0055459D02*
X0107737Y0055459D01*
X0108172Y0056058D02*
X0103001Y0056058D01*
X0102448Y0056656D02*
X0108959Y0056656D01*
X0111474Y0056656D02*
X0123789Y0056656D01*
X0124135Y0057255D02*
X0101894Y0057255D01*
X0101341Y0057853D02*
X0124627Y0057853D01*
X0131991Y0057853D02*
X0153959Y0057853D01*
X0153711Y0058452D02*
X0100787Y0058452D01*
X0100234Y0059050D02*
X0153166Y0059050D01*
X0154426Y0057255D02*
X0132463Y0057255D01*
X0107964Y0052467D02*
X0106321Y0052467D01*
X0131829Y0072218D02*
X0152274Y0072218D01*
X0151331Y0072816D02*
X0132069Y0072816D01*
X0132188Y0073415D02*
X0150387Y0073415D01*
X0158125Y0061444D02*
X0174220Y0061444D01*
X0177028Y0060846D02*
X0158723Y0060846D01*
X0159005Y0060247D02*
X0195441Y0060247D01*
X0194594Y0059649D02*
X0159206Y0059649D01*
X0159206Y0059050D02*
X0193746Y0059050D01*
X0192898Y0058452D02*
X0159122Y0058452D01*
X0158874Y0057853D02*
X0192050Y0057853D01*
X0191202Y0057255D02*
X0158407Y0057255D01*
X0176689Y0064437D02*
X0185337Y0064437D01*
X0184097Y0060846D02*
X0196289Y0060846D01*
X0197137Y0061444D02*
X0188583Y0061444D01*
X0190300Y0062043D02*
X0197985Y0062043D01*
X0198833Y0062641D02*
X0192558Y0062641D01*
X0193822Y0063240D02*
X0199681Y0063240D01*
X0200529Y0063838D02*
X0195087Y0063838D01*
X0196352Y0064437D02*
X0201377Y0064437D01*
X0202225Y0065035D02*
X0197638Y0065035D01*
X0198535Y0065634D02*
X0203072Y0065634D01*
X0203920Y0066232D02*
X0199432Y0066232D01*
X0200330Y0066831D02*
X0204768Y0066831D01*
X0205616Y0067429D02*
X0201227Y0067429D01*
X0202131Y0068028D02*
X0206464Y0068028D01*
X0207312Y0068626D02*
X0203073Y0068626D01*
X0204016Y0069225D02*
X0208160Y0069225D01*
X0209008Y0069823D02*
X0204958Y0069823D01*
X0205900Y0070422D02*
X0209856Y0070422D01*
X0210703Y0071020D02*
X0206842Y0071020D01*
X0207784Y0071619D02*
X0211551Y0071619D01*
X0212399Y0072218D02*
X0208727Y0072218D01*
X0209669Y0072816D02*
X0213247Y0072816D01*
X0214095Y0073415D02*
X0210611Y0073415D01*
X0211553Y0074013D02*
X0214943Y0074013D01*
X0215791Y0074612D02*
X0212496Y0074612D01*
X0213438Y0075210D02*
X0216639Y0075210D01*
X0217487Y0075809D02*
X0214380Y0075809D01*
X0215322Y0076407D02*
X0218334Y0076407D01*
X0219182Y0077006D02*
X0216265Y0077006D01*
X0217207Y0077604D02*
X0220030Y0077604D01*
X0220878Y0078203D02*
X0218149Y0078203D01*
X0219091Y0078801D02*
X0221726Y0078801D01*
X0222574Y0079400D02*
X0220033Y0079400D01*
X0220976Y0079998D02*
X0223422Y0079998D01*
X0224270Y0080597D02*
X0221918Y0080597D01*
X0222860Y0081195D02*
X0225118Y0081195D01*
X0225965Y0081794D02*
X0223802Y0081794D01*
X0224745Y0082392D02*
X0226813Y0082392D01*
X0227661Y0082991D02*
X0225687Y0082991D01*
X0226629Y0083589D02*
X0228509Y0083589D01*
X0229357Y0084188D02*
X0227571Y0084188D01*
X0228513Y0084786D02*
X0230205Y0084786D01*
X0229456Y0085385D02*
X0231053Y0085385D01*
X0230398Y0085983D02*
X0231901Y0085983D01*
X0231340Y0086582D02*
X0232749Y0086582D01*
X0232282Y0087180D02*
X0233596Y0087180D01*
X0233225Y0087779D02*
X0234444Y0087779D01*
X0234167Y0088377D02*
X0235292Y0088377D01*
X0235109Y0088976D02*
X0236140Y0088976D01*
X0236167Y0089574D02*
X0235493Y0089574D01*
X0236069Y0090173D02*
X0236167Y0090173D01*
X0237982Y0094362D02*
X0237992Y0094362D01*
X0238041Y0094961D02*
X0238591Y0094961D01*
X0238137Y0095559D02*
X0239190Y0095559D01*
X0239788Y0096158D02*
X0238260Y0096158D01*
X0238329Y0096756D02*
X0240387Y0096756D01*
X0240985Y0097355D02*
X0238213Y0097355D01*
X0238306Y0097954D02*
X0241584Y0097954D01*
X0238166Y0098552D02*
X0259070Y0098552D01*
X0258496Y0099151D02*
X0238006Y0099151D01*
X0237819Y0099749D02*
X0257922Y0099749D01*
X0257349Y0100348D02*
X0237746Y0100348D01*
X0237488Y0100946D02*
X0256775Y0100946D01*
X0256201Y0101545D02*
X0237032Y0101545D01*
X0236748Y0102143D02*
X0255627Y0102143D01*
X0255054Y0102742D02*
X0236317Y0102742D01*
X0235602Y0103340D02*
X0254480Y0103340D01*
X0253906Y0103939D02*
X0235081Y0103939D01*
X0234287Y0104537D02*
X0253332Y0104537D01*
X0252758Y0105136D02*
X0233165Y0105136D01*
X0232207Y0105734D02*
X0252185Y0105734D01*
X0251611Y0106333D02*
X0231249Y0106333D01*
X0230291Y0106931D02*
X0251037Y0106931D01*
X0250463Y0107530D02*
X0229333Y0107530D01*
X0228375Y0108128D02*
X0249889Y0108128D01*
X0249316Y0108727D02*
X0227417Y0108727D01*
X0226459Y0109325D02*
X0248742Y0109325D01*
X0248168Y0109924D02*
X0225501Y0109924D01*
X0224543Y0110522D02*
X0247594Y0110522D01*
X0247020Y0111121D02*
X0223585Y0111121D01*
X0222627Y0111719D02*
X0246447Y0111719D01*
X0245873Y0112318D02*
X0221669Y0112318D01*
X0220711Y0112916D02*
X0245299Y0112916D01*
X0244725Y0113515D02*
X0219753Y0113515D01*
X0218795Y0114113D02*
X0244211Y0114113D01*
X0243978Y0114712D02*
X0217837Y0114712D01*
X0216879Y0115310D02*
X0243808Y0115310D01*
X0243820Y0115909D02*
X0215921Y0115909D01*
X0214963Y0116507D02*
X0243882Y0116507D01*
X0238555Y0117106D02*
X0214005Y0117106D01*
X0213047Y0117704D02*
X0238065Y0117704D01*
X0237623Y0118303D02*
X0212089Y0118303D01*
X0211131Y0118901D02*
X0237158Y0118901D01*
X0236692Y0119500D02*
X0210173Y0119500D01*
X0209215Y0120098D02*
X0236226Y0120098D01*
X0235761Y0120697D02*
X0208257Y0120697D01*
X0207299Y0121295D02*
X0235295Y0121295D01*
X0234829Y0121894D02*
X0206341Y0121894D01*
X0205383Y0122492D02*
X0234364Y0122492D01*
X0233898Y0123091D02*
X0204426Y0123091D01*
X0203468Y0123689D02*
X0233432Y0123689D01*
X0232967Y0124288D02*
X0202510Y0124288D01*
X0201552Y0124887D02*
X0232414Y0124887D01*
X0232348Y0125485D02*
X0200594Y0125485D01*
X0199636Y0126084D02*
X0232381Y0126084D01*
X0232365Y0126682D02*
X0198678Y0126682D01*
X0197720Y0127281D02*
X0232348Y0127281D01*
X0232332Y0127879D02*
X0196762Y0127879D01*
X0195804Y0128478D02*
X0232315Y0128478D01*
X0232299Y0129076D02*
X0194892Y0129076D01*
X0193650Y0129675D02*
X0232283Y0129675D01*
X0232266Y0130273D02*
X0192537Y0130273D01*
X0190515Y0130872D02*
X0229249Y0130872D01*
X0228336Y0131470D02*
X0188220Y0131470D01*
X0184684Y0128478D02*
X0176999Y0128478D01*
X0173276Y0127879D02*
X0188517Y0127879D01*
X0190787Y0127281D02*
X0171198Y0127281D01*
X0170043Y0126682D02*
X0192028Y0126682D01*
X0193219Y0126084D02*
X0168990Y0126084D01*
X0168025Y0125485D02*
X0194177Y0125485D01*
X0195135Y0124887D02*
X0167061Y0124887D01*
X0166096Y0124288D02*
X0196093Y0124288D01*
X0197051Y0123689D02*
X0165131Y0123689D01*
X0173540Y0131470D02*
X0173969Y0131470D01*
X0127898Y0141164D02*
X0128159Y0148568D01*
X0287331Y0148568D01*
X0290523Y0145461D01*
X0357569Y0145461D01*
X0357592Y0134183D01*
X0357824Y0132969D01*
X0358388Y0131631D01*
X0359236Y0130256D01*
X0360319Y0128933D01*
X0361589Y0127750D01*
X0362996Y0126796D01*
X0364493Y0126160D01*
X0366029Y0125929D01*
X0366305Y0125935D01*
X0382514Y0125924D01*
X0382514Y0061075D01*
X0337320Y0061075D01*
X0336330Y0060907D01*
X0335071Y0060421D01*
X0333666Y0059641D01*
X0332239Y0058595D01*
X0330914Y0057307D01*
X0329814Y0055804D01*
X0329064Y0054111D01*
X0328786Y0052254D01*
X0328786Y0048361D01*
X0274578Y0048361D01*
X0295360Y0065571D02*
X0296890Y0063796D01*
X0314465Y0063569D01*
X0326859Y0075726D01*
X0327467Y0076333D01*
X0327479Y0076333D01*
X0327487Y0076342D01*
X0328347Y0076333D01*
X0341260Y0076333D01*
X0342517Y0077438D01*
X0342517Y0087528D01*
X0358817Y0103828D01*
X0358817Y0105864D01*
X0358552Y0106128D01*
X0358128Y0107154D01*
X0358128Y0108263D01*
X0358552Y0109288D01*
X0359337Y0110073D01*
X0360362Y0110497D01*
X0361472Y0110497D01*
X0361879Y0110329D01*
X0357625Y0113491D01*
X0357411Y0113580D01*
X0357135Y0113856D01*
X0356822Y0114089D01*
X0356703Y0114288D01*
X0356539Y0114452D01*
X0356390Y0114813D01*
X0356223Y0115092D01*
X0356138Y0114989D01*
X0356059Y0114736D01*
X0356008Y0114710D01*
X0356003Y0114656D01*
X0355796Y0114484D01*
X0355666Y0114246D01*
X0355617Y0114232D01*
X0355602Y0114182D01*
X0355365Y0114053D01*
X0355195Y0113846D01*
X0355140Y0113841D01*
X0355113Y0113790D01*
X0354862Y0113712D01*
X0354660Y0113545D01*
X0354591Y0113552D01*
X0354544Y0113495D01*
X0354291Y0113469D01*
X0354069Y0113349D01*
X0353953Y0113383D01*
X0353809Y0113383D01*
X0353445Y0113270D01*
X0353284Y0113354D01*
X0353581Y0112638D01*
X0353581Y0111529D01*
X0353156Y0110503D01*
X0352792Y0110139D01*
X0352792Y0100505D01*
X0348495Y0096208D01*
X0344611Y0096208D01*
X0344247Y0095844D01*
X0343222Y0095419D01*
X0342835Y0095419D01*
X0317398Y0070220D01*
X0316787Y0069608D01*
X0316781Y0069608D01*
X0316777Y0069604D01*
X0315912Y0069608D01*
X0275261Y0069608D01*
X0274997Y0069344D01*
X0273972Y0068919D01*
X0272862Y0068919D01*
X0271837Y0069344D01*
X0271052Y0070128D01*
X0270628Y0071154D01*
X0270628Y0072263D01*
X0271052Y0073288D01*
X0271837Y0074073D01*
X0272862Y0074497D01*
X0273972Y0074497D01*
X0274997Y0074073D01*
X0275261Y0073808D01*
X0315053Y0073808D01*
X0339878Y0098401D01*
X0339878Y0098763D01*
X0340302Y0099788D01*
X0341087Y0100573D01*
X0342112Y0100997D01*
X0343222Y0100997D01*
X0344247Y0100573D01*
X0344611Y0100208D01*
X0346838Y0100208D01*
X0348792Y0102162D01*
X0348792Y0105508D01*
X0348531Y0104878D01*
X0347747Y0104094D01*
X0346722Y0103669D01*
X0345612Y0103669D01*
X0344587Y0104094D01*
X0343802Y0104878D01*
X0343378Y0105904D01*
X0343378Y0105995D01*
X0340992Y0108381D01*
X0340992Y0119633D01*
X0340973Y0119451D01*
X0340916Y0119405D01*
X0340923Y0119335D01*
X0340757Y0119134D01*
X0340679Y0118883D01*
X0340627Y0118856D01*
X0340622Y0118801D01*
X0340415Y0118630D01*
X0340285Y0118393D01*
X0340236Y0118378D01*
X0340222Y0118329D01*
X0339984Y0118200D01*
X0339812Y0117992D01*
X0339758Y0117987D01*
X0339732Y0117936D01*
X0339479Y0117858D01*
X0339278Y0117691D01*
X0339209Y0117698D01*
X0339163Y0117642D01*
X0338911Y0117616D01*
X0338690Y0117496D01*
X0338574Y0117530D01*
X0338427Y0117530D01*
X0338063Y0117416D01*
X0337882Y0117511D01*
X0337417Y0117464D01*
X0337335Y0117530D01*
X0336733Y0117530D01*
X0336652Y0117464D01*
X0336186Y0117511D01*
X0336005Y0117416D01*
X0335641Y0117530D01*
X0335497Y0117530D01*
X0335380Y0117496D01*
X0335159Y0117616D01*
X0334905Y0117642D01*
X0334859Y0117698D01*
X0334789Y0117692D01*
X0334588Y0117859D01*
X0334337Y0117937D01*
X0334310Y0117987D01*
X0334257Y0117992D01*
X0334086Y0118199D01*
X0333848Y0118328D01*
X0333833Y0118378D01*
X0333784Y0118393D01*
X0333654Y0118631D01*
X0333447Y0118803D01*
X0333441Y0118856D01*
X0333390Y0118883D01*
X0333312Y0119134D01*
X0333146Y0119335D01*
X0333153Y0119405D01*
X0333096Y0119451D01*
X0333070Y0119703D01*
X0332950Y0119924D01*
X0332984Y0120040D01*
X0332984Y0120187D01*
X0332871Y0120552D01*
X0332965Y0120732D01*
X0332918Y0121197D01*
X0332984Y0121278D01*
X0332984Y0125074D01*
X0332918Y0125155D01*
X0332965Y0125621D01*
X0332871Y0125802D01*
X0332984Y0126166D01*
X0332984Y0126310D01*
X0332950Y0126427D01*
X0333070Y0126648D01*
X0333096Y0126902D01*
X0333153Y0126948D01*
X0333146Y0127018D01*
X0333313Y0127219D01*
X0333391Y0127470D01*
X0333441Y0127497D01*
X0333447Y0127550D01*
X0333653Y0127721D01*
X0333782Y0127959D01*
X0333833Y0127974D01*
X0333848Y0128025D01*
X0334086Y0128154D01*
X0334257Y0128360D01*
X0334310Y0128366D01*
X0334337Y0128416D01*
X0334588Y0128494D01*
X0334789Y0128661D01*
X0334859Y0128654D01*
X0334905Y0128711D01*
X0335159Y0128737D01*
X0335380Y0128857D01*
X0335497Y0128823D01*
X0335641Y0128823D01*
X0336005Y0128936D01*
X0336186Y0128842D01*
X0336652Y0128889D01*
X0336733Y0128823D01*
X0337335Y0128823D01*
X0337417Y0128889D01*
X0337882Y0128842D01*
X0338063Y0128936D01*
X0338427Y0128823D01*
X0338574Y0128823D01*
X0338690Y0128857D01*
X0338911Y0128737D01*
X0339163Y0128711D01*
X0339209Y0128655D01*
X0339278Y0128662D01*
X0339479Y0128495D01*
X0339732Y0128417D01*
X0339758Y0128366D01*
X0339812Y0128360D01*
X0339984Y0128153D01*
X0340222Y0128023D01*
X0340236Y0127974D01*
X0340287Y0127959D01*
X0340415Y0127722D01*
X0340622Y0127552D01*
X0340627Y0127497D01*
X0340678Y0127470D01*
X0340756Y0127219D01*
X0340923Y0127018D01*
X0340916Y0126948D01*
X0340973Y0126902D01*
X0340992Y0126720D01*
X0340992Y0135689D01*
X0340927Y0135753D01*
X0340503Y0136779D01*
X0340503Y0137888D01*
X0340927Y0138913D01*
X0341712Y0139698D01*
X0341858Y0139758D01*
X0330472Y0139758D01*
X0324912Y0133747D01*
X0324972Y0133747D01*
X0325997Y0133323D01*
X0326781Y0132538D01*
X0327206Y0131513D01*
X0327206Y0130404D01*
X0326781Y0129378D01*
X0325997Y0128594D01*
X0325053Y0128203D01*
X0322967Y0125839D01*
X0322967Y0125756D01*
X0322344Y0125133D01*
X0321761Y0124472D01*
X0321678Y0124467D01*
X0318869Y0121658D01*
X0313594Y0121658D01*
X0330634Y0104934D01*
X0330680Y0104932D01*
X0331221Y0104358D01*
X0331784Y0103805D01*
X0331784Y0103759D01*
X0331913Y0103622D01*
X0332347Y0103622D01*
X0333372Y0103198D01*
X0334156Y0102413D01*
X0334581Y0101388D01*
X0334581Y0100279D01*
X0334156Y0099253D01*
X0333372Y0098469D01*
X0332347Y0098044D01*
X0331237Y0098044D01*
X0330212Y0098469D01*
X0329427Y0099253D01*
X0329380Y0099368D01*
X0329281Y0099128D01*
X0328497Y0098344D01*
X0327472Y0097919D01*
X0326362Y0097919D01*
X0325337Y0098344D01*
X0325273Y0098408D01*
X0313369Y0098408D01*
X0309956Y0094995D01*
X0309956Y0094904D01*
X0309531Y0093878D01*
X0308747Y0093094D01*
X0307722Y0092669D01*
X0307661Y0092669D01*
X0300397Y0085208D01*
X0303588Y0085208D01*
X0305622Y0087242D01*
X0312378Y0094102D01*
X0312378Y0094638D01*
X0312802Y0095663D01*
X0313587Y0096448D01*
X0314612Y0096872D01*
X0315722Y0096872D01*
X0316747Y0096448D01*
X0317531Y0095663D01*
X0317956Y0094638D01*
X0317956Y0093529D01*
X0317531Y0092503D01*
X0316747Y0091719D01*
X0315722Y0091294D01*
X0315227Y0091294D01*
X0309042Y0085014D01*
X0309042Y0085005D01*
X0308461Y0084424D01*
X0307885Y0083840D01*
X0307877Y0083840D01*
X0306417Y0082380D01*
X0306417Y0082380D01*
X0305245Y0081208D01*
X0269987Y0081208D01*
X0269917Y0081103D01*
X0269917Y0080880D01*
X0269471Y0080434D01*
X0269121Y0079910D01*
X0268903Y0079866D01*
X0268745Y0079708D01*
X0268115Y0079708D01*
X0267497Y0079585D01*
X0267311Y0079708D01*
X0261088Y0079708D01*
X0259963Y0080833D01*
X0259736Y0080833D01*
X0259781Y0080788D01*
X0260206Y0079763D01*
X0260206Y0079550D01*
X0274545Y0066920D01*
X0275061Y0066938D01*
X0275112Y0066891D01*
X0292480Y0066891D01*
X0292548Y0066950D01*
X0293338Y0066891D01*
X0294130Y0066891D01*
X0294193Y0066828D01*
X0294283Y0066821D01*
X0294800Y0066221D01*
X0295360Y0065661D01*
X0295360Y0065571D01*
X0295360Y0065634D02*
X0316570Y0065634D01*
X0315960Y0065035D02*
X0295822Y0065035D01*
X0296337Y0064437D02*
X0315350Y0064437D01*
X0314739Y0063838D02*
X0296853Y0063838D01*
X0294790Y0066232D02*
X0317180Y0066232D01*
X0317791Y0066831D02*
X0294190Y0066831D01*
X0274709Y0069225D02*
X0320231Y0069225D01*
X0319621Y0068626D02*
X0272607Y0068626D01*
X0272124Y0069225D02*
X0271927Y0069225D01*
X0271357Y0069823D02*
X0271248Y0069823D01*
X0270931Y0070422D02*
X0270569Y0070422D01*
X0270683Y0071020D02*
X0269889Y0071020D01*
X0269210Y0071619D02*
X0270628Y0071619D01*
X0270628Y0072218D02*
X0268530Y0072218D01*
X0267851Y0072816D02*
X0270857Y0072816D01*
X0271179Y0073415D02*
X0267171Y0073415D01*
X0266492Y0074013D02*
X0271777Y0074013D01*
X0275056Y0074013D02*
X0315259Y0074013D01*
X0315864Y0074612D02*
X0265812Y0074612D01*
X0265133Y0075210D02*
X0316468Y0075210D01*
X0317072Y0075809D02*
X0264453Y0075809D01*
X0263774Y0076407D02*
X0317676Y0076407D01*
X0318280Y0077006D02*
X0263094Y0077006D01*
X0262415Y0077604D02*
X0318884Y0077604D01*
X0319488Y0078203D02*
X0261736Y0078203D01*
X0261056Y0078801D02*
X0320093Y0078801D01*
X0320697Y0079400D02*
X0260377Y0079400D01*
X0260108Y0079998D02*
X0260799Y0079998D01*
X0260200Y0080597D02*
X0259860Y0080597D01*
X0254973Y0080597D02*
X0254188Y0080597D01*
X0254725Y0079998D02*
X0253312Y0079998D01*
X0252436Y0079400D02*
X0254628Y0079400D01*
X0254628Y0078801D02*
X0251559Y0078801D01*
X0251702Y0078203D02*
X0250683Y0078203D01*
X0250743Y0077604D02*
X0249807Y0077604D01*
X0250237Y0077006D02*
X0248931Y0077006D01*
X0248054Y0076407D02*
X0249989Y0076407D01*
X0249445Y0075809D02*
X0247178Y0075809D01*
X0246302Y0075210D02*
X0248566Y0075210D01*
X0247687Y0074612D02*
X0245425Y0074612D01*
X0244549Y0074013D02*
X0246808Y0074013D01*
X0245929Y0073415D02*
X0243673Y0073415D01*
X0242797Y0072816D02*
X0245051Y0072816D01*
X0244172Y0072218D02*
X0241920Y0072218D01*
X0241044Y0071619D02*
X0243293Y0071619D01*
X0242414Y0071020D02*
X0240168Y0071020D01*
X0239292Y0070422D02*
X0241535Y0070422D01*
X0240657Y0069823D02*
X0238415Y0069823D01*
X0237539Y0069225D02*
X0239778Y0069225D01*
X0238899Y0068626D02*
X0236663Y0068626D01*
X0235787Y0068028D02*
X0238020Y0068028D01*
X0237142Y0067429D02*
X0234910Y0067429D01*
X0234034Y0066831D02*
X0236263Y0066831D01*
X0235384Y0066232D02*
X0233158Y0066232D01*
X0232281Y0065634D02*
X0234505Y0065634D01*
X0233626Y0065035D02*
X0231405Y0065035D01*
X0230529Y0064437D02*
X0232748Y0064437D01*
X0231869Y0063838D02*
X0229653Y0063838D01*
X0228776Y0063240D02*
X0230990Y0063240D01*
X0230111Y0062641D02*
X0227900Y0062641D01*
X0227024Y0062043D02*
X0229232Y0062043D01*
X0228354Y0061444D02*
X0226148Y0061444D01*
X0225271Y0060846D02*
X0227475Y0060846D01*
X0226596Y0060247D02*
X0224395Y0060247D01*
X0223519Y0059649D02*
X0225717Y0059649D01*
X0224838Y0059050D02*
X0222642Y0059050D01*
X0221766Y0058452D02*
X0223960Y0058452D01*
X0223081Y0057853D02*
X0220890Y0057853D01*
X0220014Y0057255D02*
X0222202Y0057255D01*
X0221323Y0056656D02*
X0219137Y0056656D01*
X0218261Y0056058D02*
X0220445Y0056058D01*
X0219566Y0055459D02*
X0217385Y0055459D01*
X0216509Y0054861D02*
X0218687Y0054861D01*
X0217808Y0054262D02*
X0215632Y0054262D01*
X0214756Y0053664D02*
X0216929Y0053664D01*
X0216051Y0053065D02*
X0213880Y0053065D01*
X0213004Y0052467D02*
X0215172Y0052467D01*
X0246005Y0068626D02*
X0266253Y0068626D01*
X0265573Y0069225D02*
X0246884Y0069225D01*
X0247763Y0069823D02*
X0264894Y0069823D01*
X0264214Y0070422D02*
X0248641Y0070422D01*
X0249520Y0071020D02*
X0263535Y0071020D01*
X0262856Y0071619D02*
X0250399Y0071619D01*
X0251278Y0072218D02*
X0262176Y0072218D01*
X0261497Y0072816D02*
X0253274Y0072816D01*
X0254442Y0073415D02*
X0260817Y0073415D01*
X0260138Y0074013D02*
X0255035Y0074013D01*
X0255283Y0074612D02*
X0259458Y0074612D01*
X0258779Y0075210D02*
X0255456Y0075210D01*
X0255456Y0075809D02*
X0258099Y0075809D01*
X0257420Y0076407D02*
X0255344Y0076407D01*
X0255096Y0077006D02*
X0255675Y0077006D01*
X0255077Y0077604D02*
X0254590Y0077604D01*
X0254815Y0078203D02*
X0253631Y0078203D01*
X0269180Y0079998D02*
X0321301Y0079998D01*
X0321905Y0080597D02*
X0269634Y0080597D01*
X0269978Y0081195D02*
X0322509Y0081195D01*
X0323113Y0081794D02*
X0305831Y0081794D01*
X0306429Y0082392D02*
X0323718Y0082392D01*
X0324322Y0082991D02*
X0307028Y0082991D01*
X0307626Y0083589D02*
X0324926Y0083589D01*
X0325530Y0084188D02*
X0308228Y0084188D01*
X0308823Y0084786D02*
X0326134Y0084786D01*
X0326738Y0085385D02*
X0309407Y0085385D01*
X0309997Y0085983D02*
X0327343Y0085983D01*
X0327947Y0086582D02*
X0310586Y0086582D01*
X0311175Y0087180D02*
X0328551Y0087180D01*
X0329155Y0087779D02*
X0311765Y0087779D01*
X0312354Y0088377D02*
X0329759Y0088377D01*
X0330363Y0088976D02*
X0312944Y0088976D01*
X0313533Y0089574D02*
X0330967Y0089574D01*
X0331572Y0090173D02*
X0314123Y0090173D01*
X0314712Y0090771D02*
X0332176Y0090771D01*
X0332780Y0091370D02*
X0315904Y0091370D01*
X0316996Y0091968D02*
X0333384Y0091968D01*
X0333988Y0092567D02*
X0317557Y0092567D01*
X0317805Y0093165D02*
X0334592Y0093165D01*
X0335197Y0093764D02*
X0317956Y0093764D01*
X0317956Y0094362D02*
X0335801Y0094362D01*
X0336405Y0094961D02*
X0317822Y0094961D01*
X0317574Y0095559D02*
X0337009Y0095559D01*
X0337613Y0096158D02*
X0317036Y0096158D01*
X0316001Y0096756D02*
X0338217Y0096756D01*
X0338822Y0097355D02*
X0312316Y0097355D01*
X0311718Y0096756D02*
X0314332Y0096756D01*
X0313297Y0096158D02*
X0311119Y0096158D01*
X0310521Y0095559D02*
X0312759Y0095559D01*
X0312512Y0094961D02*
X0309956Y0094961D01*
X0309732Y0094362D02*
X0312378Y0094362D01*
X0312045Y0093764D02*
X0309417Y0093764D01*
X0308818Y0093165D02*
X0311456Y0093165D01*
X0310866Y0092567D02*
X0307562Y0092567D01*
X0306979Y0091968D02*
X0310277Y0091968D01*
X0309687Y0091370D02*
X0306396Y0091370D01*
X0305813Y0090771D02*
X0309098Y0090771D01*
X0308509Y0090173D02*
X0305231Y0090173D01*
X0304648Y0089574D02*
X0307919Y0089574D01*
X0307330Y0088976D02*
X0304065Y0088976D01*
X0303482Y0088377D02*
X0306740Y0088377D01*
X0306151Y0087779D02*
X0302900Y0087779D01*
X0302317Y0087180D02*
X0305560Y0087180D01*
X0304962Y0086582D02*
X0301734Y0086582D01*
X0301151Y0085983D02*
X0304363Y0085983D01*
X0303765Y0085385D02*
X0300568Y0085385D01*
X0289156Y0094312D02*
X0288621Y0094022D01*
X0288029Y0093839D01*
X0287395Y0093774D01*
X0288009Y0093835D01*
X0288600Y0094014D01*
X0289145Y0094305D01*
X0289622Y0094697D01*
X0289156Y0094312D01*
X0289622Y0094697D02*
X0290014Y0095174D01*
X0290305Y0095719D01*
X0290484Y0096310D01*
X0290544Y0096924D01*
X0290484Y0097539D01*
X0290305Y0098129D01*
X0290014Y0098674D01*
X0289622Y0099151D01*
X0289145Y0099543D01*
X0288600Y0099834D01*
X0288009Y0100013D01*
X0287395Y0100074D01*
X0286780Y0100013D01*
X0286189Y0099834D01*
X0285645Y0099543D01*
X0285168Y0099151D01*
X0284776Y0098674D01*
X0284485Y0098129D01*
X0284306Y0097539D01*
X0284245Y0096924D01*
X0284306Y0096310D01*
X0284485Y0095719D01*
X0284776Y0095174D01*
X0285168Y0094697D01*
X0285645Y0094305D01*
X0286189Y0094014D01*
X0286780Y0093835D01*
X0287395Y0093774D01*
X0286760Y0093839D01*
X0286169Y0094022D01*
X0285634Y0094312D01*
X0285168Y0094697D01*
X0284783Y0095163D01*
X0284493Y0095698D01*
X0284309Y0096289D01*
X0284245Y0096924D01*
X0284309Y0097559D01*
X0284493Y0098150D01*
X0284783Y0098685D01*
X0285168Y0099151D01*
X0285634Y0099536D01*
X0286169Y0099826D01*
X0286760Y0100010D01*
X0287395Y0100074D01*
X0288029Y0100010D01*
X0288621Y0099826D01*
X0289156Y0099536D01*
X0289622Y0099151D01*
X0290007Y0098685D01*
X0290297Y0098150D01*
X0290480Y0097559D01*
X0290544Y0096924D01*
X0290480Y0096289D01*
X0290297Y0095698D01*
X0290007Y0095163D01*
X0289622Y0094697D01*
X0309637Y0101181D02*
X0309584Y0103793D01*
X0310487Y0103419D01*
X0311597Y0103419D01*
X0312622Y0103844D01*
X0313406Y0104628D01*
X0313483Y0104814D01*
X0314088Y0104208D01*
X0317348Y0104208D01*
X0317712Y0103844D01*
X0318737Y0103419D01*
X0319847Y0103419D01*
X0320872Y0103844D01*
X0321656Y0104628D01*
X0322081Y0105654D01*
X0322081Y0106763D01*
X0321656Y0107788D01*
X0320872Y0108573D01*
X0319847Y0108997D01*
X0318737Y0108997D01*
X0318609Y0108944D01*
X0318706Y0109179D01*
X0318706Y0110288D01*
X0318281Y0111313D01*
X0317497Y0112098D01*
X0316472Y0112522D01*
X0316032Y0112522D01*
X0314003Y0114668D01*
X0314003Y0114720D01*
X0313439Y0115265D01*
X0312901Y0115834D01*
X0312849Y0115836D01*
X0310208Y0118389D01*
X0309631Y0118964D01*
X0309614Y0118964D01*
X0309602Y0118975D01*
X0308788Y0118962D01*
X0307539Y0118958D01*
X0301167Y0118958D01*
X0300605Y0119521D01*
X0300604Y0119533D01*
X0300020Y0120105D01*
X0299442Y0120683D01*
X0299429Y0120683D01*
X0299421Y0120692D01*
X0298602Y0120683D01*
X0297785Y0120683D01*
X0297776Y0120675D01*
X0294588Y0120641D01*
X0294481Y0120723D01*
X0293777Y0120632D01*
X0293067Y0120624D01*
X0292972Y0120527D01*
X0292838Y0120510D01*
X0292405Y0119948D01*
X0291908Y0119440D01*
X0291910Y0119305D01*
X0291698Y0119030D01*
X0291520Y0119030D01*
X0290495Y0118605D01*
X0289842Y0117953D01*
X0282088Y0126426D01*
X0282088Y0126477D01*
X0281534Y0127032D01*
X0281165Y0127435D01*
X0302023Y0127409D01*
X0326387Y0103497D01*
X0326362Y0103497D01*
X0325337Y0103073D01*
X0325273Y0103008D01*
X0311464Y0103008D01*
X0310117Y0101661D01*
X0309637Y0101181D01*
X0309630Y0101545D02*
X0310000Y0101545D01*
X0309617Y0102143D02*
X0310599Y0102143D01*
X0311197Y0102742D02*
X0309605Y0102742D01*
X0309593Y0103340D02*
X0325983Y0103340D01*
X0325938Y0103939D02*
X0320966Y0103939D01*
X0321565Y0104537D02*
X0325328Y0104537D01*
X0324718Y0105136D02*
X0321866Y0105136D01*
X0322081Y0105734D02*
X0324108Y0105734D01*
X0323498Y0106333D02*
X0322081Y0106333D01*
X0322011Y0106931D02*
X0322889Y0106931D01*
X0322279Y0107530D02*
X0321763Y0107530D01*
X0321669Y0108128D02*
X0321316Y0108128D01*
X0321059Y0108727D02*
X0320500Y0108727D01*
X0320449Y0109325D02*
X0318706Y0109325D01*
X0318706Y0109924D02*
X0319839Y0109924D01*
X0319230Y0110522D02*
X0318609Y0110522D01*
X0318620Y0111121D02*
X0318361Y0111121D01*
X0318010Y0111719D02*
X0317875Y0111719D01*
X0317400Y0112318D02*
X0316965Y0112318D01*
X0316790Y0112916D02*
X0315660Y0112916D01*
X0316180Y0113515D02*
X0315094Y0113515D01*
X0315571Y0114113D02*
X0314528Y0114113D01*
X0314961Y0114712D02*
X0314003Y0114712D01*
X0314351Y0115310D02*
X0313396Y0115310D01*
X0313741Y0115909D02*
X0312773Y0115909D01*
X0313131Y0116507D02*
X0312154Y0116507D01*
X0312522Y0117106D02*
X0311536Y0117106D01*
X0311912Y0117704D02*
X0310917Y0117704D01*
X0311302Y0118303D02*
X0310298Y0118303D01*
X0310692Y0118901D02*
X0309693Y0118901D01*
X0310082Y0119500D02*
X0300625Y0119500D01*
X0300027Y0120098D02*
X0309472Y0120098D01*
X0308863Y0120697D02*
X0294515Y0120697D01*
X0294277Y0120697D02*
X0287331Y0120697D01*
X0286783Y0121295D02*
X0308253Y0121295D01*
X0307643Y0121894D02*
X0286236Y0121894D01*
X0285688Y0122492D02*
X0307033Y0122492D01*
X0306423Y0123091D02*
X0285140Y0123091D01*
X0284593Y0123689D02*
X0305813Y0123689D01*
X0305204Y0124288D02*
X0284045Y0124288D01*
X0283497Y0124887D02*
X0304594Y0124887D01*
X0303984Y0125485D02*
X0282950Y0125485D01*
X0282402Y0126084D02*
X0303374Y0126084D01*
X0302764Y0126682D02*
X0281884Y0126682D01*
X0281307Y0127281D02*
X0302154Y0127281D01*
X0313963Y0121295D02*
X0332984Y0121295D01*
X0332984Y0121894D02*
X0319105Y0121894D01*
X0319704Y0122492D02*
X0332984Y0122492D01*
X0332984Y0123091D02*
X0320302Y0123091D01*
X0320901Y0123689D02*
X0332984Y0123689D01*
X0332984Y0124288D02*
X0321499Y0124288D01*
X0322127Y0124887D02*
X0332984Y0124887D01*
X0332951Y0125485D02*
X0322696Y0125485D01*
X0323183Y0126084D02*
X0332958Y0126084D01*
X0333073Y0126682D02*
X0323711Y0126682D01*
X0324239Y0127281D02*
X0333332Y0127281D01*
X0333739Y0127879D02*
X0324767Y0127879D01*
X0325716Y0128478D02*
X0334534Y0128478D01*
X0335362Y0126799D02*
X0335584Y0126920D01*
X0335829Y0126996D01*
X0336092Y0127023D01*
X0337976Y0127023D01*
X0338239Y0126996D01*
X0338484Y0126920D01*
X0338707Y0126799D01*
X0338901Y0126639D01*
X0339061Y0126445D01*
X0339182Y0126223D01*
X0339258Y0125978D01*
X0339285Y0125715D01*
X0339285Y0120638D01*
X0339258Y0120375D01*
X0339182Y0120130D01*
X0339061Y0119908D01*
X0338901Y0119714D01*
X0338707Y0119554D01*
X0338484Y0119433D01*
X0338239Y0119357D01*
X0337976Y0119330D01*
X0336092Y0119330D01*
X0335829Y0119357D01*
X0335584Y0119433D01*
X0335362Y0119554D01*
X0335168Y0119714D01*
X0335008Y0119908D01*
X0334887Y0120130D01*
X0334811Y0120375D01*
X0334784Y0120638D01*
X0334784Y0125715D01*
X0334811Y0125978D01*
X0334887Y0126223D01*
X0335008Y0126445D01*
X0335168Y0126639D01*
X0335362Y0126799D01*
X0339536Y0128478D02*
X0340992Y0128478D01*
X0340992Y0129076D02*
X0326479Y0129076D01*
X0326904Y0129675D02*
X0340992Y0129675D01*
X0340992Y0130273D02*
X0327152Y0130273D01*
X0327206Y0130872D02*
X0340992Y0130872D01*
X0340992Y0131470D02*
X0327206Y0131470D01*
X0326976Y0132069D02*
X0340992Y0132069D01*
X0340992Y0132667D02*
X0326652Y0132667D01*
X0326054Y0133266D02*
X0340992Y0133266D01*
X0340992Y0133864D02*
X0325020Y0133864D01*
X0325574Y0134463D02*
X0340992Y0134463D01*
X0340992Y0135061D02*
X0326127Y0135061D01*
X0326681Y0135660D02*
X0340992Y0135660D01*
X0340718Y0136258D02*
X0327235Y0136258D01*
X0327788Y0136857D02*
X0340503Y0136857D01*
X0340503Y0137455D02*
X0328342Y0137455D01*
X0328896Y0138054D02*
X0340571Y0138054D01*
X0340819Y0138652D02*
X0329449Y0138652D01*
X0330003Y0139251D02*
X0341265Y0139251D01*
X0346917Y0130708D02*
X0347517Y0130216D01*
X0347667Y0130208D02*
X0346917Y0130708D01*
X0340992Y0127879D02*
X0340330Y0127879D01*
X0340737Y0127281D02*
X0340992Y0127281D01*
X0340978Y0119500D02*
X0340992Y0119500D01*
X0340992Y0118901D02*
X0340684Y0118901D01*
X0340992Y0118303D02*
X0340173Y0118303D01*
X0340992Y0117704D02*
X0339293Y0117704D01*
X0340992Y0117106D02*
X0318232Y0117106D01*
X0317622Y0117704D02*
X0334774Y0117704D01*
X0333894Y0118303D02*
X0317012Y0118303D01*
X0316403Y0118901D02*
X0333385Y0118901D01*
X0333091Y0119500D02*
X0315793Y0119500D01*
X0315183Y0120098D02*
X0332984Y0120098D01*
X0332947Y0120697D02*
X0314573Y0120697D01*
X0318842Y0116507D02*
X0340992Y0116507D01*
X0340992Y0115909D02*
X0319452Y0115909D01*
X0320062Y0115310D02*
X0340992Y0115310D01*
X0340992Y0114712D02*
X0320671Y0114712D01*
X0321281Y0114113D02*
X0340992Y0114113D01*
X0340992Y0113515D02*
X0321891Y0113515D01*
X0322501Y0112916D02*
X0340992Y0112916D01*
X0340992Y0112318D02*
X0323111Y0112318D01*
X0323720Y0111719D02*
X0340992Y0111719D01*
X0340992Y0111121D02*
X0324330Y0111121D01*
X0324940Y0110522D02*
X0340992Y0110522D01*
X0340992Y0109924D02*
X0325550Y0109924D01*
X0326160Y0109325D02*
X0340992Y0109325D01*
X0340992Y0108727D02*
X0326770Y0108727D01*
X0327379Y0108128D02*
X0341244Y0108128D01*
X0341843Y0107530D02*
X0327989Y0107530D01*
X0328599Y0106931D02*
X0342441Y0106931D01*
X0343040Y0106333D02*
X0329209Y0106333D01*
X0329819Y0105734D02*
X0343448Y0105734D01*
X0343696Y0105136D02*
X0330429Y0105136D01*
X0331052Y0104537D02*
X0344144Y0104537D01*
X0344962Y0103939D02*
X0331648Y0103939D01*
X0333028Y0103340D02*
X0348792Y0103340D01*
X0348792Y0102742D02*
X0333828Y0102742D01*
X0334268Y0102143D02*
X0348773Y0102143D01*
X0348175Y0101545D02*
X0334516Y0101545D01*
X0334581Y0100946D02*
X0341988Y0100946D01*
X0340862Y0100348D02*
X0334581Y0100348D01*
X0334361Y0099749D02*
X0340286Y0099749D01*
X0340038Y0099151D02*
X0334053Y0099151D01*
X0333455Y0098552D02*
X0339878Y0098552D01*
X0339426Y0097954D02*
X0327554Y0097954D01*
X0326280Y0097954D02*
X0312915Y0097954D01*
X0312716Y0103939D02*
X0317617Y0103939D01*
X0313760Y0104537D02*
X0313315Y0104537D01*
X0328705Y0098552D02*
X0330129Y0098552D01*
X0329530Y0099151D02*
X0329290Y0099151D01*
X0339956Y0092567D02*
X0347556Y0092567D01*
X0348154Y0093165D02*
X0340560Y0093165D01*
X0341164Y0093764D02*
X0348753Y0093764D01*
X0349351Y0094362D02*
X0341768Y0094362D01*
X0342373Y0094961D02*
X0349950Y0094961D01*
X0350548Y0095559D02*
X0343560Y0095559D01*
X0344561Y0096158D02*
X0351147Y0096158D01*
X0351745Y0096756D02*
X0349043Y0096756D01*
X0349642Y0097355D02*
X0352344Y0097355D01*
X0352942Y0097954D02*
X0350240Y0097954D01*
X0350839Y0098552D02*
X0353541Y0098552D01*
X0354139Y0099151D02*
X0351437Y0099151D01*
X0352036Y0099749D02*
X0354738Y0099749D01*
X0355336Y0100348D02*
X0352634Y0100348D01*
X0352792Y0100946D02*
X0355935Y0100946D01*
X0356533Y0101545D02*
X0352792Y0101545D01*
X0352792Y0102143D02*
X0357132Y0102143D01*
X0357730Y0102742D02*
X0352792Y0102742D01*
X0352792Y0103340D02*
X0358329Y0103340D01*
X0358817Y0103939D02*
X0352792Y0103939D01*
X0352792Y0104537D02*
X0358817Y0104537D01*
X0358817Y0105136D02*
X0352792Y0105136D01*
X0352792Y0105734D02*
X0358817Y0105734D01*
X0358468Y0106333D02*
X0352792Y0106333D01*
X0352792Y0106931D02*
X0358220Y0106931D01*
X0358128Y0107530D02*
X0352792Y0107530D01*
X0352792Y0108128D02*
X0358128Y0108128D01*
X0358320Y0108727D02*
X0352792Y0108727D01*
X0352792Y0109325D02*
X0358589Y0109325D01*
X0359188Y0109924D02*
X0352792Y0109924D01*
X0353164Y0110522D02*
X0361618Y0110522D01*
X0360813Y0111121D02*
X0353412Y0111121D01*
X0353581Y0111719D02*
X0360009Y0111719D01*
X0359204Y0112318D02*
X0353581Y0112318D01*
X0353466Y0112916D02*
X0358399Y0112916D01*
X0357569Y0113515D02*
X0354561Y0113515D01*
X0355477Y0114113D02*
X0356807Y0114113D01*
X0356431Y0114712D02*
X0356012Y0114712D01*
X0354442Y0115761D02*
X0354281Y0115567D01*
X0354088Y0115407D01*
X0353865Y0115286D01*
X0353620Y0115210D01*
X0353357Y0115183D01*
X0348281Y0115183D01*
X0348018Y0115210D01*
X0347773Y0115286D01*
X0347551Y0115407D01*
X0347357Y0115567D01*
X0347197Y0115761D01*
X0347076Y0115984D01*
X0346999Y0116229D01*
X0346973Y0116492D01*
X0346973Y0118376D01*
X0346999Y0118639D01*
X0347076Y0118884D01*
X0347197Y0119106D01*
X0347357Y0119300D01*
X0347551Y0119460D01*
X0347773Y0119581D01*
X0348018Y0119658D01*
X0348281Y0119684D01*
X0353357Y0119684D01*
X0353620Y0119658D01*
X0353865Y0119581D01*
X0354088Y0119460D01*
X0354281Y0119300D01*
X0354442Y0119106D01*
X0354562Y0118884D01*
X0354639Y0118639D01*
X0354666Y0118376D01*
X0354666Y0116492D01*
X0354639Y0116229D01*
X0354562Y0115984D01*
X0354442Y0115761D01*
X0365296Y0116492D02*
X0365296Y0118376D01*
X0365323Y0118639D01*
X0365399Y0118884D01*
X0365520Y0119106D01*
X0365681Y0119300D01*
X0365874Y0119460D01*
X0366097Y0119581D01*
X0366342Y0119658D01*
X0366605Y0119684D01*
X0371681Y0119684D01*
X0371944Y0119658D01*
X0372189Y0119581D01*
X0372411Y0119460D01*
X0372605Y0119300D01*
X0372765Y0119106D01*
X0372886Y0118884D01*
X0372962Y0118639D01*
X0372989Y0118376D01*
X0372989Y0116492D01*
X0372962Y0116229D01*
X0372886Y0115984D01*
X0372765Y0115761D01*
X0372605Y0115567D01*
X0372411Y0115407D01*
X0372189Y0115286D01*
X0371944Y0115210D01*
X0371681Y0115183D01*
X0366605Y0115183D01*
X0366342Y0115210D01*
X0366097Y0115286D01*
X0365874Y0115407D01*
X0365681Y0115567D01*
X0365520Y0115761D01*
X0365399Y0115984D01*
X0365323Y0116229D01*
X0365296Y0116492D01*
X0348792Y0105136D02*
X0348638Y0105136D01*
X0348792Y0104537D02*
X0348190Y0104537D01*
X0348792Y0103939D02*
X0347372Y0103939D01*
X0347576Y0100946D02*
X0343345Y0100946D01*
X0344472Y0100348D02*
X0346978Y0100348D01*
X0346957Y0091968D02*
X0339352Y0091968D01*
X0338748Y0091370D02*
X0346358Y0091370D01*
X0345760Y0090771D02*
X0338144Y0090771D01*
X0337539Y0090173D02*
X0345161Y0090173D01*
X0344563Y0089574D02*
X0336935Y0089574D01*
X0336331Y0088976D02*
X0343964Y0088976D01*
X0343366Y0088377D02*
X0335727Y0088377D01*
X0335123Y0087779D02*
X0342767Y0087779D01*
X0342517Y0087180D02*
X0334519Y0087180D01*
X0333914Y0086582D02*
X0342517Y0086582D01*
X0342517Y0085983D02*
X0333310Y0085983D01*
X0332706Y0085385D02*
X0342517Y0085385D01*
X0342517Y0084786D02*
X0332102Y0084786D01*
X0331498Y0084188D02*
X0342517Y0084188D01*
X0342517Y0083589D02*
X0330894Y0083589D01*
X0330289Y0082991D02*
X0342517Y0082991D01*
X0342517Y0082392D02*
X0329685Y0082392D01*
X0329081Y0081794D02*
X0342517Y0081794D01*
X0342517Y0081195D02*
X0328477Y0081195D01*
X0327873Y0080597D02*
X0342517Y0080597D01*
X0342517Y0079998D02*
X0327269Y0079998D01*
X0326665Y0079400D02*
X0342517Y0079400D01*
X0342517Y0078801D02*
X0326060Y0078801D01*
X0325456Y0078203D02*
X0342517Y0078203D01*
X0342517Y0077604D02*
X0324852Y0077604D01*
X0324248Y0077006D02*
X0342025Y0077006D01*
X0341344Y0076407D02*
X0323644Y0076407D01*
X0323040Y0075809D02*
X0326942Y0075809D01*
X0326334Y0075210D02*
X0322435Y0075210D01*
X0321831Y0074612D02*
X0325723Y0074612D01*
X0325113Y0074013D02*
X0321227Y0074013D01*
X0320623Y0073415D02*
X0324503Y0073415D01*
X0323893Y0072816D02*
X0320019Y0072816D01*
X0319415Y0072218D02*
X0323283Y0072218D01*
X0322672Y0071619D02*
X0318810Y0071619D01*
X0318206Y0071020D02*
X0322062Y0071020D01*
X0321452Y0070422D02*
X0317602Y0070422D01*
X0317002Y0069823D02*
X0320842Y0069823D01*
X0319011Y0068028D02*
X0273286Y0068028D01*
X0273966Y0067429D02*
X0318401Y0067429D01*
X0261378Y0096158D02*
X0256638Y0096158D01*
X0255952Y0096756D02*
X0260791Y0096756D01*
X0260218Y0097355D02*
X0255266Y0097355D01*
X0254600Y0097954D02*
X0259644Y0097954D01*
X0288974Y0118901D02*
X0291209Y0118901D01*
X0291966Y0119500D02*
X0288426Y0119500D01*
X0287879Y0120098D02*
X0292521Y0120098D01*
X0290192Y0118303D02*
X0289522Y0118303D01*
X0281748Y0136200D02*
X0281503Y0136123D01*
X0281240Y0136097D01*
X0276163Y0136097D01*
X0275901Y0136123D01*
X0275655Y0136200D01*
X0275433Y0136321D01*
X0275240Y0136481D01*
X0275079Y0136675D01*
X0274959Y0136897D01*
X0274882Y0137142D01*
X0274855Y0137405D01*
X0274855Y0139289D01*
X0274882Y0139552D01*
X0274959Y0139797D01*
X0275079Y0140020D01*
X0275240Y0140213D01*
X0275433Y0140374D01*
X0275655Y0140495D01*
X0275901Y0140571D01*
X0276163Y0140598D01*
X0281240Y0140598D01*
X0281503Y0140571D01*
X0281748Y0140495D01*
X0281970Y0140374D01*
X0282164Y0140213D01*
X0282324Y0140020D01*
X0282445Y0139797D01*
X0282522Y0139552D01*
X0282548Y0139289D01*
X0282548Y0137405D01*
X0282522Y0137142D01*
X0282445Y0136897D01*
X0282324Y0136675D01*
X0282164Y0136481D01*
X0281970Y0136321D01*
X0281748Y0136200D01*
X0267120Y0137405D02*
X0267094Y0137142D01*
X0267017Y0136897D01*
X0266896Y0136675D01*
X0266736Y0136481D01*
X0266542Y0136321D01*
X0266320Y0136200D01*
X0266075Y0136123D01*
X0265812Y0136097D01*
X0260736Y0136097D01*
X0260473Y0136123D01*
X0260228Y0136200D01*
X0260005Y0136321D01*
X0259812Y0136481D01*
X0259651Y0136675D01*
X0259531Y0136897D01*
X0259454Y0137142D01*
X0259427Y0137405D01*
X0259427Y0139289D01*
X0259454Y0139552D01*
X0259531Y0139797D01*
X0259651Y0140020D01*
X0259812Y0140213D01*
X0260005Y0140374D01*
X0260228Y0140495D01*
X0260473Y0140571D01*
X0260736Y0140598D01*
X0265812Y0140598D01*
X0266075Y0140571D01*
X0266320Y0140495D01*
X0266542Y0140374D01*
X0266736Y0140213D01*
X0266896Y0140020D01*
X0267017Y0139797D01*
X0267094Y0139552D01*
X0267120Y0139289D01*
X0267120Y0137405D01*
X0232250Y0130872D02*
X0231335Y0130872D01*
X0193730Y0098552D02*
X0193574Y0098552D01*
X0192455Y0097408D02*
X0192455Y0092786D01*
X0194055Y0092567D02*
X0195026Y0092567D01*
X0195026Y0093165D02*
X0194055Y0093165D01*
X0194055Y0093764D02*
X0195026Y0093764D01*
X0195026Y0094362D02*
X0194055Y0094362D01*
X0194055Y0094961D02*
X0195026Y0094961D01*
X0195026Y0095559D02*
X0194055Y0095559D01*
X0194849Y0097408D02*
X0198404Y0097408D01*
X0196626Y0097408D02*
X0196626Y0091008D01*
X0195026Y0090771D02*
X0193415Y0090771D01*
X0193150Y0090313D02*
X0193150Y0090313D01*
X0192907Y0090173D02*
X0195199Y0090173D01*
X0195798Y0089574D02*
X0191870Y0089574D01*
X0189485Y0089574D02*
X0185511Y0089574D01*
X0186548Y0090173D02*
X0188448Y0090173D01*
X0188205Y0090313D02*
X0188205Y0090313D01*
X0188205Y0090313D01*
X0187940Y0090771D02*
X0187055Y0090771D01*
X0186791Y0090313D02*
X0186791Y0090313D01*
X0187401Y0091370D02*
X0187595Y0091370D01*
X0188900Y0092786D02*
X0188900Y0097408D01*
X0190019Y0098552D02*
X0191336Y0098552D01*
X0190855Y0097954D02*
X0190500Y0097954D01*
X0190500Y0097355D02*
X0190855Y0097355D01*
X0190855Y0096756D02*
X0190500Y0096756D01*
X0190500Y0096158D02*
X0190855Y0096158D01*
X0190855Y0095559D02*
X0190500Y0095559D01*
X0190500Y0094961D02*
X0190855Y0094961D01*
X0190855Y0094362D02*
X0190500Y0094362D01*
X0190500Y0093764D02*
X0190855Y0093764D01*
X0190855Y0093449D02*
X0190855Y0093449D01*
X0190855Y0093165D02*
X0190500Y0093165D01*
X0188900Y0092786D02*
X0188902Y0092703D01*
X0188908Y0092620D01*
X0188918Y0092537D01*
X0188931Y0092454D01*
X0188949Y0092373D01*
X0188970Y0092292D01*
X0188995Y0092213D01*
X0189024Y0092135D01*
X0189056Y0092058D01*
X0189092Y0091983D01*
X0189131Y0091909D01*
X0189174Y0091838D01*
X0189220Y0091768D01*
X0189270Y0091701D01*
X0189322Y0091636D01*
X0189377Y0091574D01*
X0189436Y0091514D01*
X0189497Y0091457D01*
X0189560Y0091403D01*
X0189626Y0091352D01*
X0189695Y0091305D01*
X0189765Y0091260D01*
X0189838Y0091219D01*
X0189912Y0091182D01*
X0189988Y0091147D01*
X0190066Y0091117D01*
X0190144Y0091090D01*
X0190225Y0091067D01*
X0190306Y0091047D01*
X0190388Y0091032D01*
X0190470Y0091020D01*
X0190553Y0091012D01*
X0190636Y0091008D01*
X0190720Y0091008D01*
X0190803Y0091012D01*
X0190886Y0091020D01*
X0190968Y0091032D01*
X0191050Y0091047D01*
X0191131Y0091067D01*
X0191212Y0091090D01*
X0191290Y0091117D01*
X0191368Y0091147D01*
X0191444Y0091182D01*
X0191518Y0091219D01*
X0191591Y0091260D01*
X0191661Y0091305D01*
X0191730Y0091352D01*
X0191796Y0091403D01*
X0191859Y0091457D01*
X0191920Y0091514D01*
X0191979Y0091574D01*
X0192034Y0091636D01*
X0192086Y0091701D01*
X0192136Y0091768D01*
X0192182Y0091838D01*
X0192225Y0091909D01*
X0192264Y0091983D01*
X0192300Y0092058D01*
X0192332Y0092135D01*
X0192361Y0092213D01*
X0192386Y0092292D01*
X0192407Y0092373D01*
X0192425Y0092454D01*
X0192438Y0092537D01*
X0192448Y0092620D01*
X0192454Y0092703D01*
X0192456Y0092786D01*
X0194055Y0091968D02*
X0195026Y0091968D01*
X0195026Y0091370D02*
X0193760Y0091370D01*
X0186096Y0092786D02*
X0186096Y0095631D01*
X0184496Y0095631D02*
X0184496Y0094968D01*
X0184496Y0094968D01*
X0184496Y0092786D01*
X0184490Y0092740D01*
X0184444Y0092660D01*
X0184364Y0092614D01*
X0184272Y0092614D01*
X0184193Y0092660D01*
X0184147Y0092740D01*
X0184141Y0092786D01*
X0184141Y0095631D01*
X0184147Y0095677D01*
X0184193Y0095756D01*
X0184272Y0095802D01*
X0184364Y0095802D01*
X0184444Y0095756D01*
X0184490Y0095677D01*
X0184496Y0095631D01*
X0184496Y0095559D02*
X0184141Y0095559D01*
X0182540Y0095631D02*
X0182542Y0095714D01*
X0182548Y0095797D01*
X0182558Y0095880D01*
X0182571Y0095963D01*
X0182589Y0096044D01*
X0182610Y0096125D01*
X0182635Y0096204D01*
X0182664Y0096282D01*
X0182696Y0096359D01*
X0182732Y0096434D01*
X0182771Y0096508D01*
X0182814Y0096579D01*
X0182860Y0096649D01*
X0182910Y0096716D01*
X0182962Y0096781D01*
X0183017Y0096843D01*
X0183076Y0096903D01*
X0183137Y0096960D01*
X0183200Y0097014D01*
X0183266Y0097065D01*
X0183335Y0097112D01*
X0183405Y0097157D01*
X0183478Y0097198D01*
X0183552Y0097235D01*
X0183628Y0097270D01*
X0183706Y0097300D01*
X0183784Y0097327D01*
X0183865Y0097350D01*
X0183946Y0097370D01*
X0184028Y0097385D01*
X0184110Y0097397D01*
X0184193Y0097405D01*
X0184276Y0097409D01*
X0184360Y0097409D01*
X0184443Y0097405D01*
X0184526Y0097397D01*
X0184608Y0097385D01*
X0184690Y0097370D01*
X0184771Y0097350D01*
X0184852Y0097327D01*
X0184930Y0097300D01*
X0185008Y0097270D01*
X0185084Y0097235D01*
X0185158Y0097198D01*
X0185231Y0097157D01*
X0185301Y0097112D01*
X0185370Y0097065D01*
X0185436Y0097014D01*
X0185499Y0096960D01*
X0185560Y0096903D01*
X0185619Y0096843D01*
X0185674Y0096781D01*
X0185726Y0096716D01*
X0185776Y0096649D01*
X0185822Y0096579D01*
X0185865Y0096508D01*
X0185904Y0096434D01*
X0185940Y0096359D01*
X0185972Y0096282D01*
X0186001Y0096204D01*
X0186026Y0096125D01*
X0186047Y0096044D01*
X0186065Y0095963D01*
X0186078Y0095880D01*
X0186088Y0095797D01*
X0186094Y0095714D01*
X0186096Y0095631D01*
X0184496Y0094961D02*
X0184141Y0094961D01*
X0184141Y0094362D02*
X0184496Y0094362D01*
X0184496Y0093764D02*
X0184141Y0093764D01*
X0184141Y0093165D02*
X0184496Y0093165D01*
X0186096Y0092786D02*
X0186094Y0092703D01*
X0186088Y0092620D01*
X0186078Y0092537D01*
X0186065Y0092454D01*
X0186047Y0092373D01*
X0186026Y0092292D01*
X0186001Y0092213D01*
X0185972Y0092135D01*
X0185940Y0092058D01*
X0185904Y0091983D01*
X0185865Y0091909D01*
X0185822Y0091838D01*
X0185776Y0091768D01*
X0185726Y0091701D01*
X0185674Y0091636D01*
X0185619Y0091574D01*
X0185560Y0091514D01*
X0185499Y0091457D01*
X0185436Y0091403D01*
X0185370Y0091352D01*
X0185301Y0091305D01*
X0185231Y0091260D01*
X0185158Y0091219D01*
X0185084Y0091182D01*
X0185008Y0091147D01*
X0184930Y0091117D01*
X0184852Y0091090D01*
X0184771Y0091067D01*
X0184690Y0091047D01*
X0184608Y0091032D01*
X0184526Y0091020D01*
X0184443Y0091012D01*
X0184360Y0091008D01*
X0184276Y0091008D01*
X0184193Y0091012D01*
X0184110Y0091020D01*
X0184028Y0091032D01*
X0183946Y0091047D01*
X0183865Y0091067D01*
X0183784Y0091090D01*
X0183706Y0091117D01*
X0183628Y0091147D01*
X0183552Y0091182D01*
X0183478Y0091219D01*
X0183405Y0091260D01*
X0183335Y0091305D01*
X0183266Y0091352D01*
X0183200Y0091403D01*
X0183137Y0091457D01*
X0183076Y0091514D01*
X0183017Y0091574D01*
X0182962Y0091636D01*
X0182910Y0091701D01*
X0182860Y0091768D01*
X0182814Y0091838D01*
X0182771Y0091909D01*
X0182732Y0091983D01*
X0182696Y0092058D01*
X0182664Y0092135D01*
X0182635Y0092213D01*
X0182610Y0092292D01*
X0182589Y0092373D01*
X0182571Y0092454D01*
X0182558Y0092537D01*
X0182548Y0092620D01*
X0182542Y0092703D01*
X0182540Y0092786D01*
X0182541Y0092786D02*
X0182541Y0095631D01*
X0180941Y0095559D02*
X0176892Y0095559D01*
X0176892Y0094961D02*
X0180941Y0094961D01*
X0180941Y0094362D02*
X0176892Y0094362D01*
X0176892Y0093764D02*
X0180941Y0093764D01*
X0180941Y0093165D02*
X0176892Y0093165D01*
X0176892Y0092567D02*
X0180941Y0092567D01*
X0180941Y0091968D02*
X0176892Y0091968D01*
X0176892Y0091370D02*
X0181236Y0091370D01*
X0181581Y0090771D02*
X0176892Y0090771D01*
X0176720Y0090173D02*
X0182089Y0090173D01*
X0181846Y0090313D02*
X0181846Y0090313D01*
X0181846Y0090313D01*
X0183126Y0089574D02*
X0176121Y0089574D01*
X0175292Y0091008D02*
X0175292Y0097408D01*
X0173515Y0097408D02*
X0177070Y0097408D01*
X0178189Y0098552D02*
X0182623Y0098552D01*
X0181846Y0098103D02*
X0181846Y0098103D01*
X0181846Y0098103D01*
X0181759Y0097954D02*
X0178670Y0097954D01*
X0178670Y0097355D02*
X0181414Y0097355D01*
X0181068Y0096756D02*
X0178670Y0096756D01*
X0178083Y0096158D02*
X0180941Y0096158D01*
X0186014Y0098552D02*
X0187781Y0098552D01*
X0187300Y0097954D02*
X0186878Y0097954D01*
X0186791Y0098103D02*
X0186791Y0098103D01*
X0186791Y0098103D01*
X0187223Y0097355D02*
X0187300Y0097355D01*
X0173692Y0095559D02*
X0172721Y0095559D01*
X0172721Y0094961D02*
X0173692Y0094961D01*
X0173692Y0094362D02*
X0172721Y0094362D01*
X0172721Y0093764D02*
X0173692Y0093764D01*
X0173692Y0093165D02*
X0172721Y0093165D01*
X0172721Y0092567D02*
X0173692Y0092567D01*
X0173692Y0091968D02*
X0172721Y0091968D01*
X0172426Y0091370D02*
X0173692Y0091370D01*
X0173692Y0090771D02*
X0172081Y0090771D01*
X0171816Y0090313D02*
X0171816Y0090313D01*
X0171573Y0090173D02*
X0173865Y0090173D01*
X0174464Y0089574D02*
X0170536Y0089574D01*
X0168151Y0089574D02*
X0165890Y0089574D01*
X0166488Y0090173D02*
X0167114Y0090173D01*
X0165061Y0091008D02*
X0163639Y0091008D01*
X0163639Y0091009D02*
X0163565Y0091011D01*
X0163490Y0091017D01*
X0163417Y0091027D01*
X0163343Y0091040D01*
X0163271Y0091057D01*
X0163200Y0091079D01*
X0163129Y0091103D01*
X0163061Y0091132D01*
X0162993Y0091164D01*
X0162928Y0091200D01*
X0162865Y0091238D01*
X0162803Y0091281D01*
X0162744Y0091326D01*
X0162687Y0091374D01*
X0162633Y0091425D01*
X0162582Y0091479D01*
X0162534Y0091536D01*
X0162489Y0091595D01*
X0162446Y0091657D01*
X0162408Y0091720D01*
X0162372Y0091785D01*
X0162340Y0091853D01*
X0162311Y0091921D01*
X0162287Y0091992D01*
X0162265Y0092063D01*
X0162248Y0092135D01*
X0162235Y0092209D01*
X0162225Y0092282D01*
X0162219Y0092357D01*
X0162217Y0092431D01*
X0162217Y0095986D01*
X0162219Y0096060D01*
X0162225Y0096135D01*
X0162235Y0096208D01*
X0162248Y0096282D01*
X0162265Y0096354D01*
X0162287Y0096425D01*
X0162311Y0096496D01*
X0162340Y0096564D01*
X0162372Y0096632D01*
X0162408Y0096697D01*
X0162446Y0096760D01*
X0162489Y0096822D01*
X0162534Y0096881D01*
X0162582Y0096937D01*
X0162633Y0096992D01*
X0162687Y0097043D01*
X0162744Y0097091D01*
X0162803Y0097136D01*
X0162865Y0097179D01*
X0162928Y0097217D01*
X0162993Y0097253D01*
X0163061Y0097285D01*
X0163129Y0097314D01*
X0163200Y0097338D01*
X0163271Y0097360D01*
X0163343Y0097377D01*
X0163417Y0097390D01*
X0163490Y0097400D01*
X0163565Y0097406D01*
X0163639Y0097408D01*
X0165061Y0097408D01*
X0166180Y0098552D02*
X0166447Y0098552D01*
X0167566Y0097408D02*
X0167566Y0092786D01*
X0165966Y0092567D02*
X0165765Y0092567D01*
X0165724Y0092608D02*
X0165966Y0092366D01*
X0165966Y0096050D01*
X0165724Y0095808D01*
X0163817Y0095808D01*
X0163817Y0092608D01*
X0165724Y0092608D01*
X0165966Y0093165D02*
X0163817Y0093165D01*
X0163817Y0093764D02*
X0165966Y0093764D01*
X0165966Y0094362D02*
X0163817Y0094362D01*
X0163817Y0094961D02*
X0165966Y0094961D01*
X0165966Y0095559D02*
X0163817Y0095559D01*
X0169166Y0095559D02*
X0169521Y0095559D01*
X0169521Y0094961D02*
X0169166Y0094961D01*
X0169166Y0094362D02*
X0169521Y0094362D01*
X0169521Y0093764D02*
X0169166Y0093764D01*
X0169166Y0093165D02*
X0169521Y0093165D01*
X0171122Y0092786D02*
X0171120Y0092703D01*
X0171114Y0092620D01*
X0171104Y0092537D01*
X0171091Y0092454D01*
X0171073Y0092373D01*
X0171052Y0092292D01*
X0171027Y0092213D01*
X0170998Y0092135D01*
X0170966Y0092058D01*
X0170930Y0091983D01*
X0170891Y0091909D01*
X0170848Y0091838D01*
X0170802Y0091768D01*
X0170752Y0091701D01*
X0170700Y0091636D01*
X0170645Y0091574D01*
X0170586Y0091514D01*
X0170525Y0091457D01*
X0170462Y0091403D01*
X0170396Y0091352D01*
X0170327Y0091305D01*
X0170257Y0091260D01*
X0170184Y0091219D01*
X0170110Y0091182D01*
X0170034Y0091147D01*
X0169956Y0091117D01*
X0169878Y0091090D01*
X0169797Y0091067D01*
X0169716Y0091047D01*
X0169634Y0091032D01*
X0169552Y0091020D01*
X0169469Y0091012D01*
X0169386Y0091008D01*
X0169302Y0091008D01*
X0169219Y0091012D01*
X0169136Y0091020D01*
X0169054Y0091032D01*
X0168972Y0091047D01*
X0168891Y0091067D01*
X0168810Y0091090D01*
X0168732Y0091117D01*
X0168654Y0091147D01*
X0168578Y0091182D01*
X0168504Y0091219D01*
X0168431Y0091260D01*
X0168361Y0091305D01*
X0168292Y0091352D01*
X0168226Y0091403D01*
X0168163Y0091457D01*
X0168102Y0091514D01*
X0168043Y0091574D01*
X0167988Y0091636D01*
X0167936Y0091701D01*
X0167886Y0091768D01*
X0167840Y0091838D01*
X0167797Y0091909D01*
X0167758Y0091983D01*
X0167722Y0092058D01*
X0167690Y0092135D01*
X0167661Y0092213D01*
X0167636Y0092292D01*
X0167615Y0092373D01*
X0167597Y0092454D01*
X0167584Y0092537D01*
X0167574Y0092620D01*
X0167568Y0092703D01*
X0167566Y0092786D01*
X0171121Y0092786D02*
X0171121Y0097408D01*
X0170002Y0098552D02*
X0168685Y0098552D01*
X0169166Y0097954D02*
X0169521Y0097954D01*
X0169521Y0097355D02*
X0169166Y0097355D01*
X0169166Y0096756D02*
X0169521Y0096756D01*
X0169521Y0096158D02*
X0169166Y0096158D01*
X0172240Y0098552D02*
X0172396Y0098552D01*
X0122486Y0115310D02*
X0086706Y0115310D01*
X0087304Y0115909D02*
X0121888Y0115909D01*
X0121289Y0116507D02*
X0087903Y0116507D01*
X0088501Y0117106D02*
X0120691Y0117106D01*
X0120092Y0117704D02*
X0089100Y0117704D01*
X0089698Y0118303D02*
X0119494Y0118303D01*
X0118895Y0118901D02*
X0090297Y0118901D01*
X0090895Y0119500D02*
X0109820Y0119500D01*
X0109221Y0120098D02*
X0091317Y0120098D01*
X0091317Y0120697D02*
X0108623Y0120697D01*
X0108024Y0121295D02*
X0091317Y0121295D01*
X0091317Y0121894D02*
X0107426Y0121894D01*
X0106928Y0122492D02*
X0091317Y0122492D01*
X0091317Y0123091D02*
X0106928Y0123091D01*
X0106928Y0123689D02*
X0091317Y0123689D01*
X0091317Y0124288D02*
X0106509Y0124288D01*
X0105910Y0124887D02*
X0091317Y0124887D01*
X0091317Y0125485D02*
X0105312Y0125485D01*
X0104713Y0126084D02*
X0091317Y0126084D01*
X0091317Y0126682D02*
X0104115Y0126682D01*
X0103516Y0127281D02*
X0091317Y0127281D01*
X0062664Y0126682D02*
X0061683Y0126682D01*
X0062282Y0126084D02*
X0062335Y0126084D01*
X0057007Y0126682D02*
X0054972Y0126682D01*
X0055999Y0126084D02*
X0056408Y0126084D01*
X0050691Y0126084D02*
X0038361Y0126084D01*
X0038615Y0125485D02*
X0050372Y0125485D01*
X0050295Y0124887D02*
X0038796Y0124887D01*
X0039172Y0124288D02*
X0050295Y0124288D01*
X0043504Y0114712D02*
X0043411Y0114712D01*
X0019987Y0113515D02*
X0018432Y0113515D01*
X0019868Y0114113D02*
X0019878Y0114113D01*
X0026417Y0088377D02*
X0026419Y0088377D01*
X0026417Y0087779D02*
X0027018Y0087779D01*
X0027292Y0087505D02*
X0027292Y0087505D01*
X0027616Y0087180D02*
X0026417Y0087180D01*
X0026417Y0086582D02*
X0028215Y0086582D01*
X0064482Y0141013D02*
X0127898Y0141164D01*
X0064482Y0141013D02*
X0064482Y0145461D01*
X0312203Y0138774D02*
X0312203Y0136890D01*
X0312230Y0136627D01*
X0312307Y0136382D01*
X0312427Y0136160D01*
X0312588Y0135966D01*
X0312781Y0135806D01*
X0313003Y0135685D01*
X0313249Y0135608D01*
X0313511Y0135582D01*
X0318588Y0135582D01*
X0318851Y0135608D01*
X0319096Y0135685D01*
X0319318Y0135806D01*
X0319512Y0135966D01*
X0319672Y0136160D01*
X0319793Y0136382D01*
X0319870Y0136627D01*
X0319896Y0136890D01*
X0319896Y0138774D01*
X0319870Y0139037D01*
X0319793Y0139282D01*
X0319672Y0139504D01*
X0319512Y0139698D01*
X0319318Y0139858D01*
X0319096Y0139979D01*
X0318851Y0140056D01*
X0318588Y0140082D01*
X0313511Y0140082D01*
X0313249Y0140056D01*
X0313003Y0139979D01*
X0312781Y0139858D01*
X0312588Y0139698D01*
X0312427Y0139504D01*
X0312307Y0139282D01*
X0312230Y0139037D01*
X0312203Y0138774D01*
D11*
X0005020Y0114803D02*
X0005020Y0099735D01*
D12*
X0053345Y0116549D02*
X0053004Y0117908D01*
X0054070Y0119458D01*
X0067189Y0119478D01*
X0069194Y0117785D01*
X0071786Y0117714D01*
X0074423Y0113708D01*
X0078917Y0113708D01*
X0082417Y0117208D01*
X0085917Y0117208D01*
X0089417Y0120708D01*
X0089417Y0135208D01*
X0068576Y0126283D02*
X0069236Y0124246D01*
X0069236Y0122209D01*
X0068576Y0126283D02*
X0064614Y0126283D01*
X0063167Y0123655D01*
X0059345Y0123655D01*
X0059254Y0116693D02*
X0059345Y0116549D01*
X0060489Y0116586D01*
X0065599Y0116783D01*
X0066757Y0115653D01*
X0069236Y0113371D01*
X0069236Y0110782D01*
X0067267Y0110782D02*
X0067236Y0110657D01*
X0059417Y0109352D02*
X0059254Y0109193D01*
X0059254Y0116693D01*
X0074417Y0101208D02*
X0074542Y0101208D01*
X0137792Y0129169D02*
X0138417Y0129458D01*
X0195167Y0139458D02*
X0198167Y0139458D01*
X0278067Y0125672D02*
X0280089Y0125649D01*
X0253942Y0058483D02*
X0253917Y0058397D01*
X0250706Y0053808D02*
X0250706Y0050308D01*
X0250704Y0050258D01*
X0250699Y0050208D01*
X0250690Y0050159D01*
X0250678Y0050111D01*
X0250662Y0050063D01*
X0250643Y0050017D01*
X0250620Y0049973D01*
X0250595Y0049930D01*
X0250566Y0049889D01*
X0250535Y0049850D01*
X0250501Y0049813D01*
X0250464Y0049779D01*
X0250425Y0049748D01*
X0250384Y0049719D01*
X0250341Y0049694D01*
X0250297Y0049671D01*
X0250251Y0049652D01*
X0250203Y0049636D01*
X0250155Y0049624D01*
X0250106Y0049615D01*
X0250056Y0049610D01*
X0250006Y0049608D01*
X0249773Y0049608D01*
X0247856Y0050308D02*
X0247856Y0053808D01*
X0248323Y0052408D02*
X0246923Y0052408D01*
X0245052Y0051475D02*
X0245052Y0050542D01*
X0245051Y0050542D02*
X0245049Y0050482D01*
X0245043Y0050423D01*
X0245034Y0050364D01*
X0245020Y0050305D01*
X0245003Y0050248D01*
X0244983Y0050192D01*
X0244959Y0050137D01*
X0244931Y0050084D01*
X0244900Y0050033D01*
X0244866Y0049984D01*
X0244828Y0049937D01*
X0244788Y0049893D01*
X0244745Y0049851D01*
X0244700Y0049813D01*
X0244652Y0049777D01*
X0244602Y0049744D01*
X0244550Y0049715D01*
X0244496Y0049689D01*
X0244440Y0049666D01*
X0244383Y0049648D01*
X0244326Y0049632D01*
X0244267Y0049621D01*
X0244208Y0049613D01*
X0244148Y0049609D01*
X0244088Y0049609D01*
X0244028Y0049613D01*
X0243969Y0049621D01*
X0243910Y0049632D01*
X0243853Y0049648D01*
X0243796Y0049666D01*
X0243740Y0049689D01*
X0243686Y0049715D01*
X0243634Y0049744D01*
X0243584Y0049777D01*
X0243536Y0049813D01*
X0243491Y0049851D01*
X0243448Y0049893D01*
X0243408Y0049937D01*
X0243370Y0049984D01*
X0243336Y0050033D01*
X0243305Y0050084D01*
X0243277Y0050137D01*
X0243253Y0050192D01*
X0243233Y0050248D01*
X0243216Y0050305D01*
X0243202Y0050364D01*
X0243193Y0050423D01*
X0243187Y0050482D01*
X0243185Y0050542D01*
X0243185Y0051475D01*
X0243187Y0051535D01*
X0243193Y0051594D01*
X0243202Y0051653D01*
X0243216Y0051712D01*
X0243233Y0051769D01*
X0243253Y0051825D01*
X0243277Y0051880D01*
X0243305Y0051933D01*
X0243336Y0051984D01*
X0243370Y0052033D01*
X0243408Y0052080D01*
X0243448Y0052124D01*
X0243491Y0052166D01*
X0243536Y0052204D01*
X0243584Y0052240D01*
X0243634Y0052273D01*
X0243686Y0052302D01*
X0243740Y0052328D01*
X0243796Y0052351D01*
X0243853Y0052369D01*
X0243910Y0052385D01*
X0243969Y0052396D01*
X0244028Y0052404D01*
X0244088Y0052408D01*
X0244148Y0052408D01*
X0244208Y0052404D01*
X0244267Y0052396D01*
X0244326Y0052385D01*
X0244383Y0052369D01*
X0244440Y0052351D01*
X0244496Y0052328D01*
X0244550Y0052302D01*
X0244602Y0052273D01*
X0244652Y0052240D01*
X0244700Y0052204D01*
X0244745Y0052166D01*
X0244788Y0052124D01*
X0244828Y0052080D01*
X0244866Y0052033D01*
X0244900Y0051984D01*
X0244931Y0051933D01*
X0244959Y0051880D01*
X0244983Y0051825D01*
X0245003Y0051769D01*
X0245020Y0051712D01*
X0245034Y0051653D01*
X0245043Y0051594D01*
X0245049Y0051535D01*
X0245051Y0051475D01*
X0247156Y0049608D02*
X0247206Y0049610D01*
X0247256Y0049615D01*
X0247305Y0049624D01*
X0247353Y0049636D01*
X0247401Y0049652D01*
X0247447Y0049671D01*
X0247491Y0049694D01*
X0247534Y0049719D01*
X0247575Y0049748D01*
X0247614Y0049779D01*
X0247651Y0049813D01*
X0247685Y0049850D01*
X0247716Y0049889D01*
X0247745Y0049930D01*
X0247770Y0049973D01*
X0247793Y0050017D01*
X0247812Y0050063D01*
X0247828Y0050111D01*
X0247840Y0050159D01*
X0247849Y0050208D01*
X0247854Y0050258D01*
X0247856Y0050308D01*
X0247156Y0049608D02*
X0246923Y0049608D01*
X0252785Y0050542D02*
X0252785Y0051475D01*
X0252787Y0051535D01*
X0252793Y0051594D01*
X0252802Y0051653D01*
X0252816Y0051712D01*
X0252833Y0051769D01*
X0252853Y0051825D01*
X0252877Y0051880D01*
X0252905Y0051933D01*
X0252936Y0051984D01*
X0252970Y0052033D01*
X0253008Y0052080D01*
X0253048Y0052124D01*
X0253091Y0052166D01*
X0253136Y0052204D01*
X0253184Y0052240D01*
X0253234Y0052273D01*
X0253286Y0052302D01*
X0253340Y0052328D01*
X0253396Y0052351D01*
X0253453Y0052369D01*
X0253510Y0052385D01*
X0253569Y0052396D01*
X0253628Y0052404D01*
X0253688Y0052408D01*
X0253748Y0052408D01*
X0253808Y0052404D01*
X0253867Y0052396D01*
X0253926Y0052385D01*
X0253983Y0052369D01*
X0254040Y0052351D01*
X0254096Y0052328D01*
X0254150Y0052302D01*
X0254202Y0052273D01*
X0254252Y0052240D01*
X0254300Y0052204D01*
X0254345Y0052166D01*
X0254388Y0052124D01*
X0254428Y0052080D01*
X0254466Y0052033D01*
X0254500Y0051984D01*
X0254531Y0051933D01*
X0254559Y0051880D01*
X0254583Y0051825D01*
X0254603Y0051769D01*
X0254620Y0051712D01*
X0254634Y0051653D01*
X0254643Y0051594D01*
X0254649Y0051535D01*
X0254651Y0051475D01*
X0254652Y0051475D02*
X0254652Y0050542D01*
X0254651Y0050542D02*
X0254649Y0050482D01*
X0254643Y0050423D01*
X0254634Y0050364D01*
X0254620Y0050305D01*
X0254603Y0050248D01*
X0254583Y0050192D01*
X0254559Y0050137D01*
X0254531Y0050084D01*
X0254500Y0050033D01*
X0254466Y0049984D01*
X0254428Y0049937D01*
X0254388Y0049893D01*
X0254345Y0049851D01*
X0254300Y0049813D01*
X0254252Y0049777D01*
X0254202Y0049744D01*
X0254150Y0049715D01*
X0254096Y0049689D01*
X0254040Y0049666D01*
X0253983Y0049648D01*
X0253926Y0049632D01*
X0253867Y0049621D01*
X0253808Y0049613D01*
X0253748Y0049609D01*
X0253688Y0049609D01*
X0253628Y0049613D01*
X0253569Y0049621D01*
X0253510Y0049632D01*
X0253453Y0049648D01*
X0253396Y0049666D01*
X0253340Y0049689D01*
X0253286Y0049715D01*
X0253234Y0049744D01*
X0253184Y0049777D01*
X0253136Y0049813D01*
X0253091Y0049851D01*
X0253048Y0049893D01*
X0253008Y0049937D01*
X0252970Y0049984D01*
X0252936Y0050033D01*
X0252905Y0050084D01*
X0252877Y0050137D01*
X0252853Y0050192D01*
X0252833Y0050248D01*
X0252816Y0050305D01*
X0252802Y0050364D01*
X0252793Y0050423D01*
X0252787Y0050482D01*
X0252785Y0050542D01*
X0251173Y0052408D02*
X0249773Y0052408D01*
X0256650Y0051708D02*
X0256650Y0050308D01*
X0256652Y0050258D01*
X0256657Y0050208D01*
X0256666Y0050159D01*
X0256678Y0050111D01*
X0256694Y0050063D01*
X0256713Y0050017D01*
X0256736Y0049973D01*
X0256761Y0049930D01*
X0256790Y0049889D01*
X0256821Y0049850D01*
X0256855Y0049813D01*
X0256892Y0049779D01*
X0256931Y0049748D01*
X0256972Y0049719D01*
X0257015Y0049694D01*
X0257059Y0049671D01*
X0257105Y0049652D01*
X0257153Y0049636D01*
X0257201Y0049624D01*
X0257250Y0049615D01*
X0257300Y0049610D01*
X0257350Y0049608D01*
X0258517Y0049608D01*
X0258517Y0053808D01*
X0258517Y0052408D02*
X0257350Y0052408D01*
X0257300Y0052406D01*
X0257250Y0052401D01*
X0257201Y0052392D01*
X0257153Y0052380D01*
X0257105Y0052364D01*
X0257059Y0052345D01*
X0257015Y0052322D01*
X0256972Y0052297D01*
X0256931Y0052268D01*
X0256892Y0052237D01*
X0256855Y0052203D01*
X0256821Y0052166D01*
X0256790Y0052127D01*
X0256761Y0052086D01*
X0256736Y0052043D01*
X0256713Y0051999D01*
X0256694Y0051953D01*
X0256678Y0051905D01*
X0256666Y0051857D01*
X0256657Y0051808D01*
X0256652Y0051758D01*
X0256650Y0051708D01*
X0240868Y0052408D02*
X0240868Y0049608D01*
X0239468Y0049608D02*
X0239468Y0052408D01*
X0238768Y0052408D02*
X0240868Y0052408D01*
X0238768Y0052408D02*
X0238718Y0052406D01*
X0238668Y0052401D01*
X0238619Y0052392D01*
X0238571Y0052380D01*
X0238523Y0052364D01*
X0238477Y0052345D01*
X0238433Y0052322D01*
X0238390Y0052297D01*
X0238349Y0052268D01*
X0238310Y0052237D01*
X0238273Y0052203D01*
X0238239Y0052166D01*
X0238208Y0052127D01*
X0238179Y0052086D01*
X0238154Y0052043D01*
X0238131Y0051999D01*
X0238112Y0051953D01*
X0238096Y0051905D01*
X0238084Y0051857D01*
X0238075Y0051808D01*
X0238070Y0051758D01*
X0238068Y0051708D01*
X0238068Y0049608D01*
X0064482Y0145461D02*
X0024010Y0145461D01*
D13*
X0261417Y0138831D02*
X0261417Y0138386D01*
X0261419Y0138361D01*
X0261424Y0138336D01*
X0261433Y0138312D01*
X0261445Y0138290D01*
X0261460Y0138269D01*
X0261478Y0138251D01*
X0261499Y0138236D01*
X0261521Y0138224D01*
X0261545Y0138215D01*
X0261570Y0138210D01*
X0261595Y0138208D01*
X0261772Y0138208D01*
X0262042Y0138431D02*
X0262042Y0139008D01*
X0261772Y0139008D02*
X0261595Y0139008D01*
X0261595Y0139009D02*
X0261570Y0139007D01*
X0261545Y0139002D01*
X0261521Y0138993D01*
X0261499Y0138981D01*
X0261478Y0138966D01*
X0261460Y0138948D01*
X0261445Y0138927D01*
X0261433Y0138905D01*
X0261424Y0138881D01*
X0261419Y0138856D01*
X0261417Y0138831D01*
X0262042Y0138431D02*
X0262044Y0138402D01*
X0262050Y0138374D01*
X0262059Y0138346D01*
X0262072Y0138320D01*
X0262088Y0138296D01*
X0262107Y0138274D01*
X0262129Y0138255D01*
X0262153Y0138239D01*
X0262179Y0138226D01*
X0262207Y0138217D01*
X0262235Y0138211D01*
X0262264Y0138209D01*
X0262293Y0138211D01*
X0262321Y0138217D01*
X0262349Y0138226D01*
X0262375Y0138239D01*
X0262399Y0138255D01*
X0262421Y0138274D01*
X0262440Y0138296D01*
X0262456Y0138320D01*
X0262469Y0138346D01*
X0262478Y0138374D01*
X0262484Y0138402D01*
X0262486Y0138431D01*
X0262486Y0139008D01*
X0262738Y0139008D02*
X0263182Y0139008D01*
X0262960Y0139008D02*
X0262960Y0138208D01*
X0263794Y0138431D02*
X0263794Y0138786D01*
X0263796Y0138815D01*
X0263802Y0138843D01*
X0263811Y0138871D01*
X0263824Y0138897D01*
X0263840Y0138921D01*
X0263859Y0138943D01*
X0263881Y0138962D01*
X0263905Y0138978D01*
X0263931Y0138991D01*
X0263959Y0139000D01*
X0263987Y0139006D01*
X0264016Y0139008D01*
X0264045Y0139006D01*
X0264073Y0139000D01*
X0264101Y0138991D01*
X0264127Y0138978D01*
X0264151Y0138962D01*
X0264173Y0138943D01*
X0264192Y0138921D01*
X0264208Y0138897D01*
X0264221Y0138871D01*
X0264230Y0138843D01*
X0264236Y0138815D01*
X0264238Y0138786D01*
X0264238Y0138431D01*
X0264236Y0138402D01*
X0264230Y0138374D01*
X0264221Y0138346D01*
X0264208Y0138320D01*
X0264192Y0138296D01*
X0264173Y0138274D01*
X0264151Y0138255D01*
X0264127Y0138239D01*
X0264101Y0138226D01*
X0264073Y0138217D01*
X0264045Y0138211D01*
X0264016Y0138209D01*
X0263987Y0138211D01*
X0263959Y0138217D01*
X0263931Y0138226D01*
X0263905Y0138239D01*
X0263881Y0138255D01*
X0263859Y0138274D01*
X0263840Y0138296D01*
X0263824Y0138320D01*
X0263811Y0138346D01*
X0263802Y0138374D01*
X0263796Y0138402D01*
X0263794Y0138431D01*
X0264538Y0138431D02*
X0264538Y0139008D01*
X0264982Y0139008D02*
X0264982Y0138431D01*
X0264980Y0138402D01*
X0264974Y0138374D01*
X0264965Y0138346D01*
X0264952Y0138320D01*
X0264936Y0138296D01*
X0264917Y0138274D01*
X0264895Y0138255D01*
X0264871Y0138239D01*
X0264845Y0138226D01*
X0264817Y0138217D01*
X0264789Y0138211D01*
X0264760Y0138209D01*
X0264731Y0138211D01*
X0264703Y0138217D01*
X0264675Y0138226D01*
X0264649Y0138239D01*
X0264625Y0138255D01*
X0264603Y0138274D01*
X0264584Y0138296D01*
X0264568Y0138320D01*
X0264555Y0138346D01*
X0264546Y0138374D01*
X0264540Y0138402D01*
X0264538Y0138431D01*
X0265234Y0139008D02*
X0265678Y0139008D01*
X0265456Y0139008D02*
X0265456Y0138208D01*
X0276417Y0138386D02*
X0276417Y0138831D01*
X0276419Y0138856D01*
X0276424Y0138881D01*
X0276433Y0138905D01*
X0276445Y0138927D01*
X0276460Y0138948D01*
X0276478Y0138966D01*
X0276499Y0138981D01*
X0276521Y0138993D01*
X0276545Y0139002D01*
X0276570Y0139007D01*
X0276595Y0139009D01*
X0276595Y0139008D02*
X0276772Y0139008D01*
X0277042Y0139008D02*
X0277042Y0138431D01*
X0277044Y0138402D01*
X0277050Y0138374D01*
X0277059Y0138346D01*
X0277072Y0138320D01*
X0277088Y0138296D01*
X0277107Y0138274D01*
X0277129Y0138255D01*
X0277153Y0138239D01*
X0277179Y0138226D01*
X0277207Y0138217D01*
X0277235Y0138211D01*
X0277264Y0138209D01*
X0277293Y0138211D01*
X0277321Y0138217D01*
X0277349Y0138226D01*
X0277375Y0138239D01*
X0277399Y0138255D01*
X0277421Y0138274D01*
X0277440Y0138296D01*
X0277456Y0138320D01*
X0277469Y0138346D01*
X0277478Y0138374D01*
X0277484Y0138402D01*
X0277486Y0138431D01*
X0277486Y0139008D01*
X0277738Y0139008D02*
X0278182Y0139008D01*
X0277960Y0139008D02*
X0277960Y0138208D01*
X0278794Y0138431D02*
X0278794Y0138786D01*
X0278796Y0138815D01*
X0278802Y0138843D01*
X0278811Y0138871D01*
X0278824Y0138897D01*
X0278840Y0138921D01*
X0278859Y0138943D01*
X0278881Y0138962D01*
X0278905Y0138978D01*
X0278931Y0138991D01*
X0278959Y0139000D01*
X0278987Y0139006D01*
X0279016Y0139008D01*
X0279045Y0139006D01*
X0279073Y0139000D01*
X0279101Y0138991D01*
X0279127Y0138978D01*
X0279151Y0138962D01*
X0279173Y0138943D01*
X0279192Y0138921D01*
X0279208Y0138897D01*
X0279221Y0138871D01*
X0279230Y0138843D01*
X0279236Y0138815D01*
X0279238Y0138786D01*
X0279238Y0138431D01*
X0279236Y0138402D01*
X0279230Y0138374D01*
X0279221Y0138346D01*
X0279208Y0138320D01*
X0279192Y0138296D01*
X0279173Y0138274D01*
X0279151Y0138255D01*
X0279127Y0138239D01*
X0279101Y0138226D01*
X0279073Y0138217D01*
X0279045Y0138211D01*
X0279016Y0138209D01*
X0278987Y0138211D01*
X0278959Y0138217D01*
X0278931Y0138226D01*
X0278905Y0138239D01*
X0278881Y0138255D01*
X0278859Y0138274D01*
X0278840Y0138296D01*
X0278824Y0138320D01*
X0278811Y0138346D01*
X0278802Y0138374D01*
X0278796Y0138402D01*
X0278794Y0138431D01*
X0279538Y0138431D02*
X0279538Y0139008D01*
X0279982Y0139008D02*
X0279982Y0138431D01*
X0279980Y0138402D01*
X0279974Y0138374D01*
X0279965Y0138346D01*
X0279952Y0138320D01*
X0279936Y0138296D01*
X0279917Y0138274D01*
X0279895Y0138255D01*
X0279871Y0138239D01*
X0279845Y0138226D01*
X0279817Y0138217D01*
X0279789Y0138211D01*
X0279760Y0138209D01*
X0279731Y0138211D01*
X0279703Y0138217D01*
X0279675Y0138226D01*
X0279649Y0138239D01*
X0279625Y0138255D01*
X0279603Y0138274D01*
X0279584Y0138296D01*
X0279568Y0138320D01*
X0279555Y0138346D01*
X0279546Y0138374D01*
X0279540Y0138402D01*
X0279538Y0138431D01*
X0280234Y0139008D02*
X0280678Y0139008D01*
X0280456Y0139008D02*
X0280456Y0138208D01*
X0276772Y0138208D02*
X0276595Y0138208D01*
X0276570Y0138210D01*
X0276545Y0138215D01*
X0276521Y0138224D01*
X0276499Y0138236D01*
X0276478Y0138251D01*
X0276460Y0138269D01*
X0276445Y0138290D01*
X0276433Y0138312D01*
X0276424Y0138336D01*
X0276419Y0138361D01*
X0276417Y0138386D01*
X0313917Y0138331D02*
X0313917Y0137886D01*
X0313919Y0137861D01*
X0313924Y0137836D01*
X0313933Y0137812D01*
X0313945Y0137790D01*
X0313960Y0137769D01*
X0313978Y0137751D01*
X0313999Y0137736D01*
X0314021Y0137724D01*
X0314045Y0137715D01*
X0314070Y0137710D01*
X0314095Y0137708D01*
X0314272Y0137708D01*
X0314542Y0137931D02*
X0314542Y0138508D01*
X0314272Y0138508D02*
X0314095Y0138508D01*
X0314095Y0138509D02*
X0314070Y0138507D01*
X0314045Y0138502D01*
X0314021Y0138493D01*
X0313999Y0138481D01*
X0313978Y0138466D01*
X0313960Y0138448D01*
X0313945Y0138427D01*
X0313933Y0138405D01*
X0313924Y0138381D01*
X0313919Y0138356D01*
X0313917Y0138331D01*
X0314542Y0137931D02*
X0314544Y0137902D01*
X0314550Y0137874D01*
X0314559Y0137846D01*
X0314572Y0137820D01*
X0314588Y0137796D01*
X0314607Y0137774D01*
X0314629Y0137755D01*
X0314653Y0137739D01*
X0314679Y0137726D01*
X0314707Y0137717D01*
X0314735Y0137711D01*
X0314764Y0137709D01*
X0314793Y0137711D01*
X0314821Y0137717D01*
X0314849Y0137726D01*
X0314875Y0137739D01*
X0314899Y0137755D01*
X0314921Y0137774D01*
X0314940Y0137796D01*
X0314956Y0137820D01*
X0314969Y0137846D01*
X0314978Y0137874D01*
X0314984Y0137902D01*
X0314986Y0137931D01*
X0314986Y0138508D01*
X0315238Y0138508D02*
X0315682Y0138508D01*
X0315460Y0138508D02*
X0315460Y0137708D01*
X0316294Y0137931D02*
X0316294Y0138286D01*
X0316296Y0138315D01*
X0316302Y0138343D01*
X0316311Y0138371D01*
X0316324Y0138397D01*
X0316340Y0138421D01*
X0316359Y0138443D01*
X0316381Y0138462D01*
X0316405Y0138478D01*
X0316431Y0138491D01*
X0316459Y0138500D01*
X0316487Y0138506D01*
X0316516Y0138508D01*
X0316545Y0138506D01*
X0316573Y0138500D01*
X0316601Y0138491D01*
X0316627Y0138478D01*
X0316651Y0138462D01*
X0316673Y0138443D01*
X0316692Y0138421D01*
X0316708Y0138397D01*
X0316721Y0138371D01*
X0316730Y0138343D01*
X0316736Y0138315D01*
X0316738Y0138286D01*
X0316738Y0137931D01*
X0316736Y0137902D01*
X0316730Y0137874D01*
X0316721Y0137846D01*
X0316708Y0137820D01*
X0316692Y0137796D01*
X0316673Y0137774D01*
X0316651Y0137755D01*
X0316627Y0137739D01*
X0316601Y0137726D01*
X0316573Y0137717D01*
X0316545Y0137711D01*
X0316516Y0137709D01*
X0316487Y0137711D01*
X0316459Y0137717D01*
X0316431Y0137726D01*
X0316405Y0137739D01*
X0316381Y0137755D01*
X0316359Y0137774D01*
X0316340Y0137796D01*
X0316324Y0137820D01*
X0316311Y0137846D01*
X0316302Y0137874D01*
X0316296Y0137902D01*
X0316294Y0137931D01*
X0317038Y0137931D02*
X0317038Y0138508D01*
X0317482Y0138508D02*
X0317482Y0137931D01*
X0317480Y0137902D01*
X0317474Y0137874D01*
X0317465Y0137846D01*
X0317452Y0137820D01*
X0317436Y0137796D01*
X0317417Y0137774D01*
X0317395Y0137755D01*
X0317371Y0137739D01*
X0317345Y0137726D01*
X0317317Y0137717D01*
X0317289Y0137711D01*
X0317260Y0137709D01*
X0317231Y0137711D01*
X0317203Y0137717D01*
X0317175Y0137726D01*
X0317149Y0137739D01*
X0317125Y0137755D01*
X0317103Y0137774D01*
X0317084Y0137796D01*
X0317068Y0137820D01*
X0317055Y0137846D01*
X0317046Y0137874D01*
X0317040Y0137902D01*
X0317038Y0137931D01*
X0317734Y0138508D02*
X0318178Y0138508D01*
X0317956Y0138508D02*
X0317956Y0137708D01*
X0336617Y0125470D02*
X0336617Y0125025D01*
X0336617Y0125248D02*
X0337417Y0125248D01*
X0337195Y0124774D02*
X0336617Y0124774D01*
X0336617Y0124329D02*
X0337195Y0124329D01*
X0337195Y0124330D02*
X0337224Y0124332D01*
X0337252Y0124338D01*
X0337280Y0124347D01*
X0337306Y0124360D01*
X0337330Y0124376D01*
X0337352Y0124395D01*
X0337371Y0124417D01*
X0337387Y0124441D01*
X0337400Y0124467D01*
X0337409Y0124495D01*
X0337415Y0124523D01*
X0337417Y0124552D01*
X0337415Y0124581D01*
X0337409Y0124609D01*
X0337400Y0124637D01*
X0337387Y0124663D01*
X0337371Y0124687D01*
X0337352Y0124709D01*
X0337330Y0124728D01*
X0337306Y0124744D01*
X0337280Y0124757D01*
X0337252Y0124766D01*
X0337224Y0124772D01*
X0337195Y0124774D01*
X0337195Y0124030D02*
X0336839Y0124030D01*
X0336810Y0124028D01*
X0336782Y0124022D01*
X0336754Y0124013D01*
X0336728Y0124000D01*
X0336704Y0123984D01*
X0336682Y0123965D01*
X0336663Y0123943D01*
X0336647Y0123919D01*
X0336634Y0123893D01*
X0336625Y0123865D01*
X0336619Y0123837D01*
X0336617Y0123808D01*
X0336619Y0123779D01*
X0336625Y0123751D01*
X0336634Y0123723D01*
X0336647Y0123697D01*
X0336663Y0123673D01*
X0336682Y0123651D01*
X0336704Y0123632D01*
X0336728Y0123616D01*
X0336754Y0123603D01*
X0336782Y0123594D01*
X0336810Y0123588D01*
X0336839Y0123586D01*
X0336839Y0123585D02*
X0337195Y0123585D01*
X0337195Y0123586D02*
X0337224Y0123588D01*
X0337252Y0123594D01*
X0337280Y0123603D01*
X0337306Y0123616D01*
X0337330Y0123632D01*
X0337352Y0123651D01*
X0337371Y0123673D01*
X0337387Y0123697D01*
X0337400Y0123723D01*
X0337409Y0123751D01*
X0337415Y0123779D01*
X0337417Y0123808D01*
X0337415Y0123837D01*
X0337409Y0123865D01*
X0337400Y0123893D01*
X0337387Y0123919D01*
X0337371Y0123943D01*
X0337352Y0123965D01*
X0337330Y0123984D01*
X0337306Y0124000D01*
X0337280Y0124013D01*
X0337252Y0124022D01*
X0337224Y0124028D01*
X0337195Y0124030D01*
X0336617Y0122974D02*
X0336617Y0122529D01*
X0336617Y0122752D02*
X0337417Y0122752D01*
X0337195Y0122278D02*
X0336617Y0122278D01*
X0336617Y0121833D02*
X0337195Y0121833D01*
X0337195Y0121834D02*
X0337224Y0121836D01*
X0337252Y0121842D01*
X0337280Y0121851D01*
X0337306Y0121864D01*
X0337330Y0121880D01*
X0337352Y0121899D01*
X0337371Y0121921D01*
X0337387Y0121945D01*
X0337400Y0121971D01*
X0337409Y0121999D01*
X0337415Y0122027D01*
X0337417Y0122056D01*
X0337415Y0122085D01*
X0337409Y0122113D01*
X0337400Y0122141D01*
X0337387Y0122167D01*
X0337371Y0122191D01*
X0337352Y0122213D01*
X0337330Y0122232D01*
X0337306Y0122248D01*
X0337280Y0122261D01*
X0337252Y0122270D01*
X0337224Y0122276D01*
X0337195Y0122278D01*
X0337417Y0121564D02*
X0337417Y0121386D01*
X0337415Y0121361D01*
X0337410Y0121336D01*
X0337401Y0121312D01*
X0337389Y0121290D01*
X0337374Y0121269D01*
X0337356Y0121251D01*
X0337335Y0121236D01*
X0337313Y0121224D01*
X0337289Y0121215D01*
X0337264Y0121210D01*
X0337239Y0121208D01*
X0336795Y0121208D01*
X0336770Y0121210D01*
X0336745Y0121215D01*
X0336721Y0121224D01*
X0336699Y0121236D01*
X0336678Y0121251D01*
X0336660Y0121269D01*
X0336645Y0121290D01*
X0336633Y0121312D01*
X0336624Y0121336D01*
X0336619Y0121361D01*
X0336617Y0121386D01*
X0336617Y0121564D01*
X0348917Y0117831D02*
X0348917Y0117386D01*
X0348919Y0117361D01*
X0348924Y0117336D01*
X0348933Y0117312D01*
X0348945Y0117290D01*
X0348960Y0117269D01*
X0348978Y0117251D01*
X0348999Y0117236D01*
X0349021Y0117224D01*
X0349045Y0117215D01*
X0349070Y0117210D01*
X0349095Y0117208D01*
X0349272Y0117208D01*
X0349542Y0117431D02*
X0349542Y0118008D01*
X0349272Y0118008D02*
X0349095Y0118008D01*
X0349095Y0118009D02*
X0349070Y0118007D01*
X0349045Y0118002D01*
X0349021Y0117993D01*
X0348999Y0117981D01*
X0348978Y0117966D01*
X0348960Y0117948D01*
X0348945Y0117927D01*
X0348933Y0117905D01*
X0348924Y0117881D01*
X0348919Y0117856D01*
X0348917Y0117831D01*
X0349542Y0117431D02*
X0349544Y0117402D01*
X0349550Y0117374D01*
X0349559Y0117346D01*
X0349572Y0117320D01*
X0349588Y0117296D01*
X0349607Y0117274D01*
X0349629Y0117255D01*
X0349653Y0117239D01*
X0349679Y0117226D01*
X0349707Y0117217D01*
X0349735Y0117211D01*
X0349764Y0117209D01*
X0349793Y0117211D01*
X0349821Y0117217D01*
X0349849Y0117226D01*
X0349875Y0117239D01*
X0349899Y0117255D01*
X0349921Y0117274D01*
X0349940Y0117296D01*
X0349956Y0117320D01*
X0349969Y0117346D01*
X0349978Y0117374D01*
X0349984Y0117402D01*
X0349986Y0117431D01*
X0349986Y0118008D01*
X0350238Y0118008D02*
X0350682Y0118008D01*
X0350460Y0118008D02*
X0350460Y0117208D01*
X0351294Y0117431D02*
X0351294Y0117786D01*
X0351296Y0117815D01*
X0351302Y0117843D01*
X0351311Y0117871D01*
X0351324Y0117897D01*
X0351340Y0117921D01*
X0351359Y0117943D01*
X0351381Y0117962D01*
X0351405Y0117978D01*
X0351431Y0117991D01*
X0351459Y0118000D01*
X0351487Y0118006D01*
X0351516Y0118008D01*
X0351545Y0118006D01*
X0351573Y0118000D01*
X0351601Y0117991D01*
X0351627Y0117978D01*
X0351651Y0117962D01*
X0351673Y0117943D01*
X0351692Y0117921D01*
X0351708Y0117897D01*
X0351721Y0117871D01*
X0351730Y0117843D01*
X0351736Y0117815D01*
X0351738Y0117786D01*
X0351738Y0117431D01*
X0351736Y0117402D01*
X0351730Y0117374D01*
X0351721Y0117346D01*
X0351708Y0117320D01*
X0351692Y0117296D01*
X0351673Y0117274D01*
X0351651Y0117255D01*
X0351627Y0117239D01*
X0351601Y0117226D01*
X0351573Y0117217D01*
X0351545Y0117211D01*
X0351516Y0117209D01*
X0351487Y0117211D01*
X0351459Y0117217D01*
X0351431Y0117226D01*
X0351405Y0117239D01*
X0351381Y0117255D01*
X0351359Y0117274D01*
X0351340Y0117296D01*
X0351324Y0117320D01*
X0351311Y0117346D01*
X0351302Y0117374D01*
X0351296Y0117402D01*
X0351294Y0117431D01*
X0352038Y0117431D02*
X0352038Y0118008D01*
X0352482Y0118008D02*
X0352482Y0117431D01*
X0352480Y0117402D01*
X0352474Y0117374D01*
X0352465Y0117346D01*
X0352452Y0117320D01*
X0352436Y0117296D01*
X0352417Y0117274D01*
X0352395Y0117255D01*
X0352371Y0117239D01*
X0352345Y0117226D01*
X0352317Y0117217D01*
X0352289Y0117211D01*
X0352260Y0117209D01*
X0352231Y0117211D01*
X0352203Y0117217D01*
X0352175Y0117226D01*
X0352149Y0117239D01*
X0352125Y0117255D01*
X0352103Y0117274D01*
X0352084Y0117296D01*
X0352068Y0117320D01*
X0352055Y0117346D01*
X0352046Y0117374D01*
X0352040Y0117402D01*
X0352038Y0117431D01*
X0352734Y0118008D02*
X0353178Y0118008D01*
X0352956Y0118008D02*
X0352956Y0117208D01*
X0367417Y0117386D02*
X0367417Y0117831D01*
X0367419Y0117856D01*
X0367424Y0117881D01*
X0367433Y0117905D01*
X0367445Y0117927D01*
X0367460Y0117948D01*
X0367478Y0117966D01*
X0367499Y0117981D01*
X0367521Y0117993D01*
X0367545Y0118002D01*
X0367570Y0118007D01*
X0367595Y0118009D01*
X0367595Y0118008D02*
X0367772Y0118008D01*
X0368042Y0118008D02*
X0368042Y0117431D01*
X0368044Y0117402D01*
X0368050Y0117374D01*
X0368059Y0117346D01*
X0368072Y0117320D01*
X0368088Y0117296D01*
X0368107Y0117274D01*
X0368129Y0117255D01*
X0368153Y0117239D01*
X0368179Y0117226D01*
X0368207Y0117217D01*
X0368235Y0117211D01*
X0368264Y0117209D01*
X0368293Y0117211D01*
X0368321Y0117217D01*
X0368349Y0117226D01*
X0368375Y0117239D01*
X0368399Y0117255D01*
X0368421Y0117274D01*
X0368440Y0117296D01*
X0368456Y0117320D01*
X0368469Y0117346D01*
X0368478Y0117374D01*
X0368484Y0117402D01*
X0368486Y0117431D01*
X0368486Y0118008D01*
X0368738Y0118008D02*
X0369182Y0118008D01*
X0368960Y0118008D02*
X0368960Y0117208D01*
X0369794Y0117431D02*
X0369794Y0117786D01*
X0369796Y0117815D01*
X0369802Y0117843D01*
X0369811Y0117871D01*
X0369824Y0117897D01*
X0369840Y0117921D01*
X0369859Y0117943D01*
X0369881Y0117962D01*
X0369905Y0117978D01*
X0369931Y0117991D01*
X0369959Y0118000D01*
X0369987Y0118006D01*
X0370016Y0118008D01*
X0370045Y0118006D01*
X0370073Y0118000D01*
X0370101Y0117991D01*
X0370127Y0117978D01*
X0370151Y0117962D01*
X0370173Y0117943D01*
X0370192Y0117921D01*
X0370208Y0117897D01*
X0370221Y0117871D01*
X0370230Y0117843D01*
X0370236Y0117815D01*
X0370238Y0117786D01*
X0370238Y0117431D01*
X0370236Y0117402D01*
X0370230Y0117374D01*
X0370221Y0117346D01*
X0370208Y0117320D01*
X0370192Y0117296D01*
X0370173Y0117274D01*
X0370151Y0117255D01*
X0370127Y0117239D01*
X0370101Y0117226D01*
X0370073Y0117217D01*
X0370045Y0117211D01*
X0370016Y0117209D01*
X0369987Y0117211D01*
X0369959Y0117217D01*
X0369931Y0117226D01*
X0369905Y0117239D01*
X0369881Y0117255D01*
X0369859Y0117274D01*
X0369840Y0117296D01*
X0369824Y0117320D01*
X0369811Y0117346D01*
X0369802Y0117374D01*
X0369796Y0117402D01*
X0369794Y0117431D01*
X0370538Y0117431D02*
X0370538Y0118008D01*
X0370982Y0118008D02*
X0370982Y0117431D01*
X0370980Y0117402D01*
X0370974Y0117374D01*
X0370965Y0117346D01*
X0370952Y0117320D01*
X0370936Y0117296D01*
X0370917Y0117274D01*
X0370895Y0117255D01*
X0370871Y0117239D01*
X0370845Y0117226D01*
X0370817Y0117217D01*
X0370789Y0117211D01*
X0370760Y0117209D01*
X0370731Y0117211D01*
X0370703Y0117217D01*
X0370675Y0117226D01*
X0370649Y0117239D01*
X0370625Y0117255D01*
X0370603Y0117274D01*
X0370584Y0117296D01*
X0370568Y0117320D01*
X0370555Y0117346D01*
X0370546Y0117374D01*
X0370540Y0117402D01*
X0370538Y0117431D01*
X0371234Y0118008D02*
X0371678Y0118008D01*
X0371456Y0118008D02*
X0371456Y0117208D01*
X0367772Y0117208D02*
X0367595Y0117208D01*
X0367570Y0117210D01*
X0367545Y0117215D01*
X0367521Y0117224D01*
X0367499Y0117236D01*
X0367478Y0117251D01*
X0367460Y0117269D01*
X0367445Y0117290D01*
X0367433Y0117312D01*
X0367424Y0117336D01*
X0367419Y0117361D01*
X0367417Y0117386D01*
X0289417Y0097208D02*
X0288972Y0097208D01*
X0289195Y0097208D02*
X0289195Y0096408D01*
X0288721Y0096631D02*
X0288721Y0097208D01*
X0288276Y0097208D02*
X0288276Y0096631D01*
X0288277Y0096631D02*
X0288279Y0096602D01*
X0288285Y0096574D01*
X0288294Y0096546D01*
X0288307Y0096520D01*
X0288323Y0096496D01*
X0288342Y0096474D01*
X0288364Y0096455D01*
X0288388Y0096439D01*
X0288414Y0096426D01*
X0288442Y0096417D01*
X0288470Y0096411D01*
X0288499Y0096409D01*
X0288528Y0096411D01*
X0288556Y0096417D01*
X0288584Y0096426D01*
X0288610Y0096439D01*
X0288634Y0096455D01*
X0288656Y0096474D01*
X0288675Y0096496D01*
X0288691Y0096520D01*
X0288704Y0096546D01*
X0288713Y0096574D01*
X0288719Y0096602D01*
X0288721Y0096631D01*
X0287977Y0096631D02*
X0287977Y0096986D01*
X0287975Y0097015D01*
X0287969Y0097043D01*
X0287960Y0097071D01*
X0287947Y0097097D01*
X0287931Y0097121D01*
X0287912Y0097143D01*
X0287890Y0097162D01*
X0287866Y0097178D01*
X0287840Y0097191D01*
X0287812Y0097200D01*
X0287784Y0097206D01*
X0287755Y0097208D01*
X0287726Y0097206D01*
X0287698Y0097200D01*
X0287670Y0097191D01*
X0287644Y0097178D01*
X0287620Y0097162D01*
X0287598Y0097143D01*
X0287579Y0097121D01*
X0287563Y0097097D01*
X0287550Y0097071D01*
X0287541Y0097043D01*
X0287535Y0097015D01*
X0287533Y0096986D01*
X0287532Y0096986D02*
X0287532Y0096631D01*
X0287533Y0096631D02*
X0287535Y0096602D01*
X0287541Y0096574D01*
X0287550Y0096546D01*
X0287563Y0096520D01*
X0287579Y0096496D01*
X0287598Y0096474D01*
X0287620Y0096455D01*
X0287644Y0096439D01*
X0287670Y0096426D01*
X0287698Y0096417D01*
X0287726Y0096411D01*
X0287755Y0096409D01*
X0287784Y0096411D01*
X0287812Y0096417D01*
X0287840Y0096426D01*
X0287866Y0096439D01*
X0287890Y0096455D01*
X0287912Y0096474D01*
X0287931Y0096496D01*
X0287947Y0096520D01*
X0287960Y0096546D01*
X0287969Y0096574D01*
X0287975Y0096602D01*
X0287977Y0096631D01*
X0286921Y0097208D02*
X0286476Y0097208D01*
X0286699Y0097208D02*
X0286699Y0096408D01*
X0286225Y0096631D02*
X0286225Y0097208D01*
X0285780Y0097208D02*
X0285780Y0096631D01*
X0285781Y0096631D02*
X0285783Y0096602D01*
X0285789Y0096574D01*
X0285798Y0096546D01*
X0285811Y0096520D01*
X0285827Y0096496D01*
X0285846Y0096474D01*
X0285868Y0096455D01*
X0285892Y0096439D01*
X0285918Y0096426D01*
X0285946Y0096417D01*
X0285974Y0096411D01*
X0286003Y0096409D01*
X0286032Y0096411D01*
X0286060Y0096417D01*
X0286088Y0096426D01*
X0286114Y0096439D01*
X0286138Y0096455D01*
X0286160Y0096474D01*
X0286179Y0096496D01*
X0286195Y0096520D01*
X0286208Y0096546D01*
X0286217Y0096574D01*
X0286223Y0096602D01*
X0286225Y0096631D01*
X0285511Y0096408D02*
X0285333Y0096408D01*
X0285308Y0096410D01*
X0285283Y0096415D01*
X0285259Y0096424D01*
X0285237Y0096436D01*
X0285216Y0096451D01*
X0285198Y0096469D01*
X0285183Y0096490D01*
X0285171Y0096512D01*
X0285162Y0096536D01*
X0285157Y0096561D01*
X0285155Y0096586D01*
X0285155Y0097031D01*
X0285157Y0097056D01*
X0285162Y0097081D01*
X0285171Y0097105D01*
X0285183Y0097127D01*
X0285198Y0097148D01*
X0285216Y0097166D01*
X0285237Y0097181D01*
X0285259Y0097193D01*
X0285283Y0097202D01*
X0285308Y0097207D01*
X0285333Y0097209D01*
X0285333Y0097208D02*
X0285511Y0097208D01*
D14*
X0060730Y0110665D02*
X0058104Y0110665D01*
X0060730Y0110665D02*
X0060730Y0108039D01*
X0058104Y0108039D01*
X0058104Y0110665D01*
X0058104Y0108913D02*
X0060730Y0108913D01*
X0060730Y0109787D02*
X0058104Y0109787D01*
X0058104Y0110661D02*
X0060730Y0110661D01*
X0054730Y0110665D02*
X0052104Y0110665D01*
X0054730Y0110665D02*
X0054730Y0108039D01*
X0052104Y0108039D01*
X0052104Y0110665D01*
X0052104Y0108913D02*
X0054730Y0108913D01*
X0054730Y0109787D02*
X0052104Y0109787D01*
X0052104Y0110661D02*
X0054730Y0110661D01*
X0054658Y0117862D02*
X0052032Y0117862D01*
X0054658Y0117862D02*
X0054658Y0115236D01*
X0052032Y0115236D01*
X0052032Y0117862D01*
X0052032Y0116110D02*
X0054658Y0116110D01*
X0054658Y0116984D02*
X0052032Y0116984D01*
X0052032Y0117858D02*
X0054658Y0117858D01*
X0058032Y0117862D02*
X0060658Y0117862D01*
X0060658Y0115236D01*
X0058032Y0115236D01*
X0058032Y0117862D01*
X0058032Y0116110D02*
X0060658Y0116110D01*
X0060658Y0116984D02*
X0058032Y0116984D01*
X0058032Y0117858D02*
X0060658Y0117858D01*
X0060658Y0124968D02*
X0058032Y0124968D01*
X0060658Y0124968D02*
X0060658Y0122342D01*
X0058032Y0122342D01*
X0058032Y0124968D01*
X0058032Y0123216D02*
X0060658Y0123216D01*
X0060658Y0124090D02*
X0058032Y0124090D01*
X0058032Y0124964D02*
X0060658Y0124964D01*
X0054658Y0124968D02*
X0052032Y0124968D01*
X0054658Y0124968D02*
X0054658Y0122342D01*
X0052032Y0122342D01*
X0052032Y0124968D01*
X0052032Y0123216D02*
X0054658Y0123216D01*
X0054658Y0124090D02*
X0052032Y0124090D01*
X0052032Y0124964D02*
X0054658Y0124964D01*
D15*
X0067169Y0122209D03*
D16*
X0069236Y0122209D03*
X0071204Y0122209D03*
X0071204Y0110782D03*
X0069236Y0110782D03*
X0067267Y0110782D03*
D17*
X0108167Y0063958D03*
D18*
X0118167Y0063958D03*
X0128167Y0063958D03*
X0128167Y0073958D03*
X0118167Y0073958D03*
X0108167Y0073958D03*
D19*
X0098417Y0086583D03*
X0113792Y0095158D03*
X0079417Y0105083D03*
X0074417Y0101208D03*
X0063917Y0096708D03*
X0065042Y0105083D03*
X0075217Y0116708D03*
X0084467Y0122708D03*
X0103417Y0130208D03*
X0111917Y0124458D03*
X0121917Y0124458D03*
X0137792Y0129169D03*
X0125917Y0114708D03*
X0050967Y0135208D03*
X0036007Y0124493D03*
X0022667Y0114333D03*
X0013102Y0106760D03*
X0042167Y0112208D03*
X0030917Y0092208D03*
X0026417Y0075208D03*
X0037118Y0056760D03*
X0069207Y0053359D03*
X0078167Y0042791D03*
X0110217Y0054158D03*
X0127492Y0052608D03*
X0156417Y0059208D03*
X0142917Y0068708D03*
X0211542Y0064708D03*
X0242917Y0079458D03*
X0252667Y0075583D03*
X0257417Y0079208D03*
X0264167Y0085083D03*
X0255992Y0085858D03*
X0243417Y0090958D03*
X0252152Y0093089D03*
X0255217Y0099208D03*
X0263167Y0098758D03*
X0271129Y0099671D03*
X0287767Y0108833D03*
X0282917Y0112083D03*
X0282167Y0115208D03*
X0292074Y0116241D03*
X0296917Y0115669D03*
X0311917Y0123958D03*
X0324417Y0130958D03*
X0343292Y0137333D03*
X0347667Y0130208D03*
X0350792Y0112083D03*
X0360917Y0107708D03*
X0346167Y0106458D03*
X0342667Y0098208D03*
X0331792Y0100833D03*
X0326917Y0100708D03*
X0323667Y0104158D03*
X0319292Y0106208D03*
X0315917Y0109733D03*
X0311042Y0106208D03*
X0307542Y0105833D03*
X0303292Y0100083D03*
X0307167Y0095458D03*
X0315167Y0094083D03*
X0290667Y0105583D03*
X0257167Y0116708D03*
X0246917Y0115708D03*
X0244417Y0125208D03*
X0241486Y0132206D03*
X0230292Y0133458D03*
X0238067Y0142658D03*
X0261917Y0129458D03*
X0288292Y0139958D03*
X0290767Y0124758D03*
X0363917Y0100958D03*
X0366167Y0094708D03*
X0357167Y0078583D03*
X0338417Y0077908D03*
X0314667Y0077658D03*
X0277467Y0075508D03*
X0273417Y0071708D03*
X0266417Y0064708D03*
X0280046Y0060079D03*
X0287492Y0052508D03*
X0300917Y0054650D03*
X0253917Y0058397D03*
X0275417Y0086208D03*
X0070484Y0073913D03*
D20*
X0098417Y0086583D02*
X0079417Y0105083D01*
X0074542Y0101208D02*
X0071204Y0104152D01*
X0071204Y0110782D01*
X0067236Y0110657D02*
X0067236Y0106636D01*
X0068358Y0104903D01*
X0068342Y0096708D01*
X0063917Y0096708D01*
X0068342Y0096708D02*
X0068492Y0090433D01*
X0105917Y0049958D01*
X0215042Y0049958D01*
X0252667Y0075583D01*
X0252142Y0085833D02*
X0242917Y0079458D01*
X0253917Y0082833D02*
X0209592Y0052558D01*
X0128742Y0052583D01*
X0127492Y0052608D01*
X0124517Y0054208D02*
X0110217Y0054158D01*
X0124517Y0054208D02*
X0125917Y0056208D01*
X0128017Y0056208D01*
X0130742Y0056158D01*
X0131417Y0055208D01*
X0158567Y0054983D01*
X0191417Y0054958D01*
X0238167Y0087958D01*
X0238167Y0091708D01*
X0242817Y0096358D01*
X0253367Y0096358D01*
X0256317Y0093783D01*
X0265042Y0093833D01*
X0271129Y0099671D01*
X0271017Y0089558D02*
X0284917Y0102708D01*
X0288042Y0102708D01*
X0290667Y0105583D01*
X0287767Y0108833D02*
X0258842Y0108833D01*
X0248692Y0118983D01*
X0239667Y0118933D01*
X0234392Y0125713D01*
X0234142Y0134858D01*
X0232042Y0137083D01*
X0228917Y0134958D02*
X0147997Y0135058D01*
X0143167Y0130228D01*
X0143167Y0128708D01*
X0140167Y0125708D01*
X0123167Y0125708D01*
X0121917Y0124458D01*
X0119156Y0121469D02*
X0110679Y0121469D01*
X0108928Y0123220D01*
X0108928Y0124697D01*
X0103417Y0130208D01*
X0119156Y0121469D02*
X0125917Y0114708D01*
X0138417Y0129458D02*
X0146667Y0137458D01*
X0196187Y0137583D01*
X0228917Y0134958D02*
X0230292Y0133458D01*
X0238917Y0131208D02*
X0240917Y0129208D01*
X0245417Y0129208D01*
X0248976Y0125649D01*
X0280089Y0125649D01*
X0292617Y0111958D01*
X0293917Y0110708D01*
X0306792Y0110333D01*
X0311042Y0106208D01*
X0307542Y0105833D02*
X0307667Y0099708D01*
X0297667Y0090458D01*
X0276167Y0090458D01*
X0270217Y0085058D01*
X0264167Y0085083D01*
X0260792Y0082833D02*
X0261917Y0081708D01*
X0267917Y0081708D01*
X0268917Y0083208D01*
X0304417Y0083208D01*
X0307042Y0085833D01*
X0315167Y0094083D01*
X0329792Y0102958D02*
X0331792Y0100833D01*
X0329792Y0102958D02*
X0302842Y0129408D01*
X0261917Y0129458D01*
X0248667Y0129458D01*
X0245917Y0132208D01*
X0241417Y0132208D01*
X0241486Y0132206D01*
X0238917Y0131208D02*
X0238917Y0137958D01*
X0242417Y0141458D01*
X0242417Y0144708D01*
X0240292Y0145833D01*
X0134417Y0146083D01*
X0130542Y0141458D01*
X0130542Y0138208D01*
X0063917Y0138208D01*
X0060417Y0143208D01*
X0033167Y0143208D01*
X0027042Y0137083D01*
X0026917Y0090708D01*
X0029292Y0088333D01*
X0039542Y0088333D01*
X0042042Y0091208D01*
X0042167Y0112208D01*
X0045492Y0115708D02*
X0045642Y0103483D01*
X0047667Y0101458D01*
X0065042Y0101458D01*
X0065042Y0105083D01*
X0045492Y0115708D02*
X0036007Y0124493D01*
X0024417Y0112583D02*
X0022667Y0114333D01*
X0024417Y0112583D02*
X0024417Y0076958D01*
X0026417Y0075208D01*
X0067189Y0119478D02*
X0067189Y0121083D01*
X0067169Y0122209D01*
X0142917Y0068708D02*
X0156417Y0059208D01*
X0211542Y0064708D02*
X0212042Y0064833D01*
X0246292Y0089583D01*
X0271017Y0089558D01*
X0276167Y0090337D02*
X0276167Y0090458D01*
X0260792Y0082833D02*
X0253917Y0082833D01*
X0252142Y0085833D02*
X0255992Y0085858D01*
X0245442Y0093133D02*
X0243417Y0090958D01*
X0245442Y0093133D02*
X0252152Y0093089D01*
X0296917Y0115669D02*
X0298878Y0113708D01*
X0307417Y0113708D01*
X0314917Y0106208D01*
X0319292Y0106208D01*
X0315917Y0109733D02*
X0312017Y0113858D01*
X0308808Y0116962D01*
X0307542Y0116958D01*
X0300338Y0116958D01*
X0298613Y0118683D01*
X0293917Y0118633D01*
X0292074Y0116241D01*
X0342667Y0098208D02*
X0347667Y0098208D01*
X0350792Y0101333D01*
X0350792Y0112083D01*
X0357167Y0078583D02*
X0357167Y0071958D01*
X0349417Y0063583D01*
X0333405Y0063595D01*
X0331310Y0061251D01*
X0331310Y0061241D01*
X0330463Y0060403D01*
X0326917Y0056857D01*
X0320369Y0050161D01*
X0289464Y0050161D01*
X0287492Y0052508D01*
X0266417Y0064708D02*
X0259184Y0058458D01*
X0253942Y0058483D01*
D21*
X0273784Y0064791D02*
X0257417Y0079208D01*
X0273417Y0071708D02*
X0315917Y0071708D01*
X0342667Y0098208D01*
X0344617Y0086658D02*
X0360917Y0102958D01*
X0360917Y0107708D01*
X0363917Y0100958D02*
X0347542Y0084583D01*
X0347542Y0074333D01*
X0344746Y0071538D01*
X0344501Y0071458D01*
X0329917Y0071458D01*
X0316917Y0059208D01*
X0294767Y0059208D01*
X0293887Y0060208D01*
X0291837Y0062433D01*
X0286042Y0062433D01*
X0283615Y0060015D01*
X0280046Y0060079D01*
X0274267Y0064808D02*
X0273784Y0064791D01*
X0293260Y0064791D01*
X0295917Y0061708D01*
X0315312Y0061458D01*
X0328337Y0074233D01*
X0341992Y0074233D01*
X0342134Y0074305D01*
X0344617Y0076488D01*
X0344617Y0086658D01*
X0282917Y0112083D02*
X0261492Y0112158D01*
X0257167Y0116708D01*
X0259067Y0121008D02*
X0259292Y0120908D01*
X0263917Y0115208D01*
X0282167Y0115208D01*
X0259067Y0121008D02*
X0242542Y0121083D01*
X0236792Y0127833D01*
X0236542Y0136958D01*
X0233917Y0139083D01*
X0195167Y0139458D01*
X0145667Y0139458D01*
X0140042Y0133833D01*
X0138167Y0133833D01*
X0136292Y0131958D01*
X0115667Y0131958D01*
X0111917Y0128208D01*
X0111917Y0124458D01*
X0196187Y0137583D02*
X0232042Y0137083D01*
X0078167Y0042791D02*
X0069207Y0053359D01*
D22*
X0114417Y0076958D02*
X0118167Y0073958D01*
X0113992Y0077383D02*
X0113792Y0095158D01*
X0244417Y0125208D02*
X0245392Y0123458D01*
X0278567Y0123633D01*
X0292917Y0108208D01*
X0295167Y0108208D01*
X0303292Y0100083D01*
X0307167Y0095458D02*
X0312417Y0100708D01*
X0326917Y0100708D01*
X0343292Y0109333D02*
X0346167Y0106458D01*
X0343292Y0109333D02*
X0343292Y0137333D01*
X0324417Y0130958D02*
X0320667Y0126708D01*
X0317917Y0123958D01*
X0311917Y0123958D01*
X0307167Y0095458D02*
X0297917Y0085958D01*
X0275417Y0086208D01*
D23*
X0263167Y0098758D02*
X0246917Y0115708D01*
X0238067Y0142658D02*
X0238167Y0142708D01*
X0136917Y0142958D01*
X0134417Y0139458D01*
X0134417Y0135208D01*
X0089417Y0135208D01*
X0076243Y0135208D01*
X0061897Y0135164D01*
X0058441Y0140208D01*
X0034667Y0140208D01*
X0029917Y0135208D01*
X0029917Y0093458D01*
X0030917Y0092208D01*
X0279437Y0053165D02*
X0282046Y0053261D01*
X0300917Y0054650D02*
X0306917Y0054561D01*
X0346417Y0067458D02*
X0347417Y0067458D01*
X0366167Y0094708D02*
X0369042Y0097958D01*
X0368917Y0108958D01*
X0359167Y0116208D01*
X0359167Y0122083D01*
X0347542Y0128583D01*
X0347517Y0130216D01*
D24*
X0366167Y0094708D02*
X0351792Y0080458D01*
X0351792Y0071708D01*
X0347417Y0067458D01*
X0346417Y0067458D02*
X0331917Y0067458D01*
X0327417Y0062958D01*
X0318417Y0054561D01*
X0306917Y0054561D01*
X0294064Y0054561D01*
X0290917Y0057708D01*
X0286343Y0057708D01*
X0282823Y0054188D01*
X0281823Y0053261D01*
X0282046Y0053261D01*
X0281823Y0053261D02*
X0275634Y0053261D01*
X0270178Y0049305D01*
X0262678Y0043708D01*
X0096917Y0043708D01*
X0070484Y0073913D01*
D25*
X0288292Y0139958D02*
X0295292Y0132458D01*
X0320042Y0132458D01*
X0329292Y0142458D01*
X0345042Y0142458D01*
X0347417Y0139208D01*
X0347517Y0130216D01*
M02*
